<svg xmlns="http://www.w3.org/2000/svg" xmlns:xlink="http://www.w3.org/1999/xlink" width="100" height="116.675" viewBox="0 0 100 116.675">
  <defs>
    <clipPath id="clip-path">
      <path id="パス_43795" data-name="パス 43795" d="M2252.39,60.882c-4.295-1.607-9.189-4.108-9.189-7.345V45.044c1.573-4.359,3.936-4.672,5.118-11.363,2.755-.984,4.329-2.559,6.3-9.447.7-2.451.58-4.053.112-5.1,8.382-7.68,2.134-22.42-4.148-30.586a7.69,7.69,0,0,0-.748-.834,16.315,16.315,0,0,0-7.812-4.875c-8.075-9.352-20.663-7.778-32.128,1.213a26.822,26.822,0,0,0-4.269,3.754c-7.582,8.12-12.795,25.648-2.26,32.015a8.765,8.765,0,0,0,.346,4.414c1.966,6.888,3.54,8.463,6.294,9.447,1.182,6.691,4.778,8.839,5.039,11.363v8.493c0,3.237-5.281,5.968-9.189,7.345-7.5,2.643-28.363,10.457-26.63,32.318h99.8C2280.752,71.34,2259.837,63.668,2252.39,60.882Z" transform="translate(-2179.121 23.476)" fill="#4b4b4b"/>
    </clipPath>
  </defs>
  <g id="icon" clip-path="url(#clip-path)">
    <g id="グループ_10428" data-name="グループ 10428" transform="translate(-171.021 -81.677)">
      <g id="グループ_10443" data-name="グループ 10443" opacity="0.5">
        <path id="パス_43764" data-name="パス 43764" d="M300.475,182.447l391.348-92.3" transform="translate(-300.475 18.956)" fill="none" stroke="#275dac" stroke-miterlimit="10" stroke-width="1"/>
        <path id="パス_43764-2" data-name="パス 43764" d="M300.475,322.634l391.348-92.3" transform="translate(-300.475 -81.035)" fill="none" stroke="#275dac" stroke-miterlimit="10" stroke-width="1"/>
        <path id="パス_43764-3" data-name="パス 43764" d="M300.475,302.607l391.348-92.3" transform="translate(-300.475 -66.75)" fill="none" stroke="#275dac" stroke-miterlimit="10" stroke-width="1"/>
        <path id="パス_43764-4" data-name="パス 43764" d="M300.475,352.674l391.348-92.3" transform="translate(-300.475 -102.461)" fill="none" stroke="#275dac" stroke-miterlimit="10" stroke-width="1"/>
        <path id="パス_43764-5" data-name="パス 43764" d="M300.475,342.661l391.348-92.3" transform="translate(-300.475 -95.319)" fill="none" stroke="#275dac" stroke-miterlimit="10" stroke-width="1"/>
        <path id="パス_43764-6" data-name="パス 43764" d="M300.475,222.5l391.348-92.3" transform="translate(-300.475 -9.614)" fill="none" stroke="#275dac" stroke-miterlimit="10" stroke-width="1"/>
        <path id="パス_43764-7" data-name="パス 43764" d="M300.475,192.461l391.348-92.3" transform="translate(-300.475 11.813)" fill="none" stroke="#275dac" stroke-miterlimit="10" stroke-width="1"/>
        <path id="パス_43764-8" data-name="パス 43764" d="M300.475,232.514l391.348-92.3" transform="translate(-300.475 -16.756)" fill="none" stroke="#275dac" stroke-miterlimit="10" stroke-width="1"/>
        <path id="パス_43764-9" data-name="パス 43764" d="M300.475,282.581l391.348-92.3" transform="translate(-300.475 -52.467)" fill="none" stroke="#275dac" stroke-miterlimit="10" stroke-width="1"/>
        <path id="パス_43764-10" data-name="パス 43764" d="M300.475,252.541l391.348-92.3" transform="translate(-300.475 -31.04)" fill="none" stroke="#275dac" stroke-miterlimit="10" stroke-width="1"/>
        <path id="パス_43764-11" data-name="パス 43764" d="M300.475,382.714l391.348-92.3" transform="translate(-300.475 -123.888)" fill="none" stroke="#275dac" stroke-miterlimit="10" stroke-width="1"/>
        <path id="パス_43764-12" data-name="パス 43764" d="M300.475,522.9l391.348-92.3" transform="translate(-300.475 -223.878)" fill="none" stroke="#275dac" stroke-miterlimit="10" stroke-width="1"/>
        <path id="パス_43764-13" data-name="パス 43764" d="M300.475,502.874l391.348-92.3" transform="translate(-300.475 -209.594)" fill="none" stroke="#275dac" stroke-miterlimit="10" stroke-width="1"/>
        <path id="パス_43764-14" data-name="パス 43764" d="M300.475,542.927l391.348-92.3" transform="translate(-300.475 -238.162)" fill="none" stroke="#275dac" stroke-miterlimit="10" stroke-width="1"/>
        <path id="パス_43764-15" data-name="パス 43764" d="M300.475,422.767l391.348-92.3" transform="translate(-300.475 -152.457)" fill="none" stroke="#275dac" stroke-miterlimit="10" stroke-width="1"/>
        <path id="パス_43764-16" data-name="パス 43764" d="M300.475,392.727l391.348-92.3" transform="translate(-300.475 -131.03)" fill="none" stroke="#275dac" stroke-miterlimit="10" stroke-width="1"/>
        <path id="パス_43764-17" data-name="パス 43764" d="M300.475,432.781l391.348-92.3" transform="translate(-300.475 -159.599)" fill="none" stroke="#275dac" stroke-miterlimit="10" stroke-width="1"/>
        <path id="パス_43764-18" data-name="パス 43764" d="M300.475,482.847l391.348-92.3" transform="translate(-300.475 -195.309)" fill="none" stroke="#275dac" stroke-miterlimit="10" stroke-width="1"/>
        <path id="パス_43764-19" data-name="パス 43764" d="M300.475,452.807l391.348-92.3" transform="translate(-300.475 -173.883)" fill="none" stroke="#275dac" stroke-miterlimit="10" stroke-width="1"/>
        <path id="パス_43764-20" data-name="パス 43764" d="M300.475,202.474l391.348-92.3" transform="translate(-300.475 4.671)" fill="none" stroke="#275dac" stroke-miterlimit="10" stroke-width="1"/>
        <path id="パス_43764-21" data-name="パス 43764" d="M300.475,332.647l391.348-92.3" transform="translate(-300.475 -88.177)" fill="none" stroke="#275dac" stroke-miterlimit="10" stroke-width="1"/>
        <path id="パス_43764-22" data-name="パス 43764" d="M300.475,312.621l391.348-92.3" transform="translate(-300.475 -73.893)" fill="none" stroke="#275dac" stroke-miterlimit="10" stroke-width="1"/>
        <path id="パス_43764-23" data-name="パス 43764" d="M300.475,372.7l391.348-92.3" transform="translate(-300.475 -116.746)" fill="none" stroke="#275dac" stroke-miterlimit="10" stroke-width="1"/>
        <path id="パス_43764-24" data-name="パス 43764" d="M300.475,362.687l391.348-92.3" transform="translate(-300.475 -109.604)" fill="none" stroke="#275dac" stroke-miterlimit="10" stroke-width="1"/>
        <path id="パス_43764-25" data-name="パス 43764" d="M300.475,242.527l391.348-92.3" transform="translate(-300.475 -23.897)" fill="none" stroke="#275dac" stroke-miterlimit="10" stroke-width="1"/>
        <path id="パス_43764-26" data-name="パス 43764" d="M300.475,212.487l391.348-92.3" transform="translate(-300.475 -2.471)" fill="none" stroke="#275dac" stroke-miterlimit="10" stroke-width="1"/>
        <path id="パス_43764-27" data-name="パス 43764" d="M300.475,262.554l391.348-92.3" transform="translate(-300.475 -38.182)" fill="none" stroke="#275dac" stroke-miterlimit="10" stroke-width="1"/>
        <path id="パス_43764-28" data-name="パス 43764" d="M300.475,292.594l391.348-92.3" transform="translate(-300.475 -59.608)" fill="none" stroke="#275dac" stroke-miterlimit="10" stroke-width="1"/>
        <path id="パス_43764-29" data-name="パス 43764" d="M300.475,272.567l391.348-92.3" transform="translate(-300.475 -45.324)" fill="none" stroke="#275dac" stroke-miterlimit="10" stroke-width="1"/>
        <path id="パス_43764-30" data-name="パス 43764" d="M300.475,402.741l391.348-92.3" transform="translate(-300.475 -138.172)" fill="none" stroke="#275dac" stroke-miterlimit="10" stroke-width="1"/>
        <path id="パス_43764-31" data-name="パス 43764" d="M300.475,532.914l391.348-92.3" transform="translate(-300.475 -231.021)" fill="none" stroke="#275dac" stroke-miterlimit="10" stroke-width="1"/>
        <path id="パス_43764-32" data-name="パス 43764" d="M300.475,512.887l391.348-92.3" transform="translate(-300.475 -216.736)" fill="none" stroke="#275dac" stroke-miterlimit="10" stroke-width="1"/>
        <path id="パス_43764-33" data-name="パス 43764" d="M300.475,552.941l391.348-92.3" transform="translate(-300.475 -245.305)" fill="none" stroke="#275dac" stroke-miterlimit="10" stroke-width="1"/>
        <path id="パス_43764-34" data-name="パス 43764" d="M300.475,442.794l391.348-92.3" transform="translate(-300.475 -166.741)" fill="none" stroke="#275dac" stroke-miterlimit="10" stroke-width="1"/>
        <path id="パス_43764-35" data-name="パス 43764" d="M300.475,412.754l391.348-92.3" transform="translate(-300.475 -145.314)" fill="none" stroke="#275dac" stroke-miterlimit="10" stroke-width="1"/>
        <path id="パス_43764-36" data-name="パス 43764" d="M300.475,462.821l391.348-92.3" transform="translate(-300.475 -181.025)" fill="none" stroke="#275dac" stroke-miterlimit="10" stroke-width="1"/>
        <path id="パス_43764-37" data-name="パス 43764" d="M300.475,492.861l391.348-92.3" transform="translate(-300.475 -202.452)" fill="none" stroke="#275dac" stroke-miterlimit="10" stroke-width="1"/>
        <path id="パス_43764-38" data-name="パス 43764" d="M300.475,472.834l391.348-92.3" transform="translate(-300.475 -188.167)" fill="none" stroke="#275dac" stroke-miterlimit="10" stroke-width="1"/>
        <path id="パス_43764-39" data-name="パス 43764" d="M300.475-198.059l391.348-92.3" transform="translate(-300.475 290.357)" fill="none" stroke="#275dac" stroke-miterlimit="10" stroke-width="1"/>
        <path id="パス_43764-40" data-name="パス 43764" d="M300.475-57.873l391.348-92.3" transform="translate(-300.475 190.367)" fill="none" stroke="#275dac" stroke-miterlimit="10" stroke-width="1"/>
        <path id="パス_43764-41" data-name="パス 43764" d="M300.475-77.9l391.348-92.3" transform="translate(-300.475 204.651)" fill="none" stroke="#275dac" stroke-miterlimit="10" stroke-width="1"/>
        <path id="パス_43764-42" data-name="パス 43764" d="M300.475-27.833l391.348-92.3" transform="translate(-300.475 168.94)" fill="none" stroke="#275dac" stroke-miterlimit="10" stroke-width="1"/>
        <path id="パス_43764-43" data-name="パス 43764" d="M300.475-37.846l391.348-92.3" transform="translate(-300.475 176.083)" fill="none" stroke="#275dac" stroke-miterlimit="10" stroke-width="1"/>
        <path id="パス_43764-44" data-name="パス 43764" d="M300.475-158.006l391.348-92.3" transform="translate(-300.475 261.789)" fill="none" stroke="#275dac" stroke-miterlimit="10" stroke-width="1"/>
        <path id="パス_43764-45" data-name="パス 43764" d="M300.475-188.046l391.348-92.3" transform="translate(-300.475 283.215)" fill="none" stroke="#275dac" stroke-miterlimit="10" stroke-width="1"/>
        <path id="パス_43764-46" data-name="パス 43764" d="M300.475-147.993l391.348-92.3" transform="translate(-300.475 254.646)" fill="none" stroke="#275dac" stroke-miterlimit="10" stroke-width="1"/>
        <path id="パス_43764-47" data-name="パス 43764" d="M300.475-97.926l391.348-92.3" transform="translate(-300.475 218.936)" fill="none" stroke="#275dac" stroke-miterlimit="10" stroke-width="1"/>
        <path id="パス_43764-48" data-name="パス 43764" d="M300.475-127.966l391.348-92.3" transform="translate(-300.475 240.362)" fill="none" stroke="#275dac" stroke-miterlimit="10" stroke-width="1"/>
        <path id="パス_43764-49" data-name="パス 43764" d="M300.475,2.207l391.348-92.3" transform="translate(-300.475 147.514)" fill="none" stroke="#275dac" stroke-miterlimit="10" stroke-width="1"/>
        <path id="パス_43764-50" data-name="パス 43764" d="M300.475,142.394,691.823,50.1" transform="translate(-300.475 47.524)" fill="none" stroke="#275dac" stroke-miterlimit="10" stroke-width="1"/>
        <path id="パス_43764-51" data-name="パス 43764" d="M300.475,122.367l391.348-92.3" transform="translate(-300.475 61.808)" fill="none" stroke="#275dac" stroke-miterlimit="10" stroke-width="1"/>
        <path id="パス_43764-52" data-name="パス 43764" d="M300.475,162.421l391.348-92.3" transform="translate(-300.475 33.239)" fill="none" stroke="#275dac" stroke-miterlimit="10" stroke-width="1"/>
        <path id="パス_43764-53" data-name="パス 43764" d="M300.475,42.261l391.348-92.3" transform="translate(-300.475 118.945)" fill="none" stroke="#275dac" stroke-miterlimit="10" stroke-width="1"/>
        <path id="パス_43764-54" data-name="パス 43764" d="M300.475,12.221l391.348-92.3" transform="translate(-300.475 140.372)" fill="none" stroke="#275dac" stroke-miterlimit="10" stroke-width="1"/>
        <path id="パス_43764-55" data-name="パス 43764" d="M300.475,52.274l391.348-92.3" transform="translate(-300.475 111.803)" fill="none" stroke="#275dac" stroke-miterlimit="10" stroke-width="1"/>
        <path id="パス_43764-56" data-name="パス 43764" d="M300.475,102.341l391.348-92.3" transform="translate(-300.475 76.092)" fill="none" stroke="#275dac" stroke-miterlimit="10" stroke-width="1"/>
        <path id="パス_43764-57" data-name="パス 43764" d="M300.475,72.3,691.823-20" transform="translate(-300.475 97.519)" fill="none" stroke="#275dac" stroke-miterlimit="10" stroke-width="1"/>
        <path id="パス_43764-58" data-name="パス 43764" d="M300.475-178.033l391.348-92.3" transform="translate(-300.475 276.073)" fill="none" stroke="#275dac" stroke-miterlimit="10" stroke-width="1"/>
        <path id="パス_43764-59" data-name="パス 43764" d="M300.475-47.859l391.348-92.3" transform="translate(-300.475 183.225)" fill="none" stroke="#275dac" stroke-miterlimit="10" stroke-width="1"/>
        <path id="パス_43764-60" data-name="パス 43764" d="M300.475-67.886l391.348-92.3" transform="translate(-300.475 197.509)" fill="none" stroke="#275dac" stroke-miterlimit="10" stroke-width="1"/>
        <path id="パス_43764-61" data-name="パス 43764" d="M300.475-7.806l391.348-92.3" transform="translate(-300.475 154.656)" fill="none" stroke="#275dac" stroke-miterlimit="10" stroke-width="1"/>
        <path id="パス_43764-62" data-name="パス 43764" d="M300.475-17.819l391.348-92.3" transform="translate(-300.475 161.798)" fill="none" stroke="#275dac" stroke-miterlimit="10" stroke-width="1"/>
        <path id="パス_43764-63" data-name="パス 43764" d="M300.475-137.979l391.348-92.3" transform="translate(-300.475 247.504)" fill="none" stroke="#275dac" stroke-miterlimit="10" stroke-width="1"/>
        <path id="パス_43764-64" data-name="パス 43764" d="M300.475-168.019l391.348-92.3" transform="translate(-300.475 268.93)" fill="none" stroke="#275dac" stroke-miterlimit="10" stroke-width="1"/>
        <path id="パス_43764-65" data-name="パス 43764" d="M300.475-117.953l391.348-92.3" transform="translate(-300.475 233.22)" fill="none" stroke="#275dac" stroke-miterlimit="10" stroke-width="1"/>
        <path id="パス_43764-66" data-name="パス 43764" d="M300.475-87.913l391.348-92.3" transform="translate(-300.475 211.793)" fill="none" stroke="#275dac" stroke-miterlimit="10" stroke-width="1"/>
        <path id="パス_43764-67" data-name="パス 43764" d="M300.475-107.939l391.348-92.3" transform="translate(-300.475 226.077)" fill="none" stroke="#275dac" stroke-miterlimit="10" stroke-width="1"/>
        <path id="パス_43764-68" data-name="パス 43764" d="M300.475,22.234l391.348-92.3" transform="translate(-300.475 133.229)" fill="none" stroke="#275dac" stroke-miterlimit="10" stroke-width="1"/>
        <path id="パス_43764-69" data-name="パス 43764" d="M300.475,152.407l391.348-92.3" transform="translate(-300.475 40.382)" fill="none" stroke="#275dac" stroke-miterlimit="10" stroke-width="1"/>
        <path id="パス_43764-70" data-name="パス 43764" d="M300.475,132.381l391.348-92.3" transform="translate(-300.475 54.666)" fill="none" stroke="#275dac" stroke-miterlimit="10" stroke-width="1"/>
        <path id="パス_43764-71" data-name="パス 43764" d="M300.475,172.434l391.348-92.3" transform="translate(-300.475 26.097)" fill="none" stroke="#275dac" stroke-miterlimit="10" stroke-width="1"/>
        <path id="パス_43764-72" data-name="パス 43764" d="M300.475,62.287l391.348-92.3" transform="translate(-300.475 104.661)" fill="none" stroke="#275dac" stroke-miterlimit="10" stroke-width="1"/>
        <path id="パス_43764-73" data-name="パス 43764" d="M300.475,32.247l391.348-92.3" transform="translate(-300.475 126.088)" fill="none" stroke="#275dac" stroke-miterlimit="10" stroke-width="1"/>
        <path id="パス_43764-74" data-name="パス 43764" d="M300.475,82.314l391.348-92.3" transform="translate(-300.475 90.376)" fill="none" stroke="#275dac" stroke-miterlimit="10" stroke-width="1"/>
        <path id="パス_43764-75" data-name="パス 43764" d="M300.475,112.354l391.348-92.3" transform="translate(-300.475 68.95)" fill="none" stroke="#275dac" stroke-miterlimit="10" stroke-width="1"/>
        <path id="パス_43764-76" data-name="パス 43764" d="M300.475,92.327,691.823.029" transform="translate(-300.475 83.235)" fill="none" stroke="#275dac" stroke-miterlimit="10" stroke-width="1"/>
      </g>
      <g id="グループ_10442" data-name="グループ 10442">
        <path id="パス_43793" data-name="パス 43793" d="M532.01-73.476l10.661-7.478,32.366-1.723,43.379,18.5v24.885l-118.41-1.885V-52.535Z" transform="translate(-338.469 239.705)" fill="#275dac"/>
        <path id="パス_43794" data-name="パス 43794" d="M543.438-147.345l7.888-5.5,16.361-20.188s15.55,20.115,18.757,21.525,7.392,2.987,7.392,2.987l8.293-4.324-1.844-25.537-34.593-22.8-18.26,2.281-12.82,43.864Z" transform="translate(-347.627 272.398)" fill="#275dac"/>
      </g>
    </g>
  </g>
</svg>
