<svg id="icon" xmlns="http://www.w3.org/2000/svg" xmlns:xlink="http://www.w3.org/1999/xlink" width="100" height="114.956" viewBox="0 0 100 114.956">
  <defs>
    <clipPath id="clip-path">
      <path id="パス_43784" data-name="パス 43784" d="M1103.269,1163.9c-4.3-1.607-9.189-4.108-9.189-7.345v-8.493c1.573-4.36,3.936-4.672,5.118-11.363,2.755-.984,4.329-2.559,6.3-9.447,1.478-5.185-.7-6.576-2.109-6.947.029-.276.058-.554.081-.88.532-7.765,5.041-30.815-10.568-33.57-4.132-3.214-6.754-4.67-15.609-4.132-5.606,0-9.867,1.236-15.8-.461-7.923,6.646-5.746,28.473-4.637,39-1.394.312-3.8,1.607-2.26,6.987,1.966,6.888,3.54,8.463,6.295,9.447,1.182,6.691,4.777,8.84,5.039,11.363v8.493c0,3.237-5.281,5.968-9.189,7.345-7.5,2.643-28.363,10.457-26.629,32.318h99.8C1131.631,1174.354,1110.716,1166.683,1103.269,1163.9Z" transform="translate(-1030 -1081.258)" fill="#4b4b4b"/>
    </clipPath>
  </defs>
  <g id="icon-2" data-name="icon" clip-path="url(#clip-path)">
    <g id="グループ_10425" data-name="グループ 10425" transform="translate(-166.409 -87.865)">
      <g id="グループ_10441" data-name="グループ 10441" opacity="0.5">
        <path id="パス_43764" data-name="パス 43764" d="M300.475,181.087,686.056,90.149" transform="translate(-300.475 17.348)" fill="none" stroke="#275dac" stroke-miterlimit="10" stroke-width="1"/>
        <path id="パス_43764-2" data-name="パス 43764" d="M300.475,321.274l385.581-90.938" transform="translate(-300.475 -83.235)" fill="none" stroke="#275dac" stroke-miterlimit="10" stroke-width="1"/>
        <path id="パス_43764-3" data-name="パス 43764" d="M300.475,301.247l385.581-90.938" transform="translate(-300.475 -68.866)" fill="none" stroke="#275dac" stroke-miterlimit="10" stroke-width="1"/>
        <path id="パス_43764-4" data-name="パス 43764" d="M300.475,351.314l385.581-90.938" transform="translate(-300.475 -104.789)" fill="none" stroke="#275dac" stroke-miterlimit="10" stroke-width="1"/>
        <path id="パス_43764-5" data-name="パス 43764" d="M300.475,341.3l385.581-90.938" transform="translate(-300.475 -97.604)" fill="none" stroke="#275dac" stroke-miterlimit="10" stroke-width="1"/>
        <path id="パス_43764-6" data-name="パス 43764" d="M300.475,221.141,686.056,130.2" transform="translate(-300.475 -11.391)" fill="none" stroke="#275dac" stroke-miterlimit="10" stroke-width="1"/>
        <path id="パス_43764-7" data-name="パス 43764" d="M300.475,191.1l385.581-90.938" transform="translate(-300.475 10.163)" fill="none" stroke="#275dac" stroke-miterlimit="10" stroke-width="1"/>
        <path id="パス_43764-8" data-name="パス 43764" d="M300.475,231.154l385.581-90.938" transform="translate(-300.475 -18.575)" fill="none" stroke="#275dac" stroke-miterlimit="10" stroke-width="1"/>
        <path id="パス_43764-9" data-name="パス 43764" d="M300.475,281.221l385.581-90.938" transform="translate(-300.475 -54.497)" fill="none" stroke="#275dac" stroke-miterlimit="10" stroke-width="1"/>
        <path id="パス_43764-10" data-name="パス 43764" d="M300.475,251.181l385.581-90.938" transform="translate(-300.475 -32.944)" fill="none" stroke="#275dac" stroke-miterlimit="10" stroke-width="1"/>
        <path id="パス_43764-11" data-name="パス 43764" d="M300.475,381.354l385.581-90.938" transform="translate(-300.475 -126.342)" fill="none" stroke="#275dac" stroke-miterlimit="10" stroke-width="1"/>
        <path id="パス_43764-12" data-name="パス 43764" d="M300.475,521.541,686.056,430.6" transform="translate(-300.475 -226.924)" fill="none" stroke="#275dac" stroke-miterlimit="10" stroke-width="1"/>
        <path id="パス_43764-13" data-name="パス 43764" d="M300.475,501.514l385.581-90.938" transform="translate(-300.475 -212.555)" fill="none" stroke="#275dac" stroke-miterlimit="10" stroke-width="1"/>
        <path id="パス_43764-14" data-name="パス 43764" d="M300.475,541.567l385.581-90.938" transform="translate(-300.475 -241.293)" fill="none" stroke="#275dac" stroke-miterlimit="10" stroke-width="1"/>
        <path id="パス_43764-15" data-name="パス 43764" d="M300.475,421.407l385.581-90.938" transform="translate(-300.475 -155.079)" fill="none" stroke="#275dac" stroke-miterlimit="10" stroke-width="1"/>
        <path id="パス_43764-16" data-name="パス 43764" d="M300.475,391.367l385.581-90.938" transform="translate(-300.475 -133.526)" fill="none" stroke="#275dac" stroke-miterlimit="10" stroke-width="1"/>
        <path id="パス_43764-17" data-name="パス 43764" d="M300.475,431.421l385.581-90.938" transform="translate(-300.475 -162.264)" fill="none" stroke="#275dac" stroke-miterlimit="10" stroke-width="1"/>
        <path id="パス_43764-18" data-name="パス 43764" d="M300.475,481.487l385.581-90.938" transform="translate(-300.475 -198.186)" fill="none" stroke="#275dac" stroke-miterlimit="10" stroke-width="1"/>
        <path id="パス_43764-19" data-name="パス 43764" d="M300.475,451.447l385.581-90.938" transform="translate(-300.475 -176.633)" fill="none" stroke="#275dac" stroke-miterlimit="10" stroke-width="1"/>
        <path id="パス_43764-20" data-name="パス 43764" d="M300.475,201.114l385.581-90.938" transform="translate(-300.475 2.979)" fill="none" stroke="#275dac" stroke-miterlimit="10" stroke-width="1"/>
        <path id="パス_43764-21" data-name="パス 43764" d="M300.475,331.287l385.581-90.938" transform="translate(-300.475 -90.419)" fill="none" stroke="#275dac" stroke-miterlimit="10" stroke-width="1"/>
        <path id="パス_43764-22" data-name="パス 43764" d="M300.475,311.261l385.581-90.938" transform="translate(-300.475 -76.051)" fill="none" stroke="#275dac" stroke-miterlimit="10" stroke-width="1"/>
        <path id="パス_43764-23" data-name="パス 43764" d="M300.475,371.341,686.056,280.4" transform="translate(-300.475 -119.158)" fill="none" stroke="#275dac" stroke-miterlimit="10" stroke-width="1"/>
        <path id="パス_43764-24" data-name="パス 43764" d="M300.475,361.327l385.581-90.938" transform="translate(-300.475 -111.972)" fill="none" stroke="#275dac" stroke-miterlimit="10" stroke-width="1"/>
        <path id="パス_43764-25" data-name="パス 43764" d="M300.475,241.167l385.581-90.938" transform="translate(-300.475 -25.759)" fill="none" stroke="#275dac" stroke-miterlimit="10" stroke-width="1"/>
        <path id="パス_43764-26" data-name="パス 43764" d="M300.475,211.127l385.581-90.938" transform="translate(-300.475 -4.206)" fill="none" stroke="#275dac" stroke-miterlimit="10" stroke-width="1"/>
        <path id="パス_43764-27" data-name="パス 43764" d="M300.475,261.194l385.581-90.938" transform="translate(-300.475 -40.128)" fill="none" stroke="#275dac" stroke-miterlimit="10" stroke-width="1"/>
        <path id="パス_43764-28" data-name="パス 43764" d="M300.475,291.234,686.056,200.3" transform="translate(-300.475 -61.682)" fill="none" stroke="#275dac" stroke-miterlimit="10" stroke-width="1"/>
        <path id="パス_43764-29" data-name="パス 43764" d="M300.475,271.207l385.581-90.938" transform="translate(-300.475 -47.313)" fill="none" stroke="#275dac" stroke-miterlimit="10" stroke-width="1"/>
        <path id="パス_43764-30" data-name="パス 43764" d="M300.475,401.381l385.581-90.938" transform="translate(-300.475 -140.711)" fill="none" stroke="#275dac" stroke-miterlimit="10" stroke-width="1"/>
        <path id="パス_43764-31" data-name="パス 43764" d="M300.475,531.554l385.581-90.938" transform="translate(-300.475 -234.109)" fill="none" stroke="#275dac" stroke-miterlimit="10" stroke-width="1"/>
        <path id="パス_43764-32" data-name="パス 43764" d="M300.475,511.527l385.581-90.938" transform="translate(-300.475 -219.74)" fill="none" stroke="#275dac" stroke-miterlimit="10" stroke-width="1"/>
        <path id="パス_43764-33" data-name="パス 43764" d="M300.475,551.581l385.581-90.938" transform="translate(-300.475 -248.478)" fill="none" stroke="#275dac" stroke-miterlimit="10" stroke-width="1"/>
        <path id="パス_43764-34" data-name="パス 43764" d="M300.475,441.434,686.056,350.5" transform="translate(-300.475 -169.448)" fill="none" stroke="#275dac" stroke-miterlimit="10" stroke-width="1"/>
        <path id="パス_43764-35" data-name="パス 43764" d="M300.475,411.394l385.581-90.938" transform="translate(-300.475 -147.895)" fill="none" stroke="#275dac" stroke-miterlimit="10" stroke-width="1"/>
        <path id="パス_43764-36" data-name="パス 43764" d="M300.475,461.461l385.581-90.938" transform="translate(-300.475 -183.818)" fill="none" stroke="#275dac" stroke-miterlimit="10" stroke-width="1"/>
        <path id="パス_43764-37" data-name="パス 43764" d="M300.475,491.5l385.581-90.938" transform="translate(-300.475 -205.371)" fill="none" stroke="#275dac" stroke-miterlimit="10" stroke-width="1"/>
        <path id="パス_43764-38" data-name="パス 43764" d="M300.475,471.474l385.581-90.938" transform="translate(-300.475 -191.002)" fill="none" stroke="#275dac" stroke-miterlimit="10" stroke-width="1"/>
        <path id="パス_43764-39" data-name="パス 43764" d="M300.475-199.419l385.581-90.938" transform="translate(-300.475 290.357)" fill="none" stroke="#275dac" stroke-miterlimit="10" stroke-width="1"/>
        <path id="パス_43764-40" data-name="パス 43764" d="M300.475-59.233l385.581-90.938" transform="translate(-300.475 189.775)" fill="none" stroke="#275dac" stroke-miterlimit="10" stroke-width="1"/>
        <path id="パス_43764-41" data-name="パス 43764" d="M300.475-79.259,686.056-170.2" transform="translate(-300.475 204.144)" fill="none" stroke="#275dac" stroke-miterlimit="10" stroke-width="1"/>
        <path id="パス_43764-42" data-name="パス 43764" d="M300.475-29.193l385.581-90.938" transform="translate(-300.475 168.222)" fill="none" stroke="#275dac" stroke-miterlimit="10" stroke-width="1"/>
        <path id="パス_43764-43" data-name="パス 43764" d="M300.475-39.206l385.581-90.938" transform="translate(-300.475 175.406)" fill="none" stroke="#275dac" stroke-miterlimit="10" stroke-width="1"/>
        <path id="パス_43764-44" data-name="パス 43764" d="M300.475-159.366,686.056-250.3" transform="translate(-300.475 261.619)" fill="none" stroke="#275dac" stroke-miterlimit="10" stroke-width="1"/>
        <path id="パス_43764-45" data-name="パス 43764" d="M300.475-189.406l385.581-90.938" transform="translate(-300.475 283.173)" fill="none" stroke="#275dac" stroke-miterlimit="10" stroke-width="1"/>
        <path id="パス_43764-46" data-name="パス 43764" d="M300.475-149.353l385.581-90.938" transform="translate(-300.475 254.435)" fill="none" stroke="#275dac" stroke-miterlimit="10" stroke-width="1"/>
        <path id="パス_43764-47" data-name="パス 43764" d="M300.475-99.286l385.581-90.938" transform="translate(-300.475 218.513)" fill="none" stroke="#275dac" stroke-miterlimit="10" stroke-width="1"/>
        <path id="パス_43764-48" data-name="パス 43764" d="M300.475-129.326l385.581-90.938" transform="translate(-300.475 240.066)" fill="none" stroke="#275dac" stroke-miterlimit="10" stroke-width="1"/>
        <path id="パス_43764-49" data-name="パス 43764" d="M300.475.847,686.056-90.091" transform="translate(-300.475 146.668)" fill="none" stroke="#275dac" stroke-miterlimit="10" stroke-width="1"/>
        <path id="パス_43764-50" data-name="パス 43764" d="M300.475,141.034,686.056,50.1" transform="translate(-300.475 46.085)" fill="none" stroke="#275dac" stroke-miterlimit="10" stroke-width="1"/>
        <path id="パス_43764-51" data-name="パス 43764" d="M300.475,121.007,686.056,30.069" transform="translate(-300.475 60.455)" fill="none" stroke="#275dac" stroke-miterlimit="10" stroke-width="1"/>
        <path id="パス_43764-52" data-name="パス 43764" d="M300.475,161.061,686.056,70.123" transform="translate(-300.475 31.716)" fill="none" stroke="#275dac" stroke-miterlimit="10" stroke-width="1"/>
        <path id="パス_43764-53" data-name="パス 43764" d="M300.475,40.9,686.056-50.037" transform="translate(-300.475 117.93)" fill="none" stroke="#275dac" stroke-miterlimit="10" stroke-width="1"/>
        <path id="パス_43764-54" data-name="パス 43764" d="M300.475,10.861,686.056-80.077" transform="translate(-300.475 139.483)" fill="none" stroke="#275dac" stroke-miterlimit="10" stroke-width="1"/>
        <path id="パス_43764-55" data-name="パス 43764" d="M300.475,50.914,686.056-40.024" transform="translate(-300.475 110.746)" fill="none" stroke="#275dac" stroke-miterlimit="10" stroke-width="1"/>
        <path id="パス_43764-56" data-name="パス 43764" d="M300.475,100.981,686.056,10.043" transform="translate(-300.475 74.823)" fill="none" stroke="#275dac" stroke-miterlimit="10" stroke-width="1"/>
        <path id="パス_43764-57" data-name="パス 43764" d="M300.475,70.941,686.056-20" transform="translate(-300.475 96.376)" fill="none" stroke="#275dac" stroke-miterlimit="10" stroke-width="1"/>
        <path id="パス_43764-58" data-name="パス 43764" d="M300.475-179.393l385.581-90.938" transform="translate(-300.475 275.988)" fill="none" stroke="#275dac" stroke-miterlimit="10" stroke-width="1"/>
        <path id="パス_43764-59" data-name="パス 43764" d="M300.475-49.219l385.581-90.938" transform="translate(-300.475 182.59)" fill="none" stroke="#275dac" stroke-miterlimit="10" stroke-width="1"/>
        <path id="パス_43764-60" data-name="パス 43764" d="M300.475-69.246l385.581-90.938" transform="translate(-300.475 196.959)" fill="none" stroke="#275dac" stroke-miterlimit="10" stroke-width="1"/>
        <path id="パス_43764-61" data-name="パス 43764" d="M300.475-9.166,686.056-100.1" transform="translate(-300.475 153.853)" fill="none" stroke="#275dac" stroke-miterlimit="10" stroke-width="1"/>
        <path id="パス_43764-62" data-name="パス 43764" d="M300.475-19.179l385.581-90.938" transform="translate(-300.475 161.037)" fill="none" stroke="#275dac" stroke-miterlimit="10" stroke-width="1"/>
        <path id="パス_43764-63" data-name="パス 43764" d="M300.475-139.339l385.581-90.938" transform="translate(-300.475 247.25)" fill="none" stroke="#275dac" stroke-miterlimit="10" stroke-width="1"/>
        <path id="パス_43764-64" data-name="パス 43764" d="M300.475-169.379l385.581-90.938" transform="translate(-300.475 268.804)" fill="none" stroke="#275dac" stroke-miterlimit="10" stroke-width="1"/>
        <path id="パス_43764-65" data-name="パス 43764" d="M300.475-119.313l385.581-90.938" transform="translate(-300.475 232.882)" fill="none" stroke="#275dac" stroke-miterlimit="10" stroke-width="1"/>
        <path id="パス_43764-66" data-name="パス 43764" d="M300.475-89.273l385.581-90.938" transform="translate(-300.475 211.328)" fill="none" stroke="#275dac" stroke-miterlimit="10" stroke-width="1"/>
        <path id="パス_43764-67" data-name="パス 43764" d="M300.475-109.3l385.581-90.938" transform="translate(-300.475 225.697)" fill="none" stroke="#275dac" stroke-miterlimit="10" stroke-width="1"/>
        <path id="パス_43764-68" data-name="パス 43764" d="M300.475,20.874,686.056-70.064" transform="translate(-300.475 132.299)" fill="none" stroke="#275dac" stroke-miterlimit="10" stroke-width="1"/>
        <path id="パス_43764-69" data-name="パス 43764" d="M300.475,151.047,686.056,60.109" transform="translate(-300.475 38.901)" fill="none" stroke="#275dac" stroke-miterlimit="10" stroke-width="1"/>
        <path id="パス_43764-70" data-name="パス 43764" d="M300.475,131.021,686.056,40.083" transform="translate(-300.475 53.27)" fill="none" stroke="#275dac" stroke-miterlimit="10" stroke-width="1"/>
        <path id="パス_43764-71" data-name="パス 43764" d="M300.475,171.074,686.056,80.136" transform="translate(-300.475 24.532)" fill="none" stroke="#275dac" stroke-miterlimit="10" stroke-width="1"/>
        <path id="パス_43764-72" data-name="パス 43764" d="M300.475,60.927,686.056-30.011" transform="translate(-300.475 103.562)" fill="none" stroke="#275dac" stroke-miterlimit="10" stroke-width="1"/>
        <path id="パス_43764-73" data-name="パス 43764" d="M300.475,30.887,686.056-60.051" transform="translate(-300.475 125.115)" fill="none" stroke="#275dac" stroke-miterlimit="10" stroke-width="1"/>
        <path id="パス_43764-74" data-name="パス 43764" d="M300.475,80.954,686.056-9.984" transform="translate(-300.475 89.192)" fill="none" stroke="#275dac" stroke-miterlimit="10" stroke-width="1"/>
        <path id="パス_43764-75" data-name="パス 43764" d="M300.475,110.994,686.056,20.056" transform="translate(-300.475 67.639)" fill="none" stroke="#275dac" stroke-miterlimit="10" stroke-width="1"/>
        <path id="パス_43764-76" data-name="パス 43764" d="M300.475,90.967,686.056.029" transform="translate(-300.475 82.008)" fill="none" stroke="#275dac" stroke-miterlimit="10" stroke-width="1"/>
      </g>
      <g id="グループ_10440" data-name="グループ 10440">
        <path id="パス_43786" data-name="パス 43786" d="M20537.279,1605.479l-11.494,12.211V1633.2l3.7,18.627,13.039-6.058,22.795-12.568,7.15,12.568,6.645,7.555,16.184-21.77-2.537-20.3-55.477-4.805,43.443,17.746" transform="translate(-20339.834 -1525.49)" fill="#275dac"/>
        <path id="パス_43787" data-name="パス 43787" d="M537.857-87.548l21.718,33.531,18.5-30.1,38.6,18.63v21.36l-116.665,1.3V-54.017Z" transform="translate(-343.006 247.127)" fill="#275dac"/>
      </g>
    </g>
  </g>
</svg>
