<svg id="コンポーネント_39_1" data-name="コンポーネント 39 – 1" xmlns="http://www.w3.org/2000/svg" xmlns:xlink="http://www.w3.org/1999/xlink" width="100" height="133.411" viewBox="0 0 100 133.411">
  <defs>
    <clipPath id="clip-path">
      <path id="パス_43775" data-name="パス 43775" d="M1600.07,1184.22c-12.679-10.707-28.65-13.27-32.745-25.2a67.123,67.123,0,0,1-.041-7.346q1.053-.684,2.148-1.479c3.748-2.729,6.42-7.018,8.362-12.38,3.142-1.123,4.938-2.919,7.181-10.775,1.686-5.914-.8-7.5-2.405-7.924.033-.315.066-.632.092-1,.4-5.841,5.688-14.31-1.775-25.505-3.411-5.115-12.4-13.357-20.959-13.838-1.71-3.156-5.789-7.936-14.341-6.058-7.5,1.646-10.536,8.438-10.563,14.746a33.071,33.071,0,0,0-5.235,8.33c-4.309,9.918-.93,17.28-.3,23.285-1.589.356-4.33,1.833-2.577,7.969,2.242,7.856,4.038,9.652,7.179,10.775a18.37,18.37,0,0,0,3.709,7.407h0s2.016,5.544-6.3,12.851c-7.967,7-9.455,8.688-8.237,17.68-4.123,2.636-7.909,4.993-10.323,6.573-5.644,3.695-7.308,12.938-7.009,23.372h99.933C1606.137,1196.4,1604.833,1188.242,1600.07,1184.22Z" transform="translate(-1505.899 -1072.285)" fill="#4b4b4b"/>
    </clipPath>
  </defs>
  <g id="マスクグループ_71" data-name="マスクグループ 71" transform="translate(0 0)" clip-path="url(#clip-path)">
    <g id="グループ_10426" data-name="グループ 10426" transform="translate(-184.397 -85.731)">
      <g id="グループ_10439" data-name="グループ 10439" opacity="0.5">
        <path id="パス_43764" data-name="パス 43764" d="M300.475,188.555,717.722,90.149" transform="translate(-300.475 26.176)" fill="none" stroke="#275dac" stroke-miterlimit="10" stroke-width="1"/>
        <path id="パス_43764-2" data-name="パス 43764" d="M300.475,328.742l417.247-98.406" transform="translate(-300.475 -71.154)" fill="none" stroke="#275dac" stroke-miterlimit="10" stroke-width="1"/>
        <path id="パス_43764-3" data-name="パス 43764" d="M300.475,308.715l417.247-98.406" transform="translate(-300.475 -57.25)" fill="none" stroke="#275dac" stroke-miterlimit="10" stroke-width="1"/>
        <path id="パス_43764-4" data-name="パス 43764" d="M300.475,358.782l417.247-98.406" transform="translate(-300.475 -92.011)" fill="none" stroke="#275dac" stroke-miterlimit="10" stroke-width="1"/>
        <path id="パス_43764-5" data-name="パス 43764" d="M300.475,348.769l417.247-98.406" transform="translate(-300.475 -85.059)" fill="none" stroke="#275dac" stroke-miterlimit="10" stroke-width="1"/>
        <path id="パス_43764-6" data-name="パス 43764" d="M300.475,228.609,717.722,130.2" transform="translate(-300.475 -1.633)" fill="none" stroke="#275dac" stroke-miterlimit="10" stroke-width="1"/>
        <path id="パス_43764-7" data-name="パス 43764" d="M300.475,198.569l417.247-98.406" transform="translate(-300.475 19.224)" fill="none" stroke="#275dac" stroke-miterlimit="10" stroke-width="1"/>
        <path id="パス_43764-8" data-name="パス 43764" d="M300.475,238.622l417.247-98.406" transform="translate(-300.475 -8.585)" fill="none" stroke="#275dac" stroke-miterlimit="10" stroke-width="1"/>
        <path id="パス_43764-9" data-name="パス 43764" d="M300.475,288.689l417.247-98.406" transform="translate(-300.475 -43.346)" fill="none" stroke="#275dac" stroke-miterlimit="10" stroke-width="1"/>
        <path id="パス_43764-10" data-name="パス 43764" d="M300.475,258.649l417.247-98.406" transform="translate(-300.475 -22.489)" fill="none" stroke="#275dac" stroke-miterlimit="10" stroke-width="1"/>
        <path id="パス_43764-11" data-name="パス 43764" d="M300.475,388.822l417.247-98.406" transform="translate(-300.475 -112.867)" fill="none" stroke="#275dac" stroke-miterlimit="10" stroke-width="1"/>
        <path id="パス_43764-12" data-name="パス 43764" d="M300.475,529.009,717.722,430.6" transform="translate(-300.475 -210.197)" fill="none" stroke="#275dac" stroke-miterlimit="10" stroke-width="1"/>
        <path id="パス_43764-13" data-name="パス 43764" d="M300.475,508.982l417.247-98.406" transform="translate(-300.475 -196.292)" fill="none" stroke="#275dac" stroke-miterlimit="10" stroke-width="1"/>
        <path id="パス_43764-14" data-name="パス 43764" d="M300.475,549.035l417.247-98.406" transform="translate(-300.475 -224.101)" fill="none" stroke="#275dac" stroke-miterlimit="10" stroke-width="1"/>
        <path id="パス_43764-15" data-name="パス 43764" d="M300.475,428.875l417.247-98.406" transform="translate(-300.475 -140.675)" fill="none" stroke="#275dac" stroke-miterlimit="10" stroke-width="1"/>
        <path id="パス_43764-16" data-name="パス 43764" d="M300.475,398.835l417.247-98.406" transform="translate(-300.475 -119.819)" fill="none" stroke="#275dac" stroke-miterlimit="10" stroke-width="1"/>
        <path id="パス_43764-17" data-name="パス 43764" d="M300.475,438.889l417.247-98.406" transform="translate(-300.475 -147.628)" fill="none" stroke="#275dac" stroke-miterlimit="10" stroke-width="1"/>
        <path id="パス_43764-18" data-name="パス 43764" d="M300.475,488.955l417.247-98.406" transform="translate(-300.475 -182.388)" fill="none" stroke="#275dac" stroke-miterlimit="10" stroke-width="1"/>
        <path id="パス_43764-19" data-name="パス 43764" d="M300.475,458.915l417.247-98.406" transform="translate(-300.475 -161.532)" fill="none" stroke="#275dac" stroke-miterlimit="10" stroke-width="1"/>
        <path id="パス_43764-20" data-name="パス 43764" d="M300.475,208.582l417.247-98.406" transform="translate(-300.475 12.271)" fill="none" stroke="#275dac" stroke-miterlimit="10" stroke-width="1"/>
        <path id="パス_43764-21" data-name="パス 43764" d="M300.475,338.755l417.247-98.406" transform="translate(-300.475 -78.106)" fill="none" stroke="#275dac" stroke-miterlimit="10" stroke-width="1"/>
        <path id="パス_43764-22" data-name="パス 43764" d="M300.475,318.729l417.247-98.406" transform="translate(-300.475 -64.202)" fill="none" stroke="#275dac" stroke-miterlimit="10" stroke-width="1"/>
        <path id="パス_43764-23" data-name="パス 43764" d="M300.475,378.809,717.722,280.4" transform="translate(-300.475 -105.915)" fill="none" stroke="#275dac" stroke-miterlimit="10" stroke-width="1"/>
        <path id="パス_43764-24" data-name="パス 43764" d="M300.475,368.8l417.247-98.406" transform="translate(-300.475 -98.962)" fill="none" stroke="#275dac" stroke-miterlimit="10" stroke-width="1"/>
        <path id="パス_43764-25" data-name="パス 43764" d="M300.475,248.635l417.247-98.406" transform="translate(-300.475 -15.537)" fill="none" stroke="#275dac" stroke-miterlimit="10" stroke-width="1"/>
        <path id="パス_43764-26" data-name="パス 43764" d="M300.475,218.6l417.247-98.406" transform="translate(-300.475 5.32)" fill="none" stroke="#275dac" stroke-miterlimit="10" stroke-width="1"/>
        <path id="パス_43764-27" data-name="パス 43764" d="M300.475,268.662l417.247-98.406" transform="translate(-300.475 -29.441)" fill="none" stroke="#275dac" stroke-miterlimit="10" stroke-width="1"/>
        <path id="パス_43764-28" data-name="パス 43764" d="M300.475,298.7,717.722,200.3" transform="translate(-300.475 -50.298)" fill="none" stroke="#275dac" stroke-miterlimit="10" stroke-width="1"/>
        <path id="パス_43764-29" data-name="パス 43764" d="M300.475,278.675l417.247-98.406" transform="translate(-300.475 -36.393)" fill="none" stroke="#275dac" stroke-miterlimit="10" stroke-width="1"/>
        <path id="パス_43764-30" data-name="パス 43764" d="M300.475,408.849l417.247-98.406" transform="translate(-300.475 -126.771)" fill="none" stroke="#275dac" stroke-miterlimit="10" stroke-width="1"/>
        <path id="パス_43764-31" data-name="パス 43764" d="M300.475,539.022l417.247-98.406" transform="translate(-300.475 -217.149)" fill="none" stroke="#275dac" stroke-miterlimit="10" stroke-width="1"/>
        <path id="パス_43764-32" data-name="パス 43764" d="M300.475,519l417.247-98.406" transform="translate(-300.475 -203.245)" fill="none" stroke="#275dac" stroke-miterlimit="10" stroke-width="1"/>
        <path id="パス_43764-33" data-name="パス 43764" d="M300.475,559.049l417.247-98.406" transform="translate(-300.475 -231.054)" fill="none" stroke="#275dac" stroke-miterlimit="10" stroke-width="1"/>
        <path id="パス_43764-34" data-name="パス 43764" d="M300.475,448.9,717.722,350.5" transform="translate(-300.475 -154.58)" fill="none" stroke="#275dac" stroke-miterlimit="10" stroke-width="1"/>
        <path id="パス_43764-35" data-name="パス 43764" d="M300.475,418.862l417.247-98.406" transform="translate(-300.475 -133.723)" fill="none" stroke="#275dac" stroke-miterlimit="10" stroke-width="1"/>
        <path id="パス_43764-36" data-name="パス 43764" d="M300.475,468.929l417.247-98.406" transform="translate(-300.475 -168.484)" fill="none" stroke="#275dac" stroke-miterlimit="10" stroke-width="1"/>
        <path id="パス_43764-37" data-name="パス 43764" d="M300.475,498.969l417.247-98.406" transform="translate(-300.475 -189.341)" fill="none" stroke="#275dac" stroke-miterlimit="10" stroke-width="1"/>
        <path id="パス_43764-38" data-name="パス 43764" d="M300.475,478.942l417.247-98.406" transform="translate(-300.475 -175.437)" fill="none" stroke="#275dac" stroke-miterlimit="10" stroke-width="1"/>
        <path id="パス_43764-39" data-name="パス 43764" d="M300.475-191.951l417.247-98.406" transform="translate(-300.475 290.357)" fill="none" stroke="#275dac" stroke-miterlimit="10" stroke-width="1"/>
        <path id="パス_43764-40" data-name="パス 43764" d="M300.475-51.765l417.247-98.406" transform="translate(-300.475 193.027)" fill="none" stroke="#275dac" stroke-miterlimit="10" stroke-width="1"/>
        <path id="パス_43764-41" data-name="パス 43764" d="M300.475-71.791,717.722-170.2" transform="translate(-300.475 206.931)" fill="none" stroke="#275dac" stroke-miterlimit="10" stroke-width="1"/>
        <path id="パス_43764-42" data-name="パス 43764" d="M300.475-21.725l417.247-98.406" transform="translate(-300.475 172.171)" fill="none" stroke="#275dac" stroke-miterlimit="10" stroke-width="1"/>
        <path id="パス_43764-43" data-name="パス 43764" d="M300.475-31.738l417.247-98.406" transform="translate(-300.475 179.123)" fill="none" stroke="#275dac" stroke-miterlimit="10" stroke-width="1"/>
        <path id="パス_43764-44" data-name="パス 43764" d="M300.475-151.9,717.722-250.3" transform="translate(-300.475 262.548)" fill="none" stroke="#275dac" stroke-miterlimit="10" stroke-width="1"/>
        <path id="パス_43764-45" data-name="パス 43764" d="M300.475-181.938l417.247-98.406" transform="translate(-300.475 283.405)" fill="none" stroke="#275dac" stroke-miterlimit="10" stroke-width="1"/>
        <path id="パス_43764-46" data-name="パス 43764" d="M300.475-141.885l417.247-98.406" transform="translate(-300.475 255.597)" fill="none" stroke="#275dac" stroke-miterlimit="10" stroke-width="1"/>
        <path id="パス_43764-47" data-name="パス 43764" d="M300.475-91.818l417.247-98.406" transform="translate(-300.475 220.836)" fill="none" stroke="#275dac" stroke-miterlimit="10" stroke-width="1"/>
        <path id="パス_43764-48" data-name="パス 43764" d="M300.475-121.858l417.247-98.406" transform="translate(-300.475 241.692)" fill="none" stroke="#275dac" stroke-miterlimit="10" stroke-width="1"/>
        <path id="パス_43764-49" data-name="パス 43764" d="M300.475,8.315,717.722-90.091" transform="translate(-300.475 151.314)" fill="none" stroke="#275dac" stroke-miterlimit="10" stroke-width="1"/>
        <path id="パス_43764-50" data-name="パス 43764" d="M300.475,148.5,717.722,50.1" transform="translate(-300.475 53.984)" fill="none" stroke="#275dac" stroke-miterlimit="10" stroke-width="1"/>
        <path id="パス_43764-51" data-name="パス 43764" d="M300.475,128.475,717.722,30.069" transform="translate(-300.475 67.889)" fill="none" stroke="#275dac" stroke-miterlimit="10" stroke-width="1"/>
        <path id="パス_43764-52" data-name="パス 43764" d="M300.475,168.529,717.722,70.123" transform="translate(-300.475 40.08)" fill="none" stroke="#275dac" stroke-miterlimit="10" stroke-width="1"/>
        <path id="パス_43764-53" data-name="パス 43764" d="M300.475,48.369,717.722-50.037" transform="translate(-300.475 123.505)" fill="none" stroke="#275dac" stroke-miterlimit="10" stroke-width="1"/>
        <path id="パス_43764-54" data-name="パス 43764" d="M300.475,18.329,717.722-80.077" transform="translate(-300.475 144.362)" fill="none" stroke="#275dac" stroke-miterlimit="10" stroke-width="1"/>
        <path id="パス_43764-55" data-name="パス 43764" d="M300.475,58.382,717.722-40.024" transform="translate(-300.475 116.554)" fill="none" stroke="#275dac" stroke-miterlimit="10" stroke-width="1"/>
        <path id="パス_43764-56" data-name="パス 43764" d="M300.475,108.449,717.722,10.043" transform="translate(-300.475 81.792)" fill="none" stroke="#275dac" stroke-miterlimit="10" stroke-width="1"/>
        <path id="パス_43764-57" data-name="パス 43764" d="M300.475,78.409,717.722-20" transform="translate(-300.475 102.649)" fill="none" stroke="#275dac" stroke-miterlimit="10" stroke-width="1"/>
        <path id="パス_43764-58" data-name="パス 43764" d="M300.475-171.925l417.247-98.406" transform="translate(-300.475 276.453)" fill="none" stroke="#275dac" stroke-miterlimit="10" stroke-width="1"/>
        <path id="パス_43764-59" data-name="パス 43764" d="M300.475-41.751l417.247-98.406" transform="translate(-300.475 186.075)" fill="none" stroke="#275dac" stroke-miterlimit="10" stroke-width="1"/>
        <path id="パス_43764-60" data-name="パス 43764" d="M300.475-61.778l417.247-98.406" transform="translate(-300.475 199.979)" fill="none" stroke="#275dac" stroke-miterlimit="10" stroke-width="1"/>
        <path id="パス_43764-61" data-name="パス 43764" d="M300.475-1.7,717.722-100.1" transform="translate(-300.475 158.267)" fill="none" stroke="#275dac" stroke-miterlimit="10" stroke-width="1"/>
        <path id="パス_43764-62" data-name="パス 43764" d="M300.475-11.711l417.247-98.406" transform="translate(-300.475 165.218)" fill="none" stroke="#275dac" stroke-miterlimit="10" stroke-width="1"/>
        <path id="パス_43764-63" data-name="パス 43764" d="M300.475-131.871l417.247-98.406" transform="translate(-300.475 248.644)" fill="none" stroke="#275dac" stroke-miterlimit="10" stroke-width="1"/>
        <path id="パス_43764-64" data-name="パス 43764" d="M300.475-161.911l417.247-98.406" transform="translate(-300.475 269.5)" fill="none" stroke="#275dac" stroke-miterlimit="10" stroke-width="1"/>
        <path id="パス_43764-65" data-name="パス 43764" d="M300.475-111.845l417.247-98.406" transform="translate(-300.475 234.74)" fill="none" stroke="#275dac" stroke-miterlimit="10" stroke-width="1"/>
        <path id="パス_43764-66" data-name="パス 43764" d="M300.475-81.8l417.247-98.406" transform="translate(-300.475 213.884)" fill="none" stroke="#275dac" stroke-miterlimit="10" stroke-width="1"/>
        <path id="パス_43764-67" data-name="パス 43764" d="M300.475-101.831l417.247-98.406" transform="translate(-300.475 227.788)" fill="none" stroke="#275dac" stroke-miterlimit="10" stroke-width="1"/>
        <path id="パス_43764-68" data-name="パス 43764" d="M300.475,28.342,717.722-70.064" transform="translate(-300.475 137.41)" fill="none" stroke="#275dac" stroke-miterlimit="10" stroke-width="1"/>
        <path id="パス_43764-69" data-name="パス 43764" d="M300.475,158.515,717.722,60.109" transform="translate(-300.475 47.033)" fill="none" stroke="#275dac" stroke-miterlimit="10" stroke-width="1"/>
        <path id="パス_43764-70" data-name="パス 43764" d="M300.475,138.489,717.722,40.083" transform="translate(-300.475 60.937)" fill="none" stroke="#275dac" stroke-miterlimit="10" stroke-width="1"/>
        <path id="パス_43764-71" data-name="パス 43764" d="M300.475,178.542,717.722,80.136" transform="translate(-300.475 33.128)" fill="none" stroke="#275dac" stroke-miterlimit="10" stroke-width="1"/>
        <path id="パス_43764-72" data-name="パス 43764" d="M300.475,68.4,717.722-30.011" transform="translate(-300.475 109.602)" fill="none" stroke="#275dac" stroke-miterlimit="10" stroke-width="1"/>
        <path id="パス_43764-73" data-name="パス 43764" d="M300.475,38.355,717.722-60.051" transform="translate(-300.475 130.458)" fill="none" stroke="#275dac" stroke-miterlimit="10" stroke-width="1"/>
        <path id="パス_43764-74" data-name="パス 43764" d="M300.475,88.422,717.722-9.984" transform="translate(-300.475 95.697)" fill="none" stroke="#275dac" stroke-miterlimit="10" stroke-width="1"/>
        <path id="パス_43764-75" data-name="パス 43764" d="M300.475,118.462,717.722,20.056" transform="translate(-300.475 74.841)" fill="none" stroke="#275dac" stroke-miterlimit="10" stroke-width="1"/>
        <path id="パス_43764-76" data-name="パス 43764" d="M300.475,98.435,717.722.029" transform="translate(-300.475 88.745)" fill="none" stroke="#275dac" stroke-miterlimit="10" stroke-width="1"/>
      </g>
      <g id="グループ_10438" data-name="グループ 10438">
        <path id="パス_43787" data-name="パス 43787" d="M534.128-71.156s5.2,6.738,29.835,7.025,28.9-7.025,28.9-7.025l33.387,9.919v23.114L500.006-36.715V-48.829Z" transform="translate(-330.111 257.798)" fill="#275dac"/>
        <path id="パス_43788" data-name="パス 43788" d="M544.415-144.07,556.5-163.39s12.764,9.9,16.183,11.405,25.072,6.952,25.072,6.952l8.842-4.61-1.966-27.227-36.882-24.314-19.469,2.432-13.668,46.767Z" transform="translate(-335.252 277.112)" fill="#275dac"/>
        <path id="パス_43789" data-name="パス 43789" d="M551.564-103.143,556.5-98.9s1.8,15.05-4.937,19.938a33.93,33.93,0,0,1-13.223,5.9L532.9-75.246V-85.373Z" transform="translate(-334.996 262.549)" fill="#275dac"/>
      </g>
    </g>
  </g>
</svg>
