<svg xmlns="http://www.w3.org/2000/svg" width="648.099" height="90.293" viewBox="0 0 648.099 90.293">
  <path id="パス_43746" data-name="パス 43746" d="M646.309,8.17c-1.781,2.6-3.467.371-5.459,1.112-1,.371-2.566.618-3.576,1.73a37.718,37.718,0,0,0-2.857,2.842c-1.555,1.606-3.1,2.842-3.917,4.448-1.1,1.73-2.312,2.348-3.707,4.2l-3.751,4.325-3.707,4.2c-1.388,1.482-2.827,3.459-3.707,4.2-1.592,1.359-2.784,3.336-3.751,4.324-.843.989-2.442,2.719-3.707,4.2l-3.83,4.2c-1.846,1.73-3.525,3.336-3.918,4.449l-1.541,5.065c-.48,1.36-2.057,4.078-1.875,5.313-.03,1.483-1.36,4.2-1.92,5.437a30.143,30.143,0,0,0-1.875,5.313c-.313,1.236-1.3,3.336-1.447,4.448-.4,1.483-.53,1.854.022,3.089a3.7,3.7,0,0,0,1.941,1.854c.814.494,2.769-.5,4.571,0,1.476.37,2,.988,1.723,2.471a4.771,4.771,0,0,1-1.287,2.6c-1.432,1.606-2.646.494-4.048.617-1.774.124-3.169-.123-4.369.124a6.483,6.483,0,0,1-4.324,0c-.938-.494-2.806.247-4.2,0-1.519-.247-3.38.123-4.078,0a15.808,15.808,0,0,0-4.2,0c-1.235,0-2.427-.124-4.157-.124-1.156.124-3.772,1.236-4.405-.123-.552-1.236.531-3.954,1.658-4.695,2.3-1.607,4.782-.248,6.73-.865a15.232,15.232,0,0,0,4.034-1.977,5.926,5.926,0,0,0,2.283-2.966c.392-1.112,1.083-2.718,1.693-4.448a39.3,39.3,0,0,1,1.745-4.942l1.788-5.066a40.905,40.905,0,0,0,1.788-5.066,24.838,24.838,0,0,0,1.7-4.819c.277-1.483-1.177-.865-.319-2.6.559-1.235-.429-1.235-.444-2.594s-.428-1.236-.319-2.6c-.1-1.112-.385-1.359-.443-2.595-.1-1.112.16-1.853-.4-2.718A4.66,4.66,0,0,1,586,37.948c.058-.865-.422-1.606-.32-2.6.066-1.235-.182-1.235-.443-2.594-.342-1.483.2-1.607-.4-2.719a4.665,4.665,0,0,1-.443-2.594c.1-.989.247-2.1-.32-2.595-.523-.618.16-1.854-.443-2.595a3.315,3.315,0,0,1-.4-2.718c.145-1.112-.625-1.73-.32-2.595.392-1.112-.218-1.483-.32-2.6s-.668-1.606-.407-2.347c.364-1.73-1.468-2.842-2.165-2.966a14.21,14.21,0,0,1-4.267-.865c-.857-.37-.545-3.706,1.331-4.819,1.206-.617,2.965,0,3.873-.123a34.977,34.977,0,0,0,3.751-.124c2.776-.865,4.521.495,7.123.124a31.262,31.262,0,0,1,3.794-.247,20.269,20.269,0,0,0,3.961-.371c1.781-.494,2.922.124,3.707,0s4-.494,4.637.865c.516.989-.924,5.066-3.191,5.19a10.361,10.361,0,0,0-3.38.123c-1.243.371-3.918.247-4.8,1.359-1.309,1.607-1.047,2.966-1.28,4.325a5.813,5.813,0,0,0,.669,3.707,11.532,11.532,0,0,1,.465,3.583c.189.865-.131,2.471.545,3.707.472,1.112.159,2.347.465,3.583.261,1.359.813,2.595.588,3.583-.16,1.853.69,2.6.458,3.954a3.279,3.279,0,0,0,.363,2.471,3.516,3.516,0,0,1,.516,3.089c-.378,2.471,2.675,2.224,4.2,0a10,10,0,0,1,2.573-3.089,24.634,24.634,0,0,0,2.108-2.471c1.432-1.606,2.617-3.213,3.249-3.954,1.01-1.112,2.195-2.718,3.118-3.583.713-.618,1.781-2.595,2.995-3.583,1.381-1.112,1.948-2.719,2.995-3.584.879-.741,1.657-2.594,3.038-3.706a7.581,7.581,0,0,0,2.319-2.719c.523-1.482,1.562-1.977,1.708-3.089.283-1.853.094-2.718-1.454-3.583-1.264-.618-4.215.741-5.422-.741-.523-.618-.254-3.831,1.207-4.819,1.752-1.112,4-.124,6.716-.124a57.908,57.908,0,0,0,6.549,0,35.765,35.765,0,0,1,6.3,0c1.483,0,5.459-1.112,6.462.247C648.693,4.216,647.028,7.182,646.309,8.17Zm-86.832.865c-1.287.494-2.079.989-3.2,1.359a14.612,14.612,0,0,0-4.267,3.336c-1.555,1.607-1.911,2.966-2.973,4.572a9.415,9.415,0,0,0-1.991,4.943c.014,1.359-.582,2.347-1.483,4.2-1.149,1.853-.662,2.224-1.44,4.077-.821,1.977-1.134,3.213-1.483,4.2s-1.344,3.46-1.482,4.2c-.24,1.73-1.04,2.6-1.483,4.2-.284,1.853-1.614,2.471-1.483,4.2.065.865-1.178,3.336-1.44,4.078l-1.483,4.2c-.407,1.853-1.468,3.459-1.483,4.2a9.483,9.483,0,0,1-1.482,4.2,29.689,29.689,0,0,0-1.527,4.324c-.313,1.236-1.214,3.089-1.65,4.325l-.829,4.448c-.436,1.235-.16,3.954-.553,5.066-.7,1.977-.807,3.336-1.323,4.448a5.913,5.913,0,0,1-3.307,2.718c-.748.371-2.064.247-2.3-.494-.6-1.112-1.127-1.359-1.062-2.6a20.22,20.22,0,0,0-.428-3.336c-.3-1.235-.829-1.853-.6-2.842s-.676-1.235-.9-2.347c-.182-1.236-.64-.989-.989-2.1a4.445,4.445,0,0,1-.821-2.224c-.051-1.606-.291-1.977-.9-2.348-.567-.494-.509-1.359-.945-2.224-.559-.865-1.09-1.112-.9-2.347a4.766,4.766,0,0,0-.9-2.348,3.571,3.571,0,0,1-.821-2.224c.189-1.236-.1-1.483-.9-2.348-.444-.494-1.04-1.606-.822-2.224.349-.988-.218-1.482-.777-2.347a4.964,4.964,0,0,1-.821-2.224c-.313-.865-1-1.359-.9-2.348.146-1.112-.341-1.483-.821-2.224-.719-1.112-1.082-3.583-1.555-4.695-.232-.742.073-1.607-.821-2.224-.69-.495-.385-1.36-.7-2.224l-.777-2.348a22.487,22.487,0,0,0-.821-2.224c-.436-.865-.167-1.977-.778-2.348-.814-.494-.7-1.853-.858-2.471-.094-1.483-.043-1.977-.85-2.842a10.972,10.972,0,0,1-1.17-3.336c-.138-1.359-1.163-1.606-2.4-1.235-.785.123-2.225,2.1-2.755,3.953-.4,1.483-1.672,3.337-1.658,4.7-.065,1.235-1.257,3.212-1.439,4.077-.662,2.224-1.868,4.942-2.355,6.672a68.766,68.766,0,0,1-2.312,6.549c-.785,2.224-1.49,4.572-2.268,6.425l-2.268,6.425a63.9,63.9,0,0,0-2.224,6.3c-.357,1.359-1.294,2.965-1.5,4.942-.276,1.483-1.09,3.089-.589,4.819.269.988.044,1.977,1.047,3.336s2.66.865,4.041,1.853A2.779,2.779,0,0,1,483,86.013a3.386,3.386,0,0,1-.5,2.471c-.945,1.977-5.066,0-7.21.123a63.8,63.8,0,0,1-6.92,0h-6.795c-2.384-.247-6.055,2.1-7.123-.123-.633-1.359.778-3.954,1.7-4.819,1.257-1.112,3.132-.124,4.012-.865s1.948-.618,3.321-1.359c2.377-1.483,3.38-2.224,4.143-3.336,1.185-1.606,2.617-3.213,3.017-4.695.269-1.112,1.628-3.213,2.035-5.066.16-1.854,2.065-4.448,2.4-6.8.487-1.73,1.607-4.2,2.443-6.919.741-2.1,1.119-4.572,2.442-6.92,1.236-2.1,1.323-4.448,2.486-7.043a25.8,25.8,0,0,0,2.443-6.919c.327-1.977,1.65-4.325,2.442-6.919,1.12-2.471,1.316-4.078,2.443-6.92,1.155-2.224,2.4-4.7,2.486-7.042.065-1.236-.916-1.607-1.614-1.73s-1.1-.371-2.115-1.359c-.479-.742-1.555-.5-2.66-.865-1.184-.495-3.132.123-3.161-.495-.1-1.482.538-4.324,1.832-5.189,1.962-1.359,3.416.123,5.109-.124,2.108-.37,3.743.247,4.942,0a11,11,0,0,1,4.943,0c1.148.247,3.932-.988,4.819,0,.966,1.112.574,2.224,1.4,4.078.552,1.235.734,2.471,1.323,3.954l1.446,3.954a29.339,29.339,0,0,1,1.323,3.954c.3,1.235,1.1,2.471,1.446,3.953l1.4,4.078c.5,1.73,1.1,2.842,1.446,3.954.313.865.72,3.212,1.279,4.077.967,1.112,1.149,2.348,1.447,3.954a10.061,10.061,0,0,0,1.446,3.954c.792,1.606.479,2.842,1.4,4.077a8.919,8.919,0,0,1,1.323,3.954,17.744,17.744,0,0,0,1.482,4.2,8.178,8.178,0,0,1,.858,2.472c.189.864,1.286,1.606,1.054,2.965-.189,1.236.959,1.483,1.788,1.236a4.234,4.234,0,0,0,2.7-3.46c.189-1.236,1.418-2.966,1.44-4.078a9.038,9.038,0,0,1,1.177-3.336c1.113-2.1,1.36-4.2,2.05-5.807.48-1.359,1.1-3.46,1.963-5.56a31.665,31.665,0,0,0,1.919-5.437c.662-2.224.814-3.706,1.963-5.56,1.025-1.853.516-3.212,1.919-5.436a27.229,27.229,0,0,0,1.5-4.943c.487-1.73.226-3.089.626-4.572a4.206,4.206,0,0,0-1.214-3.212,6.6,6.6,0,0,0-4.041-1.853c-1.89-.248-1.366-1.73-1.548-2.966-.022-.988-.589-1.483.5-2.471C539.824,1,542.048,3.1,544.4,3.1c1.853,0,4.492-.123,7.043,0h6.795c2.675.124,6.375-1.606,7.123.124s-1.221,3.46-1.7,4.819C563.133,9.529,560.306,8.788,559.477,9.035Zm-121.66,79.2a6.446,6.446,0,0,1-4.078,0c-1.555-.5-2.718,0-3.83,0a18.585,18.585,0,0,0-3.707,0,22.393,22.393,0,0,1-4.077,0c-.989,0-3.22.37-3.954,0-1.469-.742-2.719,0-4.078,0-1.112,0-3.845.741-4.034-.124a5.419,5.419,0,0,1,1.7-4.819c.88-.741,3.133-.123,4.289-.247a13.862,13.862,0,0,0,3.307-.618c2.078-.988,3.329-1.729,3.685-3.089a6.979,6.979,0,0,0,.64-3.212,9.811,9.811,0,0,1,.225-3.089,17.4,17.4,0,0,0,.211-4.448c-.094-1.483.56-3.336.255-4.572a4.491,4.491,0,0,0-1.665-3.336,15.332,15.332,0,0,0-3.3-1.853c-1.476-.371-3.838.37-4.695,0s-3.337,0-4.7,0c-1.81-.124-3.459,0-4.7,0h-4.695a9.04,9.04,0,0,0-4.608,1.853c-1.461.988-3.591,2.471-4.143,3.336-.894,1.483-2,3.213-2.973,4.572a22.889,22.889,0,0,0-2.93,4.448c-.349.988-1.192,1.977-1.926,3.707a6,6,0,0,0-.56,3.336c.015,1.359.465,1.482,1.57,1.853a4.269,4.269,0,0,0,2.864.989c.988,0,2.805-.247,3.7.37,1.381.989-.778,3.954-1.7,4.819-1.8,1.606-4.615.124-6.592.124h-12.85c-1.977,0-5.837,1.482-6.505-.124-.356-.741.32-3.707,1.7-4.819,2.093-1.73,4.055-.988,4.964-1.112,1.693-.247,2.5-1.482,3.583-2.1s1.345-1.359,2.61-2.842c.632-.741,1.613-2.471,2.922-4.078a17.12,17.12,0,0,0,3.009-4.324c.574-1.977,1.745-2.842,2.886-4.325.509-.741,2.457-3.459,3.009-4.324,1.061-1.607,1.955-3.089,3.053-4.448a27.113,27.113,0,0,0,2.886-4.325c1.068-1.977,2.231-2.471,3.009-4.325.6-1.359,1.817-2.347,2.929-4.448a30.408,30.408,0,0,1,3.009-4.324c1.229-1.73,2.079-3.089,2.886-4.325.894-1.483,2.195-2.718,3.053-4.448,1.148-1.853,1.824-2.718,3.009-4.325.807-1.235,1.8-3.336,2.886-4.324,1.3-1.236,1.824-2.718,3.053-4.448a35.469,35.469,0,0,1,2.842-4.2c1.177-1.236,2.21-3.46,3.053-4.448,1.185-1.607,1.548-3.336,3.176-4.449,2.13-1.482,4.143-1.235,5.466-1.482,2.151-.494,4.7-2.1,5.466-1.483,1.054.865.138,3.46-.008,4.572-.08,1.977.015,3.459-.175,4.695a22.991,22.991,0,0,0-.087,4.448,9.052,9.052,0,0,1-.131,4.572,34.5,34.5,0,0,0-.131,4.572c-.2,1.976-.516,3.212-.211,4.448.349,1.112-.051,2.594-.131,4.571l-.131,4.572a10.108,10.108,0,0,0-.131,4.572c.138,1.359-.139,2.842-.131,4.571a22.574,22.574,0,0,0-.255,4.572c0,2.1.022,3.089-.087,4.448-.146,1.112-.6,3.089-.132,4.572.386,1.359-.1,3.089-.131,4.572.008,1.729.269,3.089-.211,4.448a7.076,7.076,0,0,0-.131,4.571c.3,1.607-.2,3.707-.262,4.943a3.936,3.936,0,0,0,.647,2.718c.276.618,1.628.989,2.275,1.606.567.5,3.641-.865,4.761.865.719,1.112-.6,3.089-1.7,4.819S439.517,87.619,437.817,88.237ZM425.341,16.819c-1.2.248-1.621.742-3.14,2.595a27.762,27.762,0,0,0-2.711,3.831,17.769,17.769,0,0,1-2.167,3.336,20.065,20.065,0,0,0-3.816,5.56c-.821,1.977-2.711,3.83-3.6,5.313-.85,1.359-2.675,4.077-3.605,5.313-.72.988-2.61,2.842-3.053,4.448-.349.988-.713,2.718-.073,3.707.843,1.112,1.7,1.483,3.423,1.853a20.886,20.886,0,0,0,5.56,0c1.65-.123,3.991.247,5.561,0a9.478,9.478,0,0,0,4.731-1.853,6.9,6.9,0,0,0,2.624-3.583,15.371,15.371,0,0,0,.255-4.572c-.342-1.483.066-3.336.269-5.313.284-1.854-.022-3.089.393-5.313a35.237,35.237,0,0,0,.233-5.56,13,13,0,0,1,.312-3.336,10.909,10.909,0,0,0,.117-3.831C426.685,17.561,426.707,16.449,425.341,16.819Zm-50.148,9.267a17.43,17.43,0,0,1-3.256,6.425c-.422.495-1.4,1.854-2.116,2.842a7.691,7.691,0,0,1-2.522,2.6c-.792.494-2.013,1.853-2.849,2.471-1.09.989-2.043,1.236-2.966,2.1-.756.741-1.831.988-3.249,1.853-1.584.989-2.529.865-3.488,1.483-1.338.988-2.13,1.483-3.358,1.112-.575-.124-1.992.741-3.227.741-2.472,0-3.969.742-6.36.865a19.784,19.784,0,0,1-6.513.247c-1.482,0-3.132.124-3.953,0a12.029,12.029,0,0,0-4.7,0,2.6,2.6,0,0,0-2.26,1.854c-.48,1.359-1.657,2.594-2.006,3.583-.793,2.6-2.363,4.942-2.268,6.425-.2,1.977-1.44,4.077-2.181,6.178-.96,2.718-1.563,4.077-2.137,6.054-.436,1.236-1.752,3.213-1.447,4.448.058,1.236-.414,2.225-.022,3.213.313.865,1.577,1.483,1.941,1.853.806.865,1.955,1.112,4.353.618a5.5,5.5,0,0,1,3.62.247,1.7,1.7,0,0,1,.857,2.472,4.416,4.416,0,0,1-3.14,2.594,13.81,13.81,0,0,1-4.332.371c-.988,0-3.387.494-4.324,0-1.592-.741-2.878-.247-4.317-.371l-4.238-.247a25.491,25.491,0,0,0-4.288.247c-1.694.247-3.3.247-4.455.371-1.28.123-3.344.371-4.325,0-1.6-.371-2.631-.247-4.143-.865-1.432-.494-.3-3.707,1.658-4.695a10.5,10.5,0,0,1,3.888-.865c.989,0,1.948-.618,2.893-.494a4.488,4.488,0,0,0,3.816-1.36c1.3-1.235,1.969-1.729,2.326-3.089a32.793,32.793,0,0,1,1.693-4.448c1.076-2.347,1.316-4.077,2.4-6.795,1.156-2.224,1.323-4.449,2.443-6.92,1.039-2.594,1.359-4.2,2.442-6.919.858-1.73,1.658-4.695,2.443-6.919l2.442-6.92c.654-1.853,1.621-4.942,2.443-6.919.836-2.718.821-4.077,2.442-6.919,1.41-2.595,1.439-4.078,2.443-6.92.436-1.235.974-3.459,1.446-4.448a3.66,3.66,0,0,0-.021-3.089c-.364-.37-.749-1.73-1.941-1.853-.865,0-2.813.618-4.608-.247-1.185-.495-2.747-.618-2.18-2.224.349-.989.283-1.854,1.868-2.842.959-.618,2.188-.247,3.837-.371a20.972,20.972,0,0,1,3.954,0,21.139,21.139,0,0,0,3.954,0c1.694-.247,3.184-.618,3.954,0,.487.371,2.769-.494,3.75-.123.938.494,2.006.617,3.831,0a19.307,19.307,0,0,1,3.83,0c1.483,0,2.515-.124,3.83,0,2.094.37,3.751-.124,5.764.123a43.941,43.941,0,0,0,5.757.494,12.323,12.323,0,0,1,5.247,1.236,13.578,13.578,0,0,0,2.493.988c1.105.371.887.989,2.115,1.36s1.345.741,2.028,1.606c.523.618,1.257.988,1.65,1.977.276.618.6,1.112,1.191,2.224.393.988.916,1.606.9,2.347.065.865-.357,1.36.443,2.6.523.618.051,1.607.029,2.719C376.3,21.885,375.52,24.109,375.193,26.086ZM363.681,14.6c-.647-.617-.167-1.977-1.061-2.594-.851-.742-1.585-1.112-1.9-1.977-.56-.865-2.2-1.112-2.689-1.483a7.528,7.528,0,0,0-3.4-.865l-4.237-.247c-2.348,0-4.659.247-5.4.247a10.848,10.848,0,0,0-3.976,1.112,6.219,6.219,0,0,0-3.06,2.718,32.824,32.824,0,0,0-2.2,4.819l-2.4,6.8c-.916,2.595-1.447,4.448-2.443,6.919-1.083,2.719-2.333,5.56-2.573,7.29l-.451,4.078c-.109,1.359-.124,2.1,1.112,2.1,3.045.124,5.6-.123,6.425,0a14.516,14.516,0,0,0,4.615-.123c1.447-.247,3.213,0,4.463-.742a23.448,23.448,0,0,1,4.02-1.235,9.485,9.485,0,0,0,3.452-1.73c1.505-1.112,2.58-1.359,3.176-2.348.727-1.359,1.89-1.853,2.821-3.089a14.567,14.567,0,0,0,2.34-3.83c.647-1.483,1.461-3.089,1.985-4.572.741-2.1,1.33-2.718,1.279-4.324a24.121,24.121,0,0,1,.487-3.831C364.386,16.449,364.371,15.09,363.681,14.6Zm-72.058-5.93c-1.992.741-2.268.123-2.893.494-1.04.494-2.551-.124-3.9,1.235a12.607,12.607,0,0,0-2.326,3.089c-.516,1.112-1.214,3.089-1.694,4.448a49.4,49.4,0,0,1-2.4,6.8,17.094,17.094,0,0,0-2.442,6.92c-.378,2.471-1.832,5.189-2.442,6.919l-2.443,6.919c-.872,2.471-1.25,4.943-2.442,6.92-1.163,2.594-1.527,4.324-2.443,6.919-1.047,2.965-2.035,5.066-2.442,6.919a30.893,30.893,0,0,1-2.443,6.919c-1.279,2.225-.763,3.213-1.49,4.572a3.534,3.534,0,0,0,.022,3.089c.232.741,1.867,1.359,2.856,1.359a9.4,9.4,0,0,1,3.99.247c1.679.5,1.65,1.977,1.5,3.089a3.6,3.6,0,0,1-1.7,2.719c-1.083.617-2.806.247-3.707,0a23.8,23.8,0,0,0-4.2,0c-1.192-.124-2.639.123-4.325,0-1.068-.124-3.336,0-4.324,0-1.483,0-2.392.123-4.041.247a9.2,9.2,0,0,0-4.332.37c-1.534.5-2.675-.123-4.325,0a4.712,4.712,0,0,1-4.063-.741c-1.417-1.235-.087-3.954,1.7-4.819s3.264-.494,4.012-.865a3.926,3.926,0,0,1,2.893-.494,4.648,4.648,0,0,0,3.816-1.359c.887-1.112,1.672-1.236,2.115-2.842.524-1.483,1.207-2.718,1.861-4.572.436-1.235,1.17-2.965,1.439-4.077.189-1.236,1.367-2.471,1.44-4.077.181-.865.828-2.348,1.4-3.954l1.44-4.078c.654-1.853,1.366-2.471,1.439-4.077a13.454,13.454,0,0,1,1.439-4.078c.734-1.73,1.047-2.965,1.44-4.077.3-.865.792-2.6,1.439-4.078.778-1.853.247-2.1,1.483-4.2a14.245,14.245,0,0,0,1.483-4.2c.145-1.112,1.163-2.594,1.657-4.695a28.446,28.446,0,0,1,1.832-5.189c1.287-2.595,2-5.313,1.643-6.055-.516-.988-.516-.988-2.239.742-1.01,1.112-.937,1.606-2.326,3.089-1.141,1.482-1.228,1.729-1.991,2.841-1.4,2.224-2.668,3.707-3.686,5.19a58.3,58.3,0,0,0-3.6,4.942c-.937,1.607-2.573,3.089-3.641,5.066a45.484,45.484,0,0,1-3.475,4.943c-1.395,1.853-2.282,2.965-3.641,5.065-1.352,1.73-2.421,3.707-3.6,4.943-1.221,1.359-2.29,3.336-3.642,5.066a36.534,36.534,0,0,0-3.474,4.942A43.219,43.219,0,0,1,230.2,68.22c-1.01,1.112-2.29,3.336-3.6,4.942-1.352,1.73-3.038,3.707-3.431,4.819a43.392,43.392,0,0,1-3.089,6.3c-1.41,2.6-2.871,3.583-4.528,4.077-.873.371-1.592-.741-2.079-1.112-.974-.741-.262-1.359-.153-2.718.015-.741.793-2.6.56-3.336-.269-.989.2-1.606.306-2.966a17.673,17.673,0,0,0-.523-4.818,27.423,27.423,0,0,1-.356-4.943c.065-1.235-.313-2.965-.356-4.942a38.394,38.394,0,0,0-.356-4.943,36.615,36.615,0,0,0-.232-4.942l-.233-4.942a47.043,47.043,0,0,1-.232-4.943c.08-1.977-.48-2.842-.109-4.942.291-2.224-.341-3.583-.188-5.066a24.635,24.635,0,0,1-.153-4.819,12.413,12.413,0,0,0-.065-5.066,5.749,5.749,0,0,1-.109-2.842c.1-.617-.327-2.224-.022-3.089.531-1.853-.661-1.976-1.046-1.235a29.885,29.885,0,0,0-2.864,5.313,35.448,35.448,0,0,0-1.657,4.695c-.531,1.854-.96,2.718-1.483,4.2a8.518,8.518,0,0,1-1.4,3.954,22.119,22.119,0,0,0-1.309,3.707c-.654,1.853-.705,2.347-1.308,3.707-.9,1.853-.538,2.224-1.308,3.706-.938,1.607-.829,2.348-1.309,3.707l-1.308,3.707c-.793,2.595-1.919,5.437-2.574,7.29a59.089,59.089,0,0,0-2.617,7.414,42.878,42.878,0,0,1-1.708,5.189,6.238,6.238,0,0,0-.669,4.695c.269.989.044,1.977,1.177,2.966.851.741,2.879.247,4.347.988.857.371,2.311,1.854,1.838,2.842-.218.618-1.134,3.213-2.464,3.83s-1.352-.37-2.216-.37a17.3,17.3,0,0,1-3.584,0c-2.3-.5-5.32.37-6.919,0-1.563-.124-3.954,0-6.672,0-2.057-.124-5.451.741-6.5-.5-.967-1.112.233-3.459,1.076-4.448,1.054-1.235,3.307-.617,4.012-.865,1-.37,2.246-1.112,3.2-1.359a6.944,6.944,0,0,0,4.267-3.336c.683-1.235,2.071-2.718,3.016-4.695.647-1.483,1.389-3.583,1.992-4.942.567-1.607,1.694-4.449,2.224-6.3a32,32,0,0,1,2.225-6.3,30.4,30.4,0,0,0,2.181-6.177,63.773,63.773,0,0,1,2.224-6.3,63.672,63.672,0,0,1,2.224-6.3c.669-2.594,1.476-3.83,2.225-6.3.705-2.348,1.65-4.325,2.224-6.3l2.181-6.178c.313-1.235,1.338-3.089,1.41-4.695a21.064,21.064,0,0,0-.021-3.089c-.138-1.359-1.258-.988-1.984-1.73-.364-.37-2.552-.123-4.318-.37-1.068-.124-2.253-.618-2.144-1.977A6.393,6.393,0,0,1,198,2.61c2.05-1.606,3.613.618,5.888.124,2.064-.247,4.419-.618,6.3,0,1.352.37,4.906-.247,6.425,0,2.05.494,5.139-1.607,6.5.123,1.047,1.236-.007,2.471.124,4.2a24.313,24.313,0,0,1,.043,4.078,8.562,8.562,0,0,0,.123,4.2c.051,1.606-.022,3.212.044,4.077a12.016,12.016,0,0,1,.123,4.2,14.5,14.5,0,0,0,0,4.2,32.134,32.134,0,0,0,.167,4.078c.21,1.853-.226,3.089.123,4.2.429,1.235.029,2.718,0,4.2a15.041,15.041,0,0,0,.167,4.077c.385,1.359.029,2.718,0,4.2s.566,2.595.123,4.2a13,13,0,0,0,.08,4.325,10.527,10.527,0,0,0,.029,2.718,21.6,21.6,0,0,1,.145,3.089c-.022,1.112-.378,2.471,1.279,1.977a4,4,0,0,0,2.631-1.853c.72-.989,1.4-2.224,2.246-3.213a28.953,28.953,0,0,0,1.948-2.718l3.3-4.448,2.922-4.078a43.53,43.53,0,0,1,2.966-4.2,48.864,48.864,0,0,0,3.045-4.077,36.053,36.053,0,0,1,2.966-4.2c1.512-1.483,1.665-2.966,2.966-4.2a18.307,18.307,0,0,0,3.045-4.078,16.412,16.412,0,0,1,2.966-4.2c1.272-1.853,2.021-2.224,3.045-4.077a21.852,21.852,0,0,1,2.966-4.2,25.847,25.847,0,0,0,3.089-4.2c.894-1.483,2.145-2.224,2.922-4.078a8.654,8.654,0,0,1,3.133-4.324c2.043-1.236,4.695,0,6.549,0a49.474,49.474,0,0,1,6.054,0c1.846.37,4.492-.124,6.6-.495,1.57-.247,4.339-.741,6.33.618,1.381.989.458,3.954-1.7,4.819S293.4,8.17,291.623,8.665ZM168.1,30.164a12.75,12.75,0,0,1-.24,3.83c-.32,1.606-.269,3.213-.611,3.831a11.464,11.464,0,0,0-.9,3.953,11.905,11.905,0,0,1-1.228,3.831,22.987,22.987,0,0,1-1.519,3.954,39.042,39.042,0,0,0-1.847,3.83,35.1,35.1,0,0,1-2.137,3.954,14.959,14.959,0,0,1-2.464,3.83c-1.635,1.483-1.824,2.719-2.835,3.831-1.388,1.482-1.693,2.347-2.914,3.706-.844.989-2.13,1.483-3.242,3.584A16.718,16.718,0,0,1,144.8,75.51a31.95,31.95,0,0,0-3.562,3.089c-1.715,1.359-2.173,1.606-3.721,2.842-.713.618-2.7,1.359-3.962,2.471a11.821,11.821,0,0,1-4.077,2.1c-1.781.494-2.748,1.482-4.07,1.729-1.861.371-2.617,1.112-4.311,1.36a34.117,34.117,0,0,0-4.215.741c-1.781.494-2.471,0-4.288.247-1.941.247-2.544-.494-4.114-.247a4.692,4.692,0,0,1-3.692-.741c-1.258-.989-2.29-.865-3.351-1.36-.654-.247-1.991-1.359-2.849-1.729-1.265-.618-2.282-1.236-2.6-2.1-.319-.494-1.744-1.359-2.093-2.471A4.725,4.725,0,0,0,92.062,78.6c-.931-.865-1-1.73-1.381-3.089-.1-1.112-1.039-1.606-1.047-3.336-.021-.988-.864-2.1-.755-3.46l-.3-3.706c-.029-.618-.611-2.472-.174-3.707.305-.865-.066-2.966.407-3.954.814-1.606.123-2.1.487-3.83a24.326,24.326,0,0,1,.9-3.954c.349-.989.081-1.977,1.273-3.954a9.883,9.883,0,0,0,1.475-3.831c.284-1.853,1.287-2.594,1.89-3.953.218-.618,1.708-3.089,2.137-3.954a17.277,17.277,0,0,1,2.464-3.831,30.978,30.978,0,0,0,2.712-3.83l3.038-3.707a18.27,18.27,0,0,1,3.2-3.459c1.054-1.236,2.559-2.348,3.358-3.213.589-.618,2.551-1.977,3.562-3.089A12.615,12.615,0,0,1,119.03,9.9c1.541-.865,2.217-1.73,3.961-2.471,1.578-.618,2.181-1.977,3.954-2.1A10.182,10.182,0,0,0,131.139,3.6c1.672-1.236,2.777-.865,4.187-1.36,1-.37,2.188-.247,4.339-.741a14.789,14.789,0,0,1,4.288-.247,34.2,34.2,0,0,0,4.114.247c1.526-.123,2.05.494,3.816.741,1.562.124,2.122.989,3.227,1.36a8.336,8.336,0,0,1,2.849,1.729c.85.742,1.541,1.236,2.594,2.1.727.741,1.287,1.606,2.217,2.471a8.939,8.939,0,0,1,1.715,2.842c.509,1.359,1.112,2.1,1.381,3.089.313.865,1.359,2.1,1.047,3.336a6.179,6.179,0,0,0,.755,3.46,13.977,13.977,0,0,1,.422,3.707C168.191,27.446,168.082,28.805,168.1,30.164ZM156.221,20.4c-.48-.742-.087-1.854-.436-2.966l-.77-2.718a7.553,7.553,0,0,0-1.025-2.348c-.683-.865-.705-1.853-1.483-2.1-1.1-.371-1.453-1.483-1.86-1.73-.85-.741-.967-1.112-2.362-1.359-1.105-.371-1.686-.124-2.827-.742-1.185-.494-1.767-.247-3.249-.247a25.429,25.429,0,0,1-3.547.247c-1.316-.123-1.541.865-3.351.742-1.563-.124-2.66,1.235-3.2,1.359-1.323.247-1.8,1.236-3.038,1.606a4.773,4.773,0,0,0-2.966,2.1c-1.264,1.482-1.715,1.359-2.725,2.471s-1.963,1.359-2.646,2.595a35.466,35.466,0,0,1-2.53,2.965,14.265,14.265,0,0,0-2.2,3.089,11.464,11.464,0,0,1-2.246,3.213c-1.265,1.482-1.854,2.1-1.919,3.336a8.328,8.328,0,0,1-1.752,3.212,33.505,33.505,0,0,0-3.176,6.549c-1.578,2.718-1.527,4.324-2.385,6.054a63.123,63.123,0,0,0-1.977,6.3,47.617,47.617,0,0,0-1.527,6.425c-.094.618-.865,2.1-.516,3.212.313.865-.247,2.1-.225,3.089a7.727,7.727,0,0,1-.1,3.089,3.492,3.492,0,0,0,.109,2.842c.268.989.087,1.854.436,2.966.428,1.235.087,1.853.937,2.594.487.371.632,1.36,1.1,2.472.276.617,1.177.865,1.606,2.1.349,1.112.676,1.236,1.817,1.854a11.952,11.952,0,0,1,2.4,1.235,6.124,6.124,0,0,0,2.661.865,10.656,10.656,0,0,0,3.081.371c2.137.247,3.344-.371,5.742-.865a15.631,15.631,0,0,0,5.648-2.348c1.293-.865,1.875-1.112,2.834-1.73.669-.494,1.948-.617,2.675-1.977.429-.865,1.258-1.112,2.392-2.224s1.722-1.73,2.267-2.224c1.221-1.359,2.188-2.347,2.908-3.336a23.79,23.79,0,0,0,2.413-3.336,34.39,34.39,0,0,1,2.333-3.46,24.358,24.358,0,0,1,2.13-3.583,13.546,13.546,0,0,0,1.883-3.583A16.417,16.417,0,0,1,149.2,52.9a23.682,23.682,0,0,0,1.512-3.583c.48-1.36.7-2.348,1.265-3.584.9-1.853,1.054-3.336,1.846-5.931a23.643,23.643,0,0,0,1.571-6.548,16.072,16.072,0,0,1,.516-3.213,8.064,8.064,0,0,1,.313-3.336,5.747,5.747,0,0,0,.145-3.212C156.1,22.5,156.9,21.268,156.221,20.4ZM80.21,12.989a49.992,49.992,0,0,1-.109,5.56c-.247,2.1.952,3.954-.4,5.684a5.5,5.5,0,0,1-4.565,1.73c-1.024-.247-.937-2.595-1.119-3.831l-1.41-3.706A21.543,21.543,0,0,0,70.9,15.213a22.7,22.7,0,0,0-2.086-2.842A5.968,5.968,0,0,0,66.1,9.9a11.92,11.92,0,0,1-3.176-1.853,36.724,36.724,0,0,0-3.765-1.236,11.482,11.482,0,0,0-4.15-.494c-2.966,0-4.092.741-6.651.988-1.526.124-2.078.989-3.154,1.236a10.411,10.411,0,0,0-3.162,1.606A20.611,20.611,0,0,0,39.29,12c-1.337.988-1.468,1.359-2.762,2.224a10.274,10.274,0,0,0-2.645,2.594c-.466.618-2.137,1.854-2.443,2.719A22.491,22.491,0,0,1,29.2,22.38c-.851,1.359-1.774,2.224-2.2,3.089a20.023,20.023,0,0,1-1.955,3.089c-1.178,1.235-1.243,2.471-1.832,3.089-1.432,1.606-2.348,4.2-3.089,6.3-1.083,2.718-1.687,4.078-2.341,5.931a56.286,56.286,0,0,0-1.9,6.425,17.07,17.07,0,0,0-.764,3.213c-.189,1.235.131,1.729-.436,3.336-.77,1.482.095,1.482-.349,3.089a14.027,14.027,0,0,0,.022,3.089c-.073,1.606-.088,2.347.232,2.841.763.989.131,1.73.523,2.719.342,1.482-.283,1.853.691,2.595.814.494.581,1.853,1.148,2.347,1.054.865.952,1.854,1.483,2.1,1.017.617.8,1.235,1.86,1.729a7.928,7.928,0,0,1,2.195,1.483,5.078,5.078,0,0,0,2.74.989,9.3,9.3,0,0,0,3,.617c.864,0,2.253.618,3.5.248.828-.248,2.587.37,4.164-.248a31.231,31.231,0,0,1,4.056-.988c.952-.247,2.449-.988,4.027-1.606a10.272,10.272,0,0,0,3.91-1.977c.545-.494,2.42-1.607,3.758-2.595a31.41,31.41,0,0,0,3.474-2.842c1.258-1.112,1.388-1.483,3.358-3.212,1.759-1.483,1.294-2.966,3.286-3.707A2.86,2.86,0,0,1,65.3,65.378c.349,1.112-2.485,2.842-3.714,4.572-.807,1.236-2.813,2.718-3.91,4.077-.887,1.112-3.177,2.348-4.194,3.831-1.519,1.853-2.806,2.347-4.558,3.459-.792.495-1.875,1.112-3.045,1.977-.836.618-2.159.865-3.082,1.73-1.214.989-2.326.989-3.118,1.483-.669.494-2.072.618-3.155,1.235-1.17.865-2.318.618-3.19.989a10.92,10.92,0,0,1-3.06.618c-2.646.494-3.961.37-6.149.618-1.817.247-2.631-.248-3.867-.248-1.606,0-2.5-.617-3.612-.617-1.236,0-2.188.247-3.234-.989-.727-.741-1.716-.741-2.813-1.483A19.258,19.258,0,0,1,8.121,84.9c-.8-1.236-1.7-1.483-2.224-2.1a13.138,13.138,0,0,1-1.766-2.348c-.277-.617-.96-1.482-1.512-2.718a22,22,0,0,0-1.1-2.842A5.362,5.362,0,0,1,.759,71.8a19.235,19.235,0,0,0-.473-3.212,16.306,16.306,0,0,1-.138-3.46A26.384,26.384,0,0,0,.3,61.548c.066-1.236.378-2.471.524-3.583a30.463,30.463,0,0,1,.858-3.831c.261-.741.574-1.977,1.228-3.83.48-1.359.5-2.471,1.519-3.954a44.468,44.468,0,0,0,1.934-4.077c.858-1.73,1.657-2.595,2.1-4.2.53-1.854,1.453-2.719,2.551-4.078,1.4-1.853,1.25-2.842,2.718-4.2a24.379,24.379,0,0,0,3.046-4.077c.552-.865,2.319-2.719,3.249-3.954.465-.618,1.934-1.977,3.409-3.707a17.281,17.281,0,0,1,3.736-3.583c1.665-.865,2.181-1.977,3.852-3.213C32.742,9.9,33.65,9.777,34.995,8.417,35.584,7.8,37.91,6.811,39.2,5.946a23.378,23.378,0,0,1,4.325-2.1,28.67,28.67,0,0,1,4.354-1.483,13.019,13.019,0,0,1,4.55-.988C54.205,1.251,55.245.757,57.011,1c1.89.247,3.663.123,5.138.494,1.926.494,2.777,1.236,4.666,1.483,2.377.618,3.489.618,4.3,1.112.771.618,3.089,0,4.543-.618,1.657-.494,3.329-1.73,4.8-1.359,2.13.618.218,3.583-.066,5.436A34.6,34.6,0,0,0,80.21,12.989Z" transform="translate(-0.072 -0.247)" fill="#131a22" fill-rule="evenodd"/>
</svg>
