<svg xmlns="http://www.w3.org/2000/svg" width="347.405" height="80" viewBox="0 0 347.405 80">
  <path id="pass-vision" d="M345.855,6.248c-.463,1.31-2.962.655-3.694.873-1.137.437-1.837.874-2.826,1.2a12.9,12.9,0,0,0-3.77,2.948c-1.375,1.42-1.69,2.621-2.628,4.041a8.324,8.324,0,0,0-1.761,4.369c.012,1.2-.514,2.074-1.311,3.713-1.015,1.638-.585,1.966-1.272,3.6-.727,1.747-1,2.84-1.311,3.713s-1.189,3.058-1.311,3.713c-.212,1.529-.919,2.294-1.311,3.713-.251,1.638-1.427,2.184-1.311,3.713.057.765-1.041,2.948-1.272,3.6l-1.311,3.713c-.36,1.638-1.3,3.057-1.311,3.713a8.381,8.381,0,0,1-1.311,3.713,26.242,26.242,0,0,0-1.35,3.822c-.276,1.092-1.073,2.73-1.458,3.823l-.733,3.931c-.385,1.092-.141,3.495-.488,4.477-.617,1.747-.713,2.948-1.169,3.931a5.229,5.229,0,0,1-2.923,2.4c-.662.328-1.825.218-2.03-.437-.527-.983-1-1.2-.938-2.294a17.976,17.976,0,0,0-.379-2.948c-.27-1.092-.732-1.638-.533-2.512s-.6-1.092-.8-2.074c-.161-1.092-.566-.874-.873-1.857a3.92,3.92,0,0,1-.727-1.966c-.044-1.419-.256-1.747-.8-2.075-.5-.437-.449-1.2-.835-1.966-.494-.765-.963-.983-.8-2.074a4.211,4.211,0,0,0-.8-2.075,3.161,3.161,0,0,1-.726-1.966c.167-1.092-.083-1.311-.8-2.075-.392-.437-.918-1.419-.726-1.966.308-.873-.193-1.31-.688-2.074a4.387,4.387,0,0,1-.726-1.966c-.277-.765-.886-1.2-.8-2.075.128-.983-.3-1.311-.726-1.966-.636-.983-.957-3.167-1.375-4.15-.205-.656.065-1.42-.726-1.966-.61-.437-.34-1.2-.616-1.966l-.688-2.075a19.649,19.649,0,0,0-.726-1.966c-.385-.765-.148-1.747-.688-2.075-.719-.437-.623-1.638-.757-2.184-.084-1.311-.039-1.747-.751-2.512a9.65,9.65,0,0,1-1.034-2.948c-.122-1.2-1.028-1.419-2.127-1.092-.694.109-1.966,1.856-2.435,3.494-.354,1.311-1.478,2.949-1.465,4.15-.058,1.092-1.112,2.839-1.273,3.6-.584,1.966-1.651,4.368-2.081,5.9a60.53,60.53,0,0,1-2.043,5.788c-.694,1.966-1.317,4.041-2,5.679l-2,5.679a56.475,56.475,0,0,0-1.966,5.57,24.1,24.1,0,0,0-1.324,4.368c-.244,1.311-.963,2.73-.52,4.259.237.873.038,1.747.924,2.948s2.351.765,3.572,1.638a2.459,2.459,0,0,1,1.336,2.4,2.993,2.993,0,0,1-.444,2.184c-.835,1.747-4.478,0-6.372.109a56.367,56.367,0,0,1-6.115,0h-6.007c-2.107-.218-5.352,1.857-6.3-.109-.559-1.2.688-3.495,1.5-4.259,1.111-.983,2.769-.11,3.546-.765s1.722-.546,2.936-1.2c2.1-1.311,2.987-1.966,3.662-2.948,1.047-1.419,2.313-2.84,2.666-4.15.238-.983,1.44-2.84,1.8-4.477.141-1.639,1.824-3.931,2.12-6.007.43-1.529,1.419-3.713,2.158-6.115.656-1.857.99-4.041,2.159-6.116,1.092-1.856,1.169-3.931,2.2-6.225a22.8,22.8,0,0,0,2.158-6.115c.289-1.747,1.458-3.823,2.159-6.115.989-2.184,1.162-3.6,2.158-6.116,1.022-1.966,2.12-4.15,2.2-6.224.058-1.092-.81-1.42-1.426-1.529s-.977-.328-1.869-1.2c-.424-.656-1.375-.437-2.351-.765-1.047-.437-2.769.109-2.795-.437-.083-1.31.475-3.822,1.619-4.586,1.734-1.2,3.019.109,4.515-.11,1.863-.327,3.308.218,4.369,0a9.718,9.718,0,0,1,4.368,0c1.015.218,3.475-.873,4.259,0,.855.983.507,1.966,1.239,3.6.489,1.092.649,2.184,1.169,3.495l1.278,3.495a25.931,25.931,0,0,1,1.169,3.495c.27,1.092.976,2.184,1.278,3.494l1.24,3.6c.443,1.529.97,2.512,1.278,3.495a22.765,22.765,0,0,0,1.13,3.6,6.673,6.673,0,0,1,1.278,3.495,8.906,8.906,0,0,0,1.278,3.495c.7,1.419.424,2.512,1.24,3.6a7.884,7.884,0,0,1,1.168,3.495,15.651,15.651,0,0,0,1.311,3.713,7.252,7.252,0,0,1,.757,2.185c.167.764,1.137,1.419.932,2.621-.167,1.092.848,1.311,1.58,1.092a3.743,3.743,0,0,0,2.39-3.058c.167-1.092,1.252-2.621,1.272-3.6a7.99,7.99,0,0,1,1.041-2.948c.983-1.856,1.2-3.713,1.812-5.132.423-1.2.97-3.058,1.734-4.914a27.835,27.835,0,0,0,1.7-4.805c.585-1.966.72-3.275,1.735-4.914.906-1.638.456-2.839,1.7-4.8a24.129,24.129,0,0,0,1.324-4.369c.43-1.529.2-2.73.552-4.041a3.711,3.711,0,0,0-1.073-2.839,5.831,5.831,0,0,0-3.572-1.638c-1.67-.219-1.207-1.529-1.368-2.621-.019-.873-.52-1.311.444-2.184,2.332-1.966,4.3-.11,6.372-.11,1.639,0,3.97-.109,6.225,0h6.007c2.363.11,5.634-1.419,6.3.11S346.278,5.047,345.855,6.248ZM248.941,29.181a24.318,24.318,0,0,1-.539,3.386,10.133,10.133,0,0,0-.8,3.494,10.544,10.544,0,0,1-1.085,3.386,20.231,20.231,0,0,1-1.343,3.495,34.663,34.663,0,0,0-1.632,3.385,31.164,31.164,0,0,1-1.889,3.495,13.244,13.244,0,0,1-2.178,3.385c-1.446,1.311-1.613,2.4-2.506,3.386-1.227,1.31-1.5,2.074-2.576,3.275-.745.874-1.882,1.311-2.864,3.168a14.756,14.756,0,0,1-2.969,2.839,28.212,28.212,0,0,0-3.147,2.73c-1.516,1.2-1.921,1.419-3.29,2.512-.629.546-2.389,1.2-3.5,2.184a10.448,10.448,0,0,1-3.6,1.857c-1.574.437-2.429,1.31-3.6,1.528-1.644.328-2.312.983-3.809,1.2a30.154,30.154,0,0,0-3.725.655c-1.574.437-2.185,0-3.791.218-1.715.218-2.248-.437-3.635-.218a4.15,4.15,0,0,1-3.264-.655c-1.111-.874-2.023-.765-2.961-1.2-.578-.218-1.761-1.2-2.518-1.528-1.118-.546-2.017-1.092-2.294-1.857-.283-.437-1.541-1.2-1.85-2.184a4.174,4.174,0,0,0-1.625-2.512c-.822-.765-.879-1.529-1.22-2.73-.09-.983-.919-1.419-.925-2.948-.019-.873-.765-1.857-.668-3.058l-.262-3.275c-.026-.546-.54-2.185-.155-3.276.27-.765-.057-2.621.361-3.495.719-1.419.109-1.857.43-3.385a21.5,21.5,0,0,1,.8-3.495c.308-.874.071-1.747,1.124-3.495a8.724,8.724,0,0,0,1.3-3.386c.251-1.638,1.137-2.293,1.67-3.494.193-.546,1.51-2.73,1.889-3.495a15.239,15.239,0,0,1,2.178-3.386,27.278,27.278,0,0,0,2.4-3.385l2.686-3.276a16.12,16.12,0,0,1,2.826-3.057c.932-1.092,2.261-2.075,2.968-2.84.521-.546,2.255-1.747,3.147-2.73a11.141,11.141,0,0,1,3.29-2.512,30.222,30.222,0,0,1,3.5-2.184c1.394-.546,1.928-1.747,3.495-1.857a9,9,0,0,0,3.707-1.528c1.478-1.092,2.454-.765,3.7-1.2.879-.327,1.933-.218,3.835-.655a13.071,13.071,0,0,1,3.79-.218,30.211,30.211,0,0,0,3.636.218c1.349-.109,1.811.437,3.373.655,1.381.11,1.875.874,2.852,1.2a7.385,7.385,0,0,1,2.518,1.528c.751.656,1.361,1.092,2.293,1.857.643.655,1.137,1.419,1.959,2.184a7.9,7.9,0,0,1,1.516,2.512c.45,1.2.983,1.856,1.221,2.73.276.765,1.2,1.856.924,2.948a5.468,5.468,0,0,0,.668,3.058,12.346,12.346,0,0,1,.372,3.276c.09.983-.006,2.184.006,3.385A11.212,11.212,0,0,1,248.941,29.181ZM238.658,17.168c-.424-.656-.077-1.639-.385-2.621l-.681-2.4a6.654,6.654,0,0,0-.905-2.075c-.6-.765-.623-1.638-1.311-1.856-.977-.328-1.284-1.311-1.644-1.529-.752-.655-.855-.983-2.088-1.2-.977-.328-1.491-.11-2.5-.656-1.046-.437-1.561-.218-2.872-.218a22.464,22.464,0,0,1-3.135.218c-1.162-.109-1.361.765-2.961.656-1.381-.11-2.351,1.092-2.826,1.2-1.169.218-1.587,1.092-2.685,1.419a4.219,4.219,0,0,0-2.621,1.857c-1.118,1.31-1.516,1.2-2.409,2.184s-1.734,1.2-2.338,2.294a31.344,31.344,0,0,1-2.236,2.621,12.607,12.607,0,0,0-1.946,2.73,10.132,10.132,0,0,1-1.985,2.84c-1.118,1.31-1.639,1.856-1.7,2.948a7.384,7.384,0,0,1-1.548,2.839,29.671,29.671,0,0,0-2.808,5.788c-1.394,2.4-1.349,3.822-2.107,5.351a55.784,55.784,0,0,0-1.747,5.57,42.086,42.086,0,0,0-1.35,5.679c-.083.546-.765,1.856-.456,2.839.276.765-.218,1.857-.2,2.73a6.829,6.829,0,0,1-.09,2.73,3.09,3.09,0,0,0,.1,2.512c.238.874.077,1.639.385,2.621.379,1.092.077,1.638.829,2.293.43.328.559,1.2.976,2.185.245.545,1.041.765,1.42,1.856.308.983.6,1.092,1.605,1.639a10.546,10.546,0,0,1,2.126,1.092,5.413,5.413,0,0,0,2.351.765,9.427,9.427,0,0,0,2.724.328c1.889.218,2.955-.328,5.075-.765a13.812,13.812,0,0,0,4.991-2.075c1.144-.765,1.658-.983,2.506-1.529.591-.437,1.722-.545,2.364-1.747.379-.765,1.111-.983,2.113-1.966s1.523-1.529,2-1.966c1.079-1.2,1.934-2.074,2.57-2.948a21.171,21.171,0,0,0,2.133-2.948,30.392,30.392,0,0,1,2.062-3.058,21.527,21.527,0,0,1,1.883-3.167A11.972,11.972,0,0,0,231,49.056a14.516,14.516,0,0,1,1.446-3.167,20.931,20.931,0,0,0,1.336-3.167c.424-1.2.623-2.075,1.118-3.168a34.839,34.839,0,0,0,1.632-5.242,20.9,20.9,0,0,0,1.388-5.787,14.14,14.14,0,0,1,.457-2.84,7.14,7.14,0,0,1,.276-2.948,5.072,5.072,0,0,0,.129-2.839C238.548,19.025,239.261,17.933,238.658,17.168Zm-69.489,3.057c-.719,1.42-2.769,1.966-3.861,1.966-1.42,0-.546-1.856-1.176-3.167l-1.323-3.057c-.482-1.42-1.208-1.529-1.51-2.84a4.134,4.134,0,0,0-1.773-2.4c-1.118-.546-1.1-1.529-2.286-2.185A20.8,20.8,0,0,1,154.433,6.9a4.259,4.259,0,0,0-3.109-1.092c-1.311,0-2.5-.655-3.559-.437a45.139,45.139,0,0,1-5.37.983c-1.24.11-1.619.874-2.461,1.092a5.389,5.389,0,0,0-2.4,1.529c-.739.546-1.073.873-2.184,1.856-.963.874-1.118,1.311-1.934,2.075-1.818,1.747-2.14,3.276-2.756,5.024-.5,1.419-1.311,1.856-.6,2.948.354.545-.148,1.966.1,2.512.45,1.2.328,1.856.649,2.184.822.765.552,1.529,1.272,1.966a16.079,16.079,0,0,1,1.754,1.529,5.8,5.8,0,0,0,2.05,1.31c.976.328,1.221.874,2.383.983.726.11,1.7.765,2.569.765,1.2,0,2.345,1.092,3.656,1.092,1.419,0,1.952.655,3.257.983,1.374.437,2.357.437,3.328,1.092.61.437,2.126,1.092,2.845,1.529,1.079.656,2.525,1.2,2.544,2.075s1.189.655,1.279,1.638c.16,1.092.777,1.2,1.092,1.857.527.983.4,1.638.726,1.966.823.765.521,1.311.43,2.184-.071,1.747-.173,3.276-.128,4.7a12.358,12.358,0,0,1-1.189,4.914,47.147,47.147,0,0,1-2.018,4.477,15.839,15.839,0,0,1-2.7,4.259c-.893.983-2.384,2.73-3.424,3.823-1.375,1.419-2.737,2.184-3.964,3.495-1.04,1.092-3.244,2.074-4.24,2.73-1.953,1.2-3.231,1.419-4.593,2.184-1.4.873-3.077.983-4.76,1.419a23.638,23.638,0,0,1-4.631.437,34.652,34.652,0,0,0-4.324-.437c-1.31,0-2.563-1.092-3.828-1.529-1.555-.546-2.486-1.311-2.994-1.419-.8-.218-1.3-.655-2.358-.437a8.717,8.717,0,0,0-3.77,1.092c-2.248,1.419-3.251,2.4-4.78,2.4-.765,0,.065-1.42.013-2.512a22.988,22.988,0,0,0-.1-2.512,13.9,13.9,0,0,1-.1-2.512c-.019-.874.3-2.075.013-2.512-.462-.546-.18-1.966.013-2.512a3.909,3.909,0,0,0-.1-2.512,3.725,3.725,0,0,1,.051-2.621c.161-.765-.4-1.966.051-2.621.489-.764,2.448-2.293,3.854-1.638,1.227.546,1.124,2.075,1.426,3.385.27,1.092,1.233,2.075,1.65,3.058.63,1.311,1.49,1.966,1.908,2.948,1.028,1.419,1.606,1.639,2.28,2.512.635.983,1.5,1.311,2.723,2.184a10.857,10.857,0,0,0,3.1,1.747l3.546,1.092c1.445.546,2.286.327,3.815.327a13.979,13.979,0,0,0,3.025-.218c.841-.218,2.113-.109,2.93-.873a12.217,12.217,0,0,1,2.826-1.2,7.725,7.725,0,0,0,2.691-1.747c1.112-.983,2.062-1.2,2.441-1.966.6-1.092,1.375-1.42,2.158-2.4a20.285,20.285,0,0,0,1.69-2.621c.6-1.092.841-2.075,1.259-2.948.873-1.857.674-2.84,1-4.7.315-1.2-.462-2.4-.623-3.495a4.01,4.01,0,0,0-1.766-2.73,21.893,21.893,0,0,0-2.872-2.075,10.135,10.135,0,0,0-3.463-1.638c-1.015-.218-2.711-.983-3.8-1.311-1.374-.437-3.122-.437-3.835-1.2-.6-.765-2.461-.765-3.687-1.311a17.3,17.3,0,0,1-2.775-1.419c-.43-.328-2.094-.873-2.479-1.638-.347-.874-1-1.2-1.928-1.966a5.509,5.509,0,0,1-1.483-2.294,3.522,3.522,0,0,1-.932-2.621c-.013-1.2-.726-1.966-.232-3.057.424-1.2-.109-1.857.283-3.276a20.158,20.158,0,0,1,1.022-3.823,17.584,17.584,0,0,1,1.863-4.04c1.008-1.311,1.548-2.84,2.551-3.823a18.4,18.4,0,0,1,3.129-3.6,31.276,31.276,0,0,0,3.52-3.167,10.269,10.269,0,0,1,3.874-2.621A24.244,24.244,0,0,1,141.058,2.1,26.164,26.164,0,0,1,145.3.9c1.2,0,2.524-.655,4.234-.545,1.31,0,2.756.545,3.558.437,1.279-.218,2.095.873,2.929.983.727.109,1.368.765,2.711.983a12.758,12.758,0,0,0,2.834.328,17.277,17.277,0,0,0,3.694-.874c1.349-.11,2.814-2.4,3.925-1.529.79.546-.5,1.419.026,2.4a3.411,3.411,0,0,1,.026,2.4c-.34.655.038,1.747.026,2.4a6.71,6.71,0,0,0,.026,2.4,5.725,5.725,0,0,1,.026,2.4c-.2.873.179,1.966-.013,2.512C168.8,16.95,170.035,18.7,169.168,20.226ZM104.355,6.575a14.665,14.665,0,0,0-3.565,1.747,8.7,8.7,0,0,0-2.017,2.621c-.6.765-.842,2.074-1.5,3.931-.617,1.747-2.165,4.586-2.158,6.115-.18,1.747-1.51,4.587-2.159,6.116-1.028,2.293-1.465,4.15-2.158,6.115l-2.159,6.115-2.158,6.116c-.925,2.621-1.536,4.04-2.159,6.115a45.122,45.122,0,0,0-2.158,6.115c-.662,2.184-1.645,4.041-2.12,6.007a19.2,19.2,0,0,1-1.279,3.931,2.61,2.61,0,0,0-.019,2.84c.315.655.771,1.528,1.716,1.638,1.343.218,2.479-.218,3.957.546,1.118.546,2.312.873,1.747,1.856a3.14,3.14,0,0,1-.88,2.184c-1.259,1.092-3.135.219-3.938.328-1.13.11-2.691-.109-3.861.11-1.465.437-2.583-.11-3.822,0a14.088,14.088,0,0,1-3.713,0,13.38,13.38,0,0,0-3.681.218c-.873,0-3.064.327-3.829.327-1.638,0-2.036-.109-3.713,0a7.63,7.63,0,0,1-3.662-.764c-1.117-.546-1.471-1.092-1.085-2.185a3.108,3.108,0,0,1,2.551-1.966,18.34,18.34,0,0,1,3.546-.765,6.307,6.307,0,0,0,2.557-.437,11.769,11.769,0,0,0,3.372-1.2c1.253-.765,1.311-1.856,2.056-2.73a25.362,25.362,0,0,0,1.5-3.931c.662-2.184,1.465-4.15,2.12-6.007.694-1.966,1.419-3.713,2.158-6.115.585-1.966,1.793-4.15,2.159-6.115a27.183,27.183,0,0,1,2.158-6.116c.874-1.856,1.35-3.822,2.159-6.115a45.423,45.423,0,0,1,2.158-6.115,34.06,34.06,0,0,0,2.159-6.116l2.158-6.115,1.279-3.931a7.64,7.64,0,0,0-.019-2.73c-.308-.983-.372-1.419-1.715-1.639a34.829,34.829,0,0,0-4.143-.327,2.665,2.665,0,0,1-2.8-1.966c-.057-.765.874-1.857,2.345-2.621.662-.327,2.769-.109,3.861-.109,1.311,0,2.139.437,3.713,0,.88-.328,2.473.109,3.752-.11a7.647,7.647,0,0,1,3.565.11,22.629,22.629,0,0,0,3.751-.11,19.963,19.963,0,0,0,3.784.11,14.91,14.91,0,0,1,3.823,0c1.092,0,2.923-.546,3.886.437,1.285,1.311.2,2.839-1.568,3.822C108.241,7.012,106.334,5.92,104.355,6.575Zm-40.974.874a24.2,24.2,0,0,0-3.2,1.638A11.958,11.958,0,0,0,57.658,11.6c-.373.437-1.645,2.184-2.769,3.823-.674.983-1.722,2.4-2.846,4.04-1.3,1.529-2.1,3.168-2.7,3.932a25.067,25.067,0,0,0-2.846,4.04c-.533,1.2-1.83,2.4-2.846,4.041-.751,1.2-1.94,2.4-2.846,4.041-.944,1.747-2.2,2.511-2.846,4.04-.533,1.2-1.831,2.4-2.846,4.041-1.054,1.747-2.2,2.84-2.846,4.041a17.739,17.739,0,0,1-2.737,4.04,20.76,20.76,0,0,0-2.846,4.041c-.533,1.2-2.39,3.058-2.846,4.041a19.715,19.715,0,0,1-2.807,3.931,31.284,31.284,0,0,0-2.885,4.15c-1.124,1.639-2.383,2.73-2.769,3.823-.539,1.529-2.133,2.948-2.884,4.15-.566.983-1.857,3.713-2.994,4.15a5.8,5.8,0,0,1-3.058,0c-1.3-.327-.167-2.621-.065-4.15.174-1.419-.134-2.4.046-4.15.315-1.2-.206-2.512.077-3.931.212-1.529-.173-2.294.116-4.041.051-.765-.128-2.73-.032-3.931A18.7,18.7,0,0,0,6.7,55.718c.019-.983-.051-2.948.007-4.041.071-1.747-.649-2.184.116-4.04C7.4,46,7.055,45.125,6.83,43.6l.116-4.041c-.083-1.31-.019-2.73.007-4.04.064-1.42-.019-2.73.116-4.041a22.055,22.055,0,0,0,.006-4.041,21.69,21.69,0,0,1,.116-4.04c.206-1.2-.166-2.621-.032-3.932.033-1.638.09-2.73.116-4.04.1-1.2.495-2.948-.07-3.823-.463-.546-.148-1.747-.713-2.621a3.547,3.547,0,0,0-2-1.747C3.512,6.9,1.546,6.9.607,6.466c-.867-.328-.667-3.058.958-4.259.886-.655,2.627-.328,3.642-.11a6.711,6.711,0,0,0,3.6,0c1.394-.545,2.325.219,3.386,0,.8-.109,1.708.11,3.385,0h7.1a13.128,13.128,0,0,0,3.6,0c1.317-.327,2.852-.655,3.564.11,1.035,1.092-.757,3.385-1.465,4.15-1,.983-2.878.11-3.572.218C23.278,6.9,22.8,7.012,22,7.121a3.388,3.388,0,0,0-3.186,2.84,6.34,6.34,0,0,0-.565,2.839,8.578,8.578,0,0,1-.09,2.73c-.277,1.092.327,1.857-.058,2.948a4.786,4.786,0,0,0-.058,2.948c.206.656-.476,1.967-.057,2.949.346.873-.084,2.4-.1,3.057.122,1.2-.148,1.966-.058,2.948a13.526,13.526,0,0,1-.1,3.058c-.354,1.311.366,1.747-.1,3.058a5.086,5.086,0,0,0-.058,2.948,26.015,26.015,0,0,1-.1,3.057,7.626,7.626,0,0,1-.1,3.386,29.035,29.035,0,0,0-.109,3.713c-.11,1.856.134,2.4-.052,4.477-.154,2.293.263,3.275,1.728,2.839a7.838,7.838,0,0,0,3.842-2.839c.97-1.2,2.03-3.276,3.109-4.477.893-.983,1.548-2.84,2.659-3.823A7.439,7.439,0,0,0,30.8,42.5a10.705,10.705,0,0,1,2.062-3.057A19.626,19.626,0,0,1,35,36.5a19.081,19.081,0,0,0,2.062-3.058,18.987,18.987,0,0,1,2.062-3.058,28.459,28.459,0,0,0,2.024-2.948c.713-1.092,1.593-1.419,1.376-3.057,1.3-1.42,2.209-1.529,2.819-2.949a23.5,23.5,0,0,1,2.024-2.948c.9-1.31,1.722-2.4,2.024-2.948a17.527,17.527,0,0,0,1.74-3.385c.161-.765.1-1.529.418-2.73.161-.765-.81-1.419-1.13-1.747a3.221,3.221,0,0,0-2.313-.873c-.764,0-2.37.218-3.012-.437-.392-.437-.084-3.167,1.246-4.15,2.217-1.638,3.713,0,5.936-.11a51.336,51.336,0,0,1,5.787,0,46.616,46.616,0,0,0,5.57,0c2.184,0,5-.873,5.859.11.712.765-.758,3.385-1.5,4.259C66.87,7.777,64.191,7.012,63.381,7.449Z" transform="translate(-0.101 -0.168)" fill="#fff" fill-rule="evenodd"/>
</svg>
