<svg xmlns="http://www.w3.org/2000/svg" width="493.341" height="80" viewBox="0 0 493.341 80">
  <path id="pass_service" d="M493.451,11.779a13.893,13.893,0,0,1,.019,4.575c-.212,1.525,1.351,3.267-.019,4.684a5.987,5.987,0,0,1-3.948,1.306c-2.031-.108-.749-2.5-1.595-3.812-.532-.653-1.153-2.288-1.647-3.05-.518-1.306-1.826-1.306-1.839-2.505-.089-.98-1.024-1.416-1.992-2.069l-2.512-1.525a14.268,14.268,0,0,0-3.172-1.2,8.061,8.061,0,0,0-3.8-.654c-1.018.109-3.043-.326-4.5-.218-1.89.109-3.082-.218-4.178.109s-2.217.108-3.428.763a8.228,8.228,0,0,0-2.583,2.069,20.7,20.7,0,0,0-1.89,3.813c-1.128,1.961-1.128,3.813-2.038,5.773a18.01,18.01,0,0,0-2.076,5.882c-.628,2.4-1.5,4.248-2.153,6.1a8.423,8.423,0,0,0-.756,3.376c-.321,1.525-.436,1.852.435,1.852,1.307,0,3.242-.545,4.831-.109.9.219,2.66-.435,3.748-.435.872,0,2.082-.653,3.063-.653a3.7,3.7,0,0,0,2.493-1.2c1.441-1.307,3.088-1.961,4.209-3.6a11.4,11.4,0,0,0,2.089-2.832c.384-1.09.391-3.268,2.288-3.7,1.057-.218,2.594-.872,3.594,0,1.07.98-.884,2.505-1.237,3.812-.179,1.743-1.351,2.288-1.237,3.813.058.763-1.076,3.049-1.307,3.7l-1.269,3.594c-.359,1.634-1.294,3.05-1.346,3.813a10.018,10.018,0,0,1-1.306,3.7,18.89,18.89,0,0,0-1.455,3.812,13.256,13.256,0,0,1-1.455,3.813c-.781.98-3.466.871-3.633.109a5.955,5.955,0,0,1,.513-3.922c.5-1.416.147-1.961-.012-3.049l-.539-2.178a1.817,1.817,0,0,0-.986-1.525,10.247,10.247,0,0,1-1.865-1.2,7.017,7.017,0,0,0-2.492-.654,24.779,24.779,0,0,1-3.37-.326,8.572,8.572,0,0,0-4.21-.109,3.5,3.5,0,0,0-2.4,1.852c-.308.871-1.275,2.069-1.852,3.7-.5,1.416-.839,2.069-1.153,3.267a19.391,19.391,0,0,1-1.154,3.268c-.506,1.743-1.422,4.031-2.229,6.318-.77,2.178-1.795,4.465-2.192,6.208s-1.045,3.268-1.058,3.922a3.642,3.642,0,0,0,.647,2.178c.353.545.9.545,2.307.871a13.642,13.642,0,0,0,3.953.218c2.185-.326,3.633-.108,5.235-.326a20.643,20.643,0,0,0,4.735-.763,35.1,35.1,0,0,0,4.6-1.307c1.647-.653,2.563-1.09,4.248-1.851a39.739,39.739,0,0,1,4.076-2.288c1.172-.545,2.249-1.743,4.158-2.832,1.172-.545,1.294-1.2,2.1-1.634s.641-1.2,2.249-1.743a5.071,5.071,0,0,0,2.326-1.961,4.638,4.638,0,0,1,2.435-1.961,1.719,1.719,0,0,1,2.549,1.416,3.206,3.206,0,0,1-1.647,2.505c-1.025.436-1.384,2.07-1.865,2.505a6.552,6.552,0,0,0-1.756,2.505,17.4,17.4,0,0,1-1.755,2.5,24.551,24.551,0,0,1-3.544,4.793c-.929,1.09-.9,1.634-1.755,2.505-.814.763-1.237,1.961-1.827,2.4s-2.576-.108-3.486,0a12.627,12.627,0,0,1-3.415.109c-.724-.109-2.217.108-3.376,0a16.547,16.547,0,0,0-3.376,0,9.225,9.225,0,0,1-3.486,0c-1.487-.109-2.326.108-3.377,0a18.184,18.184,0,0,1-3.486,0c-.973-.327-2.069,0-3.376,0-1.345.108-1.961,0-3.376,0h-3.486a32.022,32.022,0,0,1-3.268,0,8.87,8.87,0,0,0-3.339-.109c-1.531.327-2.1-.218-3.453.218a11.758,11.758,0,0,1-3.6.327h-3.486a9.061,9.061,0,0,1-3.364-.653c-1.73-.654-1.865-1.2-1.665-2.07.269-.763,1.333-1.307,3.165-2.178a16.463,16.463,0,0,1,3.537-.763,11.1,11.1,0,0,1,2.55-.435,4.891,4.891,0,0,0,3.364-1.2l2.012-2.615c.75-1.2.815-2.614,1.493-3.921.756-1.525,1.237-3.813,2.154-6.1a45.146,45.146,0,0,0,2.153-6.1,27.252,27.252,0,0,1,2.154-6.1,45.293,45.293,0,0,0,2.153-6.1c.615-1.743,1.82-3.921,2.154-6.1.429-1.524,1.377-3.594,2.153-6.1.653-1.851.949-3.921,2.153-6.1,1.052-1.743,1.128-3.813,2.115-5.991A14.8,14.8,0,0,0,446.536,12l-.019-2.723c.051-.763-.808-1.416-1.711-1.634-1.377-.109-2.5,0-4.247,0-2.288,0-3.319-1.09-3.044-2.178.429-1.525,1.276-2.07,2.7-2.723,1.172-.545,2.216-.109,3.415-.109,1.672-.108,2.172.327,3.376,0a17.463,17.463,0,0,1,3.376,0h3.377a63.265,63.265,0,0,1,6.427,0c1.416,0,2.063.327,3.267,0a17.5,17.5,0,0,1,3.377,0,31.94,31.94,0,0,0,3.268,0,10.829,10.829,0,0,0,3.267,0c1.6-.218,1.589.435,3.377,0a31.929,31.929,0,0,1,3.267,0c.98,0,1.731.654,3.377,0a3.8,3.8,0,0,1,3.268,0c.647.327,2.761-.108,3.376,0,1.339.218,2.223-.435,3.229.109,1.256.763.115,3.376.167,4.466C493.477,8.621,493.08,10.363,493.451,11.779Zm-76.428-.218a44.06,44.06,0,0,1-.1,4.9c-.219,1.852.839,3.486-.353,5.011A4.852,4.852,0,0,1,412.55,23c-.9-.218-.826-2.288-.986-3.377l-1.243-3.267a18.989,18.989,0,0,0-1.506-2.832,19.847,19.847,0,0,0-1.839-2.505,5.26,5.26,0,0,0-2.389-2.178,10.515,10.515,0,0,1-2.8-1.634,32.342,32.342,0,0,0-3.318-1.09,10.125,10.125,0,0,0-3.659-.435c-2.614,0-3.607.653-5.862.871-1.345.109-1.833.872-2.78,1.09a9.178,9.178,0,0,0-2.788,1.416,18.112,18.112,0,0,0-2.429,1.634c-1.179.871-1.294,1.2-2.435,1.961a9.048,9.048,0,0,0-2.333,2.287c-.41.545-1.884,1.634-2.153,2.4a19.838,19.838,0,0,1-1.974,2.505c-.749,1.2-1.563,1.961-1.941,2.723a17.719,17.719,0,0,1-1.723,2.723c-1.039,1.089-1.1,2.178-1.615,2.723a17.426,17.426,0,0,0-2.724,5.555c-.955,2.4-1.486,3.6-2.063,5.229a49.825,49.825,0,0,0-1.673,5.664,15.119,15.119,0,0,0-.673,2.832,10.15,10.15,0,0,1-.384,2.941c-.68,1.306.083,1.306-.308,2.723a12.437,12.437,0,0,0,.019,2.723c-.063,1.416-.077,2.069.205,2.5.673.872.115,1.525.461,2.4.3,1.306-.249,1.634.608,2.288.718.436.513,1.634,1.013,2.069.929.763.839,1.634,1.306,1.852.9.544.705,1.089,1.641,1.524a6.989,6.989,0,0,1,1.935,1.307,4.473,4.473,0,0,0,2.415.872,4.9,4.9,0,0,0,2.639.544c.763,0,1.986.545,3.082.219.731-.219,2.281.326,3.672-.219a27.5,27.5,0,0,1,3.576-.871c.839-.218,2.159-.871,3.549-1.416a9.057,9.057,0,0,0,3.448-1.743c.48-.435,2.133-1.417,3.313-2.288a27.69,27.69,0,0,0,3.063-2.505c1.108-.98,1.224-1.307,2.96-2.832,1.551-1.307,1.141-2.615,2.9-3.268a2.522,2.522,0,0,1,3.127,1.634c.308.98-2.192,2.505-3.274,4.031-.711,1.09-2.48,2.4-3.448,3.594-.781.98-2.8,2.07-3.7,3.377-1.339,1.634-2.473,2.069-4.017,3.049-.7.436-1.653.98-2.684,1.743-.737.545-1.9.763-2.717,1.525-1.07.872-2.051.872-2.749,1.307-.59.435-1.827.545-2.781,1.089-1.031.763-2.043.545-2.813.872a9.62,9.62,0,0,1-2.7.545c-2.332.436-3.492.326-5.42.545-1.6.218-2.32-.219-3.409-.219-1.416,0-2.2-.544-3.184-.544-1.09,0-1.929.218-2.852-.872-.64-.653-1.512-.653-2.479-1.307a16.993,16.993,0,0,1-2.185-1.524c-.7-1.09-1.5-1.307-1.961-1.852a11.624,11.624,0,0,1-1.557-2.07c-.243-.544-.845-1.306-1.332-2.4a19.388,19.388,0,0,0-.968-2.505,4.741,4.741,0,0,1-.673-2.723,16.86,16.86,0,0,0-.416-2.832,14.314,14.314,0,0,1-.122-3.05,23.4,23.4,0,0,0,.135-3.159c.057-1.09.333-2.178.461-3.159a27.014,27.014,0,0,1,.756-3.377c.231-.653.507-1.743,1.083-3.376a11.56,11.56,0,0,1,1.339-3.486,39.442,39.442,0,0,0,1.7-3.594,20.6,20.6,0,0,0,1.851-3.7,9.269,9.269,0,0,1,2.25-3.6c1.23-1.634,1.1-2.505,2.4-3.7a21.538,21.538,0,0,0,2.685-3.594c.487-.763,2.043-2.4,2.864-3.486.41-.545,1.7-1.743,3.005-3.268a15.235,15.235,0,0,1,3.294-3.159c1.467-.763,1.922-1.743,3.4-2.832,1.513-1.2,2.313-1.306,3.5-2.505.518-.544,2.569-1.416,3.71-2.178A20.582,20.582,0,0,1,384.685,3.5a25.24,25.24,0,0,1,3.838-1.307,11.477,11.477,0,0,1,4.011-.871c1.563-.109,2.479-.545,4.037-.327,1.665.218,3.229.108,4.529.435,1.7.435,2.447,1.09,4.113,1.307,2.1.545,3.076.545,3.793.98.679.545,2.723,0,4-.545,1.461-.435,2.934-1.525,4.235-1.2,1.877.545.192,3.159-.058,4.792A30.5,30.5,0,0,0,417.023,11.562ZM341.041,7.531a14.626,14.626,0,0,0-3.556,1.743,8.677,8.677,0,0,0-2.012,2.615c-.6.763-.84,2.069-1.493,3.921-.615,1.743-2.16,4.574-2.154,6.1-.179,1.743-1.506,4.575-2.153,6.1-1.025,2.287-1.461,4.139-2.154,6.1l-2.153,6.1-2.153,6.1c-.923,2.614-1.532,4.03-2.154,6.1a45.008,45.008,0,0,0-2.153,6.1c-.66,2.178-1.641,4.031-2.115,5.991a19.145,19.145,0,0,1-1.276,3.921,2.6,2.6,0,0,0-.019,2.832c.314.653.769,1.524,1.711,1.634,1.339.218,2.473-.218,3.947.545,1.114.545,2.306.871,1.743,1.851a3.131,3.131,0,0,1-.878,2.178c-1.256,1.09-3.127.219-3.928.327-1.128.109-2.684-.108-3.851.109-1.461.435-2.576-.109-3.812,0a14.053,14.053,0,0,1-3.7,0,13.343,13.343,0,0,0-3.672.218c-.872,0-3.056.326-3.819.326-1.634,0-2.031-.108-3.7,0a7.611,7.611,0,0,1-3.652-.762c-1.114-.545-1.467-1.09-1.083-2.179a3.1,3.1,0,0,1,2.544-1.961,18.3,18.3,0,0,1,3.537-.763,6.284,6.284,0,0,0,2.55-.435,11.735,11.735,0,0,0,3.364-1.2c1.25-.763,1.307-1.851,2.051-2.723a25.3,25.3,0,0,0,1.493-3.921c.66-2.178,1.461-4.139,2.115-5.991.692-1.961,1.416-3.7,2.153-6.1.584-1.961,1.788-4.139,2.154-6.1a27.112,27.112,0,0,1,2.153-6.1c.872-1.851,1.346-3.812,2.154-6.1a45.3,45.3,0,0,1,2.153-6.1,34.039,34.039,0,0,0,2.154-6.1l2.153-6.1,1.276-3.921a7.619,7.619,0,0,0-.019-2.723c-.308-.98-.371-1.416-1.71-1.634a34.738,34.738,0,0,0-4.133-.326,2.658,2.658,0,0,1-2.794-1.961c-.057-.763.871-1.852,2.339-2.615.66-.326,2.762-.108,3.851-.108,1.307,0,2.133.435,3.7,0,.878-.327,2.467.108,3.742-.109a7.627,7.627,0,0,1,3.556.109,22.571,22.571,0,0,0,3.741-.109,19.908,19.908,0,0,0,3.774.109,14.872,14.872,0,0,1,3.813,0c1.089,0,2.915-.545,3.876.435,1.282,1.307.2,2.832-1.564,3.812C344.917,7.967,343.014,6.878,341.041,7.531ZM300.172,8.4a24.025,24.025,0,0,0-3.191,1.634,11.928,11.928,0,0,0-2.518,2.505c-.372.435-1.641,2.178-2.762,3.813-.673.98-1.717,2.4-2.839,4.03-1.3,1.525-2.1,3.16-2.691,3.922a25.006,25.006,0,0,0-2.839,4.03c-.532,1.2-1.827,2.4-2.839,4.031-.749,1.2-1.935,2.4-2.839,4.031-.942,1.743-2.192,2.5-2.839,4.03-.532,1.2-1.827,2.4-2.839,4.031-1.051,1.743-2.2,2.832-2.839,4.031a17.693,17.693,0,0,1-2.73,4.03,20.708,20.708,0,0,0-2.839,4.031c-.532,1.2-2.384,3.05-2.839,4.031a19.666,19.666,0,0,1-2.8,3.921,31.116,31.116,0,0,0-2.877,4.139c-1.121,1.634-2.378,2.723-2.762,3.813-.538,1.525-2.127,2.941-2.877,4.139-.564.98-1.852,3.7-2.987,4.139a5.779,5.779,0,0,1-3.049,0c-1.3-.326-.167-2.614-.064-4.139.174-1.416-.134-2.4.045-4.139.315-1.2-.2-2.505.078-3.921.212-1.525-.173-2.288.115-4.031.051-.763-.128-2.723-.032-3.921a18.654,18.654,0,0,0,.115-4.031c.019-.98-.051-2.941.006-4.031.071-1.743-.647-2.178.115-4.03.577-1.634.231-2.505.007-4.031l.115-4.031c-.083-1.306-.019-2.723.007-4.03.063-1.417-.019-2.723.115-4.031a22,22,0,0,0,.006-4.031,21.557,21.557,0,0,1,.115-4.03c.205-1.2-.167-2.615-.032-3.922.033-1.634.09-2.723.115-4.03.1-1.2.494-2.941-.071-3.813-.461-.545-.147-1.743-.711-2.614a3.538,3.538,0,0,0-2-1.743c-.973-.327-2.935-.327-3.87-.763-.865-.327-.666-3.05.956-4.248.884-.653,2.62-.327,3.633-.109a6.694,6.694,0,0,0,3.594,0c1.39-.544,2.319.219,3.376,0,.8-.108,1.7.109,3.377,0h7.08a13.094,13.094,0,0,0,3.6,0c1.314-.326,2.845-.653,3.555.109,1.032,1.09-.756,3.376-1.461,4.139-1,.98-2.87.109-3.562.218-1.531.327-2.006.436-2.807.545a3.379,3.379,0,0,0-3.178,2.832,6.322,6.322,0,0,0-.564,2.832,8.506,8.506,0,0,1-.09,2.723c-.275,1.09.327,1.852-.057,2.941a4.774,4.774,0,0,0-.058,2.941c.205.654-.474,1.961-.057,2.942.346.871-.084,2.4-.1,3.049.122,1.2-.148,1.961-.058,2.941a13.491,13.491,0,0,1-.1,3.05c-.353,1.307.365,1.743-.1,3.05a5.066,5.066,0,0,0-.058,2.941,25.949,25.949,0,0,1-.1,3.049,7.606,7.606,0,0,1-.1,3.377,29.091,29.091,0,0,0-.109,3.7c-.108,1.851.135,2.4-.051,4.466-.154,2.287.263,3.267,1.723,2.832a7.818,7.818,0,0,0,3.832-2.832c.967-1.2,2.025-3.268,3.1-4.466.89-.98,1.544-2.832,2.653-3.813a7.42,7.42,0,0,0,2.243-3.268,10.66,10.66,0,0,1,2.057-3.049,19.617,19.617,0,0,1,2.127-2.941,18.97,18.97,0,0,0,2.058-3.05,18.882,18.882,0,0,1,2.057-3.05A28.386,28.386,0,0,0,278,28.336c.711-1.089,1.589-1.416,2.165-3.049.5-1.417,1.411-1.525,2.019-2.942A23.441,23.441,0,0,1,284.2,19.4c.9-1.306,1.717-2.4,2.018-2.941a17.45,17.45,0,0,0,1.737-3.376c.16-.763.1-1.525.417-2.723.16-.763-.808-1.416-1.128-1.743a3.214,3.214,0,0,0-2.307-.871c-.763,0-2.364.218-3-.436-.391-.435-.084-3.159,1.243-4.139,2.21-1.634,3.7,0,5.921-.109a51.2,51.2,0,0,1,5.772,0,46.5,46.5,0,0,0,5.556,0c2.178,0,4.991-.871,5.843.109.711.763-.755,3.376-1.5,4.248C303.652,8.73,300.98,7.967,300.172,8.4Zm-80.4,13.18c-.57,1.306-1.134,2.287-1.441,3.159a9.3,9.3,0,0,1-1.948,3.049c-1.038,1.09-1.352,2.288-2.268,2.723a10.387,10.387,0,0,0-2.736,2.505,8.577,8.577,0,0,1-3.094,2.288,13,13,0,0,1-3.268,1.852,9.336,9.336,0,0,0-3.736,1.634c-1.762.98-2.441.435-4.017,1.2a9.908,9.908,0,0,0-2.9,1.743,2.25,2.25,0,0,0-.781,2.832,9.044,9.044,0,0,1,.756,2.178c.16,1.089-.173,1.416.391,2.287a17.464,17.464,0,0,1,.7,3.268,9.692,9.692,0,0,0,.628,3.159c.372,1.417.321,2.179.558,3.05a7.712,7.712,0,0,0,.557,3.05c.673.871.141,2.069.7,2.941.808,1.416.7,3.268.9,3.921a5.662,5.662,0,0,0,1.473,2.614,10.023,10.023,0,0,0,2.653,1.743c.718.436,3.486,0,4.344.654,1.429,1.2.339,3.049-.192,4.248s-3.056.326-4.613.108-3.563.218-4.5.109l-4.319-.109c-1.416,0-3.543,1.09-4.466,0a3.73,3.73,0,0,1-.391-2.288c-.012-1.2-.48-1.416-.5-2.287a7.705,7.705,0,0,0-.429-2.179c-.346-.871-.845-1.306-.5-2.287s-.339-1.2-.391-2.288c-.012-1.2-.339-1.2-.5-2.288a8.531,8.531,0,0,1-.429-2.178,3.515,3.515,0,0,0-.391-2.288,9.955,9.955,0,0,1-.5-2.287c-.237-.872-.814-1.09-.391-2.288.16-.763-.231-1.2-.5-2.288a8.351,8.351,0,0,1-.429-2.178,11.624,11.624,0,0,0-.628-3.159c-.353-.545-.353-2.4-.487-2.941a6.151,6.151,0,0,0-2.96-2.723,25.955,25.955,0,0,1-2.941,0c-.833-.109-1.32.653-2.249,1.743a14.314,14.314,0,0,0-1.954,3.376c-.956,2.4-1.5,4.248-2.115,5.991a40.135,40.135,0,0,0-2.038,5.773,60.582,60.582,0,0,1-2.038,5.773,17.243,17.243,0,0,0-1.275,3.921,10.886,10.886,0,0,0,.018,2.723c.1.653.852.98,1.82,1.634.5.436,2.146-.218,3.408.219,1.768.544,1.461,3.267.057,4.465-1.551,1.307-1.961,0-3.492.327a14.181,14.181,0,0,1-3.633.109c-1.307,0-1.922-.109-3.594,0a18.611,18.611,0,0,1-3.486,0,7.815,7.815,0,0,0-3.78.218c-1.827.545-2.211-.218-3.672.218a5.515,5.515,0,0,1-3.742.108c-1.551-.544-2.761.109-3.543-.762-.961-.98-.147-3.6,1.461-4.14a9.872,9.872,0,0,1,3.576-.871,4.635,4.635,0,0,0,2.512-.327c1.909-1.089,2.884-.763,3.364-1.2,1.109-.98,1.923-1.743,2.051-2.723.013-.653,1.135-2.288,1.493-3.921.141-1.634,1.82-3.921,2.153-6.1.391-1.417,1.378-3.6,2.115-5.991.654-1.852.987-4.031,2.154-6.1,1.089-1.852,1.166-3.922,2.192-6.209A22.758,22.758,0,0,0,166.7,34c.25-1.634,1.455-3.812,2.154-6.1.948-2.07,1.159-3.594,2.153-6.1.98-1.852,1.166-3.921,2.115-5.991a9.166,9.166,0,0,0,1.276-3.921c.32-1.525.333-2.178.019-2.832-.244-.545-1.205-1.525-1.75-1.525-.941-.108-3.71.327-4.684,0-1.332-.544-1.865-1.2-1.736-2.178a3.512,3.512,0,0,1,1.755-2.505c1.788-.435,2.871-.108,3.928-.326a21.652,21.652,0,0,1,3.851-.109,13.7,13.7,0,0,0,3.7,0,21.032,21.032,0,0,1,3.7,0H187c.724.109,2.147-.218,3.812,0a20.5,20.5,0,0,0,3.7,0h3.7c1.634,0,3.011.109,4.607.218a20.877,20.877,0,0,1,4.562.654l4.37,1.2a36.913,36.913,0,0,1,3.812,1.851c1.045.435,1.6,1.961,2.929,2.505,1.441.545,1.659,2.4,1.857,3.376a10.934,10.934,0,0,1,.609,4.14A13.922,13.922,0,0,1,219.776,21.583Zm-11.033-9.477c-.192-1.307-.884-1.2-1.486-1.961a10.244,10.244,0,0,0-2.076-1.525,5.6,5.6,0,0,0-2.7-.98A18.893,18.893,0,0,1,199.4,7.1c-1.012-.218-2.723,0-3.626-.218A10.292,10.292,0,0,0,191.3,7.2a19.821,19.821,0,0,0-3.255,1.2c-1.467.763-1.48,1.416-2.371,2.4a7.948,7.948,0,0,0-1.827,4.248c-.18,1.743-1.269,3.594-1.961,5.556-.846,2.4-1.455,3.812-2,5.664-.577,1.634-1.507,4.574-2.077,5.882-.577,1.634-.519,2.4.48,3.268a12.678,12.678,0,0,0,2.435,1.743,12.384,12.384,0,0,0,5.664,0c1.057-.219,2.422.544,3.562-.219.737-.544,2.333-.435,3.466-.871a18.857,18.857,0,0,0,3.294-1.307c1.25-.763,2.019-1.089,3.011-1.743a17.372,17.372,0,0,0,2.768-2.287c.526-.872,1.411-1.525,2.378-2.723l1.839-3.05c1.045-1.416.84-2.07,1.6-3.6.417-.871.635-2.723.981-3.7.23-.653-.1-2.5.1-3.049C209.955,13.3,208.942,13.087,208.744,12.106Zm-66.149,8.932a5.986,5.986,0,0,1-3.947,1.306c-2.031-.108-.749-2.5-1.6-3.812-.532-.653-1.153-2.288-1.647-3.05-.518-1.306-1.826-1.306-1.838-2.505-.09-.98-1.025-1.416-1.993-2.069l-2.512-1.525a14.26,14.26,0,0,0-3.171-1.2,8.066,8.066,0,0,0-3.8-.654c-1.019.109-3.044-.326-4.5-.218-1.89.109-3.082-.218-4.178.109s-2.216.108-3.428.763a8.214,8.214,0,0,0-2.582,2.069,20.647,20.647,0,0,0-1.891,3.813c-1.128,1.961-1.128,3.813-2.037,5.773a17.968,17.968,0,0,0-2.076,5.882c-.629,2.4-1.5,4.248-2.154,6.1a8.424,8.424,0,0,0-.756,3.376c-.32,1.525-.436,1.852.435,1.852,1.307,0,3.242-.545,4.832-.109.9.219,2.659-.435,3.748-.435.872,0,2.083-.653,3.063-.653a3.7,3.7,0,0,0,2.492-1.2c1.442-1.307,3.088-1.961,4.21-3.6a11.421,11.421,0,0,0,2.088-2.832c.384-1.09.391-3.268,2.288-3.7,1.057-.218,2.6-.872,3.6,0,1.069.98-.885,2.505-1.237,3.812-.18,1.743-1.352,2.288-1.237,3.813.057.763-1.077,3.049-1.307,3.7l-1.269,3.594c-.359,1.634-1.294,3.05-1.345,3.813a10.018,10.018,0,0,1-1.307,3.7,18.82,18.82,0,0,0-1.455,3.812,13.307,13.307,0,0,1-1.455,3.813c-.782.98-3.467.871-3.633.109a5.955,5.955,0,0,1,.512-3.922,4.781,4.781,0,0,0-.012-3.049l-.539-2.178a1.815,1.815,0,0,0-.986-1.525,10.248,10.248,0,0,1-1.865-1.2,7.012,7.012,0,0,0-2.492-.654,24.779,24.779,0,0,1-3.37-.326,8.569,8.569,0,0,0-4.209-.109,3.508,3.508,0,0,0-2.4,1.852c-.308.871-1.275,2.069-1.851,3.7-.5,1.416-.84,2.069-1.154,3.267a19.472,19.472,0,0,1-1.153,3.268c-.507,1.743-1.423,4.031-2.23,6.318-.769,2.178-1.794,4.465-2.192,6.208S86.014,69.619,86,70.273a3.642,3.642,0,0,0,.647,2.178c.353.545.9.545,2.307.871a13.645,13.645,0,0,0,3.953.218c2.185-.326,3.633-.108,5.235-.326a20.65,20.65,0,0,0,4.736-.763,35.084,35.084,0,0,0,4.6-1.307c1.647-.653,2.564-1.09,4.248-1.851a39.736,39.736,0,0,1,4.075-2.288c1.172-.545,2.249-1.743,4.158-2.832,1.172-.545,1.294-1.2,2.1-1.634s.641-1.2,2.249-1.743a5.071,5.071,0,0,0,2.326-1.961,4.645,4.645,0,0,1,2.435-1.961,1.72,1.72,0,0,1,2.55,1.416,3.211,3.211,0,0,1-1.647,2.505c-1.025.436-1.384,2.07-1.865,2.505a6.537,6.537,0,0,0-1.755,2.505,17.435,17.435,0,0,1-1.756,2.5,24.542,24.542,0,0,1-3.543,4.793c-.929,1.09-.9,1.634-1.756,2.505-.814.763-1.237,1.961-1.827,2.4s-2.575-.108-3.486,0a12.627,12.627,0,0,1-3.415.109c-.724-.109-2.216.108-3.376,0a16.548,16.548,0,0,0-3.376,0,9.225,9.225,0,0,1-3.486,0c-1.486-.109-2.326.108-3.376,0a18.183,18.183,0,0,1-3.486,0c-.974-.327-2.07,0-3.377,0-1.345.108-1.961,0-3.376,0H83.233a32.023,32.023,0,0,1-3.268,0,8.865,8.865,0,0,0-3.338-.109c-1.532.327-2.1-.218-3.454.218a11.758,11.758,0,0,1-3.6.327H66.086a9.053,9.053,0,0,1-3.363-.653c-1.731-.654-1.865-1.2-1.666-2.07.269-.763,1.333-1.307,3.166-2.178a16.439,16.439,0,0,1,3.537-.763,11.08,11.08,0,0,1,2.549-.435,4.889,4.889,0,0,0,3.364-1.2l2.013-2.615c.749-1.2.814-2.614,1.493-3.921.756-1.525,1.237-3.813,2.154-6.1a45.143,45.143,0,0,0,2.153-6.1,27.3,27.3,0,0,1,2.154-6.1,45.293,45.293,0,0,0,2.153-6.1c.615-1.743,1.82-3.921,2.154-6.1.429-1.524,1.378-3.594,2.153-6.1.654-1.851.949-3.921,2.154-6.1,1.051-1.743,1.128-3.813,2.115-5.991A14.824,14.824,0,0,0,95.68,12L95.66,9.274c.051-.763-.808-1.416-1.71-1.634-1.378-.109-2.505,0-4.248,0-2.288,0-3.319-1.09-3.043-2.178.429-1.525,1.275-2.07,2.7-2.723,1.172-.545,2.217-.109,3.415-.109,1.672-.108,2.172.327,3.376,0a17.472,17.472,0,0,1,3.377,0h3.376a63.266,63.266,0,0,1,6.427,0c1.416,0,2.063.327,3.268,0a17.487,17.487,0,0,1,3.376,0,31.939,31.939,0,0,0,3.268,0,10.835,10.835,0,0,0,3.268,0c1.6-.218,1.589.435,3.376,0a31.944,31.944,0,0,1,3.268,0c.98,0,1.73.654,3.376,0a3.8,3.8,0,0,1,3.268,0c.647.327,2.761-.108,3.376,0,1.339.218,2.223-.435,3.229.109,1.256.763.115,3.376.167,4.466.045,1.416-.353,3.159.019,4.574a13.893,13.893,0,0,1,.018,4.575C142.4,17.88,143.965,19.622,142.594,21.038Zm-78.73.108c-.718,1.417-2.761,1.961-3.851,1.961-1.416,0-.545-1.851-1.172-3.159L57.521,16.9c-.48-1.417-1.2-1.525-1.506-2.832a4.12,4.12,0,0,0-1.768-2.4c-1.114-.545-1.1-1.525-2.281-2.179a20.8,20.8,0,0,1-2.8-1.634,4.245,4.245,0,0,0-3.1-1.09c-1.307,0-2.492-.653-3.55-.435a44.99,44.99,0,0,1-5.356.98c-1.237.109-1.614.872-2.454,1.09a5.376,5.376,0,0,0-2.39,1.525c-.737.545-1.07.871-2.178,1.851-.961.872-1.115,1.307-1.929,2.07-1.813,1.743-2.133,3.268-2.749,5.011-.5,1.416-1.307,1.851-.6,2.941.353.544-.147,1.961.1,2.505.449,1.2.327,1.851.647,2.178.821.763.551,1.525,1.269,1.961a15.952,15.952,0,0,1,1.749,1.525,5.791,5.791,0,0,0,2.044,1.306c.974.327,1.217.872,2.377.98.725.109,1.692.763,2.564.763,1.2,0,2.338,1.09,3.645,1.09,1.416,0,1.948.653,3.249.98,1.371.435,2.351.435,3.319,1.089.608.436,2.121,1.09,2.839,1.525,1.076.654,2.518,1.2,2.537,2.07s1.185.653,1.275,1.634c.16,1.09.775,1.2,1.089,1.852.525.98.4,1.634.725,1.961.82.763.518,1.307.428,2.178-.071,1.743-.173,3.268-.128,4.684a12.327,12.327,0,0,1-1.186,4.9A47.032,47.032,0,0,1,51.38,61.45a15.777,15.777,0,0,1-2.7,4.248c-.89.98-2.377,2.723-3.415,3.813C43.9,70.926,42.538,71.689,41.313,73c-1.038,1.089-3.235,2.069-4.229,2.723-1.947,1.2-3.223,1.416-4.582,2.178-1.4.871-3.069.98-4.748,1.416a23.578,23.578,0,0,1-4.619.435,34.552,34.552,0,0,0-4.312-.435c-1.307,0-2.557-1.09-3.819-1.525-1.551-.545-2.48-1.307-2.986-1.416-.794-.218-1.294-.653-2.351-.436a8.694,8.694,0,0,0-3.762,1.089c-2.243,1.416-3.242,2.4-4.768,2.4-.762,0,.064-1.417.013-2.505a22.929,22.929,0,0,0-.1-2.505,13.945,13.945,0,0,1-.1-2.505c-.019-.872.3-2.07.013-2.505C.512,68.856.794,67.441.986,66.9a3.9,3.9,0,0,0-.1-2.505,3.715,3.715,0,0,1,.051-2.614c.16-.763-.4-1.961.051-2.615.488-.762,2.442-2.287,3.845-1.634,1.224.545,1.121,2.07,1.423,3.376.269,1.09,1.23,2.07,1.647,3.05.628,1.307,1.486,1.961,1.9,2.941,1.025,1.416,1.6,1.634,2.274,2.505.635.98,1.5,1.307,2.717,2.178a10.811,10.811,0,0,0,3.088,1.743l3.537,1.09c1.441.545,2.281.326,3.806.326a13.939,13.939,0,0,0,3.018-.218c.84-.218,2.109-.108,2.922-.871a12.186,12.186,0,0,1,2.819-1.2,7.7,7.7,0,0,0,2.684-1.743c1.109-.98,2.057-1.2,2.435-1.961.6-1.09,1.372-1.417,2.154-2.4a20.361,20.361,0,0,0,1.685-2.614c.6-1.09.84-2.07,1.256-2.941.872-1.852.673-2.832,1-4.684.314-1.2-.461-2.4-.622-3.486A4,4,0,0,0,42.821,49.9a21.778,21.778,0,0,0-2.864-2.07A10.1,10.1,0,0,0,36.5,46.2c-1.013-.218-2.7-.98-3.787-1.307-1.371-.435-3.114-.435-3.825-1.2-.6-.763-2.454-.763-3.678-1.307a17.255,17.255,0,0,1-2.768-1.416c-.428-.327-2.088-.871-2.473-1.634-.346-.872-.993-1.2-1.922-1.961a5.489,5.489,0,0,1-1.48-2.288,3.513,3.513,0,0,1-.929-2.615c-.012-1.2-.724-1.961-.23-3.049.422-1.2-.109-1.852.282-3.268a20.039,20.039,0,0,1,1.019-3.813,17.465,17.465,0,0,1,1.858-4.03c1.006-1.307,1.544-2.832,2.543-3.813a18.351,18.351,0,0,1,3.121-3.594A31.2,31.2,0,0,0,27.746,7.75,10.242,10.242,0,0,1,31.61,5.135a24.16,24.16,0,0,1,4.217-2.07,26.087,26.087,0,0,1,4.235-1.2c1.2,0,2.518-.653,4.223-.544,1.307,0,2.749.544,3.549.435,1.276-.218,2.089.871,2.922.98.724.108,1.365.763,2.7.98a12.718,12.718,0,0,0,2.825.327,17.233,17.233,0,0,0,3.684-.872c1.346-.109,2.807-2.4,3.915-1.525.788.545-.5,1.416.026,2.4a3.4,3.4,0,0,1,.026,2.4c-.339.653.039,1.743.026,2.4a6.692,6.692,0,0,0,.026,2.4,5.7,5.7,0,0,1,.026,2.4c-.2.871.179,1.961-.013,2.505C63.493,17.88,64.729,19.622,63.864,21.147Z" transform="translate(-0.68 -0.936)" fill="#131a22" fill-rule="evenodd"/>
</svg>
