<svg xmlns="http://www.w3.org/2000/svg" width="530.287" height="80.884" viewBox="0 0 530.287 80.884">
  <path id="pass_outline" d="M530.043,11.069a14.211,14.211,0,0,1,.019,4.688c-.217,1.563,1.386,3.348-.02,4.8A6.133,6.133,0,0,1,526,21.9c-2.081-.111-.768-2.566-1.635-3.906-.545-.669-1.182-2.344-1.687-3.125-.532-1.339-1.872-1.339-1.884-2.567-.092-1-1.05-1.451-2.042-2.12l-2.574-1.563a14.634,14.634,0,0,0-3.25-1.228,8.263,8.263,0,0,0-3.893-.67c-1.044.112-3.118-.334-4.609-.223-1.937.112-3.158-.223-4.281.112s-2.272.111-3.513.781a8.427,8.427,0,0,0-2.646,2.12,21.155,21.155,0,0,0-1.937,3.907c-1.156,2.009-1.156,3.907-2.088,5.916a18.432,18.432,0,0,0-2.127,6.027c-.644,2.455-1.537,4.353-2.207,6.25a8.631,8.631,0,0,0-.775,3.46c-.328,1.563-.446,1.9.447,1.9,1.339,0,3.322-.558,4.95-.112.926.224,2.724-.446,3.841-.446.892,0,2.134-.669,3.138-.669a3.791,3.791,0,0,0,2.554-1.228c1.478-1.34,3.165-2.009,4.314-3.684a11.678,11.678,0,0,0,2.14-2.9c.395-1.117.4-3.349,2.344-3.795,1.084-.223,2.659-.893,3.684,0,1.1,1-.906,2.567-1.267,3.906-.184,1.786-1.386,2.344-1.267,3.907.059.781-1.1,3.125-1.34,3.795l-1.3,3.683c-.369,1.675-1.327,3.125-1.379,3.907a10.265,10.265,0,0,1-1.34,3.795,19.285,19.285,0,0,0-1.49,3.906,13.61,13.61,0,0,1-1.491,3.907c-.8,1-3.552.892-3.723.112a6.1,6.1,0,0,1,.526-4.019c.512-1.451.151-2.009-.014-3.125l-.551-2.232a1.861,1.861,0,0,0-1.011-1.563,10.468,10.468,0,0,1-1.911-1.228,7.194,7.194,0,0,0-2.555-.67,25.39,25.39,0,0,1-3.453-.334,8.78,8.78,0,0,0-4.313-.112,3.59,3.59,0,0,0-2.455,1.9c-.315.892-1.307,2.12-1.9,3.795-.512,1.451-.86,2.12-1.182,3.348a19.873,19.873,0,0,1-1.182,3.349c-.518,1.786-1.458,4.13-2.285,6.474-.788,2.232-1.838,4.575-2.246,6.361s-1.07,3.349-1.083,4.019a3.72,3.72,0,0,0,.663,2.232c.361.558.919.558,2.363.892a13.985,13.985,0,0,0,4.051.223c2.238-.334,3.723-.111,5.364-.334a21.16,21.16,0,0,0,4.852-.781,36,36,0,0,0,4.714-1.34c1.687-.669,2.626-1.117,4.353-1.9a40.8,40.8,0,0,1,4.175-2.344c1.2-.558,2.3-1.786,4.261-2.9,1.2-.558,1.327-1.228,2.154-1.674s.656-1.228,2.3-1.786a5.19,5.19,0,0,0,2.383-2.009,4.76,4.76,0,0,1,2.495-2.009,1.762,1.762,0,0,1,2.613,1.451,3.288,3.288,0,0,1-1.687,2.567c-1.051.446-1.418,2.121-1.911,2.567a6.7,6.7,0,0,0-1.8,2.567A17.862,17.862,0,0,1,511.6,69a25.11,25.11,0,0,1-3.63,4.911c-.952,1.117-.926,1.674-1.8,2.567-.834.781-1.267,2.009-1.871,2.455s-2.64-.111-3.572,0a12.938,12.938,0,0,1-3.5.112c-.743-.112-2.272.111-3.461,0a16.957,16.957,0,0,0-3.46,0,9.452,9.452,0,0,1-3.572,0c-1.523-.112-2.383.111-3.46,0a18.631,18.631,0,0,1-3.572,0c-1-.335-2.121,0-3.46,0-1.379.111-2.009,0-3.461,0h-3.572a32.794,32.794,0,0,1-3.348,0,9.089,9.089,0,0,0-3.421-.112c-1.569.335-2.154-.223-3.539.223a12.043,12.043,0,0,1-3.689.335h-3.572a9.278,9.278,0,0,1-3.447-.669c-1.772-.67-1.911-1.228-1.707-2.121.276-.781,1.366-1.34,3.244-2.232a16.869,16.869,0,0,1,3.624-.781,11.362,11.362,0,0,1,2.613-.446,5.013,5.013,0,0,0,3.447-1.228l2.061-2.679c.768-1.228.834-2.678,1.53-4.018.774-1.563,1.267-3.907,2.206-6.25a46.243,46.243,0,0,0,2.207-6.251c.715-2.343,1.011-4.129,2.206-6.25,1.084-2.121,1.34-3.795,2.207-6.25.63-1.786,1.864-4.018,2.206-6.251.44-1.562,1.412-3.683,2.207-6.25.669-1.9.971-4.018,2.206-6.25,1.077-1.786,1.155-3.907,2.167-6.139a15.19,15.19,0,0,0,1.346-4.13l-.02-2.79c.053-.781-.827-1.451-1.752-1.674-1.412-.112-2.567,0-4.353,0-2.344,0-3.4-1.117-3.118-2.232.44-1.563,1.306-2.121,2.77-2.79,1.2-.558,2.272-.112,3.5-.112,1.714-.111,2.226.335,3.461,0a17.894,17.894,0,0,1,3.46,0h3.46a64.827,64.827,0,0,1,6.585,0c1.451,0,2.115.335,3.349,0a17.919,17.919,0,0,1,3.46,0,32.725,32.725,0,0,0,3.349,0,11.1,11.1,0,0,0,3.349,0c1.641-.223,1.628.446,3.46,0a32.733,32.733,0,0,1,3.349,0c1,0,1.772.67,3.46,0a3.9,3.9,0,0,1,3.349,0c.663.335,2.83-.111,3.46,0,1.372.223,2.279-.446,3.31.112,1.286.781.117,3.46.17,4.576C530.069,7.833,529.662,9.619,530.043,11.069ZM454.337,7.274c-1.162.446-1.878.893-2.889,1.228a13.181,13.181,0,0,0-3.854,3.013c-1.406,1.452-1.727,2.679-2.686,4.13a8.5,8.5,0,0,0-1.8,4.465c.013,1.228-.526,2.12-1.34,3.795-1.038,1.674-.6,2.009-1.3,3.683-.743,1.786-1.024,2.9-1.34,3.795s-1.215,3.125-1.34,3.795c-.217,1.563-.939,2.344-1.34,3.795-.257,1.674-1.458,2.232-1.34,3.795.059.781-1.064,3.013-1.3,3.684l-1.34,3.795c-.369,1.674-1.327,3.125-1.34,3.795a8.566,8.566,0,0,1-1.34,3.795,26.817,26.817,0,0,0-1.379,3.906c-.282,1.117-1.1,2.79-1.491,3.907l-.749,4.018c-.394,1.116-.145,3.572-.5,4.576-.63,1.786-.729,3.013-1.2,4.018a5.343,5.343,0,0,1-2.988,2.455c-.676.335-1.864.223-2.074-.446-.538-1-1.018-1.228-.958-2.344a18.378,18.378,0,0,0-.388-3.013c-.276-1.116-.748-1.674-.545-2.567s-.611-1.116-.814-2.12c-.164-1.117-.578-.893-.893-1.9a4.015,4.015,0,0,1-.742-2.009c-.046-1.451-.262-1.786-.814-2.121-.512-.446-.46-1.228-.854-2.009-.5-.781-.985-1-.814-2.12a4.3,4.3,0,0,0-.814-2.121,3.231,3.231,0,0,1-.742-2.009c.171-1.117-.086-1.34-.814-2.121-.4-.446-.939-1.451-.742-2.009.315-.892-.2-1.339-.7-2.12a4.483,4.483,0,0,1-.742-2.009c-.283-.781-.906-1.228-.814-2.121.131-1-.309-1.34-.743-2.009-.649-1-.977-3.237-1.4-4.241-.21-.67.066-1.452-.742-2.009-.623-.447-.348-1.229-.63-2.009l-.7-2.121a20.091,20.091,0,0,0-.742-2.009c-.394-.781-.151-1.786-.7-2.121-.735-.446-.637-1.674-.774-2.232-.086-1.34-.04-1.786-.769-2.567a9.912,9.912,0,0,1-1.057-3.013c-.125-1.228-1.05-1.451-2.173-1.116-.709.111-2.009,1.9-2.489,3.571-.361,1.34-1.51,3.014-1.5,4.242-.059,1.116-1.135,2.9-1.3,3.683-.6,2.009-1.687,4.464-2.127,6.027a62.1,62.1,0,0,1-2.089,5.916c-.709,2.009-1.346,4.13-2.049,5.8l-2.049,5.8a57.724,57.724,0,0,0-2.009,5.693,24.627,24.627,0,0,0-1.353,4.464c-.249,1.34-.985,2.79-.532,4.353.243.892.04,1.786.946,3.013s2.4.781,3.65,1.674a2.51,2.51,0,0,1,1.365,2.456,3.055,3.055,0,0,1-.453,2.232c-.854,1.786-4.576,0-6.513.111a57.631,57.631,0,0,1-6.251,0H365.9c-2.154-.223-5.47,1.9-6.434-.111-.571-1.228.7-3.572,1.537-4.353,1.135-1,2.83-.112,3.624-.781s1.76-.558,3-1.228c2.146-1.34,3.052-2.009,3.742-3.013,1.069-1.451,2.363-2.9,2.724-4.241.243-1,1.471-2.9,1.839-4.576.145-1.675,1.864-4.018,2.166-6.139.441-1.563,1.452-3.795,2.207-6.25.669-1.9,1.011-4.13,2.206-6.251,1.117-1.9,1.2-4.018,2.246-6.362a23.272,23.272,0,0,0,2.207-6.25c.3-1.786,1.49-3.907,2.206-6.25,1.012-2.232,1.189-3.684,2.207-6.251,1.044-2.009,2.167-4.241,2.246-6.361.059-1.117-.827-1.452-1.457-1.563s-1-.335-1.91-1.228c-.434-.67-1.406-.447-2.4-.781-1.07-.447-2.829.111-2.855-.447-.086-1.339.486-3.906,1.655-4.687,1.772-1.228,3.086.111,4.615-.112,1.9-.334,3.381.223,4.465,0a9.932,9.932,0,0,1,4.464,0c1.037.223,3.552-.892,4.353,0,.873,1,.518,2.009,1.266,3.684.5,1.116.663,2.232,1.2,3.572l1.306,3.572a26.5,26.5,0,0,1,1.2,3.572c.276,1.116,1,2.232,1.306,3.571l1.266,3.684c.453,1.563.992,2.567,1.307,3.572a23.268,23.268,0,0,0,1.155,3.683,6.819,6.819,0,0,1,1.306,3.572,9.1,9.1,0,0,0,1.306,3.572c.715,1.451.433,2.567,1.266,3.683a8.046,8.046,0,0,1,1.2,3.572,16,16,0,0,0,1.34,3.795,7.41,7.41,0,0,1,.774,2.233c.171.78,1.162,1.451.952,2.678-.171,1.117.866,1.34,1.615,1.117a3.826,3.826,0,0,0,2.443-3.125c.171-1.117,1.28-2.679,1.3-3.684.059-1.116.558-1.9.251-3.013,1.817-1.9,2.041-3.795,2.665-5.246.433-1.228.991-3.125,1.772-5.022a28.522,28.522,0,0,0,1.733-4.911c.6-2.009.736-3.348,1.773-5.022.926-1.674.466-2.9,1.733-4.91a24.661,24.661,0,0,0,1.353-4.465c.44-1.563.2-2.79.565-4.13a3.792,3.792,0,0,0-1.1-2.9,5.959,5.959,0,0,0-3.65-1.674c-1.706-.224-1.234-1.563-1.4-2.679-.019-.892-.531-1.34.453-2.232,2.383-2.009,4.392-.112,6.513-.112,1.674,0,4.058-.111,6.362,0h6.139c2.415.112,5.758-1.451,6.433.112s-1.1,3.125-1.537,4.353C457.64,7.721,455.086,7.051,454.337,7.274Zm-89.61-.558A14.988,14.988,0,0,0,361.084,8.5a8.89,8.89,0,0,0-2.061,2.679c-.611.781-.861,2.12-1.53,4.018-.63,1.786-2.213,4.687-2.207,6.25-.183,1.786-1.543,4.688-2.206,6.251-1.051,2.343-1.5,4.241-2.207,6.25l-2.206,6.25-2.206,6.251c-.946,2.678-1.57,4.129-2.207,6.25a46.119,46.119,0,0,0-2.206,6.25c-.677,2.232-1.681,4.13-2.167,6.139a19.619,19.619,0,0,1-1.307,4.018,2.668,2.668,0,0,0-.02,2.9c.322.669.788,1.562,1.753,1.674,1.372.223,2.534-.223,4.044.558,1.142.558,2.363.892,1.786,1.9a3.209,3.209,0,0,1-.9,2.232c-1.287,1.117-3.2.224-4.025.335-1.155.112-2.751-.111-3.946.112-1.5.446-2.64-.112-3.906,0a14.4,14.4,0,0,1-3.795,0,13.673,13.673,0,0,0-3.762.223c-.893,0-3.132.334-3.913.334-1.674,0-2.081-.111-3.795,0a7.8,7.8,0,0,1-3.742-.78c-1.142-.558-1.5-1.117-1.109-2.233.237-.669.775-1.562,2.607-2.009a18.743,18.743,0,0,1,3.624-.781,6.438,6.438,0,0,0,2.612-.446,12.025,12.025,0,0,0,3.447-1.228c1.281-.781,1.34-1.9,2.1-2.79a25.921,25.921,0,0,0,1.53-4.018c.677-2.232,1.5-4.241,2.167-6.139.709-2.009,1.451-3.795,2.206-6.25.6-2.009,1.832-4.241,2.207-6.25a27.783,27.783,0,0,1,2.206-6.251c.893-1.9,1.379-3.906,2.207-6.25a46.425,46.425,0,0,1,2.206-6.25,34.877,34.877,0,0,0,2.207-6.251l2.206-6.25,1.307-4.018a7.807,7.807,0,0,0-.02-2.79c-.315-1-.38-1.451-1.752-1.675a35.6,35.6,0,0,0-4.235-.334,2.723,2.723,0,0,1-2.863-2.009c-.059-.781.893-1.9,2.4-2.679.677-.334,2.83-.111,3.946-.111,1.34,0,2.186.446,3.795,0,.9-.335,2.528.111,3.835-.112a7.816,7.816,0,0,1,3.644.112,23.128,23.128,0,0,0,3.834-.112,20.4,20.4,0,0,0,3.867.112,15.238,15.238,0,0,1,3.907,0c1.116,0,2.987-.558,3.972.446,1.313,1.34.2,2.9-1.6,3.906C368.7,7.163,366.75,6.047,364.728,6.716ZM307.253,61.184c.379,1.228-.454,2.009-1.025,2.679-.762.892-1.038,1.674-1.76,2.455-.874.893-.624,1.451-1.76,2.455a23.184,23.184,0,0,0-3.559,5.023,21.237,21.237,0,0,1-1.76,2.455c-.8,1-.715,2.344-1.76,2.455s-2.718.112-3.5.112H281.973a11.186,11.186,0,0,1-3.349,0,16.73,16.73,0,0,0-3.348,0,11.22,11.22,0,0,1-3.349,0c-.7-.223-2.088.223-3.349,0a10.782,10.782,0,0,0-3.349,0c-1.68.334-2.265-.223-3.46,0a21.026,21.026,0,0,1-6.474,0,7.407,7.407,0,0,0-3.538.223c-1.274.446-2.213.892-3.578.334-.775-.334-2.2.224-3.349,0a15.324,15.324,0,0,1-3.3-.78c-.991-.67-1.089-3.238,1.5-4.242a9.115,9.115,0,0,1,3.663-.892,5.382,5.382,0,0,0,2.574-.335,21.785,21.785,0,0,0,3.446-1.228c.861-.223,1.826-2.009,2.1-2.79.2-.558.9-2.232,1.53-4.018.788-2.232,1.563-3.795,2.167-6.139.407-1.786,1.569-4.13,2.207-6.25.557-1.9,1.575-4.465,2.206-6.25.788-2.233,1.425-4.353,2.246-6.362.624-1.452,1.458-4.13,2.207-6.251.551-1.563,1.306-4.018,2.206-6.25.63-1.786,1.235-4.13,2.207-6.25.676-2.233,1.943-4.242,2.166-6.139a29.527,29.527,0,0,0,1.307-4.018c.171-1.117-.256-2.121.02-2.9.322-1.228-1.208-1-1.792-1.563-.617-.781-2.941.112-4.5-.223-1.444-.334-2.363-.892-2.265-2.12-.092-1,1.352-2.567,1.989-2.79,1.274-.447,2.567,0,3.907,0,1.451,0,3.052-.112,3.946-.112a14.279,14.279,0,0,0,3.795,0c1.346-.335,2.344,0,3.683,0a21.265,21.265,0,0,1,3.795,0c1.189.112,2.312-.223,3.907,0,.854.112,2.383-.111,3.755.112,1.484.223,3.592-1,3.979.111a4.253,4.253,0,0,1-1.5,4.241c-1.851,1.452-4.1.224-6.079.781A23.536,23.536,0,0,0,288.267,8.5a3.827,3.827,0,0,0-2.061,2.679c-.315.892-.9,2.232-1.53,4.018l-2.127,6.027c-.67,1.9-1.727,4.576-2.167,6.139-.414,2.12-1.721,4.241-2.167,6.139-.518,1.786-1.687,4.464-2.167,6.138-.683,2.567-1.458,4.13-2.167,6.139-.748,2.121-1.464,4.465-2.166,6.139l-2.128,6.027a33.6,33.6,0,0,0-2.167,6.139c-.223,1.9-1.674,3.795-1.621,4.91a29.017,29.017,0,0,0-.132,2.9c.06.781,1.313,1.34,2.055,1.451,1.372.223,3.342.335,4.865.447a26.516,26.516,0,0,0,6.48-.335c2.16-.112,4.077-1.117,5.607-1.34a8.026,8.026,0,0,0,2.849-1.116,14.208,14.208,0,0,1,2.705-1.34c.9-.335,1.891-1.563,2.974-1.786.709-.112,1.858-1.786,3.2-2.121a6.838,6.838,0,0,0,2.83-2.009,9.168,9.168,0,0,1,2.607-2.009,10.559,10.559,0,0,0,2.574-2.232,12.405,12.405,0,0,1,2.613-2.344c1.392-.781,2.967.446,2.724,1.451C309.589,59.4,308.341,60.4,307.253,61.184ZM249.562,10.846a23.685,23.685,0,0,1-.244,4.8c-.217,1.563.2,3.237-.282,4.911-.315.892-2.6,1.674-4.387,1.674-1,0-.814-2.12-1.057-3.013l-1.135-2.79a15.987,15.987,0,0,0-1.286-2.678,28.763,28.763,0,0,0-1.549-2.567c-.69-.893-1.76-1.34-1.97-2.009-.177-.447-1.766-1-2.311-1.675-.506-.781-1.438-.669-2.771-1l-3.415-.446a8.02,8.02,0,0,0-4.333.893c-1.32.892-1.563,1.9-2.121,3.795-.591,1.674-.834,2.678-1.182,3.348l-1.182,3.349a14.135,14.135,0,0,0-1.222,3.46c-.433,1.229-.82,2.01-1.182,3.349-.2.893-.788,2.232-1.221,3.461s-.755,2.455-1.182,3.348l-1.221,3.461a19.969,19.969,0,0,0-1.182,3.348c-.243,1-.827,2.344-1.221,3.461-.4,1.451-.932,2.009-1.182,3.349a21.2,21.2,0,0,1-1.221,3.46l-1.182,3.349-1.182,3.348c-.623,1.452-.985,2.79-1.221,3.461a19.7,19.7,0,0,0-1.182,3.349,19.849,19.849,0,0,1-1.182,3.348,26.538,26.538,0,0,0-1.346,4.13,2.884,2.884,0,0,0,.131,2.79c.177.446.191,1.674,1.753,1.674s2.1,1,4.044.558c1.044-.111,1.878-.892,2.974.112s-.4,5.246-2.147,5.134a21.527,21.527,0,0,0-3.755-.111c-1.49.111-3.355.335-4.018,0a15.331,15.331,0,0,0-3.9-.335c-1.563,0-2.778-.669-4.051-.223-1.5.446-3.053.112-3.873.223-1.2.223-2.79,0-4.136.335-1.5.446-2.79,0-4.018,0-1.117,0-2.134.669-3.8.335-1.891-.335-.177-4.242,1.556-5.358,1.471-1,1.937-.112,3.579-.335a9.615,9.615,0,0,0,7-2.121c.873-.892.846-1.451,1.877-2.79a25.356,25.356,0,0,0,1.53-4.018c.552-1.562,1-1.9,1.182-3.348a19.7,19.7,0,0,1,1.182-3.349c.472-1.34,1.241-2.567,1.221-3.461.092-.892,1.163-2.343,1.182-3.348a6.709,6.709,0,0,1,1.182-3.349c.624-1.451.381-2.344,1.221-3.46.808-1.34.558-1.9,1.182-3.349l1.221-3.461c.354-1,.742-1.786,1.182-3.348a10.446,10.446,0,0,0,1.221-3.461A10.023,10.023,0,0,1,206.11,27.7c.689-1,.748-2.121,1.221-3.461.512-1.451,1.083-2.12,1.182-3.349.106-1.562.827-2.343,1.221-3.46l1.182-3.349a13.333,13.333,0,0,1,1.182-3.348c.657-1.229,1.221-3.461.631-3.684a25.121,25.121,0,0,0-3.44-1,9.92,9.92,0,0,0-3.73.446c-.748.223-1.72.447-3.591,1A16.481,16.481,0,0,0,198.4,9.06a38.433,38.433,0,0,0-3.316,2.121,23.146,23.146,0,0,0-3.434,2.455,22.031,22.031,0,0,0-3.29,2.679c-.571.669-2.226,1.562-3.256,2.9a10.569,10.569,0,0,1-3.184,3.013c-.939.446-3.453-.335-3.02-1.563.512-1.451,2.337-3.46,3.073-4.91s2.449-3.461,3.144-4.8a53.031,53.031,0,0,1,3.145-4.8c1-1.563,1.641-4.019,3.106-4.688.788-.335,2.266.223,3.684,0a22.078,22.078,0,0,1,3.723-.111,20.3,20.3,0,0,0,3.683,0c1.53-.224,2.725-.447,3.572,0,.624.446,2.724-.447,3.684,0a4.612,4.612,0,0,0,3.683,0,18.832,18.832,0,0,1,3.572,0,17.55,17.55,0,0,1,3.532.111c1.484.223,2.049-.111,3.835-.111,1.674,0,1.923.557,3.683,0,.9-.335,2.456,0,3.684,0h3.683c1.34,0,2.607-.112,3.684,0s2.009,0,3.572,0c1.339,0,2.041.223,3.643.111,1.084-.223,2.876-.558,3.684,0,1.175.781.125,3.125-.2,4.688A8.092,8.092,0,0,0,249.562,10.846Zm-80.51-3.46a18.055,18.055,0,0,0-2.778,1.228,10.567,10.567,0,0,0-3.966,3.013,46.2,46.2,0,0,0-2.869,4.018A18.79,18.79,0,0,0,157.68,20a22.673,22.673,0,0,1-1.26,3.572,24.157,24.157,0,0,0-1.3,3.683,11.256,11.256,0,0,1-1.26,3.572,23.994,23.994,0,0,0-1.3,3.684,23.878,23.878,0,0,1-1.3,3.683c-1.037,1.675-.6,2.009-1.3,3.684s-.946,2.678-1.261,3.571l-1.3,3.684c-.283,1.117-1.786,3.795-1.885,5.022-.026,1.34-1.6,3.907-2.258,5.134-1.307,2.12-1.747,3.683-2.705,5.134A29.484,29.484,0,0,1,137,69.109c-.572.669-2.023,2.567-2.961,3.013-1.918,1-2.272,2.009-3.25,2.567-.867.558-2.712,1.674-3.539,2.121a19.3,19.3,0,0,1-3.565,1.562,16.069,16.069,0,0,0-3.558,1.229c-1.352.669-2.18,1.116-3.736.781-.814-.224-2.429.557-3.618.446a25.836,25.836,0,0,0-3.538.223,32.971,32.971,0,0,1-5.647-.446c-1.628-.447-3.893-.67-4.812-1.229a23.216,23.216,0,0,1-3.979-2.009c-1.1-1-1.451-1.9-2.921-2.79a3.5,3.5,0,0,1-2.015-3.46A2.337,2.337,0,0,0,89.377,69a3.5,3.5,0,0,1-.329-2.232c.368-1.674-.42-3.237.361-5.134.663-1.563.48-3.572,1.491-5.8l1.812-5.134a9.765,9.765,0,0,0,1.537-4.353c.1-1.563.985-2.79,1.537-4.353a22.407,22.407,0,0,1,1.537-4.353A35.5,35.5,0,0,0,98.9,33.169c.249-1.34,1.431-2.79,1.537-4.353.131-1,1.017-2.567,1.537-4.353a33.413,33.413,0,0,0,1.537-4.352,16.9,16.9,0,0,1,1.537-4.353,9.757,9.757,0,0,0,1.457-4.13c-.019-.892.67-1.9-.019-2.79a4.218,4.218,0,0,1-1.753-1.674c-.617-.781-2.37-.558-4.044-.558-.892,0-2.889-.67-2.495-1.786.434-1.228.827-2.344,2.1-2.79,1.425-.558,1.9,0,3.572,0h3.907c1.378-.112,2.9.335,3.906,0a21.364,21.364,0,0,1,3.795,0,13.428,13.428,0,0,0,3.762-.223c1.681-.335,2.863.111,3.873-.223a5.475,5.475,0,0,1,3.795,0c1,.334,3.027-.67,4.09.111,1.038.223,1.464,1.228,1.031,2.456a4.373,4.373,0,0,1-2.732,2.678,9.631,9.631,0,0,1-3.657.558c-1.26-.223-1.983.558-2.613.446a3.516,3.516,0,0,0-3.407,1.117c-.532.557-1.924,1.339-2.173,2.678-.2.892-.9,2.232-1.569,4.13a33.746,33.746,0,0,1-1.537,4.353c-.689,1-.959,3.348-1.537,4.352a17.716,17.716,0,0,0-1.576,4.465,16.689,16.689,0,0,1-1.537,4.353c-.814,1.674-.689,2.9-1.575,4.464a13.513,13.513,0,0,0-1.537,4.353c-.283,1.116-1.472,2.9-1.576,4.464a16.95,16.95,0,0,1-1.537,4.353l-1.569,4.13c-.315.892-.762,2.79-1.235,4.129-.552,1.563-.276,2.679-.749,4.018-.631,1.786.02,2.79.223,3.795.1.67.571,1.229.7,2.121.059.781.2,1,.932,1.786,1.057,1.117,1.851,2.344,2.809,2.79a12.772,12.772,0,0,0,3.762,1.674,35.988,35.988,0,0,0,4.826.558,17.452,17.452,0,0,0,5.817-.669,7.879,7.879,0,0,0,3.106-.893,13.526,13.526,0,0,1,2.929-1.339,22.544,22.544,0,0,1,2.9-1.563,8.847,8.847,0,0,0,2.679-1.9c1.208-.892,1.484-1.674,2.5-2.343a8.87,8.87,0,0,0,2.023-2.567c.88-1.228,1.733-3.013,2.232-3.795s1.136-2.9,1.865-4.018a29.607,29.607,0,0,0,1.6-3.907c.427-.893.755-2.455,1.452-3.795.388-.781.723-2.678,1.261-3.572.388-.781.649-2.79,1.3-3.683,1.07-1.452.631-1.786,1.261-3.572.551-1.563.637-2.121,1.26-3.572.427-.893.224-1.9,1.3-3.684a22.212,22.212,0,0,0,1.26-3.572,22.536,22.536,0,0,1,1.261-3.571,22.855,22.855,0,0,0,1.261-3.572c.434-1.229.84-3.013,1.352-4.465a10.747,10.747,0,0,0,.342-4.129,4.182,4.182,0,0,0-1.057-3.014c-.874-1-1.8-1.228-3.539-1.674-1.149-.223-1.543-1-2.2-1.674-.4-.447.755-2.456,1.661-3.125,1.209-.892,3.985-.223,6.218-.223h6.362c1.412.111,4.353,0,6.139,0,2.232,0,5.121-1.228,6.322.111.729.781-.092,2.79-1.575,4.465C171.271,8.056,169.951,7.051,169.053,7.386ZM72.471,26.361a11.486,11.486,0,0,1-.218,3.46,24.715,24.715,0,0,1-.551,3.461,10.356,10.356,0,0,0-.815,3.571,10.755,10.755,0,0,1-1.109,3.461,20.764,20.764,0,0,1-1.372,3.572,35.265,35.265,0,0,0-1.668,3.46,31.856,31.856,0,0,1-1.93,3.572,13.536,13.536,0,0,1-2.226,3.46c-1.477,1.34-1.648,2.456-2.561,3.461-1.254,1.339-1.529,2.12-2.633,3.348-.762.893-1.923,1.34-2.928,3.238a15.1,15.1,0,0,1-3.033,2.9,28.864,28.864,0,0,0-3.218,2.79c-1.549,1.228-1.963,1.451-3.361,2.567-.644.558-2.443,1.228-3.579,2.232a10.679,10.679,0,0,1-3.683,1.9c-1.609.446-2.482,1.339-3.677,1.562-1.68.335-2.363,1-3.893,1.229a30.819,30.819,0,0,0-3.808.669c-1.609.446-2.232,0-3.874.223-1.752.223-2.3-.446-3.715-.223a4.242,4.242,0,0,1-3.336-.669c-1.135-.893-2.068-.781-3.026-1.229-.591-.223-1.8-1.228-2.574-1.562-1.143-.558-2.061-1.117-2.344-1.9-.289-.446-1.575-1.228-1.891-2.232a4.266,4.266,0,0,0-1.661-2.567c-.84-.781-.9-1.563-1.247-2.79-.092-1-.939-1.451-.946-3.013-.02-.892-.781-1.9-.683-3.125L.642,57.836C.616,57.278.091,55.6.484,54.487c.276-.781-.059-2.679.369-3.572.735-1.451.111-1.9.44-3.46a21.975,21.975,0,0,1,.814-3.572c.315-.893.072-1.786,1.149-3.572a8.916,8.916,0,0,0,1.333-3.461c.257-1.674,1.163-2.343,1.707-3.571.2-.558,1.543-2.79,1.93-3.572a15.574,15.574,0,0,1,2.226-3.461,27.879,27.879,0,0,0,2.449-3.46l2.745-3.349a16.5,16.5,0,0,1,2.889-3.125c.952-1.117,2.311-2.121,3.033-2.9.532-.558,2.3-1.786,3.218-2.79a11.384,11.384,0,0,1,3.361-2.567c1.392-.781,2-1.563,3.578-2.232,1.425-.558,1.97-1.786,3.572-1.9a9.2,9.2,0,0,0,3.789-1.562c1.51-1.117,2.509-.781,3.782-1.229.9-.334,1.976-.223,3.92-.669A13.359,13.359,0,0,1,50.661.243a30.877,30.877,0,0,0,3.716.223c1.378-.111,1.852.446,3.447.669,1.411.112,1.917.893,2.915,1.229a7.547,7.547,0,0,1,2.574,1.562c.768.67,1.391,1.117,2.343,1.9.657.669,1.163,1.451,2,2.232a8.075,8.075,0,0,1,1.549,2.567c.46,1.228,1,1.9,1.247,2.79.282.781,1.228,1.9.945,3.013a5.589,5.589,0,0,0,.683,3.125,12.618,12.618,0,0,1,.38,3.349C72.556,23.906,72.458,25.133,72.471,26.361ZM61.743,17.543c-.434-.67-.079-1.675-.394-2.679l-.7-2.455a6.823,6.823,0,0,0-.926-2.121c-.617-.781-.637-1.674-1.34-1.9-1-.335-1.313-1.34-1.68-1.563-.769-.669-.874-1-2.134-1.228-1-.335-1.524-.112-2.555-.67-1.07-.446-1.6-.223-2.935-.223a22.956,22.956,0,0,1-3.2.223c-1.189-.111-1.392.781-3.027.67-1.412-.112-2.4,1.116-2.889,1.228-1.2.223-1.621,1.117-2.744,1.451a4.312,4.312,0,0,0-2.679,1.9C33.4,11.516,32.993,11.4,32.08,12.409s-1.772,1.228-2.389,2.344a32.038,32.038,0,0,1-2.285,2.678,12.886,12.886,0,0,0-1.989,2.79,10.355,10.355,0,0,1-2.029,2.9c-1.143,1.339-1.675,1.9-1.733,3.013a7.547,7.547,0,0,1-1.583,2.9,30.325,30.325,0,0,0-2.87,5.916c-1.425,2.455-1.378,3.906-2.154,5.469a57.021,57.021,0,0,0-1.786,5.693,43.015,43.015,0,0,0-1.379,5.8c-.085.558-.781,1.9-.466,2.9.282.781-.223,1.9-.2,2.79a6.981,6.981,0,0,1-.091,2.79,3.159,3.159,0,0,0,.1,2.567c.243.893.079,1.675.394,2.679.388,1.116.079,1.674.847,2.343.44.335.571,1.229,1,2.233.25.557,1.064.781,1.452,1.9.314,1,.611,1.117,1.641,1.675a10.8,10.8,0,0,1,2.172,1.116,5.532,5.532,0,0,0,2.4.781,9.635,9.635,0,0,0,2.784.335c1.93.223,3.02-.335,5.187-.781a14.126,14.126,0,0,0,5.1-2.121c1.168-.781,1.694-1,2.56-1.563.6-.446,1.76-.557,2.416-1.786.388-.781,1.135-1,2.16-2.009s1.556-1.563,2.049-2.009c1.1-1.228,1.976-2.12,2.627-3.013a21.563,21.563,0,0,0,2.18-3.013A31.065,31.065,0,0,1,50.3,56.608a22,22,0,0,1,1.924-3.237,12.236,12.236,0,0,0,1.7-3.237A14.787,14.787,0,0,1,55.4,46.9a21.393,21.393,0,0,0,1.366-3.237c.434-1.229.637-2.121,1.143-3.238a35.611,35.611,0,0,0,1.668-5.358,21.389,21.389,0,0,0,1.419-5.915,14.39,14.39,0,0,1,.466-2.9,7.3,7.3,0,0,1,.282-3.013,5.184,5.184,0,0,0,.132-2.9C61.631,19.44,62.36,18.325,61.743,17.543Z" transform="translate(-0.339 -0.168)" fill="#131a22" fill-rule="evenodd"/>
</svg>
