<svg xmlns="http://www.w3.org/2000/svg" width="460.342" height="81.427" viewBox="0 0 460.342 81.427">
  <path id="pass_access" d="M460.6,4.058a3.489,3.489,0,0,1,.026,2.457c-.348.67.039,1.787.026,2.457a6.862,6.862,0,0,0,.026,2.457,5.854,5.854,0,0,1,.026,2.458c-.2.893.183,2.01-.014,2.569-.519,1.787.748,3.573-.138,5.136-.736,1.452-2.832,2.01-3.948,2.01-1.452,0-.559-1.9-1.2-3.238l-1.353-3.126c-.493-1.452-1.235-1.564-1.544-2.9a4.224,4.224,0,0,0-1.813-2.457c-1.143-.559-1.123-1.564-2.338-2.234a21.325,21.325,0,0,1-2.871-1.675,4.352,4.352,0,0,0-3.18-1.117c-1.34,0-2.555-.67-3.64-.446a46.161,46.161,0,0,1-5.492,1.005c-1.268.112-1.656.894-2.516,1.117a5.511,5.511,0,0,0-2.45,1.564c-.756.559-1.1.893-2.233,1.9-.985.894-1.143,1.34-1.978,2.122-1.859,1.787-2.187,3.351-2.818,5.137-.512,1.452-1.34,1.9-.618,3.015.362.558-.151,2.01.1,2.569.46,1.228.335,1.9.663,2.233.841.782.565,1.564,1.3,2.01a16.357,16.357,0,0,1,1.793,1.564,5.938,5.938,0,0,0,2.1,1.339c1,.335,1.248.894,2.437,1.005.742.112,1.734.782,2.628.782,1.229,0,2.4,1.117,3.738,1.117,1.452,0,2,.67,3.331,1.005,1.405.446,2.411.446,3.4,1.116.624.447,2.174,1.117,2.909,1.564,1.1.671,2.582,1.228,2.6,2.122s1.215.67,1.307,1.675c.164,1.117.794,1.228,1.116,1.9.539,1.005.414,1.675.742,2.01.841.782.532,1.34.44,2.233-.072,1.787-.177,3.351-.131,4.8a12.638,12.638,0,0,1-1.216,5.025,48.212,48.212,0,0,1-2.063,4.579,16.176,16.176,0,0,1-2.766,4.356c-.913,1.005-2.438,2.792-3.5,3.909-1.406,1.452-2.8,2.233-4.054,3.574-1.064,1.116-3.317,2.121-4.336,2.792-2,1.228-3.3,1.452-4.7,2.233-1.432.893-3.146,1.005-4.868,1.452a24.172,24.172,0,0,1-4.736.446,35.422,35.422,0,0,0-4.421-.446c-1.34,0-2.621-1.117-3.915-1.564-1.59-.559-2.542-1.34-3.061-1.452-.814-.223-1.327-.67-2.411-.447a8.914,8.914,0,0,0-3.856,1.116c-2.3,1.452-3.324,2.458-4.888,2.458-.782,0,.066-1.452.014-2.569a23.5,23.5,0,0,0-.1-2.569,14.217,14.217,0,0,1-.1-2.569c-.02-.894.3-2.122.014-2.569-.473-.559-.184-2.01.014-2.569a4,4,0,0,0-.1-2.569,3.809,3.809,0,0,1,.052-2.68c.164-.782-.407-2.01.052-2.681.5-.781,2.5-2.345,3.942-1.675,1.255.559,1.15,2.122,1.459,3.462.276,1.117,1.261,2.122,1.687,3.127.644,1.34,1.525,2.01,1.951,3.015,1.051,1.452,1.642,1.676,2.332,2.569.65,1.005,1.537,1.34,2.786,2.233a11.085,11.085,0,0,0,3.166,1.787l3.626,1.117c1.478.559,2.338.334,3.9.334a14.3,14.3,0,0,0,3.094-.223c.86-.223,2.162-.111,3-.893a12.493,12.493,0,0,1,2.89-1.228,7.9,7.9,0,0,0,2.752-1.787c1.137-1.005,2.109-1.228,2.5-2.01.618-1.117,1.406-1.452,2.208-2.458a20.877,20.877,0,0,0,1.727-2.68c.617-1.117.86-2.122,1.288-3.015.894-1.9.69-2.9,1.025-4.8.322-1.228-.473-2.457-.637-3.574a4.1,4.1,0,0,0-1.806-2.792,22.392,22.392,0,0,0-2.937-2.122,10.364,10.364,0,0,0-3.541-1.675c-1.038-.223-2.772-1.005-3.882-1.34-1.406-.446-3.192-.446-3.922-1.228-.617-.782-2.516-.782-3.771-1.34a17.69,17.69,0,0,1-2.838-1.452c-.44-.335-2.141-.893-2.535-1.675-.355-.894-1.019-1.228-1.97-2.01a5.627,5.627,0,0,1-1.518-2.345c-.578-.894-1.123-1.564-.953-2.681-.013-1.228-.742-2.01-.236-3.126.433-1.228-.112-1.9.289-3.351a20.529,20.529,0,0,1,1.044-3.909,17.979,17.979,0,0,1,1.905-4.131c1.032-1.34,1.583-2.9,2.608-3.909a18.817,18.817,0,0,1,3.2-3.685,31.988,31.988,0,0,0,3.6-3.238,10.5,10.5,0,0,1,3.961-2.681,24.773,24.773,0,0,1,4.323-2.122,26.719,26.719,0,0,1,4.342-1.228c1.228,0,2.581-.67,4.329-.558,1.34,0,2.818.558,3.639.446,1.308-.223,2.142.893,3,1.005.743.111,1.4.782,2.773,1.005a13.039,13.039,0,0,0,2.9.335,17.668,17.668,0,0,0,3.777-.894c1.379-.112,2.878-2.457,4.014-1.564C461.386,2.159,460.065,3.052,460.6,4.058ZM391.269,21.591c-.736,1.452-2.832,2.01-3.948,2.01-1.452,0-.559-1.9-1.2-3.238l-1.353-3.126c-.493-1.452-1.236-1.564-1.544-2.9a4.228,4.228,0,0,0-1.813-2.457c-1.143-.559-1.124-1.564-2.338-2.234A21.269,21.269,0,0,1,376.2,7.967a4.355,4.355,0,0,0-3.18-1.117c-1.34,0-2.555-.67-3.64-.446a46.161,46.161,0,0,1-5.492,1.005c-1.268.112-1.656.894-2.516,1.117a5.512,5.512,0,0,0-2.45,1.564c-.756.559-1.1.893-2.233,1.9-.985.894-1.143,1.34-1.978,2.122-1.859,1.787-2.188,3.351-2.818,5.137-.513,1.452-1.34,1.9-.618,3.015.361.558-.151,2.01.1,2.569.46,1.228.335,1.9.663,2.233.841.782.565,1.564,1.3,2.01a16.442,16.442,0,0,1,1.793,1.564,5.93,5.93,0,0,0,2.1,1.339c1,.335,1.248.894,2.437,1.005.742.112,1.734.782,2.627.782,1.228,0,2.4,1.117,3.738,1.117,1.452,0,2,.67,3.331,1.005,1.405.446,2.411.446,3.4,1.116.624.447,2.174,1.117,2.909,1.564,1.1.671,2.582,1.228,2.6,2.122s1.216.67,1.308,1.675c.164,1.117.794,1.228,1.116,1.9.539,1.005.414,1.675.742,2.01.841.782.532,1.34.44,2.233-.072,1.787-.177,3.351-.131,4.8a12.639,12.639,0,0,1-1.216,5.025,48.229,48.229,0,0,1-2.063,4.579,16.2,16.2,0,0,1-2.766,4.356c-.913,1.005-2.438,2.792-3.5,3.909-1.406,1.452-2.8,2.233-4.054,3.574-1.064,1.116-3.317,2.121-4.336,2.792-2,1.228-3.3,1.452-4.7,2.233-1.432.893-3.146,1.005-4.868,1.452a24.173,24.173,0,0,1-4.736.446,35.435,35.435,0,0,0-4.422-.446c-1.339,0-2.621-1.117-3.914-1.564-1.59-.559-2.543-1.34-3.061-1.452-.814-.223-1.327-.67-2.411-.447a8.914,8.914,0,0,0-3.856,1.116c-2.3,1.452-3.324,2.458-4.888,2.458-.782,0,.066-1.452.014-2.569a23.494,23.494,0,0,0-.1-2.569,14.215,14.215,0,0,1-.1-2.569c-.02-.894.3-2.122.014-2.569-.473-.559-.184-2.01.014-2.569a4,4,0,0,0-.1-2.569,3.809,3.809,0,0,1,.052-2.68c.164-.782-.408-2.01.052-2.681.5-.781,2.5-2.345,3.942-1.675,1.254.559,1.15,2.122,1.459,3.462.276,1.117,1.261,2.122,1.687,3.127.644,1.34,1.524,2.01,1.951,3.015,1.051,1.452,1.642,1.676,2.332,2.569.65,1.005,1.537,1.34,2.785,2.233a11.1,11.1,0,0,0,3.167,1.787l3.626,1.117c1.478.559,2.338.334,3.9.334a14.3,14.3,0,0,0,3.094-.223c.86-.223,2.161-.111,3-.893a12.492,12.492,0,0,1,2.89-1.228,7.9,7.9,0,0,0,2.752-1.787c1.137-1.005,2.109-1.228,2.5-2.01.617-1.117,1.406-1.452,2.207-2.458a20.741,20.741,0,0,0,1.728-2.68c.617-1.117.86-2.122,1.288-3.015.893-1.9.69-2.9,1.025-4.8.322-1.228-.473-2.457-.637-3.574a4.1,4.1,0,0,0-1.806-2.792,22.39,22.39,0,0,0-2.937-2.122,10.364,10.364,0,0,0-3.541-1.675c-1.038-.223-2.772-1.005-3.882-1.34-1.405-.446-3.192-.446-3.922-1.228-.617-.782-2.516-.782-3.771-1.34a17.7,17.7,0,0,1-2.838-1.452c-.44-.335-2.141-.893-2.535-1.675-.355-.894-1.019-1.228-1.971-2.01a5.633,5.633,0,0,1-1.517-2.345c-.579-.894-1.124-1.564-.953-2.681-.014-1.228-.742-2.01-.237-3.126.434-1.228-.111-1.9.289-3.351a20.611,20.611,0,0,1,1.045-3.909,17.983,17.983,0,0,1,1.905-4.131c1.032-1.34,1.583-2.9,2.608-3.909a18.814,18.814,0,0,1,3.2-3.685,31.986,31.986,0,0,0,3.6-3.238A10.5,10.5,0,0,1,358.2,5.175a24.793,24.793,0,0,1,4.322-2.122,26.755,26.755,0,0,1,4.343-1.228c1.228,0,2.581-.67,4.329-.558,1.339,0,2.818.558,3.639.446,1.308-.223,2.142.893,3,1.005.743.111,1.4.782,2.773,1.005a13.034,13.034,0,0,0,2.9.335,17.668,17.668,0,0,0,3.777-.894c1.379-.112,2.878-2.457,4.014-1.564.808.559-.513,1.452.026,2.458a3.488,3.488,0,0,1,.026,2.457c-.348.67.039,1.787.026,2.457a6.861,6.861,0,0,0,.026,2.457,5.855,5.855,0,0,1,.026,2.458c-.2.893.183,2.01-.014,2.569C390.888,18.241,392.156,20.027,391.269,21.591Zm-68.792-.111a6.137,6.137,0,0,1-4.047,1.339c-2.082-.111-.769-2.568-1.636-3.908-.545-.67-1.182-2.345-1.688-3.127-.531-1.339-1.872-1.339-1.885-2.569-.091-1.005-1.05-1.452-2.043-2.121L308.6,9.53A14.628,14.628,0,0,0,305.351,8.3a8.264,8.264,0,0,0-3.9-.671c-1.044.112-3.12-.334-4.611-.223-1.938.112-3.16-.223-4.283.112s-2.273.111-3.514.782a8.422,8.422,0,0,0-2.647,2.121,21.169,21.169,0,0,0-1.939,3.909c-1.156,2.01-1.156,3.909-2.089,5.919a18.446,18.446,0,0,0-2.129,6.03c-.644,2.457-1.537,4.356-2.207,6.254A8.637,8.637,0,0,0,277.26,36c-.329,1.564-.447,1.9.447,1.9,1.34,0,3.324-.559,4.953-.112.926.224,2.727-.446,3.843-.446.894,0,2.135-.67,3.14-.67A3.8,3.8,0,0,0,292.2,35.44c1.478-1.34,3.166-2.01,4.316-3.686a11.69,11.69,0,0,0,2.142-2.9c.394-1.117.4-3.351,2.345-3.8,1.084-.223,2.661-.894,3.685,0,1.1,1.005-.907,2.569-1.268,3.908-.183,1.787-1.386,2.345-1.268,3.909.06.782-1.1,3.126-1.34,3.8l-1.3,3.685c-.368,1.676-1.327,3.127-1.379,3.909a10.271,10.271,0,0,1-1.34,3.8,19.293,19.293,0,0,0-1.491,3.908,13.617,13.617,0,0,1-1.492,3.909c-.8,1.005-3.554.893-3.725.112a6.105,6.105,0,0,1,.526-4.021c.512-1.452.151-2.01-.013-3.126l-.552-2.233a1.863,1.863,0,0,0-1.011-1.564,10.508,10.508,0,0,1-1.912-1.228,7.189,7.189,0,0,0-2.555-.671,25.405,25.405,0,0,1-3.455-.334,8.785,8.785,0,0,0-4.316-.112,3.592,3.592,0,0,0-2.458,1.9c-.315.893-1.307,2.121-1.9,3.8-.512,1.452-.86,2.121-1.182,3.35a19.879,19.879,0,0,1-1.183,3.351c-.519,1.787-1.458,4.132-2.286,6.478-.789,2.233-1.84,4.578-2.247,6.365s-1.071,3.351-1.085,4.021a3.734,3.734,0,0,0,.663,2.233c.362.559.92.559,2.365.893a13.986,13.986,0,0,0,4.053.223c2.241-.334,3.725-.111,5.367-.334a21.164,21.164,0,0,0,4.854-.782,35.985,35.985,0,0,0,4.717-1.34c1.688-.67,2.627-1.117,4.356-1.9a40.741,40.741,0,0,1,4.178-2.345c1.2-.559,2.306-1.787,4.263-2.9,1.2-.559,1.327-1.228,2.155-1.675s.657-1.228,2.306-1.787a5.2,5.2,0,0,0,2.385-2.01,4.763,4.763,0,0,1,2.5-2.01,1.762,1.762,0,0,1,2.614,1.452,3.287,3.287,0,0,1-1.688,2.569c-1.051.446-1.419,2.122-1.912,2.569a6.7,6.7,0,0,0-1.8,2.569,17.953,17.953,0,0,1-1.8,2.568,25.173,25.173,0,0,1-3.633,4.914c-.953,1.117-.926,1.675-1.8,2.569-.834.782-1.268,2.01-1.873,2.457s-2.641-.111-3.574,0a12.946,12.946,0,0,1-3.5.112c-.742-.112-2.273.111-3.462,0a16.963,16.963,0,0,0-3.462,0,9.459,9.459,0,0,1-3.574,0c-1.525-.112-2.385.111-3.463,0a18.644,18.644,0,0,1-3.574,0c-1-.335-2.121,0-3.462,0-1.379.111-2.01,0-3.462,0h-3.574a32.834,32.834,0,0,1-3.351,0,9.094,9.094,0,0,0-3.423-.112c-1.57.335-2.155-.223-3.54.223a12.055,12.055,0,0,1-3.692.335h-3.574a9.29,9.29,0,0,1-3.449-.67c-1.773-.671-1.912-1.228-1.707-2.122.276-.782,1.367-1.34,3.245-2.233a16.877,16.877,0,0,1,3.626-.782,11.375,11.375,0,0,1,2.615-.446,5.014,5.014,0,0,0,3.449-1.228l2.063-2.681c.768-1.228.834-2.68,1.53-4.02.776-1.564,1.268-3.909,2.208-6.254a46.288,46.288,0,0,0,2.207-6.255c.717-2.345,1.012-4.131,2.208-6.254,1.084-2.122,1.34-3.8,2.207-6.254.631-1.787,1.866-4.02,2.208-6.255.44-1.563,1.412-3.685,2.207-6.254.671-1.9.973-4.02,2.208-6.254,1.077-1.787,1.156-3.909,2.167-6.142a15.165,15.165,0,0,0,1.348-4.132l-.02-2.792c.052-.782-.828-1.452-1.754-1.675-1.412-.112-2.568,0-4.355,0-2.345,0-3.4-1.117-3.121-2.233.44-1.564,1.308-2.122,2.773-2.792,1.2-.559,2.273-.112,3.5-.112,1.715-.111,2.227.335,3.462,0a17.9,17.9,0,0,1,3.462,0h3.463a64.864,64.864,0,0,1,6.589,0c1.452,0,2.115.335,3.35,0a17.938,17.938,0,0,1,3.463,0,32.745,32.745,0,0,0,3.35,0,11.1,11.1,0,0,0,3.35,0c1.642-.223,1.63.446,3.463,0a32.735,32.735,0,0,1,3.35,0c1.006,0,1.774.671,3.463,0a3.9,3.9,0,0,1,3.351,0c.663.335,2.831-.111,3.462,0,1.373.223,2.279-.446,3.311.112,1.288.782.118,3.462.171,4.579.046,1.452-.362,3.238.019,4.69a14.247,14.247,0,0,1,.02,4.691C322.28,18.241,323.883,20.027,322.477,21.48Zm-78.358-9.716a45.188,45.188,0,0,1-.1,5.025c-.224,1.9.86,3.574-.362,5.137a4.974,4.974,0,0,1-4.126,1.564c-.926-.223-.847-2.345-1.011-3.463l-1.274-3.35a19.473,19.473,0,0,0-1.544-2.9,20.334,20.334,0,0,0-1.885-2.569,5.392,5.392,0,0,0-2.449-2.233A10.781,10.781,0,0,1,228.5,7.3a33.16,33.16,0,0,0-3.4-1.117,10.378,10.378,0,0,0-3.751-.446c-2.681,0-3.7.67-6.011.893-1.379.112-1.879.894-2.851,1.117a9.41,9.41,0,0,0-2.858,1.452,18.631,18.631,0,0,0-2.49,1.676c-1.208.893-1.327,1.228-2.5,2.01a9.278,9.278,0,0,0-2.392,2.345c-.42.559-1.931,1.676-2.207,2.458a20.257,20.257,0,0,1-2.024,2.569c-.768,1.228-1.6,2.01-1.99,2.792a18.165,18.165,0,0,1-1.767,2.792c-1.065,1.116-1.123,2.233-1.656,2.792a17.844,17.844,0,0,0-2.792,5.7c-.98,2.457-1.525,3.686-2.116,5.361a50.869,50.869,0,0,0-1.715,5.807,15.429,15.429,0,0,0-.691,2.9,10.407,10.407,0,0,1-.394,3.015c-.7,1.339.085,1.339-.315,2.792a12.678,12.678,0,0,0,.02,2.792c-.066,1.452-.08,2.121.21,2.568.69.894.118,1.564.473,2.458.309,1.339-.256,1.675.624,2.345.736.446.526,1.675,1.039,2.121.953.782.86,1.676,1.339,1.9.92.558.723,1.116,1.682,1.563a7.166,7.166,0,0,1,1.984,1.34,4.586,4.586,0,0,0,2.477.894,8.4,8.4,0,0,0,2.706.558c.782,0,2.036.559,3.16.224.749-.224,2.339.334,3.764-.224a28.192,28.192,0,0,1,3.666-.893c.86-.223,2.214-.893,3.639-1.452a9.286,9.286,0,0,0,3.535-1.787c.493-.446,2.187-1.452,3.4-2.345a28.39,28.39,0,0,0,3.14-2.569c1.136-1.005,1.255-1.34,3.035-2.9,1.59-1.34,1.17-2.681,2.969-3.351a2.586,2.586,0,0,1,3.206,1.675c.315,1.005-2.247,2.569-3.357,4.132-.729,1.117-2.542,2.457-3.535,3.685-.8,1.005-2.871,2.122-3.791,3.463-1.373,1.675-2.535,2.121-4.119,3.126-.716.447-1.695,1.005-2.752,1.787-.756.559-1.951.782-2.786,1.564-1.1.894-2.1.894-2.818,1.34-.6.446-1.873.559-2.852,1.116-1.057.782-2.1.559-2.884.894a9.864,9.864,0,0,1-2.765.559c-2.392.446-3.581.334-5.558.559-1.642.223-2.379-.224-3.5-.224-1.452,0-2.26-.558-3.265-.558-1.117,0-1.978.223-2.924-.894-.656-.67-1.55-.67-2.542-1.34a17.487,17.487,0,0,1-2.241-1.563c-.722-1.117-1.537-1.34-2.01-1.9a11.917,11.917,0,0,1-1.6-2.122c-.249-.558-.867-1.339-1.366-2.457A19.876,19.876,0,0,0,173,67.714a4.86,4.86,0,0,1-.69-2.792,17.285,17.285,0,0,0-.427-2.9,14.681,14.681,0,0,1-.125-3.127,24,24,0,0,0,.138-3.238c.059-1.117.342-2.233.473-3.238a27.692,27.692,0,0,1,.775-3.463c.237-.67.52-1.787,1.111-3.462a11.851,11.851,0,0,1,1.373-3.574,40.428,40.428,0,0,0,1.748-3.685,21.113,21.113,0,0,0,1.9-3.8,9.5,9.5,0,0,1,2.307-3.686c1.261-1.675,1.13-2.569,2.457-3.8a22.033,22.033,0,0,0,2.753-3.685c.5-.782,2.1-2.458,2.937-3.574.42-.559,1.747-1.787,3.081-3.351a15.619,15.619,0,0,1,3.377-3.238c1.5-.782,1.97-1.787,3.482-2.9,1.551-1.228,2.372-1.339,3.587-2.569.532-.558,2.634-1.452,3.8-2.233a21.1,21.1,0,0,1,3.909-1.9,25.88,25.88,0,0,1,3.935-1.34,11.767,11.767,0,0,1,4.112-.893c1.6-.112,2.542-.559,4.139-.335,1.707.223,3.311.111,4.644.446,1.741.446,2.51,1.117,4.217,1.34,2.148.559,3.153.559,3.889,1.005.7.559,2.792,0,4.106-.559,1.5-.446,3.009-1.564,4.342-1.228,1.924.559.2,3.238-.06,4.913A31.272,31.272,0,0,0,244.119,11.764Zm-78.549,0a45.4,45.4,0,0,1-.1,5.025c-.224,1.9.86,3.574-.362,5.137a4.973,4.973,0,0,1-4.125,1.564c-.926-.223-.848-2.345-1.011-3.463l-1.274-3.35a19.472,19.472,0,0,0-1.544-2.9,20.427,20.427,0,0,0-1.885-2.569,5.39,5.39,0,0,0-2.45-2.233A10.787,10.787,0,0,1,149.949,7.3a33.118,33.118,0,0,0-3.4-1.117,10.376,10.376,0,0,0-3.751-.446c-2.68,0-3.7.67-6.011.893-1.379.112-1.879.894-2.852,1.117a9.4,9.4,0,0,0-2.857,1.452,18.57,18.57,0,0,0-2.49,1.676c-1.208.893-1.327,1.228-2.5,2.01a9.278,9.278,0,0,0-2.392,2.345c-.42.559-1.931,1.676-2.207,2.458a20.338,20.338,0,0,1-2.024,2.569c-.768,1.228-1.6,2.01-1.99,2.792a18.1,18.1,0,0,1-1.768,2.792c-1.064,1.116-1.123,2.233-1.655,2.792a17.865,17.865,0,0,0-2.793,5.7c-.979,2.457-1.524,3.686-2.115,5.361a51.079,51.079,0,0,0-1.715,5.807,15.5,15.5,0,0,0-.69,2.9,10.407,10.407,0,0,1-.394,3.015c-.7,1.339.085,1.339-.315,2.792a12.689,12.689,0,0,0,.019,2.792c-.065,1.452-.079,2.121.211,2.568.69.894.118,1.564.473,2.458.309,1.339-.257,1.675.624,2.345.736.446.526,1.675,1.039,2.121.952.782.86,1.676,1.339,1.9.92.558.723,1.116,1.682,1.563a7.18,7.18,0,0,1,1.984,1.34,4.586,4.586,0,0,0,2.477.894,8.4,8.4,0,0,0,2.706.558c.782,0,2.036.559,3.16.224.749-.224,2.339.334,3.764-.224a28.194,28.194,0,0,1,3.666-.893c.86-.223,2.214-.893,3.639-1.452a9.286,9.286,0,0,0,3.535-1.787c.493-.446,2.187-1.452,3.4-2.345a28.314,28.314,0,0,0,3.141-2.569c1.136-1.005,1.255-1.34,3.035-2.9,1.59-1.34,1.17-2.681,2.969-3.351a2.586,2.586,0,0,1,3.206,1.675c.315,1.005-2.247,2.569-3.357,4.132-.729,1.117-2.542,2.457-3.535,3.685-.8,1.005-2.871,2.122-3.791,3.463-1.373,1.675-2.535,2.121-4.119,3.126-.716.447-1.695,1.005-2.753,1.787-.755.559-1.95.782-2.785,1.564-1.1.894-2.1.894-2.818,1.34-.6.446-1.873.559-2.852,1.116-1.057.782-2.1.559-2.884.894a9.864,9.864,0,0,1-2.766.559c-2.391.446-3.58.334-5.558.559-1.642.223-2.378-.224-3.494-.224-1.452,0-2.26-.558-3.266-.558-1.116,0-1.977.223-2.923-.894-.657-.67-1.55-.67-2.543-1.34a17.47,17.47,0,0,1-2.24-1.563c-.722-1.117-1.537-1.34-2.01-1.9a11.917,11.917,0,0,1-1.6-2.122c-.249-.558-.867-1.339-1.367-2.457a19.755,19.755,0,0,0-.992-2.569,4.86,4.86,0,0,1-.69-2.792,17.287,17.287,0,0,0-.427-2.9,14.679,14.679,0,0,1-.125-3.127,24,24,0,0,0,.138-3.238c.059-1.117.342-2.233.473-3.238a27.7,27.7,0,0,1,.775-3.463c.237-.67.519-1.787,1.111-3.462a11.828,11.828,0,0,1,1.373-3.574,40.2,40.2,0,0,0,1.747-3.685,21.061,21.061,0,0,0,1.9-3.8,9.5,9.5,0,0,1,2.307-3.686c1.261-1.675,1.13-2.569,2.457-3.8a22.084,22.084,0,0,0,2.753-3.685c.5-.782,2.1-2.458,2.937-3.574.42-.559,1.747-1.787,3.081-3.351a15.6,15.6,0,0,1,3.377-3.238c1.5-.782,1.97-1.787,3.482-2.9,1.55-1.228,2.372-1.339,3.587-2.569.531-.558,2.634-1.452,3.8-2.233a21.1,21.1,0,0,1,3.909-1.9,25.9,25.9,0,0,1,3.934-1.34,11.775,11.775,0,0,1,4.112-.893c1.6-.112,2.542-.559,4.139-.335,1.708.223,3.312.111,4.645.446,1.741.446,2.509,1.117,4.217,1.34,2.148.559,3.153.559,3.889,1.005.7.559,2.792,0,4.105-.559,1.5-.446,3.009-1.564,4.343-1.228,1.924.559.2,3.238-.06,4.913A31.27,31.27,0,0,0,165.57,11.764Zm-98.2,68.012a5.826,5.826,0,0,1-3.686,0c-1.405-.447-2.457,0-3.462,0a16.8,16.8,0,0,0-3.351,0,20.239,20.239,0,0,1-3.685,0c-.894,0-2.91.334-3.574,0-1.327-.671-2.458,0-3.686,0-1.005,0-3.475.67-3.646-.112a4.9,4.9,0,0,1,1.537-4.356c.8-.67,2.832-.111,3.877-.223a12.53,12.53,0,0,0,2.989-.559c1.878-.893,3.009-1.563,3.331-2.792a6.308,6.308,0,0,0,.578-2.9,8.9,8.9,0,0,1,.2-2.792,15.726,15.726,0,0,0,.191-4.02c-.085-1.34.506-3.015.23-4.132a4.06,4.06,0,0,0-1.5-3.015A13.888,13.888,0,0,0,50.73,53.2c-1.334-.335-3.469.334-4.244,0s-3.015,0-4.244,0c-1.635-.112-3.126,0-4.244,0H33.755a8.171,8.171,0,0,0-4.165,1.675,17.835,17.835,0,0,0-3.745,3.015c-.808,1.34-1.807,2.9-2.687,4.132a20.731,20.731,0,0,0-2.648,4.02c-.315.893-1.077,1.787-1.741,3.351a5.425,5.425,0,0,0-.506,3.015c.014,1.228.42,1.339,1.419,1.675a3.86,3.86,0,0,0,2.589.894c.893,0,2.535-.223,3.343.334,1.248.894-.7,3.574-1.537,4.356-1.629,1.452-4.171.112-5.958.112H6.5c-1.787,0-5.276,1.339-5.879-.112-.322-.67.289-3.351,1.537-4.356,1.892-1.564,3.666-.893,4.487-1.005,1.531-.223,2.26-1.339,3.238-1.9s1.216-1.228,2.359-2.569c.571-.67,1.458-2.233,2.641-3.686a15.451,15.451,0,0,0,2.72-3.908c.519-1.787,1.577-2.569,2.608-3.909.46-.67,2.221-3.126,2.72-3.908.959-1.452,1.767-2.792,2.759-4.02A24.505,24.505,0,0,0,28.3,46.5c.965-1.787,2.016-2.233,2.72-3.909.545-1.228,1.642-2.121,2.647-4.02a27.557,27.557,0,0,1,2.72-3.908C37.5,33.094,38.269,31.866,39,30.749c.808-1.34,1.984-2.457,2.759-4.02,1.039-1.675,1.649-2.457,2.72-3.909.729-1.116,1.623-3.015,2.608-3.908,1.176-1.117,1.649-2.457,2.759-4.02a32.06,32.06,0,0,1,2.569-3.8c1.064-1.117,2-3.127,2.759-4.02,1.071-1.452,1.4-3.015,2.871-4.021,1.925-1.339,3.745-1.116,4.94-1.339,1.944-.446,4.244-1.9,4.94-1.34.953.782.125,3.127-.007,4.132-.072,1.787.014,3.126-.157,4.244a20.709,20.709,0,0,0-.08,4.02,8.172,8.172,0,0,1-.118,4.132,31.184,31.184,0,0,0-.118,4.132c-.184,1.786-.466,2.9-.191,4.02.315,1.005-.046,2.345-.118,4.131l-.118,4.132A9.136,9.136,0,0,0,66.9,37.45c.125,1.228-.125,2.569-.118,4.131a20.4,20.4,0,0,0-.23,4.132c0,1.9.02,2.792-.079,4.02a10.2,10.2,0,0,0-.118,4.132c.348,1.228-.092,2.792-.118,4.132.006,1.563.242,2.792-.192,4.02a6.4,6.4,0,0,0-.118,4.131,19.331,19.331,0,0,1-.236,4.468,3.553,3.553,0,0,0,.584,2.457c.249.559,1.471.894,2.056,1.452.512.447,3.292-.782,4.3.782.65,1.005-.539,2.792-1.537,4.356S68.905,79.217,67.369,79.775ZM56.092,15.225c-1.084.224-1.465.671-2.838,2.345a25.091,25.091,0,0,0-2.45,3.463,16.094,16.094,0,0,1-1.958,3.015,18.121,18.121,0,0,0-3.45,5.025c-.742,1.787-2.45,3.462-3.258,4.8-.768,1.228-2.418,3.685-3.258,4.8-.651.893-2.359,2.569-2.759,4.02-.315.893-.644,2.457-.066,3.351a4.418,4.418,0,0,0,3.094,1.675,18.884,18.884,0,0,0,5.026,0c1.49-.111,3.606.223,5.025,0a8.567,8.567,0,0,0,4.276-1.675,6.233,6.233,0,0,0,2.372-3.238,13.893,13.893,0,0,0,.23-4.132c-.309-1.34.06-3.015.243-4.8.257-1.676-.019-2.792.355-4.8a31.85,31.85,0,0,0,.211-5.025,11.717,11.717,0,0,1,.283-3.015,9.879,9.879,0,0,0,.1-3.463C57.307,15.9,57.327,14.891,56.092,15.225Z" transform="translate(-0.54 -0.247)" fill="#131a22" fill-rule="evenodd"/>
</svg>
