<svg xmlns="http://www.w3.org/2000/svg" width="392.836" height="80" viewBox="0 0 392.836 80">
  <path id="pass-credo" d="M392.875,27.148a11.436,11.436,0,0,1-.215,3.435,24.507,24.507,0,0,1-.548,3.436,10.28,10.28,0,0,0-.809,3.545A10.678,10.678,0,0,1,390.2,41a20.613,20.613,0,0,1-1.362,3.546,35.018,35.018,0,0,0-1.656,3.435,31.48,31.48,0,0,1-1.916,3.546,13.415,13.415,0,0,1-2.21,3.435c-1.466,1.33-1.636,2.438-2.542,3.436C379.27,59.725,379,60.5,377.9,61.72c-.757.887-1.91,1.33-2.907,3.214a14.992,14.992,0,0,1-3.011,2.881,28.656,28.656,0,0,0-3.194,2.77c-1.538,1.219-1.949,1.44-3.337,2.549-.639.554-2.425,1.219-3.553,2.216a10.6,10.6,0,0,1-3.656,1.884c-1.6.443-2.464,1.329-3.65,1.551-1.669.333-2.347,1-3.866,1.22a30.6,30.6,0,0,0-3.78.665c-1.6.443-2.216,0-3.846.222-1.741.222-2.281-.443-3.689-.222A4.208,4.208,0,0,1,336.1,80c-1.128-.887-2.054-.776-3.005-1.22-.587-.222-1.786-1.219-2.555-1.551-1.134-.554-2.047-1.108-2.327-1.884-.286-.443-1.564-1.219-1.877-2.216a4.238,4.238,0,0,0-1.648-2.549c-.835-.776-.893-1.551-1.239-2.77-.091-1-.933-1.44-.939-2.992-.019-.886-.775-1.884-.677-3.1l-.267-3.324c-.026-.554-.548-2.217-.156-3.324.273-.776-.059-2.66.365-3.546.73-1.44.11-1.884.437-3.435a21.814,21.814,0,0,1,.808-3.546c.313-.887.072-1.773,1.142-3.546a8.863,8.863,0,0,0,1.323-3.436c.255-1.662,1.154-2.326,1.695-3.545.2-.554,1.532-2.77,1.917-3.546a15.494,15.494,0,0,1,2.21-3.436,27.782,27.782,0,0,0,2.432-3.435l2.724-3.324a16.386,16.386,0,0,1,2.868-3.1c.945-1.108,2.295-2.106,3.012-2.881.528-.554,2.288-1.773,3.194-2.77a11.313,11.313,0,0,1,3.337-2.549c1.382-.776,1.988-1.551,3.552-2.216,1.415-.554,1.956-1.773,3.546-1.884a9.131,9.131,0,0,0,3.761-1.551c1.5-1.108,2.49-.776,3.755-1.22.893-.332,1.962-.222,3.891-.665a13.263,13.263,0,0,1,3.846-.222,30.667,30.667,0,0,0,3.689.222c1.369-.11,1.838.443,3.422.665,1.4.111,1.9.887,2.894,1.22a7.484,7.484,0,0,1,2.555,1.551c.762.665,1.382,1.108,2.326,1.884.652.665,1.154,1.44,1.988,2.216a8.017,8.017,0,0,1,1.538,2.549c.456,1.219,1,1.883,1.238,2.77.281.776,1.219,1.883.939,2.992a5.541,5.541,0,0,0,.677,3.1,12.534,12.534,0,0,1,.378,3.324C392.96,24.71,392.862,25.929,392.875,27.148Zm-10.65-8.754c-.43-.665-.078-1.663-.391-2.66l-.691-2.438a6.774,6.774,0,0,0-.919-2.106c-.613-.776-.632-1.662-1.33-1.883-.99-.333-1.3-1.33-1.668-1.551-.762-.665-.867-1-2.118-1.219-.991-.333-1.512-.111-2.536-.665-1.062-.443-1.584-.222-2.913-.222a22.8,22.8,0,0,1-3.181.222c-1.18-.11-1.382.776-3.005.665-1.4-.111-2.385,1.108-2.868,1.219-1.186.222-1.61,1.108-2.724,1.44a4.281,4.281,0,0,0-2.66,1.884c-1.134,1.329-1.538,1.219-2.444,2.216s-1.76,1.219-2.373,2.327a31.8,31.8,0,0,1-2.269,2.659,12.793,12.793,0,0,0-1.975,2.77,10.28,10.28,0,0,1-2.014,2.881c-1.134,1.329-1.663,1.883-1.721,2.992a7.481,7.481,0,0,1-1.571,2.881,30.048,30.048,0,0,0-2.848,5.873c-1.415,2.438-1.369,3.878-2.139,5.429a56.614,56.614,0,0,0-1.773,5.652,42.7,42.7,0,0,0-1.369,5.762c-.084.554-.776,1.883-.463,2.881.281.776-.221,1.884-.2,2.77a6.93,6.93,0,0,1-.091,2.77,3.132,3.132,0,0,0,.1,2.549c.24.887.078,1.663.39,2.66.385,1.108.079,1.662.841,2.326.437.333.567,1.22.991,2.217.248.553,1.056.776,1.44,1.883.313,1,.606,1.108,1.629,1.663a10.718,10.718,0,0,1,2.157,1.108,5.492,5.492,0,0,0,2.386.776,9.557,9.557,0,0,0,2.763.333c1.916.222,3-.333,5.149-.776a14.018,14.018,0,0,0,5.065-2.106c1.16-.776,1.682-1,2.542-1.551.6-.443,1.747-.553,2.4-1.773.385-.776,1.128-1,2.144-1.994s1.545-1.551,2.034-1.994c1.1-1.219,1.962-2.1,2.608-2.992a21.408,21.408,0,0,0,2.164-2.992,30.838,30.838,0,0,1,2.092-3.1,21.839,21.839,0,0,1,1.91-3.213,12.148,12.148,0,0,0,1.689-3.213,14.722,14.722,0,0,1,1.466-3.213,21.237,21.237,0,0,0,1.356-3.213c.43-1.22.632-2.106,1.134-3.214a35.351,35.351,0,0,0,1.656-5.319,21.2,21.2,0,0,0,1.409-5.872,14.352,14.352,0,0,1,.463-2.881,7.233,7.233,0,0,1,.281-2.992,5.154,5.154,0,0,0,.13-2.881C382.114,20.277,382.837,19.17,382.225,18.394Zm-71.864,8.864-.417,4.322a35.77,35.77,0,0,1-.939,4.543c-.522,2.106-.985,3.1-1.421,4.654a41.743,41.743,0,0,1-1.942,4.875,40.862,40.862,0,0,1-2.608,4.876c-.691,1.33-2.36,3.546-3.011,4.765a17.244,17.244,0,0,1-3.448,4.432c-.788.665-1.33,1.884-1.89,2.216a5.618,5.618,0,0,0-2.073,2.106,12.972,12.972,0,0,1-2.145,1.994,21.426,21.426,0,0,1-2.216,1.884,15.042,15.042,0,0,0-2.4,1.773c-.449.332-1.871,1.219-2.36,1.662a6.327,6.327,0,0,1-2.5,1.44c-1.082.554-1.682,1-2.613,1.441a17.438,17.438,0,0,1-3.39,1.44,32.588,32.588,0,0,0-3.422,1.219c-.854.222-1.929.443-3.3.886a9.94,9.94,0,0,1-3.337.665,16.136,16.136,0,0,0-3.37.443,12.877,12.877,0,0,0-3.22.333c-2.014,1-4.361.11-6.467.11a30.913,30.913,0,0,1-3.213,0,16.559,16.559,0,0,1-3.324,0,41.545,41.545,0,0,0-6.427,0,28.245,28.245,0,0,0-3.4.222c-.886,0-2.523.554-3.552.333a32.754,32.754,0,0,1-3.324,0,21.043,21.043,0,0,0-3.311-.665c-1.388-.776-2.158-1.108-1.656-2.216a4.34,4.34,0,0,1,3.291-2.106,6.974,6.974,0,0,0,3.488-.776c1.16-.776,1.851-.222,2.594-.443a14.473,14.473,0,0,0,3.422-1.219,4.7,4.7,0,0,0,2.086-2.77c.391-1.108.886-1.884,1.48-3.879,1.01-2.549,1-4.1,2.19-6.205,1.115-2.216,1.33-3.767,2.191-6.206.587-1.662,1.851-3.989,2.19-6.205.437-1.551,1.4-3.656,2.191-6.205.665-1.884.965-3.989,2.19-6.206,1.108-1.883,1.186-3.989,2.191-6.205a23.153,23.153,0,0,0,2.19-6.205c.293-1.773,1.741-3.989,2.191-6.206a28.585,28.585,0,0,0,1.3-3.989,7.065,7.065,0,0,0-.02-2.77c-.345-1.219-1.016-.886-1.74-1.662-.469-.554-3.246-.222-4.869-.333-1.4-.11-3.045-1.108-2.653-2.216A3.866,3.866,0,0,1,252.3,2.77a11.905,11.905,0,0,1,3.474-.111c.886,0,2.144-.11,3.324,0,1.434.333,4.1,0,6.538,0,2.217,0,4.315.333,6.206,0,2.366-.11,3.989,0,6.427,0a21.384,21.384,0,0,1,3.767,0,20.944,20.944,0,0,1,3.618.111c1.362.222,2.438,0,3.468.222a18.465,18.465,0,0,1,3.239.554c.88.332,1.877.332,3.272.776.808.222,1.76.665,3.044,1.108a8.02,8.02,0,0,1,2.665,1.551c.978,1,1.786,1.219,2.509,1.994a32.683,32.683,0,0,1,2.49,2.992l1.89,3.436c.391.775.352,2.77,1.258,3.656s.678,3.1.7,3.989A33.247,33.247,0,0,1,310.361,27.258ZM300.1,21.164a3.439,3.439,0,0,1-.248-2.438c.392-1.108-.045-1.44-.619-2.326a10.706,10.706,0,0,1-.808-2.106c-.43-.665-1.31-1-1.33-1.884-.13-.886-.828-1.108-1.668-1.551-.769-.333-.717-1.108-1.969-1.33a6.858,6.858,0,0,1-2.419-1c-1.023-.554-2.059-.443-2.939-.776a6.1,6.1,0,0,0-3.279-.443c-1.7.11-2.281-.444-3.95-.111-1.447.333-3.324,0-4.549.333a8.974,8.974,0,0,0-3.462,1.33,5.258,5.258,0,0,0-2.561,2.548c-.613,1.108-.933,2.327-1.969,4.322-1.115,2.216-1.493,4.543-2.151,6.095-.9,2.549-1.786,4.432-2.151,6.095-.4,1.773-1.4,3.656-2.191,6.205a45.948,45.948,0,0,0-2.19,6.205c-.971,2.438-1.812,3.879-2.151,6.095-.593,1.995-1.48,3.879-2.19,6.205-.861,2.438-1.637,4.322-2.151,6.095a27.658,27.658,0,0,1-2.191,6.206c-1.153,2.326-1.03,3.545-1.421,4.654a3.178,3.178,0,0,0,.052,2.992c.358.554.489,1.44,2.033,1.773,1.252.222,2.477-.11,4.719.443a17.013,17.013,0,0,0,4.028-.11c1.187-.222,3-.333,3.7-.443a19.9,19.9,0,0,0,3.527-.887,11.119,11.119,0,0,1,3.272-1.108c1.623.111,2.353-1.329,3.018-1.329a4.395,4.395,0,0,0,2.914-1.663,8.428,8.428,0,0,1,2.549-1.883c.821-.443,1.734-1.773,2.406-2.106.932-.443,1.29-1.773,2.3-2.438,1.46-1,1.35-1,2.119-2.549A17.007,17.007,0,0,1,288.2,57.4a17.424,17.424,0,0,1,1.721-2.993,10.52,10.52,0,0,0,1.688-3.213,8.448,8.448,0,0,0,.849-3.435,6.431,6.431,0,0,0,2.28-3.546c.508-1.44.815-1.995,1.291-3.656.515-1.773,1.167-2.993,1.33-3.768.234-.665.56-2.216.991-3.435a12.478,12.478,0,0,1,.84-3.324c.5-1.108.346-2.548.542-3.1.287-1.441-.032-2.106.281-2.992A3.047,3.047,0,0,0,300.1,21.164Zm-73.029.222a6.089,6.089,0,0,1-4.015,1.329c-2.066-.11-.763-2.548-1.623-3.878-.541-.665-1.173-2.327-1.675-3.1-.527-1.329-1.857-1.329-1.87-2.549-.091-1-1.043-1.44-2.028-2.1l-2.555-1.551a14.522,14.522,0,0,0-3.226-1.219,8.205,8.205,0,0,0-3.865-.665c-1.037.111-3.1-.332-4.576-.222-1.923.111-3.135-.222-4.25.111s-2.255.11-3.487.776a8.356,8.356,0,0,0-2.627,2.1,21.005,21.005,0,0,0-1.924,3.879c-1.147,1.994-1.147,3.879-2.073,5.873a18.3,18.3,0,0,0-2.113,5.983c-.639,2.438-1.525,4.322-2.19,6.205a8.569,8.569,0,0,0-.769,3.435c-.326,1.551-.443,1.884.443,1.884,1.33,0,3.3-.554,4.915-.111.918.222,2.7-.443,3.812-.443.887,0,2.119-.665,3.116-.665a3.764,3.764,0,0,0,2.535-1.219c1.466-1.33,3.142-1.994,4.282-3.657a11.6,11.6,0,0,0,2.125-2.881c.391-1.108.4-3.324,2.327-3.767,1.075-.222,2.64-.887,3.656,0,1.089,1-.9,2.549-1.257,3.878-.183,1.773-1.376,2.327-1.258,3.879.058.776-1.1,3.1-1.33,3.767l-1.291,3.656c-.365,1.663-1.317,3.1-1.369,3.879a10.191,10.191,0,0,1-1.33,3.767,19.146,19.146,0,0,0-1.48,3.878,13.537,13.537,0,0,1-1.48,3.879c-.8,1-3.527.886-3.7.111a6.053,6.053,0,0,1,.521-3.99c.508-1.44.15-1.995-.013-3.1l-.548-2.216a1.848,1.848,0,0,0-1-1.551,10.425,10.425,0,0,1-1.9-1.219,7.134,7.134,0,0,0-2.535-.665,25.207,25.207,0,0,1-3.428-.332,8.717,8.717,0,0,0-4.282-.111,3.566,3.566,0,0,0-2.438,1.884c-.313.886-1.3,2.1-1.883,3.767-.508,1.44-.855,2.1-1.174,3.324a19.809,19.809,0,0,1-1.173,3.324c-.516,1.773-1.447,4.1-2.269,6.427-.782,2.216-1.825,4.542-2.229,6.315s-1.063,3.324-1.076,3.99a3.7,3.7,0,0,0,.658,2.216c.359.554.913.554,2.347.886a13.881,13.881,0,0,0,4.021.222c2.223-.332,3.7-.11,5.325-.332a21.006,21.006,0,0,0,4.818-.776,35.729,35.729,0,0,0,4.68-1.33c1.675-.665,2.608-1.108,4.322-1.883a40.425,40.425,0,0,1,4.146-2.327c1.193-.554,2.288-1.773,4.23-2.881,1.193-.554,1.317-1.219,2.138-1.662s.652-1.219,2.288-1.773a5.159,5.159,0,0,0,2.367-1.994,4.726,4.726,0,0,1,2.477-1.994,1.75,1.75,0,0,1,2.594,1.44,3.266,3.266,0,0,1-1.675,2.549c-1.043.443-1.409,2.106-1.9,2.549a6.65,6.65,0,0,0-1.786,2.549,17.737,17.737,0,0,1-1.786,2.548,24.939,24.939,0,0,1-3.605,4.876c-.944,1.108-.918,1.662-1.786,2.549-.828.776-1.258,1.994-1.858,2.438s-2.62-.11-3.546,0a12.845,12.845,0,0,1-3.474.111c-.736-.111-2.255.11-3.435,0a16.834,16.834,0,0,0-3.435,0,9.385,9.385,0,0,1-3.546,0c-1.512-.111-2.367.11-3.435,0a18.5,18.5,0,0,1-3.546,0c-.991-.333-2.106,0-3.436,0-1.369.11-1.995,0-3.435,0h-3.546a32.575,32.575,0,0,1-3.324,0,9.018,9.018,0,0,0-3.4-.111c-1.559.333-2.138-.222-3.514.222a11.962,11.962,0,0,1-3.663.333h-3.546a9.21,9.21,0,0,1-3.421-.665c-1.76-.665-1.9-1.219-1.695-2.106.274-.776,1.356-1.33,3.22-2.216a16.723,16.723,0,0,1,3.6-.776,11.272,11.272,0,0,1,2.594-.443,4.975,4.975,0,0,0,3.422-1.219l2.047-2.66c.762-1.219.828-2.659,1.518-3.989.769-1.551,1.258-3.879,2.191-6.205a45.924,45.924,0,0,0,2.19-6.206c.711-2.326,1-4.1,2.191-6.205,1.075-2.106,1.33-3.767,2.19-6.205.626-1.773,1.852-3.989,2.191-6.206.437-1.551,1.4-3.656,2.19-6.205.665-1.883.965-3.989,2.191-6.205,1.069-1.773,1.147-3.879,2.151-6.095a15.08,15.08,0,0,0,1.336-4.1l-.02-2.77c.052-.776-.821-1.44-1.74-1.662-1.4-.111-2.549,0-4.322,0-2.327,0-3.376-1.108-3.1-2.216.437-1.551,1.3-2.106,2.751-2.77,1.193-.554,2.255-.111,3.474-.111,1.7-.11,2.21.333,3.435,0a17.774,17.774,0,0,1,3.436,0H186.7a64.359,64.359,0,0,1,6.538,0c1.44,0,2.1.333,3.324,0a17.79,17.79,0,0,1,3.435,0,32.491,32.491,0,0,0,3.324,0,11.022,11.022,0,0,0,3.324,0c1.629-.222,1.616.443,3.435,0a32.5,32.5,0,0,1,3.324,0c1,0,1.76.665,3.435,0a3.868,3.868,0,0,1,3.324,0c.658.333,2.809-.11,3.435,0,1.362.222,2.262-.443,3.285.111,1.278.776.117,3.435.169,4.543.046,1.44-.359,3.213.02,4.654a14.133,14.133,0,0,1,.019,4.654C226.878,18.173,228.468,19.945,227.074,21.386Zm-78.467.554c-.579,1.329-1.153,2.326-1.466,3.213a9.465,9.465,0,0,1-1.982,3.1c-1.056,1.108-1.375,2.327-2.307,2.77a10.581,10.581,0,0,0-2.784,2.549,8.725,8.725,0,0,1-3.148,2.327,13.221,13.221,0,0,1-3.324,1.884,9.5,9.5,0,0,0-3.8,1.662c-1.792,1-2.483.443-4.087,1.219a10.075,10.075,0,0,0-2.952,1.773,2.288,2.288,0,0,0-.8,2.881,9.158,9.158,0,0,1,.769,2.216c.163,1.108-.176,1.44.4,2.326a17.841,17.841,0,0,1,.711,3.324,9.812,9.812,0,0,0,.639,3.213c.378,1.441.326,2.217.567,3.1a7.845,7.845,0,0,0,.567,3.1c.684.886.143,2.1.717,2.992.821,1.44.71,3.324.919,3.989a5.768,5.768,0,0,0,1.5,2.659,10.2,10.2,0,0,0,2.7,1.773c.73.444,3.546,0,4.419.665,1.454,1.219.345,3.1-.2,4.322s-3.109.332-4.693.11-3.624.222-4.583.111L122,79.117c-1.44,0-3.6,1.108-4.543,0a3.8,3.8,0,0,1-.4-2.327c-.013-1.219-.489-1.44-.508-2.326a7.867,7.867,0,0,0-.436-2.217c-.352-.886-.861-1.329-.508-2.326s-.345-1.219-.4-2.327c-.013-1.219-.346-1.219-.508-2.327a8.679,8.679,0,0,1-.437-2.216,3.575,3.575,0,0,0-.4-2.327,10.127,10.127,0,0,1-.508-2.326c-.241-.887-.828-1.108-.4-2.327.162-.776-.235-1.219-.508-2.327a8.534,8.534,0,0,1-.437-2.216,11.824,11.824,0,0,0-.639-3.213c-.359-.554-.359-2.438-.5-2.992a6.258,6.258,0,0,0-3.011-2.77,26.4,26.4,0,0,1-2.992,0c-.847-.111-1.343.665-2.288,1.773a14.562,14.562,0,0,0-1.988,3.435c-.971,2.438-1.525,4.322-2.151,6.095a40.938,40.938,0,0,0-2.073,5.872A61.876,61.876,0,0,1,94.3,65.6c-.665,1.883-1.16,2.659-1.3,3.989a11.027,11.027,0,0,0,.02,2.77c.1.665.866,1,1.851,1.662.508.444,2.184-.222,3.467.222,1.8.553,1.486,3.324.059,4.542-1.577,1.33-2,0-3.553.333a14.426,14.426,0,0,1-3.7.111c-1.329,0-1.955-.111-3.656,0a18.933,18.933,0,0,1-3.546,0,7.95,7.95,0,0,0-3.846.222c-1.858.554-2.249-.222-3.735.222a5.611,5.611,0,0,1-3.807.11c-1.577-.553-2.809.111-3.6-.775-.978-1-.15-3.657,1.487-4.211a10.039,10.039,0,0,1,3.637-.886,4.715,4.715,0,0,0,2.555-.333c1.942-1.108,2.933-.776,3.422-1.219,1.128-1,1.956-1.773,2.086-2.77.013-.665,1.154-2.327,1.519-3.989.143-1.662,1.851-3.989,2.19-6.205.4-1.441,1.4-3.657,2.151-6.095.665-1.884,1-4.1,2.191-6.205,1.108-1.884,1.186-3.99,2.229-6.316a23.15,23.15,0,0,0,2.19-6.206c.255-1.662,1.48-3.878,2.191-6.205.965-2.106,1.18-3.656,2.19-6.205,1-1.884,1.186-3.989,2.151-6.095a9.325,9.325,0,0,0,1.3-3.989c.326-1.551.339-2.216.02-2.881-.248-.554-1.226-1.551-1.779-1.551-.959-.11-3.775.333-4.765,0-1.356-.553-1.9-1.219-1.767-2.216A3.571,3.571,0,0,1,95.942,2.88c1.818-.443,2.92-.11,4-.332a22.029,22.029,0,0,1,3.917-.111,13.941,13.941,0,0,0,3.767,0,21.4,21.4,0,0,1,3.767,0h3.879c.736.111,2.184-.222,3.878,0a20.853,20.853,0,0,0,3.767,0h3.767c1.663,0,3.064.111,4.687.222a21.238,21.238,0,0,1,4.641.665l4.445,1.219a37.557,37.557,0,0,1,3.878,1.883c1.063.443,1.623,1.994,2.979,2.549,1.466.554,1.688,2.438,1.89,3.435a11.105,11.105,0,0,1,.62,4.211A14.162,14.162,0,0,1,148.607,21.94ZM137.383,12.3c-.2-1.33-.9-1.219-1.512-1.995a10.42,10.42,0,0,0-2.112-1.551,5.7,5.7,0,0,0-2.751-1A19.238,19.238,0,0,1,127.88,7.2c-1.03-.222-2.769,0-3.689-.222a10.47,10.47,0,0,0-4.55.333,20.163,20.163,0,0,0-3.311,1.219c-1.492.776-1.506,1.44-2.412,2.438a8.085,8.085,0,0,0-1.858,4.322c-.182,1.773-1.29,3.656-1.994,5.652-.861,2.438-1.48,3.878-2.034,5.762-.587,1.662-1.533,4.654-2.113,5.983-.587,1.662-.527,2.438.489,3.324a12.9,12.9,0,0,0,2.477,1.773,12.6,12.6,0,0,0,5.762,0c1.076-.222,2.464.553,3.624-.222.75-.553,2.373-.443,3.527-.886a19.177,19.177,0,0,0,3.35-1.33c1.272-.776,2.054-1.108,3.064-1.773a17.712,17.712,0,0,0,2.816-2.326c.535-.887,1.434-1.551,2.418-2.77l1.871-3.1c1.063-1.44.855-2.106,1.623-3.657.424-.886.646-2.77,1-3.767.234-.665-.1-2.548.1-3.1C138.615,13.518,137.585,13.3,137.383,12.3ZM71.94,11.745a44.834,44.834,0,0,1-.1,4.986c-.222,1.884.854,3.546-.359,5.1A4.935,4.935,0,0,1,67.39,23.38c-.918-.222-.84-2.327-1-3.436l-1.264-3.324a19.32,19.32,0,0,0-1.531-2.881,20.362,20.362,0,0,0-1.871-2.549,5.352,5.352,0,0,0-2.431-2.216,10.689,10.689,0,0,1-2.848-1.662A32.934,32.934,0,0,0,53.064,6.2a10.3,10.3,0,0,0-3.722-.443c-2.66,0-3.67.665-5.965.886-1.369.111-1.864.887-2.829,1.108A9.337,9.337,0,0,0,37.714,9.2a18.484,18.484,0,0,0-2.471,1.663c-1.2.886-1.317,1.219-2.477,1.995a9.213,9.213,0,0,0-2.372,2.326c-.418.554-1.916,1.663-2.191,2.438A20.17,20.17,0,0,1,26.2,20.167c-.763,1.219-1.591,1.995-1.976,2.77a17.957,17.957,0,0,1-1.753,2.77c-1.056,1.108-1.115,2.216-1.643,2.77a17.706,17.706,0,0,0-2.77,5.651c-.971,2.438-1.513,3.657-2.1,5.319a50.478,50.478,0,0,0-1.7,5.762,15.308,15.308,0,0,0-.685,2.881,10.326,10.326,0,0,1-.391,2.992c-.691,1.329.085,1.329-.313,2.77a12.58,12.58,0,0,0,.02,2.77c-.065,1.44-.079,2.1.208,2.548.684.887.117,1.551.469,2.438.307,1.329-.254,1.662.62,2.327.73.443.521,1.662,1.03,2.1.945.776.854,1.663,1.33,1.884.912.553.717,1.108,1.668,1.551a7.11,7.11,0,0,1,1.968,1.33,4.554,4.554,0,0,0,2.457.887,8.338,8.338,0,0,0,2.686.553c.775,0,2.021.554,3.135.222.743-.222,2.32.332,3.734-.222a28.007,28.007,0,0,1,3.637-.886c.854-.222,2.2-.886,3.611-1.44a9.212,9.212,0,0,0,3.507-1.773c.489-.443,2.17-1.441,3.37-2.327a28.169,28.169,0,0,0,3.116-2.549c1.128-1,1.245-1.33,3.011-2.881,1.577-1.33,1.16-2.66,2.947-3.324a2.565,2.565,0,0,1,3.18,1.662c.313,1-2.229,2.549-3.331,4.1-.724,1.108-2.523,2.438-3.507,3.656-.8,1-2.849,2.106-3.761,3.436-1.362,1.662-2.516,2.1-4.088,3.1-.71.444-1.682,1-2.731,1.773-.75.554-1.936.776-2.764,1.551-1.089.887-2.086.887-2.8,1.33-.6.443-1.858.554-2.829,1.108-1.049.776-2.079.554-2.861.887a9.793,9.793,0,0,1-2.744.554c-2.373.443-3.552.332-5.514.554-1.629.222-2.36-.222-3.468-.222-1.44,0-2.242-.553-3.239-.553-1.108,0-1.962.222-2.9-.887-.652-.665-1.539-.665-2.523-1.33A17.272,17.272,0,0,1,7.29,76.236c-.717-1.108-1.525-1.33-1.995-1.884a11.782,11.782,0,0,1-1.584-2.106c-.248-.553-.861-1.329-1.356-2.438a19.732,19.732,0,0,0-.984-2.549,4.809,4.809,0,0,1-.684-2.77,17.25,17.25,0,0,0-.424-2.881,14.624,14.624,0,0,1-.124-3.1,23.661,23.661,0,0,0,.137-3.213c.059-1.108.339-2.216.47-3.213a27.319,27.319,0,0,1,.769-3.436c.234-.665.515-1.773,1.1-3.435A11.783,11.783,0,0,1,3.98,41.664a39.879,39.879,0,0,0,1.734-3.656A20.956,20.956,0,0,0,7.6,34.24a9.418,9.418,0,0,1,2.288-3.657c1.252-1.662,1.121-2.549,2.438-3.767a21.863,21.863,0,0,0,2.732-3.656c.5-.776,2.08-2.438,2.914-3.546.417-.554,1.734-1.773,3.057-3.324a15.5,15.5,0,0,1,3.35-3.213c1.493-.776,1.956-1.773,3.455-2.881,1.539-1.219,2.353-1.329,3.559-2.549.528-.553,2.614-1.44,3.774-2.216a20.965,20.965,0,0,1,3.879-1.883,25.711,25.711,0,0,1,3.9-1.33,11.675,11.675,0,0,1,4.08-.886c1.59-.111,2.523-.554,4.106-.333,1.695.222,3.285.11,4.608.443,1.727.443,2.49,1.108,4.185,1.33,2.132.554,3.129.554,3.859,1,.691.554,2.77,0,4.074-.554,1.486-.443,2.985-1.551,4.308-1.219,1.91.554.2,3.213-.059,4.875A31.026,31.026,0,0,0,71.94,11.745Z" transform="translate(-0.072 -0.936)" fill="#131a22" fill-rule="evenodd"/>
</svg>
