<svg xmlns="http://www.w3.org/2000/svg" width="34.827" height="47.5" viewBox="0 0 34.827 47.5">
  <path id="_1" data-name="1" d="M34.016,5.645a7.018,7.018,0,0,0-.857,2.429c-.194.742-.572,1.619-.834,2.36a15.49,15.49,0,0,0-.809,2.293,16.422,16.422,0,0,1-.834,2.361l-.81,2.293-.833,2.36c-.4.944-.576,1.821-.834,2.361A15.353,15.353,0,0,0,27.4,24.4a16.417,16.417,0,0,1-.833,2.361c-.4.944-.6,1.888-.834,2.36a15.054,15.054,0,0,0-.81,2.293c-.079.607-.52,1.282-.81,2.293-.329.742-.453,1.282-.833,2.361a15.406,15.406,0,0,0-.81,2.293c-.2,1.146-.806,2.091-1.028,3.1-.206,1.349-.194,1.889.492,2.429a4.3,4.3,0,0,0,1.448.674,13.878,13.878,0,0,0,1.769.337,6.346,6.346,0,0,0,1.908.135,6.228,6.228,0,0,1,1.956,0c1.619,0,1.063,1.956.349,2.833-.623.809-2.409.135-3.555.135-1.417,0-2.52.067-3.373,0a28.1,28.1,0,0,1-3.373,0,17.914,17.914,0,0,0-3.305,0h-3.44a28.908,28.908,0,0,1-3.44,0c-1.214,0-2.456.27-3.492.337H3.634a2.521,2.521,0,0,1-1.587-.472c-.754-.54-1.2-.81-1.008-1.349A3.275,3.275,0,0,1,3,45.171a3.938,3.938,0,0,1,1.964-.4,5.819,5.819,0,0,0,1.682.2,11.236,11.236,0,0,0,3.623-.135l1.988-.472a3.054,3.054,0,0,0,1.726-.877,6.612,6.612,0,0,0,1.48-2.091,11.331,11.331,0,0,0,.924-2.428,17.984,17.984,0,0,1,1.072-3.035c.381-1.079.575-1.822,1.1-3.1.536-.944.556-1.956,1.072-3.035l1.1-3.1a28.13,28.13,0,0,0,1.1-3.1l1.071-3.035c.286-.81.718-2.226,1.1-3.1a9.067,9.067,0,0,1,1.072-3.035c.377-.877.646-2.024,1-2.833a1.953,1.953,0,0,0-.293-2.226,2.945,2.945,0,0,0-2.436-.742,5.127,5.127,0,0,1-2.313-.135,5.876,5.876,0,0,0-2.428,0,5.722,5.722,0,0,1-2.385.068,1.137,1.137,0,0,1-1.027-1.484c.166-.472.532-.742,1.913-1.214a5.861,5.861,0,0,1,2.1-.607c.583.068,1.289-.4,1.964-.4a7.132,7.132,0,0,0,1.916-.27c.794-.337,1.06-.135,1.9-.405.813-.2,2.127-.674,2.623-.742a16.5,16.5,0,0,0,2.647-.81A26.341,26.341,0,0,1,32.878,1.8c.429-.068,1.936-1.282,2.738-.877.69.337-.552,1.754-.834,2.361Z" transform="translate(-0.994 -0.841)" fill="#fff" fill-rule="evenodd"/>
</svg>
