<svg id="_2" data-name="2" xmlns="http://www.w3.org/2000/svg" width="50.56" height="57.264" viewBox="0 0 50.56 57.264">
  <path id="_2-2" data-name="2" d="M123.634,16.147a22.4,22.4,0,0,1-.948,2.219c-.2.575-.222,1.562-1.247,2.137-.609.329-.963,1.562-1.436,1.973a7.438,7.438,0,0,0-1.543,1.808,11.569,11.569,0,0,1-1.842,1.726,14.77,14.77,0,0,1-1.924,1.726,10.4,10.4,0,0,0-2.031,1.561c-.556.411-1.586,1.233-2.113,1.562l-2.2,1.562a8.954,8.954,0,0,0-2.277,1.561c-.673.74-1.553.9-2.167,1.479-.725.658-.817,1.151-2.248,1.479-.991.247-1.751,1.233-2.278,1.562-.831.493-1.277.822-2.248,1.479l-2.2,1.562a17.391,17.391,0,0,0-2.194,1.561c-.76.986-1.809,1.4-2.868,2.3a9.078,9.078,0,0,0-1.755,1.479c-.923.986-1.784,1.562-2.287,2.055a1.679,1.679,0,0,0-.392,1.808c.314.74,1.354.822,2.035.986a23.97,23.97,0,0,0,2.466,0h3.78c1.533.082,2.741-.082,3.781,0a13.818,13.818,0,0,0,2.659-.082c.8-.164,1.808,0,2.364-.41a12.419,12.419,0,0,1,2.185-1.069,5.729,5.729,0,0,0,2.311-1.89c1.035-1.068.89-2.055,1.949-2.959a27.969,27.969,0,0,1,3.075-3.123c1.223-.9,1.422-1.233,2.157-.986a2.73,2.73,0,0,1,.324,1.644,25.583,25.583,0,0,1-1.833,4.027,10.943,10.943,0,0,1-1.325,1.89,16.737,16.737,0,0,0-1.354,1.972A41.343,41.343,0,0,1,107.7,54.53c-1.126,1.562-1.1,3.123-2.268,3.863-1.247.74-2.712,0-3.945,0a30.219,30.219,0,0,0-3.974.082,31.553,31.553,0,0,1-3.945,0,30.218,30.218,0,0,0-3.863,0c-1.209.164-2.6-.082-3.945,0-1.18.082-2.794,0-3.863,0-1.59.082-2.354-.082-3.834-.082-1.315,0-3.689.9-4.081-.082-.314-.74.619-2.219,1.074-3.041l2.157-2.383A19.673,19.673,0,0,1,79.534,50.5a21.969,21.969,0,0,1,2.4-2.384c.837-.74,1.344-1.479,2.374-2.3A12.51,12.51,0,0,1,86.738,43.6,13.475,13.475,0,0,0,89.3,41.462c.421-.493,1.7-1.315,2.534-2.055l2.534-2.055a21.419,21.419,0,0,1,1.948-1.562c.831-.493.982-1.15,1.92-1.479.774-.329,1.508-1.479,2.616-2.055a11.836,11.836,0,0,0,2.727-2.137,10.837,10.837,0,0,1,2.563-2.137,12.78,12.78,0,0,0,2.485-2.383,30.631,30.631,0,0,0,2.238-2.383,16,16,0,0,0,1.968-2.548,12.684,12.684,0,0,1,1.668-2.63c.754-.74.663-1.644,1.233-2.794.716-1.562.464-2.713.846-4.028a5.343,5.343,0,0,0-.706-3.123,7.707,7.707,0,0,0-2.151-2.055,5.139,5.139,0,0,0-3.655-.822c-.575,0-2.089.329-2.828.329a8.024,8.024,0,0,0-3.089,1.068,7.444,7.444,0,0,0-2.664,1.726,8.423,8.423,0,0,0-1.639,2.548,11.049,11.049,0,0,0-.179,2.137c-.106,1.233.246,1.4.208,1.972a4.8,4.8,0,0,1-.339,1.89A4.464,4.464,0,0,1,97.2,20.01a7.047,7.047,0,0,1-3.592,1.562c-.851.082-1.32.246-1.769-.575-.29-.575-.672-.658-1.068-1.4a2.348,2.348,0,0,1-.266-1.808,7.966,7.966,0,0,1,.315-2.055,9.91,9.91,0,0,0,1.228-2.548,5.253,5.253,0,0,1,1.857-2.466c1.228-1.151,1.624-1.808,2.127-2.3a13.253,13.253,0,0,1,2.423-1.972c.861-.575.919-.74,1.639-1.151a12.343,12.343,0,0,1,1.774-1.068,34.188,34.188,0,0,1,3.51-1.562c.991-.247,2.205-.657,3.607-.9a13.013,13.013,0,0,1,3.457-.247,27.78,27.78,0,0,0,3.118.247,4.111,4.111,0,0,1,2.7.74,13.725,13.725,0,0,0,2.359,1.233c.977.494.851,1.315,1.857,1.726a3.663,3.663,0,0,1,1.33,2.055,6.7,6.7,0,0,1,.662,2.548c.034,1.069,0,1.644,0,2.794A13.621,13.621,0,0,1,123.634,16.147Z" transform="translate(-73.92 -1.508)" fill="#fff" fill-rule="evenodd"/>
</svg>
