<svg id="_3" data-name="3" xmlns="http://www.w3.org/2000/svg" width="47.23" height="58.1" viewBox="0 0 47.23 58.1">
  <path id="_3-2" data-name="3" d="M199.755,11.955A14.2,14.2,0,0,1,199.011,15a18.918,18.918,0,0,1-2.19,4.11A6.522,6.522,0,0,1,195.249,21c-.585.493-.813.9-1.76,1.726a13.449,13.449,0,0,0-1.948,1.561c-.673.74-1.47.9-2.055,1.4C188.2,26.75,187.543,27,187.049,27a3.234,3.234,0,0,0-2.514,1.068c-.846,1.233,1.542.986,2.456,1.89a6.239,6.239,0,0,1,1.774,1.726,10.684,10.684,0,0,1,1.281,1.726,4.452,4.452,0,0,1,.87,1.726,7.818,7.818,0,0,1,.537,1.972c-.044.822.241,1.644.15,2.137a8.089,8.089,0,0,1-.208,2.219c-.232.658-.5,1.89-.619,2.219a35.069,35.069,0,0,1-1.745,3.781c-.484.9-1.63,2.055-2.447,3.206a14.709,14.709,0,0,1-2.848,2.712,23.613,23.613,0,0,1-3.278,2.3,16.547,16.547,0,0,1-3.6,1.808c-1.243.493-2.152.74-3.723,1.233a14.437,14.437,0,0,1-3.713.74c-1.562,0-2.306.246-3.621.246a20.962,20.962,0,0,1-2.519-.082,24.4,24.4,0,0,1-2.62-.494,7.139,7.139,0,0,1-2.422-.822,20.839,20.839,0,0,0-2.335-1.069,8.524,8.524,0,0,1-1.75-1.561c-.672-.658-1.435-.822-1.194-1.973a6.947,6.947,0,0,0-.391-2.383,4.559,4.559,0,0,1,.6-2.876c.454-.822,1.339-2.63,2.5-3.37s2.388-1.644,3.921-1.562a3.711,3.711,0,0,1,2.737,1.562,4.82,4.82,0,0,1,.1,3.452,20.484,20.484,0,0,0-.957,4.11c-.025,1.233.734,1.644,1.024,2.219.285.822,1.489.9,2.118.986a7.029,7.029,0,0,1,2.214.247,4.843,4.843,0,0,0,2.717-.247c1.214-.411,2.06-.247,2.563-.74a4.294,4.294,0,0,1,2.3-1.151,4.118,4.118,0,0,0,2.084-1.479c.7-.575,1.233-1.4,1.9-1.89a5.412,5.412,0,0,0,1.63-2.055c.571-1.151,1.04-1.315,1.334-2.383.208-.822.658-1.4,1.064-2.548a7.466,7.466,0,0,0,.735-2.548,5.707,5.707,0,0,1,.349-2.383c.237-.9-.218-1.479.015-2.137.237-.9-.14-1.233-.454-1.972L182.136,33a2.574,2.574,0,0,0-1.455-1.233l-1.958-.74a6.807,6.807,0,0,0-2.543-.247c-3.5-.082-4.148.575-4.579.164-.484-.493-1.6-1.068-1.388-1.89a3.048,3.048,0,0,1,2.892-2.137,8.776,8.776,0,0,0,3.259.082,23,23,0,0,1,2.857-.411,6.489,6.489,0,0,0,2.814-.986,7.524,7.524,0,0,0,2.384-1.4c.672-.74,1.576-.74,2.117-1.809.484-.9,1.334-.986,1.876-2.055.174-.493.963-1.561,1.417-2.383A23.679,23.679,0,0,0,191,15.325a19.727,19.727,0,0,0,.875-4.11,9.055,9.055,0,0,0-.623-3.123,4.734,4.734,0,0,0-2.151-2.055c-1.364-.329-1.813-1.151-3.8-.657a5.558,5.558,0,0,1-2.388.246,5.633,5.633,0,0,0-2.509.822c-.72.411-1.519.575-2.084,1.479-.648.9-1.228,1.151-1.33,2.137a9.672,9.672,0,0,1-1.523,3.617,8.839,8.839,0,0,1-1.745,2.383c-1.586,1.233-2.417,1.726-3.568,1.726a2.844,2.844,0,0,1-2.518-1.479c-.281-1.068-.943-2.219-.184-3.206.619-.822.638-1.808,1.479-2.794.788-1.068,1.31-1.151,2.045-2.3a22.541,22.541,0,0,1,2.558-1.89,13.136,13.136,0,0,1,2.963-1.644,10.124,10.124,0,0,1,3.148-1.233l3.031-.9c.933-.082,1.789-.411,2.886-.494l2.524-.164a6.256,6.256,0,0,1,2.818.164c.871.329,1.775.329,2.563.658,1.005.411,1.624.986,2.224,1.151.735.246,1,.9,1.861,1.479.812.493.909,1.151,1.358,1.972a3.915,3.915,0,0,1,.7,2.219A14.9,14.9,0,0,0,199.755,11.955Z" transform="translate(-152.533 -1.608)" fill="#fff" fill-rule="evenodd"/>
</svg>
