<svg id="_4" data-name="4" xmlns="http://www.w3.org/2000/svg" width="42.721" height="56.891" viewBox="0 0 42.721 56.891">
  <path id="_4-2" data-name="4" d="M270.138,7.024c-.4,2.055-1.243,3.287-1.712,4.849-.377,1.068-.692,1.726-.871,2.465a14.594,14.594,0,0,1-.87,2.466,16.283,16.283,0,0,0-1.712,4.849c-.556,1.809-1.325,3.288-1.712,4.849a39.309,39.309,0,0,0-1.741,4.932c-.208.822-.667,1.89-.9,2.548l-.9,2.548a3.179,3.179,0,0,0,.493,2.8c.416,1.15,1.4,1.15,2.331,1.314a23.321,23.321,0,0,0,2.572.165,6.436,6.436,0,0,1,2.49.164c1.364.329,1.455,1.233,1.223,1.89-.261.74-.846,1.233-2.5,1.972a13.724,13.724,0,0,1-2.688.164,18.123,18.123,0,0,1-2.717.247,5.2,5.2,0,0,0-3.108.657c-1.195.822-2.016.822-1.891,1.4a5.286,5.286,0,0,1-.986,2.794c-.6,1.233-.88,1.561-.788,2.466a2.447,2.447,0,0,0,.329,1.4c.184.411.595.411,1.33.658.788.329,1.871-.411,2.572.164a2.176,2.176,0,0,1-.15,3.452c-1.248.74-2.137,0-2.577.082a12.311,12.311,0,0,1-2.466,0,31.872,31.872,0,0,1-4.849,0,6.2,6.2,0,0,0-2.466,0,3.208,3.208,0,0,1-2.466,0c-.541-.329-1.7.164-2.548,0-.928-.164-2.336.329-2.519-.082-.208-.575-.14-2.63,1.19-3.37.831-.493,2.441-.164,3.292-.246a7.951,7.951,0,0,0,2.369-.658c.8-.411,1.271-.575,1.644-1.4.565-.9.575-1.4,1.117-2.466.256-.494.5-1.644.986-2.794.4-.9-.609-1.069-1.01-1.562a2.726,2.726,0,0,0-2.833-.822,9.82,9.82,0,0,1-2.712,0h-2.713a9.371,9.371,0,0,1-2.63,0,14,14,0,0,0-2.63,0,9.371,9.371,0,0,1-2.63,0c-.517-.165-2.262.822-2.6-.082a5.135,5.135,0,0,1,1.136-3.452c.561-.657,1.813-1.644,2.433-2.465a12.073,12.073,0,0,1,2.349-2.466,19.063,19.063,0,0,0,2.35-2.466c.42-.493,1.759-1.726,2.432-2.466a26.05,26.05,0,0,0,2.349-2.465,12,12,0,0,1,2.321-2.384c1.136-.657,1.426-1.479,2.432-2.465,1.035-1.069,1.586-1.233,2.35-2.466a32.371,32.371,0,0,1,2.461-2.548,28.682,28.682,0,0,1,2.432-2.465c.865-.822,1.373-1.562,2.321-2.384a18.842,18.842,0,0,1,2.379-2.548,16.517,16.517,0,0,0,2.514-2.466c.479-.657,1.427-1.479,2.21-2.3L266,4.558c1.005-.986,1-1.89,2.543-2.548a3.925,3.925,0,0,1,3.206,0c.488.246-.856,1.726-.818,2.548A14.514,14.514,0,0,1,270.138,7.024ZM258.733,17.215c-.87-.329-1.934.822-2.828,1.726a17.342,17.342,0,0,0-2.432,2.466c-.619.822-1.678,1.726-1.988,2.137-.561.658-1.349,1.726-1.9,1.89-.856.329-1.18,1.479-1.707,1.808a5.469,5.469,0,0,0-1.678,1.726,16.124,16.124,0,0,1-1.707,1.808c-.837.74-.87,1.069-1.678,1.726a6.2,6.2,0,0,0-1.678,1.726c-.367.575-1.9,1.644-2.349,2.466a4.56,4.56,0,0,0-.957,2.712c-.02.986,1.068,1.4,2.137,1.4a11.178,11.178,0,0,1,2.877,0c.923.41,3.311.164,4.52,0a6.9,6.9,0,0,0,2.9-.986,5.134,5.134,0,0,0,2.04-2.055c.436-1.233.629-2.713,1.277-3.617a8.729,8.729,0,0,0,1.247-3.534c.155-.9.865-2.219,1.248-3.534.265-.986,1.034-2.466,1.276-3.616A21.166,21.166,0,0,1,259,18.777C259.376,17.955,259.168,17.38,258.733,17.215Z" transform="translate(-229.13 -1.671)" fill="#fff" fill-rule="evenodd"/>
</svg>
