<svg xmlns="http://www.w3.org/2000/svg" width="48.923" height="57.252" viewBox="0 0 48.923 57.252">
  <path id="_5" data-name="5" d="M354.088,6.038A14.191,14.191,0,0,1,352.8,7.6c-.784.822-1.344,1.479-2.278,1.561-1.179.082-2.035.411-2.987.082-1.281-.329-1.809,0-2.959,0-1.233,0-1.837.082-2.959,0a5.028,5.028,0,0,0-2.959,0c-.744.246-2.19-.082-3.206,0a19.1,19.1,0,0,1-3.123,0c-.986,0-2.9.986-3.974,1.479a6.121,6.121,0,0,0-2.848,2.712,10.618,10.618,0,0,0-.981,2.548l-1.093,2.63c-.315.657-.663,1.644-.982,2.548a9.493,9.493,0,0,0-.232,3.452c.121.822.938,1.069,2.127.494a8.969,8.969,0,0,1,2.843-1.069c.962-.164,1.658-.74,2.316-.74,1.451.082,2.587-.575,3.791-.493,1.45.082,2.049.247,3.307.411a7.149,7.149,0,0,1,2.746,1.068,4.933,4.933,0,0,1,2.185,1.726,18.667,18.667,0,0,1,1.6,2.219,28.1,28.1,0,0,1,1.044,2.63c.232.74-.184,2.383.406,3.041.45.822-.019,2.383-.2,3.123-.3,1.315-.73,2.3-.861,3.37-.223,1.561-1.374,2.959-1.833,4.027a24.146,24.146,0,0,1-2.374,3.7c-.619.822-1.117,1.069-1.4,1.644-.454.822-1.277.822-1.567,1.644-.232.657-.348.986-1.673,1.479-.716.164-1.364,1.068-1.7,1.315a8.824,8.824,0,0,1-1.833,1.233,14.1,14.1,0,0,0-1.857,1.068c-.914.494-1.576.74-1.992.986a10.264,10.264,0,0,1-1.987.74,19.746,19.746,0,0,1-4.076,1.068c-1.209.165-3.084.822-4.172.411-.571-.246-1.591.082-2.408-.164a16.177,16.177,0,0,1-2.345-.575,17.513,17.513,0,0,0-2.147-.9,8,8,0,0,1-1.866-1.233,4.5,4.5,0,0,1-1.5-1.562,9.313,9.313,0,0,1-.865-1.972,5.745,5.745,0,0,1-.2-2.22c.29-.822-.159-1.644.547-2.712a9.325,9.325,0,0,1,2.5-3.37,8.576,8.576,0,0,1,3.757-1.562,3.165,3.165,0,0,1,2.465,1.4,3.061,3.061,0,0,1,.213,3.123,21.007,21.007,0,0,0-1.151,4.192,2.091,2.091,0,0,0,.609,2.466c.672.657,1.209,1.233,1.62,1.233.875.082,1.088.411,2.021.329l3.157-.329a14.462,14.462,0,0,0,2.867-.9,6.832,6.832,0,0,0,2.5-1.479A12.649,12.649,0,0,0,329,51.489c.7-.822,1.315-1.4,1.963-2.3.2-.329,1.354-1.973,1.639-2.548.512-.986.943-1.972,1.4-2.794a18.483,18.483,0,0,0,1.126-2.959,9.775,9.775,0,0,1,.788-2.466c.513-.986.247-1.4.541-2.465.121-.575.059-1.562.238-2.3a3.239,3.239,0,0,0-.068-2.137c-.184-.41-.2-.822-.623-1.726a10.909,10.909,0,0,0-1.233-1.4c-.241-.247-1.141-.493-1.817-.9a5.249,5.249,0,0,0-2.6-.329,19.063,19.063,0,0,0-3.544.493,8.841,8.841,0,0,0-3.365,1.151l-3.379,1.89c-.861.575-.89.657-1.722,1.151-.885.41-1.064,1.15-1.75,1.233a2.831,2.831,0,0,1-2.224-1.151c-.561-.74,1.175-2.63,1.552-3.7.551-1.562,1.2-2.466,1.605-3.617A33.783,33.783,0,0,0,318.972,21a36.031,36.031,0,0,1,1.441-3.617c.232-.657,1.145-2.548,1.354-3.37.179-.74.808-2.055,1.243-3.287a24.685,24.685,0,0,1,1.639-3.945c.822-1.4.344-3.534,1.557-3.945,1.243-.493,1.914.164,3.563-.082a16.139,16.139,0,0,1,3.452,0c.957.082,2.253-.329,3.452,0,.953.329,1.972,0,3.452,0a24.208,24.208,0,0,1,3.452,0c1.034.329,2.248-.082,3.452,0a26.391,26.391,0,0,0,3.506.082c1.29-.164,2.393-.493,3.5.082C354.881,3.326,354.634,4.722,354.088,6.038Z" transform="translate(-305.664 -2.589)" fill="#fff" fill-rule="evenodd"/>
</svg>
