<svg xmlns="http://www.w3.org/2000/svg" width="536.609" height="78.918" viewBox="0 0 536.609 78.918">
  <path id="パス_43681" data-name="パス 43681" d="M536.794,15.858a14.271,14.271,0,0,1-1.223,5.367c-.585,1.341-1.164,2.347-1.479,3.242a9.565,9.565,0,0,1-2,3.13c-1.066,1.118-1.388,2.348-2.328,2.8a10.646,10.646,0,0,0-2.809,2.572,8.806,8.806,0,0,1-3.177,2.348,13.327,13.327,0,0,1-3.353,1.9,9.584,9.584,0,0,0-3.835,1.677c-1.809,1.006-2.505.447-4.123,1.23a10.172,10.172,0,0,0-2.98,1.789c-1.761.783-1.342,1.9-.8,2.907a9.261,9.261,0,0,1,.776,2.236c.165,1.117-.177,1.453.4,2.347a17.927,17.927,0,0,1,.717,3.354,9.9,9.9,0,0,0,.644,3.242c.382,1.454.329,2.237.572,3.131a7.917,7.917,0,0,0,.573,3.131c.69.894.144,2.124.723,3.019.829,1.453.717,3.354.927,4.025a5.821,5.821,0,0,0,1.513,2.683,10.273,10.273,0,0,0,2.723,1.789c.737.448,3.578,0,4.459.671,1.466,1.23.348,3.13-.2,4.36s-3.137.335-4.735.111-3.656.224-4.623.112l-4.433-.112c-1.453,0-3.637,1.118-4.584,0a3.829,3.829,0,0,1-.4-2.348c-.014-1.23-.493-1.453-.513-2.347a7.939,7.939,0,0,0-.441-2.237c-.355-.894-.868-1.341-.513-2.347s-.348-1.23-.4-2.348c-.013-1.23-.348-1.23-.513-2.348a8.764,8.764,0,0,1-.44-2.236,3.6,3.6,0,0,0-.4-2.348A10.221,10.221,0,0,1,500,58.007c-.243-.895-.835-1.118-.4-2.348.165-.783-.236-1.23-.512-2.348a8.538,8.538,0,0,1-.441-2.236A11.928,11.928,0,0,0,498,47.833c-.362-.559-.362-2.46-.5-3.019a6.312,6.312,0,0,0-3.038-2.8,26.639,26.639,0,0,1-3.019,0c-.855-.112-1.355.67-2.309,1.789a14.723,14.723,0,0,0-2.006,3.466c-.98,2.459-1.539,4.36-2.17,6.149a41.209,41.209,0,0,0-2.092,5.925,62.427,62.427,0,0,1-2.092,5.926c-.67,1.9-1.171,2.683-1.308,4.025a11.182,11.182,0,0,0,.019,2.8c.1.67.875,1.006,1.868,1.677.513.448,2.2-.224,3.5.224,1.815.558,1.5,3.353.059,4.583-1.592,1.342-2.012,0-3.584.336a14.555,14.555,0,0,1-3.729.112c-1.342,0-1.973-.112-3.69,0a19.092,19.092,0,0,1-3.577,0,8.025,8.025,0,0,0-3.881.223c-1.874.559-2.268-.223-3.768.223a5.661,5.661,0,0,1-3.841.111c-1.592-.558-2.835.112-3.637-.782-.986-1.006-.151-3.69,1.5-4.249a10.129,10.129,0,0,1,3.67-.894,4.757,4.757,0,0,0,2.578-.336c1.96-1.117,2.96-.783,3.453-1.23,1.137-1.006,1.972-1.789,2.1-2.8.013-.67,1.164-2.348,1.533-4.025.145-1.677,1.867-4.025,2.21-6.261.4-1.454,1.414-3.69,2.171-6.149.67-1.9,1.013-4.137,2.21-6.261,1.118-1.9,1.2-4.026,2.249-6.373a23.329,23.329,0,0,0,2.21-6.261c.257-1.677,1.493-3.913,2.21-6.261.974-2.125,1.191-3.689,2.21-6.261,1.006-1.9,1.2-4.025,2.171-6.149A9.408,9.408,0,0,0,489,11.274c.329-1.565.342-2.236.02-2.907-.25-.559-1.236-1.565-1.8-1.565-.966-.111-3.808.336-4.807,0-1.368-.558-1.914-1.23-1.782-2.236a3.6,3.6,0,0,1,1.8-2.572c1.835-.447,2.946-.111,4.032-.335a22.22,22.22,0,0,1,3.952-.112,14.065,14.065,0,0,0,3.8,0,21.587,21.587,0,0,1,3.8,0h3.912c.744.112,2.2-.223,3.913,0a21.038,21.038,0,0,0,3.8,0h3.8c1.677,0,3.091.112,4.729.223a21.428,21.428,0,0,1,4.683.671l4.485,1.23a38.063,38.063,0,0,1,3.913,1.9c1.072.447,1.638,2.012,3.006,2.572,1.479.559,1.7,2.459,1.906,3.466A11.2,11.2,0,0,1,536.794,15.858ZM524.246,11.5c-.2-1.342-.908-1.23-1.526-2.012a10.539,10.539,0,0,0-2.131-1.565,5.747,5.747,0,0,0-2.775-1.006,19.368,19.368,0,0,1-3.157-.559c-1.039-.223-2.8,0-3.723-.223a10.559,10.559,0,0,0-4.59.336A20.348,20.348,0,0,0,503,7.7c-1.507.783-1.519,1.453-2.434,2.459a8.164,8.164,0,0,0-1.874,4.36c-.185,1.789-1.3,3.689-2.013,5.7-.868,2.459-1.493,3.913-2.052,5.814-.592,1.677-1.545,4.7-2.131,6.037-.592,1.677-.533,2.459.493,3.354a12.987,12.987,0,0,0,2.5,1.789,12.71,12.71,0,0,0,5.813,0c1.085-.224,2.486.558,3.656-.224.757-.558,2.394-.447,3.558-.894a19.357,19.357,0,0,0,3.38-1.342c1.282-.783,2.072-1.117,3.091-1.789a17.834,17.834,0,0,0,2.841-2.347c.539-.895,1.447-1.565,2.44-2.8l1.887-3.131c1.072-1.453.862-2.125,1.638-3.69.428-.894.651-2.8,1.006-3.8.237-.67-.1-2.571.1-3.13C525.489,12.727,524.45,12.5,524.246,11.5Zm-67.9,9.168a6.144,6.144,0,0,1-4.051,1.341c-2.085-.111-.77-2.571-1.638-3.913-.546-.67-1.184-2.348-1.69-3.131-.532-1.341-1.874-1.341-1.887-2.572-.091-1.006-1.051-1.453-2.045-2.124L442.462,8.7a14.644,14.644,0,0,0-3.256-1.23,8.274,8.274,0,0,0-3.9-.671c-1.045.112-3.123-.335-4.616-.223-1.94.112-3.163-.223-4.288.112s-2.276.111-3.518.783a8.43,8.43,0,0,0-2.65,2.124,21.185,21.185,0,0,0-1.941,3.913c-1.157,2.012-1.157,3.913-2.091,5.926a18.469,18.469,0,0,0-2.132,6.037c-.644,2.459-1.539,4.36-2.21,6.261a8.648,8.648,0,0,0-.776,3.466c-.329,1.565-.447,1.9.447,1.9,1.342,0,3.328-.559,4.959-.112.927.224,2.73-.447,3.847-.447.895,0,2.137-.67,3.143-.67a3.8,3.8,0,0,0,2.559-1.23c1.479-1.342,3.17-2.012,4.321-3.69a11.7,11.7,0,0,0,2.144-2.906c.395-1.118.4-3.354,2.348-3.8,1.085-.223,2.664-.895,3.689,0,1.1,1.006-.908,2.572-1.27,3.913-.184,1.789-1.387,2.348-1.269,3.913.06.783-1.1,3.13-1.342,3.8l-1.3,3.689c-.368,1.678-1.328,3.131-1.381,3.913a10.283,10.283,0,0,1-1.342,3.8,19.323,19.323,0,0,0-1.493,3.913,13.63,13.63,0,0,1-1.494,3.913c-.8,1.006-3.558.894-3.729.112a6.112,6.112,0,0,1,.526-4.026c.513-1.453.151-2.012-.013-3.13l-.553-2.236a1.865,1.865,0,0,0-1.012-1.565,10.515,10.515,0,0,1-1.914-1.23,7.2,7.2,0,0,0-2.558-.671,25.434,25.434,0,0,1-3.459-.335,8.8,8.8,0,0,0-4.321-.112,3.6,3.6,0,0,0-2.46,1.9c-.316.894-1.308,2.124-1.9,3.8-.513,1.453-.861,2.124-1.184,3.353a19.9,19.9,0,0,1-1.184,3.354c-.519,1.789-1.46,4.137-2.288,6.485-.79,2.236-1.842,4.583-2.249,6.372s-1.072,3.354-1.086,4.026a3.737,3.737,0,0,0,.664,2.236c.362.559.921.559,2.368.894a14,14,0,0,0,4.057.223c2.243-.335,3.729-.111,5.373-.335a21.186,21.186,0,0,0,4.86-.783,36.026,36.026,0,0,0,4.722-1.342c1.69-.67,2.63-1.118,4.36-1.9a40.787,40.787,0,0,1,4.183-2.348c1.2-.559,2.308-1.789,4.268-2.907,1.2-.559,1.328-1.23,2.157-1.677s.658-1.23,2.308-1.789a5.205,5.205,0,0,0,2.388-2.012,4.768,4.768,0,0,1,2.5-2.012A1.764,1.764,0,0,1,445.09,58.9a3.291,3.291,0,0,1-1.69,2.572c-1.052.447-1.421,2.125-1.914,2.572a6.708,6.708,0,0,0-1.8,2.572,17.975,17.975,0,0,1-1.8,2.571,25.2,25.2,0,0,1-3.637,4.92c-.954,1.118-.927,1.677-1.8,2.572-.835.783-1.27,2.012-1.875,2.459s-2.644-.111-3.578,0a12.961,12.961,0,0,1-3.505.112c-.743-.112-2.276.111-3.466,0a16.985,16.985,0,0,0-3.466,0,9.469,9.469,0,0,1-3.578,0c-1.526-.112-2.388.111-3.466,0a18.666,18.666,0,0,1-3.578,0c-1-.336-2.124,0-3.466,0-1.381.111-2.012,0-3.466,0h-3.578a32.876,32.876,0,0,1-3.354,0,9.1,9.1,0,0,0-3.427-.112c-1.572.336-2.157-.224-3.544.223a12.069,12.069,0,0,1-3.7.336h-3.578a9.3,9.3,0,0,1-3.453-.67c-1.775-.671-1.914-1.23-1.709-2.125.276-.783,1.368-1.342,3.248-2.236a16.892,16.892,0,0,1,3.631-.783,11.372,11.372,0,0,1,2.617-.447,5.02,5.02,0,0,0,3.453-1.23l2.066-2.684c.769-1.23.835-2.683,1.532-4.025.776-1.565,1.27-3.913,2.211-6.261a46.325,46.325,0,0,0,2.21-6.261c.718-2.347,1.013-4.136,2.211-6.261,1.085-2.125,1.342-3.8,2.21-6.261.631-1.789,1.869-4.025,2.21-6.261.441-1.564,1.413-3.689,2.21-6.261.671-1.9.974-4.025,2.211-6.261,1.079-1.789,1.157-3.913,2.17-6.149a15.183,15.183,0,0,0,1.349-4.137l-.02-2.8c.052-.783-.829-1.453-1.756-1.677-1.413-.112-2.571,0-4.36,0-2.348,0-3.407-1.118-3.124-2.236.441-1.565,1.309-2.125,2.776-2.8,1.2-.559,2.276-.112,3.505-.112,1.717-.111,2.23.336,3.466,0a17.923,17.923,0,0,1,3.465,0h3.466a64.933,64.933,0,0,1,6.6,0c1.453,0,2.117.336,3.353,0a17.959,17.959,0,0,1,3.466,0,32.782,32.782,0,0,0,3.354,0,11.115,11.115,0,0,0,3.353,0c1.644-.223,1.631.447,3.466,0a32.772,32.772,0,0,1,3.353,0c1.007,0,1.776.671,3.466,0a3.9,3.9,0,0,1,3.354,0c.664.336,2.834-.111,3.466,0,1.374.223,2.282-.447,3.314.112,1.289.783.119,3.466.171,4.584.046,1.453-.362,3.242.019,4.7a14.258,14.258,0,0,1,.02,4.7C456.154,17.423,457.758,19.211,456.351,20.665Zm-84.383,4.248c-.27.447-1.67,1.565-1.947,2.348-.387.783-.953,1.117-2.2,2.124-.947.783-2.118,1.565-2.46,1.9a10.134,10.134,0,0,1-2.907,1.9c-1.2.559-1.822,1.678-3.13,1.9-1.2.223-3.229,1.23-3.545,2.125-.664,1.564,1.69,1.23,2.906,1.9a31.183,31.183,0,0,0,2.533,2.012c.664.336,1.492,1.789,2.045,2.125a3.715,3.715,0,0,1,1.592,2.459,21.1,21.1,0,0,0,1.065,2.683,3.9,3.9,0,0,1,.5,3.019c-.25,1.341.408,2.012-.139,3.242a17.961,17.961,0,0,0-.888,3.466,14.7,14.7,0,0,1-1.328,3.131c-.277.783-1.033,1.341-1.809,2.906-.658,1.23-1.487,1.678-2.177,2.684-.7,1.341-2.006,1.565-2.585,2.572a4.011,4.011,0,0,1-2.8,2.236,12.016,12.016,0,0,0-3.058,2.012,14.406,14.406,0,0,1-3.124,1.565c-1.387.447-2.256,1.006-3.38,1.341a18.3,18.3,0,0,1-4.571,1.231c-1.269.111-3.663.558-4.748.782-1.2.224-3.17.112-4.59.336a18.689,18.689,0,0,1-4.288.112H322.9a22.724,22.724,0,0,0-3.913,0,24.21,24.21,0,0,1-4.026,0,24.2,24.2,0,0,0-4.025,0c-.934.111-2.387.111-3.991.223-1.118,0-3.177.447-4.032.335-.815-.223-3.248.336-4.025,0-1.44-.67-2.493-.223-3.86-.782-1.184-.448-1.579-1.231-1.263-2.125.356-1.006.96-1.453,2.762-2.125,1.946-.447,3.117-1.23,3.67-.894.368.224,2.059-.447,2.578-.336a3.057,3.057,0,0,0,3.453-1.23c.532-.559,2.085-1.789,2.1-2.8a15.125,15.125,0,0,1,1.532-4.025l2.171-6.149c.671-1.9,1.605-3.913,2.211-6.261.743-1.789,1.453-3.8,2.21-6.261.717-2.348,1.342-3.8,2.21-6.261a36.039,36.039,0,0,0,2.249-6.373c.519-1.789,1.374-3.578,2.21-6.261.513-1.453,1.118-3.8,2.171-6.149,1.013-2.236,1.545-4.7,2.21-6.261a9.418,9.418,0,0,0,1.308-4.025c.29-1.453.3-2.125-.019-2.8-.362-.559-1.2-1.678-1.756-1.678-.966-.111-3.874-.111-5.063-.223-1.04-.223-3.414-.783-3.012-2.236s2.2-2.125,3.367-2.572c.9-.335,1.855.447,3.394-.111a3.958,3.958,0,0,1,3.393-.112c.664.336,2.8,0,3.354,0a16.817,16.817,0,0,0,3.354,0h12.857a37.758,37.758,0,0,1,6.109.112,7.351,7.351,0,0,0,3.091.111c1.533-.223,2.414.447,3.124.336a4.328,4.328,0,0,1,2.933.559c.625.447,1.783.335,2.743.783A6.646,6.646,0,0,1,369.2,4.565c.842.783,1.131,1.23,2.282,1.453a3.158,3.158,0,0,1,2.447,2.572c.046,1.454,1.223,2.237,1.427,3.243l.375,3.689c.052,1.118-.757,2.459-.9,4.137C374.652,21.112,373.27,23.124,371.968,24.913ZM328.3,45.372c-.592,1.678-1.02,2.572-1.605,3.913-.664,1.565-1.177,3.019-1.565,3.8a32.294,32.294,0,0,0-2.552,6.6,37.376,37.376,0,0,0-2.289,6.484,23.1,23.1,0,0,1-1.427,4.36,2.67,2.67,0,0,0,.026,2.459,2.932,2.932,0,0,0,1.953,1.118c.967.112,2.828.223,4.169.223,1.454,0,2.953-.447,4.624-.111,1.184.447,2.65-.224,4.367-.336,1.493-.112,2.736-.783,4.077-.783,1.118,0,2.519-1.118,3.867-1.453a8.332,8.332,0,0,0,3.618-2.012c1.328-1.23,1.749-1.789,3.15-2.907a10.629,10.629,0,0,0,2.684-3.8,23.936,23.936,0,0,0,2.144-4.807l1.079-3.689c.552-1.565.23-2.237.473-3.243.513-1.453.559-1.9-.091-2.906a6.055,6.055,0,0,1-.849-2.348c.132-1.006-.572-1.23-1.413-2.012l-2.131-1.565c-.849-.447-2.223-.67-2.736-1.117a4.609,4.609,0,0,0-3.341-.671c-1.045.112-2.867-.111-3.985-.111-1.678,0-3.387-.223-4.058-.223a6.488,6.488,0,0,0-4.7,1.9C330.351,43.36,328.772,44.031,328.3,45.372ZM363.958,11.5c-.316-1.006-.342-1.565-1.079-2.012-.809-.559-.717-1.453-1.683-1.565-1.23,0-1.849-.783-2.44-1.006a7,7,0,0,0-3.045-.559,18.022,18.022,0,0,0-3.61-.223,32.346,32.346,0,0,0-4.663.223c-1.875.559-2.611.112-3.782.895A8.322,8.322,0,0,0,340.815,9.6a20.744,20.744,0,0,0-2.059,4.249c-.592,1.677-1.388,4.248-1.973,5.59a22.158,22.158,0,0,0-1.973,5.59,23.787,23.787,0,0,1-2.052,5.814c-.75,2.124-.987,4.7-.4,4.919,2.039.559,3.953-.111,5.966-.111,1.23,0,2.65-.223,4.55-.223a10.48,10.48,0,0,0,4.038-.671c1.69-.67,2.808-.67,4.163-1.341a20.423,20.423,0,0,0,3.65-1.789,22.233,22.233,0,0,0,3.256-2.572,34.193,34.193,0,0,0,2.828-3.578,16.154,16.154,0,0,0,2.1-4.7c.394-1.117,1.316-2.459,1.079-3.689-.21-.67.336-1.9.283-3.019A9.841,9.841,0,0,0,363.958,11.5ZM299.112,7.025c-1.8.67-2.051.111-2.617.447-.941.447-2.309-.112-3.525,1.117a11.386,11.386,0,0,0-2.1,2.8c-.467,1.006-1.1,2.8-1.533,4.025a44.7,44.7,0,0,1-2.171,6.149,15.453,15.453,0,0,0-2.21,6.261c-.342,2.236-1.658,4.7-2.211,6.261l-2.21,6.261c-.79,2.236-1.132,4.473-2.211,6.261-1.052,2.347-1.381,3.913-2.21,6.261-.947,2.683-1.842,4.584-2.211,6.261a27.953,27.953,0,0,1-2.21,6.261c-1.157,2.013-.69,2.907-1.348,4.137a3.2,3.2,0,0,0,.019,2.8c.211.67,1.69,1.23,2.585,1.23a8.51,8.51,0,0,1,3.61.224c1.519.448,1.493,1.789,1.361,2.8a3.255,3.255,0,0,1-1.539,2.46,4.935,4.935,0,0,1-3.353,0,21.548,21.548,0,0,0-3.8,0c-1.078-.112-2.387.111-3.913,0-.967-.112-3.019,0-3.913,0-1.341,0-2.164.111-3.656.223a8.33,8.33,0,0,0-3.92.335c-1.387.448-2.42-.111-3.913,0a4.263,4.263,0,0,1-3.676-.67c-1.282-1.117-.079-3.578,1.539-4.36s2.953-.447,3.63-.783a3.552,3.552,0,0,1,2.618-.447,4.207,4.207,0,0,0,3.453-1.23c.8-1.006,1.512-1.118,1.914-2.572.473-1.342,1.091-2.459,1.684-4.137.394-1.117,1.059-2.683,1.3-3.689.171-1.118,1.237-2.236,1.3-3.689.165-.783.75-2.125,1.263-3.578l1.3-3.69c.593-1.677,1.237-2.236,1.3-3.689a12.148,12.148,0,0,1,1.3-3.69c.664-1.565.947-2.683,1.3-3.689.277-.783.717-2.348,1.3-3.69.7-1.677.224-1.9,1.342-3.8a12.864,12.864,0,0,0,1.341-3.8c.132-1.006,1.053-2.347,1.5-4.248a25.6,25.6,0,0,1,1.658-4.7c1.164-2.348,1.809-4.807,1.487-5.479-.467-.894-.467-.894-2.026.671-.914,1.006-.849,1.453-2.1,2.8-1.032,1.341-1.111,1.564-1.8,2.571-1.269,2.012-2.413,3.354-3.334,4.7a52.56,52.56,0,0,0-3.256,4.472c-.849,1.454-2.328,2.8-3.294,4.584a41.154,41.154,0,0,1-3.144,4.473c-1.263,1.677-2.065,2.683-3.3,4.583-1.223,1.565-2.19,3.354-3.256,4.473-1.1,1.23-2.071,3.019-3.295,4.584a33.168,33.168,0,0,0-3.144,4.472,38.985,38.985,0,0,1-3.294,4.584c-.915,1.006-2.072,3.019-3.256,4.472-1.223,1.565-2.75,3.354-3.1,4.36a39.359,39.359,0,0,1-2.8,5.7c-1.277,2.348-2.6,3.242-4.1,3.689-.789.336-1.44-.67-1.88-1.006-.881-.671-.237-1.23-.138-2.459.014-.67.717-2.348.507-3.019-.243-.895.177-1.453.276-2.684a15.951,15.951,0,0,0-.473-4.359,24.888,24.888,0,0,1-.322-4.473c.06-1.117-.282-2.683-.321-4.472a34.9,34.9,0,0,0-.322-4.473,33.137,33.137,0,0,0-.211-4.472l-.21-4.472a42.55,42.55,0,0,1-.21-4.473c.072-1.789-.434-2.572-.1-4.472.263-2.012-.309-3.242-.171-4.584a22.3,22.3,0,0,1-.138-4.36,11.246,11.246,0,0,0-.059-4.584,5.181,5.181,0,0,1-.1-2.572c.085-.558-.3-2.012-.02-2.8.48-1.677-.6-1.788-.946-1.117a27.04,27.04,0,0,0-2.591,4.807,32.083,32.083,0,0,0-1.5,4.248c-.48,1.678-.868,2.459-1.342,3.8a7.7,7.7,0,0,1-1.262,3.578,20.016,20.016,0,0,0-1.184,3.354c-.592,1.677-.638,2.124-1.184,3.354-.816,1.677-.487,2.012-1.184,3.353a13.362,13.362,0,0,0-1.184,3.354L212.826,47.5c-.717,2.348-1.736,4.92-2.328,6.6A53.466,53.466,0,0,0,208.13,60.8a38.8,38.8,0,0,1-1.545,4.7,5.644,5.644,0,0,0-.605,4.248c.243.895.039,1.789,1.065,2.684.769.67,2.6.223,3.932.894.776.336,2.092,1.678,1.664,2.572-.2.559-1.026,2.907-2.23,3.465s-1.223-.335-2.006-.335a15.642,15.642,0,0,1-3.242,0c-2.078-.448-4.814.335-6.261,0-1.414-.112-3.578,0-6.037,0-1.861-.112-4.933.67-5.88-.448-.875-1.006.211-3.13.974-4.025.954-1.117,2.992-.558,3.63-.783.9-.335,2.032-1.006,2.894-1.23a6.279,6.279,0,0,0,3.86-3.019c.619-1.117,1.875-2.459,2.73-4.248.585-1.342,1.256-3.242,1.8-4.472.513-1.454,1.532-4.026,2.012-5.7a28.956,28.956,0,0,1,2.013-5.7,27.467,27.467,0,0,0,1.973-5.589,57.7,57.7,0,0,1,2.013-5.7,57.618,57.618,0,0,1,2.012-5.7c.605-2.347,1.336-3.466,2.013-5.7.638-2.125,1.493-3.913,2.012-5.7l1.973-5.59c.282-1.117,1.21-2.8,1.276-4.248a18.951,18.951,0,0,0-.02-2.8c-.125-1.23-1.137-.894-1.8-1.565-.328-.335-2.308-.111-3.906-.335-.966-.112-2.039-.559-1.94-1.789A5.779,5.779,0,0,1,214.4,1.547c1.855-1.453,3.268.559,5.327.112,1.868-.223,4-.559,5.7,0,1.223.335,4.439-.223,5.814,0,1.855.447,4.65-1.454,5.886.111.946,1.118-.006,2.236.111,3.8a22.017,22.017,0,0,1,.04,3.69,7.747,7.747,0,0,0,.111,3.8c.046,1.453-.02,2.906.039,3.689a10.872,10.872,0,0,1,.112,3.8,13.09,13.09,0,0,0,0,3.8,29.263,29.263,0,0,0,.15,3.69c.191,1.677-.2,2.8.112,3.8.388,1.117.026,2.459,0,3.8a13.608,13.608,0,0,0,.151,3.689,12.924,12.924,0,0,1,0,3.8c-.026,1.342.513,2.348.112,3.8a11.786,11.786,0,0,0,.072,3.913,9.568,9.568,0,0,0,.026,2.459,19.419,19.419,0,0,1,.132,2.8c-.02,1.006-.343,2.236,1.157,1.789a3.62,3.62,0,0,0,2.381-1.677c.651-.895,1.269-2.012,2.032-2.907a26.355,26.355,0,0,0,1.763-2.459l2.986-4.025,2.644-3.69a39.377,39.377,0,0,1,2.684-3.8,44.212,44.212,0,0,0,2.755-3.689,32.612,32.612,0,0,1,2.684-3.8c1.368-1.342,1.506-2.684,2.683-3.8a16.567,16.567,0,0,0,2.756-3.69,14.851,14.851,0,0,1,2.684-3.8c1.151-1.677,1.828-2.012,2.755-3.689a19.772,19.772,0,0,1,2.684-3.8,23.438,23.438,0,0,0,2.8-3.8c.809-1.342,1.94-2.012,2.644-3.69a7.83,7.83,0,0,1,2.835-3.913c1.848-1.118,4.248,0,5.926,0a44.765,44.765,0,0,1,5.478,0c1.67.335,4.065-.112,5.971-.448,1.421-.223,3.927-.67,5.729.559,1.25.895.414,3.578-1.539,4.36S300.724,6.578,299.112,7.025ZM190.285,20.665a6.144,6.144,0,0,1-4.051,1.341c-2.085-.111-.77-2.571-1.638-3.913-.546-.67-1.183-2.348-1.69-3.131-.532-1.341-1.874-1.341-1.887-2.572-.091-1.006-1.051-1.453-2.045-2.124L176.4,8.7a14.643,14.643,0,0,0-3.256-1.23,8.274,8.274,0,0,0-3.9-.671c-1.045.112-3.124-.335-4.616-.223-1.94.112-3.163-.223-4.288.112s-2.276.111-3.518.783a8.431,8.431,0,0,0-2.65,2.124,21.192,21.192,0,0,0-1.941,3.913c-1.157,2.012-1.157,3.913-2.091,5.926A18.466,18.466,0,0,0,148,25.472c-.644,2.459-1.539,4.36-2.21,6.261a8.646,8.646,0,0,0-.776,3.466c-.328,1.565-.447,1.9.447,1.9,1.342,0,3.328-.559,4.959-.112.927.224,2.73-.447,3.847-.447.895,0,2.137-.67,3.144-.67a3.8,3.8,0,0,0,2.558-1.23c1.479-1.342,3.17-2.012,4.321-3.69a11.7,11.7,0,0,0,2.144-2.906c.395-1.118.4-3.354,2.348-3.8,1.085-.223,2.664-.895,3.689,0,1.1,1.006-.908,2.572-1.27,3.913-.184,1.789-1.387,2.348-1.269,3.913.06.783-1.1,3.13-1.342,3.8l-1.3,3.689c-.368,1.678-1.328,3.131-1.381,3.913a10.282,10.282,0,0,1-1.342,3.8,19.319,19.319,0,0,0-1.493,3.913,13.633,13.633,0,0,1-1.494,3.913c-.8,1.006-3.558.894-3.729.112a6.113,6.113,0,0,1,.527-4.026c.513-1.453.151-2.012-.013-3.13l-.553-2.236a1.865,1.865,0,0,0-1.013-1.565,10.521,10.521,0,0,1-1.914-1.23,7.2,7.2,0,0,0-2.558-.671,25.432,25.432,0,0,1-3.459-.335,8.8,8.8,0,0,0-4.321-.112,3.6,3.6,0,0,0-2.46,1.9c-.316.894-1.308,2.124-1.9,3.8-.513,1.453-.861,2.124-1.184,3.353a19.9,19.9,0,0,1-1.184,3.354c-.519,1.789-1.46,4.137-2.288,6.485-.79,2.236-1.842,4.583-2.249,6.372s-1.072,3.354-1.086,4.026a3.738,3.738,0,0,0,.664,2.236c.362.559.921.559,2.368.894a14,14,0,0,0,4.057.223c2.243-.335,3.729-.111,5.373-.335a21.2,21.2,0,0,0,4.861-.783,36.048,36.048,0,0,0,4.721-1.342c1.69-.67,2.63-1.118,4.36-1.9a40.782,40.782,0,0,1,4.183-2.348c1.2-.559,2.308-1.789,4.268-2.907,1.2-.559,1.328-1.23,2.157-1.677s.658-1.23,2.308-1.789a5.205,5.205,0,0,0,2.388-2.012,4.768,4.768,0,0,1,2.5-2.012,1.764,1.764,0,0,1,2.617,1.453,3.291,3.291,0,0,1-1.69,2.572c-1.052.447-1.421,2.125-1.914,2.572a6.71,6.71,0,0,0-1.8,2.572,17.969,17.969,0,0,1-1.8,2.571,25.2,25.2,0,0,1-3.637,4.92c-.954,1.118-.927,1.677-1.8,2.572-.835.783-1.27,2.012-1.875,2.459s-2.644-.111-3.578,0a12.962,12.962,0,0,1-3.505.112c-.743-.112-2.276.111-3.465,0a16.984,16.984,0,0,0-3.466,0,9.47,9.47,0,0,1-3.578,0c-1.526-.112-2.388.111-3.466,0a18.666,18.666,0,0,1-3.578,0c-1-.336-2.124,0-3.466,0-1.381.111-2.012,0-3.465,0h-3.578a32.875,32.875,0,0,1-3.354,0,9.1,9.1,0,0,0-3.427-.112c-1.572.336-2.157-.224-3.544.223a12.068,12.068,0,0,1-3.7.336h-3.578a9.3,9.3,0,0,1-3.453-.67c-1.775-.671-1.914-1.23-1.709-2.125.276-.783,1.368-1.342,3.248-2.236a16.893,16.893,0,0,1,3.631-.783,11.372,11.372,0,0,1,2.617-.447,5.02,5.02,0,0,0,3.453-1.23l2.066-2.684c.769-1.23.835-2.683,1.532-4.025.776-1.565,1.27-3.913,2.211-6.261a46.332,46.332,0,0,0,2.21-6.261c.718-2.347,1.013-4.136,2.211-6.261,1.085-2.125,1.342-3.8,2.21-6.261.632-1.789,1.868-4.025,2.211-6.261.441-1.564,1.413-3.689,2.21-6.261.671-1.9.974-4.025,2.21-6.261,1.079-1.789,1.157-3.913,2.17-6.149a15.184,15.184,0,0,0,1.349-4.137l-.02-2.8c.052-.783-.829-1.453-1.756-1.677-1.413-.112-2.571,0-4.359,0-2.348,0-3.407-1.118-3.124-2.236.441-1.565,1.309-2.125,2.776-2.8,1.2-.559,2.276-.112,3.505-.112,1.716-.111,2.229.336,3.465,0a17.924,17.924,0,0,1,3.466,0h3.466a64.934,64.934,0,0,1,6.6,0c1.453,0,2.117.336,3.354,0a17.949,17.949,0,0,1,3.465,0,32.782,32.782,0,0,0,3.354,0,11.115,11.115,0,0,0,3.353,0c1.644-.223,1.631.447,3.466,0a32.786,32.786,0,0,1,3.354,0c1.006,0,1.775.671,3.466,0a3.9,3.9,0,0,1,3.354,0c.664.336,2.834-.111,3.465,0,1.374.223,2.282-.447,3.314.112,1.289.783.119,3.466.171,4.584.046,1.453-.362,3.242.019,4.7a14.259,14.259,0,0,1,.02,4.7C190.088,17.423,191.692,19.211,190.285,20.665Zm-77.6-13.639c-1.8.67-2.052.111-2.618.447-.941.447-2.308-.112-3.525,1.117a11.407,11.407,0,0,0-2.1,2.8c-.467,1.006-1.1,2.8-1.533,4.025a44.693,44.693,0,0,1-2.171,6.149,15.467,15.467,0,0,0-2.21,6.261c-.342,2.236-1.658,4.7-2.211,6.261l-2.21,6.261c-.789,2.236-1.131,4.473-2.21,6.261-1.053,2.347-1.382,3.913-2.211,6.261-.947,2.683-1.841,4.584-2.21,6.261a27.954,27.954,0,0,1-2.211,6.261c-1.157,2.013-.69,2.907-1.348,4.137a3.2,3.2,0,0,0,.02,2.8c.21.67,1.689,1.23,2.584,1.23a8.51,8.51,0,0,1,3.61.224c1.519.448,1.493,1.789,1.361,2.8a3.254,3.254,0,0,1-1.538,2.46,4.938,4.938,0,0,1-3.354,0,21.537,21.537,0,0,0-3.8,0c-1.079-.112-2.388.111-3.913,0-.966-.112-3.019,0-3.913,0-1.342,0-2.164.111-3.657.223a8.326,8.326,0,0,0-3.919.335c-1.388.448-2.42-.111-3.913,0a4.263,4.263,0,0,1-3.676-.67c-1.282-1.117-.079-3.578,1.539-4.36s2.953-.447,3.63-.783a3.553,3.553,0,0,1,2.618-.447,4.206,4.206,0,0,0,3.453-1.23c.8-1.006,1.513-1.118,1.914-2.572.473-1.342,1.092-2.459,1.684-4.137.395-1.117,1.059-2.683,1.3-3.689.171-1.118,1.237-2.236,1.3-3.689.164-.783.749-2.125,1.262-3.578l1.3-3.69c.592-1.677,1.236-2.236,1.3-3.689a12.174,12.174,0,0,1,1.3-3.69c.664-1.565.947-2.683,1.3-3.689.276-.783.717-2.348,1.3-3.69.7-1.677.223-1.9,1.342-3.8a12.89,12.89,0,0,0,1.342-3.8c.131-1.006,1.052-2.347,1.5-4.248a25.67,25.67,0,0,1,1.658-4.7c1.165-2.348,1.809-4.807,1.487-5.479-.467-.894-.467-.894-2.026.671-.914,1.006-.848,1.453-2.1,2.8-1.032,1.341-1.111,1.564-1.8,2.571-1.269,2.012-2.414,3.354-3.335,4.7a52.753,52.753,0,0,0-3.256,4.472c-.848,1.454-2.328,2.8-3.295,4.584a41.159,41.159,0,0,1-3.144,4.473C72.129,39.895,71.326,40.9,70.1,42.8c-1.223,1.565-2.191,3.354-3.256,4.473-1.1,1.23-2.072,3.019-3.3,4.584A33.056,33.056,0,0,0,60.4,56.329a39.11,39.11,0,0,1-3.3,4.584c-.914,1.006-2.072,3.019-3.256,4.472a24.587,24.587,0,0,0-3.1,4.36,39.26,39.26,0,0,1-2.8,5.7c-1.276,2.348-2.6,3.242-4.1,3.689-.789.336-1.44-.67-1.88-1.006-.881-.671-.237-1.23-.138-2.459.014-.67.718-2.348.507-3.019-.243-.895.177-1.453.277-2.684a15.99,15.99,0,0,0-.473-4.359,24.813,24.813,0,0,1-.322-4.473c.059-1.117-.283-2.683-.322-4.472a34.739,34.739,0,0,0-.322-4.473,33.279,33.279,0,0,0-.21-4.472l-.211-4.472a42.565,42.565,0,0,1-.21-4.473c.072-1.789-.434-2.572-.1-4.472.263-2.012-.309-3.242-.171-4.584a22.368,22.368,0,0,1-.138-4.36,11.232,11.232,0,0,0-.059-4.584,5.191,5.191,0,0,1-.1-2.572c.086-.558-.3-2.012-.02-2.8.48-1.677-.6-1.788-.946-1.117A27.041,27.041,0,0,0,36.426,19.1a32.075,32.075,0,0,0-1.5,4.248c-.48,1.678-.869,2.459-1.342,3.8a7.707,7.707,0,0,1-1.263,3.578,20.013,20.013,0,0,0-1.184,3.354c-.592,1.677-.638,2.124-1.184,3.354-.815,1.677-.487,2.012-1.184,3.353a13.363,13.363,0,0,0-1.184,3.354L26.4,47.5c-.718,2.348-1.737,4.92-2.329,6.6A53.467,53.467,0,0,0,21.705,60.8a38.8,38.8,0,0,1-1.545,4.7,5.644,5.644,0,0,0-.605,4.248c.243.895.04,1.789,1.065,2.684.77.67,2.605.223,3.933.894.775.336,2.091,1.678,1.663,2.572-.2.559-1.026,2.907-2.23,3.465s-1.223-.335-2.006-.335a15.642,15.642,0,0,1-3.242,0c-2.078-.448-4.814.335-6.261,0-1.414-.112-3.578,0-6.037,0-1.861-.112-4.932.67-5.88-.448-.875-1.006.211-3.13.974-4.025.954-1.117,2.992-.558,3.63-.783.9-.335,2.032-1.006,2.894-1.23a6.283,6.283,0,0,0,3.861-3.019c.618-1.117,1.874-2.459,2.729-4.248.585-1.342,1.257-3.242,1.8-4.472.513-1.454,1.533-4.026,2.012-5.7a28.955,28.955,0,0,1,2.013-5.7,27.512,27.512,0,0,0,1.973-5.589,57.7,57.7,0,0,1,2.012-5.7,57.61,57.61,0,0,1,2.012-5.7c.605-2.347,1.336-3.466,2.013-5.7.638-2.125,1.493-3.913,2.012-5.7l1.973-5.59c.283-1.117,1.21-2.8,1.276-4.248a19.059,19.059,0,0,0-.019-2.8c-.125-1.23-1.138-.894-1.8-1.565-.328-.335-2.308-.111-3.906-.335-.966-.112-2.039-.559-1.94-1.789a5.785,5.785,0,0,1,1.887-3.131c1.855-1.453,3.269.559,5.328.112,1.868-.223,4-.559,5.7,0,1.223.335,4.439-.223,5.814,0,1.855.447,4.65-1.454,5.886.111.947,1.118-.006,2.236.111,3.8a21.917,21.917,0,0,1,.04,3.69,7.747,7.747,0,0,0,.111,3.8c.046,1.453-.02,2.906.04,3.689a10.873,10.873,0,0,1,.111,3.8,13.122,13.122,0,0,0,0,3.8,29.073,29.073,0,0,0,.151,3.69c.19,1.677-.2,2.8.111,3.8.388,1.117.026,2.459,0,3.8a13.61,13.61,0,0,0,.151,3.689,12.921,12.921,0,0,1,0,3.8c-.027,1.342.512,2.348.111,3.8a11.764,11.764,0,0,0,.072,3.913,9.525,9.525,0,0,0,.026,2.459,19.539,19.539,0,0,1,.131,2.8c-.02,1.006-.342,2.236,1.157,1.789a3.62,3.62,0,0,0,2.381-1.677c.651-.895,1.269-2.012,2.032-2.907a26.364,26.364,0,0,0,1.763-2.459l2.986-4.025,2.644-3.69a39.389,39.389,0,0,1,2.684-3.8,44.215,44.215,0,0,0,2.755-3.689,32.621,32.621,0,0,1,2.684-3.8c1.368-1.342,1.507-2.684,2.684-3.8a16.593,16.593,0,0,0,2.755-3.69,14.85,14.85,0,0,1,2.684-3.8c1.151-1.677,1.829-2.012,2.755-3.689a19.772,19.772,0,0,1,2.684-3.8,23.441,23.441,0,0,0,2.8-3.8c.809-1.342,1.941-2.012,2.644-3.69a7.83,7.83,0,0,1,2.835-3.913c1.849-1.118,4.248,0,5.926,0a44.766,44.766,0,0,1,5.478,0c1.67.335,4.065-.112,5.972-.448,1.421-.223,3.926-.67,5.728.559,1.25.895.414,3.578-1.539,4.36S114.3,6.578,112.688,7.025Z" transform="translate(-0.236 -0.945)" fill="#131a22" fill-rule="evenodd"/>
</svg>
