<svg xmlns="http://www.w3.org/2000/svg" width="232.216" height="99.292" viewBox="0 0 232.216 99.292">
  <path id="パス_43731" data-name="パス 43731" d="M231.387,19.993c-.181,1.484-1.592,3.538-2.921,5.365-.275.456-1.705,1.6-1.988,2.4-.4.8-.973,1.141-2.25,2.168-.966.8-2.162,1.6-2.511,1.941a10.345,10.345,0,0,1-2.968,1.94c-1.229.571-1.86,1.713-3.2,1.941-1.222.228-3.3,1.256-3.62,2.169-.678,1.6,1.726,1.256,2.967,1.94a31.842,31.842,0,0,0,2.586,2.055c.678.343,1.523,1.826,2.088,2.169A3.793,3.793,0,0,1,221.2,46.59a21.545,21.545,0,0,0,1.087,2.739,3.977,3.977,0,0,1,.51,3.083c-.255,1.369.417,2.055-.141,3.31a18.332,18.332,0,0,0-.906,3.538,15.006,15.006,0,0,1-1.356,3.2c-.283.8-1.055,1.369-1.847,2.967-.672,1.256-1.518,1.713-2.223,2.74-.712,1.369-2.048,1.6-2.639,2.626a4.1,4.1,0,0,1-2.86,2.283,12.269,12.269,0,0,0-3.123,2.055,14.71,14.71,0,0,1-3.19,1.6c-1.416.456-2.3,1.027-3.452,1.369a18.671,18.671,0,0,1-4.666,1.256c-1.3.114-3.74.57-4.848.8-1.221.229-3.236.115-4.687.343a19.084,19.084,0,0,1-4.378.115h-4.109a23.2,23.2,0,0,0-3.995,0,24.719,24.719,0,0,1-4.11,0,24.7,24.7,0,0,0-4.109,0c-.953.114-2.437.114-4.076.228-1.141,0-3.243.456-4.116.342-.832-.228-3.317.343-4.109,0-1.471-.685-2.545-.228-3.941-.8-1.209-.457-1.612-1.256-1.29-2.169.363-1.027.98-1.484,2.821-2.169,1.987-.456,3.183-1.256,3.747-.913.376.228,2.1-.456,2.632-.343a3.121,3.121,0,0,0,3.525-1.256c.543-.571,2.129-1.826,2.149-2.854a15.442,15.442,0,0,1,1.564-4.109l2.216-6.279c.685-1.94,1.639-3.995,2.257-6.392.758-1.826,1.484-3.881,2.256-6.392.733-2.4,1.37-3.882,2.257-6.393a36.794,36.794,0,0,0,2.3-6.507c.53-1.826,1.4-3.653,2.256-6.392.524-1.484,1.142-3.881,2.216-6.279,1.035-2.283,1.578-4.794,2.257-6.392a9.617,9.617,0,0,0,1.336-4.109c.3-1.484.309-2.169-.019-2.854-.37-.571-1.222-1.713-1.793-1.713-.987-.114-3.955-.114-5.17-.228-1.062-.228-3.486-.8-3.076-2.283s2.25-2.169,3.438-2.626c.92-.342,1.894.456,3.465-.114a4.042,4.042,0,0,1,3.464-.115c.678.343,2.854,0,3.425,0a17.17,17.17,0,0,0,3.425,0H204.7a38.552,38.552,0,0,1,6.238.115,7.506,7.506,0,0,0,3.156.114c1.565-.228,2.465.456,3.189.343a4.42,4.42,0,0,1,3,.571c.638.456,1.82.342,2.8.8a6.786,6.786,0,0,1,2.565,1.141c.86.8,1.155,1.256,2.33,1.484a3.225,3.225,0,0,1,2.5,2.626c.047,1.485,1.249,2.284,1.457,3.311l.382,3.767C232.361,16.911,231.535,18.28,231.387,19.993ZM183.879,46.247c-.6,1.713-1.041,2.626-1.639,4-.678,1.6-1.2,3.082-1.6,3.881a32.969,32.969,0,0,0-2.605,6.735,38.157,38.157,0,0,0-2.337,6.62,23.572,23.572,0,0,1-1.457,4.452,2.726,2.726,0,0,0,.027,2.511,2.994,2.994,0,0,0,1.994,1.142c.988.115,2.888.228,4.257.228,1.484,0,3.015-.456,4.721-.114,1.208.456,2.706-.228,4.458-.343,1.524-.115,2.793-.8,4.163-.8,1.142,0,2.572-1.142,3.949-1.484a8.506,8.506,0,0,0,3.694-2.055c1.356-1.256,1.786-1.826,3.216-2.968a10.853,10.853,0,0,0,2.74-3.881,24.44,24.44,0,0,0,2.19-4.908l1.1-3.767c.564-1.6.235-2.284.483-3.311.524-1.484.571-1.94-.093-2.967a6.182,6.182,0,0,1-.867-2.4c.135-1.027-.584-1.256-1.443-2.055l-2.176-1.6c-.867-.456-2.27-.685-2.794-1.141a4.706,4.706,0,0,0-3.411-.686c-1.067.115-2.928-.114-4.069-.114-1.713,0-3.458-.228-4.143-.228a6.625,6.625,0,0,0-4.794,1.94C185.974,44.192,184.362,44.878,183.879,46.247ZM220.288,11.66c-.322-1.027-.349-1.6-1.1-2.055-.826-.571-.732-1.484-1.718-1.6-1.256,0-1.887-.8-2.492-1.027a7.145,7.145,0,0,0-3.109-.571,18.4,18.4,0,0,0-3.686-.228,33.026,33.026,0,0,0-4.761.228c-1.914.571-2.666.115-3.862.914a8.5,8.5,0,0,0-2.9,2.4,21.18,21.18,0,0,0-2.1,4.338c-.6,1.712-1.417,4.337-2.015,5.708a22.623,22.623,0,0,0-2.014,5.708,24.287,24.287,0,0,1-2.1,5.936c-.766,2.168-1.008,4.794-.4,5.022,2.081.571,4.035-.114,6.091-.114,1.256,0,2.706-.228,4.646-.228a10.7,10.7,0,0,0,4.123-.685c1.726-.685,2.867-.685,4.251-1.369a20.851,20.851,0,0,0,3.727-1.826,22.7,22.7,0,0,0,3.324-2.626,34.9,34.9,0,0,0,2.887-3.653,16.49,16.49,0,0,0,2.149-4.795c.4-1.141,1.343-2.511,1.1-3.767-.214-.685.343-1.941.289-3.082A10.051,10.051,0,0,0,220.288,11.66ZM148.081,30.494c-.3,1.484-.249,2.968-.564,3.539a10.57,10.57,0,0,0-.833,3.652,11.044,11.044,0,0,1-1.134,3.539,21.148,21.148,0,0,1-1.4,3.653,36.232,36.232,0,0,0-1.705,3.538,32.583,32.583,0,0,1-1.974,3.653,13.844,13.844,0,0,1-2.276,3.538c-1.511,1.37-1.686,2.512-2.619,3.539-1.282,1.369-1.565,2.168-2.693,3.424-.779.914-1.967,1.37-3,3.311a15.4,15.4,0,0,1-3.1,2.967,29.492,29.492,0,0,0-3.29,2.854c-1.585,1.256-2.008,1.484-3.439,2.626-.658.571-2.5,1.256-3.659,2.283a10.917,10.917,0,0,1-3.767,1.941c-1.644.456-2.538,1.369-3.76,1.6-1.718.343-2.417,1.027-3.982,1.256a31.519,31.519,0,0,0-3.894.685c-1.645.456-2.284,0-3.962.228-1.792.228-2.35-.456-3.8-.228a4.337,4.337,0,0,1-3.411-.685c-1.161-.914-2.115-.8-3.095-1.256-.6-.228-1.84-1.256-2.632-1.6-1.169-.571-2.108-1.142-2.4-1.941-.3-.456-1.611-1.256-1.934-2.283a4.363,4.363,0,0,0-1.7-2.626c-.859-.8-.919-1.6-1.276-2.854-.093-1.027-.96-1.484-.966-3.082-.02-.913-.8-1.941-.7-3.2l-.275-3.424c-.027-.571-.564-2.284-.161-3.425.283-.8-.06-2.74.376-3.653.753-1.484.115-1.941.451-3.538a22.377,22.377,0,0,1,.832-3.653c.322-.914.074-1.826,1.175-3.653a9.118,9.118,0,0,0,1.364-3.539c.261-1.712,1.188-2.4,1.746-3.652.2-.571,1.578-2.854,1.974-3.653a15.928,15.928,0,0,1,2.276-3.539,28.514,28.514,0,0,0,2.5-3.538l2.808-3.425a16.849,16.849,0,0,1,2.954-3.2c.974-1.142,2.363-2.169,3.1-2.968.544-.571,2.357-1.826,3.29-2.854a11.646,11.646,0,0,1,3.439-2.626c1.424-.8,2.048-1.6,3.659-2.283,1.457-.571,2.015-1.826,3.653-1.941a9.407,9.407,0,0,0,3.875-1.6c1.545-1.142,2.565-.8,3.867-1.256.92-.342,2.021-.228,4.01-.685A13.663,13.663,0,0,1,126,.245a31.579,31.579,0,0,0,3.8.228c1.41-.114,1.893.456,3.524.685,1.444.115,1.961.914,2.981,1.256a7.7,7.7,0,0,1,2.632,1.6c.786.685,1.424,1.142,2.4,1.941.672.685,1.189,1.484,2.048,2.283a8.275,8.275,0,0,1,1.584,2.626c.47,1.256,1.027,1.94,1.276,2.854.288.8,1.256,1.94.966,3.082a5.708,5.708,0,0,0,.7,3.2,12.9,12.9,0,0,1,.389,3.425c.094,1.027-.006,2.283.006,3.538A11.749,11.749,0,0,1,148.081,30.494ZM137.332,17.938c-.443-.685-.081-1.713-.4-2.74l-.712-2.511a6.955,6.955,0,0,0-.946-2.169c-.631-.8-.651-1.712-1.37-1.94-1.021-.343-1.342-1.37-1.718-1.6-.786-.685-.893-1.027-2.183-1.256-1.02-.343-1.558-.115-2.612-.685-1.095-.456-1.632-.228-3-.228a23.482,23.482,0,0,1-3.277.228c-1.215-.114-1.424.8-3.095.685-1.444-.115-2.458,1.141-2.954,1.256-1.222.228-1.659,1.142-2.808,1.484a4.41,4.41,0,0,0-2.739,1.941c-1.169,1.369-1.584,1.256-2.518,2.283s-1.813,1.256-2.445,2.4a32.551,32.551,0,0,1-2.336,2.739,13.179,13.179,0,0,0-2.034,2.854A10.6,10.6,0,0,1,98.1,23.646c-1.168,1.369-1.712,1.94-1.772,3.082A7.718,7.718,0,0,1,94.713,29.7a31.015,31.015,0,0,0-2.935,6.05c-1.457,2.511-1.41,3.995-2.2,5.593a58.078,58.078,0,0,0-1.826,5.822A43.853,43.853,0,0,0,86.338,53.1c-.088.571-.8,1.94-.477,2.967.288.8-.228,1.941-.209,2.854a7.138,7.138,0,0,1-.094,2.854,3.23,3.23,0,0,0,.1,2.626c.249.914.08,1.713.4,2.74.4,1.141.08,1.712.867,2.4.45.343.584,1.256,1.02,2.284.255.57,1.088.8,1.484,1.94.322,1.027.625,1.142,1.679,1.713a11.048,11.048,0,0,1,2.223,1.141,5.65,5.65,0,0,0,2.457.8,9.851,9.851,0,0,0,2.847.343c1.974.228,3.088-.343,5.3-.8a14.438,14.438,0,0,0,5.217-2.169c1.2-.8,1.733-1.027,2.619-1.6.618-.456,1.8-.57,2.471-1.826.4-.8,1.161-1.027,2.209-2.055s1.592-1.6,2.1-2.055c1.128-1.256,2.021-2.168,2.686-3.082a22.059,22.059,0,0,0,2.23-3.082,31.772,31.772,0,0,1,2.155-3.2,22.5,22.5,0,0,1,1.968-3.31,12.513,12.513,0,0,0,1.739-3.31,15.173,15.173,0,0,1,1.511-3.31,21.972,21.972,0,0,0,1.4-3.31c.443-1.256.651-2.169,1.169-3.311a36.419,36.419,0,0,0,1.705-5.479,21.844,21.844,0,0,0,1.45-6.049,14.781,14.781,0,0,1,.478-2.968,7.448,7.448,0,0,1,.288-3.082,5.3,5.3,0,0,0,.135-2.967C137.218,19.878,137.963,18.737,137.332,17.938ZM66.887,7.436A16.139,16.139,0,0,0,63.16,9.262,3.894,3.894,0,0,0,61.051,12c-.322.913-.92,2.283-1.565,4.109l-2.336,6.62-2.378,6.735c-1.007,2.854-1.685,4.452-2.377,6.735a52.434,52.434,0,0,0-2.377,6.735c-.772,2.511-1.8,4.452-2.378,6.735-.839,2.055-1.531,4.337-2.377,6.735l-2.377,6.735-2.337,6.621c-.564,1.6-1.592,3.538-2.042,5.137a15.44,15.44,0,0,1-2.344,5.022c-1.1,1.826-1.813,3.2-3.142,5.023-.706,1.027-2.263,2.854-3.781,4.566a12.209,12.209,0,0,0-2.209,2.055,6.025,6.025,0,0,1-2.4,1.941c-1.309.8-1.625,1.37-2.545,1.712A14.2,14.2,0,0,0,19.4,96.7,16.033,16.033,0,0,1,14.1,98.757a22.769,22.769,0,0,1-5.264.685,11.621,11.621,0,0,1-3.565-.571c-1.249-.343-2.807-.456-2.975-1.6C2.165,96.36,1.185,95.9.487,94.647a3.4,3.4,0,0,1,.222-3.538c.711-1.37,1.256-3.881,3.673-4.908.919-.343,1.5-1.027,2.773-1.712a5.818,5.818,0,0,1,2.867-.686c1.874-.456,3.364,1.142,3.84,2.055,1.035,1.6.665,2.968.752,4.338a2.775,2.775,0,0,0,1.968,2.511c1.289.228,1.753-.115,2.907-.8a7.794,7.794,0,0,0,2.289-2.283,38.522,38.522,0,0,0,3.009-5.936,31.1,31.1,0,0,0,1.491-4.224c.37-1.37.846-2.4,1.49-4.224l1.451-4.109c.718-1.712,1.007-2.854,1.49-4.223A30.949,30.949,0,0,0,32.2,62.685c.645-1.826.853-2.74,1.532-4.337a20.764,20.764,0,0,1,1.49-4.224A30.929,30.929,0,0,0,36.715,49.9a31.131,31.131,0,0,1,1.491-4.223A31.1,31.1,0,0,0,39.7,41.453l1.49-4.224,1.491-4.224c.4-1.141.961-2.4,1.491-4.223a31.073,31.073,0,0,1,1.491-4.224,30.512,30.512,0,0,0,1.491-4.224,20.325,20.325,0,0,1,1.49-4.223L49.978,12c.524-1.485.685-1.941-.134-2.854a7.674,7.674,0,0,0-1.793-1.713c-.711-.571-2.343-.8-4.136-.571A8.4,8.4,0,0,1,40.8,6.637c-1.135-.342-2.1-1.484-1.746-2.168.6-1.37,1.921-2.854,3.633-2.854h4a24.709,24.709,0,0,1,4.109,0c1.1.114,2.478-.228,3.875.342,1.054.571,2.242.115,4.069.115,1.37,0,2.632-.343,3.881,0,1.175.228,2.552-.115,3.881,0a26.123,26.123,0,0,0,4.07.114c1.564-.228,3.37-1.141,4.069.115.551,1.027-.436,2.854-1.531,4.337C71.775,8.463,68.841,6.751,66.887,7.436Z" transform="translate(-0.094 -0.168)" fill="#ffffff" fill-rule="evenodd"/>
</svg>