<svg xmlns="http://www.w3.org/2000/svg" width="564.771" height="81.777" viewBox="0 0 564.771 81.777">
  <path id="パス_43722" data-name="パス 43722" d="M564.362,11.934a14.355,14.355,0,0,1,.023,4.727c-.217,1.576,1.4,3.378-.015,4.84a6.183,6.183,0,0,1-4.077,1.351c-2.1-.113-.777-2.588-1.653-3.939-.549-.676-1.193-2.363-1.7-3.151-.537-1.351-1.887-1.351-1.9-2.59-.094-1.013-1.06-1.463-2.06-2.139l-2.6-1.576A14.736,14.736,0,0,0,547.1,8.22a8.322,8.322,0,0,0-3.927-.675c-1.053.112-3.144-.338-4.647-.226-1.954.113-3.186-.225-4.317.113s-2.29.113-3.542.788A8.466,8.466,0,0,0,528,10.358a21.3,21.3,0,0,0-1.95,3.939c-1.164,2.027-1.162,3.939-2.1,5.966a18.561,18.561,0,0,0-2.139,6.078c-.647,2.477-1.545,4.389-2.22,6.3a8.7,8.7,0,0,0-.778,3.489c-.33,1.576-.448,1.914.453,1.914,1.351,0,3.35-.563,4.992-.113.934.225,2.747-.45,3.873-.45.9,0,2.151-.676,3.164-.676a3.816,3.816,0,0,0,2.575-1.238c1.489-1.351,3.19-2.025,4.346-3.714a11.744,11.744,0,0,0,2.156-2.926c.4-1.126.4-3.376,2.359-3.826,1.093-.226,2.681-.9,3.714,0,1.108,1.013-.911,2.588-1.273,3.939-.184,1.8-1.395,2.363-1.275,3.939.061.788-1.109,3.151-1.347,3.826l-1.308,3.714c-.37,1.689-1.334,3.153-1.387,3.941a10.351,10.351,0,0,1-1.348,3.826,19.493,19.493,0,0,0-1.5,3.939,13.752,13.752,0,0,1-1.5,3.941c-.807,1.013-3.582.9-3.754.112a6.159,6.159,0,0,1,.526-4.052c.516-1.463.15-2.025-.015-3.151l-.559-2.25a1.877,1.877,0,0,0-1.021-1.576,10.6,10.6,0,0,1-1.927-1.239,7.247,7.247,0,0,0-2.576-.675A25.643,25.643,0,0,1,522.7,43a8.859,8.859,0,0,0-4.35-.112,3.619,3.619,0,0,0-2.475,1.912c-.316.9-1.315,2.139-1.91,3.827-.515,1.463-.865,2.139-1.188,3.376a20.247,20.247,0,0,1-1.189,3.378c-.522,1.8-1.467,4.164-2.3,6.528-.792,2.252-1.849,4.615-2.259,6.416s-1.076,3.376-1.089,4.052a3.76,3.76,0,0,0,.671,2.25c.364.563.927.563,2.384.9a14.1,14.1,0,0,0,4.085.225c2.257-.338,3.754-.113,5.409-.338a21.266,21.266,0,0,0,4.893-.788,36,36,0,0,0,4.753-1.351c1.7-.675,2.646-1.126,4.388-1.914A41.327,41.327,0,0,1,536.73,69c1.211-.563,2.322-1.8,4.3-2.926,1.21-.563,1.336-1.238,2.169-1.687s.662-1.239,2.323-1.8a5.226,5.226,0,0,0,2.4-2.025,4.792,4.792,0,0,1,2.514-2.025,1.778,1.778,0,0,1,2.637,1.463,3.312,3.312,0,0,1-1.7,2.588c-1.06.451-1.429,2.139-1.925,2.59a6.75,6.75,0,0,0-1.812,2.588,17.983,17.983,0,0,1-1.812,2.588,25.342,25.342,0,0,1-3.658,4.953c-.959,1.124-.931,1.687-1.812,2.588-.84.788-1.276,2.025-1.885,2.477s-2.661-.113-3.6,0a12.986,12.986,0,0,1-3.528.112c-.748-.112-2.29.113-3.489,0a17.287,17.287,0,0,0-3.489,0,9.532,9.532,0,0,1-3.6,0c-1.537-.112-2.4.113-3.489,0a18.8,18.8,0,0,1-3.6,0c-1.006-.338-2.139,0-3.489,0-1.389.113-2.026,0-3.488,0h-3.6a32.758,32.758,0,0,1-3.376,0,9.133,9.133,0,0,0-3.449-.112c-1.583.337-2.172-.226-3.569.225a12.165,12.165,0,0,1-3.72.337h-3.6a9.363,9.363,0,0,1-3.475-.675c-1.788-.675-1.929-1.238-1.723-2.139.277-.788,1.376-1.351,3.269-2.25a16.982,16.982,0,0,1,3.654-.789,11.456,11.456,0,0,1,2.635-.45,5.049,5.049,0,0,0,3.474-1.238l2.077-2.7c.774-1.238.839-2.7,1.54-4.052.78-1.576,1.274-3.939,2.219-6.3a46.684,46.684,0,0,0,2.219-6.3c.72-2.363,1.017-4.165,2.22-6.3,1.09-2.139,1.347-3.826,2.219-6.3.633-1.8,1.876-4.052,2.219-6.3.443-1.576,1.42-3.714,2.219-6.3.675-1.914.977-4.052,2.22-6.3,1.085-1.8,1.162-3.939,2.179-6.189a15.27,15.27,0,0,0,1.354-4.165l-.022-2.813c.052-.788-.835-1.464-1.769-1.689-1.424-.112-2.588,0-4.39,0-2.364,0-3.43-1.126-3.146-2.25.441-1.576,1.315-2.139,2.791-2.815,1.211-.563,2.29-.112,3.528-.112,1.729-.113,2.245.337,3.489,0a17.949,17.949,0,0,1,3.489,0h3.489a65,65,0,0,1,6.641,0c1.464,0,2.132.337,3.376,0a17.972,17.972,0,0,1,3.489,0,33.37,33.37,0,0,0,3.378,0,11.234,11.234,0,0,0,3.376,0c1.654-.226,1.642.45,3.489,0a32.676,32.676,0,0,1,3.376,0c1.013,0,1.788.675,3.489,0a3.92,3.92,0,0,1,3.376,0c.669.337,2.853-.113,3.489,0,1.384.225,2.3-.451,3.338.112,1.3.788.121,3.489.175,4.615C564.385,8.669,563.975,10.471,564.362,11.934Zm-79.8,10.13c-.588,1.351-1.169,2.363-1.486,3.264a9.628,9.628,0,0,1-2.01,3.151c-1.072,1.126-1.395,2.363-2.341,2.813a10.741,10.741,0,0,0-2.824,2.588,8.857,8.857,0,0,1-3.2,2.365,13.444,13.444,0,0,1-3.376,1.912,9.66,9.66,0,0,0-3.858,1.689c-1.82,1.013-2.522.45-4.15,1.238a10.218,10.218,0,0,0-3,1.8,2.323,2.323,0,0,0-.8,2.926,9.412,9.412,0,0,1,.784,2.25c.166,1.126-.178,1.464.406,2.363a18.23,18.23,0,0,1,.724,3.378,9.987,9.987,0,0,0,.651,3.263c.386,1.464.334,2.252.579,3.151a7.962,7.962,0,0,0,.578,3.153c.7.9.148,2.137.731,3.038.836,1.464.724,3.376.937,4.052a5.871,5.871,0,0,0,1.526,2.7,10.409,10.409,0,0,0,2.742,1.8c.742.45,3.6,0,4.49.675,1.478,1.239.355,3.153-.195,4.39s-3.158.338-4.767.112-3.681.226-4.654.113l-4.462-.113c-1.464,0-3.66,1.126-4.615,0a3.851,3.851,0,0,1-.406-2.363c-.015-1.238-.5-1.463-.519-2.363a7.993,7.993,0,0,0-.446-2.25c-.359-.9-.875-1.351-.519-2.363s-.352-1.239-.406-2.365c-.014-1.238-.352-1.238-.519-2.363a8.9,8.9,0,0,1-.446-2.25,3.625,3.625,0,0,0-.406-2.363,10.317,10.317,0,0,1-.519-2.363c-.246-.9-.842-1.126-.406-2.363.164-.789-.24-1.239-.519-2.365a8.657,8.657,0,0,1-.446-2.25,12.006,12.006,0,0,0-.651-3.264c-.364-.563-.367-2.477-.506-3.038A6.369,6.369,0,0,0,443.2,43a26.548,26.548,0,0,1-3.038,0c-.861-.112-1.363.676-2.322,1.8a14.836,14.836,0,0,0-2.017,3.489c-.984,2.477-1.545,4.39-2.179,6.191a41.494,41.494,0,0,0-2.1,5.966,62.855,62.855,0,0,1-2.1,5.965c-.673,1.914-1.176,2.7-1.314,4.052a11.277,11.277,0,0,0,.022,2.813c.1.676.882,1.013,1.882,1.689.517.45,2.219-.225,3.522.225,1.828.563,1.512,3.376.063,4.615-1.6,1.351-2.025,0-3.608.337a14.643,14.643,0,0,1-3.753.113c-1.351,0-1.987-.113-3.714,0a19.248,19.248,0,0,1-3.6,0,8.073,8.073,0,0,0-3.906.225c-1.886.563-2.285-.225-3.793.225a5.7,5.7,0,0,1-3.867.113c-1.6-.563-2.853.112-3.662-.788-.993-1.013-.156-3.714,1.507-4.277a10.216,10.216,0,0,1,3.694-.9,4.787,4.787,0,0,0,2.594-.337c1.973-1.126,2.979-.788,3.476-1.239,1.144-1.013,1.984-1.8,2.117-2.813.012-.676,1.17-2.363,1.538-4.052.145-1.689,1.876-4.052,2.219-6.3.4-1.464,1.421-3.714,2.18-6.191.673-1.914,1.015-4.164,2.219-6.3,1.125-1.914,1.2-4.052,2.259-6.416a23.489,23.489,0,0,0,2.22-6.3c.257-1.689,1.5-3.941,2.219-6.3.978-2.139,1.195-3.714,2.219-6.3,1.011-1.914,1.2-4.052,2.18-6.191a9.457,9.457,0,0,0,1.313-4.051c.33-1.576.342-2.252.018-2.926-.252-.563-1.246-1.576-1.809-1.576-.974-.113-3.833.337-4.84,0-1.378-.563-1.927-1.239-1.8-2.252A3.622,3.622,0,0,1,431.046,2.7c1.847-.451,2.966-.113,4.059-.338a22.371,22.371,0,0,1,3.978-.113,14.163,14.163,0,0,0,3.827,0,21.749,21.749,0,0,1,3.827,0h3.939c.748.113,2.217-.225,3.939,0a21.15,21.15,0,0,0,3.827,0h3.826c1.689,0,3.113.113,4.762.226a21.577,21.577,0,0,1,4.715.675l4.516,1.238A38.216,38.216,0,0,1,480.2,6.306c1.08.451,1.652,2.027,3.029,2.59,1.49.562,1.718,2.475,1.923,3.488a11.311,11.311,0,0,1,.633,4.277A14.387,14.387,0,0,1,484.559,22.064ZM473.15,12.272c-.2-1.351-.915-1.239-1.538-2.027a10.71,10.71,0,0,0-2.146-1.576,5.808,5.808,0,0,0-2.8-1.013,19.521,19.521,0,0,1-3.179-.563c-1.046-.225-2.813,0-3.747-.225a10.647,10.647,0,0,0-4.621.338,20.4,20.4,0,0,0-3.362,1.238c-1.515.788-1.529,1.464-2.448,2.477a8.211,8.211,0,0,0-1.883,4.389c-.184,1.8-1.307,3.714-2.02,5.741-.872,2.475-1.5,3.939-2.061,5.853-.595,1.687-1.552,4.727-2.14,6.078-.595,1.689-.534,2.477.5,3.376a13,13,0,0,0,2.518,1.8,12.764,12.764,0,0,0,5.853,0c1.093-.225,2.5.563,3.681-.225.76-.563,2.409-.45,3.58-.9a19.549,19.549,0,0,0,3.4-1.351c1.29-.788,2.085-1.126,3.11-1.8a17.916,17.916,0,0,0,2.859-2.363c.542-.9,1.454-1.576,2.453-2.813l1.9-3.151c1.079-1.464.867-2.139,1.646-3.714.429-.9.653-2.815,1.009-3.827.239-.675-.1-2.588.1-3.151C474.4,13.509,473.356,13.285,473.15,12.272ZM408.69,8.22a18.4,18.4,0,0,0-2.8,1.238,10.65,10.65,0,0,0-4,3.04,46.443,46.443,0,0,0-2.889,4.052,18.911,18.911,0,0,0-1.772,4.389,22.759,22.759,0,0,1-1.268,3.6,24.285,24.285,0,0,0-1.307,3.714,11.354,11.354,0,0,1-1.268,3.6,23.959,23.959,0,0,0-1.308,3.714,24.112,24.112,0,0,1-1.308,3.714c-1.044,1.689-.6,2.027-1.308,3.714s-.951,2.7-1.268,3.6l-1.308,3.714c-.283,1.124-1.8,3.826-1.894,5.065-.026,1.351-1.613,3.939-2.274,5.177-1.315,2.139-1.758,3.714-2.724,5.178a29.7,29.7,0,0,1-3.578,4.727c-.575.675-2.036,2.588-2.983,3.038-1.932,1.014-2.289,2.027-3.275,2.59-.873.563-2.732,1.687-3.567,2.139A19.43,19.43,0,0,1,363,79.8a16.215,16.215,0,0,0-3.587,1.238c-1.363.675-2.2,1.126-3.767.788-.821-.225-2.449.563-3.648.45a26.207,26.207,0,0,0-3.568.226,33.14,33.14,0,0,1-5.694-.451c-1.643-.45-3.927-.675-4.855-1.238a23.512,23.512,0,0,1-4.014-2.025c-1.107-1.014-1.465-1.914-2.949-2.815a3.53,3.53,0,0,1-2.035-3.489,2.356,2.356,0,0,0-.486-2.139,3.537,3.537,0,0,1-.333-2.25c.368-1.689-.428-3.264.359-5.178.668-1.576.48-3.6,1.5-5.853l1.823-5.177a9.835,9.835,0,0,0,1.545-4.39c.1-1.576.991-2.813,1.545-4.389a22.564,22.564,0,0,1,1.545-4.39,35.765,35.765,0,0,0,1.585-4.5c.25-1.351,1.44-2.813,1.545-4.389.131-1.013,1.024-2.59,1.545-4.39a33.541,33.541,0,0,0,1.545-4.389,17.079,17.079,0,0,1,1.545-4.39,9.834,9.834,0,0,0,1.467-4.164c-.021-.9.673-1.914-.022-2.813a12.312,12.312,0,0,0-1.77-1.689c-.622-.788-2.39-.563-4.078-.563-.9,0-2.914-.675-2.518-1.8.436-1.239.832-2.363,2.117-2.815,1.436-.563,1.914,0,3.6,0h3.941c1.389-.112,2.92.338,3.939,0a21.545,21.545,0,0,1,3.826,0,13.5,13.5,0,0,0,3.794-.225c1.694-.338,2.886.113,3.906-.225a5.522,5.522,0,0,1,3.827,0c1.006.338,3.051-.675,4.124.113,1.046.225,1.478,1.238,1.042,2.475a4.4,4.4,0,0,1-2.751,2.7,9.7,9.7,0,0,1-3.688.563c-1.271-.225-2,.563-2.634.45A3.548,3.548,0,0,0,358.837,9.8c-.537.563-1.939,1.351-2.19,2.7-.2.9-.905,2.25-1.578,4.164a33.92,33.92,0,0,1-1.545,4.39c-.694,1.013-.964,3.376-1.545,4.389a17.882,17.882,0,0,0-1.585,4.5,16.817,16.817,0,0,1-1.545,4.39c-.82,1.687-.693,2.926-1.585,4.5a13.64,13.64,0,0,0-1.545,4.389c-.283,1.126-1.48,2.926-1.585,4.5a17.058,17.058,0,0,1-1.545,4.39l-1.578,4.164c-.317.9-.766,2.815-1.24,4.165-.555,1.576-.276,2.7-.752,4.051-.633,1.8.022,2.815.229,3.827.1.675.577,1.238.711,2.139.059.788.206,1.013.941,1.8,1.067,1.126,1.87,2.363,2.837,2.813a12.874,12.874,0,0,0,3.794,1.689,36.485,36.485,0,0,0,4.868.563,17.6,17.6,0,0,0,5.865-.675,7.962,7.962,0,0,0,3.131-.9,13.645,13.645,0,0,1,2.951-1.351,22.776,22.776,0,0,1,2.919-1.576,8.929,8.929,0,0,0,2.7-1.914c1.218-.9,1.5-1.687,2.521-2.363a8.93,8.93,0,0,0,2.036-2.588c.886-1.239,1.745-3.04,2.248-3.827s1.144-2.926,1.878-4.052a29.953,29.953,0,0,0,1.612-3.939c.429-.9.759-2.475,1.46-3.826.39-.788.726-2.7,1.268-3.6.391-.788.653-2.813,1.308-3.714,1.078-1.463.633-1.8,1.268-3.6.555-1.576.64-2.139,1.268-3.6.429-.9.224-1.914,1.308-3.714a22.566,22.566,0,0,0,1.268-3.6,22.511,22.511,0,0,1,1.268-3.6,22.959,22.959,0,0,0,1.268-3.6c.436-1.238.844-3.04,1.359-4.5a10.82,10.82,0,0,0,.341-4.164,4.211,4.211,0,0,0-1.068-3.04c-.882-1.013-1.816-1.238-3.571-1.689-1.159-.225-1.556-1.013-2.22-1.687-.4-.451.76-2.477,1.674-3.151,1.217-.9,4.018-.226,6.27-.226h6.416c1.423.113,4.389,0,6.19,0,2.252,0,5.163-1.238,6.376.113.737.788-.09,2.813-1.584,4.5C410.929,8.9,409.6,7.882,408.69,8.22Zm-87.481,3.489a23.854,23.854,0,0,1-.24,4.84c-.217,1.576.2,3.263-.28,4.952-.317.9-2.62,1.689-4.422,1.689-1.013,0-.822-2.139-1.068-3.04l-1.148-2.813a16.154,16.154,0,0,0-1.3-2.7,29.064,29.064,0,0,0-1.566-2.588c-.7-.9-1.774-1.351-1.987-2.027-.179-.45-1.783-1.013-2.333-1.687-.511-.788-1.45-.676-2.794-1.014l-3.444-.45a8.086,8.086,0,0,0-4.368.9c-1.33.9-1.574,1.914-2.136,3.826-.595,1.689-.839,2.7-1.188,3.378l-1.189,3.376a14.169,14.169,0,0,0-1.228,3.489c-.436,1.238-.826,2.025-1.189,3.376-.2.9-.792,2.252-1.228,3.489s-.759,2.477-1.189,3.376l-1.228,3.489a20.1,20.1,0,0,0-1.189,3.376c-.244,1.014-.832,2.365-1.228,3.489-.4,1.464-.938,2.027-1.189,3.378a21.215,21.215,0,0,1-1.228,3.488l-1.189,3.378-1.188,3.376c-.628,1.464-.991,2.813-1.228,3.489a19.887,19.887,0,0,0-1.189,3.376,19.94,19.94,0,0,1-1.189,3.378,26.651,26.651,0,0,0-1.354,4.164,2.906,2.906,0,0,0,.135,2.813c.179.451.193,1.689,1.769,1.689s2.121,1.013,4.08.563c1.053-.113,1.893-.9,3,.112s-.4,5.29-2.161,5.178a21.732,21.732,0,0,0-3.787-.113c-1.5.113-3.383.338-4.052,0a15.525,15.525,0,0,0-3.934-.337c-1.576,0-2.8-.676-4.084-.226-1.509.451-3.08.113-3.906.226-1.206.225-2.815,0-4.171.337-1.509.451-2.815,0-4.052,0-1.126,0-2.151.676-3.833.338-1.908-.338-.184-4.277,1.565-5.4,1.482-1.013,1.952-.112,3.608-.337a9.7,9.7,0,0,0,7.056-2.139c.879-.9.853-1.464,1.89-2.815a25.655,25.655,0,0,0,1.54-4.051c.555-1.577,1.011-1.914,1.188-3.378a19.888,19.888,0,0,1,1.189-3.376c.475-1.351,1.249-2.588,1.228-3.489.092-.9,1.17-2.363,1.189-3.376a6.763,6.763,0,0,1,1.188-3.378c.628-1.463.382-2.363,1.229-3.488.813-1.351.56-1.914,1.188-3.378l1.229-3.489c.356-1.013.746-1.8,1.188-3.376a10.521,10.521,0,0,0,1.228-3.489,10.111,10.111,0,0,1,1.189-3.376c.694-1.013.753-2.139,1.228-3.489.516-1.463,1.091-2.139,1.189-3.376.1-1.576.832-2.363,1.228-3.489l1.189-3.376a13.433,13.433,0,0,1,1.188-3.378c.661-1.238,1.229-3.489.633-3.714a25.54,25.54,0,0,0-3.47-1.013,10.005,10.005,0,0,0-3.761.45c-.755.226-1.734.451-3.62,1.014a16.628,16.628,0,0,0-3.594,1.576,38.652,38.652,0,0,0-3.342,2.139,23.378,23.378,0,0,0-3.46,2.475,22.269,22.269,0,0,0-3.314,2.7c-.575.676-2.243,1.576-3.281,2.926a10.652,10.652,0,0,1-3.209,3.04c-.946.45-3.482-.338-3.046-1.576.515-1.464,2.354-3.489,3.095-4.953s2.466-3.489,3.167-4.84a53.722,53.722,0,0,1,3.166-4.839c1.006-1.576,1.653-4.052,3.128-4.728.795-.337,2.285.226,3.714,0a22.278,22.278,0,0,1,3.754-.112,20.484,20.484,0,0,0,3.714,0c1.543-.225,2.747-.45,3.6,0,.631.45,2.748-.45,3.714,0a4.649,4.649,0,0,0,3.714,0,19.084,19.084,0,0,1,3.6,0,17.72,17.72,0,0,1,3.562.112c1.5.226,2.065-.112,3.866-.112,1.689,0,1.94.563,3.714,0,.906-.338,2.477,0,3.714,0h3.714c1.351,0,2.628-.113,3.714,0s2.025,0,3.6,0c1.349,0,2.059.225,3.674.112,1.091-.225,2.9-.562,3.714,0,1.185.789.128,3.153-.2,4.728A8.17,8.17,0,0,0,321.209,11.709Zm-93.2,50.762a8.285,8.285,0,0,1-1.85,2.7c-.768.9-1.046,1.687-1.773,2.475-.88.9-.628,1.464-1.772,2.477a23.309,23.309,0,0,0-3.585,5.065,21.3,21.3,0,0,1-1.772,2.477c-.807,1.013-.72,2.363-1.773,2.475s-2.74.113-3.528.113H201.71a11.244,11.244,0,0,1-3.376,0,16.9,16.9,0,0,0-3.378,0,11.277,11.277,0,0,1-3.376,0c-.708-.225-2.105.225-3.376,0a10.864,10.864,0,0,0-3.376,0c-1.7.338-2.285-.225-3.489,0a21.144,21.144,0,0,1-6.529,0,7.469,7.469,0,0,0-3.568.225c-1.285.45-2.231.9-3.608.338-.782-.338-2.217.225-3.376,0-1.345-.338-2.583-.338-3.325-.788-1-.676-1.1-3.264,1.507-4.277a9.191,9.191,0,0,1,3.694-.9,5.416,5.416,0,0,0,2.594-.337,22.084,22.084,0,0,0,3.476-1.239c.866-.225,1.839-2.025,2.117-2.813.2-.563.905-2.252,1.538-4.052.793-2.25,1.573-3.827,2.18-6.191.408-1.8,1.578-4.164,2.219-6.3.562-1.914,1.585-4.5,2.219-6.3.793-2.252,1.434-4.39,2.259-6.416.628-1.464,1.467-4.164,2.22-6.3.555-1.576,1.314-4.052,2.219-6.3.635-1.8,1.242-4.164,2.219-6.3.68-2.25,1.956-4.277,2.18-6.191.244-1.013,1.137-2.588,1.314-4.051.171-1.126-.259-2.139.018-2.926.323-1.239-1.22-1.014-3.051-1.576.618-.788-1.725.112-3.293-.226-1.457-.337-2.386-.9-2.286-2.139-.094-1.013,1.362-2.588,2-2.813,1.285-.45,2.588,0,3.939,0,1.464,0,3.078-.113,3.979-.113a14.343,14.343,0,0,0,3.827,0c1.356-.337,2.363,0,3.714,0a21.442,21.442,0,0,1,3.826,0c1.2.113,2.33-.225,3.939,0,.861.113,2.4-.112,3.787.113,1.5.225,3.62-1.013,4.012.113a4.287,4.287,0,0,1-1.505,4.277c-1.865,1.463-4.131.225-6.13.788a23.586,23.586,0,0,0-3.673,1.8,3.85,3.85,0,0,0-2.077,2.7c-.317.9-.905,2.25-1.54,4.051l-2.14,6.079c-.673,1.912-1.737,4.614-2.179,6.189-.415,2.139-1.732,4.277-2.18,6.191-.522,1.8-1.7,4.5-2.179,6.191-.687,2.588-1.467,4.164-2.18,6.189-.753,2.139-1.472,4.5-2.18,6.191L189.2,59.206a33.806,33.806,0,0,0-2.18,6.191c-.224,1.914-1.685,3.827-1.631,4.952a29.06,29.06,0,0,0-.13,2.926c.061.788,1.325,1.351,2.074,1.464,1.384.225,3.369.337,4.906.45a26.623,26.623,0,0,0,6.534-.338c2.177-.112,4.11-1.124,5.653-1.351a8.067,8.067,0,0,0,2.873-1.124,14.227,14.227,0,0,1,2.726-1.351c.906-.338,1.905-1.576,3-1.8.715-.113,1.872-1.8,3.229-2.139a6.9,6.9,0,0,0,2.852-2.027,9.206,9.206,0,0,1,2.627-2.025,10.629,10.629,0,0,0,2.593-2.252,12.468,12.468,0,0,1,2.634-2.363c1.4-.788,2.993.45,2.748,1.464C229.541,60.67,228.283,61.683,228.005,62.471ZM165.8,8.22A18.285,18.285,0,0,0,163,9.457a10.642,10.642,0,0,0-4,3.04,47.036,47.036,0,0,0-2.889,4.052,18.9,18.9,0,0,0-1.77,4.389,23.046,23.046,0,0,1-1.268,3.6,24.3,24.3,0,0,0-1.308,3.714,11.353,11.353,0,0,1-1.268,3.6,24.111,24.111,0,0,0-1.308,3.714,24.233,24.233,0,0,1-1.307,3.714c-1.046,1.689-.6,2.027-1.308,3.714s-.952,2.7-1.268,3.6L144,50.315c-.284,1.124-1.8,3.826-1.9,5.065-.025,1.351-1.612,3.939-2.272,5.177-1.316,2.139-1.758,3.714-2.724,5.178a29.7,29.7,0,0,1-3.578,4.727c-.575.675-2.036,2.588-2.983,3.038-1.933,1.014-2.289,2.027-3.275,2.59-.873.563-2.733,1.687-3.567,2.139a19.442,19.442,0,0,1-3.594,1.576,16.214,16.214,0,0,0-3.587,1.238c-1.363.675-2.2,1.126-3.767.788-.821-.225-2.449.563-3.648.45a26.206,26.206,0,0,0-3.568.226,33.162,33.162,0,0,1-5.694-.451c-1.642-.45-3.927-.675-4.854-1.238a23.511,23.511,0,0,1-4.014-2.025c-1.107-1.014-1.465-1.914-2.95-2.815A3.532,3.532,0,0,1,86,72.488a2.356,2.356,0,0,0-.486-2.139,3.537,3.537,0,0,1-.333-2.25c.37-1.689-.426-3.264.36-5.178.666-1.576.48-3.6,1.5-5.853l1.823-5.177A9.818,9.818,0,0,0,90.4,47.5c.1-1.576.991-2.813,1.545-4.389a22.658,22.658,0,0,1,1.545-4.39,35.33,35.33,0,0,0,1.585-4.5c.251-1.351,1.442-2.813,1.545-4.389.132-1.013,1.024-2.59,1.545-4.39a33.516,33.516,0,0,0,1.547-4.389,17.076,17.076,0,0,1,1.545-4.39,9.847,9.847,0,0,0,1.465-4.164c-.021-.9.673-1.914-.022-2.813a12.25,12.25,0,0,0-1.769-1.689c-.624-.788-2.391-.563-4.08-.563-.9,0-2.913-.675-2.517-1.8.436-1.239.832-2.363,2.117-2.815,1.435-.563,1.912,0,3.6,0H104c1.391-.112,2.921.338,3.939,0a21.559,21.559,0,0,1,3.827,0,13.5,13.5,0,0,0,3.793-.225c1.7-.338,2.888.113,3.906-.225a5.522,5.522,0,0,1,3.827,0c1.007.338,3.052-.675,4.125.113,1.046.225,1.478,1.238,1.042,2.475a4.4,4.4,0,0,1-2.753,2.7,9.693,9.693,0,0,1-3.687.563c-1.272-.225-2,.563-2.635.45A3.55,3.55,0,0,0,115.946,9.8c-.535.563-1.939,1.351-2.188,2.7-.2.9-.905,2.25-1.58,4.164a33.509,33.509,0,0,1-1.545,4.39c-.694,1.013-.963,3.376-1.545,4.389a17.817,17.817,0,0,0-1.584,4.5,16.829,16.829,0,0,1-1.547,4.39c-.818,1.687-.691,2.926-1.584,4.5a13.608,13.608,0,0,0-1.545,4.389c-.284,1.126-1.48,2.926-1.585,4.5a17.057,17.057,0,0,1-1.545,4.39L98.118,56.28c-.317.9-.766,2.815-1.242,4.165-.555,1.576-.276,2.7-.751,4.051-.635,1.8.022,2.815.228,3.827.1.675.578,1.238.711,2.139.061.788.206,1.013.942,1.8,1.067,1.126,1.868,2.363,2.835,2.813a12.9,12.9,0,0,0,3.8,1.689,36.464,36.464,0,0,0,4.866.563,17.6,17.6,0,0,0,5.865-.675,7.969,7.969,0,0,0,3.132-.9,13.585,13.585,0,0,1,2.951-1.351,22.752,22.752,0,0,1,2.918-1.576,8.916,8.916,0,0,0,2.7-1.914c1.217-.9,1.494-1.687,2.519-2.363a8.962,8.962,0,0,0,2.038-2.588c.886-1.239,1.745-3.04,2.248-3.827s1.142-2.926,1.876-4.052a29.581,29.581,0,0,0,1.612-3.939c.43-.9.76-2.475,1.46-3.826.39-.788.727-2.7,1.268-3.6.39-.788.654-2.813,1.308-3.714,1.078-1.463.635-1.8,1.268-3.6.555-1.576.64-2.139,1.268-3.6.43-.9.224-1.914,1.308-3.714a22.427,22.427,0,0,0,1.268-3.6,22.657,22.657,0,0,1,1.268-3.6,22.817,22.817,0,0,0,1.268-3.6c.436-1.238.844-3.04,1.36-4.5a10.848,10.848,0,0,0,.341-4.164,4.219,4.219,0,0,0-1.069-3.04c-.882-1.013-1.814-1.238-3.569-1.689-1.159-.225-1.558-1.013-2.22-1.687-.4-.451.759-2.477,1.672-3.151,1.217-.9,4.019-.226,6.27-.226h6.416c1.424.113,4.39,0,6.191,0,2.25,0,5.163-1.238,6.376.113.735.788-.091,2.813-1.585,4.5C168.038,8.9,166.706,7.882,165.8,8.22ZM73.141,11.709a45.267,45.267,0,0,1-.1,5.065c-.224,1.914.871,3.6-.359,5.177a5.007,5.007,0,0,1-4.157,1.576c-.934-.225-.855-2.363-1.022-3.488L66.22,16.661a19.687,19.687,0,0,0-1.559-2.926,20.455,20.455,0,0,0-1.9-2.588A5.439,5.439,0,0,0,60.287,8.9a10.928,10.928,0,0,1-2.895-1.689,33.749,33.749,0,0,0-3.43-1.126,10.472,10.472,0,0,0-3.782-.45c-2.7,0-3.727.675-6.057.9-1.389.113-1.893.9-2.873,1.126a9.469,9.469,0,0,0-2.878,1.464,18.8,18.8,0,0,0-2.508,1.687c-1.217.9-1.336,1.239-2.514,2.027A9.3,9.3,0,0,0,30.943,15.2c-.424.563-1.945,1.687-2.223,2.475a20.354,20.354,0,0,1-2.036,2.59c-.774,1.238-1.614,2.025-2,2.813A18.3,18.3,0,0,1,22.9,25.891c-1.072,1.124-1.131,2.25-1.667,2.813-1.3,1.463-2.134,3.827-2.809,5.74-.984,2.477-1.533,3.714-2.126,5.4A51.409,51.409,0,0,0,14.577,45.7a15.64,15.64,0,0,0-.693,2.926c-.171,1.126.12,1.576-.395,3.04-.7,1.349.087,1.349-.316,2.813a12.809,12.809,0,0,0,.023,2.813c-.065,1.464-.079,2.139.214,2.59.7.9.12,1.576.479,2.475.312,1.351-.257,1.689.631,2.363.742.451.531,1.689,1.049,2.139.96.788.869,1.689,1.352,1.914.927.563.73,1.126,1.7,1.576a7.234,7.234,0,0,1,2,1.351,4.627,4.627,0,0,0,2.5.9,8.479,8.479,0,0,0,2.729.563c.788,0,2.053.563,3.184.225.755-.225,2.357.338,3.793-.225a28.284,28.284,0,0,1,3.694-.9c.868-.225,2.231-.9,3.667-1.463a9.329,9.329,0,0,0,3.56-1.8c.5-.45,2.2-1.463,3.422-2.363a28.568,28.568,0,0,0,3.162-2.588c1.144-1.013,1.264-1.351,3.056-2.926,1.6-1.351,1.176-2.7,2.99-3.376A2.609,2.609,0,0,1,59.6,59.431c.319,1.014-2.263,2.59-3.38,4.165-.734,1.124-2.559,2.475-3.558,3.714-.807,1.013-2.892,2.139-3.818,3.489-1.382,1.687-2.554,2.139-4.147,3.151-.722.45-1.708,1.013-2.773,1.8-.76.563-1.966.788-2.806,1.576-1.1.9-2.117.9-2.838,1.351-.608.45-1.887.563-2.873,1.126-1.065.788-2.112.563-2.906.9a9.9,9.9,0,0,1-2.787.563c-2.409.45-3.608.338-5.6.563-1.656.225-2.4-.225-3.522-.225-1.464,0-2.278-.563-3.292-.563-1.124,0-1.992.225-2.947-.9-.662-.675-1.562-.675-2.562-1.349a17.578,17.578,0,0,1-2.26-1.577C6.8,76.09,5.982,75.865,5.506,75.3a12.067,12.067,0,0,1-1.612-2.139c-.252-.563-.875-1.351-1.38-2.477a19.874,19.874,0,0,0-1-2.588,4.9,4.9,0,0,1-.7-2.815,17.57,17.57,0,0,0-.433-2.926,14.7,14.7,0,0,1-.128-3.151A24.213,24.213,0,0,0,.39,55.942c.059-1.124.342-2.25.475-3.263a27.706,27.706,0,0,1,.778-3.489c.237-.676.522-1.8,1.115-3.489a11.926,11.926,0,0,1,1.381-3.6A40.926,40.926,0,0,0,5.9,38.385c.78-1.577,1.508-2.365,1.91-3.827a9.588,9.588,0,0,1,2.321-3.714c1.271-1.689,1.137-2.588,2.474-3.827A22.17,22.17,0,0,0,15.372,23.3c.5-.788,2.11-2.475,2.957-3.6.422-.563,1.759-1.8,3.1-3.376a15.757,15.757,0,0,1,3.4-3.264c1.516-.788,1.985-1.8,3.507-2.926C29.9,8.9,30.725,8.783,31.949,7.545c.535-.563,2.653-1.464,3.832-2.252a21.356,21.356,0,0,1,3.938-1.914,26.359,26.359,0,0,1,3.965-1.351,11.85,11.85,0,0,1,4.143-.9C49.443,1.016,50.389.566,52,.791c1.722.225,3.336.113,4.681.45,1.755.451,2.53,1.126,4.251,1.351,2.166.563,3.179.563,3.921,1.013.7.563,2.813,0,4.138-.562,1.508-.451,3.03-1.577,4.375-1.239,1.94.563.2,3.264-.055,4.953A31.4,31.4,0,0,0,73.141,11.709Z" transform="translate(-0.186 -0.729)" fill="#131a22" fill-rule="evenodd"/>
</svg>
