<svg xmlns="http://www.w3.org/2000/svg" width="1437.235" height="217.818" viewBox="0 0 1437.235 217.818">
  <path id="パス_43702" data-name="パス 43702" d="M1431.72,63.256c-.553,2.424,1.061,5.152-1.186,6.363-1.89,1.061-4.9.152-6.265.152-1.614-.152-5,0-6.365,0a28.362,28.362,0,0,0-6.212,0,28.2,28.2,0,0,1-6.213,0,41.966,41.966,0,0,0-6.212,0c-1.364,0-4.34-.152-6.06,0a46.96,46.96,0,0,1-6.515,0c-1.159-.152-2.487.606-4.18,1.969-1.284,1.061-2.612,1.819-2.951,3.636-.25,2.424-1.408,4.849-1.079,6.062.419,1.817-.222,3.636-.2,5.3a23.737,23.737,0,0,0,.766,4.7,6.832,6.832,0,0,0,1.845,3.788c.838,1.061,1.47,2.272,2.869,3.03l4.36,1.819c2,.757,3.324.454,5.846.606,2.22.151,4.662-.758,6.632-.758a16.043,16.043,0,0,0,6.712-2.272c2.193-1.061,4.172-1.516,6.534-3.485a19.769,19.769,0,0,1,3.324-2.122c.919-.455,1.453-1.969,3.529-2.274a2.16,2.16,0,0,1,2.424,2.576c-.33,1.364-3.289,2.879-4.216,3.788-1.854,1.819-3.12,1.969-4.358,3.333-1.391,1.364-2.71,1.667-4.5,2.879-1.381.909-3.521,1.819-4.492,2.424a20.322,20.322,0,0,1-4.636,1.969,16.732,16.732,0,0,1-4.724,1.364c-1.917-.151-3.253,1.061-4.715.91-.856-.152-3.137.3-4.652.3-2.272,0-4.536-.455-6.756-.607-1.765-.151-4.314-1.514-5.517-1.969-2.2-1.061-2.54-1.819-4.483-3.182a17.316,17.316,0,0,1-3.252-4.091c-1.026-1.817-2.629-2.424-2.023-5,.294-2.121-.437-3.485-.846-5.757-.321-1.668.382-4.092.579-6.364a54.384,54.384,0,0,1,1.8-6.818c.758-2.576,2.149-3.94,3.013-6.818.49-1.819,2.46-4.394,4.073-6.818,1.56-2.274,3-3.788,5.124-6.364.775-.909,1.7-1.819,2.942-3.182.516-.606,2.147-1.364,2.986-2.878a6.779,6.779,0,0,1,3.182-2.576,17.473,17.473,0,0,0,3.485-2.575c1.64-1.213,2.851-1.213,3.475-2.121a4.186,4.186,0,0,1,3.521-1.819c1.819,0,2.7-1.212,3.717-1.514a19.429,19.429,0,0,1,3.761-1.213c2.888-.455,4.876-1.364,7.442-.909l5.643.758c1.613.151,2.959,1.06,4.911,1.969,1.55.758,2.085,1.819,3.876,3.182,1.293,1.06,1.471,2.272,2.8,4.091a10.982,10.982,0,0,1,1.462,5.3c.018,1.667.589,3.485.5,5.455A24.086,24.086,0,0,1,1431.72,63.256Zm-11.105-10.607c.125-1.212-.355-2.423-.134-3.484.33-1.364-.418-1.819-1.007-2.727a12.564,12.564,0,0,0-1.978-2.121,4.357,4.357,0,0,0-3-1.364c-1.106-.3-2.907-1.213-4.029-.607a6.662,6.662,0,0,1-4.457.607c-.953-.3-2.852,1.212-3.966,1.364a7.118,7.118,0,0,0-3.78,2.121c-1.542,1.364-2.255,1.667-3.441,2.878s-1.505,2.121-2.638,3.182a10.222,10.222,0,0,0-2.79,3.182c-1.409,2.272-1.48,3.333-.1,5a8.662,8.662,0,0,0,4.394,2.576c1.961.454,4.947.151,8.333,0,2.63-.152,6.525-.455,8.789,0,1.711.3,3.913-1.213,6.158-2.424,1.685-.91,3.548-3.182,3.681-4.849C1420.722,54.922,1420.481,54.316,1420.615,52.648Zm-66.822-6.211a5.232,5.232,0,0,1-4.483,1.969c-1.872.151-2.388-1.819-3.386-2.424a17.2,17.2,0,0,0-4.582-.758c-.758,0-.428,1.213-.1,2.424.516,1.969,1.1,3.333,1.024,4.394a17.988,17.988,0,0,1-.6,4.7c-.588,1.667-.321,3.484-.553,5a10.724,10.724,0,0,1-2.424,5.152c-1.033,1.213-1.934,3.333-3.378,4.849-1.952,1.667-3.352,3.485-4.225,4.243-1.489,1.212-2.834,2.878-4.769,3.636-1.372.455-3.377,2.272-5.16,3.03-2.139.91-4.429,1.819-5.5,2.274a19.3,19.3,0,0,1-5.276,1.212c-2.38.3-4.349.3-5.518.606-2.485.607-3.974-.757-6.6-1.061A8.944,8.944,0,0,0,1293,86.893a5.734,5.734,0,0,0-2.888,3.03c-.418.758.169,1.667,1.167,2.272,1.248.758,3.164.91,4.876,1.213,2.157.758,4.581.758,7.148,1.212,1.863.3,3.173.455,4.18.607,1.309.151,3.217.757,4.277.757a15.764,15.764,0,0,1,4.225.91c1.106.3,3.379.3,3.967,1.212.936,1.213,2.2,1.061,3.609,1.364,1.106.3,1.194.91,3.093,1.971a25.777,25.777,0,0,1,2.326,2.424c.641.757,1.533,1.667,1.408,2.878-.026,1.364.161,2.122.232,3.637a18.46,18.46,0,0,1-.892,4.242c-.6,2.121-1.577,3.182-2.932,5.3-1.044,1.667-2.683,2.878-4.278,4.394-1.8,1.667-4.154,3.182-5.268,3.333-1.773.3-4.279,1.819-6.008,2.424l-6.194,1.667c-1.677.455-3.539.152-6.079.91-2.139.909-4.4.454-5.669.606a18.579,18.579,0,0,1-4.9.152c-2.122,0-5.045-.3-7.87-.455-2.067-.152-3.619-.909-4.937-.606a5.3,5.3,0,0,1-4.777-1.061c-1.552-.758-2.665-.607-4.208-1.819-1.844-1.212-1.47-2.272-3.03-2.575-1.462-.152-1.667-2.576-1.6-3.182a10.428,10.428,0,0,1,.437-4.243c.91-2.575,2.657-4.091,4.725-6.515,1.292-1.516,1.791-1.212,3.842-2.727,1.792-1.212,2.512-1.969,4.751-2.727a47.062,47.062,0,0,0,4.331-1.969,8.239,8.239,0,0,0,2.915-1.819c.873-.758.989-1.516-.865-2.272-2.255-.91-3.851-1.971-4.331-3.182s-1.312-2.727-.41-4.849a14.509,14.509,0,0,1,3.066-4.394,10.972,10.972,0,0,1,3.894-2.879c1.481-.758,1.953-1.667,2.639-3.182,1.052-2.121,2.371-5,.535-6.666-.6-.455-1.693-1.213-1.042-3.485.437-1.667-.464-2.121-.285-3.485a17.136,17.136,0,0,1,1.506-7.273c.428-1.212,1.944-3.788,2.424-5.152,1-1.969,1.481-3.333,3.228-4.849A22.975,22.975,0,0,0,1297.4,47.8a17.792,17.792,0,0,1,4.617-3.637c2.246-1.212,3.119-1.969,5.063-3.182,1.738-1.061,3.307-1.212,5.348-2.272a20.277,20.277,0,0,1,5.384-1.516c1.061,0,3.45-.757,5.312-.454,2.576,0,2.959,1.061,4.528.909s2.612.758,4.421,1.213a18.206,18.206,0,0,0,5.891.909c1.917.151,5.064-.606,6.044-1.667.927-.91,2.9-.91,4.117-1.364a18.762,18.762,0,0,1,4.118-1.364c2.274,0,2.906,1.212,4.1,2.121,1.445,1.06.5,2.878.411,4.848C1356.628,43.558,1355.4,44.466,1353.793,46.437Zm-68.758,62.578a31.7,31.7,0,0,0-4.644,2.423,18.189,18.189,0,0,0-3.7,3.182,22.868,22.868,0,0,0-2.559,4.243c-1.051,2.121.231,3.636.507,5,.223,1.516,2.078,2.274,4.546,2.576a60.9,60.9,0,0,0,6.6,1.061l5.7.151,6.471-.3a29.127,29.127,0,0,1,4.1-.454c.758,0,2.184-.607,4.358-.758a6.862,6.862,0,0,0,4.216-1.213c.972-.606,1.837-.909,3.673-1.817a9.862,9.862,0,0,0,4.707-5.607c.428-1.213-.2-2.879-.223-4.091-.232-1.061-2.291-1.667-2.878-2.576-1.079-1.667-3.406-1.514-4.759-1.969-2.157-.758-3.823-.758-5.375-1.516a16.59,16.59,0,0,0-5.33-1.212c-1.756-.606-2.906-1.213-4.876-1.213-1.516,0-3.761,1.213-5.9,2.121A17.732,17.732,0,0,1,1285.035,109.015Zm45.61-54.093c-.213-1.969.09-4.546-.328-6.364-.178-1.212-1.034-1.364-1.061-2.575a2.324,2.324,0,0,0-1.88-1.969c-1.462-.152-4.262-1.668-6.079-1.668-3.485,0-4.546,0-7.461,1.819a26.4,26.4,0,0,0-6.106,4.849c-1.961,2.121-4.278,4.394-4.821,6.364-.6,2.12-2.059,4.545-3.218,6.969-1.213,2.576-1.115,5.3-1.649,6.818a7.309,7.309,0,0,0,.382,6.212c.971,1.971,1.541,3.788,2.842,4.4a27.928,27.928,0,0,0,6.026,1.817,13.075,13.075,0,0,0,7.459-1.817c1.783-.758,1.953-1.668,3.325-2.121a6.883,6.883,0,0,0,2.879-2.576c.99-1.514,3.815-3.939,4.822-6.363.9-2.121,2.88-5.152,3.219-6.97C1329.442,59.619,1330.948,57.5,1330.645,54.922ZM1273.426,12.5a41.2,41.2,0,0,0-1.978,5.607c-.482,1.364-.678,3.636-2.033,5.757a41.015,41.015,0,0,0-1.978,5.607,40.946,40.946,0,0,1-1.98,5.607c-1.461,2.424-.972,3.181-1.979,5.605-1.061,2.576-1.5,4.243-1.979,5.607s-1.907,4.546-2.032,5.757c-.553,2.424-1.382,3.485-1.979,5.607-.4,2.424-1.934,3.333-1.98,5.607.179,1.212-1.6,4.545-1.979,5.605l-1.978,5.607c-.553,2.424-1.908,4.546-1.979,5.607-.152,2.575-1.292,4.091-1.979,5.605-1.061,2.576-1.337,3.788-1.979,5.607-1.247,4.394-3.057,6.515-1.516,7.728a7.663,7.663,0,0,0,2.14,1.667c.748.454,4.064-1.213,4.732.758.482,1.212-.82,3.181-1.765,5-.74,1.667-3.869,1.516-6.052,2.121a39.805,39.805,0,0,1-5.473.909,18.32,18.32,0,0,1-5,0c-1.462-.151-3.333,0-3.761-1.364-.48-1.212.33-3.939.616-5.607.294-2.12-1.533-1.667-2.817-.606a19.787,19.787,0,0,1-5.829,3.637c-1.524.454-4.582,1.817-6.007,2.424-1.783.757-4.207.757-6.231.909a13.413,13.413,0,0,1-6.14-1.061c-1.5-.909-3.253-1.516-4.7-2.575-1-.607-2.468-2.879-3.252-4.092a17.141,17.141,0,0,1-2.024-5,21.569,21.569,0,0,1-.846-5.757c-.2-2.424-1.1-3.334.019-6.062a17.787,17.787,0,0,0,.98-6.212,14.588,14.588,0,0,1,1.685-6.06,45.108,45.108,0,0,0,2.595-6.06c.74-1.667,2.656-4.091,3.557-6.212.578-1.213,2.334-3.182,4.207-5.91a20.324,20.324,0,0,1,4.955-5.455c2.2-1.516,3.245-3.182,5.651-4.849a44.582,44.582,0,0,1,6.088-3.94c1.176-.757,4.323-1.514,6.461-2.424a27.842,27.842,0,0,1,6.837-.909,15.029,15.029,0,0,1,5.534,1.061,4.665,4.665,0,0,1,2.853,1.364,11.575,11.575,0,0,0,2.986,2.272c1.15.607,2.978.152,4.492-2.424.785-1.364,2.059-1.969,2.808-4.091q.482-1.363,2.22-5a28.823,28.823,0,0,0,2.353-6.667,31.013,31.013,0,0,1,1.56-4.849c.633-1.364.856-2.424-.294-3.03s-1.889-1.514-3.2-1.667c-1.159-.151-5.009.455-3.993-2.424a4.953,4.953,0,0,1,3.494-3.03,26.871,26.871,0,0,0,4.27-1.364c1.328-.758,4.063-1.213,5.437-1.667,2.745-.91,4.634-1.971,6.052-2.121,2.379-.3,5.16-3.03,6.043-1.667.98,1.514-1.23,3.485-2.033,5.757C1274.559,8.86,1274.532,10.223,1273.426,12.5Zm-28.042,36.517c-.383-1.061-1.836-1.667-2.941-1.969-1.56-.3-1.694-1.213-3.557-1.516-1.311-.151-3.476-.454-4.234-.454-1.817,0-3.253,1.06-5.267.757-1.007-.151-3.316,1.667-4.688,2.121a12.276,12.276,0,0,0-4.154,3.182,34.117,34.117,0,0,0-3.566,4.091c-.829,1.061-2.229,2.879-3.271,4.546s-1.987,3.485-2.772,4.849a31.094,31.094,0,0,0-2.165,4.849,17.351,17.351,0,0,0-1.7,4.394c-.535,1.514-.927,3.485-1.4,4.394-.945,1.819-.731,3.788-1.15,4.546a8.009,8.009,0,0,0-.7,4.546c.321,1.667-.117,3.333.169,4.242a15.8,15.8,0,0,1,.837,3.637c.071,1.514.927,1.667,1.658,3.03.633,1.212,1.844,1.212,3.146,1.819.8.3,2.87.454,4.43.757,1.256.3,2.629-.151,5.115-.757a15.829,15.829,0,0,0,5.09-1.971c1.683-.909,4.037-2.424,5.214-3.181,2-1.365,5.481-6.517,6.177-8.486a29.053,29.053,0,0,0,1.506-4.7c.348-2.274,1.622-2.879,1.766-5,.071-1.061,1.222-3.03,1.712-4.848s1.792-3.788,1.765-5c.178-1.364,1.685-3.485,1.765-5a12.31,12.31,0,0,1,1.872-5.3c.846-1.969.562-2.879.543-4.546C1246.623,50.225,1246.115,50.376,1245.384,49.012Zm-73.41,20.607c-1.89,1.061-4.9.152-6.266.152-1.613-.152-5,0-6.364,0a28.358,28.358,0,0,0-6.212,0,28.2,28.2,0,0,1-6.213,0,41.966,41.966,0,0,0-6.212,0c-1.364,0-4.341-.152-6.06,0a46.96,46.96,0,0,1-6.515,0c-1.159-.152-2.487.606-4.181,1.969-1.284,1.061-2.612,1.819-2.95,3.636-.25,2.424-1.409,4.849-1.079,6.062.419,1.817-.224,3.636-.205,5.3a23.654,23.654,0,0,0,.766,4.7,6.832,6.832,0,0,0,1.844,3.788c.837,1.061,1.47,2.272,2.87,3.03l4.358,1.819c2.006.757,3.324.454,5.847.606,2.22.151,4.662-.758,6.632-.758a16.045,16.045,0,0,0,6.712-2.272c2.192-1.061,4.17-1.516,6.533-3.485a19.78,19.78,0,0,1,3.325-2.122c.917-.455,1.452-1.969,3.529-2.274a2.161,2.161,0,0,1,2.424,2.576c-.33,1.364-3.289,2.879-4.216,3.788-1.854,1.819-3.12,1.969-4.36,3.333-1.389,1.364-2.709,1.667-4.5,2.879-1.382.909-3.521,1.819-4.492,2.424a20.32,20.32,0,0,1-4.635,1.969,16.748,16.748,0,0,1-4.724,1.364c-1.917-.151-3.254,1.061-4.715.91-.856-.152-3.137.3-4.653.3-2.272,0-4.537-.455-6.755-.607-1.765-.151-4.314-1.514-5.517-1.969-2.2-1.061-2.541-1.819-4.483-3.182a17.329,17.329,0,0,1-3.254-4.091c-1.024-1.817-2.629-2.424-2.022-5,.294-2.121-.437-3.485-.847-5.757-.32-1.668.384-4.092.58-6.364a54.17,54.17,0,0,1,1.8-6.818c.757-2.576,2.147-3.94,3.013-6.818.489-1.819,2.46-4.394,4.073-6.818,1.56-2.274,3-3.788,5.126-6.364.775-.909,1.7-1.819,2.941-3.182.517-.606,2.148-1.364,2.986-2.878a6.786,6.786,0,0,1,3.182-2.576,17.425,17.425,0,0,0,3.485-2.575c1.641-1.213,2.852-1.213,3.477-2.121a4.186,4.186,0,0,1,3.521-1.819c1.819,0,2.7-1.212,3.717-1.514a19.385,19.385,0,0,1,3.761-1.213c2.888-.455,4.876-1.364,7.442-.909l5.642.758c1.613.151,2.959,1.06,4.911,1.969,1.55.758,2.085,1.819,3.876,3.182,1.293,1.06,1.47,2.272,2.8,4.091a10.977,10.977,0,0,1,1.462,5.3c.018,1.667.588,3.485.5,5.455a24.141,24.141,0,0,1-.517,5.759C1172.607,65.68,1174.221,68.407,1171.974,69.619Zm-9.919-16.971c.125-1.212-.357-2.423-.134-3.484.33-1.364-.418-1.819-1.007-2.727a12.669,12.669,0,0,0-1.978-2.121,4.36,4.36,0,0,0-3-1.364c-1.105-.3-2.906-1.213-4.028-.607a6.664,6.664,0,0,1-4.457.607c-.954-.3-2.852,1.212-3.966,1.364a7.115,7.115,0,0,0-3.779,2.121c-1.543,1.364-2.255,1.667-3.441,2.878s-1.506,2.121-2.638,3.182a10.229,10.229,0,0,0-2.79,3.182c-1.409,2.272-1.48,3.333-.1,5a8.671,8.671,0,0,0,4.394,2.576c1.96.454,4.946.151,8.333,0,2.629-.152,6.526-.455,8.79,0,1.71.3,3.911-1.213,6.158-2.424,1.685-.91,3.547-3.182,3.681-4.849C1162.161,54.922,1161.921,54.316,1162.055,52.648Zm-93.549,8.183c-1.623,2.878-1.819,5.152-2.675,7.576l-2.728,7.727-2.674,7.576c-1.177,3.333-1.971,5.152-2.728,7.728-1.5,4.242-1.364,5.152-1.355,7.272-.018.91,1.132,1.516,2.291,1.668,1.462.151,2.746-.91,4.634.606.945.758-.017,3.485-1.978,5.607-2.478,2.727-4.546,0-7.63.151h-7.424c-2.577,0-5.615.455-7.273,0-1.507-.455-6.6,1.969-7.371-.151-.579-1.364.7-4.546,1.98-5.607,1.131-1.061,3.636,0,5.062-.606a20.064,20.064,0,0,0,3.466-1.668c2.2-1.514,2.05-4.091,3.781-7.272,1.212-2.576,1.4-4.4,2.621-7.425,1.257-2.272,1.355-4.7,2.567-7.273l2.621-7.424c.891-1.667,1.712-4.849,2.568-7.273.75-2.121,1.14-4.091,1.72-5.3.75-2.121.33-3.94.812-5.3.489-1.819-.223-4.091-2.13-4.7-1.756-.607-2.888-2.121-5.419-1.819a20.975,20.975,0,0,0-5.321.909c-2.086.758-3.815,1.364-5.09,1.971a21.637,21.637,0,0,0-5.106,2.878c-1.231.91-4.136,2.274-4.76,3.182-.677,1.061-.722,3.333-1.6,4.546-.829,1.061-1.071,3.03-1.658,4.7a29.035,29.035,0,0,1-1.658,4.7,28.982,28.982,0,0,0-1.66,4.7l-1.71,4.849c-.321.909-1.132,3.636-1.658,4.7-.99,1.516-1.177,3.333-1.658,4.7-.588,1.667-1.115,2.727-1.658,4.7l-1.356,7.272c-.169.91,1.23,1.668,2.14,1.668,1.613.151,3.5-.91,4.787.606,1.23,1.667-.892,4.243-1.98,5.607-2.38,2.878-5.962.151-7.933.151a58.27,58.27,0,0,1-7.273,0c-2.112-.455-4.9.152-7.727,0-3.431-.151-7.06,1.969-7.826-.151-.285-.91-.472-4.243,1.979-5.607,2.505-1.516,4.1-.455,5.464-.455a6.18,6.18,0,0,0,3.717-1.514c1.23-.91,3-3.788,4.189-7.576,1.025-3.334,1.426-5.759,2.995-8.486,1.524-3.03,1.872-5.3,3-8.485.856-2.424,2.585-5.607,3.049-8.637a44.777,44.777,0,0,1,2.942-8.334,25.593,25.593,0,0,0,1.56-4.849,4.615,4.615,0,0,0-.294-3.03,5.2,5.2,0,0,0-2.54-1.817c-1.506-.455-4.4.454-4.929-1.061a3.98,3.98,0,0,1,1.5-4.243c1.489-1.212,3.717-1.516,6.15-1.969,2.282-.455,4.225-1.667,6.194-1.667,1.667,0,3.815-1.364,5.786-1.364s4.972-1.213,5.356-.152c.668,1.969-1.194,4.243.044,5.455.793.758,2.976.152,4.911-.606,2.291-.909,4.438-2.274,5.507-2.727l4.431-1.819c3.155-1.212,5.286-1.667,7.451-1.364,1.007.152,3.886.152,4.733.758s2.4,1.364,3.8,2.121a7.964,7.964,0,0,1,2.512,3.181,9.263,9.263,0,0,1,1.382,4.243,17.557,17.557,0,0,1-.642,6.97A46.651,46.651,0,0,1,1068.506,60.831ZM979.35,57.346a27.088,27.088,0,0,1-1.6,4.546,27.113,27.113,0,0,0-1.605,4.545c-.027,1.364-1.069,3.031-1.6,4.546a27.2,27.2,0,0,1-1.605,4.546c-.837,1.516-.508,2.727-1.658,4.7-.846,1.971-1.284,3.637-1.6,4.546-1.426,3.182-1.694,6.515-3.156,8.94a13.178,13.178,0,0,0-1.542,3.94,1.863,1.863,0,0,0,1.524,2.12,15.616,15.616,0,0,0,2.477-.151c1.364,0,2.238-.758,3.04-.455a1.729,1.729,0,0,1,1.015,2.274c-.481,1.364-1.907,1.969-3.147,3.333a7.9,7.9,0,0,1-3.832,2.272,21.836,21.836,0,0,1-7.718,2.121c-1.462-.151-3.984-.3-4.456-1.969s-2.274-2.576-3.12-3.182c-.945-.758-2.193-1.516-4.751.152-1.846,1.364-2.754,1.364-4.537,2.12a28.163,28.163,0,0,1-6.256,2.274,24.981,24.981,0,0,1-6.329.758c-1.817,0-5,0-6.39-1.213-.944-.758-1.952-.909-2.5-1.514-.5-.3-.99-1.061-2.032-1.971-.99-1.061-.82-1.969-1.265-2.424-.7-.606-.624-1.667-.7-2.727-.312-2.121.7-4.545.891-6.818.125-1.212,1.783-3.333,2.47-4.849.32-.909,2.014-2.272,3.521-4.394a13.876,13.876,0,0,1,4.216-3.788c2.138-.909,2.87-2.121,4.964-3.333,2.2-1.516,3.316-1.667,5.26-2.879.766-.455,3.717-1.514,5.348-2.272,1.988-.91,3.1-1.061,5.187-1.819,2.237-.758,3.049-.909,5.081-1.516a62.232,62.232,0,0,1,6.346-1.667,10.022,10.022,0,0,0,4.536-2.121c1.24-1.364,1.355-2.12,2.549-3.788.981-1.06,1.071-3.03,1.7-4.394a34.026,34.026,0,0,0,1.31-5c.134-1.667.918-3.03-.071-4.091a23.378,23.378,0,0,0-2.272-2.576,6.345,6.345,0,0,0-4.626-1.061c-1.622.3-3.592.3-4.51.758-2.086.758-2.9.909-3.467,1.667-1.917,2.424-4.368,3.788-5.41,5.455a22.732,22.732,0,0,1-5.009,5.607c-1.543,1.364-3.013,1.667-6.311,2.424-1.622.3-2.852-1.364-3.851-1.969-1.247-.758-1.061-2.576-.311-4.7a31.827,31.827,0,0,1,2.148-3.939,12.989,12.989,0,0,1,3.3-3.333c1.025-.758,1.944-1.213,4.145-2.729a10.352,10.352,0,0,1,4.536-2.12c1.524-.455,2.951-1.061,4.93-1.516s3.61-1.212,4.617-1.061c3.066.758,5.776-.909,7.9-.909a18.618,18.618,0,0,1,5.445.454,13.3,13.3,0,0,1,4.92,1.516c1,.606,3.253,1.516,3.94,2.576a9.881,9.881,0,0,1,2.139,4.242c.321,1.667-.169,3.485-.215,5.757C981.152,53.1,979.342,55.225,979.35,57.346ZM959.848,73.1c-.847-.606-4.991-.455-7.5,1.061a28.961,28.961,0,0,1-4.126,1.819c-1.221.454-2.157,1.817-3.976,1.817-1.969,0-3.52,1.819-4.653,2.879-1.391,1.364-3.128,2.424-3.9,3.333-1.345,1.667-2.522,2.424-3.306,3.788-1.044,1.667-1.275,3.182-2.211,4.546a6.356,6.356,0,0,0,.071,6.667c.98,1.514,3.423,3.181,5.758,2.575,1.016-.3,3.235-.151,4.554-.455a21.385,21.385,0,0,0,4.626-1.514c1.382-.91,3.253-1.061,4.483-1.969a17.27,17.27,0,0,0,3.753-3.334,23.23,23.23,0,0,0,2.987-5.455c.784-1.364.944-4.394,2.245-6.363.473-.91,1.035-3.788,1.935-5.91C960.855,75.831,960.793,73.862,959.848,73.1Zm-76.115-12.88A78.527,78.527,0,0,0,881,67.952c-.7,2.424-2.184,5.757-2.781,7.879a80.856,80.856,0,0,1-2.781,7.879c-.963,2.727-1.827,5.607-2.727,7.728-1.275,3.181-2.995,5.908-1.409,7.424a8.1,8.1,0,0,0,2.291,1.667c1.3.606,3.851-.606,4.635.606,1.024,1.819-1.391,3.94-1.926,5.456-.7,1.969-5.517.606-7.683.3-1.961-.455-4.751.151-7.424,0-3.128-.152-4.653.3-7.273,0-2.068-.152-6.854,1.817-7.317-.3-.232-1.061-.428-3.94,1.925-5.456,1.587-1.06,2.923.3,5.062-.606a32.8,32.8,0,0,0,3.468-1.667c2.147-1.364,2.2-4.091,3.832-7.424,1.418-2.727,1.658-4.7,2.728-7.728.748-2.121,2.424-5.152,2.781-7.879.49-1.819,1.756-4.546,2.727-7.727a81.388,81.388,0,0,0,2.781-7.88c.436-1.667.829-3.636,1.578-5.757.535-1.514.2-2.727.142-4.7a4.488,4.488,0,0,0-1.853-3.333,9.966,9.966,0,0,0-5.028-1.213,39.174,39.174,0,0,0-5.57.758,14.55,14.55,0,0,0-5.348,2.272c-7.969,4.546-7.674,5-9.073,6.818-2.434,3.031-3.353,6.062-4.368,8.94a27.124,27.124,0,0,0-1.605,4.546c-.186,1.819-1.381,3.485-1.6,4.546s-.571,3.333-1.658,4.7c-.776.91-1.017,2.879-1.605,4.546a27.133,27.133,0,0,1-1.6,4.546,27.042,27.042,0,0,0-1.605,4.546,22.22,22.22,0,0,0-1.408,7.424c-.081,1.516.926,1.667,2.139,1.667,1.666,0,3.752-.758,4.786.606.686,1.061.33,3.788-1.925,5.456-3.076,2.272-5.918.454-7.987.3a58.146,58.146,0,0,1-7.272,0c-1.971,0-4.84-.455-7.728,0-2.076.3-6.845,1.364-7.772-.3-.784-1.213.545-4.546,1.925-5.456,2.407-1.667,4.153-.606,5.517-.606a4.938,4.938,0,0,0,3.664-1.364,9.094,9.094,0,0,0,2.379-2.878c.42-.758.651-2.274,1.864-4.849.7-1.971,1.515-5.152,2.995-8.486,1.373-3.03,2.042-6.212,3-8.485.917-3.03,2.245-6.363,3.049-8.637s1.836-6.06,3.049-8.637c1.319-2.878,1.988-6.06,3.049-8.637.749-2.12,1.72-5.3,2.995-8.485a65.059,65.059,0,0,0,3.049-8.637c.972-3.182,1.463-5,2.434-8.182a17.674,17.674,0,0,0,1.462-5,5.634,5.634,0,0,0-.294-3.031,3.931,3.931,0,0,0-1.88-1.969c-1.506-.455-4.893-.3-4.35-2.272.812-2.727,1.971-2.576,3.4-3.182.917-.455,2.076-.3,3.5-.909,2.139-.91,3.859-1.061,6-1.971s3.093-.606,6.15-1.969c2.594-.909,4.652-2.879,5.891-1.667,1.141,1.061-2.006,4.394-2.14,6.06-.285,1.667-1.9,4.091-1.988,6.062-.186,1.817-1.756,4.545-2.139,6.06-.91,2.576-1.952,4.243-2.14,6.06-.66,2.727-1.907,4.546-2.193,6.212a30.66,30.66,0,0,1-1.712,4.849c-.641,1.819.846,3.182.624,4.243-.4,2.424,1.506,3.03,3.805,1.667,1.533-.909,4.074-1.667,5.41-2.879,1.8-1.667,3.049-.909,4.429-1.817a10.759,10.759,0,0,1,7.452-1.364,44.84,44.84,0,0,1,4.885.757,7.985,7.985,0,0,1,3.895,2.274c1.239,1.212,2.54,1.819,2.611,3.333.116,1.819,1.408,2.879,1.382,4.243.044,2.878.329,3.788-.634,6.515C884.865,56.588,884.375,58.407,883.733,60.224Zm-74.8-15c-.919.455-2.932.152-5.366.606-2.54.758-3.538.152-5.312.455a19.107,19.107,0,0,0-6.969,2.575c-2.871,2.122-4.582,4.4-5.117,5.91l-1.819,5.152-1.765,5-1.765,5c-.8,2.274-1.373,3.03-1.765,5-.33,1.364-1.221,3.03-1.766,5-.8,2.274-1.435,3.637-1.765,5-.286,1.667-1.792,3.788-1.827,5.605a24.7,24.7,0,0,1-.91,5.152,3.654,3.654,0,0,0,1.194,3.485,9.948,9.948,0,0,0,4.617,1.516c2.621.3,4.661-.758,7.006-1.819,1.524-.455,1.89-1.061,3.423-1.969,1.585-1.061,2.059-1.969,3.681-2.274a2.314,2.314,0,0,1,2.727,2.576c-.34,1.819-4.27,3.939-5.857,5-2.709,1.668-3.69,2.727-6.034,3.788a30.457,30.457,0,0,1-6.159,2.424,24.1,24.1,0,0,1-6.328.758c-1.213,0-3.842.152-4.689-.455-.944-.757-1.907-.606-3.36-1.212s-1.8-.909-2.13-2.121c-.187-.758-.784-1.212-1.007-2.727a13.917,13.917,0,0,1,.438-6.818,56.9,56.9,0,0,1,2.433-8.182c.7-1.971,1.543-3.94,1.873-5.3s1.113-2.727,1.871-5.3a35.309,35.309,0,0,1,1.873-5.3,25.572,25.572,0,0,0,1.925-5.455c.276-1.213,1.382-3.485,1.979-5.607.49-1.819,1.8-4.243,1.979-5.607.347-2.272-.081-3.636.882-6.363a2.481,2.481,0,0,0-1.7-3.333c-1.408-.3-4.252.454-5.25-.152-.5-.3-.383-3.636,1.658-4.7,1.685-.91,4.02-1.516,5.045-2.274a18.063,18.063,0,0,1,3.984-2.272,8.381,8.381,0,0,0,3.334-2.576c1.239-1.364,2.1-1.667,2.575-2.575.891-1.667,2.808-4.091,4.581-6.97a25.2,25.2,0,0,0,2.148-3.939c.428-1.213,1.088-3.94,3.272-4.546,2.13-.455,3.966-1.364,5,0,1.328,1.819-.846,4.546-1.64,6.363L796.184,28.1a8.878,8.878,0,0,0-.624,3.485c.036.758.347,2.878.793,3.333,1.729,1.969,2.46,3.333,4.429,3.333,1.819,0,2.834-.3,5.045.3,1.907.607,3.841-.151,5.294.455,1.7.758,2.442,1.667,2.21,3.182C813.047,43.861,811.068,44.316,808.929,45.224ZM748.494,15.678c-2.148,1.364-4.609,3.182-6.818,2.576-1.863-.3-4.412-1.668-5-2.576a9.108,9.108,0,0,1-.391-5.757,11.68,11.68,0,0,1,4.456-5.757c2.407-1.668,4.306-3.182,6.872-2.729,2.416.455,4.172,1.061,5.1,2.729A6.878,6.878,0,0,1,753.1,9.92C752.033,12.951,750.74,14.466,748.494,15.678Zm-6.918,20.456c.837,1.06-2.326,5.3-2.309,6.969.117,1.819-1.773,5.455-2.46,6.97a63.479,63.479,0,0,0-2.46,6.97l-2.407,6.818-2.46,6.97c-1.07,3.03-1.756,4.545-2.407,6.818a40.292,40.292,0,0,0-2.407,6.818l-2.407,6.818c-1.55,4.394-1.729,5.757-1.514,7.728.036.757,1.586,1.514,2.139,1.667,1.56.3,3.6-.758,4.732.758.687,1.06.125,3.939-1.925,5.455-3.28,2.424-5.062.606-7.986.3-1.917-.152-4.394,0-7.273,0-2.023.151-4.644-.152-7.728,0-3.244.606-6.7,1.819-7.771-.3-.785-1.213.641-4.4,1.925-5.455,2.308-1.819,3.841-.152,5.668-.607a8.384,8.384,0,0,0,3.717-1.514c1.079-.91.99-1.516,2.282-3.03,1.4-1.819,1.167-2.879,1.917-5,.8-2.272,1.568-5.3,2.942-8.334,1.159-2.424,1.819-5.152,2.942-8.333,1.069-3.031,1.47-5.456,2.995-8.486a45.615,45.615,0,0,0,2.942-8.334c.437-1.667.624-3.484,1.56-4.848.624-.91-.267-1.819-.347-2.879.027-1.364-.936-1.213-2.541-1.819-1.755-.606-5.2-.3-4.242-2.575a5.275,5.275,0,0,1,3.093-3.182c.713-.3,2.487-.606,4.064-1.212,2.443-.91,4.314-1.061,5.688-1.516a46.089,46.089,0,0,0,6.15-1.969C736.905,37.345,740.685,35.224,741.576,36.134ZM697,45.527c-1.47.3-2.2,1.516-3.521,1.819-1.167.3-2.362,1.969-2.781,2.727a18.268,18.268,0,0,1-3.111,4.091c-1.55,1.819-2.415,2.122-2.594,3.485a5.049,5.049,0,0,1-2.441,3.485c-1.436,1.061-1.668,2.575-2.443,3.485a20.617,20.617,0,0,0-2.593,3.485,13.311,13.311,0,0,1-2.443,3.484c-1.238,1.364-1.568,2.727-2.442,3.485-1.8,1.667-2.22,2.424-2.595,3.485a11.78,11.78,0,0,1-2.442,3.485,18.346,18.346,0,0,0-2.443,3.485,27.535,27.535,0,0,1-2.648,3.636,29.392,29.392,0,0,0-2.442,3.485,15.367,15.367,0,0,1-2.648,3.637,19.8,19.8,0,0,0-2.389,3.333l-2.594,3.485a20.721,20.721,0,0,0-2.443,3.485,20.21,20.21,0,0,1-2.8,3.636,4.169,4.169,0,0,1-4.243,0c-1.649-.909-.017-4.243.019-6.06-.009-2.122.223-3.637.115-5.91.081-1.516.223-3.637.171-6.062a33.348,33.348,0,0,1,.267-5.908,17,17,0,0,0,.072-6.212,6.885,6.885,0,0,1,.124-3.788c.7-1.971-.16-2.121.242-4.546.294-2.121-.347-2.879-1.765-2.727-1.568.151-2.7,1.212-3.744,2.879-1.3,1.969-2.424,2.575-3.218,4.394-.481,1.364-1.809,2.121-2.7,3.788-.946,1.817-3.218,4.394-4.466,6.212-1.56,2.272-2.951,3.636-4.26,6.06-1,1.969-3.37,4.394-4.412,6.06-1.409,2.274-2.9,3.485-4,5.759a18.172,18.172,0,0,1-4.564,6.06c-1.694,1.364-4,.606-4.242,0-.624-1.667-.624-1.667-.081-3.636.34-1.819-.3-2.576.018-3.485.6-2.121-.347-2.879.071-3.637.99-1.514-.169-1.667.117-3.333.188-1.819-.115-1.819.018-3.485.382-1.514-.267-1.819.017-3.485.232-1.514.553-2.424.072-3.636a4.866,4.866,0,0,1,.169-3.485c.374-1.061-.161-2.121.018-3.485a9.054,9.054,0,0,0,.017-3.485c-.257-2.272.438-4.242.188-6.969-.57-1.819.545-1.971.019-3.485a8.264,8.264,0,0,1,.169-3.485c.33-1.364.509-2.727.018-3.485-.437-.909.4-2.424.018-3.485a30.6,30.6,0,0,1-.018-4.243,3.4,3.4,0,0,0-1.105-2.878c-.739-.91-2.05-1.061-2.594-1.667-1.141-1.061-3.851.606-4.429-.758-.437-.91-.472-4.243,1.979-5.607,2.245-1.212,5,0,7.629-.151a62.771,62.771,0,0,1,7.576,0c2.826.151,4.394,0,7.121,0,1.819,0,6.337-1.213,7.523.151,1.23,1.667-.34,4.394-1.979,5.607-1.9,1.514-3.039.455-5.16.455a4.739,4.739,0,0,0-3.646,3.03,18.9,18.9,0,0,0-.589,4.242c-.08,1.516.115,4.4-.2,5.3a15.306,15.306,0,0,0-.357,5.3c.071,1.514-.536,4.091-.152,5.152.267,1.817-.472,3.484-.25,5,.125,1.364-.374,3.636-.3,5.152l-.232,6.667c-.215,3.181,2.264,3.03,4.037.151,2.184-3.182,3.021-4.7,4.671-6.363,1.854-1.819,2.174-2.727,3.583-5,.624-.909,2.282-3.03,3.324-4.7.42-.758,2.068-2.424,3.272-4.546a15.8,15.8,0,0,1,3.476-4.7c1.64-1.213,2.326-2.727,3.218-4.394,1.2-2.121.669-3.182.241-4.546-.365-1.971-.151-2.576-.543-3.182-.491-.758-1.177-1.819-2.184-1.969-1.711-.3-3.895.3-4.778-1.061s-.222-4.091,1.979-5.607c1.587-1.061,5.661-.151,7.478-.151,2.826.151,5.41-.3,7.273,0,2.719.454,4.653-.3,6.97,0,2.014.3,6.257-2.274,7.371.151.971,1.969-.446,4.7-1.979,5.607-1.328.758-4.243,0-5.313.455-1.426.606-3.307,1.212-3.7,3.181-.8,4.849-.6,4.7-.82,5.759a8.835,8.835,0,0,0-.2,4.848c.276,1.364-.722,3.334-.2,4.849.58,1.364-.222,3.637-.2,4.849-.036,1.819-.267,3.334-.142,4.7.009,2.12-.473,3.484-.25,5l-.232,6.667c-.267,3.333,2.37,2.727,4.145-.152a73.8,73.8,0,0,1,4.572-6.515q1.017-1.591,3.583-5c1.195-1.668,2.55-3.788,3.326-4.7,1.345-1.667,2.245-3.788,3.378-4.849.721-.757,2.085-3.333,3.325-4.7,1.5-1.667,2.291-3.485,3.324-4.7a12.368,12.368,0,0,0,2.255-4.243c.338-1.819-.08-3.636-1.479-4.394-1.15-.606-5.375,1.061-5.989-1.061-.473-1.667.249-5,1.978-5.607,2.443-.909,4.448-.151,6.872-.151,2.122,0,3.521.757,6.818,0a44.261,44.261,0,0,1,6.365,0c1.667,0,5.383-1.516,6.764.151.739.909-.927,3.485-1.979,5.607C701.072,46.437,698.673,45.073,697,45.527ZM560.25,69.619c-1.89,1.061-4.9.152-6.265.152-1.614-.152-5,0-6.364,0a28.363,28.363,0,0,0-6.212,0,28.2,28.2,0,0,1-6.213,0,41.97,41.97,0,0,0-6.212,0c-1.363,0-4.34-.152-6.06,0a46.962,46.962,0,0,1-6.515,0c-1.159-.152-2.487.606-4.18,1.969-1.284,1.061-2.612,1.819-2.95,3.636-.249,2.424-1.408,4.849-1.079,6.062.419,1.817-.222,3.636-.2,5.3a23.711,23.711,0,0,0,.766,4.7,6.831,6.831,0,0,0,1.844,3.788c.837,1.061,1.47,2.272,2.871,3.03l4.358,1.819c2,.757,3.324.454,5.847.606,2.218.151,4.661-.758,6.63-.758a16.042,16.042,0,0,0,6.711-2.272c2.193-1.061,4.172-1.516,6.534-3.485a19.771,19.771,0,0,1,3.324-2.122c.919-.455,1.453-1.969,3.529-2.274a2.161,2.161,0,0,1,2.424,2.576c-.33,1.364-3.289,2.879-4.216,3.788-1.854,1.819-3.12,1.969-4.358,3.333-1.391,1.364-2.71,1.667-4.5,2.879-1.381.909-3.521,1.819-4.492,2.424a20.318,20.318,0,0,1-4.635,1.969,16.736,16.736,0,0,1-4.724,1.364c-1.915-.151-3.253,1.061-4.715.91-.855-.152-3.137.3-4.652.3-2.272,0-4.536-.455-6.755-.607-1.765-.151-4.314-1.514-5.517-1.969-2.2-1.061-2.54-1.819-4.483-3.182a17.308,17.308,0,0,1-3.252-4.091c-1.025-1.817-2.629-2.424-2.023-5,.294-2.121-.437-3.485-.846-5.757-.321-1.668.383-4.092.579-6.364a54.4,54.4,0,0,1,1.8-6.818c.758-2.576,2.148-3.94,3.013-6.818.491-1.819,2.46-4.394,4.074-6.818,1.56-2.274,3-3.788,5.125-6.364.776-.909,1.7-1.819,2.942-3.182.516-.606,2.148-1.364,2.986-2.878a6.778,6.778,0,0,1,3.182-2.576,17.44,17.44,0,0,0,3.485-2.575c1.64-1.213,2.853-1.213,3.475-2.121a4.185,4.185,0,0,1,3.521-1.819c1.819,0,2.7-1.212,3.717-1.514a19.427,19.427,0,0,1,3.761-1.213c2.888-.455,4.876-1.364,7.442-.909l5.642.758c1.614.151,2.959,1.06,4.911,1.969,1.55.758,2.086,1.819,3.876,3.182,1.293,1.06,1.472,2.272,2.8,4.091a10.967,10.967,0,0,1,1.462,5.3c.018,1.667.589,3.485.5,5.455a24.079,24.079,0,0,1-.518,5.759C560.883,65.68,562.5,68.407,560.25,69.619ZM550.33,52.648c.125-1.212-.356-2.423-.133-3.484.33-1.364-.419-1.819-1.008-2.727a12.561,12.561,0,0,0-1.978-2.121,4.358,4.358,0,0,0-3-1.364c-1.106-.3-2.906-1.213-4.03-.607a6.661,6.661,0,0,1-4.456.607c-.953-.3-2.852,1.212-3.966,1.364a7.117,7.117,0,0,0-3.779,2.121c-1.542,1.364-2.255,1.667-3.441,2.878S523.03,51.437,521.9,52.5a10.223,10.223,0,0,0-2.79,3.182c-1.409,2.272-1.48,3.333-.1,5a8.663,8.663,0,0,0,4.394,2.576c1.961.454,4.947.151,8.334,0,2.629-.152,6.524-.455,8.787,0,1.711.3,3.913-1.213,6.159-2.424,1.685-.91,3.548-3.182,3.681-4.849C550.438,54.922,550.2,54.316,550.33,52.648ZM503.724,13.556c-1.186,1.213-4.635,1.969-5.955,2.274-2.941.606-3.11-1.061-4.447-2.424-1.132-1.516-2.121-2.576-3.788-2.576s-3.2.909-4.51,3.333L482.832,17.8a21.735,21.735,0,0,0-1.952,4.243c-.954,2.272-1.783,3.333-1.908,4.545-.017.91-.953,2.274-1.55,4.4-.517,3.181-2.488,5.757-1.2,6.818,1.044.909,3.833.3,6.106.3a35.365,35.365,0,0,1,7.772.3c2.567.455,1.621,4.849-2.353,6.667-.714.3-2.932.151-4.252.454-2.228.3-2.576,0-4.4.455a14.158,14.158,0,0,0-5.82,3.182c-1.649,1.667-2.077,2.878-2.9,3.484a5.843,5.843,0,0,0-1.837,3.485c.161,2.121-1.6,4.091-2.139,6.062-.705,2.424-1.649,4.242-2.086,5.91l-2.086,5.908-2.086,5.91c-.954,2.274-1.551,4.394-2.033,5.757-.793,1.819-1.506,4.7-2.086,5.91a11.007,11.007,0,0,0-1.516,5.152c-.124,1.213-.151,2.576.5,2.879,1.052.455,1.142,1.061,2.959,1.061a45.615,45.615,0,0,1,5.348.3c3.174.455,2.8,4.091.543,5.757-1.64,1.213-3.734-.151-4.751.152a15.171,15.171,0,0,1-4.545,0,34.9,34.9,0,0,0-8.94,0c-2.38.3-6.008-.152-8.789,0-1.871.151-3.074-.3-4.394,0-1.266.151-3.6.757-4.644-.152s.5-4.849,1.979-5.607c2.3-1.364,3.788,0,5.865-.3.811-.151,2.388-.757,3.912-1.212s1.489-1.213,2.63-2.727c1.247-1.819,1.915-2.424,2.174-5.3a23.074,23.074,0,0,1,2.086-5.91c.954-2.272,1.338-3.788,2.033-5.757a45.81,45.81,0,0,0,2.086-5.91A45.656,45.656,0,0,0,452.65,68.1c.276-1.213,1.381-3.485,2.032-5.759.49-1.817,2.157-4.394,2.032-5.757.045-2.272,1.355-4.7.7-7.121a3.35,3.35,0,0,0-2.825-2.727c-1.81-.455-4.483-.607-5.331-1.213-1.5-.909-2.433-2.121-1.9-3.636a4.9,4.9,0,0,1,4.4-3.03,27.324,27.324,0,0,0,6.632-.758c1.015-.3,1.515,0,4.028-1.969a8.959,8.959,0,0,0,3.423-4.546,19.93,19.93,0,0,1,2.05-4.091,38.442,38.442,0,0,0,2.1-4.243,18.357,18.357,0,0,1,2.755-3.94c.668-.606,1.773-2.878,3.11-4.091,1.489-1.212,2.434-3.03,3.61-3.788.971-.606,2.274-2.575,3.957-3.485a35.67,35.67,0,0,0,4.4-3.03A8.822,8.822,0,0,1,492.325,2.5c1.934-.757,2.3-1.364,4.475-1.514l4.608-.606c2.521.151,4.741.3,5.463,2.12s1.9,3.637,1,5.759C507.333,9.768,505.32,12.042,503.724,13.556Zm-72.068,2.121c-2.148,1.364-4.608,3.182-6.819,2.576-1.863-.3-4.411-1.668-5-2.576a9.1,9.1,0,0,1-.392-5.757A11.682,11.682,0,0,1,423.9,4.163c2.406-1.668,4.3-3.182,6.872-2.729,2.415.455,4.171,1.061,5.1,2.729a6.877,6.877,0,0,1,.391,5.757C435.194,12.951,433.9,14.466,431.656,15.678Zm-6.918,20.456c.838,1.06-2.327,5.3-2.309,6.969.115,1.819-1.774,5.455-2.461,6.97a63.487,63.487,0,0,0-2.46,6.97L415.1,63.862l-2.46,6.97c-1.069,3.03-1.756,4.545-2.407,6.818a40.376,40.376,0,0,0-2.406,6.818l-2.407,6.818c-1.551,4.394-1.729,5.757-1.516,7.728.036.757,1.587,1.514,2.139,1.667,1.56.3,3.6-.758,4.734.758.685,1.06.124,3.939-1.925,5.455-3.28,2.424-5.063.606-7.987.3-1.915-.152-4.394,0-7.273,0-2.022.151-4.643-.152-7.727,0-3.245.606-6.7,1.819-7.772-.3-.784-1.213.643-4.4,1.925-5.455,2.309-1.819,3.842-.152,5.669-.607a8.384,8.384,0,0,0,3.717-1.514c1.078-.91.99-1.516,2.282-3.03,1.4-1.819,1.167-2.879,1.915-5,.8-2.272,1.57-5.3,2.942-8.334,1.159-2.424,1.819-5.152,2.942-8.333,1.069-3.031,1.471-5.456,3-8.486a45.61,45.61,0,0,0,2.941-8.334c.438-1.667.624-3.484,1.561-4.848.623-.91-.267-1.819-.348-2.879.027-1.364-.936-1.213-2.54-1.819-1.756-.606-5.2-.3-4.243-2.575a5.276,5.276,0,0,1,3.094-3.182c.712-.3,2.486-.606,4.064-1.212,2.442-.91,4.314-1.061,5.686-1.516a46.032,46.032,0,0,0,6.15-1.969C420.067,37.345,423.847,35.224,424.738,36.134ZM382.92,12.648c-.134,1.667-1.6,4.091-1.979,5.607a21.837,21.837,0,0,1-2.032,5.757,26.866,26.866,0,0,0-1.979,5.605c-.749,2.121-2,3.94-1.979,5.607-.142,2.121-1.747,4.091-1.827,5.607a16.789,16.789,0,0,1-2.13,5.607c-1.614,2.423-1.445,4.091-2.033,5.757s-1.7,4.394-1.979,5.605c-.24,1.971-1.694,3.94-1.978,5.607-.384,1.516-1.649,4.243-1.979,5.607a40.712,40.712,0,0,1-1.979,5.607c-.748,2.12-1.346,4.242-1.979,5.605a41.05,41.05,0,0,0-1.978,5.607c-.482,1.364-1.854,4.394-1.979,5.607-.384,4.091-3,6.363-1.409,7.424.945.758.936,1.213,2.193,1.516.856.151,3.744-.3,4.732.757.892.91-.614,3.031-1.925,5.456-2.9.909-5.2-.3-7.986.3-3.3.757-4.8.3-7.273,0-2.523-.152-5,0-7.727,0-2.274,0-6.748,1.514-7.772-.3-.785-1.213.543-4.546,1.925-5.456,1.792-1.212,3.993-.151,5.668-.606a6.632,6.632,0,0,0,3.566-1.514c1.541-1.364,3.147-3.334,4.189-7.576a62.625,62.625,0,0,1,3-8.486c1.212-2.575,1.871-5.3,3.049-8.637,1.069-3.03,1.47-5.455,2.995-8.485a48.977,48.977,0,0,0,3.049-8.637c.812-2.727,2.086-5.91,3.049-8.637l3.05-8.637c.909-2.575,2.487-5.757,2.995-8.485.348-2.272,2.585-5.607,2.995-8.485.286-1.667,1.338-3.788,1.561-4.849.178-1.364.508-2.727-.446-3.03-1.256-.3-1.23-1.667-2.388-1.819-1.614-.151-5.366.606-4.813-1.819.491-1.817,1.372-3.03,2.9-3.485s2.424,0,3.957-.909c1.944-1.212,4.323-1.514,6.507-2.121,2.335-.606,3.663-1.364,6.15-1.969,2.13-.455,4.51-3.333,5.945-1.819,1.533,1.667-1.391,3.94-2.032,5.759C384.32,8.254,383.01,10.678,382.92,12.648ZM306.084,69.619c-1.89,1.061-4.9.152-6.266.152-1.614-.152-5,0-6.363,0a28.362,28.362,0,0,0-6.212,0,28.2,28.2,0,0,1-6.212,0,41.967,41.967,0,0,0-6.212,0c-1.364,0-4.341-.152-6.062,0a46.96,46.96,0,0,1-6.515,0c-1.159-.152-2.487.606-4.181,1.969-1.283,1.061-2.611,1.819-2.949,3.636-.25,2.424-1.409,4.849-1.079,6.062.418,1.817-.223,3.636-.206,5.3a23.8,23.8,0,0,0,.766,4.7,6.832,6.832,0,0,0,1.846,3.788c.838,1.061,1.47,2.272,2.87,3.03l4.358,1.819c2,.757,3.325.454,5.847.606,2.22.151,4.661-.758,6.631-.758a16.038,16.038,0,0,0,6.711-2.272c2.193-1.061,4.172-1.516,6.534-3.485a19.822,19.822,0,0,1,3.324-2.122c.919-.455,1.453-1.969,3.531-2.274a2.16,2.16,0,0,1,2.423,2.576c-.33,1.364-3.289,2.879-4.216,3.788-1.853,1.819-3.12,1.969-4.358,3.333-1.391,1.364-2.709,1.667-4.5,2.879-1.382.909-3.521,1.819-4.493,2.424a20.313,20.313,0,0,1-4.634,1.969,16.759,16.759,0,0,1-4.724,1.364c-1.917-.151-3.253,1.061-4.715.91-.856-.152-3.138.3-4.652.3-2.274,0-4.537-.455-6.757-.607-1.765-.151-5.417-1.514-5.517-1.969-2.2-1.061-2.54-1.819-4.482-3.182a17.345,17.345,0,0,1-3.253-4.091c-1.025-1.817-2.629-2.424-2.023-5,.294-2.121-.437-3.485-.846-5.757-.321-1.668.384-4.092.58-6.364a54.155,54.155,0,0,1,1.8-6.818c.758-2.576,2.148-3.94,3.013-6.818.491-1.819,2.46-4.394,4.074-6.818,1.56-2.274,3-3.788,5.126-6.364.775-.909,1.7-1.819,2.941-3.182.517-.606,2.149-1.364,2.986-2.878a6.779,6.779,0,0,1,3.182-2.576,17.444,17.444,0,0,0,3.485-2.575c1.64-1.213,2.852-1.213,3.477-2.121a4.185,4.185,0,0,1,3.521-1.819c1.817,0,2.7-1.212,3.717-1.514a19.382,19.382,0,0,1,3.761-1.213c2.888-.455,4.876-1.364,7.442-.909l5.642.758c1.613.151,2.958,1.06,4.91,1.969,1.551.758,2.086,1.819,3.878,3.182,1.293,1.06,1.47,2.272,2.8,4.091a10.979,10.979,0,0,1,1.462,5.3c.017,1.667.587,3.485.5,5.455a24.079,24.079,0,0,1-.518,5.759C306.717,65.68,308.33,68.407,306.084,69.619Zm-9.919-16.971c.125-1.212-.357-2.423-.134-3.484.33-1.364-.419-1.819-1.007-2.727a12.63,12.63,0,0,0-1.979-2.121,4.356,4.356,0,0,0-3-1.364c-1.1-.3-2.905-1.213-4.028-.607a6.663,6.663,0,0,1-4.456.607c-.954-.3-2.852,1.212-3.967,1.364a7.123,7.123,0,0,0-3.779,2.121c-1.542,1.364-2.255,1.667-3.44,2.878s-1.507,2.121-2.639,3.182a10.239,10.239,0,0,0-2.79,3.182c-1.408,2.272-1.479,3.333-.1,5a8.672,8.672,0,0,0,4.394,2.576c1.961.454,4.947.151,8.334,0,2.629-.152,6.524-.455,8.788,0,1.712.3,3.913-1.213,6.16-2.424,1.684-.91,3.548-3.182,3.681-4.849C296.272,54.922,296.031,54.316,296.165,52.648Zm-65.4-6.818c-.973.607-1.988.91-3.673,1.819-1.89,1.061-2.166,2.272-3.138,2.879-1.942,1.212-2.023,2.727-3.262,4.091-1.034,1.212-1.667,2.575-2.54,3.333-1.489,1.213-1.622,2.879-2.595,3.485-1.274.606-2.326,2.727-2.594,3.485-.481,1.364-2.023,2.727-2.648,3.636-.988,1.516-1.266,2.727-2.594,3.485-1.123.606-2.015,2.272-2.594,3.485a10.133,10.133,0,0,1-2.594,3.485,23.628,23.628,0,0,0-2.594,3.485,13.532,13.532,0,0,1-2.595,3.485c-1.951,1.667-1.773,2.878-2.594,3.484a13.306,13.306,0,0,0-2.594,3.485c-.892,1.667-1.756,1.971-2.594,3.485a29.2,29.2,0,0,0-2.05,4.091,26.148,26.148,0,0,1-2.059,4.546,27.687,27.687,0,0,1-2.549,3.788c-1.186,1.212-2.754,1.364-4.126,1.819-2.389.757-2.522-.152-3.253-1.516a6.829,6.829,0,0,1-.33-3.788,15.866,15.866,0,0,1,.749-4.7c.846-1.971.775-3.485.286-4.243-.437-.909.186-1.819-.437-3.485a4.754,4.754,0,0,1-.286-3.485,5.6,5.6,0,0,0-.437-3.484c-.124-1.365.2-2.274-.134-3.485a9.1,9.1,0,0,1-.284-3.485,6.72,6.72,0,0,0-.134-3.485,9.073,9.073,0,0,1-.285-3.485c-.018-1.667.044-2.272-.081-3.636-.071-1.516-.712-2.274-.134-3.485.428-1.213.09-1.969.018-3.485-.08-1.061.5-2.272-.186-3.333-.741-.91-.722-1.819-.134-3.485.491-1.819-.357-2.424-.223-4.091.223-1.061-.971-1.971-1.1-2.879a2.777,2.777,0,0,0-2.54-1.819c-1.008-.151-3.94,0-4.377-.909-.633-1.213.544-4.546,1.925-5.455,2.817-1.969,5.162-.455,7.835-.3,1.917.151,5.757,0,7.728,0,2.78-.152,5.455,0,7.272,0,3.13.151,7-1.364,7.621.3.819,1.969-.741,4.242-1.925,5.455-.874.758-4.047.3-5.366.606-1.524.455-3.9.758-3.94,2.576a12.545,12.545,0,0,1-.428,3.788,20.039,20.039,0,0,1-.063,5.757,23.672,23.672,0,0,0,.2,5.455c.213,1.969-.125,3.788.044,5.455a36.663,36.663,0,0,1-.054,5.3c-.09,1.969-.481,3.939.044,5.455a19.3,19.3,0,0,1,.089,3.182,21.6,21.6,0,0,1,.026,3.788c-.232,1.514-.249,2.424,1.472,2.272,1.113-.152,2.041-1.061,3.022-2.121a30.906,30.906,0,0,0,2.852-3.788,28.473,28.473,0,0,1,2.183-3.182c1.962-2.12,1.622-2.878,3.842-5.3a13.917,13.917,0,0,0,3.53-4.849c.526-1.061,2.585-3.03,3.583-5,.526-1.061,2.8-3.637,3.529-4.849,1.3-1.971,2.443-3.485,3.378-4.849a16.411,16.411,0,0,0,2.407-4.243c.088-1.969.428-3.788-1.578-4.546-2.1-.909-5.3,0-6.8-.909-.9-.455.027-3.94,1.925-5.455,1.541-1.364,5.312-.455,7.228-.3,1.462.151,4.4,0,6.97,0,2.424,0,4.795.151,6.667,0,2.531-.3,5.534-1.516,6.862.3,1.23,1.667-.419,3.333-1.925,5.455S232.243,45.073,230.764,45.83ZM151.9,15.678c-2.147,1.364-4.607,3.182-6.818,2.576-1.863-.3-4.412-1.668-5-2.576a9.1,9.1,0,0,1-.392-5.757,11.675,11.675,0,0,1,4.458-5.757c2.406-1.668,4.3-3.182,6.871-2.729,2.416.455,4.172,1.061,5.1,2.729a6.882,6.882,0,0,1,.391,5.757C155.444,12.951,154.151,14.466,151.9,15.678Zm-6.918,20.456c.839,1.06-2.326,5.3-2.308,6.969.115,1.819-1.774,5.455-2.461,6.97a63.474,63.474,0,0,0-2.46,6.97l-2.407,6.818-2.46,6.97c-1.069,3.03-1.756,4.545-2.407,6.818a40.381,40.381,0,0,0-2.406,6.818l-2.407,6.818c-1.551,4.394-1.729,5.757-1.516,7.728.036.757,1.587,1.514,2.139,1.667,1.56.3,3.6-.758,4.734.758.686,1.06.124,3.939-1.927,5.455-3.279,2.424-5.062.606-7.986.3-1.915-.152-4.394,0-7.273,0-2.023.151-4.643-.152-7.727,0-3.245.606-6.7,1.819-7.772-.3-.785-1.213.641-4.4,1.925-5.455,2.309-1.819,3.842-.152,5.669-.607a8.384,8.384,0,0,0,3.717-1.514c1.078-.91.988-1.516,2.281-3.03,1.4-1.819,1.169-2.879,1.917-5,.8-2.272,1.57-5.3,2.942-8.334,1.159-2.424,1.819-5.152,2.942-8.333,1.069-3.031,1.47-5.456,2.995-8.486a45.612,45.612,0,0,0,2.942-8.334c.438-1.667.624-3.484,1.56-4.848.624-.91-.266-1.819-.347-2.879.027-1.364-.936-1.213-2.54-1.819-1.756-.606-5.2-.3-4.243-2.575a5.278,5.278,0,0,1,3.093-3.182c.714-.3,2.487-.606,4.065-1.212,2.442-.91,4.314-1.061,5.686-1.516A46.093,46.093,0,0,0,139.1,37.8C140.317,37.345,144.1,35.224,144.987,36.134ZM91.58,82.953a11.173,11.173,0,0,1-2.5,3.637c-1.034,1.212-1.409,2.272-2.389,3.333-1.186,1.213-.847,1.969-2.389,3.333a31.472,31.472,0,0,0-4.832,6.819,28.826,28.826,0,0,1-2.389,3.333c-1.088,1.364-.971,3.182-2.389,3.333s-3.69.152-4.751.152H56.159c-1.514,0-2.585.454-4.545,0a22.724,22.724,0,0,0-4.546,0c-1.061,0-3.191.454-4.546,0-.954-.3-2.834.3-4.546,0a14.638,14.638,0,0,0-4.546,0c-2.281.454-3.074-.3-4.7,0a28.535,28.535,0,0,1-8.788,0,10.059,10.059,0,0,0-4.8.3c-1.729.606-3,1.212-4.857.454-1.052-.454-2.986.3-4.546,0-1.809-.454-3.475-.454-4.474-1.06-1.346-.91-1.48-4.4,2.032-5.759,2.086-.757,3.663-1.364,4.974-1.212a7.3,7.3,0,0,0,3.494-.455,29.636,29.636,0,0,0,4.68-1.667c1.167-.3,2.477-2.727,2.852-3.788.267-.758,1.22-3.03,2.076-5.455,1.071-3.03,2.121-5.152,2.942-8.334.553-2.424,2.131-5.607,3-8.485.758-2.576,2.139-6.062,2.995-8.485,1.069-3.031,1.935-5.91,3.049-8.637.847-1.971,1.979-5.607,3-8.486.748-2.122,1.773-5.455,2.995-8.485.856-2.424,1.676-5.607,3-8.485.917-3.031,2.638-5.759,2.942-8.334.33-1.364,1.533-3.485,1.773-5.455.232-1.516-.347-2.879.027-3.94.437-1.667-1.64-1.364-2.433-2.121-.838-1.061-3.993.152-6.106-.3C36.582,8.254,35.335,7.5,35.469,5.83c-.125-1.364,1.836-3.485,2.7-3.788,1.729-.607,3.485,0,5.3,0,1.969,0,4.145-.152,5.356-.152a19.385,19.385,0,0,0,5.152,0c1.827-.455,3.182,0,5,0a28.865,28.865,0,0,1,5.152,0c1.613.152,3.137-.3,5.3,0,1.159.152,3.235-.151,5.1.152,2.014.3,4.875-1.364,5.4.151A5.775,5.775,0,0,1,77.9,7.95c-2.514,1.971-5.562.3-8.254,1.061A31.951,31.951,0,0,0,64.7,11.435a5.2,5.2,0,0,0-2.8,3.637c-.428,1.212-1.221,3.03-2.077,5.455l-2.888,8.182c-.909,2.576-2.345,6.212-2.942,8.334-.562,2.878-2.335,5.757-2.942,8.334-.7,2.424-2.291,6.06-2.942,8.333-.927,3.485-1.978,5.607-2.941,8.334-1.017,2.879-1.989,6.062-2.942,8.334l-2.889,8.182c-1.007,2.424-2.7,6.364-2.941,8.334-.3,2.575-2.274,5.152-2.2,6.666a39.294,39.294,0,0,0-.178,3.94c.08,1.061,1.782,1.819,2.789,1.969,1.863.3,4.537.455,6.6.607a36,36,0,0,0,8.8-.455c2.932-.152,5.534-1.516,7.612-1.819,1.266-.151,1.675-.455,3.868-1.514a19.286,19.286,0,0,1,3.673-1.819c.118-.455,2.567-2.121,4.038-2.424.963-.152,2.522-2.424,4.35-2.879a9.288,9.288,0,0,0,3.841-2.727,12.445,12.445,0,0,1,3.539-2.727,14.334,14.334,0,0,0,3.494-3.03c1.649-1.667,2.424-2.576,3.548-3.182,1.89-1.061,4.028.606,3.7,1.969C93.648,80.528,91.955,81.892,91.58,82.953Z" transform="translate(-0.409 84.567) rotate(-3.4)" fill="#fff" fill-rule="evenodd"/>
</svg>
