<svg xmlns="http://www.w3.org/2000/svg" width="746" height="257.158" viewBox="0 0 746 257.158">
  <path id="copy" d="M744.8,175.654c-1.955,1.256-5.237.474-6.7.561-1.736-.06-5.351.318-6.811.4a30.433,30.433,0,0,0-6.648.4,30.143,30.143,0,0,1-6.648.4,44.984,44.984,0,0,0-6.648.4c-1.459.087-4.655.114-6.486.386a50.127,50.127,0,0,1-6.972.414c-1.25-.089-2.623.806-4.349,2.375-1.306,1.217-2.679,2.113-2.926,4.08-.113,2.611-1.2,5.279-.769,6.556.563,1.92-.008,3.907.117,5.69.212,2.592.784,3.371,1.119,4.979a7.317,7.317,0,0,0,2.216,3.938c.964,1.083,1.718,2.34,3.263,3.062l4.78,1.669c2.194.683,3.587.275,6.3.277,2.385.021,4.941-1.108,7.049-1.232a17.207,17.207,0,0,0,7.038-2.86c2.279-1.275,4.368-1.888,6.77-4.146a21.247,21.247,0,0,1,3.424-2.483c.953-.545,1.43-2.2,3.633-2.657a2.316,2.316,0,0,1,2.758,2.6c-.266,1.48-3.337,3.29-4.271,4.323-1.869,2.065-3.213,2.307-4.453,3.846-1.4,1.548-2.793,1.956-4.634,3.368-1.421,1.061-3.653,2.17-4.654,2.881a21.745,21.745,0,0,1-4.835,2.4,17.961,17.961,0,0,1-4.968,1.761c-2.061-.041-3.415,1.342-4.988,1.273-.925-.108-3.338.525-4.96.62-2.433.145-4.884-.2-7.269-.219-1.9-.05-4.713-1.348-6.03-1.758-2.423-1-2.834-1.785-5-3.121-1.221-.741-2.825-2.925-3.741-4.172-1.213-1.881-2.968-2.428-2.483-5.224.18-2.289-.688-3.7-1.272-6.109-.449-1.764.151-4.4.216-6.85a58.129,58.129,0,0,1,1.493-7.413c.647-2.805,2.049-4.354,2.791-7.49.409-1.978,2.354-4.861,3.926-7.558,1.525-2.533,2.974-4.246,5.081-7.139.772-1.023,1.706-2.055,2.945-3.593.515-.682,2.212-1.6,3.012-3.272.5-1.169,1.706-2.055,3.242-2.96a18.754,18.754,0,0,0,3.566-2.979c1.678-1.4,2.975-1.48,3.585-2.492a4.487,4.487,0,0,1,3.653-2.171c1.946-.116,2.813-1.469,3.881-1.858a20.845,20.845,0,0,1,3.948-1.537c3.062-.67,5.131-1.77,7.907-1.447l6.086.452c1.737.06,3.234.947,5.381,1.8,1.708.712,2.347,1.814,4.351,3.16,1.451,1.054,1.718,2.339,3.255,4.2a11.775,11.775,0,0,1,1.9,5.584c.125,1.783.851,3.693.881,5.808a25.853,25.853,0,0,1-.188,6.2C745.23,171.4,747.13,174.214,744.8,175.654Zm-11.694-17.536c.057-1.305-.536-2.573-.364-3.722.266-1.48-.564-1.919-1.251-2.855a13.539,13.539,0,0,0-2.252-2.145,4.678,4.678,0,0,0-3.3-1.269c-1.2-.254-3.187-1.113-4.35-.392a7.141,7.141,0,0,1-4.73.932c-1.04-.264-2.975,1.479-4.159,1.712a7.633,7.633,0,0,0-3.909,2.511c-1.563,1.558-2.307,1.928-3.5,3.3s-1.478,2.367-2.621,3.574a10.971,10.971,0,0,0-2.784,3.583c-1.363,2.523-1.372,3.662.213,5.359a9.289,9.289,0,0,0,4.866,2.478c2.128.361,5.3-.152,8.919-.53,2.8-.329,6.953-.9,9.405-.559,1.851.216,4.111-1.547,6.437-2.987,1.745-1.081,3.595-3.632,3.631-5.425C733.368,160.545,733.072,159.912,733.109,158.119Zm-58.762-2.4a5.6,5.6,0,0,1-4.673,2.394c-1.994.281-2.672-1.794-3.779-2.38a18.448,18.448,0,0,0-4.951-.519c-.81.048-.381,1.324.049,2.6.678,2.076,1.385,3.5,1.376,4.638a19.3,19.3,0,0,1-.341,5.066c-.524,1.821-.122,3.751-.273,5.387a11.521,11.521,0,0,1-2.268,5.67c-1.029,1.363-1.858,3.691-3.307,5.4-1.983,1.908-3.365,3.944-4.252,4.81-1.516,1.393-2.851,3.263-4.872,4.2-1.439.574-3.47,2.648-5.33,3.572-2.232,1.109-4.625,2.228-5.741,2.782-1.535.905-3.691,1.2-5.57,1.633-2.527.476-4.635.6-5.866,1-2.623.806-4.3-.558-7.126-.716a9.575,9.575,0,0,0-5.57,1.633,6.15,6.15,0,0,0-2.9,3.428c-.4.837.287,1.773,1.394,2.359,1.384.732,3.444.772,5.3.987,2.356.674,4.951.52,7.726.843,2.013.206,3.425.285,4.512.383,1.412.08,3.492.607,4.627.539a16.9,16.9,0,0,1,4.579.7c1.2.254,3.634.11,4.322,1.046,1.079,1.238,2.423,1,3.95,1.23,1.2.254,1.336.9,3.435,1.912a28.165,28.165,0,0,1,2.644,2.447c.735.77,1.746,1.687,1.69,2.993.059,1.462.307,2.26.479,3.878a19.78,19.78,0,0,1-.684,4.6c-.5,2.309-1.486,3.507-2.8,5.864-1.01,1.85-2.688,3.252-4.3,4.976-1.821,1.9-4.243,3.67-5.426,3.9-1.879.437-4.463,2.218-6.275,2.977l-6.523,2.178c-1.765.594-3.777.387-6.448,1.36-2.231,1.109-4.683.766-6.028,1.01a19.949,19.949,0,0,1-5.237.474c-2.27.135-5.418,0-8.451.014-2.223-.031-3.931-.743-5.323-.335a5.682,5.682,0,0,1-5.18-.831c-1.708-.712-2.89-.479-4.617-1.679-2.051-1.18-1.718-2.339-3.407-2.564-1.574-.07-1.948-2.651-1.919-3.3a11.182,11.182,0,0,1,.2-4.569c.81-2.816,2.583-4.549,4.642-7.275,1.287-1.7,1.84-1.411,3.938-3.164,1.84-1.411,2.565-2.268,4.911-3.221a50.075,50.075,0,0,0,4.511-2.384,8.813,8.813,0,0,0,3-2.132c.887-.867.962-1.685-1.07-2.378-2.471-.83-4.245-1.864-4.838-3.131s-1.576-2.836-.747-5.164a15.561,15.561,0,0,1,3-4.9,11.777,11.777,0,0,1,3.986-3.33c1.535-.905,1.983-1.908,2.621-3.574.991-2.337,2.22-5.5.149-7.171-.668-.448-1.889-1.19-1.337-3.664.361-1.812-.631-2.241-.527-3.712a18.4,18.4,0,0,1,1.15-7.881c.381-1.325,1.839-4.179,2.268-5.67.943-2.172,1.371-3.662,3.144-5.4a24.6,24.6,0,0,0,4.09-4.8,19.065,19.065,0,0,1,4.71-4.187c2.327-1.44,3.213-2.306,5.216-3.728,1.793-1.246,3.462-1.508,5.579-2.773a21.7,21.7,0,0,1,5.665-1.964c1.135-.068,3.643-1.031,5.656-.825,2.757-.164,3.234.947,4.9.686s2.843.645,4.809,1.016a19.488,19.488,0,0,0,6.363.6c2.061.04,5.379-.971,6.361-2.169.934-1.032,3.043-1.157,4.32-1.721a20.131,20.131,0,0,1,4.32-1.721c2.432-.145,3.186,1.113,4.522,2.01,1.613,1.043.717,3.05.747,5.164C677.2,152.456,675.939,153.508,674.347,155.718Zm-69.606,71.361a34.028,34.028,0,0,0-4.815,2.891c-.839.7-3.1,2.463-3.756,3.641a24.583,24.583,0,0,0-2.468,4.7c-.991,2.338.479,3.878.861,5.321.335,1.608,2.367,2.3,5.028,2.468a65.088,65.088,0,0,0,7.126.716l6.114-.2,6.906-.736a30.989,30.989,0,0,1,4.358-.747c.811-.049,2.3-.788,4.617-1.088a7.362,7.362,0,0,0,4.435-1.566c1-.711,1.907-1.09,3.814-2.18a10.57,10.57,0,0,0,4.68-6.3c.381-1.324-.393-3.069-.5-4.365-.315-1.121-2.557-1.639-3.244-2.574-1.26-1.716-3.74-1.406-5.219-1.806-2.356-.674-4.14-.568-5.848-1.28-2.147-.849-3.607-.762-5.781-.958-1.918-.537-3.187-1.113-5.3-.988-1.622.1-3.948,1.537-6.18,2.646A18.987,18.987,0,0,1,604.741,227.079Zm45.373-60.806c-.354-2.095-.193-4.871-.757-6.791-.267-1.286-1.193-1.394-1.3-2.69a2.5,2.5,0,0,0-2.138-1.989c-1.574-.069-4.665-1.513-6.612-1.4-3.729.221-4.865.289-7.868,2.421a28.275,28.275,0,0,0-6.226,5.578c-1.964,2.4-4.3,4.976-4.756,7.119-.5,2.309-1.915,5-3,7.666-1.134,2.835-.856,5.748-1.332,7.4a7.84,7.84,0,0,0,.805,6.625c1.165,2.047,1.89,3.957,3.321,4.523a29.945,29.945,0,0,0,6.564,1.564,14.009,14.009,0,0,0,7.868-2.421c1.86-.925,1.983-1.908,3.423-2.483a7.376,7.376,0,0,0,2.918-2.94c.962-1.685,3.832-4.46,4.756-7.119.829-2.328,2.753-5.7,3-7.667C649.125,171.379,650.6,169.012,650.114,166.274ZM590.783,124.5a44.239,44.239,0,0,0-1.762,6.127c-.429,1.491-.494,3.936-1.809,6.293a44.129,44.129,0,0,0-1.762,6.127,43.886,43.886,0,0,1-1.761,6.128c-1.411,2.688-.838,3.468-1.762,6.127-.971,2.825-1.333,4.636-1.761,6.127s-1.752,4.987-1.809,6.293c-.438,2.63-1.257,3.818-1.761,6.127-.275,2.621-1.858,3.691-1.762,6.127.268,1.286-1.428,4.968-1.761,6.127l-1.762,6.127c-.437,2.63-1.752,4.987-1.761,6.127,0,2.767-1.123,4.462-1.762,6.127-.971,2.825-1.19,4.14-1.762,6.128-1.056,4.783-2.857,7.168-1.13,8.368a8.187,8.187,0,0,0,2.4,1.648c.83.439,4.273-1.556,5.113.51.592,1.267-.675,3.458-1.571,5.465-.685,1.831-4.043,1.868-6.341,2.656a42.9,42.9,0,0,1-5.8,1.321,19.65,19.65,0,0,1-5.351.317c-1.574-.069-3.568.212-4.112-1.22-.592-1.267.1-4.239.3-6.04.18-2.29-1.746-1.687-3.052-.47a21.2,21.2,0,0,1-6.008,4.264c-1.6.584-4.787,2.237-6.275,2.977-1.859.924-4.454,1.079-6.61,1.37a14.4,14.4,0,0,1-6.639-.745c-1.66-.878-3.578-1.415-5.191-2.459-1.107-.586-2.825-2.925-3.741-4.173a18.424,18.424,0,0,1-2.483-5.223,23.151,23.151,0,0,1-1.272-6.11c-.373-2.582-1.385-3.5-.366-6.489a19.034,19.034,0,0,0,.655-6.712,15.642,15.642,0,0,1,1.418-6.6,48.355,48.355,0,0,0,2.391-6.653c.686-1.831,2.582-4.548,3.411-6.876.543-1.335,2.3-3.555,4.126-6.594a21.8,21.8,0,0,1,4.957-6.154c2.26-1.762,3.27-3.613,5.739-5.55,2.4-2.258,4.052-3.008,6.265-4.6,1.211-.886,4.53-1.9,6.762-3.006a29.751,29.751,0,0,1,7.258-1.409,16.129,16.129,0,0,1,5.991.783c1.2.254,2.013.206,3.139,1.278a12.429,12.429,0,0,0,3.34,2.243c1.269.576,3.2-.028,4.654-2.881.753-1.51,2.078-2.239,2.745-4.558q.429-1.49,2.057-5.494a30.892,30.892,0,0,0,2.095-7.287,33.239,33.239,0,0,1,1.361-5.289c.591-1.5.762-2.649-.507-3.226s-2.118-1.5-3.53-1.58c-1.25-.089-5.331.805-4.427-2.341a5.306,5.306,0,0,1,3.547-3.467,28.811,28.811,0,0,0,4.482-1.731c1.373-.9,4.272-1.556,5.712-2.13,2.88-1.148,4.835-2.4,6.342-2.655,2.528-.476,5.331-3.572,6.361-2.168,1.146,1.56-1.1,3.809-1.809,6.293C591.763,120.532,591.82,121.994,590.783,124.5Zm-26.209,44.041c-.077-1.949-.611-1.754-1.48-3.167-.478-1.111-2.071-1.668-3.273-1.921-1.689-.225-1.889-1.19-3.9-1.4-1.412-.079-3.748-.266-4.56-.218-1.946.116-3.414,1.342-5.589,1.146-1.088-.1-3.443,1.995-4.883,2.569a13.185,13.185,0,0,0-4.243,3.67,36.684,36.684,0,0,0-3.555,4.606c-.82,1.188-2.2,3.223-3.212,5.074s-1.905,3.857-2.659,5.367a33.307,33.307,0,0,0-2.009,5.328,18.6,18.6,0,0,0-1.543,4.812c-.476,1.656-.77,3.79-1.218,4.793-.9,2.007-.542,4.1-.942,4.939a8.593,8.593,0,0,0-.456,4.911c.45,1.764.088,3.576.451,4.531a16.927,16.927,0,0,1,1.128,3.84c.172,1.618,1.1,1.725,1.967,3.139.754,1.257,2.051,1.18,3.482,1.746.878.273,3.1.3,4.789.529,1.365.245,2.8-.329,5.427-1.136a16.952,16.952,0,0,0,5.321-2.432c1.745-1.081,4.167-2.852,5.378-3.738,2.05-1.587,5.452-7.323,6.071-9.476a31.224,31.224,0,0,0,1.314-5.124c.227-2.455,1.552-3.185,1.571-5.465.009-1.14,1.114-3.321,1.523-5.3s1.677-4.168,1.571-5.465c.1-1.471,1.582-3.838,1.572-5.465a13.21,13.21,0,0,1,1.666-5.8C565.062,171.276,564.7,170.321,564.573,168.538Zm27.332-98.166c-1.955,1.256-5.237.475-6.7.561-1.736-.06-5.351.318-6.81.4a30.433,30.433,0,0,0-6.648.4,30.186,30.186,0,0,1-6.648.4,44.894,44.894,0,0,0-6.648.4c-1.459.087-4.655.114-6.486.385a50.038,50.038,0,0,1-6.973.415c-1.25-.089-2.623.806-4.348,2.374-1.307,1.217-2.68,2.113-2.927,4.08-.113,2.611-1.2,5.28-.769,6.557.564,1.919-.007,3.907.118,5.69.211,2.591.784,3.371,1.119,4.979a7.324,7.324,0,0,0,2.215,3.938c.964,1.082,1.718,2.339,3.264,3.062l4.78,1.669c2.195.684,3.587.275,5.7.277,2.976.021,5.532-1.108,7.64-1.232a17.194,17.194,0,0,0,7.038-2.86c2.279-1.274,4.368-1.887,6.771-4.146a21.278,21.278,0,0,1,3.423-2.482c.954-.545,1.43-2.2,3.633-2.657a2.315,2.315,0,0,1,2.758,2.6c-.266,1.481-3.336,3.291-4.271,4.324-1.868,2.064-3.213,2.307-4.452,3.845-1.4,1.549-2.794,1.957-4.634,3.368-1.421,1.062-3.653,2.17-4.654,2.882a21.745,21.745,0,0,1-4.835,2.4,17.932,17.932,0,0,1-4.969,1.76c-2.061-.04-3.414,1.342-4.988,1.273-.925-.108-3.338.524-4.96.62-2.433.145-4.884-.2-7.269-.22-1.9-.049-4.713-1.347-6.029-1.758-2.423-1-2.834-1.785-5-3.121-1.221-.741-2.825-2.925-3.742-4.172-1.212-1.881-2.968-2.429-2.483-5.224.18-2.289-.689-3.7-1.272-6.109-.45-1.764.15-4.4.216-6.85a58.1,58.1,0,0,1,1.494-7.413c.647-2.805,2.048-4.354,2.791-7.491.409-1.977,2.353-4.86,3.926-7.558,1.525-2.532,2.974-4.246,5.08-7.138.772-1.023,1.706-2.055,2.946-3.593.515-.682,2.212-1.6,3.012-3.272.5-1.169,1.706-2.055,3.242-2.96a18.71,18.71,0,0,0,3.566-2.979c1.678-1.4,2.976-1.479,3.586-2.492a4.485,4.485,0,0,1,3.652-2.17c1.946-.116,2.813-1.469,3.881-1.859a20.88,20.88,0,0,1,3.948-1.536c3.062-.67,5.131-1.77,7.907-1.447l6.086.452c1.736.06,3.234.947,5.38,1.8,1.708.712,2.348,1.813,4.352,3.16,1.45,1.053,1.718,1.748,3.255,4.2a11.779,11.779,0,0,1,1.9,5.584c.126,1.783.851,3.693.881,5.808a25.845,25.845,0,0,1-.187,6.2C592.333,66.114,594.232,68.931,591.905,70.371ZM580.211,52.836c.057-1.305-.536-2.573-.365-3.722.266-1.481-.563-1.92-1.251-2.856a13.6,13.6,0,0,0-2.253-2.145,4.675,4.675,0,0,0-3.3-1.269c-1.2-.254-3.187-1.113-4.35-.393-1.86.333-2.88,1.148-4.731.933-1.04-.264-2.976,1.479-4.158,1.712a7.628,7.628,0,0,0-3.91,2.511c-1.564,1.558-2.308,1.928-3.5,3.3s-1.477,2.366-2.621,3.574a10.967,10.967,0,0,0-2.783,3.584c-1.363,2.523-1.372,3.662.212,5.358a9.294,9.294,0,0,0,4.867,2.478c2.127.362,5.3-.152,8.919-.53,2.8-.329,6.953-.9,9.405-.559,1.85.216,4.11-1.546,6.437-2.987,1.745-1.08,3.594-3.631,3.631-5.424C580.47,55.263,580.173,54.629,580.211,52.836ZM532.873,13.953c-1.192,1.373-4.835,2.4-6.228,2.812-3.109.835-3.4-.937-4.914-2.312-1.307-1.551-2.434-2.623-4.217-2.517s-3.367,1.177-4.615,3.855l-2.116,4.033c-1.172,1.859-1.419,3.827-1.819,4.665-.876,2.494-1.7,3.681-1.752,4.987.039.974-.876,2.493-1.381,4.8-.351,3.439-2.3,6.322-.845,7.375,1.173.907,4.121.081,6.553-.064,1.946-.116,5.284-.64,8.337-.17,2.776.323,2.043,5.087-2.095,7.287-.744.369-3.129.348-4.521.757-2.365.467-2.757.164-4.683.766a15.2,15.2,0,0,0-6.027,3.777c-1.658,1.889-2.04,3.213-2.878,3.915a6.26,6.26,0,0,0-1.744,3.847c.306,2.261-1.447,4.481-1.9,6.624-.6,2.64-1.5,4.647-1.857,6.458l-1.857,6.459-1.856,6.458c-.876,2.494-1.381,4.8-1.809,6.293-.733,2-1.313,5.124-1.856,6.458a11.784,11.784,0,0,0-1.294,5.611c-.057,1.306,0,2.767.716,3.05,1.155.42,1.289,1.063,3.234.948a39.381,39.381,0,0,1,5.743-.016c3.424.285,3.255,4.2.947,6.129-1.678,1.4-4.006.076-5.074.465a16.239,16.239,0,0,1-4.865.289,37.5,37.5,0,0,0-9.567.569c-2.527.476-6.439.22-9.405.559-1.994.281-3.31-.129-4.7.279-1.345.243-3.806,1.04-4.98.133s.226-5.222,1.762-6.127c2.374-1.606,4.054-.241,6.257-.7.858-.214,2.508-.963,4.11-1.547s1.516-1.392,2.641-3.087c1.22-2.026,1.9-2.717,1.99-5.816a24.693,24.693,0,0,1,1.857-6.458c.876-2.494,1.19-4.14,1.809-6.293a49.005,49.005,0,0,0,1.857-6.458c.762-2.65,1.562-4.326,1.857-6.459.219-1.315,1.257-3.818,1.809-6.293.409-1.977,2.029-4.841,1.809-6.293-.1-2.436,1.152-5.114.292-7.667a3.592,3.592,0,0,0-3.2-2.74c-1.965-.371-4.836-.363-5.781-.958-1.66-.878-2.739-2.116-2.263-3.772.333-1.159,1.506-3.02,4.52-3.524a29.238,29.238,0,0,0,7.049-1.233c1.068-.388,1.621-.1,4.186-2.364a9.605,9.605,0,0,0,3.375-5.083,21.392,21.392,0,0,1,1.934-4.51,41.264,41.264,0,0,0,1.982-4.675,19.648,19.648,0,0,1,2.7-4.392c.677-.691,1.715-3.2,3.069-4.578,1.516-1.391,2.412-3.4,3.622-4.284,1-.711,2.269-2.9,4.014-3.982a38.359,38.359,0,0,0,4.519-3.524,9.442,9.442,0,0,1,4.654-2.881c2.021-.935,2.374-1.606,4.692-1.907l4.893-.942c2.709,0,5.094.023,5.982,1.923s2.263,3.772,1.434,6.1C536.5,9.669,534.484,12.23,532.873,13.953ZM455.88,20.807c-2.212,1.6-4.729,3.7-7.133,3.191-2.013-.206-4.828-1.5-5.515-2.439-.8-1.092-1.261-4.483-.785-6.138a12.524,12.524,0,0,1,4.4-6.447c2.469-1.938,4.405-3.68,7.181-3.357,2.614.333,4.531.87,5.63,2.6a7.381,7.381,0,0,1,.785,6.138C459.494,17.663,458.207,19.367,455.88,20.807Zm-6.1,22.337c.964,1.082-2.153,5.825-2.028,7.608.239,1.939-1.552,5.952-2.19,7.618a68.257,68.257,0,0,0-2.19,7.617l-2.142,7.452-2.19,7.617c-.952,3.312-1.59,4.978-2.142,7.452a43.278,43.278,0,0,0-2.142,7.452l-2.142,7.452c-1.381,4.8-1.485,6.273-1.131,8.369.087.808,1.794,1.521,2.4,1.648,1.689.225,3.806-1.04,5.114.51.8,1.092.384,4.209-1.714,5.962-3.356,2.8-5.379.971-8.528.832-2.06-.04-4.7.279-7.783.463-2.156.291-4.98.133-8.27.492-3.434.855-7.058,2.372-8.337.17-.917-1.248.408-4.744,1.714-5.962,2.355-2.093,4.1-.406,6.028-1.01a8.986,8.986,0,0,0,3.881-1.858c1.1-1.042.963-1.685,2.25-3.389,1.382-2.036,1.066-3.156,1.733-5.475.714-2.484,1.342-5.777,2.618-9.108,1.086-2.669,1.619-5.63,2.619-9.108.952-3.312,1.227-5.933,2.666-9.274,1.2-2.513,2.019-6.468,2.618-9.108.362-1.813.446-3.771,1.361-5.29.61-1.013-.4-1.929-.555-3.06-.058-1.462-1.079-1.238-2.834-1.785-1.917-.537-5.58.006-4.7-2.488a5.659,5.659,0,0,1,3.108-3.6c.744-.369,2.623-.807,4.272-1.556,2.556-1.129,4.55-1.41,5.989-1.984a49.353,49.353,0,0,0,6.456-2.5C444.857,44.739,448.766,42.228,449.778,43.144ZM403.532,20.663c-.037,1.793-1.448,4.481-1.762,6.127a23.379,23.379,0,0,1-1.81,6.293A28.759,28.759,0,0,0,398.2,39.21c-.667,2.318-1.886,4.344-1.762,6.127-.018,2.279-1.61,4.49-1.6,6.117a17.994,17.994,0,0,1-1.923,6.137c-1.572,2.7-1.286,4.471-1.809,6.293s-1.543,4.812-1.762,6.127c-.133,2.124-1.562,4.325-1.762,6.127-.314,1.646-1.5,4.646-1.762,6.127a43.719,43.719,0,0,1-1.762,6.127c-.666,2.318-1.171,4.627-1.762,6.127a44.2,44.2,0,0,0-1.762,6.127c-.428,1.491-1.7,4.822-1.761,6.127-.151,4.4-2.811,7-1.036,8.038,1.06.751,1.079,1.238,2.443,1.482.925.108,3.987-.563,5.113.51,1.012.917-.466,3.283-1.714,5.962-3.042,1.157-5.58.007-8.527.833-3.481,1.021-5.122.63-7.784.462-2.709,0-5.351.318-8.27.492-2.433.145-7.124,2.051-8.337.17-.916-1.248.293-4.9,1.714-5.962,1.84-1.411,4.264-.416,6.029-1.009a7.11,7.11,0,0,0,3.719-1.849c1.564-1.558,3.156-3.768,4-8.376a67.13,67.13,0,0,1,2.666-9.274c1.133-2.834,1.666-5.8,2.713-9.439.952-3.312,1.227-5.933,2.666-9.274a52.565,52.565,0,0,0,2.713-9.439c.695-2.972,1.857-6.458,2.714-9.439l2.713-9.439c.81-2.816,2.3-6.322,2.666-9.274.228-2.455,2.41-6.165,2.666-9.273.2-1.8,1.19-4.14,1.361-5.29.1-1.472.371-2.952-.669-3.215-1.365-.245-1.422-1.706-2.672-1.8-1.736-.059-5.7.99-5.266-1.64.409-1.978,1.276-3.331,2.878-3.915s2.594-.154,4.178-1.225c2-1.421,4.53-1.9,6.828-2.684,2.46-.8,3.833-1.693,6.456-2.5,2.251-.622,4.614-3.855,6.247-2.324,1.746,1.687-1.238,4.306-1.809,6.293C404.75,15.87,403.5,18.549,403.532,20.663Zm-46.636,146c2.109-.125,5.246-1.614,5.724-.5.84,2.066-1.009,4.617.394,5.837.9.76,3.2-.027,5.217-.961,2.394-1.119,4.606-2.715,5.722-3.27l4.625-2.228c3.3-1.5,5.55-2.12,7.887-1.934,1.088.1,4.168-.085,5.113.51s2.653,1.308,4.2,2.03c1.66.878,2.433,2.623,2.892,3.246a9.942,9.942,0,0,1,1.748,4.454,18.842,18.842,0,0,1-.244,7.5,49.883,49.883,0,0,1-1.961,7.929c-1.553,3.185-1.618,5.63-2.38,8.28L393.4,206l-2.38,8.28c-1.048,3.643-1.781,5.64-2.428,8.445-1.333,4.637-1.133,5.6-.988,7.872.039.974,1.307,1.55,2.558,1.638,1.574.07,2.88-1.148,5,.354,1.059.751.2,3.732-1.762,6.127-2.479,3.077-4.865.289-8.156.647l-7.946.472c-2.757.164-5.981.844-7.784.463-1.641-.39-6.943,2.529-7.9.307-.707-1.423.455-4.911,1.762-6.127,1.144-1.207,3.892-.231,5.379-.971a21.531,21.531,0,0,0,3.6-2c2.26-1.762,1.934-4.51,3.583-8.026,1.133-2.834,1.218-4.793,2.333-8.114,1.2-2.513,1.152-5.114,2.285-7.949L382.9,199.3c.848-1.84,1.524-5.3,2.285-7.949.666-2.318.961-4.452,1.5-5.786.667-2.319.1-4.239.531-5.729.409-1.978-.5-4.365-2.578-4.893-1.918-.537-3.225-2.087-5.915-1.6a22.416,22.416,0,0,0-5.637,1.312c-2.184.943-4,1.7-5.321,2.432a23.218,23.218,0,0,0-5.283,3.407c-1.259,1.052-4.282,2.7-4.892,3.709-.658,1.179-.561,3.614-1.428,4.968-.82,1.188-.952,3.312-1.476,5.134a31.079,31.079,0,0,1-1.476,5.133,31.1,31.1,0,0,0-1.476,5.134l-1.524,5.3c-.285.993-.98,3.965-1.476,5.133-.963,1.685-1.048,3.643-1.476,5.134-.524,1.821-1.019,2.991-1.476,5.133l-.988,7.872c-.123.984,1.422,1.706,2.4,1.648,1.737.06,3.691-1.2,5.161.345,1.422,1.706-.684,4.6-1.762,6.127-2.364,3.233-6.372.541-8.48.666-1.946.116-5.771.668-7.784.463-2.289-.352-5.237.474-8.27.491-3.682.057-7.429,2.558-8.384.336-.363-.955-.776-4.512,1.762-6.127,2.584-1.781,4.358-.747,5.818-.834a6.624,6.624,0,0,0,3.881-1.858c1.259-1.052,2.974-4.247,4-8.377.885-3.633,1.161-6.254,2.666-9.273,1.439-3.341,1.666-5.8,2.666-9.274.762-2.65,2.41-6.167,2.714-9.439a48.046,48.046,0,0,1,2.618-9.109,27.425,27.425,0,0,0,1.361-5.289,4.954,4.954,0,0,0-.507-3.225,5.578,5.578,0,0,0-2.834-1.785c-1.641-.391-4.683.766-5.342-.822a4.268,4.268,0,0,1,1.333-4.636c1.516-1.392,3.881-1.858,6.456-2.5,2.413-.632,4.416-2.053,6.524-2.178C352.577,168.381,354.789,166.785,356.9,166.659ZM324.924,86.536c-1.955,1.256-5.237.475-6.7.561-1.736-.06-5.351.318-6.81.4a30.39,30.39,0,0,0-6.648.4,30.187,30.187,0,0,1-6.648.4,44.894,44.894,0,0,0-6.648.4c-1.46.087-4.655.114-6.486.385a50.039,50.039,0,0,1-6.973.415c-1.249-.089-2.623.806-4.349,2.374-1.306,1.217-2.679,2.113-2.926,4.08-.113,2.611-1.2,5.28-.769,6.557.564,1.919-.007,3.907.118,5.69.211,2.591.784,3.371,1.119,4.979a7.324,7.324,0,0,0,2.215,3.938c.964,1.082,1.718,2.339,3.264,3.062l4.78,1.669c2.194.684,3.587.275,6.3.277,2.385.021,4.941-1.108,7.049-1.232a17.193,17.193,0,0,0,7.038-2.861c2.279-1.274,4.368-1.887,6.771-4.146a21.253,21.253,0,0,1,3.423-2.482c.954-.545,1.43-2.2,3.633-2.657a2.315,2.315,0,0,1,2.758,2.6c-.266,1.481-3.337,3.291-4.271,4.324-1.869,2.064-3.213,2.307-4.452,3.845-1.4,1.549-2.794,1.957-4.634,3.368-1.42,1.062-3.652,2.17-4.653,2.882a21.774,21.774,0,0,1-4.835,2.4,17.932,17.932,0,0,1-4.969,1.76c-2.061-.04-3.414,1.342-4.988,1.273-.925-.108-3.338.524-4.96.62-2.433.145-4.884-.2-7.269-.22-1.9-.049-4.713-1.347-6.029-1.758-2.423-1-2.834-1.785-5-3.121-1.222-.741-2.825-2.925-3.742-4.172-1.212-1.881-2.968-2.429-2.483-5.224.18-2.289-.689-3.7-1.272-6.109-.45-1.764.15-4.4.216-6.85a58.1,58.1,0,0,1,1.493-7.413c.647-2.805,2.049-4.354,2.791-7.491.41-1.977,2.354-4.86,3.927-7.558,1.524-2.532,2.974-4.246,5.08-7.138.772-1.023,1.706-2.055,2.945-3.593.515-.682,2.212-1.6,3.013-3.272.495-1.169,1.706-2.055,3.242-2.96a18.73,18.73,0,0,0,3.566-2.979c1.678-1.4,2.976-1.479,3.585-2.492a4.485,4.485,0,0,1,3.652-2.17c1.946-.116,2.813-1.469,3.881-1.859a20.862,20.862,0,0,1,3.948-1.536c3.062-.67,5.131-1.77,7.907-1.447l6.086.452c1.736.06,3.234.947,5.38,1.8,1.708.712,2.348,1.813,4.351,3.16,1.451,1.053,1.719,2.339,3.256,4.2a11.779,11.779,0,0,1,1.9,5.584c.125,1.783.851,3.693.881,5.808a25.848,25.848,0,0,1-.187,6.2C325.351,82.279,327.251,85.1,324.924,86.536ZM313.23,69c.057-1.305-.536-2.573-.365-3.722.266-1.481-.564-1.92-1.251-2.856a13.6,13.6,0,0,0-2.253-2.145,4.675,4.675,0,0,0-3.3-1.269c-1.2-.254-3.187-1.113-4.35-.392a7.141,7.141,0,0,1-4.73.932c-1.04-.264-2.976,1.479-4.158,1.712a7.628,7.628,0,0,0-3.91,2.511c-1.564,1.558-2.308,1.928-3.5,3.3s-1.477,2.366-2.621,3.574a10.981,10.981,0,0,0-2.784,3.584c-1.363,2.523-1.371,3.662.213,5.358a9.294,9.294,0,0,0,4.866,2.478c2.128.362,5.3-.152,8.919-.53,2.8-.329,6.953-.9,9.405-.559,1.851.216,4.111-1.547,6.437-2.987,1.745-1.081,3.594-3.632,3.632-5.425C313.488,71.427,313.192,70.793,313.23,69Zm-50.2,145.493c2.26-1.762,3.442-2,5.445-3.417.791-.535,3.881-1.859,5.579-2.773,2.069-1.1,3.252-1.333,5.436-2.277,2.346-.953,3.2-1.167,5.341-1.945a66.774,66.774,0,0,1,6.685-2.187,10.765,10.765,0,0,0,4.721-2.559c1.239-1.539,1.315-2.357,2.487-4.217.982-1.2.952-3.312,1.543-4.812a36.336,36.336,0,0,0,1.085-5.436c.037-1.793.79-3.3-.336-4.376a25.283,25.283,0,0,0-2.6-2.613,6.8,6.8,0,0,0-5.018-.841c-1.717.428-3.825.553-4.778,1.1-2.184.943-3.042,1.157-3.6,2-1.9,2.717-4.433,4.333-5.444,6.183a24.382,24.382,0,0,1-5,6.32c-1.564,1.558-3.118,1.976-6.6,3-1.717.428-3.139-1.278-4.246-1.863-1.384-.732-1.3-2.69-.632-5.008a34.205,34.205,0,0,1,2.049-4.354,13.947,13.947,0,0,1,3.317-3.778c1.049-.876,2-1.421,4.263-3.183,1.725-1.568,2.956-2.557,4.721-2.559,1.6-.584,3.09-1.322,5.178-1.935s3.787-1.528,4.874-1.429c3.33.616,6.123-1.341,8.393-1.476a19.978,19.978,0,0,1,5.857.14,14.237,14.237,0,0,1,5.361,1.309c1.107.585,3.578,1.415,4.379,2.507a10.578,10.578,0,0,1,2.559,4.406c.45,1.764.041,3.741.137,6.176-.085,1.959-1.886,4.345-1.742,6.615-.2,1.8-.857,2.981-1.428,4.968-.333,1.159-1.372,3.662-1.428,4.968.059,1.461-.952,3.312-1.428,4.968a29.2,29.2,0,0,1-1.428,4.968c-.8,1.675-.371,2.951-1.476,5.133-.781,2.162-1.142,3.974-1.428,4.968-1.324,3.5-1.4,7.083-2.809,9.77a14.126,14.126,0,0,0-1.4,4.316,2,2,0,0,0,1.766,2.174,16.863,16.863,0,0,0,2.642-.32c1.459-.087,2.346-.953,3.223-.68a1.855,1.855,0,0,1,1.232,2.369c-.429,1.49-1.917,2.23-3.156,3.768a8.487,8.487,0,0,1-3.957,2.676,23.444,23.444,0,0,1-8.125,2.762c-1.574-.07-4.283-.071-4.895-1.825s-2.6-2.613-3.54-3.208c-1.06-.751-2.443-1.483-5.075.464-1.888,1.577-2.861,1.635-4.72,2.559a30.2,30.2,0,0,1-6.552,2.831,26.791,26.791,0,0,1-6.725,1.213c-1.946.116-5.351.318-6.916-.891-1.06-.751-2.147-.849-2.767-1.463-.553-.292-1.126-1.073-2.3-1.98-1.127-1.072-1-2.056-1.508-2.514-.783-.6-.774-1.745-.927-2.875-.469-2.251.455-4.911.521-7.356.057-1.306,1.7-3.682,2.334-5.348.286-.994,2.011-2.561,3.489-4.928a14.875,14.875,0,0,1,4.271-4.323C260.159,217.268,260.864,215.924,263.029,214.494Zm-.492,24.444c1.146,1.56,3.865,3.189,6.326,2.391,1.068-.388,3.453-.367,4.845-.776a22.951,22.951,0,0,0,4.855-1.916c1.42-1.061,3.414-1.342,4.673-2.393a18.636,18.636,0,0,0,3.8-3.807,24.913,24.913,0,0,0,2.849-6.03c.753-1.509.732-4.763,2-6.955.448-1,.866-4.121,1.694-6.449.238-.828.046-2.932-1.013-3.683-.945-.595-5.371-.169-7.955,1.612a30.991,30.991,0,0,1-4.3,2.208c-1.278.565-2.193,2.084-4.139,2.2-2.108.125-3.652,2.17-4.8,3.377-1.4,1.549-3.194,2.795-3.966,3.817-1.334,1.87-2.546,2.756-3.3,4.265-1.01,1.851-1.162,3.488-2.077,5.007A6.817,6.817,0,0,0,262.536,238.938ZM242.8,65.861c-1,.711-2.07,1.1-3.815,2.18-1.955,1.255-2.174,2.571-3.175,3.281-2,1.421-1.992,3.048-3.231,4.587-1.029,1.364-1.62,2.864-2.507,3.731-1.516,1.392-1.553,3.185-2.554,3.9-1.326.73-2.316,3.068-2.554,3.9-.429,1.49-1.992,3.048-2.6,4.061-.962,1.685-1.181,3-2.554,3.9-1.163.72-2.011,2.561-2.554,3.9a10.858,10.858,0,0,1-2.554,3.9,25.51,25.51,0,0,0-2.555,3.9,14.52,14.52,0,0,1-2.554,3.9c-1.983,1.908-1.715,3.194-2.554,3.9a14.222,14.222,0,0,0-2.554,3.9c-.848,1.841-1.754,2.22-2.554,3.9a31.3,31.3,0,0,0-1.934,4.51,28.031,28.031,0,0,1-1.915,5,29.718,29.718,0,0,1-2.487,4.217c-1.192,1.373-2.861,1.635-4.3,2.208-2.508.963-2.709,0-3.578-1.415-.458-.624-.678-2.076-.594-4.034a17.016,17.016,0,0,1,.5-5.076c.781-2.162.609-3.78.035-4.56-.525-.946.085-1.958-.689-3.7-.544-1.432-.888-1.9-.526-3.712.266-1.482-.144-2.271-.689-3.7-.22-1.452.066-2.446-.364-3.722a9.731,9.731,0,0,1-.526-3.713,7.206,7.206,0,0,0-.365-3.722,9.729,9.729,0,0,1-.526-3.712c-.125-1.783-.1-2.436-.317-3.888-.173-1.618-.908-2.388-.365-3.722.381-1.325-.03-2.114-.2-3.732-.153-1.13.39-2.465-.411-3.557-.85-.925-.889-1.9-.365-3.722.409-1.977-.536-2.572-.5-4.365.171-1.15-1.165-2.047-1.366-3.011a2.977,2.977,0,0,0-2.834-1.785c-1.087-.1-4.216.25-4.741-.695-.754-1.257.293-4.9,1.714-5.962,2.889-2.288,5.494-.815,8.365-.823,2.061.04,6.162-.366,8.271-.491,2.966-.339,5.837-.347,7.783-.463,3.358-.037,7.4-1.9,8.175-.16,1,2.057-.523,4.588-1.714,5.962-.887.866-4.311.582-5.7.99-1.6.584-4.13,1.06-4.052,3.008a13.556,13.556,0,0,1-.217,4.082,21.517,21.517,0,0,1,.3,6.167,25.385,25.385,0,0,0,.557,5.827c.354,2.095.107,4.063.394,5.836a39.317,39.317,0,0,1,.279,5.68c.03,2.114-.265,4.248.394,5.837a20.82,20.82,0,0,1,.3,3.4,23.268,23.268,0,0,1,.269,4.053c-.152,1.637-.113,2.611,1.718,2.34,1.183-.233,2.117-1.265,3.1-2.463a33.243,33.243,0,0,0,2.812-4.237,30.275,30.275,0,0,1,2.135-3.545c1.963-2.4,1.553-3.185,3.774-5.921a14.906,14.906,0,0,0,3.469-5.415c.5-1.169,2.574-3.408,3.517-5.58.495-1.169,2.764-4.071,3.469-5.415,1.267-2.191,2.392-3.886,3.307-5.405,1.22-2.026,2.23-3.876,2.306-4.694-.03-2.114.217-4.082-1.977-4.766-2.309-.839-5.676.338-7.336-.54-.992-.429-.221-4.219,1.714-5.962,1.564-1.558,5.657-.825,7.716-.784,1.574.069,4.7-.279,7.459-.444,2.594-.154,5.141-.143,7.135-.424,2.69-.486,5.827-1.974,7.364-.112,1.422,1.706-.237,3.595-1.714,5.962S244.34,64.956,242.8,65.861Zm-69.366,173.97a3.791,3.791,0,0,0,2.744-1.211,6.972,6.972,0,0,0,1.692-2.313c.287-.6.4-1.77,1.207-3.8.443-1.54.926-4.015,1.908-6.635.914-2.383,1.281-4.851,1.908-6.635.565-2.362,1.431-4.976,1.942-6.753s1.131-4.725,1.942-6.753c.879-2.265,1.247-4.732,1.942-6.753.477-1.658,1.077-4.14,1.908-6.635a49.878,49.878,0,0,0,1.942-6.753c.6-2.481.893-3.9,1.492-6.377a13.569,13.569,0,0,0,.893-3.9,4.321,4.321,0,0,0-.363-2.307,3.014,3.014,0,0,0-1.53-1.423c-1.175-.279-3.762-.009-3.435-1.543.5-2.126,1.391-2.063,2.456-2.592.683-.39,1.577-.327,2.642-.855,1.6-.794,2.908-.988,4.505-1.782s2.342-.6,4.621-1.788c1.946-.814,3.433-2.416,4.437-1.544.922.76-1.336,3.456-1.363,4.738-.143,1.29-1.268,3.22-1.247,4.732-.06,1.4-1.138,3.561-1.363,4.739-.58,2.014-1.3,3.338-1.363,4.739-.381,2.118-1.255,3.568-1.4,4.857a23.517,23.517,0,0,1-1.09,3.792c-.409,1.422.793,2.4.671,3.221-.2,1.875,1.292,2.252,2.991,1.1,1.133-.766,3.044-1.462,4.013-2.451,1.3-1.358,2.293-.835,3.31-1.594a8.258,8.258,0,0,1,5.646-1.384,34.6,34.6,0,0,1,3.775.358,6.122,6.122,0,0,1,3.087,1.564c1,.872,2.028,1.276,2.152,2.434.172,1.387,1.209,2.141,1.251,3.187.165,2.2.425,2.885-.189,5.018-.682,2.37-.975,3.785-1.384,5.206a60.12,60.12,0,0,0-1.738,6.042c-.429,1.888-1.411,4.509-1.772,6.16a62.228,62.228,0,0,1-1.771,6.161c-.613,2.133-1.145,4.377-1.738,6.042-.831,2.494-2.026,4.661-.741,5.75a6.212,6.212,0,0,0,1.831,1.172c1.024.4,2.922-.639,3.578.253.868,1.346-.886,3.081-1.226,4.265-.443,1.541-4.2.715-5.872.582-1.523-.259-3.632.333-5.687.338-2.4.026-3.55.444-5.571.331-1.591-.022-5.168,1.7-5.619.1a3.985,3.985,0,0,1,1.227-4.265c1.167-.884,2.253.1,3.85-.694a25.079,25.079,0,0,0,2.58-1.434c1.583-1.142,1.5-3.234,2.6-5.86.962-2.153,1.056-3.673,1.738-6.042.477-1.658,1.623-4.055,1.772-6.161.292-1.414,1.138-3.56,1.738-6.042a62.6,62.6,0,0,0,1.772-6.161c.258-1.3.469-2.822.946-4.481.34-1.184.033-2.1-.1-3.6a3.444,3.444,0,0,0-1.572-2.468,7.645,7.645,0,0,0-3.906-.7,30.15,30.15,0,0,0-4.233.834,11.173,11.173,0,0,0-3.993,1.984c-5.9,3.844-5.651,4.178-6.641,5.635a21.077,21.077,0,0,0-2.939,7.045,20.748,20.748,0,0,0-1.022,3.554c-.061,1.4-.9,2.732-1.023,3.555a8.918,8.918,0,0,1-1.056,3.673c-.553.731-.647,2.251-1.022,3.554a20.826,20.826,0,0,1-1.022,3.554,20.755,20.755,0,0,0-1.023,3.555,17.037,17.037,0,0,0-.741,5.75c.007,1.164.785,1.234,1.714,1.179,1.277-.076,2.84-.751,3.694.246.574.782.425,2.886-1.227,4.265-2.253,1.881-4.513.618-6.1.6a44.691,44.691,0,0,1-5.571.331,33.359,33.359,0,0,0-5.919.352c-1.577.326-5.181,1.355-5.967.122-.656-.893.21-3.506,1.226-4.265C171.008,239.16,172.394,239.893,173.438,239.831Zm-5.626-42.17c-.683.39-2.239.25-4.083.709-1.911.7-2.7.277-4.048.59a14.672,14.672,0,0,0-5.222,2.29,11.208,11.208,0,0,0-3.65,4.758l-1.159,4.029-1.125,3.91-1.124,3.91a25.111,25.111,0,0,0-1.125,3.91c-.191,1.06-.8,2.376-1.125,3.91-.511,1.777-.934,2.85-1.125,3.91-.143,1.29-1.2,2.983-1.144,4.377a19.019,19.019,0,0,1-.462,3.986,2.8,2.8,0,0,0,1.073,2.615,7.632,7.632,0,0,0,3.606.95c2.021.113,3.536-.792,5.284-1.711a10.293,10.293,0,0,0,2.532-1.664c1.167-.885,1.487-1.6,2.717-1.908a1.774,1.774,0,0,1,2.206,1.848c-.176,1.408-3.091,3.211-4.258,4.1-2,1.4-2.7,2.256-4.45,3.175a23.484,23.484,0,0,1-4.608,2.137,18.53,18.53,0,0,1-4.813.868c-.928.055-2.935.291-3.612-.135-.758-.537-1.489-.377-2.629-.776s-1.42-.614-1.728-1.528a9.131,9.131,0,0,1-.9-2.043,10.676,10.676,0,0,1,.025-5.241,43.6,43.6,0,0,1,1.491-6.377c.443-1.54,1-3.087,1.193-4.147s.73-2.139,1.192-4.146a27.129,27.129,0,0,1,1.193-4.147,19.586,19.586,0,0,0,1.226-4.265c.156-.941.9-2.732,1.261-4.383.293-1.415,1.186-3.331,1.261-4.383.162-1.756-.227-2.782.386-4.914a1.9,1.9,0,0,0-1.456-2.475c-1.092-.168-3.236.542-4.028.122-.4-.209-.459-2.767,1.057-3.672,1.249-.773,3.01-1.343,3.761-1.97a13.783,13.783,0,0,1,2.948-1.922,6.439,6.439,0,0,0,2.437-2.124c.887-1.1,1.535-1.372,1.856-2.09.607-1.317,1.965-3.261,3.192-5.546a19.5,19.5,0,0,0,1.466-3.115c.272-.948.653-3.066,2.3-3.63,1.611-.445,2.976-1.225,3.831-.227,1.1,1.332-.442,3.52-.967,4.949l-1.2,4.962a6.816,6.816,0,0,0-.319,2.7,6.467,6.467,0,0,0,.759,2.517c1.414,1.43,2.036,2.44,3.545,2.351a11.28,11.28,0,0,1,3.879,0c1.488.377,2.935-.291,4.076.107,1.339.5,1.947,1.165,1.838,2.337C170.9,196.43,169.409,196.868,167.812,197.661ZM156.494,38.6c-2.212,1.6-4.729,3.7-7.133,3.19-2.013-.206-4.828-1.5-5.515-2.439-.8-1.092-1.261-4.482-.785-6.138a12.525,12.525,0,0,1,4.4-6.447c2.47-1.937,4.405-3.68,7.181-3.357,2.613.333,4.531.87,5.629,2.6a7.38,7.38,0,0,1,.785,6.139C160.107,35.455,158.82,37.158,156.494,38.6Zm-6.1,22.337c.964,1.082-2.153,5.825-2.028,7.607.24,1.939-1.551,5.952-2.189,7.618a68.091,68.091,0,0,0-2.19,7.618l-2.142,7.452-2.19,7.618c-.952,3.312-1.591,4.978-2.142,7.452a43.294,43.294,0,0,0-2.143,7.452l-2.142,7.452c-1.38,4.8-1.485,6.273-1.131,8.369.086.808,1.794,1.521,2.4,1.648,1.689.225,3.805-1.04,5.113.51.8,1.092.384,4.209-1.714,5.962-3.357,2.8-5.38.97-8.528.832-2.061-.04-4.7.279-7.784.462-2.155.291-4.979.133-8.27.492-3.434.856-7.057,2.373-8.337.17-.916-1.248.408-4.745,1.714-5.962,2.355-2.093,4.1-.407,6.028-1.01a9,9,0,0,0,3.881-1.858c1.1-1.042.962-1.685,2.249-3.39,1.382-2.035,1.067-3.156,1.733-5.474.714-2.485,1.342-5.777,2.619-9.109,1.086-2.669,1.618-5.63,2.618-9.108.952-3.312,1.228-5.933,2.666-9.274,1.2-2.513,2.019-6.468,2.619-9.108.361-1.812.446-3.77,1.361-5.29.61-1.013-.4-1.929-.555-3.06-.059-1.461-1.079-1.238-2.834-1.785-1.918-.536-5.58.007-4.7-2.487a5.655,5.655,0,0,1,3.108-3.6c.744-.37,2.623-.807,4.273-1.556,2.556-1.129,4.549-1.41,5.989-1.984a49.386,49.386,0,0,0,6.456-2.5C145.47,62.53,149.379,60.019,150.391,60.936ZM106.747,197.1a35.441,35.441,0,0,0,4.621-1.788c.915-.4,3.713-2.2,4.437-1.545.69.774-1.541,4.167-1.451,5.443.172,1.387-1.111,4.258-1.568,5.45a48.861,48.861,0,0,0-1.568,5.45l-1.533,5.332-1.567,5.45c-.682,2.37-1.138,3.561-1.533,5.331a30.93,30.93,0,0,0-1.533,5.331l-1.533,5.331c-.988,3.436-1.063,4.488-.809,5.987.062.578,1.284,1.088,1.714,1.179,1.209.161,2.724-.744,3.66.365.574.781.275,3.011-1.226,4.265-2.4,2.005-3.85.694-6.1.595-1.475-.028-3.366.2-5.571.331-1.543.208-3.564.1-5.919.352-2.458.612-5.052,1.7-5.967.122-.656-.893.292-3.394,1.226-4.265,1.686-1.5,2.936-.291,4.315-.722a6.435,6.435,0,0,0,2.778-1.33c.784-.745.689-1.2,1.61-2.424.989-1.457.764-2.258,1.24-3.917.511-1.777.961-4.132,1.875-6.516.777-1.909,1.158-4.028,1.874-6.516a48.437,48.437,0,0,1,1.908-6.635A35,35,0,0,0,102,211.236a11.751,11.751,0,0,1,.974-3.785c.436-.724-.287-1.38-.4-2.189-.042-1.046-.772-.885-2.028-1.277-1.373-.384-3.994,0-3.367-1.779a4.051,4.051,0,0,1,2.224-2.578c.532-.264,1.877-.577,3.058-1.113C104.289,197.708,105.716,197.507,106.747,197.1ZM96.212,114.452a11.952,11.952,0,0,1-2.44,4.051c-1.029,1.363-1.363,2.523-2.345,3.72-1.192,1.373-.781,2.162-2.345,3.72a33.748,33.748,0,0,0-4.737,7.606A30.7,30.7,0,0,1,82,137.27c-1.077,1.529-.837,3.468-2.345,3.721s-3.939.4-5.074.464l-4.865.289-4.865.289-5.027.3c-1.622.1-2.737.651-4.865.289a24.384,24.384,0,0,0-4.865.289c-1.135.068-3.386.689-4.865.289-1.04-.264-3.014.5-4.865.289a15.68,15.68,0,0,0-4.865.289c-2.413.632-3.309-.129-5.026.3a30.521,30.521,0,0,1-9.405.559,10.785,10.785,0,0,0-5.122.63c-1.812.758-3.137,1.489-5.17.8-1.155-.42-3.176.514-4.865.289-1.965-.371-3.748-.266-4.855-.851-1.5-.888-1.863-4.61,1.809-6.293,2.184-.943,3.834-1.693,5.246-1.614a7.82,7.82,0,0,0,3.71-.709,31.881,31.881,0,0,0,4.9-2.082c1.23-.4,2.478-3.077,2.811-4.236.238-.828,1.115-3.322,1.876-5.971.952-3.312,1.943-5.649,2.619-9.108.437-2.63,1.924-6.137,2.666-9.274.647-2.806,1.9-6.624,2.666-9.274.952-3.312,1.694-6.449,2.713-9.439.782-2.162,1.762-6.127,2.666-9.274.666-2.318,1.552-5.952,2.666-9.274.762-2.649,1.437-6.107,2.666-9.274.79-3.3,2.458-6.331,2.619-9.108.266-1.48,1.419-3.828,1.552-5.952.152-1.637-.555-3.06-.222-4.219.362-1.811-1.842-1.355-2.739-2.116-.964-1.082-4.264.416-6.553.064-2.128-.362-3.511-1.094-3.474-2.886-.22-1.452,1.743-3.847,2.65-4.227,1.812-.759,3.729-.222,5.676-.337,2.108-.125,4.425-.426,5.723-.5a20.813,20.813,0,0,0,5.513-.327c1.926-.6,3.4-.2,5.351-.318a30.917,30.917,0,0,1,5.513-.328c1.736.06,3.338-.524,5.676-.337,1.249.089,3.453-.368,5.465-.162,2.175.2,5.131-1.77,5.79-.181a6.194,6.194,0,0,1-1.809,6.293c-2.565,2.268-5.933.678-8.766,1.66A34.107,34.107,0,0,0,62.9,39.6a5.567,5.567,0,0,0-2.764,4.071C59.756,45,59.023,47,58.261,49.645L55.69,58.588c-.81,2.815-2.114,6.8-2.619,9.108-.418,3.118-2.134,6.313-2.618,9.108-.6,2.64-2.066,6.634-2.619,9.109-.77,3.789-1.762,6.127-2.619,9.108-.9,3.146-1.742,6.614-2.618,9.108l-2.571,8.942c-.924,2.659-2.486,6.984-2.619,9.108-.16,2.777-2.105,5.66-1.932,7.277-.018,2.279-.046,2.932.059,4.228.153,1.13,2.024,1.833,3.111,1.931,2.013.206,4.884.2,7.107.229a38.518,38.518,0,0,0,9.386-1.046c3.129-.348,5.827-1.974,8.03-2.431,1.345-.243,1.765-.593,4.044-1.868a20.67,20.67,0,0,1,3.814-2.18c1.278-.565,2.613-2.434,4.167-2.852,1.021-.223,2.546-2.756,4.472-3.359a9.972,9.972,0,0,0,3.938-3.164,13.328,13.328,0,0,1,3.614-3.145,15.372,15.372,0,0,0,3.547-3.466c1.658-1.889,2.431-2.912,3.594-3.632,1.955-1.255,4.35.393,4.084,1.873C98.272,111.725,96.546,113.293,96.212,114.452ZM14.293,201.889a48.345,48.345,0,0,1,5.8-.344c2.172-.012,3.366-.2,5.455-.324,1.393-.083,4.8-1.217,5.769-.226,1.018,1.221-.06,3.38-1.261,4.383-1.386,1.247-2.307.486-3.933.583a3.636,3.636,0,0,0-2.654,2.486,14.5,14.5,0,0,0-.258,3.276,27.079,27.079,0,0,1,.084,4.071,11.746,11.746,0,0,0-.032,4.078c.124,1.157-.223,3.158.118,3.952.287,1.38-.2,2.69.036,3.84.157,1.039-.122,2.8,0,3.959l.126,5.117c-.019,2.446,1.872,2.218,3.1-.068a33.586,33.586,0,0,1,3.288-5.087,15.528,15.528,0,0,0,2.517-3.992c.437-.725,1.61-2.425,2.333-3.748.287-.6,1.474-1.951,2.3-3.63a12.139,12.139,0,0,1,2.449-3.756,8.827,8.827,0,0,0,2.265-3.511,3.508,3.508,0,0,0-.022-3.492c-.369-1.492-.233-1.966-.561-2.412-.41-.558-.984-1.339-1.762-1.409-1.325-.154-2.97.409-3.708-.595s-.357-3.123,1.261-4.383c1.167-.885,4.328-.374,5.721-.457,2.172-.012,4.131-.478,5.571-.331,2.1.225,3.551-.444,5.339-.317,1.557.141,4.69-2.025,5.653-.22.834,1.464-.128,3.618-1.261,4.383-.983.641-3.25.193-4.048.59-1.065.528-2.478,1.079-2.689,2.6-.394,3.75-.244,3.624-.366,4.447A6.793,6.793,0,0,0,51,215.08c.274,1.032-.4,2.586.07,3.722.506,1.018-.005,2.8.07,3.722.056,1.394-.053,2.565.1,3.6.1,1.624-.2,2.69.036,3.84l.126,5.116c-.053,2.565,1.94,1.981,3.168-.3a56.543,56.543,0,0,1,3.206-5.2q.706-1.265,2.517-3.992c.839-1.331,1.78-3.017,2.333-3.748.955-1.338,1.549-3,2.368-3.867.519-.613,1.446-2.648,2.333-3.748,1.071-1.345,1.6-2.773,2.333-3.748a9.483,9.483,0,0,0,1.534-3.351c.177-1.409-.227-2.782-1.333-3.3-.908-.411-4.069,1.057-4.636-.54-.438-1.255-.036-3.841,1.261-4.383,1.83-.808,3.4-.319,5.258-.429,1.625-.1,2.731.42,5.223-.31a34.167,34.167,0,0,1,4.874-.289c1.277-.076,4.055-1.405,5.189-.192.608.663-.551,2.711-1.261,4.383-.525,1.429-2.423.494-3.687.918-1.113.3-1.618,1.26-2.614,1.553-.881.285-1.719,1.616-2.006,2.215a14.021,14.021,0,0,1-2.2,3.275c-1.1,1.463-1.754,1.735-1.828,2.787a3.875,3.875,0,0,1-1.712,2.78c-1.051.877-1.159,2.048-1.712,2.78a15.924,15.924,0,0,0-1.829,2.787,10.207,10.207,0,0,1-1.712,2.78c-.887,1.1-1.077,2.16-1.712,2.78a5.969,5.969,0,0,0-1.829,2.788,9.037,9.037,0,0,1-1.712,2.78,14.069,14.069,0,0,0-1.712,2.78,21.141,21.141,0,0,1-1.862,2.905,22.58,22.58,0,0,0-1.712,2.78,11.76,11.76,0,0,1-1.863,2.906,15.292,15.292,0,0,0-1.678,2.661l-1.828,2.787a15.92,15.92,0,0,0-1.712,2.78,15.4,15.4,0,0,1-1.979,2.912,3.2,3.2,0,0,1-3.25.193c-1.3-.621-.206-3.248-.262-4.642-.1-1.624.005-2.795-.18-4.531-.007-1.164.005-2.795-.146-4.65a25.645,25.645,0,0,1-.064-4.537,13.029,13.029,0,0,0-.228-4.761,5.283,5.283,0,0,1-.076-2.907c.442-1.54-.22-1.617-.022-3.492.128-1.638-.4-2.189-1.476-2.008a3.945,3.945,0,0,0-2.736,2.375c-.908,1.568-1.74,2.083-2.265,3.512-.307,1.066-1.29,1.706-1.9,3.023-.641,1.436-2.264,3.512-3.138,4.961a48.4,48.4,0,0,0-2.988,4.835c-.675,1.554-2.381,3.518-3.1,4.843-.975,1.8-2.061,2.8-2.8,4.591a13.943,13.943,0,0,1-3.22,4.849,3.443,3.443,0,0,1-3.841.193,10.45,10.45,0,0,1,.365-2.781c.177-1.408-.35-1.959-.145-2.67.361-1.652-.4-2.189-.111-2.788.689-1.205-.206-1.269-.063-2.558.061-1.4-.171-1.387-.145-2.67.225-1.177-.287-1.38-.145-2.669a4.866,4.866,0,0,0-.111-2.788,3.733,3.733,0,0,1-.028-2.677c.238-.829-.22-1.617-.145-2.669a6.929,6.929,0,0,0-.145-2.67c-.3-1.729.142-3.269-.174-5.346-.52-1.367.327-1.533-.145-2.67a6.341,6.341,0,0,1-.029-2.676,3.86,3.86,0,0,0-.145-2.67c-.376-.676.2-1.875-.145-2.669a23.655,23.655,0,0,1-.206-3.248,2.605,2.605,0,0,0-.977-2.155c-.608-.663-1.618-.719-2.063-1.159-.922-.76-2.922.64-3.428-.379a3.8,3.8,0,0,1,1.261-4.383C10.121,201.322,12.287,202.125,14.293,201.889Zm100.774-21.822a7.281,7.281,0,0,1-3.947-1.745,6.98,6.98,0,0,1-.562-4.392,8.959,8.959,0,0,1,3.152-4.612c1.767-1.386,3.153-2.632,5.14-2.4,1.871.238,3.243.622,4.029,1.857a5.275,5.275,0,0,1,.562,4.391,7.035,7.035,0,0,1-3.267,4.619C118.59,178.926,116.788,180.43,115.067,180.067Zm309.664,22.441c.647-2.805,2.048-4.354,2.791-7.49.409-1.978,2.353-4.86,3.926-7.558,1.525-2.533,2.974-4.246,5.08-7.138.772-1.023,1.706-2.055,2.946-3.593.515-.682,2.212-1.6,3.012-3.272.5-1.169,1.706-2.055,3.242-2.96a18.682,18.682,0,0,0,3.566-2.979c1.678-1.4,2.976-1.48,3.586-2.492a4.488,4.488,0,0,1,3.652-2.171c1.946-.116,2.814-1.469,3.882-1.858a20.843,20.843,0,0,1,3.948-1.537c3.062-.67,5.131-1.77,7.906-1.447l6.086.452c1.736.06,3.234.947,5.381,1.8,1.708.712,2.348,1.814,4.352,3.16,1.45,1.054,1.718,2.339,3.255,4.2a11.78,11.78,0,0,1,1.9,5.584c.125,1.783.851,3.693.881,5.808a25.817,25.817,0,0,1-.187,6.2c-.438,2.63,1.462,5.448-.864,6.888-1.955,1.256-5.237.474-6.7.561-1.737-.06-5.352.318-6.811.4a30.434,30.434,0,0,0-6.648.4,30.146,30.146,0,0,1-6.648.4,45.076,45.076,0,0,0-6.648.4c-1.459.087-4.655.114-6.486.386a50.137,50.137,0,0,1-6.973.414c-1.249-.089-2.623.807-4.349,2.375-1.306,1.217-2.679,2.113-2.926,4.08-.113,2.611-1.2,5.28-.769,6.556.564,1.92-.007,3.907.118,5.69.211,2.592.784,3.371,1.119,4.98.4,1.929.43,2.544,2.215,3.937.964,1.083,1.718,2.34,3.264,3.062l4.78,1.669c2.195.684,3.587.275,6.3.277,2.385.021,4.94-1.107,7.048-1.232a17.191,17.191,0,0,0,7.038-2.86c2.279-1.275,4.368-1.887,6.771-4.146a21.244,21.244,0,0,1,3.423-2.483c.954-.545,1.43-2.2,3.633-2.657a2.316,2.316,0,0,1,2.758,2.6c-.266,1.48-3.336,3.291-4.271,4.323-1.869,2.065-3.213,2.307-4.452,3.846-1.4,1.548-2.794,1.956-4.634,3.368-1.421,1.061-3.653,2.17-4.654,2.881a21.747,21.747,0,0,1-4.835,2.4,17.957,17.957,0,0,1-4.969,1.761c-2.06-.041-3.414,1.342-4.988,1.273-.925-.107-3.338.525-4.96.62-2.432.145-4.884-.2-7.269-.219-1.9-.05-4.713-1.348-6.029-1.758-2.423-1-2.834-1.785-5-3.121-1.221-.741-2.825-2.925-3.742-4.172-1.212-1.881-2.968-2.428-2.483-5.224.18-2.289-.689-3.7-1.272-6.109-.45-1.764.151-4.4.216-6.85A58.141,58.141,0,0,1,424.731,202.508Zm23.637-17.356a9.294,9.294,0,0,0,4.867,2.478c2.127.362,5.3-.152,8.919-.53,2.8-.329,6.953-.9,9.4-.559,1.851.216,4.111-1.546,6.437-2.987,1.745-1.081,3.594-3.632,3.631-5.425.009-1.14-.287-1.773-.25-3.566.057-1.306-.536-2.573-.365-3.722.266-1.481-.564-1.92-1.251-2.856a13.568,13.568,0,0,0-2.253-2.145,4.672,4.672,0,0,0-3.3-1.269c-1.2-.254-3.187-1.113-4.35-.393a7.148,7.148,0,0,1-4.731.933c-1.04-.264-2.976,1.478-4.158,1.712a7.637,7.637,0,0,0-3.91,2.511c-1.564,1.558-2.308,1.928-3.5,3.3s-1.477,2.367-2.621,3.574a10.966,10.966,0,0,0-2.783,3.584C446.792,182.315,446.784,183.455,448.368,185.151Z" transform="translate(0.014 0.011)" fill="#fff" fill-rule="evenodd"/>
</svg>
