<svg id="copy_message" xmlns="http://www.w3.org/2000/svg" width="536.438" height="112.527" viewBox="0 0 536.438 112.527">
  <path id="パス_43913" data-name="パス 43913" d="M536.353,101.839c-.128.644,0,.991-.36,1.586a9.968,9.968,0,0,0-.757,1.587,7.281,7.281,0,0,1-.952,1.438,15.712,15.712,0,0,1-1.215,1.338,6.734,6.734,0,0,1-1.361,1.19,16.429,16.429,0,0,1-1.539.991,5.162,5.162,0,0,1-1.583.695c-.566.2-.9.3-1.662.5a4.185,4.185,0,0,1-1.589.149,8.57,8.57,0,0,1-1.534-.149,5.376,5.376,0,0,1-1.313-.5,5.383,5.383,0,0,0-1.095-.695,4.038,4.038,0,0,1-.791-.991,7.251,7.251,0,0,1-.59-1.14,6.176,6.176,0,0,1-.222-1.339c-.021-.644-.383-.744.028-1.487.308-.595.148-.843.41-1.587.311-.743.218-1.041.69-1.536.457-.595.527-.794,1.019-1.488.2-.3.845-.991,1.166-1.338.236-.248.822-.645,1.411-1.19a5.584,5.584,0,0,1,1.472-.942,11.32,11.32,0,0,0,1.65-.744,6.253,6.253,0,0,1,1.595-.446,11.054,11.054,0,0,1,1.656-.2,3.956,3.956,0,0,1,1.517.2,9.207,9.207,0,0,0,1.281.446,5.825,5.825,0,0,1,1.077.744c.408.248.534.6.858.942a1.517,1.517,0,0,1,.523,1.19,8.832,8.832,0,0,0,.273,1.338A4.759,4.759,0,0,1,536.353,101.839Zm-2.319-.595a4.069,4.069,0,0,0-.562-1.785,3.391,3.391,0,0,0-1.366-1.19,3.512,3.512,0,0,0-2.024-.446c-.764.2-1.84.3-2.339.446a7.321,7.321,0,0,0-2.221,1.24,9.846,9.846,0,0,0-1.818,1.785c-.341.545-.717,1.189-1.214,2.181a8.18,8.18,0,0,0-.3,2.132c-.008.446-.093.545.164.942a3.922,3.922,0,0,1,.4.843,1.1,1.1,0,0,0,.6.694c.391.3.54.3.767.5.552.546,1.316.347,1.975.447a7.2,7.2,0,0,0,2.339-.447c.531-.1.6-.3,1.116-.5a3.612,3.612,0,0,0,1.087-.694c.353-.3.789-.695.991-.843a10.8,10.8,0,0,0,.877-.942,4.815,4.815,0,0,0,1.214-2.182A6.175,6.175,0,0,0,534.034,101.244ZM523.26,44.866c-.539.546-.591.694-1.09.843a11.838,11.838,0,0,0-1.362.347c-.349.149-.805-.248-1-.4-.408-.248-.354-.546-.462-.942a3.3,3.3,0,0,1-.176-1.19,4.43,4.43,0,0,0-.045-1.14,5.454,5.454,0,0,1-.2-1.686,4.752,4.752,0,0,0-.366-1.636c-.094-.3-.208-1.239-.567-1.487-.391-.3-.415-.794-.719-1.339a4.963,4.963,0,0,0-.884-1.289l-1.037-1.14c-.193-.3-.741-.149-.817-.5-.061-.248-.639-.3-.966-.5-.441-.3-1.214-.5-.856-1.09.137-.248.373-.5,1.067-.5a12.522,12.522,0,0,1,1.584.149,7.978,7.978,0,0,1,1.71.5l1.493.546c.263.1,1.053.248,1.214.5a3.122,3.122,0,0,0,1.112.645c.458.248.765.644,1.028.744.408.248.7.4.893.842.143.3.49.3.6.695.061.247.421.5.531.743.158.4.4.545.447.843.088.595.286.595.38.892.184.744.156,1.388.293,1.983a4.855,4.855,0,0,1-.371,2.182A5.3,5.3,0,0,1,523.26,44.866ZM510.083,75.959c-.32.347-.848.3-1.3.446-.548.149-1.187-.149-1.7-.1a6.07,6.07,0,0,1-1.683-.149c-.329-.049-1.029.248-1.475.248a6.444,6.444,0,0,0-1.945.595,9.641,9.641,0,0,0-2.166.942c-.568.347-.782.248-1.1.595a1.772,1.772,0,0,1-1.169.645c-.365.049-.624.644-1.087.694-.514.049-.385.247-.988.694-.437.4-1.175.942-1.845,1.437a4.01,4.01,0,0,0-1.4,1.587c-.26.595-1.087,1.537-.614,1.884.522.347,1.373-.1,1.869-.1.446,0,.9-.447,1.265-.5a2.638,2.638,0,0,0,1.4-.595,6.871,6.871,0,0,1,1.548-.6,16.776,16.776,0,0,0,1.662-.5c.484-.248,1.16-.2,1.676-.4a3.052,3.052,0,0,1,1.622-.1,8.1,8.1,0,0,1,2.062.2,14.206,14.206,0,0,1,1.657.644,1.49,1.49,0,0,1,1.237.992c.155.545.811.793.817,1.338a7.381,7.381,0,0,0,.483,1.587c.155.545-.205,1.289.066,1.785a3.478,3.478,0,0,1-.252,1.983,11.416,11.416,0,0,1-.585,2.082c-.428.793-.474,1.487-.951,2.28a9.21,9.21,0,0,1-1.214,2.182c-.56.743-.9,1.289-1.477,2.082a10.724,10.724,0,0,1-1.7,1.884,5.754,5.754,0,0,0-.909.892c-.254.3-.554.446-.941.843a6.122,6.122,0,0,1-1.04.843c-.335.248-.767.347-1.073.793-.373.5-.819.5-1.055.744a2.1,2.1,0,0,1-1.137.694c-.431.1-.44.545-1.169.644-.247,0-.953.595-1.151.595-.613.05-.755.595-1.285.694a12.73,12.73,0,0,0-1.35.6c-.417.2-.866.347-1.233.545s-.814.2-1.3.447-1.03.248-1.33.4a9.317,9.317,0,0,1-1.761.5,7.151,7.151,0,0,1-1.377.248c-.315.049-1.455.049-1.257-.793a2.148,2.148,0,0,1,1.865-1.636,9.549,9.549,0,0,0,1.527-.4,11.7,11.7,0,0,1,1.347-.446c.545,0,.682-.248,1.163-.347a9.583,9.583,0,0,0,1.367-.645,7.307,7.307,0,0,0,1.384-.694,6.263,6.263,0,0,1,1.37-.793c.516-.2.772-.644,1.388-.843a8.569,8.569,0,0,0,1.609-1.19,9.65,9.65,0,0,0,1.544-1.289,11.444,11.444,0,0,1,1.431-1.388c.4-.3.594-.843,1.316-1.487a6.959,6.959,0,0,0,1.186-1.537,18.036,18.036,0,0,1,1-1.586,4.764,4.764,0,0,0,.891-1.686,8.522,8.522,0,0,0,.71-1.735,13.372,13.372,0,0,1,.439-1.388c.087-.248.445-.843.273-1.339a5.623,5.623,0,0,1,.075-1.338,5.889,5.889,0,0,0-.126-1.19,1.379,1.379,0,0,0-.377-1.041c-.309-.248-.415-.794-.712-.794s-.234-.743-1.015-.5a7.161,7.161,0,0,1-1.435-.149,5.2,5.2,0,0,0-2.12.248c-.566.2-1.28.4-2.1.743-.883.4-1.288.843-2.087,1.141a9.314,9.314,0,0,0-1.958,1.338,8.228,8.228,0,0,1-1.408,1.041,14.252,14.252,0,0,1-1.422.942,1.733,1.733,0,0,1-1.668-.049c-.429-.05-.371-.5-.759-.942a2.213,2.213,0,0,1-.357-1.24,4.8,4.8,0,0,1,.191-1.388,5.056,5.056,0,0,1,1.048-2.132c.606-.594.585-1.239,1.474-1.933a2.951,2.951,0,0,0,.877-.942c.2-.3.688-.545,1.008-.892a3.983,3.983,0,0,1,1.058-.893,4.026,4.026,0,0,0,1.073-.793,2.829,2.829,0,0,1,1.072-.793,10.7,10.7,0,0,1,1.155-.744A7.125,7.125,0,0,0,497.867,77c.385-.248.551-.3,1.186-.694.551-.3.822-.644,1.3-.744a1.655,1.655,0,0,0,1.1-1.289c-.024-.5.1-.991-.506-1.239-.543-.149-.858-.942-1.068-1.19-.274-.347-.6-.843-.887-1.14a1.333,1.333,0,0,1-.013-1.934c.737-.545,1.455-.049,1.925.447a3.757,3.757,0,0,0,1.007.942c.49.3.715.644,1.013.644.942,0,1.229.595,2.086.694a14.974,14.974,0,0,0,2.107.5c.545,0,1.068.347,1.712.347a3.761,3.761,0,0,1,1.313.5,3.079,3.079,0,0,1,.811.793,1.417,1.417,0,0,1-.039,1.239A5.349,5.349,0,0,1,510.083,75.959Zm-4.046-54.593c-.647.149-1.114.347-1.545.446s-.72.5-1.2.447c-.627-.05-1.583.694-2.1.892-.714.2-1.321.793-1.933.843-.828.1-1.268.644-1.883.843-.831.247-1.134.545-1.816.793-.35.148-.916.347-1.7.743-.717.347-.968.5-1.717.794a8.492,8.492,0,0,0-1.116.5,5.825,5.825,0,0,0-1.2.744,4.535,4.535,0,0,0-1.282,1.388,4.122,4.122,0,0,0-.474,1.487c-.227.645-.387,1.24-.474,1.488-.192.545-.576,1.636-.684,2.082-.178.644-.588,1.388-.885,2.231a2.3,2.3,0,0,1-1.063,1.19,1.85,1.85,0,0,1-1.513.5c-1.041,0-.881-.595-.734-1.438a6.694,6.694,0,0,1,.472-1.339c.087-.248.346-.843.521-1.338l.576-1.636c.125-.5-.217-.794-.41-1.091-.24-.446-1.068-.347-1.7.05-.318.2-.65.3-1.152.594-.385.248-.667.347-1.169.645a3.609,3.609,0,0,0-1.256.892,5.018,5.018,0,0,1-1.16,1.041,3.683,3.683,0,0,0-.915,1.19,5.213,5.213,0,0,0-.638,1.388,4.06,4.06,0,0,0-.069,1.884c.222.5.566.645,1.253,1.091a7.6,7.6,0,0,0,1.84.545,14.677,14.677,0,0,1,2.03.149,5.2,5.2,0,0,0,1.785,0c.464-.05,1.2.1,1.834,0a5.8,5.8,0,0,1,1.869-.1,4.194,4.194,0,0,0,1.9-.2c.913-.2,1.476-.248,2.356-.5a5.346,5.346,0,0,1,2.222-.4,8.6,8.6,0,0,1,1.992.4,1.4,1.4,0,0,1,.78,1.586,2.368,2.368,0,0,1-1.716,1.636,4.852,4.852,0,0,0-1.475.248,2.223,2.223,0,0,1-1.441.149,6.5,6.5,0,0,0-2.8.2c-.875-.049-1.77.1-2.811.1a16.582,16.582,0,0,1-2.727,0,7.325,7.325,0,0,0-2.082,0,3.6,3.6,0,0,1-2.03-.148c-.49-.3-1.3-.1-1.96-.347a6.667,6.667,0,0,1-1.689-.694c-.278-.2-.934-.447-1.156-.942a14.666,14.666,0,0,0-.736-1.289,3.542,3.542,0,0,1-.2-1.537,11.473,11.473,0,0,1,.38-1.785,2.674,2.674,0,0,1,.842-1.686,9.581,9.581,0,0,1,1.319-1.636,18.743,18.743,0,0,1,1.615-1.487,6.9,6.9,0,0,0,1.877-1.388,8.113,8.113,0,0,1,1.973-1.239,12.458,12.458,0,0,1,1.988-1.141l1.819-.942a3.069,3.069,0,0,0,1.122-.793,5.95,5.95,0,0,0,1.177-1.933,4.638,4.638,0,0,0,.465-1.884,1.9,1.9,0,0,0-.139-1.438c-.306-.4-.735-.446-1.3-.545a11.718,11.718,0,0,0-2.52.4c-.594,0-.967.5-1.215.5a2.192,2.192,0,0,0-1.2.595,4.359,4.359,0,0,1-1.2.744c-.233.1-.554.446-1.122.793-.385.248-.758.743-1.107.892a7.452,7.452,0,0,0-1.107.893c-.37.347-.889.694-1.361,1.189a13.2,13.2,0,0,1-1.83,1.537,4.556,4.556,0,0,1-2.064.793c-.546,0-.758-.1-.884-.446-.158-.4-.418-.644-.062-1.09a5.483,5.483,0,0,1,1.086-1.537c.236-.248,1.239-.843,1.51-1.19.524-.645,1.373-.942,1.778-1.388.454-.446,1.072-.793,1.661-1.339s1.294-1.14,1.579-1.388c.236-.248,1.194-1.14,1.463-1.339.335-.247.793-.842,1.55-1.586a4.506,4.506,0,0,0,.944-.991c.373-.5.79-.695,1.18-1.24.2-.3.264-.892-.246-.991a15.007,15.007,0,0,0-1.978-.3l-1.9.05a10.28,10.28,0,0,1-1.764-.2c-.613.05-.934-.446-1.459-.644a3.716,3.716,0,0,1-1.383-1.14,1.361,1.361,0,0,1-.031-1.884c.74-.694.963-.2,1.409-.2.4,0,.549.694,1.089.992.584.595,1.418.2,1.71.5.178.2,1.19,0,1.651.1a8.9,8.9,0,0,0,1.654-.05,5.222,5.222,0,0,0,1.706-.2c.679-.1,1.027-.1,1.723-.248a4.823,4.823,0,0,0,1.528-.4,2.019,2.019,0,0,0,1.128-1.09,12.106,12.106,0,0,1,.949-1.289,4.955,4.955,0,0,0,.886-1.388,8.192,8.192,0,0,1,.62-1.339c.492-.694-.243-1.14-.718-1.338-.394-.149-1.785,0-1.992-.4s.34-1.388,1.451-1.587a9.409,9.409,0,0,1,1.572-.1c.347,0,.458.248,1.234.3a2.766,2.766,0,0,1,1.523.743c.341.3.934.447,1.138.992s.368.644.292,1.14c-.058.446-.723.645-1.046,1.14a7.866,7.866,0,0,1-.941.843,5.945,5.945,0,0,0-1.233,1.388c-.04.4.039.595.683.595a15.65,15.65,0,0,1,1.744-.446,8.713,8.713,0,0,0,2.28-.843,7.445,7.445,0,0,1,2.408-.644,2.386,2.386,0,0,1,1.018.347.848.848,0,0,1,.246.991A2.345,2.345,0,0,1,499.175,11c-.367.2-.819.5-1.37.793a7.655,7.655,0,0,1-1.513.5,4.073,4.073,0,0,1-1.312.347,4.452,4.452,0,0,0-1.627.4,6.123,6.123,0,0,1-2.224.546,14.924,14.924,0,0,1-2.123.4c-.682.248-.772.645-1.239.843s-.554.446-1.026.942l-.961,1.041c-.32.347-.927.942-1.046,1.14-.425.645-.349.992-.188,1.24.242.3,1.021.2,2.508.2.743,0,.951.4,1.508.645s.712.793,1,1.09a2.292,2.292,0,0,1,.552,1.388,10.248,10.248,0,0,1,.016,1.785c-.032.793.526,1.041.943.843a6.359,6.359,0,0,1,1.466-.645,3.6,3.6,0,0,0,1.367-.644c.4-.3.647-.149,1.251-.595a2.594,2.594,0,0,1,1.134-.545c.531-.1,1.37-.793,2.236-1.141a3.543,3.543,0,0,0,1.133-.545,2.682,2.682,0,0,1,1.152-.595,1.647,1.647,0,0,0,1.294-1.14c.23-.793-.15-.843-.809-.942-.28-.05-.8-.248-.6-.694.361-.744,1.075-.942,1.921-1.091a4.287,4.287,0,0,1,2.211.2c.408.247.776.049.966.5.076.347.832.595,1.059.794.458.247.768.5.724,1.041a3.819,3.819,0,0,0,.094,1.14C507.684,20.771,506.618,21.267,506.037,21.366ZM465.8,97.922c-.2.992-.526,1.636-.6,2.281a14.546,14.546,0,0,1-.917,2.181c-.428.794-.833,1.24-1.211,2.033a14.128,14.128,0,0,1-1.439,1.834,12.985,12.985,0,0,1-1.682,1.537,8.574,8.574,0,0,1-1.859,1.339,15.465,15.465,0,0,1-2.035.991,9.49,9.49,0,0,1-2.21.645,12.081,12.081,0,0,1-2.3.2c-.744,0-1.2-.1-1.8-.1-.694,0-1.118-.347-1.613-.347a1.449,1.449,0,0,1-1.377-.595c-.257-.4-.686-.446-1.074-.892a2.747,2.747,0,0,1-.707-1.091c-.138-.595-.3-.992-.354-1.388a7.688,7.688,0,0,1,.031-1.636,4.974,4.974,0,0,1,.482-1.934c.172-.347.466-1.041.641-1.537s.5-1.14.658-1.586c.21-.595.422-1.339.083-1.785-.289-.446-.243-1.14-.8-1.239-.3,0-.7-.546-.995-.694-.408-.248-.887-.3-1.045-.694-.173-.5-.569-.5-.6-.843.026-.5-.155-.546-.394-.992a1.357,1.357,0,0,1-.027-1.19,4.484,4.484,0,0,0,.29-1.388A3.077,3.077,0,0,1,444.1,89c.286-.248.323-.5.845-.992.42-.347.56-.744.927-.942a4.727,4.727,0,0,0,1.731-1.537c.274-.5.775-.793.722-1.487-.041-.446-.01-1.239-.453-1.388-.574-.2-.7-.694-1.086-1.14-.306-.4-.251-.694-.578-.893-.376-.2-.234-.743-.59-1.14-.3-.545-.661-1.785.357-2.281.769-.5,1.091,0,1.243.695a3.226,3.226,0,0,0,.771,1.189c.359.248.368.645.8.694.84.149.992.843,1.666,1.042a5.773,5.773,0,0,1,1.692.545,6.913,6.913,0,0,1,.867.5c.309.248.292.3.683.595.554.4.561.942.284,1.586-.329.793-.763,1.041-1.029,1.091a4.352,4.352,0,0,1-.944.148,10.849,10.849,0,0,0-1.446.447,3.508,3.508,0,0,0-1.5.892c-.37.347-.869.5-1.189.843a2.859,2.859,0,0,1-1.125.942c-.466.2-.554.446-.961,1.041a2.949,2.949,0,0,0-.6,1.14c.091.446-.109,1.438-.048,1.686.123.5.695.842,1.054,1.09a11.063,11.063,0,0,0,1.558.645c.295.149.726.049,1.347-.446a2.544,2.544,0,0,0,.982-1.24c.428-.793.774-1.636,1.132-2.231a13.586,13.586,0,0,0,1.168-2.33c.259-.595.751-1.289,1.15-2.28a14.728,14.728,0,0,0,1.1-2.281,19.668,19.668,0,0,1,1.135-2.379,21.863,21.863,0,0,1,1.132-2.231c.393-.694.754-1.438,1.182-2.231.274-.5.509-1.587.91-2.727a3.347,3.347,0,0,0,.3-1.14c-.03-.2-.088-.595-.164-.942-.155-.546-.455-.4-.764-.645-.2-.149-1.021-.2-1.016-.5-.024-.5.5-.991.964-1.189a2.523,2.523,0,0,1,1.6-.05,3.617,3.617,0,0,0,1.362.5c.347,0,.239.446.7.545.51.1.356.4.715.645.441.3.66.942,1.048,1.388a1.267,1.267,0,0,1,.191,1.289c-.081.793-.53.942-1.034,1.388a4.775,4.775,0,0,0-1.2,1.438c-.27.347-.631,1.09-1.089,1.685a7.952,7.952,0,0,0-.856,1.587,11.645,11.645,0,0,0-.617,1.19c-.5.991-.972,1.636-1.351,2.429a9.752,9.752,0,0,0-1.319,2.479c-.262.743-.99,1.685-1.267,2.33-.449.991-.806,1.586-1.234,2.379a10.138,10.138,0,0,0-1.27,2.479,4.7,4.7,0,0,0-.109,1.438c.2.545.231.892.794.843a4.842,4.842,0,0,1,2.147.1l1.181.446c.2.149.321.5.311,1.091-.023.347-.411.743-.947,1.14a2.277,2.277,0,0,1-1.33.4c-.793,0-1.782-.149-2.494-.1a3.274,3.274,0,0,0-1.814.645c-.5.3-1.341.991-1.465,1.487-.25.992-1.013,2.033-1.025,2.628-.081.793-.365,1.884-.441,2.379a2.943,2.943,0,0,0,.546,1.686,3.372,3.372,0,0,0,1.334,1.14,4.768,4.768,0,0,0,2.208.347,6,6,0,0,0,1.755-.2,5,5,0,0,0,1.581-.545,12.437,12.437,0,0,0,1.536-.843,7.2,7.2,0,0,0,1.376-1.091c.355-.446.786-.545,1.246-1.289a5.318,5.318,0,0,0,1.052-1.437c.157-.447.7-1.141.888-1.537a11.087,11.087,0,0,0,.658-1.587,18.875,18.875,0,0,0,.532-1.933,15.182,15.182,0,0,0,.249-1.835,15.353,15.353,0,0,1-.066-1.784,5.2,5.2,0,0,0-.267-1.636c-.175-.347-.26-1.091-.465-1.636-.111-.248-.362-.942-.648-1.537-.176-.347-.356-.4-.514-.794a3.283,3.283,0,0,0-.628-.892c-.552-.545-.739-1.14-.033-1.735.285-.248,1.233-.545,1.6.1a3.267,3.267,0,0,0,.908.942,2.588,2.588,0,0,1,.949,1.388.883.883,0,0,0,.546.843c.344.149.319.644.645.843.344.149.236.595.3.843s.354.545.4.842c.061.248.123.5.216.794.176.347.1.694.264.942a3.293,3.293,0,0,1,.244,1.983C465.773,96.584,465.872,97.427,465.8,97.922Zm-5.808-81.861a2.337,2.337,0,0,1-1.307.05c-.577-.05-.654-.4-1.217-.347-.364.05-.624-.2-1.169-.2a6.4,6.4,0,0,0-2.382.148,5.179,5.179,0,0,1-2.3.05,10.882,10.882,0,0,0-2.248.05c-.6,0-1.522.1-2.2.049a16.535,16.535,0,0,1-2.231,0c-.461-.1-1.047.3-1.536.843a6.2,6.2,0,0,0-1.238,1.686l-.524,1.487-.523,1.487c-.242.546-.419,1.19-.524,1.487l-.541,1.537a1.776,1.776,0,0,0,.019,1.636c.2.546.412.942.876.893a8.041,8.041,0,0,1,2.181,0c.494.148,1.324-.1,2.083,0a4.235,4.235,0,0,0,1.933,0,7.908,7.908,0,0,0,1.845-1.438,4.678,4.678,0,0,1,1.845-1.438,1.26,1.26,0,0,1,1.622.744,2.078,2.078,0,0,0,.662.793c.2.149.354.546.745.843a1.414,1.414,0,0,1,.244,1.983c-.874.793-2.023.4-2.469.4a12.594,12.594,0,0,1-1.934,0l-1.9.049a8.4,8.4,0,0,0-1.934,0,13.227,13.227,0,0,0-1.983,0c-.63.1-1.618-.049-1.983,0a5.5,5.5,0,0,0-1.245.3c-.531.1-.755.595-1.352.743-.5.149-.656.595-1.175.942a1.418,1.418,0,0,0-.714,1.041,12.579,12.579,0,0,1-.628,1.785c-.125.5-.436,1.24-.611,1.735l-.628,1.785a12.87,12.87,0,0,0-.628,1.785c-.058.446-.144,1.537.294,1.983.421.5.771,1.19,1.518,1.041.665-.2,1.056.1,1.636,0a9.335,9.335,0,0,1,1.685,0,3.39,3.39,0,0,0,1.587,0,2.154,2.154,0,0,1,1.586,0,3.14,3.14,0,0,0,1.537,0c.266-.05.805.248,1.488,0,.349-.149.452-.3,1.04-.843a7.985,7.985,0,0,1,1.04-.843c.569-.347.65-.3,1.023-.793a2.067,2.067,0,0,1,1.073-.793,2.006,2.006,0,0,1,1.687.843c.406.4.554.4.777.892.128.2.441.3.744.843.353.545.666.644.989.991.178.2.173.5-.084.942a1.448,1.448,0,0,1-1.373.942,10.262,10.262,0,0,1-1.539.149c-.33-.049-.758-.1-1.418-.2a12.281,12.281,0,0,0-1.435-.149,24.933,24.933,0,0,1-2.645.05c-1.023-.05-1.313-.5-2.357-.347a11.886,11.886,0,0,1-2.645.049,23.272,23.272,0,0,0-2.6.05,24.356,24.356,0,0,1-2.6.049c-.676-.049-1.685,0-2.578,0a20.727,20.727,0,0,0-2.6.05,8.592,8.592,0,0,1-2.529,0c-1.023-.05-1.7.049-2.528,0a11.217,11.217,0,0,1-2.546.049,21.534,21.534,0,0,0-2.529,0c-.959.05-1.487,0-2.478,0h-5.008c-.644,0-1.84.3-2.65.348a7.153,7.153,0,0,1-2.508-.2c-.837-.3-.864-.644-.689-1.14.14-.4.527-.793,1.492-1.14a6.913,6.913,0,0,1,2.63-.149,20.732,20.732,0,0,1,2.406.347,9.132,9.132,0,0,1,2.033,0,14.583,14.583,0,0,1,2.082,0,7.187,7.187,0,0,0,2.083,0,13.769,13.769,0,0,1,2.032,0,14.6,14.6,0,0,0,2.082,0,7.241,7.241,0,0,1,2.083,0,16.026,16.026,0,0,1,2.181,0c.213.1.831-.248,1.556-1.041a5.2,5.2,0,0,0,1.293-1.983l.628-1.785.628-1.785a8.061,8.061,0,0,1,.611-1.735,5.089,5.089,0,0,0,.628-1.785,6.413,6.413,0,0,0-.046-1.983c-.17-.644-.509-1.09-1.121-1.041a24.121,24.121,0,0,0-2.678,0,10.366,10.366,0,0,1-2.478,0,7.137,7.137,0,0,0-2.529,0,19.958,19.958,0,0,1-2.6.347c-1.09,0-2.1.2-2.557-.2a1.062,1.062,0,0,1-.509-1.091,2.6,2.6,0,0,1,1.312-1.19,6.347,6.347,0,0,1,2.68-.148,21.329,21.329,0,0,1,2.357.347,7.238,7.238,0,0,0,2.529,0,10.291,10.291,0,0,1,2.478,0,23.985,23.985,0,0,1,2.678,0,2.252,2.252,0,0,0,1.8-.893,8.125,8.125,0,0,0,1.319-1.636,3.816,3.816,0,0,1,.542-1.537,8.863,8.863,0,0,0,.523-1.487l.524-1.487a5.9,5.9,0,0,0,.523-1.487,2.611,2.611,0,0,0-.348-1.686c-.435-.595-.873-1.041-1.488-.843a3.428,3.428,0,0,1-1.586,0,4.148,4.148,0,0,0-1.587,0c-.679.1-1.073-.049-1.933,0h-1.934a2.335,2.335,0,0,0-1.644.446,5.918,5.918,0,0,0-1.338.843c-.422.5-.839.694-1,1.289-.157.446-.39.545-.982,1.24-.525.644-1.267,1.487-1.623,1.933-.542.694-1.267,1.487-1.506,1.884a12.019,12.019,0,0,1-1.59,1.983c-.676.793-1.148,1.289-1.606,1.884a3.575,3.575,0,0,1-1.113,1.19,6.63,6.63,0,0,0-1.244,1.14,3.122,3.122,0,0,1-2.088,1.14c-.627-.049-1.333-.3-.6-1.388.442-.694,1.294-1.14,1.652-1.735a13.734,13.734,0,0,1,1.573-1.934c.437-.4.795-.991,1.418-1.636a12.34,12.34,0,0,0,1.2-1.437c.154-.3.9-1.141,1.119-1.488.137-.247.778-.942,1.1-1.437a11.139,11.139,0,0,0,1.02-1.488,6.02,6.02,0,0,1,.987-1.536c.425-.645.562-.893.938-1.537a13.257,13.257,0,0,0,.955-1.587c.241-.545.647-.991.938-1.537.376-.644.53-.942.888-1.537.256-.446.681-1.09.889-1.536.343-.694.716-1.19.856-1.587.2-.694.159-1.438.891-1.685.5-.149,1.2.247,1.546.4a14.148,14.148,0,0,0,1.872.595c.362.1.438.446.949.545.329.05.306.4.167.794-.192.545-.439.545-1.174.942-.3.148-1.076.1-1.513.5-.5.447-.5,1.141-.893,1.835a1.625,1.625,0,0,0-.048,1.685c.3.546.593.992,1.47.893a18.8,18.8,0,0,1,2.38,0,3.2,3.2,0,0,0,1.537,0c.367-.2,1.106.1,1.487,0a7.946,7.946,0,0,0,1.913-.645A2.647,2.647,0,0,0,440.746,12c.157-.446.456-1.438.8-2.28.277-.645.542-1.537.7-1.983a15.744,15.744,0,0,1,.7-1.983c.326-.645.407-1.438.648-1.983.174-.5.06-1.438.5-2.132a1.542,1.542,0,0,1,1.384-.694,6.505,6.505,0,0,1,1.812.347,6.655,6.655,0,0,1,1.631.3,1.506,1.506,0,0,1,.876.893c.018.793-.938.694-1.693,1.289A4.723,4.723,0,0,0,446.631,5.7a11.111,11.111,0,0,0-.593,1.686c-.041.4-.381.942-.576,1.636-.317,1.041-.593,1.685-.943,2.677-.055.3-.3,1.14.238,1.437.522.348.394.992,1.208.794a23.221,23.221,0,0,1,2.627,0,21.474,21.474,0,0,1,2.529,0c.659.1,1.709.5,2.379,0,.4-.3.539-.546,1.058-.893.586-.4.69-.694,1.107-.892a1.861,1.861,0,0,0,1.09-.843c.221-.347.445-.843,1.09-.843.776.05.511.942,1.086,1.141.426.2.517.644.695.842a3.438,3.438,0,0,0,.712.794c.537.446.581.743,1.007.942.327.2.123.5-.1.991C460.785,15.913,460.405,15.863,459.989,16.061ZM404.656,73.034a4.955,4.955,0,0,0-.737,1.388c-.041.4-.521,1.339-.7,1.983a6.034,6.034,0,0,0-.681,1.934c-.125.5-.384,1.09-.559,1.586-.194.694-.349.992-.559,1.587a2.075,2.075,0,0,0-.016,1.735c.16.248.4.843.907.942.741.148,1.77-.1,2.182,0a10.707,10.707,0,0,0,2.181,0A1.723,1.723,0,0,0,408.2,83.4a6.028,6.028,0,0,0,1.119-1.488,14.865,14.865,0,0,0,.96-2.726c.265-.893.594-1.686.908-2.578a10.31,10.31,0,0,0,.89-2.529,8.413,8.413,0,0,1,.628-1.785,6.345,6.345,0,0,1,.628-1.784c.338-.4.352-1.141.6-1.835s.194-1.537.582-1.933c.321-.347.6,0,1.274-.1l1.738-.149a2.145,2.145,0,0,1,1.563.347,1.368,1.368,0,0,1,.6,1.388c-.087,1.091-1.574,1.091-1.711,1.339a3.36,3.36,0,0,1-.909.892,2.614,2.614,0,0,0-.719,1.339c-.174.5-.608,1.586-.664,1.884a1.044,1.044,0,0,0,.328,1.041,1.544,1.544,0,0,0,1.2.545c.545,0,1.951-.05,2.478,0,.645,0,1.321.05,2.38,0a5.814,5.814,0,0,0,2.281,0,8.954,8.954,0,0,0,1.929-1.537l1.023-.793c.5-.3.577-.793,1.006-.744.577.05.61.942.957.942.4,0,.356.4.685.446.362.1.733.595,1,.694.511.1.587.447.709.942A1.581,1.581,0,0,1,431.4,76.5c-.614,1.041-1.387.843-2.329.843-1.059.05-1.727-.446-2.322-.446a19.931,19.931,0,0,0-2.234.149c-.793,0-1.374.1-2.15.049a7.31,7.31,0,0,0-2.05.05,9.7,9.7,0,0,1-2.05.049,7.3,7.3,0,0,1-2.082,0c-.213-.1-1.038.695-1.542,1.141a4.171,4.171,0,0,0-1.363,2.181c-.131.793-.553,1.289-.7,1.983a.947.947,0,0,0,.541,1.14,14.561,14.561,0,0,0,1.642.546,3.439,3.439,0,0,0,1.587,0c.749-.3,1.172.049,1.636,0a4,4,0,0,1,1.537,0c.627.049.892,0,1.536,0h1.488a5,5,0,0,0,1.487,0,2.982,2.982,0,0,0,1.107-.893,3.231,3.231,0,0,1,1.107-.892,4.855,4.855,0,0,0,1.157-.892c.437-.4.577-.794,1.14-.843.613-.05.835.446,1.086,1.14.126.347.665.645.727.892.106.546.418.645.777.893.636.446.732.595.826.892.126.347.024.5-.133.942-.262.744-1.073.793-1.391.992-.5.3-.843,0-1.406.049a4.146,4.146,0,0,1-1.3-.4,2.539,2.539,0,0,0-1.2-.248c-.977.1-1.621.1-2.531.148l-2.5.05c-.991,0-1.721.1-2.4.05a7.592,7.592,0,0,0-2.38,0,8.118,8.118,0,0,1-2.694.049c-.447,0-.764.2-1.476.248a3.65,3.65,0,0,0-1.4.595c-.417.2-.923,1.636-1.138,2.528a12.793,12.793,0,0,1-.628,1.785,8.511,8.511,0,0,1-.628,1.785,10.851,10.851,0,0,0-.963,2.875,5.49,5.49,0,0,0-.407,1.438,14.959,14.959,0,0,1-.456,1.438,9.314,9.314,0,0,1-1.3,2.28,3.522,3.522,0,0,1-1.745,1.438l-1.948.744c-.481.1-1.694.446-1.854.2-.275-.347.036-1.091-.491-1.14a3.63,3.63,0,0,1-1.345-.546,2.765,2.765,0,0,0-1.214-.5c-.528-.05-.505-.4-.063-1.091a2.358,2.358,0,0,1,2.335-1.14,12.107,12.107,0,0,0,2.54.248c1.126-.1,1.563-.5,1.676-1.24.142-.545.419-1.19.523-1.487.14-.4.346-.843.524-1.487a9.507,9.507,0,0,1,.541-1.537,6.254,6.254,0,0,0,.542-1.537,9.792,9.792,0,0,1,.559-1.587,9.853,9.853,0,0,1,.559-1.586,1.983,1.983,0,0,0,0-1.834c-.222-.5-.511-.942-.926-.893-.531.1-1.6-.1-2.231,0a6.092,6.092,0,0,1-2.131,0,7.612,7.612,0,0,0-2.132,0,14.68,14.68,0,0,0-2.114-.049,16.939,16.939,0,0,1-2.2.049,10.2,10.2,0,0,1-2.132,0c-.755-.248-1.473.1-2.132,0-.51-.1-.746.149-1.291.149a4.065,4.065,0,0,0-1.359.2c-.825-.049-1.9.2-2.608-.2-.487-.446-1.03-.6-.689-1.14a2.691,2.691,0,0,1,1.493-1.141,5.842,5.842,0,0,1,2.729-.148,14.743,14.743,0,0,1,2.406.347,14.174,14.174,0,0,0,1.488,0,14.858,14.858,0,0,0,1.487,0,4.647,4.647,0,0,0,1.913-.645,3.107,3.107,0,0,0,1.346-1.289,20.666,20.666,0,0,1,.8-2.28,19.033,19.033,0,0,0,.768-2.182,18.283,18.283,0,0,0,.751-2.131c.072-.347.279-.794.541-1.537l.524-1.488a15.687,15.687,0,0,0,.509-1.586,2.147,2.147,0,0,1,.477-1.636c.37-.347.825.05,1.274-.1s1.33-.4,1.738-.149c.327.2,1.219.2,1.564.347.426.2.464.793.552,1.388.1.694-1.172.793-1.725,1.24A2.366,2.366,0,0,0,404.656,73.034Zm-6.677-30.646c-.4.3-.8.3-1.434.694-.586.4-.965.347-1.286.694a2.43,2.43,0,0,1-1.157.892c-.848.3-.96-.793-1.25-1.239-.275-.347-.648-.694-1.083-1.289-.272-.5-.809-.942-1.048-1.388l-.949-1.389a3.911,3.911,0,0,1-.815-1.487c-.255-.545-.512-.942-.748-1.537A5.3,5.3,0,0,0,387.5,34.7c-.424-.347-.328-1.041-.565-1.636-.193-.3-.137-.595-.339-1.289a2.248,2.248,0,0,1-.34-1.289c.023-.347-.3-.694-.24-1.289a2.8,2.8,0,0,0-.173-1.338,13.1,13.1,0,0,1-.124-1.339c-.094-.3-.062-1.091-.123-1.338a8.168,8.168,0,0,1-.007-1.389,13.765,13.765,0,0,1,.043-1.388,14.036,14.036,0,0,0,.06-1.437,4.956,4.956,0,0,1,.109-1.438c.128-.645.055-1.14.162-1.587a8.675,8.675,0,0,0,.2-1.685c.037-1.091.346-1.686-.2-1.686-.447,0-.772.645-1.087,1.537A11.117,11.117,0,0,1,384,17.747a3.646,3.646,0,0,0-.871,1.487,2.29,2.29,0,0,1-.868,1.339,4.874,4.874,0,0,0-.818,1.339,6.747,6.747,0,0,0-.9,1.288,5.535,5.535,0,0,1-.9,1.289c-.405.447-.512.893-.932,1.24a4.335,4.335,0,0,0-.915,1.19,6.19,6.19,0,0,1-.965,1.19,7.217,7.217,0,0,0-1.014,1.189,8.494,8.494,0,0,1-1.046,1.141c-.472.5-.658.743-1.028,1.09a10.2,10.2,0,0,1-1.145,1.141,9.861,9.861,0,0,0-1.11,1.041l-1.16,1.041a10.613,10.613,0,0,0-1.143.991,4.692,4.692,0,0,1-1.274.942,10.42,10.42,0,0,0-1.242.992,8.781,8.781,0,0,0-1.224.942c-.422.5-.935.545-1.273.942a1.94,1.94,0,0,1-1.323.942,4.473,4.473,0,0,0-1.355.892c-.5.3-.8.595-1.373.942-.636.4-1.02.645-1.454.892a20.282,20.282,0,0,0-1.755,1.042,10.21,10.21,0,0,1-1.985.991c-.665.2-1.3.744-1.729.545-.642-.148-.662.05-.919-.347-.207-.4.352-1.14,1.34-1.834l1.44-.992a9.763,9.763,0,0,1,1.338-.842c.8-.447,1.72-.942,2.189-1.289a3.28,3.28,0,0,0,1.037-.694,8.392,8.392,0,0,1,1.087-.694,9.965,9.965,0,0,0,2.043-1.438,5.915,5.915,0,0,1,1.005-.744c.435-.248.5-.446.956-.743a10.268,10.268,0,0,0,1.023-.794,3.31,3.31,0,0,0,.941-.842,12.648,12.648,0,0,1,1.851-1.736,9.207,9.207,0,0,0,1.751-1.735c.408-.595.976-.942,1.6-1.735a15.96,15.96,0,0,0,1.521-1.785c.356-.446.813-1.041,1.422-1.785.271-.347.731-1.09,1.34-1.834A16.5,16.5,0,0,0,377.4,22.11c.425-.645.87-1.487,1.208-1.884s.737-1.388,1.127-1.934c.475-.644.737-1.388,1.077-1.933.306-.446.568-1.19,1.011-1.884a14.387,14.387,0,0,0,.946-1.983,6.519,6.519,0,0,1,.9-1.983,6.631,6.631,0,0,0,.9-1.983,14.886,14.886,0,0,0,.8-1.983c.073-.347.483-1.091.8-1.983.21-.595.115-1.735.917-2.182a1.982,1.982,0,0,1,1.747.248c.294.149,1.286.149,2.24.4.575.2.934.446,1.214.5-.217.049.625.2.4.694-.088.248-.772.644-1.411,1.19a4.639,4.639,0,0,0-1.576,2.082c-.113.743-.427,1.636-.456,2.28-.043.546-.238,1.24-.287,2.082a13.868,13.868,0,0,0-.287,2.083c.088.595-.171,1.19-.17,2.032A5.991,5.991,0,0,1,388.421,18a8.449,8.449,0,0,0,0,1.983c.038.595.022,1.487.112,1.934.219.644-.022,1.189.168,1.636a3.055,3.055,0,0,1,.252,1.536,3.75,3.75,0,0,0,.319,1.488c.239.446.176,1.19.387,1.437.339.447.2.992.453,1.389s.377,1.041.57,1.338a4.955,4.955,0,0,1,.587,1.289,9.113,9.113,0,0,0,.655,1.24,3.944,3.944,0,0,0,.721,1.189c.21.248.179,1.041.771,1.19a1.929,1.929,0,0,1,.9,1.091c.225.347.633.595.923,1.041.175.347.747.694.989.992.339.446.782.594,1.007.941.484.595.849.546,1.205.942s.951.4,1.22,1.042C399.851,42.14,398.381,42.09,397.978,42.388ZM354.686,78.835a4.357,4.357,0,0,1,1.379-.4,14.2,14.2,0,0,1,1.429-.4,5.822,5.822,0,0,0,1.411-.347c.732-.248.694,0,1.379-.4a4.809,4.809,0,0,1,1.362-.347,2.977,2.977,0,0,0,1.379-.4,1.861,1.861,0,0,1,1.429-.4,12.125,12.125,0,0,0,1.379-.4,4.259,4.259,0,0,0,1.429-.4c.732-.248,1.484-.694,2.148-.892a5.014,5.014,0,0,1,1.711-.5l1.47.05c.478.049,1.2.247,1.482.3a1.419,1.419,0,0,1,1.009.793,3.6,3.6,0,0,1,0,1.537c-.125.5-.859.892-1.209,1.041-.4.149-.691-.149-1.458.2-1,.446-1.423.1-2.3.2-.729.1-1.575.248-2.254.347-.729.1-1.843.446-2.289.446a8.938,8.938,0,0,0-2.376.694,4.658,4.658,0,0,1-1.248.446,3.736,3.736,0,0,0-1.215.5c-.534.248-.983.4-1.233.545a4.956,4.956,0,0,1-1.285.694c-.449.149-.839.695-1.186.695-.613.049-.8.594-1.2.743a3.252,3.252,0,0,0-1.14.843c-.353.3-.554.446-1.125.942a5.733,5.733,0,0,1-1.093.991,4.15,4.15,0,0,0-1.011,1.042,5.6,5.6,0,0,0-.979,1.09c-.292.546-.8.595-.9,1.141-.026.5-.323.5-.816,1.189a11.257,11.257,0,0,0-.667,1.19,14.635,14.635,0,0,0-1.1,2.429,10.531,10.531,0,0,0-.537,2.231c.07.645-.058,1.289,0,1.983a3.2,3.2,0,0,0,.529,1.736c.336.595.31,1.09.932,1.437a10.252,10.252,0,0,1,1.333,1.141c.424.347,1.1.4,1.686.842.473.347,1.036.3,1.908.5a9.86,9.86,0,0,1,2.112.2,4.606,4.606,0,0,0,1.437,0,4.3,4.3,0,0,1,1.441-.148,5.664,5.664,0,0,0,1.805-.2,1.859,1.859,0,0,1,1.707.645c.5.545.759.942.465,1.636a2.862,2.862,0,0,1-1.8,1.586,8.045,8.045,0,0,1-2.3.347c-.726-.049-1.753.05-2.511-.049-.61-.1-1.767-.05-2.409-.2a16.874,16.874,0,0,1-2.339-.4c-.458-.248-.586-.446-1.118-.347-.63.1-.671-.347-1.05-.4a5.357,5.357,0,0,1-1.57-.892c-.49-.3-1.042-.843-1.319-1.041-.324-.347-.727-.893-1-1.24a4.642,4.642,0,0,1-.751-1.388c-.158-.4-.308-1.239-.416-1.636a6.825,6.825,0,0,1-.133-1.735c.011-.595.153-1.14.234-1.933l.585-2.083a10.631,10.631,0,0,1,.952-2.28c.495-.843.839-1.537,1.263-2.182s1.229-1.239,1.491-1.983c.088-.247.388-.4.828-.942.2-.3.687-.545.926-.941a2.162,2.162,0,0,1,.909-.893,1.754,1.754,0,0,0,1.008-.892c.187-.248.586-.4,1.125-.942s.971-.645,1.358-1.041c.825-.794,1.239-.843,1.229-1.24-.012-.248-.575-.2-.907-.1s-.98.248-1.329.4c-.583.248-.881.248-1.181.4a12.4,12.4,0,0,1-2.061.645,8.714,8.714,0,0,1-2.012.644,9.606,9.606,0,0,0-2.012.645l-2.012.644c-.93.248-1.2.447-2.029.694a8.431,8.431,0,0,1-1.662.5c-.432.1-.834.4-1.149.446a17.493,17.493,0,0,0-2.146.744c-.647.149-.986-.3-1.363-.5a3.457,3.457,0,0,1-1.153-1.09,5.6,5.6,0,0,1-.783-1.438,3.187,3.187,0,0,1,.01-1.438c.8-1.438,1.308-1.884,1.5-1.735a2.711,2.711,0,0,1,.493.991c.19.447.219.645.7.695.875.049,1.284.3,2.091.4a3.9,3.9,0,0,0,1.724-.248c.782-.248,1.292-.148,1.708-.347a3.388,3.388,0,0,1,1.727-.4c.4,0,1.248-.447,1.761-.5s1.1-.446,1.362-.347c.443.149.8-.149,1.411-.347a9.462,9.462,0,0,1,1.379-.4,5.206,5.206,0,0,0,1.411-.347,7.545,7.545,0,0,1,1.361-.347l1.429-.4A3.958,3.958,0,0,0,354.686,78.835Zm-7.412-55.088a1.862,1.862,0,0,1-1.327.248,14.214,14.214,0,0,1-1.552-.1c-.3,0-.907-.1-1.5-.1-.447,0-1.342.149-1.9.2a7.132,7.132,0,0,0-2.044.595,15.613,15.613,0,0,0-1.749.743,16.718,16.718,0,0,0-1.851.893,16.837,16.837,0,0,1-1.939,1.14,10.913,10.913,0,0,0-1.824,1.239,9,9,0,0,0-1.728,1.388c-.39.546-1.294,1.141-1.532,1.537-.443.694-.927.942-1.2,1.587-.294.694-.53.942-.809,1.735a4.087,4.087,0,0,0-.4,1.834c-.081.794-.019,1.041.255,1.388a6.471,6.471,0,0,0,.774,1.042c.278.2.45.694,1.176.743a5.947,5.947,0,0,1,1.512.5,12.5,12.5,0,0,0,1.648.248,5.744,5.744,0,0,0,1.683.149,9.522,9.522,0,0,1,1.686,0c.644,0,1.222.049,1.884,0a3.65,3.65,0,0,0,1.922-.248,5.212,5.212,0,0,1,1.741-.3,3.457,3.457,0,0,1,1.992.4,1.309,1.309,0,0,1,.614,1.636,2.1,2.1,0,0,1-1.83,1.537,10.115,10.115,0,0,1-1.609.347,13.359,13.359,0,0,1-1.54.149c-.694,0-1.126.1-1.5.049a3.417,3.417,0,0,0-1.438,0,6.116,6.116,0,0,1-2.312-.049,20.631,20.631,0,0,0-2.342-.248,9.473,9.473,0,0,0-2.173-.447,3.414,3.414,0,0,1-1.969-.743,2.547,2.547,0,0,1-.733-.595c-.257-.4-.487-.446-.715-.645-.309-.248-.6-.4-.6-.694-.044-.3-.554-.4-.549-.694.04-.4-.106-.545-.246-.991a1.707,1.707,0,0,1-.062-1.091c.075-.5-.03-1.041.089-1.239.187-.248-.068-.794.291-1.389a15.208,15.208,0,0,0,1.016-2.181,18.01,18.01,0,0,1,1.328-2.082,2.9,2.9,0,0,1,.895-.992c.636-.4.5-.446.994-.991a10.318,10.318,0,0,0,1.008-.893l1.058-.892c.387-.4.8-.446,1.122-.793.455-.446.574-.645,1.122-.793a3.94,3.94,0,0,0,1.271-.794c.42-.347.647-.148,1.321-.793.37-.347.557-.595.411-.743-.275-.348-1.237-.149-2.331,0a9.181,9.181,0,0,0-2.2.743,4.092,4.092,0,0,1-1.213.347c-.863.2-1.067.5-1.463.5a3.225,3.225,0,0,0-1.717.793c-.653.446-1.178.248-1.321-.049-.187-.595.032-.794.856-1.587A7.74,7.74,0,0,1,327.7,23.3a3.13,3.13,0,0,0,1.236-.694,8.015,8.015,0,0,1,2.265-.942,13.013,13.013,0,0,0,2.146-.744c.484-.248,1.358-.2,2.091-.446a5.912,5.912,0,0,1,2.154-.347c.478.049,1.391-.149,2.035-.149.694,0,1.173.05,2.132,0a5.638,5.638,0,0,1,1.587,0,4.127,4.127,0,0,0,1.534.149,4.35,4.35,0,0,1,1.482.3l1.363.5a1.85,1.85,0,0,1,.63.744,1.642,1.642,0,0,1-.069,1.041A1.61,1.61,0,0,1,347.274,23.746ZM336.837,13.682a4.828,4.828,0,0,1-1.254.743,6.406,6.406,0,0,1-1.464.5c-.6.149-.782.248-1.163.347a7.4,7.4,0,0,0-1.429.4,2.821,2.821,0,0,1-1.379.4,2.775,2.775,0,0,0-1.312.348c-.469.347-.933.4-1.107.892-.1.3-.606.595-.909.892a11.35,11.35,0,0,0-1.369,1.636,3.8,3.8,0,0,1-.965,1.19,2.365,2.365,0,0,0-.932,1.24,2.368,2.368,0,0,1-.982,1.239c-.518.347-.644.843-.964,1.19-.525.644-.542.694-.915,1.19s-.673.644-.9,1.14a4.543,4.543,0,0,1-.915,1.19,8.8,8.8,0,0,0-.915,1.19c-.288.4-.676.793-1.15,1.437a11.119,11.119,0,0,0-1.168,1.488c-.393.694-.927.942-1.15,1.437-.207.446-.81.893-1.169,1.488-.492.694-.894.991-1.084,1.388a16.717,16.717,0,0,1-1.1,1.437,6.81,6.81,0,0,1-1.1,1.438c-.551.3-.83,1.091-1.183,1.388a15.26,15.26,0,0,1-1.312,1.19,3.073,3.073,0,0,1-1.546.446c-.878.1-1.359-.644-.864-1.487.288-.4.582-1.091.839-1.537.171-.347.961-1.041,1.115-1.338s.621-.5.979-1.091c.323-.5.574-.645.947-1.14a6.437,6.437,0,0,0,1-1.141c.154-.3.455-.446.929-1.09a12.947,12.947,0,0,0,.947-1.141,4.894,4.894,0,0,1,.947-1.14,2.6,2.6,0,0,0,1.014-1.19c.1-.3.7-.446.947-1.14.192-.545.591-.694.9-1.14.323-.5.74-.694.947-1.14a5.268,5.268,0,0,1,.947-1.141,13.358,13.358,0,0,1,.947-1.14,5.076,5.076,0,0,0,.964-1.19,7.46,7.46,0,0,0,.982-1.239,10.509,10.509,0,0,1,1.133-1.388c.521-.5.714-1.041,1.27-1.636.236-.248-.036-.744-.38-.893a3.937,3.937,0,0,0-2.044-.248,5.57,5.57,0,0,1-1.8.05c-.426-.2-1.073-.05-1.648-.248-.656-.248-.937-.3-1.275-.744-.275-.347-1.065-.5-1.316-1.189-.257-.4-.678-.893-.121-1.488.638-.545.534-.248,1.166-.5.283-.1.782.594,1.243.694l.817.5a7.235,7.235,0,0,0,1.9.248,3.35,3.35,0,0,0,1.7-.049,11.889,11.889,0,0,1,1.755-.2,12.365,12.365,0,0,1,1.773-.248,2.88,2.88,0,0,0,1.831-.694,4.083,4.083,0,0,0,1.128-1.09,19.126,19.126,0,0,0,1.372-1.785,9.648,9.648,0,0,1,1.174-1.785c.5-.446.5-.991.807-1.586.448-.992-.225-1.19-1.083-1.289a9.356,9.356,0,0,0-1.514-.347c-.6,0-.89-.149-.831-.595a1.589,1.589,0,0,1,1.515-1.487c.662-.05,1.476-.248,1.823-.248a5.327,5.327,0,0,1,1.63.3c.706.248,1.278.595,1.754.793.607.248.846.694,1.267,1.19.455.4.211,1.091.22,1.487,0,.695-.711.893-1.064,1.19a10.743,10.743,0,0,0-1.865,1.636c-.524.645-1.381,1.388-.978,1.934.289.446,1.478-.4,2.061-.645a4.439,4.439,0,0,1,1.5-.446,6.636,6.636,0,0,1,1.5.248c.51.1.82.347.675,1.041A2.16,2.16,0,0,1,336.837,13.682ZM308.475,91.031a4.972,4.972,0,0,0,1.408-1.041,11.082,11.082,0,0,1,1.571-.942,12,12,0,0,1,1.659-1.19c.7-.3.926-.942,1.577-1.239.6-.3.906-.744,1.49-.992.533-.247.892-.842,1.309-1.041.5-.3.871-.644,1.457-1.041a2.028,2.028,0,0,1,1.5-.743c.676.049.837.3.642.991-.212.744-1.014,1.19-1.369,1.636a24.087,24.087,0,0,1-2,1.587c-.7.595-1.474,1.09-1.845,1.437a12.5,12.5,0,0,1-1.845,1.438,12.9,12.9,0,0,1-1.894,1.438c-.7.3-.976.942-1.626,1.239a15,15,0,0,0-1.656,1.041,11.215,11.215,0,0,1-1.792,1.289,6.209,6.209,0,0,0-1.792,1.289,9.309,9.309,0,0,1-1.874,1.24c-.586.4-1.253.743-1.807,1.189a4.541,4.541,0,0,1-1.907,1.19c-.382.1-1.224.942-1.839,1.141-.767.347-1.571.942-1.871,1.09-.851.446-1.3.744-1.921,1.091a16.716,16.716,0,0,0-1.9,1.041c-.72.5-1.569.793-2.254,1.19-.9.595-1.752.892-2.2,1.19a6.056,6.056,0,0,0-1.425,1.09,2.527,2.527,0,0,1-1.55.744c-.6.149-.91.05-1.167-.347a2.188,2.188,0,0,0-.926-.892c-.408-.248-.315-.794-.707-1.091a1.742,1.742,0,0,1-.494-.992c-.012-.247-.467-.644-.555-1.239a1.042,1.042,0,0,1,.422-1.339c.5-.446,1.26-.2,1.882.149.213.1.467.645.765.645.644,0,.554.4.77.347a3.723,3.723,0,0,0,1.642-.3,13.359,13.359,0,0,0,1.632-.694c.283-.1,1.251-.595,1.6-.743a14,14,0,0,0,1.586-.843,9.024,9.024,0,0,1,1.586-.843,6.5,6.5,0,0,0,2.02-1.091c.487-.4,1.2-.595,1.97-1.09a16.34,16.34,0,0,1,1.971-1.091c.484-.248,1.186-.694,1.988-1.14.484-.248,1-.595,1.938-1.141a16.525,16.525,0,0,1,2.006-1.189,20.311,20.311,0,0,1,1.924-1.24C307.084,92.023,307.676,91.329,308.475,91.031Zm-7.332-10.015a5.949,5.949,0,0,1-1.171,1.636,2.881,2.881,0,0,1-1.749.744,1.62,1.62,0,0,1-1.374-.744,2.389,2.389,0,0,1-.267-1.636c.023-.347-.249-.843-.255-1.388a1.353,1.353,0,0,0-.506-1.24c-.356-.4-.831-.595-1.319-1.041-.356-.4-.867-.5-.491-1.14a2.218,2.218,0,0,1,1.152-.595,4.48,4.48,0,0,1,1.484.149c.394.148,1.036.3,1.593.545a2.406,2.406,0,0,1,1.31.645c.128.2.854.247.945.694.077.347.354.545.628.892a1.364,1.364,0,0,1,.243,1.14C301.227,80.075,301.248,80.719,301.143,81.017Zm-16.575,5.255c.216-.05.875.05,1.569.05a3.867,3.867,0,0,1,1.677.446c.444.148.77.347,1.377.595a8.684,8.684,0,0,1,.995.694,8.728,8.728,0,0,1,.678.892l.243,1.14a3.218,3.218,0,0,1-.273,1.339,3.479,3.479,0,0,1-1.051,1.438c-.7.446-.938.694-1.632.694a1.011,1.011,0,0,1-1.243-.694,6,6,0,0,1-.436-1.438,7.13,7.13,0,0,0-.372-1.339c-.21-.248-.4-.842-.622-1.19-.129-.2-.9-.545-1.4-.941-.522-.347-1-.4-.642-.992A1.356,1.356,0,0,1,284.568,86.272ZM297.5,30.39a7.766,7.766,0,0,1-1.062,2.033,2.445,2.445,0,0,1-1.906,1.19c-.531.1-1.219-.2-1.225-.744-.041-.446-.4-.694-.958-.942a6.455,6.455,0,0,0-1.776-.446c-.808-.1-1.088-.149-1.846-.248-.429-.05-1.718-.05-1.59-.694a1.243,1.243,0,0,1,1.376-1.091,9.024,9.024,0,0,1,2.316-.1,2.828,2.828,0,0,0,1.295-.3c.449-.149.974.049,1.332-.546a7.61,7.61,0,0,0,.731-1.933,7.3,7.3,0,0,0,.013-1.587c.058-.446-.313-.942-.386-1.437a2.833,2.833,0,0,0-.7-1.389c-.178-.2-.677-.892-.937-1.14-.438-.446-.5-.694-1.124-.892l-1.327-.595c-.493-.149-1.222-.05-1.417-.2-.228-.2-.878.1-1.49.148a2.387,2.387,0,0,0-1.531.546,11.544,11.544,0,0,1-1.519.793,11.8,11.8,0,0,0-1.489.991,10.673,10.673,0,0,1-1.443,1.141,4.528,4.528,0,0,0-1.378,1.239c-.273.5-1.026.942-1.262,1.19a15,15,0,0,1-1.145,1.14c-.219.2-.388.4-.859.892-.388.4-.758.744-.944.992a6.293,6.293,0,0,1-.979,1.091c-.487.4-.58.942-1,1.14a3.163,3.163,0,0,0-1,1.14,7.286,7.286,0,0,1-.93,1.091,7.386,7.386,0,0,0-1.375,1.933,14.928,14.928,0,0,1-.675,1.636c-.469,1.19-.144,1.537-.354,2.132a2.032,2.032,0,0,1-1.807,1.19,9.311,9.311,0,0,1-1.269-.2,4.039,4.039,0,0,1-.963-.645l-.811-.793a2.036,2.036,0,0,1-.546-.843c-.19-.446-.758-.1-.464-.793.125-.5-.356-.4-.38-.892a18.63,18.63,0,0,1-.41-1.934,17.973,17.973,0,0,0-.11-2.082A11.482,11.482,0,0,1,262.3,29.4c.075-.5.194-1.537.357-2.281a6.643,6.643,0,0,1,.555-2.28c.329-.794.322-1.339.619-2.182.209-.595.838-1.537.718-2.181a7.858,7.858,0,0,1,.506-1.438l.489-1.388a11.364,11.364,0,0,0,.593-1.686l.526-1.636a4.15,4.15,0,0,1,.206-1.289c.242-.545-.526-1.041-.6-1.388-.156-.545-.564-.793-.095-1.14a1.409,1.409,0,0,1,1.715.2c.146.149.336.595.78.744a1.752,1.752,0,0,1,.712.793c.239.446.526,1.041.815,1.487a1.786,1.786,0,0,1,0,1.537c-.425.645-.367,1.041-.7,1.438a3.53,3.53,0,0,0-.786,1.388,20.47,20.47,0,0,1-.9,1.983l-.748,1.983a20.021,20.021,0,0,0-.927,2.777c-.058.446-.267,1.041-.34,1.388a3.464,3.464,0,0,1-.308,1.437,11.929,11.929,0,0,0-.209,1.438,2.219,2.219,0,0,0-.075,1.339c.041.446.252.694.159,1.239-.075.5.266.793.293,1.14.021.645.144,1.141,1.459.645a3.029,3.029,0,0,0,1.294-1.14c.408-.595.819-.5,1.093-.992.154-.3.586-.4.994-.991l.944-.992a6.59,6.59,0,0,1,1.23-1.239c.353-.3.461-.744,1.23-1.24.317-.2.775-.793,1.279-1.239.2-.149.758-.744,1.262-1.19a14.95,14.95,0,0,1,1.329-1.24c.268-.2.624-.644,1.361-1.189A12.535,12.535,0,0,1,280.5,20.92c.484-.248.909-.892,1.408-1.041.746-.149,1.172-.793,1.889-1.14.449-.149.985-.546,1.933-.843.481-.1,1.163-.347,1.86-.5a14.778,14.778,0,0,1,1.936-.149,5.339,5.339,0,0,1,2.325.3c.245.149.676.049,1.067.347a8.82,8.82,0,0,0,.966.5c.164.1.642.148.882.594.078.2.738.3.8.695.076.347.353.545.712.793a1.555,1.555,0,0,1,.578.892,1.528,1.528,0,0,0,.493.992.974.974,0,0,1,.377,1.041c-.125.5.321.5.261,1.09s.167.794.143,1.141a4.939,4.939,0,0,0,.027,1.19c.239.446-.131.793-.122,1.189A9.378,9.378,0,0,1,297.5,30.39ZM265.063,84.438a2.578,2.578,0,0,0,1.03.595c.411.1.7.694.824,1.041.236.595.5.842.255,1.388-.259.595-.658.743-1.11,1.041a5.972,5.972,0,0,0-1.626,1.239,13.043,13.043,0,0,0-1.454,1.735,10.023,10.023,0,0,1-1.486,1.686,21.232,21.232,0,0,0-1.518,1.636c-.658.744-.926.942-1.567,1.636-.356.446-1.075.942-1.6,1.587a16.036,16.036,0,0,1-1.682,1.536c-.74.695-1.375,1.091-1.713,1.488a10.388,10.388,0,0,1-1.8,1.437,18.869,18.869,0,0,1-1.81,1.339c-.886.545-1.189.843-1.758,1.19l-1.74,1.14-1.772,1.091c-.5.3-1.37.793-1.822,1.09a18.252,18.252,0,0,1-1.769.942c-.8.447-1.169.645-1.819.942a16.7,16.7,0,0,1-2.064.794c-.647.148-1.612.5-1.957.347a.878.878,0,0,1-.289-1.289,2.776,2.776,0,0,1,1.323-.942c.618-.347.836-.546,1.37-.794.417-.2.752-.446,1.4-.743a9.173,9.173,0,0,0,1.384-.694c.318-.2.93-.248,1.285-.694a4.118,4.118,0,0,1,1.3-.744,5.527,5.527,0,0,0,1.321-.793c.586-.4,1.067-.5,1.271-.793a2.137,2.137,0,0,1,1.256-.893,3.019,3.019,0,0,0,1.256-.892,8.894,8.894,0,0,1,1.224-.942,3.171,3.171,0,0,0,1.143-.992c.407-.595.8-.446,1.192-.991.221-.347.685-.4,1.16-1.041a6.118,6.118,0,0,1,1.11-1.041,14.411,14.411,0,0,0,1.127-1.091,20.251,20.251,0,0,1,1.737-1.834,5.725,5.725,0,0,0,1.215-1.339c.457-.595.76-.892,1.25-1.438a10.276,10.276,0,0,1,1.2-1.437,9.031,9.031,0,0,0,1.067-1.339,6.49,6.49,0,0,0,1.226-1.933c.005-.3-.219-.645-.844-.843-.656-.248-.884-.446-.879-.744.026-.5.483-1.091,1.011-1.041.329.05.942,0,1.651.1A2.761,2.761,0,0,1,265.063,84.438ZM252.791,91.13a2.21,2.21,0,0,1-1.834.843c-.659-.1-1.021-.2-1.106-.942-.027-.347.206-1.289.2-1.834a8.031,8.031,0,0,1-.071-1.487c.131-.794-.144-1.141-.118-1.636-.027-.347-.371-.5-.543-.992s-.234-.744.369-1.19a1.619,1.619,0,0,1,1.146-.3c.644,0,.653.4,1.033.446.444.149.569.5.794.843.161.248.388.446.645.843.16.247.2.545.482.743.2.149.225.347.3.843a5.458,5.458,0,0,1-.238,2.082A4.474,4.474,0,0,1,252.791,91.13Zm-12.846-2.379c-.073-.5-.432-.744-.406-1.24a1.488,1.488,0,0,1,.351-1.14,1.735,1.735,0,0,1,2.281,0,6.524,6.524,0,0,1,.844.843c.356.4.586.446.762.793a1.77,1.77,0,0,1,.464.793c.044.3.274.347.3.843a3.506,3.506,0,0,1-.222,2.182,5.114,5.114,0,0,1-1.139,1.685c-.79.694-1.04.843-1.8.744-.56-.1-1.048-.546-.975-.893a8.544,8.544,0,0,0,.162-1.586c.116-.892.171-1.19-.051-1.686A4.489,4.489,0,0,1,239.945,88.751Zm12.575-71.9a3.948,3.948,0,0,0-1.308,1.884c-.157.446-.483,1.09-.643,1.685a7.542,7.542,0,0,1-.593,1.686,13.092,13.092,0,0,0-.94,2.528,24.514,24.514,0,0,1-.922,2.479l-.989,2.528a15.244,15.244,0,0,1-1.039,2.529,24.765,24.765,0,0,1-1.071,2.479c-.591.694-.523,1.487-1.188,2.528a8.47,8.47,0,0,1-1.01,1.884,8.025,8.025,0,0,0-1.209,1.884,7.371,7.371,0,0,1-1.471,1.785,10.954,10.954,0,0,1-1.812,1.487,10.752,10.752,0,0,1-1.437.843c-.283.1-.883.4-1.431.545a5.873,5.873,0,0,0-1.411.347c-.417.2-1.248.446-1.476.248-.292-.3-.161-1.091-.655-1.239-.428-.05-.817-.5-1.476-.595-.61-.1-1.006-.1-1.277-.595a1.2,1.2,0,0,1-.027-1.19,1.659,1.659,0,0,1,1.107-.892,3.825,3.825,0,0,1,1.359-.2c.892,0,1.631.3,2.54.248a18.457,18.457,0,0,0,2.54-.595c.414-.049.472-.5,1.055-.743.466-.2.533-.248.909-.893.256-.446.655-.595.83-1.091s.439-.545.716-1.189l1.237-2.529a17.465,17.465,0,0,0,1.051-2.28c.227-.645.571-1.339.969-2.33l.92-2.33a21.733,21.733,0,0,1,.92-2.331,14.616,14.616,0,0,0,.87-2.33c.3-.842.71-1.735.853-2.28.16-.595.608-1.587.837-2.38a2.426,2.426,0,0,0-.453-1.388,2.03,2.03,0,0,0-1.558-.644,6.706,6.706,0,0,0-1.753.049,5.392,5.392,0,0,0-1.1.744,4,4,0,0,0-.984,1.388c-.329.793-.7,1.834-1.124,2.627-.4.843-.742,1.686-1.153,2.43l-1.234,2.379a11.5,11.5,0,0,1-1.366,2.33,11.242,11.242,0,0,0-.766,1.19c-.256.446-.557.595-.749,1.141a3.311,3.311,0,0,1-.848,1.14c-.285.248-.477.793-.847,1.14a5.821,5.821,0,0,0-.929,1.091c-.391.545-.74.694-.93,1.09A7,7,0,0,1,231,36.29c-.44.545-.807.743-1.061,1.041-.557.595-.889.694-1.043.991a6.148,6.148,0,0,1-1.093.992c-.4.3-.554.446-1.108.892l-1.057.893a5.039,5.039,0,0,1-1.107.892,8.934,8.934,0,0,0-1.108.892c-.3.3-.65.3-1.171.794a3.887,3.887,0,0,1-1.172.793l-1.172.793a3.04,3.04,0,0,0-1.154.744,3.589,3.589,0,0,1-1.554.892c-.816.347-1.183.545-1.767.793a2.7,2.7,0,0,1-1.478.4c-.28-.05-.779.1-.82-.347s.5-1.289,1.491-1.983a8.443,8.443,0,0,1,1.49-.992,3.991,3.991,0,0,0,1.37-.793,5.608,5.608,0,0,1,1.07-.644,7.625,7.625,0,0,0,1.1-.744c.437-.4.752-.446,1.1-.744a12.06,12.06,0,0,0,1.1-.743c.37-.347.735-.4,1.04-.843.2-.3.635-.4,1.023-.793.455-.447.524-.645.991-.843.417-.2.554-.446,1.008-.893a4.834,4.834,0,0,0,.977-.942,2.429,2.429,0,0,1,.926-.941,1.729,1.729,0,0,0,.877-.942c.256-.447.455-.447.845-.992a6.6,6.6,0,0,1,.862-1.041c.219-.2.289-.4.813-1.041a11.2,11.2,0,0,0,1.477-2.082,9.907,9.907,0,0,1,1.346-2.132,15.912,15.912,0,0,0,1.214-2.182A19.3,19.3,0,0,0,236.4,23.2a23.488,23.488,0,0,1,1.033-2.23l.934-2.231c.294-.694.978-1.934.039-2.083a8.164,8.164,0,0,0-1.624.248,11.639,11.639,0,0,0-1.359.2c-1.114.347-1.61.347-2.213-.05a1,1,0,0,1-.506-1.239c.157-.447.36-.744,1.209-1.042a5.6,5.6,0,0,1,2.336-.3c.4,0,.755.248,1.286.149a2.4,2.4,0,0,1,1.651.1c.28.049,1.006-.744,1.3-1.289.221-.347.317-1.041.628-1.785.329-.793.564-1.884.785-2.231a5.928,5.928,0,0,0,.524-1.487A18.489,18.489,0,0,0,243.35,5.3a26.189,26.189,0,0,1,.844-2.677c.617-1.19,1.224-.942,1.819-.942a9.3,9.3,0,0,1,1.977.3c.9.248,1.462.5,1.253,1.09s-1.023.794-1.378,1.24A8.089,8.089,0,0,0,246.5,6.493a8.016,8.016,0,0,1-.785,2.231c-.21.595-.608,1.587-.768,2.182a20.71,20.71,0,0,1-.8,2.28c-.189.4.088.595.214.942a.714.714,0,0,0,1,.4c.235-.248,1.175-.1,1.969-.1a5.771,5.771,0,0,0,2.394-.743,3.741,3.741,0,0,1,1.609-1.19c.714-.2,1,.545,1.439.843a2.969,2.969,0,0,1,.94.991,1.877,1.877,0,0,1,.389,1.289C253.9,16.309,252.7,16.756,252.52,16.855Zm-17.211-4.908a1.738,1.738,0,0,1-1.487,0c-.525-.2-.84-.149-1.5-.4a3.8,3.8,0,0,0-1.45-.248c-.991,0-2.167.1-2.861.1-1.108.05-1.969.1-2.811.1h-2.677c-1.091,0-2.018.1-2.695.05a9.3,9.3,0,0,0-2.627,0,11.615,11.615,0,0,1-2.628,0c-1.026.1-1.691.3-2.5.347a4.352,4.352,0,0,1-2.359-.2c-.59-.3-.782-.595-.689-1.141.072-.347.309-.594,1.492-1.14a4.654,4.654,0,0,1,2.464-.1,3.452,3.452,0,0,0,2.275.3,2.737,2.737,0,0,1,1.686,0c.411.1,1.242-.149,1.685,0,.625.2,1.592-.3,2.091-.447a2.438,2.438,0,0,0,1.306-.892,7.163,7.163,0,0,0,.576-1.636,13.265,13.265,0,0,1,.785-2.231,7.644,7.644,0,0,1,.686-2.231,1.227,1.227,0,0,1,1.563-.5,7.962,7.962,0,0,0,2.126.3c.907.1,1.911.347,1.535.991a3.216,3.216,0,0,1-1.46,1.19,2.485,2.485,0,0,0-1.212,1.19c-.425.644-.238,1.239-.646,1.834-.428.794.147.992.235,1.587.12.644.928.743,1.191.843a5.055,5.055,0,0,0,2.578,0c.767-.347,1.195-1.141,1.9-1.587.551-.3,1.256-1.735,1.929-1.537.312.1.421.5.78.744l1.068,1.19a5.823,5.823,0,0,1,1.22,1.041,1.019,1.019,0,0,1-.043,1.388C236.324,11.6,235.828,11.6,235.309,11.947Zm-23.191,6.445c.492-.694,1.151-1.438,1.372-1.785.256-.446,1-1.289,1.322-1.785.356-.446.48-1.785,1.425-1.933.679-.1.706.247,1.347.4a10.6,10.6,0,0,0,1.383.3.926.926,0,0,1,.881.595,1.459,1.459,0,0,1,.094,1.14c-.4,1.289-1.717.793-2.183.991a6.536,6.536,0,0,0-1.5,1.587,9.276,9.276,0,0,1-1.516,1.487,6.985,6.985,0,0,0-1.547,1.438c-.676.793-1.093.991-1.515,1.487L210.166,23.8c-.387.4-1.378,1.24-1.614,1.488-.3.3-.335.248-.906.743a4.606,4.606,0,0,1-1.172.794c-.816.347-1.784.842-1.974.4-.219-.644-.048-.991.748-1.983a3,3,0,0,1,1.078-1.091,3.642,3.642,0,0,0,.958-.892c.49-.545,1.245-1.14,1.7-1.586.708-.744.81-.893,1.617-1.636A13.862,13.862,0,0,0,212.118,18.392Zm15.557.594a5.379,5.379,0,0,0-.412-.941c-.143-.3-.239-.447-.479-.893a2.764,2.764,0,0,0-.861-.793,6.139,6.139,0,0,0-1.109-.793,1.5,1.5,0,0,1-.762-.794.781.781,0,0,1,.049-.842c.256-.446,1.015-.347,1.49-.149a17.136,17.136,0,0,1,1.739.694,14.825,14.825,0,0,0,1.459.645,1.881,1.881,0,0,1,1.339.842c.207.4,1.03.595,1.071,1.041.056.546.45.695.7,1.24a3.588,3.588,0,0,1,.322,1.338c-.029.645-.2.843-.261,1.587.009.4-.463.892-.935,1.388a1.945,1.945,0,0,1-1.484.694.969.969,0,0,1-1.077-.744c-.17-.644-.414-.793-.287-1.437a2.505,2.505,0,0,0-.229-1.041A5.423,5.423,0,0,0,227.675,18.986ZM205.726,38.521a5.717,5.717,0,0,1,1.14-.843c.367-.2.8-.3,1.04-.843a2.195,2.195,0,0,1,1.058-.892A3.667,3.667,0,0,0,209.989,35c.222-.347.9-.595,1.026-.942.309-.595.542-.694,1.247-1.289a6.545,6.545,0,0,0,1.247-1.289c.492-.694.746-.992.7-1.289-.091-.446.113-.744.1-1.14-.041-.447-.374-.348-.613-.794-.272-.5-.423-.347-.631-.743-.157-.4-.155-.546-.715-.645-.429-.049-.718-.5-.881-.595-.6-.4-.893-.843-.655-1.239a1.253,1.253,0,0,1,1.721-.1l1.082.446c.324.347.656.248.852.4.473.348,1.062.645,1.257.794.178.2.726.049,1.271.049.5,0,1.035-.545,1.271-.793a12.281,12.281,0,0,0,1.171-1.636,12.727,12.727,0,0,1,1.34-1.834c.591-.694.442-1.537,1.308-1.884a3.568,3.568,0,0,1,2.438.4,6.049,6.049,0,0,0,1.228.595c.475.2.479.893.357,1.24a1.26,1.26,0,0,1-1.209,1.041c-.431.1-1.108.049-1.391.149-.633.247-1,1.289-1.339,1.834a9.942,9.942,0,0,1-1.322,1.785c-.568.347-.449.991-.894,1.834-.363.892-.305,1.289-.063,1.586a1.894,1.894,0,0,1,.7,1.24,5.4,5.4,0,0,0,.672,1.19,2.206,2.206,0,0,1,.441,1.14,3.8,3.8,0,0,0,.243,1.14,5.363,5.363,0,0,1-.225,2.33,3.339,3.339,0,0,1-.952,1.438,3.2,3.2,0,0,1-1.571.942c-.514.05-1.065-.5-1.252-1.091a14.7,14.7,0,0,0-.314-1.784c-.275-.348-.1-.695-.211-1.091-.091-.446-.266-.793-.278-1.041,0-.694-.9-1.091-1.319-1.041-.828.1-1.42-.05-1.793.446a10.971,10.971,0,0,1-1.8,1.586,8.091,8.091,0,0,0-1.108.893c-.5.446-.868.5-1.107.892-.241.545-.889.694-1.107.892a5.6,5.6,0,0,1-1.107.893,11.61,11.61,0,0,0-1.09.843c-.536.4-1.017.5-1.189.842-.323.5-.787.546-1.122.794a4.72,4.72,0,0,1-1.172.793,11.487,11.487,0,0,1-1.455.892c-.583.248-1.253.744-1.635.843-.764.2-1.248.446-1.464.5-.682.248-.775-.05-.855-.248-.076-.347.142-.545.282-.942.224-.5.624-.645,1.195-1.14a5.236,5.236,0,0,1,1.542-1.141c.583-.247.807-.743,1.422-.942.531-.1.521-.5,1.189-.842.318-.2.591-.694,1.172-.794C205.067,39.264,205.289,38.917,205.726,38.521Zm-7.082,42.545a2.782,2.782,0,0,1,1.555-.049,8.369,8.369,0,0,0,1.6-.05,7.136,7.136,0,0,0,1.671-.1,7.942,7.942,0,0,1,1.639-.149,6.721,6.721,0,0,1,1.638-.148c.546,0,.995-.149,1.657-.2.464-.049,1.225-.1,1.706-.2a8.763,8.763,0,0,0,1.656-.2,6.175,6.175,0,0,1,2.6-.347,7.584,7.584,0,0,0,2.589-.595c.715-.2,1.606-1.041,2.181-.843.263.1.992,0,1.45.248.245.149.968.347,1.263.5.245.148.485.595.995.694s.313.942.159,1.239a1.723,1.723,0,0,1-1.524,1.091c-.679.1-1.455.049-1.869.1-1.143.149-1.418-.2-1.852.05a2.853,2.853,0,0,1-1.423.1c-.511-.1-1,.3-1.44.148-.625-.2-.945.149-1.54.149a10.167,10.167,0,0,0-1.738.149c-.63.1-.828.1-1.136.694-.2.3.137.595.123,1.338-.016.893-1.345,2.132-1.432,2.38-.157.446-.717,1.19-.821,1.487-.259.595-.612.893-.7,1.438a2.905,2.905,0,0,1-.72,1.339,6.115,6.115,0,0,0-.635,1.239,22.518,22.518,0,0,1-1.1,2.281c-.6,1.14-.57,2.181-.092,2.231a11.718,11.718,0,0,0,1.371.049,9.7,9.7,0,0,0,1.753-.049c.763-.2,1.2.1,1.6-.05a4.7,4.7,0,0,1,1.5-.05,12.484,12.484,0,0,1,1.8-.049,1.819,1.819,0,0,0,1.356-.05,5.111,5.111,0,0,1,1.441-.148c.545,0,.816-.347,1.446-.447a14.068,14.068,0,0,1,2.015.05c.709.1,1.016.5,1.707.644.593.149.832.595,1.1,1.091a1.151,1.151,0,0,1,.211,1.091,1.728,1.728,0,0,1-1.725,1.239c-.875-.049-1.2-.1-1.5-.1a13.879,13.879,0,0,1-2.59-.248,12.217,12.217,0,0,0-2.278-.149,8.539,8.539,0,0,1-2-.1c-.773-.2-1.274.1-1.817-.049a5.035,5.035,0,0,0-1.735,0,7.511,7.511,0,0,1-2.578,0c-.676-.05-1.5.049-2.6.049l-1.753.05a4.3,4.3,0,0,0-1.721.1c-.88.248-1.1-.1-1.787.149a3.35,3.35,0,0,1-1.787.149,5.967,5.967,0,0,0-1.738.148,5.862,5.862,0,0,0-1.823.248,11.618,11.618,0,0,1-1.755.2,11.225,11.225,0,0,1-1.823.248,20.9,20.9,0,0,0-2.155.347,13.425,13.425,0,0,0-2.158.5c-.431.1-1,.595-1.429.4a5.384,5.384,0,0,1-1.471-.893c-.519-.5-.575-1.041-.882-1.437a1.949,1.949,0,0,1-.637-1.289c.041-.4-.231-.893.474-1.488a1.215,1.215,0,0,1,1.28-.4,1.385,1.385,0,0,1,.966.5c.342.3.52.5.893.843a1.308,1.308,0,0,0,1.05.4,14.511,14.511,0,0,1,2.382-.149,19.187,19.187,0,0,0,2.2-.2,3.131,3.131,0,0,0,1.324-.1c.583-.248.779-.1,1.441-.149a6.577,6.577,0,0,1,1.423-.1c.546,0,1.706-.2,2.351-.2a9.517,9.517,0,0,0,2.233-.149c1.026-.1,1.575-.248,1.895-.6a6.569,6.569,0,0,0,.862-1.041c.221-.347.533-1.091.806-1.587.393-.694.847-1.983,1.176-2.776.4-.991.812-1.884,1.109-2.727.314-.892.544-1.685,1.009-2.726a3.8,3.8,0,0,0,.132-1.785,1.61,1.61,0,0,0-1.29-.843,7.337,7.337,0,0,0-1.621.1,7.815,7.815,0,0,0-1.621.1,10.935,10.935,0,0,0-1.639.149c-.414.05-1.044.149-1.657.2A4.034,4.034,0,0,1,196,83.644a7.646,7.646,0,0,1-1.039-.991,5.415,5.415,0,0,1-.87-1.19,1.29,1.29,0,0,1,.255-1.289c.539-.545.738-.545,1.117-.5a1.483,1.483,0,0,1,1.018.347,2.6,2.6,0,0,0,1.027.744A1.985,1.985,0,0,0,198.644,81.066Zm-3.9-57.765c-.108.446-.387,1.239-.529,1.784-.416,1.042-.759,1.736-.951,2.281-.3.843-.97,1.487-1.2,2.132a8.183,8.183,0,0,1-1.425,1.933A9.011,9.011,0,0,1,189,33.266a9.33,9.33,0,0,0-1.833,1.685c-.405.446-.507.595-.956.744-.4.149-.519.347-1.006.743a3.072,3.072,0,0,1-1.087.694,4.91,4.91,0,0,0-1.119.645,3.146,3.146,0,0,1-1.268.644c-.364.05-.734.4-1.084.546a6.689,6.689,0,0,1-1.816.793,4.384,4.384,0,0,0-1.513.5c-.735.4-1,.3-1.6.595a9.727,9.727,0,0,1-1.764.644,7.43,7.43,0,0,0-1.528.4c-.647.149-1.1.3-1.726.4a6.219,6.219,0,0,0-1.575.248,2.774,2.774,0,0,1-1.733-.148c-.709-.1-.532-1.587.284-1.934a7.867,7.867,0,0,1,2.274-.545,14.264,14.264,0,0,1,1.744-.446,3.788,3.788,0,0,0,1.563-.5,12.41,12.41,0,0,0,1.679-.546c.432-.1.933-.4,1.481-.545.432-.1.951-.446,1.849-.744.615-.2.786-.545,1.536-.842.735-.4.9-.595,1.571-.942a10.927,10.927,0,0,1,1.5-.893,4.629,4.629,0,0,0,1.425-1.09c.32-.347,1.052-.595,1.361-1.19.274-.5.889-.694,1.247-1.289.154-.3.726-.793,1.151-1.438.34-.545.518-1.19,1.037-1.537a4.2,4.2,0,0,0,.873-1.636c.259-.595.521-1.338.727-1.785a17.146,17.146,0,0,0,.537-2.23,6.573,6.573,0,0,0,.057-2.132,1.986,1.986,0,0,1-.146-.992c.108-.446-.07-.644-.246-.991-.21-.248.029-.645-.33-.893a1.568,1.568,0,0,1-.5-.842,10.23,10.23,0,0,0-.824-1.042c-.356-.4-.864-.644-1.007-.942-.193-.3-.849-.545-1.126-.743l-1.278-.595a4.05,4.05,0,0,0-1.362-.5,5.63,5.63,0,0,0-1.532-.3,5.523,5.523,0,0,1-1.616-.2,5.4,5.4,0,0,0-1.767-.049,1.282,1.282,0,0,0-.874.793,1.832,1.832,0,0,0,.371,1.339,2.4,2.4,0,0,1-.1,1.685,7.935,7.935,0,0,1-1.409,2.033c-.425.644-1.285,1.537-1.59,1.983-.475.644-1.133,1.388-1.524,1.933-.341.546-1.25,1.438-1.556,1.884-.594.843-1.1,1.289-1.538,1.835-.609.743-1.049,1.289-1.521,1.784-.641.694-1,1.141-1.553,1.736a20.38,20.38,0,0,0-1.553,1.735,9.517,9.517,0,0,1-1.617,1.636,15.068,15.068,0,0,0-1.8,1.735c-.339.4-.787.545-1.009.892-.306.446-.769.5-1.057.893a2.323,2.323,0,0,1-1.1.743,5.037,5.037,0,0,0-1.3.744c-.486.4-1.394.3-2.073.4a2.513,2.513,0,0,1-1.806-.645,2.752,2.752,0,0,1-.648-.694c-.193-.3-.2-.545-.465-.793a1.057,1.057,0,0,1-.33-.893l-.164-.942a13.862,13.862,0,0,1-.078-2.032,8.817,8.817,0,0,1,.3-2.132,18.109,18.109,0,0,0,.619-2.181,8.214,8.214,0,0,1,.847-1.983,16.653,16.653,0,0,0,1.028-1.934,8.535,8.535,0,0,1,1.241-1.834c.472-.5.967-1.339,1.337-1.686l1.55-1.586a18.361,18.361,0,0,1,1.646-1.438,14.078,14.078,0,0,0,1.711-1.339,12.31,12.31,0,0,1,1.874-1.239,8.9,8.9,0,0,1,1.921-1.091c.484-.248,1.219-.644,1.968-.942l2.032-.842a6.932,6.932,0,0,1,2.061-.645c.58-.1,1.3-.595,1.977-.545.528.049,1.2-.3,1.956-.347a14.613,14.613,0,0,1,2.021-.248,5.1,5.1,0,0,0,1.919-.1,2.737,2.737,0,0,1,1.668.049,4.6,4.6,0,0,0,1.616.2c.4,0,1.239,0,1.563.347.21.247,1.135.3,1.447.4.642.149.983.446,1.395.546.61.1.98.594,1.292.694a2.7,2.7,0,0,1,1.159.793c.306.4.668.5,1.024.892a4.315,4.315,0,0,1,.873,1.041,2.989,2.989,0,0,0,.738,1.141A3.57,3.57,0,0,1,194.6,17.1a7.8,7.8,0,0,1,.354,1.388c.076.347.033.892.121,1.487a6.323,6.323,0,0,1-.013,1.586A12.9,12.9,0,0,1,194.744,23.3Zm-19.23-10.015a2.566,2.566,0,0,0-1.764-.2,6.979,6.979,0,0,0-2.059.5c-.548.148-.685.4-1.332.545a4.024,4.024,0,0,0-1.5.744,13.439,13.439,0,0,1-1.335.694,9.365,9.365,0,0,0-1.32.793,6.119,6.119,0,0,0-1.324.942,7.116,7.116,0,0,1-1.174.942,6.2,6.2,0,0,0-1.143.991c-.137.248-.6.447-1.078,1.091-.39.545-.574.645-1.014,1.19s-.527.793-.915,1.19a4.6,4.6,0,0,0-.783,1.239l-1.188,2.529a5.834,5.834,0,0,0-.532,1.933,19.377,19.377,0,0,0-.292,2.38,6.4,6.4,0,0,0,.276,2.032c.219.645.494.992,1.307.794a4.726,4.726,0,0,0,1.694-.447,8.332,8.332,0,0,0,1.542-1.14,9.681,9.681,0,0,0,1.093-.991c.3-.3.554-.447,1.075-.942.419-.347.676-.794,1.011-1.041a8.287,8.287,0,0,0,1.011-1.042,4.875,4.875,0,0,0,.912-1.041,9.8,9.8,0,0,1,.961-1.041,3.842,3.842,0,0,0,.879-1.09c.323-.5.691-.695.929-1.091.19-.4.927-.942,1.369-1.636l1.355-1.735a10.944,10.944,0,0,1,1.256-1.736c.4-.446.652-1.289,1.206-1.735a1.875,1.875,0,0,0,.6-1.14A7.318,7.318,0,0,0,175.513,13.285ZM154.339,82.107a18.939,18.939,0,0,0,.754-2.281c.247-.843.611-1.735.8-2.281a10.127,10.127,0,0,1,.753-2.28c.582-1.091.41-1.586-.063-1.934l-.785-.446c-.344-.148-1.379.4-1.234-.3.128-.645,1.209-1.041,1.743-1.289a2.556,2.556,0,0,1,1.408-.2,10.716,10.716,0,0,1,1.266.347c.28.049.861.793,1.4.942a1.584,1.584,0,0,1,.969,1.189c.073.5.45.694.176,1.19-.478.793-1.11,1.041-1.264,1.339-.359.595-.781,1.09-.868,1.338a24.726,24.726,0,0,1-.937,2.38,21.062,21.062,0,0,1-.87,2.33c-.344.694-.529,1.785-.943,2.677a2.205,2.205,0,0,0,.024,1.339c.12.644.3.991.762.793.7-.3,1.234.3,2.009.347a7.622,7.622,0,0,1,1.794.4,7.111,7.111,0,0,1,1.625.595,14.619,14.619,0,0,0,1.523.743,2.373,2.373,0,0,1,.817.5c.374.347.444.149.732.595a12.567,12.567,0,0,1,.964,1.487,2.263,2.263,0,0,1-.036,1.934,4.164,4.164,0,0,1-1.019,1.487,2.766,2.766,0,0,1-1.6.744,1.448,1.448,0,0,1-1.2-.4,3.9,3.9,0,0,1-.71-.942c-.175-.347-.269-.644-.573-1.19a10.862,10.862,0,0,0-.692-.991,4.293,4.293,0,0,0-.777-.893,9.574,9.574,0,0,0-.861-.793,4.8,4.8,0,0,1-.9-.545,2.545,2.545,0,0,0-.831-.595,1.674,1.674,0,0,0-1.805.2c-.8.595-1.119.645-1.414,1.339-.346.843-.523,1.487-.733,2.082s-.579,1.785-.837,2.38a15.031,15.031,0,0,0-.838,2.379l-.837,2.38-.806,2.429a21.86,21.86,0,0,1-.82,2.33,23.628,23.628,0,0,0-.855,2.43,6.207,6.207,0,0,1-.923,1.636,1.934,1.934,0,0,1-1.621.941c-.845.149-.9-.4-1.076-.743a3.455,3.455,0,0,1-.139-1.438,9.226,9.226,0,0,1,.826-2.627l.8-1.983a11.654,11.654,0,0,1,.765-2.033c.189-.4.57-1.339.815-2.033a10.405,10.405,0,0,1,.748-1.983,9.129,9.129,0,0,0,.873-2.479l.486-1.239a25.492,25.492,0,0,1,.89-2.528c.192-.546.579-1.785.82-2.331.346-.842.492-1.536.817-2.181a15.763,15.763,0,0,0,.7-1.983A20.545,20.545,0,0,1,154.339,82.107ZM151.864,8.08c-.055.3-.594.842-.8,1.289-.087.248-1.084.545-1.367.644-.764.2-.788-.3-1.109-.793a4.063,4.063,0,0,1-.5-1.388c-.044-.3-.383-.744-.491-1.14a1.965,1.965,0,0,0-.774-1.042,14.54,14.54,0,0,0-1.354-.942c-.622-.347-.867-.5-.628-.892a2.254,2.254,0,0,1,2.321-.4c.709.1,1.254.1,1.529.447.225.347,1.021.2,1.3.545A1.314,1.314,0,0,0,151,5.056c.642.148.534.594.762.793.441.3.237.595.278,1.041C152.191,7.435,151.925,7.485,151.864,8.08Zm-6.2,1.834c.123.5.152.694.261,1.091a3.671,3.671,0,0,1-.238,1.239,3.469,3.469,0,0,1-.851,1.289,2.138,2.138,0,0,1-1.349.595c-.679.1-.9-.694-1.206-.942-.423-.347-.26-1.091-.465-1.636-.105-.545-.6-.545-.441-1.14.075-.5-.3-.694-.625-1.041a8.217,8.217,0,0,0-1.254-.942c-.555-.4-.619-.5-.444-.992.262-.743,1.429-.4,2.336-.3.676.049.75.545,1.444.545.347,0,.9.545,1.26.645.493.148.537.446.946.694A1.127,1.127,0,0,1,145.666,9.914Zm-4.815,10.015c.534-.247.892-.842,1.309-1.041.5-.3.871-.644,1.457-1.041a2.026,2.026,0,0,1,1.5-.743c.676.049.837.3.642.991-.213.744-1.014,1.19-1.369,1.636a24.19,24.19,0,0,1-2,1.587c-.7.595-1.475,1.09-1.845,1.437a12.5,12.5,0,0,1-1.845,1.438,12.9,12.9,0,0,1-1.894,1.438c-.7.3-.976.942-1.626,1.239a15.006,15.006,0,0,0-1.656,1.041,11.216,11.216,0,0,1-1.792,1.289,6.209,6.209,0,0,0-1.792,1.289,9.31,9.31,0,0,1-1.874,1.24c-.586.4-1.253.743-1.807,1.189a4.536,4.536,0,0,1-1.906,1.19c-.382.1-1.224.942-1.839,1.141-.767.347-1.571.942-1.872,1.09-.851.446-1.3.744-1.921,1.091a16.72,16.72,0,0,0-1.9,1.041c-.72.5-1.569.793-2.254,1.19-.9.595-1.752.892-2.2,1.19a6.056,6.056,0,0,0-1.425,1.09,2.527,2.527,0,0,1-1.551.744c-.6.149-.91.05-1.167-.347a2.186,2.186,0,0,0-.925-.892c-.408-.248-.315-.794-.707-1.091a1.742,1.742,0,0,1-.493-.992c-.012-.247-.467-.644-.555-1.239a1.042,1.042,0,0,1,.422-1.339c.5-.446,1.26-.2,1.881.149.213.1.467.645.765.645.644,0,.554.4.77.347a3.723,3.723,0,0,0,1.642-.3,13.357,13.357,0,0,0,1.632-.694c.283-.1,1.251-.595,1.6-.743a14,14,0,0,0,1.586-.843,9.024,9.024,0,0,1,1.586-.843,6.5,6.5,0,0,0,2.02-1.091c.487-.4,1.2-.595,1.97-1.09a16.288,16.288,0,0,1,1.971-1.091c.484-.248,1.186-.694,1.988-1.14.484-.248,1-.595,1.938-1.141a16.525,16.525,0,0,1,2.006-1.189,20.233,20.233,0,0,1,1.924-1.24c.516-.2,1.107-.892,1.907-1.19a4.972,4.972,0,0,0,1.408-1.041,11.086,11.086,0,0,1,1.571-.942,12,12,0,0,1,1.659-1.19c.7-.3.926-.942,1.577-1.239C139.962,20.623,140.268,20.176,140.851,19.928Zm-15.035-4.61a5.949,5.949,0,0,1-1.171,1.636,2.883,2.883,0,0,1-1.749.744,1.62,1.62,0,0,1-1.374-.744,2.386,2.386,0,0,1-.267-1.636c.023-.347-.249-.843-.255-1.388a1.353,1.353,0,0,0-.506-1.24c-.356-.4-.831-.595-1.319-1.041-.356-.4-.867-.5-.491-1.14a2.216,2.216,0,0,1,1.152-.595,4.481,4.481,0,0,1,1.484.149c.394.148,1.036.3,1.593.545a2.406,2.406,0,0,1,1.31.645c.128.2.854.247.945.694.077.347.354.545.628.892a1.366,1.366,0,0,1,.243,1.14C125.9,14.376,125.921,15.02,125.816,15.318ZM114.455,27.167c-.7.446-.938.694-1.632.694a1.011,1.011,0,0,1-1.243-.694,6,6,0,0,1-.436-1.438,7.13,7.13,0,0,0-.372-1.339c-.21-.248-.4-.842-.622-1.19-.128-.2-.9-.545-1.4-.941-.523-.347-1-.4-.642-.992a1.354,1.354,0,0,1,1.136-.694c.216-.05.875.05,1.569.05a3.867,3.867,0,0,1,1.677.446c.443.148.77.347,1.377.595a8.678,8.678,0,0,1,.995.694,8.73,8.73,0,0,1,.678.892l.242,1.14a3.205,3.205,0,0,1-.273,1.339A3.479,3.479,0,0,1,114.455,27.167ZM109.249,89c.924.049,1.671-.1,2.2-.05a16.429,16.429,0,0,0,2.2-.05l2.6-.049,2.613-.1c.595,0,1.688-.149,2.63-.149a11.374,11.374,0,0,0,2.648-.2l1.557-.2c.613-.049,1.1-.3,1.542-.3.5,0,.659.1,1.3.1a5.221,5.221,0,0,1,1.532.3c.624.2.9.247,1.144.694.16.248.43.892.159,1.239-.39.545-.478.793-.778.942a4.623,4.623,0,0,1-1.265.5,18.27,18.27,0,0,1-2.449.2,8,8,0,0,0-1.587,0,5.016,5.016,0,0,1-2.231,0h-1.388c-.676-.049-1.537,0-2.231,0a12.379,12.379,0,0,1-2.3.05,11.058,11.058,0,0,0-2.231,0c-.942,0-1.654.049-2.3.049-.992,0-1.324.1-2.266.1a6.965,6.965,0,0,0-2.248.05,17.143,17.143,0,0,1-2.316.1c-.913.2-1.767-.049-2.266.1a5.847,5.847,0,0,1-1.306.05,9.753,9.753,0,0,0-1.8.049,13.539,13.539,0,0,1-1.954.2c-.428-.05-1.644.446-2.14.446a2.657,2.657,0,0,1-1.66-.5,2.85,2.85,0,0,1-.832-.595c-.225-.347-.668-.5-.68-.743.023-.347-.452-.546-.578-.893a3.41,3.41,0,0,0-.543-.991,1.552,1.552,0,0,1,.232-1.785c.589-.545.927-.1,1.581.3a9.653,9.653,0,0,0,1.4,1.091,4.062,4.062,0,0,0,1.35.248c.645,0,1.321.05,1.718.05a17.576,17.576,0,0,1,2.149-.05c.706.248,1.359-.2,2.249-.05a16.886,16.886,0,0,0,2.249-.049c.595,0,1.306-.05,2.149-.05C107.844,89.048,108.374,88.949,109.249,89ZM90.734,22.8a5.971,5.971,0,0,0-1.626,1.239,13.043,13.043,0,0,0-1.454,1.735,10.023,10.023,0,0,1-1.486,1.686A21.1,21.1,0,0,0,84.65,29.1c-.658.744-.926.942-1.567,1.636-.356.446-1.075.942-1.6,1.587A16.034,16.034,0,0,1,79.8,33.86c-.74.695-1.375,1.091-1.713,1.488a10.387,10.387,0,0,1-1.8,1.437,18.947,18.947,0,0,1-1.81,1.339c-.886.545-1.189.843-1.758,1.19l-1.74,1.14-1.772,1.091c-.5.3-1.37.793-1.822,1.09a18.248,18.248,0,0,1-1.769.942c-.8.447-1.169.645-1.819.942a16.7,16.7,0,0,1-2.064.794c-.647.148-1.612.5-1.957.347a.878.878,0,0,1-.29-1.289,2.781,2.781,0,0,1,1.324-.942c.617-.347.836-.546,1.37-.794.417-.2.752-.446,1.4-.743a9.172,9.172,0,0,0,1.384-.694c.318-.2.93-.248,1.285-.694a4.112,4.112,0,0,1,1.3-.744,5.539,5.539,0,0,0,1.321-.793c.586-.4,1.067-.5,1.271-.793a2.138,2.138,0,0,1,1.256-.893,3.019,3.019,0,0,0,1.256-.892,8.9,8.9,0,0,1,1.224-.942,3.166,3.166,0,0,0,1.142-.992c.408-.595.8-.446,1.192-.991.221-.347.685-.4,1.16-1.041a6.1,6.1,0,0,1,1.11-1.041,14.415,14.415,0,0,0,1.127-1.091,20.255,20.255,0,0,1,1.737-1.834,5.725,5.725,0,0,0,1.215-1.339c.457-.595.76-.892,1.25-1.438a10.277,10.277,0,0,1,1.2-1.437A9,9,0,0,0,86.088,22.9a6.482,6.482,0,0,0,1.226-1.933c.005-.3-.219-.645-.844-.843-.656-.248-.884-.446-.879-.744.026-.5.483-1.091,1.011-1.041.329.05.942,0,1.651.1a2.761,2.761,0,0,1,1.482.3,2.578,2.578,0,0,0,1.03.595c.411.1.7.694.824,1.041.236.595.5.842.255,1.388C91.585,22.358,91.186,22.507,90.734,22.8Zm-13.27,2.627a2.21,2.21,0,0,1-1.834.843c-.659-.1-1.021-.2-1.106-.942-.027-.347.205-1.289.2-1.834a8.035,8.035,0,0,1-.071-1.487c.131-.794-.144-1.141-.119-1.636-.026-.347-.371-.5-.543-.992s-.233-.744.37-1.19a1.62,1.62,0,0,1,1.146-.3c.644,0,.653.4,1.033.446.444.149.569.5.794.843.161.248.388.446.645.843.16.247.2.545.482.743.2.149.225.347.3.843a5.458,5.458,0,0,1-.238,2.082A4.474,4.474,0,0,1,77.464,25.432Zm-9.613,2.38c-.789.694-1.04.843-1.8.744-.56-.1-1.048-.546-.975-.893a8.546,8.546,0,0,0,.162-1.586c.116-.892.171-1.19-.051-1.686a4.49,4.49,0,0,1-.57-1.338c-.073-.5-.432-.744-.407-1.24a1.489,1.489,0,0,1,.352-1.14,1.735,1.735,0,0,1,2.281,0,6.525,6.525,0,0,1,.844.843c.356.4.586.446.762.793a1.77,1.77,0,0,1,.464.793c.044.3.274.347.3.843a3.506,3.506,0,0,1-.222,2.182A5.114,5.114,0,0,1,67.851,27.812ZM60.507,81.265a13.923,13.923,0,0,0,2.036-.149,7.819,7.819,0,0,1,2.1-.2,13.123,13.123,0,0,0,2.283-.149,21.047,21.047,0,0,1,2.351-.2,15.1,15.1,0,0,0,2.531-.149,22.425,22.425,0,0,0,2.5-.347,4.435,4.435,0,0,0,1.635-.843,4.853,4.853,0,0,1,1.466-.644,1.028,1.028,0,0,1,.9.4,1.758,1.758,0,0,0,.715.645,5.415,5.415,0,0,1,1.068,1.19,2.267,2.267,0,0,1,.249,1.685c-.009.446-.693.843-1.4,1.289a5.2,5.2,0,0,0-1.542,1.14,4.839,4.839,0,0,0-.921,1.488c-.122.347-.661.892-.8,1.289-.25.991-.988,1.537-1.381,2.231-.306.446-.783,1.239-1.075,1.784a5.939,5.939,0,0,0-1.057,1.736c-.14.4-.9,1.289-1.159,1.883a2.254,2.254,0,0,0-.122,1.19l.61.942a4.966,4.966,0,0,1,.565,1.636c.249.843-1.212,1.19-1.79,1.141a17.213,17.213,0,0,1-1.75-.1l-1.648-.248c-.28-.049-.974-.049-1.5-.1-.677-.049-1.158.05-1.537,0a5.676,5.676,0,0,0-1.587,0l-1.6.05a8.9,8.9,0,0,0-1.6.049,10.536,10.536,0,0,1-1.621.1l-1.738.148c-.563.05-1.306.05-1.721.1a6.318,6.318,0,0,0-2.183.991,15.712,15.712,0,0,0-1.565,1.487,3,3,0,0,1-1.792,1.289c-.746.149-1.048-.545-1.138-.991a2.7,2.7,0,0,1,.2-1.835c.69-1.536.477-1.636.512-1.735a9.614,9.614,0,0,0,.532-1.933,15.378,15.378,0,0,1,.582-1.934l.532-1.933a14.556,14.556,0,0,0,.483-1.934,12.554,12.554,0,0,1,.532-1.933c.2-.694.291-1.388.483-1.934.212-.743.305-1.289.483-1.933a10.206,10.206,0,0,0,.482-1.934A7.556,7.556,0,0,0,52.1,82.6a3.071,3.071,0,0,0-.41-1.09c-.111-.248-.52-.5-.715-.645s.066-.892.387-1.239c.659-.744,1.248-.446,2.035-.149a9.531,9.531,0,0,0,1.905.644c.545,0,.735.447,1.045.695a2.005,2.005,0,0,0,1.065.5,8.166,8.166,0,0,0,1.006.1C59.216,81.413,59.633,81.215,60.507,81.265ZM57.5,84.041c-1.163.347-1.731.694-1.886.992a8.893,8.893,0,0,0-.678,1.784,10.267,10.267,0,0,1-.425,1.488,11.191,11.191,0,0,0-.39,1.388,7.862,7.862,0,0,0-.372,1.338c-.081.794-.579,1.785-.779,2.777-.058.446-.3.842-.459,1.586-.305,1.289.1,2.38.927,2.578.449-.149.843,0,1.274-.1a6.5,6.5,0,0,1,1.688-.149c.5,0,.977-.1,1.572-.1a5.031,5.031,0,0,1,1.522-.1c.28.049.977-.1,1.473-.1a4.328,4.328,0,0,0,1.49-.149c.283-.1.89.149,1.621-.1a9.194,9.194,0,0,0,2.639-.595,3.415,3.415,0,0,0,1.1-1.289c.207-.446.7-1.14,1.092-1.834.273-.5.737-1.389.975-1.785a10.154,10.154,0,0,1,.943-1.835c.356-.446.466-1.041.909-1.735a7.386,7.386,0,0,0,.926-1.784c.21-.595.649-1.141.911-1.884.105-.3.143-.546-.313-.942a1.684,1.684,0,0,0-1.045-.694,10.373,10.373,0,0,0-2.776,0,20.722,20.722,0,0,1-2.283.148c-.942,0-1.738.149-2.233.149l-2.351.2c-.927.1-1.6.05-2.3.2C59.67,83.644,58.445,83.744,57.5,84.041ZM46.155,16.26c-.679.1-1.455.049-1.869.1-1.143.149-1.417-.2-1.852.05a2.854,2.854,0,0,1-1.423.1c-.511-.1-1,.3-1.441.148-.624-.2-.944.149-1.539.149a10.169,10.169,0,0,0-1.738.149c-.63.1-.828.1-1.136.694-.2.3.137.595.123,1.338-.016.893-1.346,2.132-1.432,2.38-.157.446-.717,1.19-.821,1.487-.259.595-.612.893-.7,1.438a2.911,2.911,0,0,1-.72,1.339,6.116,6.116,0,0,0-.634,1.239,22.391,22.391,0,0,1-1.1,2.281c-.6,1.14-.569,2.181-.091,2.231a11.718,11.718,0,0,0,1.371.049,9.7,9.7,0,0,0,1.752-.049c.764-.2,1.2.1,1.6-.05a4.7,4.7,0,0,1,1.5-.05,12.482,12.482,0,0,1,1.8-.049,1.819,1.819,0,0,0,1.356-.05,5.111,5.111,0,0,1,1.441-.148c.545,0,.816-.347,1.446-.447a14.07,14.07,0,0,1,2.015.05c.709.1,1.016.5,1.707.644.592.149.832.595,1.1,1.091a1.151,1.151,0,0,1,.211,1.091A1.728,1.728,0,0,1,45.364,34.7c-.875-.049-1.2-.1-1.5-.1a13.879,13.879,0,0,1-2.59-.248,12.22,12.22,0,0,0-2.278-.149,8.539,8.539,0,0,1-2-.1c-.773-.2-1.274.1-1.817-.049a5.035,5.035,0,0,0-1.735,0,7.51,7.51,0,0,1-2.578,0c-.676-.05-1.5.049-2.6.049l-1.753.05a4.3,4.3,0,0,0-1.721.1c-.881.248-1.105-.1-1.787.149a3.351,3.351,0,0,1-1.787.149,5.967,5.967,0,0,0-1.738.148,5.859,5.859,0,0,0-1.823.248,11.618,11.618,0,0,1-1.755.2,11.225,11.225,0,0,1-1.823.248,20.9,20.9,0,0,0-2.155.347,13.424,13.424,0,0,0-2.158.5c-.432.1-1,.595-1.429.4a5.383,5.383,0,0,1-1.471-.893c-.52-.5-.576-1.041-.882-1.437a1.949,1.949,0,0,1-.637-1.289c.041-.4-.231-.893.474-1.488a1.215,1.215,0,0,1,1.28-.4,1.385,1.385,0,0,1,.966.5c.342.3.52.5.893.843a1.308,1.308,0,0,0,1.05.4A14.51,14.51,0,0,1,12.4,32.72a19.187,19.187,0,0,0,2.2-.2,3.131,3.131,0,0,0,1.324-.1c.583-.248.779-.1,1.44-.149a6.585,6.585,0,0,1,1.423-.1c.545,0,1.706-.2,2.35-.2a9.522,9.522,0,0,0,2.234-.149c1.026-.1,1.575-.248,1.895-.595a6.569,6.569,0,0,0,.862-1.041c.221-.347.533-1.091.806-1.587.393-.694.847-1.983,1.176-2.776.4-.991.812-1.884,1.109-2.727.314-.892.544-1.685,1.009-2.726a3.8,3.8,0,0,0,.132-1.785,1.61,1.61,0,0,0-1.29-.843,7.337,7.337,0,0,0-1.621.1,7.815,7.815,0,0,0-1.621.1,10.929,10.929,0,0,0-1.638.149c-.414.05-1.044.149-1.657.2a4.034,4.034,0,0,1-1.861-.347,7.643,7.643,0,0,1-1.039-.991,5.416,5.416,0,0,1-.87-1.19,1.289,1.289,0,0,1,.255-1.289c.539-.545.738-.545,1.116-.5a1.483,1.483,0,0,1,1.019.347,2.6,2.6,0,0,0,1.027.744,1.985,1.985,0,0,0,1.135.3,2.78,2.78,0,0,1,1.554-.049,8.373,8.373,0,0,0,1.6-.05,7.136,7.136,0,0,0,1.671-.1,7.941,7.941,0,0,1,1.639-.149,6.718,6.718,0,0,1,1.639-.148c.546,0,.994-.149,1.657-.2.464-.049,1.225-.1,1.706-.2a8.768,8.768,0,0,0,1.656-.2,6.176,6.176,0,0,1,2.6-.347,7.591,7.591,0,0,0,2.589-.595c.714-.2,1.606-1.041,2.181-.843.263.1.992,0,1.449.248.246.149.969.347,1.264.5.245.148.484.595.995.694s.313.942.159,1.239A1.723,1.723,0,0,1,46.155,16.26ZM14.212,75.711c-.263-.1-1.589.149-1.493-.545.133-.942.912-1.041,1.594-1.289s1.327-.248,1.455-.05a10.169,10.169,0,0,0,1.284.3,5.2,5.2,0,0,1,1.293.694,3.7,3.7,0,0,1,.923,1.041,1.847,1.847,0,0,1,.126,1.19c-.09.4-.557.595-.982,1.239-.323.5-.495.843-.853,1.438a4.389,4.389,0,0,0-.523,1.487,10.022,10.022,0,0,0-.573,1.487,5.673,5.673,0,0,1-.8,2.281,6.269,6.269,0,0,1-.506,1.438c-.233.942-.815,2.032-.995,2.826-.25.991-.666,2.032-.963,2.875a10.042,10.042,0,0,1-.972,2.479,2.527,2.527,0,0,1-1.909,1.338A1.526,1.526,0,0,1,9.3,95.592c-.163-.1-.356-.4-.394-.991a5.974,5.974,0,0,1,.427-2.479,11.943,11.943,0,0,0,1.062-2.033,5.944,5.944,0,0,1,.469-1.19,15.562,15.562,0,0,0,.7-1.983c.227-.644.431-.942.643-1.685.267-1.041.8-1.983.995-2.826a11.919,11.919,0,0,0,.611-1.735c.111-.595.451-1.14.628-1.785.317-1.041.669-2.181.444-2.528A1.319,1.319,0,0,0,14.212,75.711ZM6.724,106.7c.3,0,.636-.4,1.017-.5a3.677,3.677,0,0,0,1.152-.595c.335-.248.816-.347,1.219-.645.268-.2.8-.446,1.136-.694.469-.347.673-.644,1.038-.694.315-.049.559-.744,1.072-.793.414-.05.537-.4,1.073-.793a3.487,3.487,0,0,0,.959-.893,4.078,4.078,0,0,1,.958-.892,4.549,4.549,0,0,0,.927-.942c.422-.5.708-.744.894-.992.221-.347.828-.942,1.27-1.636A9.559,9.559,0,0,0,20.511,95a12.84,12.84,0,0,1,1.007-1.735,7.249,7.249,0,0,1,.859-1.735,13.188,13.188,0,0,0,.759-1.735c.192-.545.434-1.091.678-1.785a13.849,13.849,0,0,0,.678-1.785,7.977,7.977,0,0,1,.611-1.735c.311-.743.593-1.685.82-2.33a15.788,15.788,0,0,1,.786-2.231,9.457,9.457,0,0,1,.541-1.537A10.551,10.551,0,0,0,28,76.257a5.082,5.082,0,0,0,.447-1.834c.078-.644-.033-.892-.211-1.091a4.736,4.736,0,0,0-.9-.545c-.263-.1-1.607.2-1.459-.644.145-.694.743-.843,1.609-1.19a3.122,3.122,0,0,1,1.837-.149c.444.149,1.619.05,1.943.4l1.552.942a2.2,2.2,0,0,1,.748,1.537,1.441,1.441,0,0,1-1.017,1.338A4.884,4.884,0,0,0,31.344,76.9c-.309.595-.354,1.289-.7,1.983a9.993,9.993,0,0,0-.559,1.586c-.055.3-.349.992-.559,1.587l-.559,1.586a5.055,5.055,0,0,1-.559,1.587c-.261.743-.433,1.091-.608,1.586-.262.744-.466,1.041-.608,1.587-.108.446-.448.991-.658,1.586a11.231,11.231,0,0,1-.725,1.636c-.358.595-.742,1.686-1.082,2.231-.428.793-.806,1.587-1.113,2.033a18.567,18.567,0,0,1-1.208,1.884,14.321,14.321,0,0,1-1.372,1.784,9.756,9.756,0,0,0-1.518,1.636,5.127,5.127,0,0,1-1.749,1.587c-.233.1-.338.4-.956.744-.435.247-.472.5-1.055.743a2.09,2.09,0,0,0-1.1.744,1.85,1.85,0,0,1-1.154.743c-.7.149-.868.5-1.536.843a5.612,5.612,0,0,1-1.755,1.041,2.7,2.7,0,0,0-1.35.595c-.452.3-1.248.447-1.682.694-.551.3-1.18.4-1.615.645a8.529,8.529,0,0,1-1.7.744c-.516.2-.863.2-1.595.446a3.152,3.152,0,0,1-1.341.148c-.709-.1-.916-.5-.925-.892a1.468,1.468,0,0,1,.815-1.19c.534-.248.8-.148,1.114-.347a3.942,3.942,0,0,1,1.347-.446c.863-.2,1.732-.694,2.379-.843C6.039,107.095,6.228,106.7,6.724,106.7ZM170.682,72.439c.362.1,1.006.1,1.318.2.411.1.931.595,1.293.694.624.2,1.135.3,1.278.595.193.3.869.347.945.694a1.894,1.894,0,0,0,.645.843c.26.248.053.694.261,1.091.193.3-.151.991-.206,1.289a3.737,3.737,0,0,1-.833,1.239,2.342,2.342,0,0,1-1.349.595c-.563.05-1-.545-1.255-.942-.3-.545-.06-1.239-.466-1.636-.16-.248-.018-.793-.587-1.289-.406-.4-.526-1.041-.92-1.19-.379-.049-.7-.545-1.127-.743-.344-.149-.356-.4-.149-.843A1.109,1.109,0,0,1,170.682,72.439Zm4.652-3.074c.323-.5.74-.694,2.242-.595.677.05.981.595,1.675.595.3,0,.9.546,1.26.645.493.149.554.4,1.03.595a1.322,1.322,0,0,1,.7.843,6.036,6.036,0,0,1,.345.991c.126.347-.165.892-.188,1.24a1.687,1.687,0,0,1-.833,1.239,3.79,3.79,0,0,1-1.318.644c-.794,0-.735-.446-1.159-.793a1.591,1.591,0,0,1-.453-1.388c-.041-.446-.435-.595-.541-1.14-.094-.3-.566-.645-.774-1.041-.14-.447-.814-.645-1.372-.893C175.55,70.159,175.046,69.762,175.334,69.365Zm144.831,9.866a2.141,2.141,0,0,1-1.35.595c-.679.1-.9-.694-1.205-.942-.424-.347-.261-1.091-.466-1.636-.105-.545-.6-.545-.441-1.14.075-.5-.3-.694-.625-1.041a8.254,8.254,0,0,0-1.255-.942c-.555-.4-.619-.5-.444-.992.262-.743,1.429-.4,2.336-.3.677.049.75.545,1.444.545.347,0,.9.545,1.26.645.493.148.537.446.946.694a1.125,1.125,0,0,1,.628.892c.123.5.153.694.261,1.091a3.671,3.671,0,0,1-.238,1.239A3.46,3.46,0,0,1,320.165,79.232Zm0-9.717a2.254,2.254,0,0,1,2.321-.4c.709.1,1.254.1,1.529.447.225.347,1.021.2,1.3.545a1.31,1.31,0,0,0,1.013.644c.642.149.534.595.762.794.441.3.237.595.278,1.041.155.545-.111.595-.171,1.19-.055.3-.594.842-.8,1.289-.087.248-1.084.545-1.367.644-.764.2-.788-.3-1.109-.793a4.064,4.064,0,0,1-.5-1.388c-.044-.3-.383-.744-.491-1.14a1.965,1.965,0,0,0-.774-1.042,14.541,14.541,0,0,0-1.354-.942C320.171,70.059,319.926,69.911,320.165,69.514Zm44.419,15.568a2.933,2.933,0,0,1,1.386.149c.394.149.9.4,1.377.595a3.063,3.063,0,0,1,1.194.694c.129.2.855.248.946.694.076.347.3.545.628.892a1.238,1.238,0,0,1,.278,1.041c-.14.4-.118,1.041-.255,1.289a3.292,3.292,0,0,1-.85,1.289,3.152,3.152,0,0,1-1.35.595c-.893,0-.8-.545-1.188-.991s-.292-1.141-.483-1.587c-.126-.347-.08-1.041-.637-1.289a2.479,2.479,0,0,1-.9-1.09c-.306-.4-.453-.546-.814-.645-.493-.149-.849-.545-.409-1.091A1.768,1.768,0,0,1,364.584,85.082Zm4.719-3.123c.139-.4.565-1.041,2.113-.793a11.557,11.557,0,0,1,1.905.644,11.741,11.741,0,0,1,1.31.645,1.907,1.907,0,0,1,.811.793c.129.2.6.545.762.793a5.592,5.592,0,0,0,.3.992,1.858,1.858,0,0,1-.188,1.239,4.546,4.546,0,0,1-.8,1.289,2.139,2.139,0,0,1-1.367.644,1.085,1.085,0,0,1-1.109-.793,10.616,10.616,0,0,0-.453-1.388c-.143-.3-.283-.744-.523-1.19a6.159,6.159,0,0,0-.774-1.041,9.239,9.239,0,0,1-1.371-.892C369.575,82.454,369.093,82.554,369.3,81.959Zm24.951,14.427c-.79.694-1.5.892-2.075,1.388-.5.446-1.288.842-1.894,1.437-.487.4-.67.5-1.073.794a6.511,6.511,0,0,0-1.072.793c-.522.5-.569.347-1.056.743l-1.055.744a7.945,7.945,0,0,1-1.338.843c-.665.2-1.32.793-1.586.843a3.841,3.841,0,0,1-2.184.148c-.327-.2.113-.743.232-.941a2.885,2.885,0,0,1,1.128-1.091A15.3,15.3,0,0,0,383.706,101a2.4,2.4,0,0,1,1.239-.843c.432-.1.4-.446,1.122-.793a3.539,3.539,0,0,0,1.1-.744c.472-.5.636-.4,1.09-.842a2.907,2.907,0,0,1,1.073-.794,1.68,1.68,0,0,0,.991-.842c.171-.347.635-.4.991-.843.373-.5.571-.5.976-.942.455-.446.445-.843.862-1.041.233-.1.641-.694.926-.942.438-.4.393-.694.944-.992a2.432,2.432,0,0,0,.895-.991c.273-.5.512-.893.912-1.041.516-.2.907.1,1.112.644.079.2,1.1.546,1.552.942.651.545,1.156.942.9,1.537-.346.843-1.618.793-2.082.843-.729.1-1.291.991-2.046,1.586-.2.149-.754.595-1.005.744A8.745,8.745,0,0,0,394.254,96.386ZM379.02,111.21a9.456,9.456,0,0,1,1.744-.446c.432-.1,1.294-.3,1.659-.347a18.121,18.121,0,0,1,2.569-.4,24.561,24.561,0,0,0,2.5-.5,14.917,14.917,0,0,1,2.572-.545c.4,0,.851-.446,1.295-.3a5.207,5.207,0,0,0,1.312-.348c.749-.3,1.627-.4,2.542-.743a6.018,6.018,0,0,0,1.28-.4,5.405,5.405,0,0,1,1.3-.446,10.455,10.455,0,0,0,1.449-.6,3.039,3.039,0,0,0,1.4-.595c.3-.3.916-.347,1.417-.644a11.38,11.38,0,0,0,1.417-.645c.653-.446,1-.446,1.4-.743a4.474,4.474,0,0,1,1.4-.744,2.452,2.452,0,0,0,1.352-.744,12.608,12.608,0,0,1,1.387-.843c.452-.3,1.053-.594,1.723-1.09a14.643,14.643,0,0,1,1.708-1.19c.4-.3.956-.744,1.725-1.239.385-.248.882-1.24,1.725-1.24.4,0,.473.347.768.5a3.334,3.334,0,0,1,.943.843c.178.2.648.694.776.892.225.347.3.694.115.942a2.718,2.718,0,0,1-2.347.892c-.513.05-.8.447-1.437.843a6,6,0,0,1-1.487.843,7.938,7.938,0,0,0-1.387.843c-.216.049-.9.595-1.42.793a4.429,4.429,0,0,0-1.42.793,6.485,6.485,0,0,1-1.4.744,5.209,5.209,0,0,1-1.384.694,10.919,10.919,0,0,1-1.467.644c-.7.149-1.1.6-1.65.744-.764.2-1.067.5-1.732.694a7.859,7.859,0,0,0-1.7.6c-.7.3-.965.347-1.7.595-.749.3-1.364.5-1.7.595a4.6,4.6,0,0,1-1.711.5c-.63.1-1.017.5-1.711.5-.613.05-.983.4-1.711.5-.315.05-1.312.347-1.825.4-.811.049-1.114.347-1.759.347a6.527,6.527,0,0,0-1.758.347c-.781.248-1.058.049-1.758.347a9.835,9.835,0,0,1-2.254.347c-.9.149-1.855.2-2.368.248a6.552,6.552,0,0,1-1.831-.149c-.694,0-.768-.5-.681-.744C377.035,112.2,377.684,111.9,379.02,111.21Zm38.094-18.642c-.423-.347-1.079-.595-1.471-.892-.309-.248-1.013-.645-.695-.843a3.534,3.534,0,0,1,1.015-.347c.4-.149.968.347,1.581.3a6.665,6.665,0,0,1,1.756.645,9.14,9.14,0,0,0,1.459.644,7.479,7.479,0,0,1,1.112.645,1.954,1.954,0,0,1,1.077.744c.207.4.636.446.943.842.178.2.45.694.876.893.263.1.49.3.645.843.14.446.249.842.593.991.376.2.3.694.225,1.19a5.882,5.882,0,0,0-.156,1.289c.009.4-.649,1.14-.967,1.338a3.629,3.629,0,0,1-1.467.645,1.755,1.755,0,0,1-1.57-.892,4.8,4.8,0,0,1-.664-1.636c-.055-.546-.481-.744-.456-1.24-.056-.545-.563-.793-.572-1.19-.041-.446-.4-.694-.707-1.09-.16-.248-.581-.744-.774-1.042a2.471,2.471,0,0,0-.858-.941A4.155,4.155,0,0,1,417.114,92.568Z" transform="translate(-0.002 -0.937)" fill="#fff" fill-rule="evenodd"/>
</svg>
