<svg xmlns="http://www.w3.org/2000/svg" width="1040" height="163.218" viewBox="0 0 1040 163.218">
  <g id="maincopy" transform="translate(-2571.292 1943.792)">
    <path id="パス_43857" data-name="パス 43857" d="M2623.638-1880.5a14.377,14.377,0,0,1,1.976-1.236c1.183-.654,2.538-1.381,3.232-1.89a4.871,4.871,0,0,0,1.534-1.018,12.589,12.589,0,0,1,1.606-1.017,14.839,14.839,0,0,0,3.02-2.108,8.814,8.814,0,0,1,1.487-1.09c.641-.363.747-.654,1.415-1.09a15.337,15.337,0,0,0,1.513-1.162,4.963,4.963,0,0,0,1.395-1.236,18.884,18.884,0,0,1,2.743-2.544,13.743,13.743,0,0,0,2.6-2.544c.608-.873,1.448-1.381,2.38-2.544a23.921,23.921,0,0,0,2.26-2.617c.529-.654,1.21-1.526,2.116-2.616.4-.509,1.091-1.6,2-2.689a24.623,24.623,0,0,0,1.851-2.69c.635-.945,1.3-2.18,1.8-2.761s1.1-2.035,1.686-2.835c.708-.945,1.1-2.035,1.614-2.835.456-.655.854-1.745,1.514-2.762a21.324,21.324,0,0,0,1.422-2.908,9.675,9.675,0,0,1,1.349-2.907,9.865,9.865,0,0,0,1.349-2.907,22.237,22.237,0,0,0,1.2-2.907c.113-.509.727-1.6,1.2-2.907.317-.873.2-2.544,1.382-3.2a2.89,2.89,0,0,1,2.557.364c.43.218,1.883.218,3.278.581.839.291,1.361.654,1.771.727.482.073.911.291.574,1.017-.133.364-1.144.945-2.089,1.745a6.926,6.926,0,0,0-2.347,3.053c-.178,1.09-.655,2.4-.708,3.343-.073.8-.37,1.817-.457,3.053a20.529,20.529,0,0,0-.457,3.053c.119.872-.271,1.745-.285,2.98a8.783,8.783,0,0,1-.139,2.98,12.331,12.331,0,0,0-.04,2.907c.045.872.005,2.18.13,2.835.31.945-.053,1.744.218,2.4a4.456,4.456,0,0,1,.343,2.253,5.447,5.447,0,0,0,.443,2.181c.343.654.237,1.744.541,2.108.489.654.271,1.453.641,2.035s.535,1.526.812,1.963a7.18,7.18,0,0,1,.838,1.89,13.171,13.171,0,0,0,.938,1.817,5.7,5.7,0,0,0,1.037,1.745c.3.363.244,1.526,1.109,1.745a2.777,2.777,0,0,1,1.308,1.6c.323.509.918.873,1.334,1.526.251.509,1.084,1.018,1.434,1.454.489.653,1.136.872,1.46,1.38.7.873,1.235.8,1.751,1.381s1.387.582,1.77,1.526c.271.654-1.883.582-2.478,1.018s-1.177.436-2.115,1.017c-.866.582-1.42.51-1.9,1.018a3.635,3.635,0,0,1-1.712,1.308c-1.249.436-1.394-1.163-1.81-1.817-.4-.51-.938-1.018-1.566-1.891-.39-.727-1.17-1.38-1.513-2.035l-1.367-2.035a5.655,5.655,0,0,1-1.169-2.18c-.364-.8-.733-1.381-1.07-2.254a7.631,7.631,0,0,0-1.017-2.4c-.614-.508-.462-1.526-.8-2.4-.277-.436-.192-.873-.475-1.891a3.266,3.266,0,0,1-.476-1.89c.04-.508-.429-1.017-.33-1.889a4.082,4.082,0,0,0-.23-1.962,19.428,19.428,0,0,1-.158-1.963c-.132-.436-.072-1.6-.158-1.963a11.934,11.934,0,0,1,.014-2.035,20.069,20.069,0,0,1,.086-2.036,20.726,20.726,0,0,0,.113-2.107,7.268,7.268,0,0,1,.186-2.108c.2-.945.1-1.672.265-2.326a12.874,12.874,0,0,0,.318-2.471c.073-1.6.536-2.472-.264-2.472-.654,0-1.143.945-1.62,2.253a16.566,16.566,0,0,1-1.309,2.4,5.433,5.433,0,0,0-1.3,2.18,3.413,3.413,0,0,1-1.3,1.963,7.254,7.254,0,0,0-1.223,1.963,10.042,10.042,0,0,0-1.342,1.89,8.251,8.251,0,0,1-1.343,1.889c-.6.654-.767,1.308-1.388,1.817a6.49,6.49,0,0,0-1.362,1.744,9.192,9.192,0,0,1-1.434,1.745,10.7,10.7,0,0,0-1.507,1.745,12.7,12.7,0,0,1-1.554,1.672c-.7.727-.979,1.09-1.527,1.6a15.071,15.071,0,0,1-1.7,1.672,14.793,14.793,0,0,0-1.646,1.526l-1.719,1.526a15.841,15.841,0,0,0-1.692,1.453,7,7,0,0,1-1.884,1.381,15.35,15.35,0,0,0-1.837,1.453,13.054,13.054,0,0,0-1.812,1.381c-.627.727-1.381.8-1.883,1.381a2.887,2.887,0,0,1-1.957,1.381,6.7,6.7,0,0,0-2,1.308c-.74.436-1.189.873-2.029,1.381-.939.582-1.508.945-2.149,1.308-1.011.582-1.9,1.018-2.591,1.526a15.078,15.078,0,0,1-2.927,1.454c-.978.291-1.923,1.091-2.544.8-.938-.218-.972.073-1.341-.509-.3-.581.535-1.671,2-2.689Z" transform="translate(-23.326 -1.979)" fill="#fff"/>
    <path id="パス_43858" data-name="パス 43858" d="M2809.188-1890.313a19.089,19.089,0,0,0-.953,2.617c-.093.654-.239,2.253.4,2.907.608.727,1.11,1.744,2.207,1.526.978-.291,1.546.145,2.4,0a13.733,13.733,0,0,1,2.472,0,4.984,4.984,0,0,0,2.326,0,3.153,3.153,0,0,1,2.326,0,4.609,4.609,0,0,0,2.253,0c.39-.073,1.176.363,2.181,0,.515-.218.667-.436,1.54-1.236a11.637,11.637,0,0,1,1.54-1.236c.84-.509.958-.436,1.513-1.163a3.082,3.082,0,0,1,1.587-1.163,2.9,2.9,0,0,1,2.457,1.236c.589.582.807.582,1.123,1.309.185.29.641.436,1.077,1.235.508.8.964.945,1.433,1.454.258.291.244.727-.139,1.381a2.155,2.155,0,0,1-2.03,1.382,15.327,15.327,0,0,1-2.26.218c-.482-.073-1.11-.146-2.075-.291a18.123,18.123,0,0,0-2.1-.218,36.413,36.413,0,0,1-3.88.073c-1.5-.073-1.916-.726-3.449-.508a17.423,17.423,0,0,1-3.88.072,34.113,34.113,0,0,0-3.807.073,35.657,35.657,0,0,1-3.806.072c-.99-.072-2.471,0-3.78,0a30.351,30.351,0,0,0-3.806.073,12.64,12.64,0,0,1-3.708,0c-1.5-.073-2.5.073-3.707,0a16.451,16.451,0,0,1-3.734.073,31.421,31.421,0,0,0-3.707,0c-1.408.072-2.182,0-3.635,0h-7.342c-.945,0-2.7.436-3.893.508a10.481,10.481,0,0,1-3.674-.29c-1.222-.436-1.256-.945-.991-1.672.211-.581.787-1.163,2.207-1.671,1.666-.582,2.452-.145,3.86-.218,1.48-.073,2.5.509,3.522.509a13.388,13.388,0,0,1,2.98,0,21.252,21.252,0,0,1,3.053,0,10.6,10.6,0,0,0,3.053,0,20.242,20.242,0,0,1,2.98,0,21.415,21.415,0,0,0,3.053,0,10.547,10.547,0,0,1,3.053,0,23.358,23.358,0,0,1,3.2,0c.311.145,1.223-.364,2.3-1.526a7.735,7.735,0,0,0,1.931-2.907l.953-2.617.952-2.617a11.934,11.934,0,0,1,.926-2.544,7.53,7.53,0,0,0,.952-2.617,9.372,9.372,0,0,0-.032-2.908c-.238-.945-.727-1.6-1.625-1.526a35.239,35.239,0,0,0-3.926,0,15.241,15.241,0,0,1-3.635,0,10.44,10.44,0,0,0-3.707,0,29.5,29.5,0,0,1-3.82.509c-1.6,0-3.087.291-3.746-.291a1.537,1.537,0,0,1-.727-1.6,3.887,3.887,0,0,1,1.943-1.744,9.316,9.316,0,0,1,3.932-.218,31.217,31.217,0,0,1,3.45.508,10.549,10.549,0,0,0,3.707,0,15.153,15.153,0,0,1,3.635,0,35.546,35.546,0,0,1,3.926,0,3.344,3.344,0,0,0,2.657-1.308,12.168,12.168,0,0,0,1.963-2.4,5.646,5.646,0,0,1,.82-2.253,13.148,13.148,0,0,0,.794-2.18l.794-2.181a8.759,8.759,0,0,0,.794-2.18,3.809,3.809,0,0,0-.481-2.472c-.628-.873-1.262-1.526-2.167-1.236a5.028,5.028,0,0,1-2.326,0,6.074,6.074,0,0,0-2.326,0c-1,.145-1.573-.073-2.835,0h-2.835a3.448,3.448,0,0,0-2.419.655,8.819,8.819,0,0,0-1.976,1.235c-.628.728-1.243,1.018-1.488,1.89-.238.655-.582.8-1.461,1.817-.78.945-1.885,2.18-2.414,2.835-.806,1.018-1.883,2.18-2.24,2.762a17.882,17.882,0,0,1-2.367,2.907c-1,1.163-1.7,1.89-2.386,2.763a5.335,5.335,0,0,1-1.653,1.744,9.9,9.9,0,0,0-1.844,1.672,4.649,4.649,0,0,1-3.08,1.672c-.919-.073-1.95-.436-.859-2.036.661-1.017,1.917-1.671,2.452-2.543a20.463,20.463,0,0,1,2.341-2.835c.647-.582,1.182-1.454,2.108-2.4a18.5,18.5,0,0,0,1.785-2.108c.232-.436,1.335-1.672,1.666-2.181.2-.363,1.157-1.381,1.639-2.108a16.584,16.584,0,0,0,1.521-2.18,8.964,8.964,0,0,1,1.474-2.253c.635-.945.84-1.308,1.4-2.254a19.837,19.837,0,0,0,1.427-2.325c.364-.8.965-1.454,1.4-2.253.562-.945.793-1.381,1.329-2.253.384-.654,1.018-1.6,1.329-2.254.516-1.017,1.071-1.745,1.283-2.326.3-1.017.259-2.108,1.336-2.472.733-.218,1.758.364,2.26.582a20.557,20.557,0,0,0,2.736.873c.529.145.634.654,1.381.8.482.072.442.581.231,1.162-.291.8-.654.8-1.739,1.381-.442.218-1.579.145-2.227.727-.747.655-.754,1.672-1.342,2.69a2.384,2.384,0,0,0-.1,2.471c.435.8.851,1.454,2.14,1.308a27.553,27.553,0,0,1,3.489,0,4.685,4.685,0,0,0,2.254,0c.542-.29,1.619.146,2.18,0a11.727,11.727,0,0,0,2.815-.945,3.946,3.946,0,0,0,2-1.89c.238-.654.695-2.108,1.218-3.343.416-.945.82-2.253,1.058-2.907a23.456,23.456,0,0,1,1.058-2.908c.49-.945.622-2.107.986-2.907.264-.726.113-2.108.774-3.126a2.291,2.291,0,0,1,2.042-1.017,9.492,9.492,0,0,1,2.65.509,9.645,9.645,0,0,1,2.385.436,2.17,2.17,0,0,1,1.269,1.308c.012,1.163-1.387,1.017-2.5,1.889a7.046,7.046,0,0,0-2.2,2.835,16.461,16.461,0,0,0-.9,2.471c-.067.582-.575,1.381-.873,2.4-.483,1.526-.9,2.471-1.428,3.925-.086.436-.464,1.672.323,2.108.76.509.562,1.454,1.757,1.163a34.05,34.05,0,0,1,3.853,0,31.47,31.47,0,0,1,3.707,0c.965.146,2.5.727,3.489,0,.6-.436.8-.8,1.567-1.308.865-.582,1.024-1.017,1.639-1.308a2.771,2.771,0,0,0,1.612-1.236c.331-.509.668-1.235,1.613-1.235,1.136.073.732,1.381,1.572,1.671.622.291.747.945,1,1.236a4.961,4.961,0,0,0,1.031,1.163c.78.654.839,1.09,1.46,1.381.475.291.171.727-.166,1.454-.687,1.09-1.242,1.017-1.857,1.308a3.434,3.434,0,0,1-1.916.072c-.846-.072-.952-.581-1.778-.508-.535.073-.912-.29-1.712-.29a9.381,9.381,0,0,0-3.5.218,7.61,7.61,0,0,1-3.371.073,15.993,15.993,0,0,0-3.3.073c-.872,0-2.233.145-3.224.073a24.37,24.37,0,0,1-3.271,0c-.674-.145-1.541.436-2.267,1.236a9.267,9.267,0,0,0-1.845,2.472l-.793,2.18-.794,2.181c-.363.8-.635,1.744-.794,2.18l-.82,2.253a2.6,2.6,0,0,0,0,2.4c.29.8.588,1.381,1.269,1.308a11.819,11.819,0,0,1,3.2,0c.72.219,1.943-.145,3.053,0a6.206,6.206,0,0,0,2.835,0,11.757,11.757,0,0,0,2.729-2.108,6.976,6.976,0,0,1,2.73-2.108,1.827,1.827,0,0,1,2.365,1.09,3,3,0,0,0,.958,1.163c.284.218.51.8,1.077,1.236a2.067,2.067,0,0,1,.323,2.907c-1.3,1.163-2.974.581-3.628.581a18.366,18.366,0,0,1-2.835,0l-2.789.073a12.3,12.3,0,0,0-2.835,0,19.393,19.393,0,0,0-2.908,0c-.925.145-2.373-.073-2.908,0a8.131,8.131,0,0,0-1.83.436c-.78.146-1.117.872-2,1.09-.733.218-.972.872-1.739,1.382a2.11,2.11,0,0,0-1.064,1.526,18.8,18.8,0,0,1-.952,2.617c-.192.726-.661,1.817-.926,2.544Z" transform="translate(-95.042 -0.166)" fill="#fff"/>
    <path id="パス_43859" data-name="パス 43859" d="M2984.111-1898.214a17.641,17.641,0,0,1-.834,2.689,16.409,16.409,0,0,1-.879,2.616c-.384.654-.569,1.963-.907,2.689-.2.364-.621,1.308-.371,1.817.456.945.588,1.381,1.163,1.6.621.29,1.427.872,2.213,1.308.714.436,1.262.727,2.167,1.236.429.218.819.945,1.487,1.308.694.291.773.872,1.123,1.308a2.131,2.131,0,0,1,.634,1.454c.08.581-.231,1.235-.119,1.526s-.7,1.526-1.216,1.745c-.959.436-1.19.872-1.917.872-.945,0-1.4-.145-1.586-.436-.37-.582-.951-.582-1.057-1.091-.363-.8-.984-1.09-1.546-1.744-.377-.364-.641-1.236-1.407-1.526-.648-.218-.72-1.018-1.467-1.163a2.19,2.19,0,0,0-2,.509c-1.091.8-2.181,1.6-2.552,1.817a18.952,18.952,0,0,1-1.924,1.091,11.2,11.2,0,0,0-1.851,1.09,3.077,3.077,0,0,1-1.982.654c-.482-.072-1.811.582-2.075.509-.885-.363-1.56.291-2.115.218a4.687,4.687,0,0,0-2.062.073c-1.395.436-2.148-.291-3.039-.436a6.445,6.445,0,0,1-2.458-1.236c-.694-.29-1.136-.872-1.314-2.18a5.15,5.15,0,0,1,.292-3.2,11.2,11.2,0,0,1,2.228-3.125,15.055,15.055,0,0,1,1.586-1.163c.522-.436,1.2-.508,1.8-.945l1.811-.582c.912-.509,1.051-.29,1.831-.436a8.582,8.582,0,0,1,3.331-.363,19.478,19.478,0,0,0,3.555.218,13.249,13.249,0,0,0,2.637.146,2.224,2.224,0,0,0,1.473-.654,6.7,6.7,0,0,0,1.118-2.471l.827-2.471a13.485,13.485,0,0,1,.82-2.254,5.076,5.076,0,0,0,.747-2.253,22.244,22.244,0,0,1,.721-2.181l.774-2.326a7.984,7.984,0,0,1,.906-2.69c.74-1.235.271-1.744,1.038-3.052.284-.581-.568-1.236-1.394-1.163-1.388.218-2.089.146-2.8.291-1.2.291-1.6,0-2.577.291a7.265,7.265,0,0,1-2.379.146,12.254,12.254,0,0,0-2.28.072,5.091,5.091,0,0,1-2.055-.146,10.385,10.385,0,0,1-1.658-.436,3.075,3.075,0,0,0-2.868-.508,8.611,8.611,0,0,0-2.584,1.308,4.791,4.791,0,0,0-1.521,1.381,9.147,9.147,0,0,1-1.554,1.672,9.473,9.473,0,0,0-1.579,1.745,12.085,12.085,0,0,1-1.309,1.6,14.139,14.139,0,0,0-1.666,2.18,4.848,4.848,0,0,1-1.692,2.253,21.076,21.076,0,0,0-1.692,2.254,10.664,10.664,0,0,0-1.574,2.326c-.33.508-.741,1.236-1.5,2.326a9.09,9.09,0,0,0-1.428,2.326c-.265.727-1.037,1.454-1.282,2.326a20.358,20.358,0,0,1-1.282,2.326c-.311.654-.952,1.818-1.164,2.4a6.285,6.285,0,0,1-.86,1.962,13.653,13.653,0,0,0-.6,2.253,25.361,25.361,0,0,1-1.25,3.635c-.3,1.018-1.323,1.236-1.884,1.381-1.468.436-1.9-.582-2.061-1.526a15.309,15.309,0,0,1-.4-1.89,8.6,8.6,0,0,0-.006-2.181c-.027-.727.351-1.962.218-2.4-.2-.436.285-1.381.438-2.4.218-.8.337-1.526.589-2.617a19.117,19.117,0,0,1,.708-2.544l.7-2.326a6.182,6.182,0,0,1,.767-2.108,9.3,9.3,0,0,0,1.21-3.125l1.429-3.126a10.753,10.753,0,0,1,1.573-3.125,14.641,14.641,0,0,1,1.719-3.125,28.423,28.423,0,0,0,1.792-3.126,33.032,33.032,0,0,1,1.838-3.052c.562-.945,1.244-1.817,1.911-3.053a16.121,16.121,0,0,0,1.884-2.98c.489-.945,1.038-1.454,1.348-2.108.212-.581.786-1.162,1.1-1.817a11.446,11.446,0,0,0,1.547-3.053c.027-.872.285-2.18-.224-2.98a1.516,1.516,0,0,1,.629-2.326c.787-.364,1.58-.145,2.445.872a13.8,13.8,0,0,0,.753,1.526c.417.655.139,1.018.542,1.308.569.436.37,1.381.389,2.326a9.4,9.4,0,0,1-.463,2.471,12.806,12.806,0,0,1-1.15,1.963,14.366,14.366,0,0,1-1.461,1.817c-.754.873-1.739,2.181-2.294,2.907-.761,1.09-1.864,2.326-2.149,2.908a23.064,23.064,0,0,1-2.129,3.053,27.848,27.848,0,0,0-1.983,3.053c-.588,1.017-1.4,2.253-1.865,3.125a23.072,23.072,0,0,1-1.693,3.053c-.654.8-.972,2.471-1.58,3.344-.794,1.381-.807,2.617-1.329,3.852-.416.945-.291,1.6.171,1.526.609-.073.906-.29,1.461-1.018.588-1.017,1.223-1.162,1.62-2.253.344-.945,1.183-1.454,1.414-1.89a6,6,0,0,1,1.29-1.744c.324-.291.582-.8,1.236-1.6a6.228,6.228,0,0,0,1.237-1.6c.39-.872,1.1-1.236,1.282-1.526a10.675,10.675,0,0,1,1.309-1.6,8.914,8.914,0,0,0,1.256-1.454c.284-.582.628-.727,1.329-1.454l1.4-1.453c.628-.727,1.071-.945,1.375-1.381.4-.509,1.117-.872,1.421-1.308a7.028,7.028,0,0,1,2.479-1.818,7.093,7.093,0,0,1,2.69-.8c2.227.072,2.035,0,2.538.218a5.309,5.309,0,0,0,2.2.146l3.079-.073a16.634,16.634,0,0,0,3.06-.218,15.759,15.759,0,0,1,3.231-.291,10.1,10.1,0,0,0,3.444-.872c.443-.218.747-.654,1.223-1.962a20.347,20.347,0,0,0,1.488-3.489c.43-1.381.694-2.108,1.072-3.343a2.442,2.442,0,0,0,.033-1.89.977.977,0,0,0-1.057-1.091,5.241,5.241,0,0,1-2.148-.29c-.423-.436-.561-1.454.774-2.326a4.7,4.7,0,0,1,3.073-.654,4.582,4.582,0,0,1,1.976.364,11.638,11.638,0,0,1,2.293,1.09c.806.582,1.308.8,1.7,1.527a2.12,2.12,0,0,1,.33,1.889c-.595,1.236-2.155,1.527-2.24,2.762-.04.509-.609.873-.9,1.672a14.092,14.092,0,0,0-1.237,3.2c-.1.872-.476,1.308.555,1.672.839.29,1.407.727,2.141.509.978-.29,1.606-.218,2.1-.363a8.549,8.549,0,0,1,1.93-.509c.971-.073,1.837-.654,2.419-.654a5.137,5.137,0,0,1,2.451.654,1.478,1.478,0,0,1,.885,1.963,3.6,3.6,0,0,1-2.492,2.253,4.554,4.554,0,0,1-2.022.363c-.655,0-2,.29-2.868.29a13.119,13.119,0,0,0-2.935.073,5.786,5.786,0,0,0-1.666.581c-.694.509-.965.654-1.9,1.235a4.686,4.686,0,0,0-1.6,1.6,11.5,11.5,0,0,0-1.032,2.035c-.39.873-.337,1.526-.621,2.108a19.532,19.532,0,0,0-1.237,3.2Zm-11.165,12.5a15.392,15.392,0,0,1-1.924-.509,11.785,11.785,0,0,0-1.976-.363,11.758,11.758,0,0,0-2.055-.146c-.436,0-1.48.072-1.989.072a6.028,6.028,0,0,0-2.168.363,7.4,7.4,0,0,0-1.97,1.018,3.73,3.73,0,0,0-1.17,1.817,2.043,2.043,0,0,0-.106,1.889c.4.51.456.945,1.2,1.091a3.416,3.416,0,0,1,1.824.581c.4.291,1.117-.073,2.081.072a5.859,5.859,0,0,0,3.4-.363c.787-.364.879-.218,1.738-.582a8.409,8.409,0,0,0,1.725-.945,6.973,6.973,0,0,0,2.069-1.89,1.79,1.79,0,0,0,.516-1.017C2974.234-1885.058,2973.765-1885.568,2972.946-1885.713Z" transform="translate(-177.026 -6.365)" fill="#fff"/>
    <path id="パス_43860" data-name="パス 43860" d="M3128.123-1886.811c1.21.073,2.207-.073,2.908,0,1.229.218,2.015-.145,2.98,0,.746.145,1.625-.073,2.835,0,.8,0,1.777.508,2.835,0a7.248,7.248,0,0,0,1.765-1.454,20.041,20.041,0,0,0,1.864-1.526,6.163,6.163,0,0,1,1.838-1.454c.786-.363,1.037-1.454,1.91-1.454s.535.727.865,1.017c.423.436.291.8.865,1.018.55.291.932,1.235,1.262,1.526a8.61,8.61,0,0,1,1.235,1.6,5.669,5.669,0,0,0,1.222,1.235c.377.364.714.436-.212,1.382-.8.8-1.448,1.381-2.029,1.381h-2.035c-.945,0-1.05-.509-1.942-.654a6.656,6.656,0,0,1-1.9-.364c-1-.436-2.253,0-3.906.146l-3.879.073c-1.526,0-2.353.073-3.833.146a22.226,22.226,0,0,1-3.733.073,21.9,21.9,0,0,1-3.78,0l-3.807.073c-1.044.073-2.518-.073-3.708,0a16.24,16.24,0,0,1-3.733.073c-.991-.073-2.181,0-3.707,0-.971.072-2.228-.073-3.708,0a12.206,12.206,0,0,1-3.635,0,30.191,30.191,0,0,0-3.635,0h-3.707a15.2,15.2,0,0,0-3.635,0c-.733.218-1.507.146-2.069.29a5.182,5.182,0,0,1-2.141.291c-.555-.073-1.7.072-2.035,0a8.468,8.468,0,0,1-2-.291,1.731,1.731,0,0,1-.99-1.671c-.1-.727.978-1.09,2.207-1.672a3.936,3.936,0,0,1,2.214-.291c.582,0,1.343-.29,2.009.073.45.364,1.037.145,1.956.218a14.319,14.319,0,0,0,1.883.218h2.908a19.314,19.314,0,0,0,2.907,0c1.19-.073,1.864.073,2.908,0h2.98a19.405,19.405,0,0,1,2.907,0h2.908c.628.073,2.181,0,2.907,0h2.981a7.654,7.654,0,0,0,2.907,0,20.242,20.242,0,0,1,2.98,0c.654,0,1.844-.073,2.908,0Z" transform="translate(-247.702 -24.746)" fill="#fff"/>
    <path id="パス_43861" data-name="パス 43861" d="M3296.378-1935.325c.5.436.694,1.09-.159,2.035a4.449,4.449,0,0,1-1.857,1.308,8.808,8.808,0,0,1-1.963,0c-.409-.072-1.176-.363-1.9-.581a17.029,17.029,0,0,0-1.784-.291c-.892-.145-2.233.145-3.661.073a10.162,10.162,0,0,0-3.615.145,12.072,12.072,0,0,1-3.588.073c-1.163,0-2.789.073-3.589.073a31.627,31.627,0,0,1-3.588.073,27.934,27.934,0,0,0-3.49,0,11.3,11.3,0,0,0-3.515.073c-1.368.363-2.035,0-3.489,0a11.447,11.447,0,0,0-3.515.073,11.169,11.169,0,0,1-3.49,0,8.887,8.887,0,0,0-3.417,0,6.648,6.648,0,0,1-3.416,0c-1.083-.218-3.145.654-4.216,0-.311-.145-1.639.509-2.366,1.308a17.049,17.049,0,0,0-2.209,2.471c-.192.726-1.222,1.963-1.1,2.835a2.444,2.444,0,0,0,.363,1.6,3.415,3.415,0,0,0,1.771.727c1.334-.073,2.4,0,3.707,0,.8,0,2.788-.073,3.635,0s1.513-.363,2.511-1.308a11.426,11.426,0,0,0,1.891-2.4,18.614,18.614,0,0,1,1.164-3.2c.376-.436.76-.29,1.731-.363,1.071-.145,1.434-.145,2.479-.218.364,0,1.731.436,2.214.509a1.622,1.622,0,0,1,.938,1.817c-.192,1.526-2.208,1.672-2.578,1.89a6.413,6.413,0,0,0-1.877,1.963c-.278.363-.2.945.674.945a9.742,9.742,0,0,0,1.976.363c.925-.145,2.445.072,3.707,0a15.053,15.053,0,0,1,3.635,0c.647.218,1.415-.291,2.511-1.308.8-.8,1.461-1.818,1.811-2.181.6-.654-.2-3.053,1.231-3.78.515-.218.549.291,1.8-.145a7,7,0,0,1,2.426-.073,2.5,2.5,0,0,1,2.213.509,2.322,2.322,0,0,1,.938,1.817c.369,1.381-1.785,1.308-2.578,1.89a7.125,7.125,0,0,0-1.878,1.963c-.429.581.192.872.82.945a9.168,9.168,0,0,0,2.339.363c1.17-.219,2.8.291,4,0a2.974,2.974,0,0,0,1.812-1.381c.33-.508,1.064-.727,1.612-1.235.648-.582,1.705-1.091,2.829-2.181.476-.509.713.436,1.176,1.163.416.654,1.11.945,1.619,1.745.37.582,1.546.945,1.889,1.6a1.484,1.484,0,0,1-.186,2.108,6.85,6.85,0,0,1-2.677,1.963,6.356,6.356,0,0,1-2.644.072,9.928,9.928,0,0,1-2.643-.727,10.811,10.811,0,0,0-2.53-.436,8.865,8.865,0,0,1-2.425.072c-.958-.364-1.8.364-2.425.073a5.1,5.1,0,0,0-3.113,1.163,8.2,8.2,0,0,0-2.129,2.253c-.324,1.09-.894,3.053-1.238,4a24.362,24.362,0,0,0-1.064,3.125c-.238.654-1.177,1.236-2.089,1.745-1.13.509-1.917.872-2.511.509-.4-.291.3-1.817-.375-1.962-.483-.073-.37-.582-1.071-.654-.773-.073-1.493-.291-2.075-.291-.872,0-2.663-.073-3.635,0a12.342,12.342,0,0,1-3.707,0c-.311-.145-1.9.436-2.34.436a2.522,2.522,0,0,0-1.613,1.236,2.234,2.234,0,0,1-1.851,1.89c-1.117.073-1.685.436-2.267.436-.872,0-1.553.072-1.229-1.018a29.168,29.168,0,0,1,1.144-3.343l1.263-3.271a33.714,33.714,0,0,1,1.389-3.416,2.008,2.008,0,0,0-.33-1.89c-.488-.654-.766-1.09-1.691-.945a30.294,30.294,0,0,1-3.635,0c-.872,0-2.57.073-3.707,0-.991-.073-1.884.582-2.32.582-.873,0-1.52.582-1.362.945.152.581-.4,1.308-.714,1.962a6.789,6.789,0,0,0-.9,2.472,4.914,4.914,0,0,1-.9,2.471,8.86,8.86,0,0,0-.972,2.471c-.344.945-.72,1.381-1.019,2.4a10.611,10.611,0,0,1-1.044,2.471,7.47,7.47,0,0,1-1.118,2.471c-.456.654-.556,1.526-1.164,2.4a10.617,10.617,0,0,0-1.263,2.472c-.317.873-1.356,2.326-1.693,3.053a30.653,30.653,0,0,1-1.733,2.762c-.833,1.09-1.566,2.108-1.97,2.617a16.3,16.3,0,0,0-1.871,2.544,16.839,16.839,0,0,1-2.089,2.544c-.78.945-1.705,1.89-2.109,2.4-.556.727-1.077,1.163-1.354,1.527a8.014,8.014,0,0,1-1.7,1.671c-1.084.582-2.393,1.382-3.139,1.236-.72-.218-.561-1.453.3-2.616a34.432,34.432,0,0,1,2.32-2.98,11.068,11.068,0,0,0,1.957-2.18c.364-.8,1.2-1.308,1.812-2.181a19.678,19.678,0,0,0,2.2-3.053,24.575,24.575,0,0,1,2.036-3.2,31.363,31.363,0,0,1,1.673-3.2,31.9,31.9,0,0,0,1.627-3.271,7.609,7.609,0,0,0,.939-2.18,13.647,13.647,0,0,1,.938-2.181,16.031,16.031,0,0,0,.94-2.18,8.525,8.525,0,0,0,.866-2.181c.027-.872.5-1.163.867-2.18.317-.872.429-1.381.793-2.18.489-.945.437-1.6.866-2.18a7.052,7.052,0,0,0,.82-2.254c.059-.363.7-1.527.846-2.326a14.808,14.808,0,0,1,.847-2.326,15.728,15.728,0,0,0,.872-2.4c.113-.509.609-1.671.774-2.326a8,8,0,0,1,.873-2.4,5.016,5.016,0,0,0,.846-2.326c.027-.872.86-1.963.9-2.471a4.827,4.827,0,0,1,.827-2.471c1.3-1.163,2.65-.292,3.681.073.648.218,1.719.872,2.293,1.09.667.364,1.962,0,2.544,0h5.234c.846.072,1.7-.291,2.616,0a11.466,11.466,0,0,0,2.762,0,17.5,17.5,0,0,0,2.762,0,9.961,9.961,0,0,0,3.285-.436c1.467-.436,1.632-.29,1.864-.726.708-1.745.966-3.053,1.383-4,.291-.8.232-2.035,1.012-2.98.681-.873,1.031-.436,2.048-.436a5.412,5.412,0,0,1,2.967.436c1.025.582,2.479.582,2.161,1.454-.133.363-1.164.8-2.017,1.745-.251.29-1.791,1.526-1.976,2.834a1.221,1.221,0,0,0,.825,1.526,13.08,13.08,0,0,0,2.841.582,10.385,10.385,0,0,0,2.617,0,15.688,15.688,0,0,0,2.616,0c.978-.291,1.236,0,2.472,0a13.959,13.959,0,0,1,2.471,0c.72.218,1.751-.218,2.4,0,.482.072,1.46.582,2.326,0,.37-.218.634-.945,1.712-1.308.687-.291.846-.727,1.441-1.163.992-.727,1.825-1.818,2.631-2.036.39-.073.727.8,1.13,1.09.449.363.937,1.017,1.572,1.672Zm-53.18,31.472a16.348,16.348,0,0,0,3.271,0,23.558,23.558,0,0,1,3.2,0c.8,0,2.207-.072,3.27,0a23.5,23.5,0,0,0,3.2,0,23.538,23.538,0,0,1,3.2,0c1.355.073,2.326,0,3.271,0,1.162,0,1.824.582,3.271,0,.588-.218.6-.654,1.4-1.453.45-.436.807-1.018,1.771-.872.7.073.74.364,1.315.581.766.291.727.8,1.341,1.308a2.173,2.173,0,0,1,.991,1.672c.026.727.336.872.152,1.38-.324,1.091-.959,1.236-2.082,1.526a4.463,4.463,0,0,0-2.419.655c-.84.508-1.2,1.308-1.672,1.6a9.786,9.786,0,0,0-1.791,1.526,21.374,21.374,0,0,1-1.818,1.6,15.989,15.989,0,0,1-1.837,1.453,35,35,0,0,1-2.928,2.254,8.072,8.072,0,0,0-2.089,2.544c-.238.654-.535,1.672.349,2.035.648.218,1.408.727,2.009.873.985.29,1.474.945,2.756,1.017.726,0,1.724.654,2.834.8a15.741,15.741,0,0,1,2.887.654c1.124.509,1.692.145,2.941.509a3.982,3.982,0,0,0,1.87-.146c.608-.073,1.52-.582,2.075-.508a15.893,15.893,0,0,1,1.791.072,1.132,1.132,0,0,1,.832,1.308,7.129,7.129,0,0,1-.786,1.963c-.384.654-1.309.8-1.93,1.308-.846.727-1.592.581-2.214,1.09a15.286,15.286,0,0,0-1.567,1.308c-1.177,1.235-2.419-.146-3.284-.364a12.177,12.177,0,0,0-3.033-.654c-1.3-.218-1.745-.8-2.881-.872a6.621,6.621,0,0,1-2.683-1.018,14.92,14.92,0,0,0-2.6-1.235,6.565,6.565,0,0,1-2.452-1.454,2.231,2.231,0,0,0-1.565-1.09c-.918-.073-.991-.873-1.494-1.091a3.238,3.238,0,0,0-1.784-.291,15.337,15.337,0,0,0-2.194.436c-.925.146-1.625.872-2.7,1.236a14.9,14.9,0,0,0-2.676,1.163,8.341,8.341,0,0,1-2.036.8,9.4,9.4,0,0,0-1.936.727c-.813.436-1.269.29-1.983.654a4.423,4.423,0,0,1-1.91.654c-.972.073-1.084.581-1.956.581a7.377,7.377,0,0,0-2,.509,9.778,9.778,0,0,0-2,.509c-.634.146-1.342.291-2,.509a5.042,5.042,0,0,1-2.34.436l-2.722.291c-.945,0-1.751.218-2.2-.145a2.376,2.376,0,0,1-.792-1.018c-.086-.363.126-.945.959-1.235a15.8,15.8,0,0,1,2.088-.945,8.094,8.094,0,0,0,2.445-.727c1.25-.436,1.7-.291,2.293-.509.932-.364,2.366-.509,3.662-.872a35.112,35.112,0,0,0,3.641-1.018,13.189,13.189,0,0,1,3.622-1.163c.581,0,1.275-.508,1.837-.654a5.894,5.894,0,0,0,1.811-.582,12.541,12.541,0,0,1,3.12-1.381c.852-.145,1.236-.8,2.035-1.6.945-.8,1.084-1.381.482-1.526-.72-.218-.627-.873-.977-1.309-.608-.727-.938-1.017-1.018-1.6-.1-.727-.429-1.018-.99-1.672a2.811,2.811,0,0,1-.746-1.745c.059-.363-.6-.945-.7-1.672-.126-.654-.277-1.236-.449-1.962-.106-.509-.991-.872-1.711-1.09a15.056,15.056,0,0,0-2.914-.582c-.8,0-1.348-.291-1.956-.218a17.92,17.92,0,0,1-1.884-.218,1.176,1.176,0,0,1-1.063-1.672,3.546,3.546,0,0,1,2.281-1.671,14.164,14.164,0,0,1,3.832-.146,27.315,27.315,0,0,1,3.476.436Zm17.028,4.143c-.449-.364-.66-.582-1.182-.945-.641-.436-1.52-.218-1.83-.364-.622-.29-2.544,0-3.635,0a29.982,29.982,0,0,0-3.635,0c-.681.073-1.56.291-2.1.364a4.476,4.476,0,0,0-1.824,1.017,2.279,2.279,0,0,0-1.2,2.69,18.9,18.9,0,0,1,1.1,1.962,4.144,4.144,0,0,0,1.354,1.672c.687.509.785,1.236,1.281,1.672a4.13,4.13,0,0,0,2.141.509,3.4,3.4,0,0,0,2.346-.654c.6-.655,1.5-.727,2.208-1.672.609-.871,1.8-.945,2.307-1.744.179-.291,1.494-1.308,2.268-2.036C3260.51-1897.892,3260.96-1899.128,3260.226-1899.71Zm-9.292-15.409c-.358.581.218.8.621,1.09a6.276,6.276,0,0,0,1.9.581,15.784,15.784,0,0,0,3.707,0,12.018,12.018,0,0,0,3.635,0,22.67,22.67,0,0,0,2.459-1.163,3.858,3.858,0,0,0,1.885-2.181c.113-.508.528-1.453.74-2.035s.146-.8-.667-1.163-1.188-.727-1.849-.509c-1.078.364-2.836,0-3.635,0-1.553.073-2.729.509-3.708,0a3.936,3.936,0,0,0-2.458,1.163c-1.243,1.017-1.865,1.526-1.884,2.18A7.549,7.549,0,0,1,3250.934-1915.118Z" transform="translate(-307.723)" fill="#fff"/>
    <path id="パス_43862" data-name="パス 43862" d="M3440.919-1917.915a4.251,4.251,0,0,1,2.485-.436,2.069,2.069,0,0,1,1.434.654c.258.29.238.945.271,1.453.052.655-.635.945-1.534,1.818a3.557,3.557,0,0,1-2.167,1.162,26.921,26.921,0,0,0-3.457,1.309c-1.3.581-2.545.8-3.529,1.308a21.194,21.194,0,0,1-3.4,1.163c-.806.218-1.566,1.308-2.109,1.6a1.551,1.551,0,0,0-.786,1.963l.528,2.544.627,2.471a17.456,17.456,0,0,0,.872,2.4c.482.872.006,1.38.667,1.962.376.363.152,1.381.31,1.744.4,1.09-.5,2.181-.536,3.271a3.2,3.2,0,0,1-2.736,2.326c-.826.073-1.527-.8-2.147-1.091a3.324,3.324,0,0,1-1.421-1.09,2.707,2.707,0,0,0-1.5-.872,1.744,1.744,0,0,1-1.48-.727c-.33-.291-1.037-.145-1.512-.436a5.79,5.79,0,0,0-3.205-.582,14.684,14.684,0,0,1-3.146-.145l-3.932.218c-.582,0-1.8.363-2.24.363a9.282,9.282,0,0,1-2.32.582,5.181,5.181,0,0,0-2.108.8c-.879.218-1.263.872-1.95,1.163a3,3,0,0,0-1.6,1.6,16.776,16.776,0,0,1-1.078,1.963c-.661,1.017-.536,1.672-.278,1.962.35.436.059,1.236.654,1.6.521.364.766,1.09,1.367,1.235a19.859,19.859,0,0,1,1.91.945,21.772,21.772,0,0,0,2.233.655,7,7,0,0,0,2.312.436,19.284,19.284,0,0,1,2.174.218c.965.146,1.58-.145,1.864.073.713.436,1.8.436,3.443-.073a11.7,11.7,0,0,1,2.736.073,3.01,3.01,0,0,1,1.9.581c1.11.945,1.143,1.454.844,2.471a2.4,2.4,0,0,1-2.115,1.817l-3.284.436h-3.053c-1.018,0-1.982-.145-2.954-.073a5.342,5.342,0,0,1-3.139-.363c-.859-.436-2.227-.073-3.251-.654-.621-.291-.852-.654-1.559-.509a1.136,1.136,0,0,1-1.46-.581,3.124,3.124,0,0,0-1.335-.727,4.951,4.951,0,0,1-1.163-.8c-.33-.291-.5-1.018-.938-1.018-.727,0-.469-.508-.766-1.09a4.41,4.41,0,0,1-.693-2.689,9.693,9.693,0,0,1,.589-3.416,8.183,8.183,0,0,1,1.541-2.835,13.815,13.815,0,0,1,2.3-2.326,31.578,31.578,0,0,0,2.742-1.745,7.363,7.363,0,0,1,3.146-1.453c1.15-.363,2.075-.509,3.178-.945,1.349-.508,2.359-.291,3.146-.654a4.955,4.955,0,0,1,2.941-.29c.6.146,1.9-.436,2.524-.145.932.436,2.227.073,3.1.073,1.017,0,1.176.363,2.134-.073a9.492,9.492,0,0,1,1.956-.581,2.223,2.223,0,0,0,1.8-1.963,7.825,7.825,0,0,0-.448-2.762,4.3,4.3,0,0,1-.191-1.672c.086-.436-1.738-1.018-2.557-1.163-1.09,0-1.784.509-2.6.364a8.9,8.9,0,0,0-2.676.364,28.691,28.691,0,0,1-3.919.581,23.364,23.364,0,0,1-3.641.218,6.347,6.347,0,0,1-1.983-.145,5.7,5.7,0,0,0-1.824-.582c-.945,0-.819-.945-1.176-1.163-.429-.218-.237-.945.013-2.035.166-.654.708-.945,1-1.744.139-.582,1.282-1.526,1.56-1.89s1.4-1.236,2.195-2.035a19.26,19.26,0,0,1,2.657-2.108c1.732-1.163,1.824-1.817,1.719-2.326-.178-.509-.885-.364-1.123-.509a6.3,6.3,0,0,0-2.445-.073,21.723,21.723,0,0,1-2.8-.29c-1.308,0-1.7-.727-2.59-.873a2.2,2.2,0,0,1-1.711-1.09,1.359,1.359,0,0,1-.251-1.308c.04-.509,2.022-1.163,3.628-.582.529.146,1.573.073,2.557.364a10.392,10.392,0,0,0,2.247.218,26.418,26.418,0,0,0,3.277-.218c1.143-.146,2.022-.364,3.411-.582.779-.146,2.762-.8,3.688-.945a4.477,4.477,0,0,0,2.035-1.6,12.747,12.747,0,0,0,1.19-2.472c.146-.8-.482-.873.033-1.889.365-.8.034-1.091.107-1.89.046-.727-.31-.945-.912-1.09a9.969,9.969,0,0,0-1.665-.218c-1.163,0-2.385-.436-1.738-1.817a3.774,3.774,0,0,1,2.195-2.035,11.266,11.266,0,0,1,2.6-.364,7.4,7.4,0,0,1,1.811.218,20.2,20.2,0,0,0,2.042.581,5.148,5.148,0,0,1,1.492,1.09,3.059,3.059,0,0,1,.218,1.6c.007.581-.872,1.6-1.077,1.963-.667,1.236-.457,2.253-.721,2.98-.391.873.37,1.382.9,1.526a6.046,6.046,0,0,0,2.1.218c.8,0,2.115-1.018,2.822-1.163,1.513-.364,2.122-1.236,3.007-1.672.938-.581,1.58-.945,2.418-.654s1.276.291,1.732.436c.648.218.575,1.018.462,1.526-.225,1.018-1.865,1.526-2.684,2.181a16.988,16.988,0,0,1-2.922,1.236c-.958.436-2.227.726-2.941,1.09-.641.364-2.049.436-3.159,1.091a6.786,6.786,0,0,0-1.686,1.235c-.727.8-.833,1.09-.846,1.526l-.106,2.69a25.081,25.081,0,0,1-.021,3.052c-.113.509,1.532,1.381,1.968,1.381,1.164,0,2.3-.728,3.47-.945.978-.291,1.447-.581,2.723-1.091.589-.218,1.705-1.09,2.637-1.453Zm-26.018,2.18c-.766.509-2.055,1.454-2.379,1.744-1,.945-1.487,1.09-2.135,1.672a10.74,10.74,0,0,0-1.626,1.672,2.671,2.671,0,0,0-.893,1.454c-.45,1.235.951,1.381,2.332,1.381,1.091,0,2.333-.218,3.232-.291a34.657,34.657,0,0,0,3.535-.727c1.2-.29,2.822-.363,3.615-.945a9.117,9.117,0,0,0,2.036-1.6,5.4,5.4,0,0,0,.94-2.18,3.908,3.908,0,0,0-.039-2.69,5.749,5.749,0,0,1,.021-2.253c.053-.945-1.1-1.963-1.652-1.453a10.8,10.8,0,0,1-2.293,1.308,6.051,6.051,0,0,0-1.851,1.091Z" transform="translate(-398.283 -3.164)" fill="#fff"/>
    <path id="パス_43863" data-name="パス 43863" d="M3573.553-1923.406a28.184,28.184,0,0,1,2.5-2.689c.522-.437.8-.8,1.448-1.381a6.321,6.321,0,0,1,1.54-1.236c.588-.218,1.144-.945,1.56-1.09a16.32,16.32,0,0,1,1.6-.8,14.966,14.966,0,0,1,3.417-.8,6.416,6.416,0,0,1,3.08.727c.43.219.462.727.991.873s.7.872.839,1.09c.278.436.027.727.469,1.309a1.618,1.618,0,0,1,.343,1.453,5.061,5.061,0,0,0,.118,1.672,4.247,4.247,0,0,0-.053,1.744,5.171,5.171,0,0,1-.225,1.817c-.238.654-.066,1.381-.324,1.89-.721,1.382-.417,2.544-.815,3.635-.429,1.381-.747,2.253-1.124,3.489a21.953,21.953,0,0,1-.959,2.835,8.37,8.37,0,0,1-.893,2.253c-.377.436-.661,1.817-.991,2.326a8.621,8.621,0,0,0-1.065,2.326c-.318.872-.867,1.381-1.257,2.253-.285.582-.82,1.454-1.329,2.253a10.511,10.511,0,0,1-1.448,2.18c-.476.509-1.209,1.526-1.639,2.107-.682.873-1.15,1.163-1.785,2.108a5.329,5.329,0,0,1-1.573,1.526c-.694.509-.886,1.236-1.573,1.527a5.167,5.167,0,0,0-1.692,1.454,6.061,6.061,0,0,1-1.711,1.308c-.74.436-1.151,1.162-1.765,1.454-.443.218-1.308.8-1.678,1.017a20.366,20.366,0,0,1-3.854,2.4,31.187,31.187,0,0,1-3.562,1.6c-1.547.654-2.115,1.017-3.02,1.308a32.7,32.7,0,0,1-3.529,1.308,5.943,5.943,0,0,1-3.728.654c-.819-.145-.6-1.745.074-2.4.575-.581,1.765-.654,2.65-1.09a19.24,19.24,0,0,0,1.91-.655,10.819,10.819,0,0,1,1.5-.727c.912-.508,1.566-.508,2.035-.8.985-.509,1.282-.727,1.97-1.018a10.7,10.7,0,0,0,1.824-1.018c.424-.363,2.235-.945,3.067-2.035.4-.509,1.229-.582,2.128-1.454.774-.727,1.236-.8,1.943-1.744a19.3,19.3,0,0,1,1.546-1.454,7.108,7.108,0,0,0,1.5-1.526,7.018,7.018,0,0,1,1.355-1.526,5.834,5.834,0,0,0,1.309-1.6,10.1,10.1,0,0,1,1.19-1.672c.5-.581.793-1.38,1.19-1.671a11.3,11.3,0,0,0,2.142-3.489c.516-1.018,1.2-2.108,1.8-3.562.318-.872,1.144-2.544,1.66-3.562a15.018,15.018,0,0,1,1.4-3.634c.582-.8.595-2.035,1.283-3.925a16.631,16.631,0,0,0,.662-2.617c.04-.509.469-1.889.543-2.689a16.493,16.493,0,0,0,.172-2.471c.1-.873-.277-1.236-.3-2.181.04-.509-.575-1.017-.853-1.454s-1-.436-1.533-.581c-.839-.291-2.062.073-3.45,1.09-.767.509-1.17,1.017-1.54,1.236a2.744,2.744,0,0,0-1.4,1.454c-.324,1.09-1.111,1.453-1.957,2.181a9.7,9.7,0,0,0-1.91,2.253,26.19,26.19,0,0,1-1.838,2.253,16.365,16.365,0,0,1-1.818,2.4,16.992,16.992,0,0,0-1.646,2.326,12.869,12.869,0,0,0-1.672,2.4c-.272.945-1.216,1.745-1.527,2.4a17,17,0,0,1-1.454,2.4,6.116,6.116,0,0,0-1.283,2.326c-.264.726-.767,1.308-1.012,2.18-.251,1.091-.456,1.454-.6,2.254a10.239,10.239,0,0,1-.675,2.253,3.625,3.625,0,0,1-1.223,1.962c-.523.436-1.276,1.308-2.043,1.018-.694-.29-.773-.073-1.169-.582a2.284,2.284,0,0,1-.607-1.526c-.013-1.163-.29-1.6-.006-2.18.443-1.017.067-1.381.344-2.544.251-1.09.239-1.454.563-2.544.238-.654.258-1.308.681-2.471.681-1.672,1.177-2.835,1.045-3.27-.1-.727.708-1.745.919-2.326a15.992,15.992,0,0,0,.919-2.326,16.268,16.268,0,0,1,1.038-2.253,9.95,9.95,0,0,0,1.137-2.326,9.406,9.406,0,0,1,1.137-2.326,11.266,11.266,0,0,0,1.21-2.326c.086-.436,1.025-1.817,1.184-2.253a13.276,13.276,0,0,1,1.283-2.326c.84-1.308,1.065-2.326,1.719-3.126a13.58,13.58,0,0,0,1.124-2.689,4.575,4.575,0,0,0-.547-2.689c-.311-.945-.766-1.89.437-2.4,1.15-.363,2.228-.727,2.537.219.132.436.688.509.912,1.09a4.514,4.514,0,0,0,.693,1.091c.542.509.5,1.235.614,2.108a9.716,9.716,0,0,1-.391,2.471,4.106,4.106,0,0,1-1.111,2.253c-.707.945-.82,1.454-1.349,2.108a11.826,11.826,0,0,0-1.679,2.617c-.364.8-1.163,1.6-1.679,2.617a16.376,16.376,0,0,1-1.587,2.761,4.537,4.537,0,0,0-.9,1.672,9.7,9.7,0,0,1-1.131,2.108c-.727,1.6-1.025,2.617-.6,3.052.165.145,1.3-.581,2.188-1.817.582-.8,1.461-1.817,2.2-2.835a11.574,11.574,0,0,0,1.917-2.471,15.6,15.6,0,0,1,1.812-2.181Z" transform="translate(-473.685 -2.542)" fill="#fff"/>
    <path id="パス_43864" data-name="パス 43864" d="M3686.37-1845.277a23.314,23.314,0,0,1-1.8,1.963,10.046,10.046,0,0,1-2.016,1.745,24.508,24.508,0,0,1-2.273,1.453,7.675,7.675,0,0,1-2.333,1.018c-.833.29-1.322.436-2.445.727a6.157,6.157,0,0,1-2.333.218,12.52,12.52,0,0,1-2.247-.218,7.769,7.769,0,0,1-1.917-.727,7.758,7.758,0,0,0-1.592-1.018,5.811,5.811,0,0,1-1.143-1.453,10.344,10.344,0,0,1-.845-1.672,8.933,8.933,0,0,1-.3-1.962c-.02-.945-.548-1.09.066-2.181.462-.872.232-1.235.628-2.325.47-1.091.338-1.526,1.038-2.254.681-.872.787-1.162,1.521-2.18.3-.436,1.256-1.453,1.732-1.962.351-.364,1.216-.945,2.089-1.745a8.337,8.337,0,0,1,2.175-1.381,16.84,16.84,0,0,0,2.431-1.091,9.274,9.274,0,0,1,2.346-.654,16.32,16.32,0,0,1,2.432-.291,5.767,5.767,0,0,1,2.22.291,13.407,13.407,0,0,0,1.87.654,8.386,8.386,0,0,1,1.566,1.091c.594.364.772.872,1.242,1.381a2.195,2.195,0,0,1,.746,1.745,13.012,13.012,0,0,0,.376,1.962,6.98,6.98,0,0,1-.113,2.108c-.2.945-.02,1.454-.556,2.326a14.838,14.838,0,0,0-1.137,2.325A10.84,10.84,0,0,1,3686.37-1845.277Zm-.275-7.632a5.925,5.925,0,0,0-.792-2.617,4.893,4.893,0,0,0-1.982-1.745,5.114,5.114,0,0,0-2.96-.654c-1.124.29-2.7.436-3.437.654a10.9,10.9,0,0,0-3.279,1.817,14.726,14.726,0,0,0-2.7,2.616c-.51.8-1.072,1.745-1.818,3.2a12.062,12.062,0,0,0-.483,3.126c-.021.654-.146.8.224,1.38a5.667,5.667,0,0,1,.568,1.236,1.585,1.585,0,0,0,.866,1.018c.568.436.786.436,1.116.727.8.8,1.922.508,2.887.654a10.6,10.6,0,0,0,3.437-.654c.78-.145.886-.436,1.646-.727A5.368,5.368,0,0,0,3681-1843.9c.522-.436,1.17-1.018,1.468-1.236a15.845,15.845,0,0,0,1.3-1.38,7.162,7.162,0,0,0,1.818-3.2A9.129,9.129,0,0,0,3686.095-1852.909Z" transform="translate(-529.647 -39.968)" fill="#fff"/>
    <path id="パス_43865" data-name="パス 43865" d="M2585.638-1699.592c-.885.436-1.117.872-1.771.872-.51,0-1.745.8-2.135.872-.681.073-1.448.582-2.055.655a27.559,27.559,0,0,1-3.919.582c-1.038-.145-1.949-.436-2.385-.436a2.162,2.162,0,0,1-1.539-1.163,4.755,4.755,0,0,1-.522-1.962,21.611,21.611,0,0,1,.418-2.544,7.844,7.844,0,0,1,1.521-2.98c.5-.581,1.514-1.963,2.1-2.762a8.34,8.34,0,0,1,2.624-2.617c1.117-.872,1.375-1.381,2.737-2.326a7.568,7.568,0,0,0,1.91-1.453,3.6,3.6,0,0,1,2.03-1.382,7.607,7.607,0,0,0,2.048-1.235c1.137-.727,1.316-1.018,2.1-1.163a5.149,5.149,0,0,0,2.095-1.163c.5-.363,1.124-.291,2.115-1.017a6.042,6.042,0,0,1,2.088-.945c1.077-.363,1.361-.145,2.114-1.017a5.588,5.588,0,0,0,.933-1.963,11.88,11.88,0,0,1,.939-2.18,15.629,15.629,0,0,1,1.091-2.4,9.252,9.252,0,0,1,1.2-2.689c.3-.436-1.361-.654-2.213-.509a8.978,8.978,0,0,1-2.353.073c-.812-.364-1.652.145-2.009-.073-.429-.218-1.315.218-1.811-.218a8.626,8.626,0,0,0-1.658-.436c-.694-.29-1.064-.072-1.361-.653-.185-.292-.9-.727-1.222-1.236-.3-.582-.739-1.162-1.063-1.672a9.3,9.3,0,0,1-.529-1.744c-.271-.654.2-.945.476-1.308.5-.581,1.758-.436,2.254.8.224.582,1.017.8,1.249,1.163a1.815,1.815,0,0,0,1.236.8,15.52,15.52,0,0,0,2.577.508,13.493,13.493,0,0,1,2.954.073,20.567,20.567,0,0,0,2.6-.146,6.084,6.084,0,0,0,3.04-.364c.515-.218.681-.872.953-1.817a6.629,6.629,0,0,1,1.1-2.035,9.945,9.945,0,0,0,1.693-3.853c.2-.945-.72-1.017-2.22-1.09-.945,0-2.485-.363-1.936-1.672a3.053,3.053,0,0,1,2.287-1.89,21.555,21.555,0,0,1,2.65-.29,2.16,2.16,0,0,1,1.824.581c.4.509,1.546.945,2.041,1.381.78.654.859,1.235,1.474,1.744q.673.545.237,1.744a7.941,7.941,0,0,1-1.607,1.818,5.279,5.279,0,0,0-1.3,1.38,20.613,20.613,0,0,0-1.54,2.036c-.265.727,1.618.145,3.145.145a16.877,16.877,0,0,0,2.782-.654,12.461,12.461,0,0,0,3.622-1.163c.767-.509,2.062-.873,3.219-1.454a5.442,5.442,0,0,1,3.1-.727,2.866,2.866,0,0,1,1.678.581c.542.509.892.945.436,1.6a8.946,8.946,0,0,1-2.367,2.107,13.045,13.045,0,0,1-3.622,1.163,9.456,9.456,0,0,0-3.588.872,22.238,22.238,0,0,1-5.036,1.453c-1.559.291-2.624,1.018-3.688.945-.727,0-1.6.8-2.426,1.672a10.326,10.326,0,0,0-2.042,2.617,20.844,20.844,0,0,1-1.064,2.326c-.615,1.09-.391,1.671.158,1.963a3.037,3.037,0,0,0,2,.508c.925-.146,1.619-.654,2.61-.582,1.136.073,2.881-.727,3.846-.582.819.146,1.375-.581,1.97-1.017.767-.509,1.051-1.091.991-1.526-.125-.654-2.253-.8-1.612-1.963.821-1.453,2.036-.8,3.768-.364a3.208,3.208,0,0,1,1.942,1.454c.278.436,1.209.873,1.011,1.817a1.347,1.347,0,0,0,.879,1.381,4.808,4.808,0,0,1,1.909.945c.2.436.984.29,1.579.654.667.363,1.1.363,1.652.655.429.218.865.218,1.308.8a1.773,1.773,0,0,0,1.182.945c.482.073.806.581,1.031,1.163.2.436.7.873.8,1.381.192.872.654,1.6.76,2.108a7.311,7.311,0,0,1,.316,2.326,22.487,22.487,0,0,0-.219,2.4,18.209,18.209,0,0,1-.708,2.544,12.142,12.142,0,0,1-1.375,2.98c-.509.8-.846,1.526-1.706,2.689-1.077,1.163-1.229,1.381-2.135,2.471a12.223,12.223,0,0,1-2.419,2.253c-.938.582-2.135,1.672-2.63,2.035-.992.727-2.022,1.163-2.842,1.818a22.124,22.124,0,0,1-2.981,1.6,11,11,0,0,1-3.046,1.381c-1.124.291-2.135.872-3.285,1.236a22.114,22.114,0,0,1-3.3,1.091c-1.513.363-2.689.8-3.324.945-1.513.364-2.524.945-3.351,1.017a16.96,16.96,0,0,0-2.974.581,24.493,24.493,0,0,1-3.754.727,33.864,33.864,0,0,1-3.721.436c-1.09,0-2.769.218-2.656-1.09.133-1.163.985-2.108,2.756-2.181a38.739,38.739,0,0,0,4.236-.654,12.168,12.168,0,0,0,2.895-.363c1.322-.436,1.93-.509,3.152-.873a26.786,26.786,0,0,1,3.106-.945,10.779,10.779,0,0,0,3.159-1.09c.767-.509,2.009-.727,3.093-1.308a12,12,0,0,0,3.073-1.454c.5-.363,1.328-.655,2.34-1.236a7.276,7.276,0,0,0,2.346-1.454,7.407,7.407,0,0,1,2.254-1.6,3.912,3.912,0,0,0,2.088-1.744,8.4,8.4,0,0,1,1.852-1.89,5.406,5.406,0,0,0,1.659-1.962c.344-.945.978-1.091,1.375-2.18.371-1.018.774-1.527,1.038-2.254a8.676,8.676,0,0,0,.688-2.689v-2.4a4.878,4.878,0,0,0-.686-2.108,2.861,2.861,0,0,0-1.3-1.817c-.33-.291-1.361-.654-1.856-1.09a7.207,7.207,0,0,0-1.93-1.09,2.592,2.592,0,0,0-2.26.218,18.05,18.05,0,0,0-1.745.8,17.682,17.682,0,0,0-1.672,1.6c-.549.509-1.23,1.381-1.646,1.526-1.051.291-1.824,1.817-2.618,2.4-1.19.872-1.792,1.526-2.637,2.253l-2.757,2.18a16.6,16.6,0,0,1-2.829,2.181,13.925,13.925,0,0,0-1.857,1.308,11.283,11.283,0,0,0-1.957,1.381c-.654.8-1.923,1.89-1.791,2.326a3.734,3.734,0,0,1,.27,2.253,12.144,12.144,0,0,1-1.3,2.981,1.988,1.988,0,0,1-1.772.872,2.93,2.93,0,0,1-1.777-1.308c-.244-.727-.892-.945-1.7-1.308-.694-.291-2.042.218-2.8.508Zm8.609-15.264a2.479,2.479,0,0,0-.218-1.6c-.251-.508-.714-.436-1.17-.581-.812-.364-1.672.8-2.769,1.017a5.9,5.9,0,0,0-2.756,1.382,30.609,30.609,0,0,0-2.769,1.817,9.7,9.7,0,0,1-2.38,1.744,8.2,8.2,0,0,0-2.366,2.108c-.608.872-1.527,1.6-1.983,2.254-.33.508-.826,1.671-1.335,2.471a1.715,1.715,0,0,0-.041,2.108c.4.509.694,1.09,1.619.945a19.328,19.328,0,0,1,3.43-.436,9.194,9.194,0,0,0,1.784-.509c.536-.073,1.455-.8,1.818-.8.681-.072,1.355-.727,2.485-1.236a11.947,11.947,0,0,0,2.412-1.235,12.109,12.109,0,0,0,2.414-2.835,17.232,17.232,0,0,0,.966-3.853C2593.552-1712.748,2594.055-1714.129,2594.247-1714.855Zm14.613-8c-.536.073-1.877.364-2.267.436a11.892,11.892,0,0,0-2.029.582,14.169,14.169,0,0,1-2.372.727,6.6,6.6,0,0,0-1.487,1.09,3.662,3.662,0,0,0-1.289,1.744c-.529,1.454-.6,2.835-1.211,3.925-.231.436-.225,1.018-.542,1.89-.43,1.381.839,1.889,1.9,1.163a6.042,6.042,0,0,0,1.937-1.526c.331-.509.912-.509,1.514-1.163a11.479,11.479,0,0,1,2.286-1.89c1.019-.8.853-.945,2.195-2.035a8.812,8.812,0,0,0,1.375-1.381c.8-.8,1.2-1.308,1.653-1.744.549-.51.708-.945.139-1.382A1.853,1.853,0,0,0,2608.86-1722.851Z" transform="translate(0 -94.043)" fill="#fff"/>
    <path id="パス_43866" data-name="パス 43866" d="M2755.766-1742.6a9.452,9.452,0,0,0,1.038-2.253,1.556,1.556,0,0,0-.448-1.963c-.356-.218-3.093.508-3.04-.436.06-1.962,2.3-2.326,2.928-2.254a11.785,11.785,0,0,1,2.26-.218,9.954,9.954,0,0,1,1.778.51,3.113,3.113,0,0,1,1.658,1.235,7.665,7.665,0,0,1,1.037,1.744,2.164,2.164,0,0,1,.012,1.963,5.987,5.987,0,0,1-2.24,1.962c-1.137.727-1.408,1.672-2.03,2.181a2.323,2.323,0,0,0-.642,1.962c.277.436.76.509,1.883.218a12.158,12.158,0,0,0,3.364-1.454c.443-.218.337.073.615-.29a3.133,3.133,0,0,1,3.153-.873c.674.145,1.4.145,1.605.582.2.655.72,1.017.264,1.671-.463.873-.681.873-1.455,1.6-.674.655-1.011.582-1.989.872-1.3.364-2.353.873-3.377,1.091a24.322,24.322,0,0,0-3.351,1.017c-1,.364-2.22.509-3.3.873a8.353,8.353,0,0,0-2.941,1.09,9.676,9.676,0,0,0-1.871,1.745,31.208,31.208,0,0,1-2.419,3.053c-.952,1.017-1.316,1.817-2.466,2.979a12.829,12.829,0,0,0-1.21,1.527,6.987,6.987,0,0,0-1.209,1.526c-.106.291-.469.291-.205,1.163.429.218.885-.436,1.527-.8a17.516,17.516,0,0,0,2.128-1.454c.575-.581,1.183-.655,1.93-1.309a4.016,4.016,0,0,1,1.778-1.09c.833-.29.965-.654,1.706-1.09.813-.436,1.216-.945,1.8-.945.509,0,.991-.727,1.7-.873a4.223,4.223,0,0,0,1.818-.8,8.174,8.174,0,0,1,1.692-.654,18.406,18.406,0,0,1,3.569-1.018,13.378,13.378,0,0,1,3.4-.364c.628.073,1.718.073,2.081.073a5.52,5.52,0,0,1,2.1.218,6.139,6.139,0,0,0,2.022.436,10.438,10.438,0,0,1,2,.508,7.208,7.208,0,0,0,1.771.727,3.16,3.16,0,0,1,1.645.872,2.3,2.3,0,0,0,1.394,1.163c.575.219.846.873,1.315,1.381a2.569,2.569,0,0,1,.555,1.671c.006.582-.43,1.382-.45,2.036-.146.8-1.064,1.526-2.406,1.817-1.17.218-1.348-.291-1.8-.655a18.058,18.058,0,0,1-1.507-1.454c-.634-.654-.99-.872-1.506-1.453a2.423,2.423,0,0,0-2.233-.654c-1.415.291-2.452.145-3.073.654-.892.654-1.381.8-2.327,1.6a6.363,6.363,0,0,0-1.864,2.326c-.6,1.236-1.085,2.18-1.323,2.834a13.2,13.2,0,0,0-.84,2.908,24.434,24.434,0,0,1-.622,2.908,7.913,7.913,0,0,0-.509,3.2c-.034,1.09-.656,2.4-.583,3.2a5.078,5.078,0,0,0,.336,1.672c.205.436.257,1.09.958,1.163.436,0,1.024.581,1.863.872a4.656,4.656,0,0,1,1.936.872c.3.363,1.2.29,1.261.727.179.508.515.582,1.163.8a2.079,2.079,0,0,1,1.136.872c.159.363.951.581,1.083,1.017a17.9,17.9,0,0,0,1.375,1.817,2.009,2.009,0,0,1,.045,2.472c-.357.581-.549,1.308-1.382,1.6a4.416,4.416,0,0,1-1.883.582,4.428,4.428,0,0,1-2.333-1.382c-.515-.581-.337-.871-.885-1.163-.429-.218-.607-.727-.892-.945a14.959,14.959,0,0,1-1.737-1.817,3.122,3.122,0,0,0-1.666-1.018c-.158-.364-1.427-.073-2.339.436a9.652,9.652,0,0,0-1.513,1.163c-.72.581-.807,1.017-1.375,1.38-.714.364-.873.8-1.441,1.163a14.117,14.117,0,0,1-1.514,1.163l-2,1.09c-1.031.436-1.487.291-2.155.726-.812.436-1.507.146-2.266.436a7.5,7.5,0,0,1-2.333.218,9.143,9.143,0,0,1-3.284-.363c-.694-.291-1.057-.291-1.56-.509s-.661-.581-1.334-.727a1.166,1.166,0,0,1-1.037-.945l-.687-1.308a5.465,5.465,0,0,1-.172-1.526c.146-.8.285-1.381.371-1.817a18.343,18.343,0,0,1,1.031-2.035,4.466,4.466,0,0,1,1.408-1.672,8.268,8.268,0,0,1,1.738-1.381c.859-.363,1.1-1.017,1.924-1.09.707-.145,1.157-.581,2.108-.8a9.549,9.549,0,0,1,2.075-.509c1.164,0,2.808-.727,3.866-.436a5.982,5.982,0,0,0,2.419.145,3.549,3.549,0,0,0,2.26-1.017,7.337,7.337,0,0,0,1.448-2.18,22.187,22.187,0,0,0,.569-2.762c.251-1.09.648-2.18.926-3.343l1.072-3.344a5.413,5.413,0,0,1,.932-1.962c.429-.582,1.117-1.672,1.369-1.963a16.325,16.325,0,0,0,1.8-1.963c.456-.654,1.586-1.162,2.287-1.89.952-1.017,2.459-1.962,2.182-2.4-.258-.29-.654-1.6-1.533-1.381a7.456,7.456,0,0,1-1.791-.072c-1.249-.364-2.65.29-3.357.436a15.089,15.089,0,0,0-3.384,1.309c-.766.508-1.348.508-1.7.872-.774.727-1.1.436-1.725.945a4.532,4.532,0,0,1-1.679,1.018,4.707,4.707,0,0,0-1.606,1.017,7.069,7.069,0,0,1-2.4,1.6c-1.282.727-1.712,1.308-2.453,1.744-.84.509-1.792,1.526-2.307,1.744-.958.436-1.467,1.236-2.333,1.818a13.018,13.018,0,0,0-2.313,1.963c-.734,1.017-1.56,1.09-2.022,1.962-.49.945-1.746,1.6-2.122,2.035a11.807,11.807,0,0,1-1.957,2.181,6.369,6.369,0,0,0-1.679,1.817,9.035,9.035,0,0,1-1.507,1.745c-.674.654-.952,1.018-1.679,1.817a9.885,9.885,0,0,1-2.195,2.035,2.722,2.722,0,0,1-1.811.582,1.612,1.612,0,0,1-1.645-.873,2.189,2.189,0,0,1-.058-2.035,11.415,11.415,0,0,1,1.395-2.035c.628-.727,1.23-.582,1.824-1.817.231-.436,1.144-.945,1.527-1.6a10.341,10.341,0,0,1,1.527-1.6,13.869,13.869,0,0,0,1.454-1.6,13.884,13.884,0,0,0,1.455-1.6,3.12,3.12,0,0,1,1.455-1.6c.542-.291.734-1.018,1.454-1.6.595-.436.913-1.308,1.408-1.672a4.88,4.88,0,0,0,1.381-1.6,5.761,5.761,0,0,1,1.409-1.672c.422-.363.562-.945,1.407-1.671a6.522,6.522,0,0,0,1.409-1.672,17.2,17.2,0,0,1,1.334-1.672c.681-.872,1.66-1.962,1.838-2.253a3.284,3.284,0,0,0,.708-2.543,1.411,1.411,0,0,0-1.857-1.091,10.207,10.207,0,0,1-2.524.146,19.6,19.6,0,0,1-2.484-.363,5.975,5.975,0,0,1-1.956-1.018c-.311-.145-1.169-1.381-1.956-1.817a1.449,1.449,0,0,1-.151-2.181c.7-.727.833-1.09,1.8-1.163.509,0,1.057,1.09,1.976,1.163,1.063.073,1.328.945,1.757,1.163a7.532,7.532,0,0,0,2.34.364,6.176,6.176,0,0,1,2.233-.145c.383.145,1.949-.364,2.26-.218s1.249-.436,2.214-.291a4.561,4.561,0,0,0,2.333-1.017,4.413,4.413,0,0,0,1.5-1.527c.384-.654,1.415-1.889,1.772-2.471Zm-5,48.7a6.113,6.113,0,0,1,1.448-1.38,3.323,3.323,0,0,0,1.164-1.6c.336-.727.463-2.472-.462-2.326-.708.146-1.031-.363-1.712-.29a13.876,13.876,0,0,1-3.555-.218,12.593,12.593,0,0,0-2.379.145c-.68.073-1.685.436-2.71.654a3.654,3.654,0,0,0-2.32,1.382,6.371,6.371,0,0,0-1.4,2.253c-.615,1.09-.331,1.308-.054,1.744.251.509.357,1.018,1.249,1.163a9.412,9.412,0,0,0,2,.509,11.8,11.8,0,0,1,1.883.219,19.931,19.931,0,0,0,3.529-.51,4.136,4.136,0,0,0,1.719-.727C2749.625-1693.175,2750.081-1693.03,2750.762-1693.9Z" transform="translate(-72.864 -93.991)" fill="#fff"/>
    <path id="パス_43867" data-name="パス 43867" d="M2881.058-1730.833a10.575,10.575,0,0,0,2.775.363,4.91,4.91,0,0,0,2.5-.072,17.471,17.471,0,0,1,2.578-.291,18.2,18.2,0,0,1,2.6-.363,4.268,4.268,0,0,0,2.7-1.018,6.067,6.067,0,0,0,1.672-1.6,28.283,28.283,0,0,0,2.043-2.616,14.331,14.331,0,0,1,1.752-2.617c.747-.654.747-1.454,1.21-2.326.675-1.454-.31-1.744-1.566-1.89a13.619,13.619,0,0,0-2.213-.509c-.872,0-1.3-.218-1.208-.872a2.364,2.364,0,0,1,2.247-2.18c.972-.073,2.168-.364,2.676-.364a7.776,7.776,0,0,1,2.386.436c1.031.364,1.864.873,2.557,1.164.885.363,1.229,1.017,1.836,1.744.661.582.29,1.6.3,2.18-.007,1.018-1.058,1.308-1.58,1.744a16.012,16.012,0,0,0-2.763,2.4c-.78.945-2.049,2.035-1.468,2.835.416.654,2.174-.581,3.033-.945a6.56,6.56,0,0,1,2.2-.654,9.692,9.692,0,0,1,2.194.363c.747.145,1.2.509.971,1.527a3.221,3.221,0,0,1-1.091,1.6,7.177,7.177,0,0,1-1.85,1.09,9.519,9.519,0,0,1-2.154.727c-.879.218-1.151.364-1.712.509a10.945,10.945,0,0,0-2.1.582,4.185,4.185,0,0,1-2.029.582,4.1,4.1,0,0,0-1.93.509c-.694.509-1.375.582-1.639,1.308-.159.436-.9.872-1.348,1.308a16.869,16.869,0,0,0-2.037,2.4,5.668,5.668,0,0,1-1.434,1.745,3.519,3.519,0,0,0-1.388,1.817,3.523,3.523,0,0,1-1.461,1.817c-.767.509-.959,1.236-1.435,1.745-.78.945-.806,1.017-1.361,1.744s-1,.945-1.336,1.672a6.787,6.787,0,0,1-1.362,1.745,12.955,12.955,0,0,0-1.361,1.744c-.43.581-1,1.163-1.713,2.107a16.706,16.706,0,0,0-1.738,2.181c-.589,1.017-1.375,1.381-1.712,2.108-.311.654-1.2,1.308-1.739,2.18-.734,1.018-1.328,1.454-1.613,2.035a24.82,24.82,0,0,1-1.64,2.108,10.124,10.124,0,0,1-1.639,2.108c-.813.436-1.237,1.6-1.759,2.035a22.712,22.712,0,0,1-1.942,1.744,4.559,4.559,0,0,1-2.274.654c-1.289.146-1.982-.945-1.242-2.181.43-.581.873-1.6,1.256-2.253.258-.509,1.428-1.527,1.659-1.962s.918-.727,1.454-1.6c.483-.727.853-.945,1.408-1.672a9.584,9.584,0,0,0,1.481-1.671c.231-.436.674-.654,1.381-1.6a19.487,19.487,0,0,0,1.409-1.671,7.306,7.306,0,0,1,1.407-1.672,3.871,3.871,0,0,0,1.508-1.745c.159-.436,1.038-.654,1.408-1.671.291-.8.879-1.018,1.335-1.672.483-.727,1.1-1.018,1.408-1.672a7.9,7.9,0,0,1,1.408-1.671,19.97,19.97,0,0,1,1.408-1.672,7.576,7.576,0,0,0,1.435-1.745,11.124,11.124,0,0,0,1.461-1.817,15.768,15.768,0,0,1,1.686-2.035c.773-.727,1.064-1.526,1.89-2.4.35-.364-.039-1.09-.541-1.308a5.743,5.743,0,0,0-2.994-.364,8.18,8.18,0,0,1-2.643.073c-.621-.291-1.573-.073-2.412-.364-.958-.364-1.367-.436-1.857-1.09-.4-.509-1.552-.727-1.909-1.745-.37-.582-.978-1.308-.152-2.18.946-.8.786-.364,1.719-.726.416-.146,1.136.872,1.81,1.017Zm44.174,8.65a2.667,2.667,0,0,1,.912,1.09,2.413,2.413,0,0,1-.12,1.526,2.4,2.4,0,0,1-1.5,1.526,2.747,2.747,0,0,1-1.949.364,20.757,20.757,0,0,1-2.273-.146c-.437,0-1.329-.145-2.2-.145-.654,0-1.969.218-2.8.291a10.6,10.6,0,0,0-3.007.872,23.065,23.065,0,0,0-2.577,1.09,24.769,24.769,0,0,0-2.729,1.308,24.886,24.886,0,0,1-2.862,1.672,16.261,16.261,0,0,0-2.7,1.817,13.377,13.377,0,0,0-2.558,2.036c-.582.8-1.917,1.671-2.273,2.253-.661,1.017-1.375,1.381-1.792,2.326-.443,1.017-.794,1.381-1.217,2.544a6.035,6.035,0,0,0-.615,2.689c-.133,1.163-.047,1.526.349,2.035a9.3,9.3,0,0,0,1.116,1.526c.4.292.647,1.018,1.711,1.091a8.636,8.636,0,0,1,2.207.727,18.2,18.2,0,0,0,2.412.363,8.372,8.372,0,0,0,2.465.218,14.011,14.011,0,0,1,2.471,0c.945,0,1.791.073,2.762,0a5.378,5.378,0,0,0,2.823-.363,7.69,7.69,0,0,1,2.558-.436,5.037,5.037,0,0,1,2.914.581,1.9,1.9,0,0,1,.872,2.4c-.728,1.6-1.4,2.035-2.711,2.253a14.9,14.9,0,0,1-2.366.51,19.663,19.663,0,0,1-2.26.218c-1.017,0-1.652.145-2.207.072a5.01,5.01,0,0,0-2.108,0,8.958,8.958,0,0,1-3.39-.072,30.328,30.328,0,0,0-3.429-.364,13.815,13.815,0,0,0-3.179-.654,4.942,4.942,0,0,1-2.874-1.09,3.659,3.659,0,0,1-1.063-.872c-.37-.582-.707-.654-1.038-.945-.449-.364-.879-.582-.865-1.017-.059-.436-.806-.581-.793-1.018.066-.582-.145-.8-.343-1.454a2.494,2.494,0,0,1-.072-1.6c.119-.727-.026-1.526.153-1.817.277-.364-.086-1.163.45-2.036a22.564,22.564,0,0,0,1.527-3.2,26.722,26.722,0,0,1,1.984-3.053,4.328,4.328,0,0,1,1.328-1.454c.939-.582.747-.654,1.475-1.454a15.419,15.419,0,0,0,1.494-1.308l1.567-1.308c.574-.582,1.183-.654,1.659-1.164.675-.654.853-.945,1.659-1.162a5.878,5.878,0,0,0,1.877-1.163c.621-.51.952-.218,1.95-1.163.548-.51.826-.873.615-1.091-.4-.509-1.811-.218-3.417,0a13.634,13.634,0,0,0-3.232,1.091,6.1,6.1,0,0,1-1.785.509c-1.268.291-1.573.727-2.154.727a4.786,4.786,0,0,0-2.531,1.163c-.966.654-1.732.364-1.937-.072-.265-.873.06-1.163,1.282-2.326a11.525,11.525,0,0,1,2.928-1.454,4.674,4.674,0,0,0,1.825-1.018,11.917,11.917,0,0,1,3.337-1.381,19.237,19.237,0,0,0,3.159-1.09c.714-.364,2-.291,3.073-.654a8.742,8.742,0,0,1,3.166-.509c.7.073,2.042-.218,2.987-.218,1.018,0,1.718.073,3.126,0a8.274,8.274,0,0,1,2.326,0,6.036,6.036,0,0,0,2.247.218,6.335,6.335,0,0,1,2.167.436Z" transform="translate(-140.863 -95.219)" fill="#fff"/>
    <path id="パス_43868" data-name="パス 43868" d="M3046.819-1727.938a10.252,10.252,0,0,1,3.034-.945c.851-.146,1.917-.873,2.908-.8.773.073,1.758-.436,2.874-.508a21.524,21.524,0,0,1,2.967-.364,7.491,7.491,0,0,0,2.815-.146,4.009,4.009,0,0,1,2.445.073,6.735,6.735,0,0,0,2.366.29c.582,0,1.817,0,2.287.509.3.364,1.658.436,2.114.582.938.218,1.433.654,2.035.8.892.145,1.427.872,1.883,1.017a3.918,3.918,0,0,1,1.685,1.163c.442.582.971.727,1.486,1.308a6.2,6.2,0,0,1,1.262,1.526,4.3,4.3,0,0,0,1.064,1.672,5.2,5.2,0,0,1,.765,1.89,11.277,11.277,0,0,1,.495,2.036c.106.508.033,1.308.152,2.18a9.241,9.241,0,0,1-.047,2.326,18.784,18.784,0,0,1-.49,2.544c-.166.654-.588,1.817-.806,2.617-.629,1.526-1.144,2.543-1.435,3.343-.45,1.236-1.448,2.181-1.792,3.126a12.184,12.184,0,0,1-2.122,2.835,13.441,13.441,0,0,1-2.433,2.689,13.978,13.978,0,0,0-2.717,2.471c-.6.654-.754.873-1.415,1.091-.587.218-.767.508-1.487,1.09a4.592,4.592,0,0,1-1.606,1.018,7.276,7.276,0,0,0-1.652.945,4.7,4.7,0,0,1-1.871.945c-.535.072-1.083.581-1.6.8a9.91,9.91,0,0,1-2.677,1.163,6.483,6.483,0,0,0-2.227.727c-1.085.581-1.468.436-2.353.872a14.459,14.459,0,0,1-2.6.945,10.978,10.978,0,0,0-2.247.582c-.951.218-1.613.436-2.538.582a9.137,9.137,0,0,0-2.313.363,4.052,4.052,0,0,1-2.537-.218c-1.037-.145-.752-2.326.45-2.835a11.656,11.656,0,0,1,3.344-.8,21.145,21.145,0,0,1,2.564-.654,5.606,5.606,0,0,0,2.3-.728,18.562,18.562,0,0,0,2.472-.8c.634-.146,1.375-.582,2.181-.8.635-.145,1.4-.654,2.723-1.09.906-.291,1.164-.8,2.268-1.236,1.083-.582,1.335-.872,2.319-1.381a16.291,16.291,0,0,1,2.221-1.308,6.884,6.884,0,0,0,2.108-1.6c.476-.509,1.554-.873,2.017-1.745.41-.727,1.315-1.018,1.851-1.889.231-.436,1.077-1.163,1.713-2.108.509-.8.78-1.745,1.547-2.253a6.251,6.251,0,0,0,1.309-2.4c.39-.872.787-1.962,1.1-2.617.568-1.163.43-2.18.827-3.271a9.658,9.658,0,0,0,.12-3.125,2.9,2.9,0,0,1-.2-1.454c.165-.654-.093-.945-.343-1.454-.3-.364.053-.945-.469-1.308a2.264,2.264,0,0,1-.713-1.235,14.82,14.82,0,0,0-1.189-1.526c-.515-.581-1.255-.945-1.46-1.381-.277-.436-1.235-.8-1.638-1.09l-1.863-.873a5.857,5.857,0,0,0-1.989-.727,8.19,8.19,0,0,0-2.241-.436,8.038,8.038,0,0,1-2.365-.291,7.915,7.915,0,0,0-2.59-.073,1.915,1.915,0,0,0-1.3,1.163,2.662,2.662,0,0,0,.522,1.963,3.525,3.525,0,0,1-.172,2.471,11.82,11.82,0,0,1-2.1,2.98c-.635.945-1.911,2.253-2.366,2.907-.708.945-1.686,2.035-2.268,2.835-.509.8-1.857,2.108-2.313,2.762-.886,1.235-1.633,1.889-2.288,2.689-.906,1.09-1.56,1.89-2.26,2.617-.952,1.017-1.481,1.672-2.307,2.544a30.432,30.432,0,0,0-2.307,2.544,14.233,14.233,0,0,1-2.4,2.4,22.664,22.664,0,0,0-2.671,2.544c-.5.582-1.163.8-1.494,1.308-.456.654-1.137.727-1.566,1.308a3.455,3.455,0,0,1-1.633,1.09,7.512,7.512,0,0,0-1.924,1.09c-.72.582-2.049.436-3.046.582a3.642,3.642,0,0,1-2.636-.945,3.992,3.992,0,0,1-.938-1.017c-.277-.436-.29-.8-.667-1.163a1.532,1.532,0,0,1-.469-1.308l-.224-1.382a20.421,20.421,0,0,1-.079-2.979,12.97,12.97,0,0,1,.484-3.126,26.823,26.823,0,0,0,.946-3.2,12.212,12.212,0,0,1,1.275-2.908,24.824,24.824,0,0,0,1.541-2.835,12.682,12.682,0,0,1,1.851-2.689c.7-.727,1.441-1.962,1.99-2.471l2.3-2.326a27.538,27.538,0,0,1,2.439-2.108,20.92,20.92,0,0,0,2.532-1.963,18.329,18.329,0,0,1,2.77-1.817,13.184,13.184,0,0,1,2.835-1.6c.713-.364,1.8-.945,2.9-1.381Zm1.061,12.865a16.236,16.236,0,0,1,1.871-2.544c.6-.654.978-1.89,1.8-2.544a2.786,2.786,0,0,0,.9-1.671c.106-.292,1.521-2.981.451-3.635a3.748,3.748,0,0,0-2.584-.291,10.331,10.331,0,0,0-3.027.727c-.806.218-1.011.582-1.963.8a5.991,5.991,0,0,0-2.214,1.09,19.941,19.941,0,0,1-1.97,1.017,14,14,0,0,0-1.95,1.163,9.079,9.079,0,0,0-1.957,1.381,10.622,10.622,0,0,1-1.738,1.38,9.2,9.2,0,0,0-1.692,1.454c-.2.364-.893.654-1.6,1.6-.582.8-.852.945-1.507,1.745s-.787,1.163-1.362,1.745a6.854,6.854,0,0,0-1.171,1.817l-1.785,3.707a8.657,8.657,0,0,0-.814,2.835,28.768,28.768,0,0,0-.47,3.489,9.376,9.376,0,0,0,.369,2.98c.311.945.707,1.454,1.9,1.163a7.008,7.008,0,0,0,2.492-.654,12.443,12.443,0,0,0,2.28-1.672,14.368,14.368,0,0,0,1.62-1.454c.449-.436.819-.654,1.593-1.381.621-.508,1-1.163,1.5-1.526a12.268,12.268,0,0,0,1.5-1.527,7.274,7.274,0,0,0,1.355-1.526,14.654,14.654,0,0,1,1.428-1.526,5.733,5.733,0,0,0,1.309-1.6c.482-.727,1.024-1.018,1.381-1.6.284-.582,1.375-1.381,2.036-2.4Z" transform="translate(-217.283 -103.129)" fill="#fff"/>
    <path id="パス_43869" data-name="パス 43869" d="M3147.239-1692.566a14.47,14.47,0,0,1,1.976-1.236c1.183-.654,2.538-1.381,3.232-1.89a4.9,4.9,0,0,0,1.533-1.018,12.579,12.579,0,0,1,1.606-1.018,14.842,14.842,0,0,0,3.021-2.108,8.777,8.777,0,0,1,1.487-1.09c.641-.364.747-.654,1.415-1.09a15.307,15.307,0,0,0,1.513-1.163,4.959,4.959,0,0,0,1.4-1.236,18.876,18.876,0,0,1,2.743-2.545,13.764,13.764,0,0,0,2.6-2.544c.609-.872,1.448-1.381,2.379-2.544a23.825,23.825,0,0,0,2.261-2.616c.529-.654,1.21-1.526,2.116-2.617.4-.509,1.091-1.6,2-2.689a24.526,24.526,0,0,0,1.85-2.689c.635-.945,1.3-2.181,1.805-2.762s1.1-2.035,1.686-2.834c.708-.945,1.1-2.035,1.614-2.835.456-.654.853-1.745,1.513-2.762a21.244,21.244,0,0,0,1.422-2.907,9.669,9.669,0,0,1,1.349-2.907,9.864,9.864,0,0,0,1.35-2.908,22.379,22.379,0,0,0,1.2-2.907c.112-.509.727-1.6,1.2-2.907.317-.872.2-2.544,1.382-3.2a2.891,2.891,0,0,1,2.558.364c.429.218,1.883.218,3.278.582.839.29,1.361.655,1.77.727.483.073.912.291.575,1.018-.133.363-1.144.945-2.089,1.745a6.922,6.922,0,0,0-2.347,3.053c-.179,1.09-.655,2.4-.708,3.343-.073.8-.371,1.817-.457,3.052a20.55,20.55,0,0,0-.457,3.053c.119.872-.272,1.745-.285,2.98a8.777,8.777,0,0,1-.14,2.98,12.412,12.412,0,0,0-.04,2.907c.046.872.006,2.181.131,2.835.31.945-.053,1.745.217,2.4a4.46,4.46,0,0,1,.343,2.254,5.447,5.447,0,0,0,.442,2.18c.344.655.237,1.745.542,2.108.488.654.271,1.454.64,2.035s.535,1.526.813,1.962a7.222,7.222,0,0,1,.839,1.89,13.016,13.016,0,0,0,.937,1.817,5.71,5.71,0,0,0,1.037,1.744c.3.364.244,1.526,1.109,1.745a2.777,2.777,0,0,1,1.308,1.6c.324.509.918.872,1.334,1.526.251.509,1.084,1.017,1.434,1.454.49.654,1.136.872,1.46,1.381.7.872,1.236.8,1.751,1.381s1.387.581,1.77,1.526c.271.654-1.883.581-2.478,1.017s-1.176.436-2.115,1.018c-.865.582-1.421.509-1.9,1.017a3.626,3.626,0,0,1-1.713,1.308c-1.249.436-1.394-1.162-1.81-1.817-.4-.509-.938-1.018-1.565-1.89-.39-.727-1.169-1.381-1.512-2.035l-1.368-2.035c-.707-.654-.759-1.308-1.169-2.18-.363-.8-.733-1.381-1.07-2.253a7.642,7.642,0,0,0-1.017-2.4c-.615-.509-.463-1.526-.8-2.4-.277-.436-.191-.872-.475-1.889a3.274,3.274,0,0,1-.475-1.89c.039-.509-.43-1.018-.33-1.89a4.088,4.088,0,0,0-.231-1.963,19.292,19.292,0,0,1-.157-1.962c-.133-.436-.073-1.6-.158-1.962a12.078,12.078,0,0,1,.013-2.036c-.012-.363.007-1.017.086-2.035a20.384,20.384,0,0,0,.113-2.108,7.286,7.286,0,0,1,.186-2.107c.2-.945.1-1.672.265-2.326a12.8,12.8,0,0,0,.317-2.471c.073-1.6.536-2.471-.263-2.471-.654,0-1.143.945-1.62,2.253a16.529,16.529,0,0,1-1.309,2.4,5.421,5.421,0,0,0-1.3,2.181,3.417,3.417,0,0,1-1.3,1.962,7.246,7.246,0,0,0-1.223,1.963,10.09,10.09,0,0,0-1.342,1.89,8.222,8.222,0,0,1-1.342,1.89c-.6.654-.767,1.308-1.388,1.817a6.477,6.477,0,0,0-1.362,1.744,9.165,9.165,0,0,1-1.435,1.745,10.735,10.735,0,0,0-1.507,1.745,12.728,12.728,0,0,1-1.553,1.671c-.7.727-.979,1.091-1.527,1.6a15.085,15.085,0,0,1-1.7,1.671,14.761,14.761,0,0,0-1.646,1.526l-1.718,1.527a15.864,15.864,0,0,0-1.692,1.454,6.987,6.987,0,0,1-1.884,1.381,15.482,15.482,0,0,0-1.837,1.454,13.046,13.046,0,0,0-1.811,1.381c-.628.727-1.382.8-1.884,1.381a2.89,2.89,0,0,1-1.957,1.381,6.67,6.67,0,0,0-2,1.308c-.74.436-1.19.872-2.029,1.38-.938.581-1.507.945-2.148,1.309-1.011.581-1.9,1.017-2.591,1.526a15.21,15.21,0,0,1-2.928,1.453c-.978.291-1.923,1.09-2.545.8-.938-.218-.971.072-1.341-.509-.3-.582.536-1.672,2-2.689Z" transform="translate(-276.914 -93)" fill="#fff"/>
    <path id="パス_43870" data-name="パス 43870" d="M3332.789-1702.375a18.946,18.946,0,0,0-.952,2.616c-.093.654-.238,2.254.4,2.907.608.727,1.11,1.745,2.207,1.527.978-.291,1.546.145,2.4,0a13.775,13.775,0,0,1,2.471,0,4.966,4.966,0,0,0,2.326,0,3.155,3.155,0,0,1,2.326,0,4.613,4.613,0,0,0,2.254,0c.39-.073,1.176.363,2.181,0,.516-.219.668-.436,1.54-1.235a11.755,11.755,0,0,1,1.54-1.236c.84-.508.959-.436,1.514-1.163a3.076,3.076,0,0,1,1.586-1.163,2.9,2.9,0,0,1,2.458,1.236c.587.582.806.582,1.123,1.308.185.291.641.436,1.076,1.236.509.8.965.945,1.434,1.454.258.29.244.727-.139,1.381a2.153,2.153,0,0,1-2.029,1.38,15.217,15.217,0,0,1-2.26.218c-.483-.072-1.11-.145-2.075-.29a17.9,17.9,0,0,0-2.1-.218,36.643,36.643,0,0,1-3.879.072c-1.5-.072-1.916-.727-3.449-.508a17.443,17.443,0,0,1-3.879.073,34.224,34.224,0,0,0-3.807.072,35.6,35.6,0,0,1-3.806.073c-.991-.073-2.472,0-3.78,0a30.314,30.314,0,0,0-3.806.073,12.611,12.611,0,0,1-3.707,0c-1.5-.073-2.5.072-3.708,0a16.461,16.461,0,0,1-3.733.072,31.637,31.637,0,0,0-3.707,0c-1.408.073-2.181,0-3.635,0h-7.342c-.945,0-2.7.436-3.892.51a10.474,10.474,0,0,1-3.675-.291c-1.222-.436-1.255-.945-.99-1.671.211-.582.787-1.163,2.208-1.672,1.665-.581,2.451-.145,3.859-.218,1.481-.073,2.505.509,3.522.509a13.372,13.372,0,0,1,2.981,0,21.3,21.3,0,0,1,3.053,0,10.558,10.558,0,0,0,3.052,0,20.32,20.32,0,0,1,2.981,0,21.454,21.454,0,0,0,3.053,0,10.59,10.59,0,0,1,3.053,0,23.4,23.4,0,0,1,3.2,0c.31.145,1.223-.364,2.3-1.527a7.746,7.746,0,0,0,1.93-2.907l.952-2.616.952-2.617a11.971,11.971,0,0,1,.926-2.544,7.548,7.548,0,0,0,.952-2.617,9.361,9.361,0,0,0-.033-2.907c-.238-.945-.726-1.6-1.625-1.526a35.158,35.158,0,0,0-3.925,0,15.192,15.192,0,0,1-3.635,0,10.472,10.472,0,0,0-3.708,0,29.491,29.491,0,0,1-3.82.508c-1.6,0-3.086.291-3.747-.291a1.537,1.537,0,0,1-.727-1.6,3.88,3.88,0,0,1,1.944-1.745,9.316,9.316,0,0,1,3.932-.218,31.085,31.085,0,0,1,3.449.508,10.583,10.583,0,0,0,3.708,0,15.178,15.178,0,0,1,3.635,0,35.448,35.448,0,0,1,3.925,0,3.341,3.341,0,0,0,2.657-1.308,12.13,12.13,0,0,0,1.963-2.4,5.656,5.656,0,0,1,.821-2.253,13.221,13.221,0,0,0,.793-2.181l.794-2.18a8.751,8.751,0,0,0,.794-2.181,3.8,3.8,0,0,0-.482-2.471c-.628-.872-1.261-1.526-2.167-1.236a5.028,5.028,0,0,1-2.326,0,6.069,6.069,0,0,0-2.326,0c-1,.145-1.573-.073-2.835,0h-2.835a3.453,3.453,0,0,0-2.419.654,8.855,8.855,0,0,0-1.976,1.236c-.628.727-1.243,1.018-1.488,1.89-.238.655-.582.8-1.461,1.817-.78.945-1.884,2.181-2.412,2.835-.807,1.018-1.884,2.181-2.241,2.762a17.92,17.92,0,0,1-2.367,2.907c-1,1.163-1.706,1.89-2.386,2.762a5.329,5.329,0,0,1-1.653,1.745,9.89,9.89,0,0,0-1.844,1.672,4.645,4.645,0,0,1-3.081,1.671c-.918-.072-1.949-.436-.859-2.035.661-1.018,1.917-1.672,2.453-2.544a20.613,20.613,0,0,1,2.34-2.835c.648-.581,1.183-1.453,2.109-2.4a18.486,18.486,0,0,0,1.785-2.108c.231-.436,1.335-1.672,1.666-2.18.205-.364,1.157-1.381,1.639-2.108a16.559,16.559,0,0,0,1.521-2.18,8.968,8.968,0,0,1,1.474-2.254c.635-.945.84-1.308,1.4-2.253a19.761,19.761,0,0,0,1.428-2.326c.364-.8.966-1.453,1.4-2.253.562-.945.793-1.381,1.328-2.253.384-.654,1.019-1.6,1.329-2.253.516-1.018,1.071-1.745,1.283-2.326.3-1.018.259-2.108,1.336-2.471.734-.218,1.757.364,2.26.581a20.459,20.459,0,0,0,2.736.872c.529.146.634.655,1.381.8.482.073.443.582.231,1.163-.291.8-.655.8-1.738,1.381-.443.218-1.579.145-2.228.727-.747.654-.754,1.672-1.342,2.689a2.387,2.387,0,0,0-.1,2.471c.436.8.853,1.454,2.14,1.308a27.627,27.627,0,0,1,3.489,0,4.688,4.688,0,0,0,2.254,0c.542-.291,1.619.145,2.181,0a11.748,11.748,0,0,0,2.815-.945,3.957,3.957,0,0,0,2-1.89c.238-.655.694-2.108,1.216-3.344.417-.945.82-2.253,1.058-2.907a23.3,23.3,0,0,1,1.059-2.907c.489-.945.622-2.108.985-2.907.265-.727.114-2.108.775-3.125a2.29,2.29,0,0,1,2.042-1.017,9.5,9.5,0,0,1,2.65.508,9.733,9.733,0,0,1,2.385.436,2.172,2.172,0,0,1,1.268,1.308c.013,1.163-1.388,1.018-2.505,1.89a7.052,7.052,0,0,0-2.195,2.835,16.622,16.622,0,0,0-.9,2.471c-.066.582-.575,1.381-.873,2.4-.483,1.526-.9,2.471-1.429,3.925-.085.436-.463,1.671.323,2.108.76.509.562,1.454,1.758,1.163a34.136,34.136,0,0,1,3.853,0,31.554,31.554,0,0,1,3.708,0c.965.145,2.5.727,3.489,0,.595-.436.8-.8,1.566-1.308.866-.581,1.025-1.017,1.639-1.308a2.774,2.774,0,0,0,1.613-1.236c.331-.509.668-1.236,1.613-1.236,1.136.073.733,1.381,1.572,1.672.621.29.746.945,1,1.235a4.93,4.93,0,0,0,1.031,1.163c.78.654.839,1.09,1.46,1.381.476.29.172.727-.166,1.454-.687,1.09-1.242,1.017-1.857,1.308a3.438,3.438,0,0,1-1.916.073c-.846-.073-.951-.582-1.778-.509-.535.072-.911-.291-1.711-.291a9.418,9.418,0,0,0-3.5.218,7.617,7.617,0,0,1-3.371.073,15.983,15.983,0,0,0-3.3.072c-.873,0-2.234.145-3.225.073a24.353,24.353,0,0,1-3.271,0c-.674-.145-1.54.436-2.267,1.236a9.245,9.245,0,0,0-1.844,2.471l-.794,2.181-.794,2.18c-.363.8-.634,1.745-.793,2.181l-.82,2.253a2.6,2.6,0,0,0,0,2.4c.291.8.588,1.381,1.268,1.308a11.781,11.781,0,0,1,3.2,0c.72.218,1.943-.145,3.054,0a6.2,6.2,0,0,0,2.835,0,11.8,11.8,0,0,0,2.73-2.108,6.957,6.957,0,0,1,2.73-2.107,1.826,1.826,0,0,1,2.365,1.09,3,3,0,0,0,.958,1.163c.284.218.508.8,1.077,1.235a2.068,2.068,0,0,1,.323,2.908c-1.3,1.163-2.974.582-3.628.582a18.508,18.508,0,0,1-2.835,0l-2.789.073a12.324,12.324,0,0,0-2.835,0,19.286,19.286,0,0,0-2.907,0c-.925.145-2.373-.073-2.908,0a8.072,8.072,0,0,0-1.831.436c-.78.145-1.117.872-2,1.091-.734.218-.971.872-1.738,1.38a2.111,2.111,0,0,0-1.065,1.526,18.651,18.651,0,0,1-.952,2.617c-.191.727-.661,1.817-.926,2.544Z" transform="translate(-348.631 -91.187)" fill="#fff"/>
    <path id="パス_43871" data-name="パス 43871" d="M3497-1728.966c-.476.508-1.375,1.38-1.554,1.671-.635.945-.529,1.454-.3,1.817.35.436,1.493.291,3.675.291,1.09,0,1.387.581,2.2.945s1.03,1.163,1.454,1.6a3.322,3.322,0,0,1,.785,2.036,15.081,15.081,0,0,1-.007,2.616c-.06,1.163.753,1.526,1.368,1.235a9.4,9.4,0,0,1,2.16-.945,5.372,5.372,0,0,0,2.016-.945c.6-.436.952-.218,1.844-.872a3.864,3.864,0,0,1,1.672-.8c.78-.145,2.022-1.163,3.3-1.672a5.293,5.293,0,0,0,1.672-.8,3.978,3.978,0,0,1,1.7-.872,2.455,2.455,0,0,0,1.917-1.672c.351-1.162-.2-1.236-1.169-1.38-.41-.073-1.177-.364-.866-1.018.542-1.09,1.594-1.381,2.836-1.6a6.269,6.269,0,0,1,3.238.291c.595.364,1.136.073,1.407.727.106.508,1.209.872,1.539,1.163.667.364,1.116.727,1.044,1.526a5.574,5.574,0,0,0,.119,1.671c0,.8-1.574,1.526-2.426,1.672-.952.218-1.639.509-2.273.654s-1.064.727-1.765.654c-.918-.072-2.333,1.018-3.093,1.309-1.051.29-1.949,1.162-2.849,1.236-1.216.145-1.87.945-2.775,1.236-1.223.364-1.673.8-2.677,1.162-.516.218-1.349.51-2.5,1.091-1.057.509-1.428.727-2.531,1.163a12.676,12.676,0,0,0-1.646.727,8.652,8.652,0,0,0-1.778,1.09,6.755,6.755,0,0,0-1.9,2.035,6.111,6.111,0,0,0-.721,2.181c-.344.945-.589,1.817-.721,2.18-.291.8-.874,2.4-1.039,3.053-.271.945-.886,2.036-1.336,3.271a3.427,3.427,0,0,1-1.58,1.744,2.739,2.739,0,0,1-2.227.727c-1.527,0-1.281-.872-1.05-2.108a9.955,9.955,0,0,1,.714-1.962c.133-.364.523-1.236.787-1.963l.873-2.4c.192-.727-.3-1.163-.581-1.6-.344-.654-1.56-.508-2.5.073-.469.291-.958.436-1.7.873-.569.363-.984.508-1.725.945a5.385,5.385,0,0,0-1.857,1.308,7.506,7.506,0,0,1-1.719,1.526,5.472,5.472,0,0,0-1.362,1.745,7.74,7.74,0,0,0-.959,2.035,5.955,5.955,0,0,0-.133,2.762c.317.727.819.945,1.816,1.6a11.055,11.055,0,0,0,2.69.8,21.372,21.372,0,0,1,2.973.219,7.632,7.632,0,0,0,2.617,0c.681-.073,1.764.145,2.689,0a8.538,8.538,0,0,1,2.743-.146c.694.291,2.088-.145,2.8-.29,1.342-.291,2.168-.363,3.463-.727a7.868,7.868,0,0,1,3.264-.581,12.49,12.49,0,0,1,2.914.581,2.022,2.022,0,0,1,1.116,2.326,3.531,3.531,0,0,1-2.544,2.4,7.163,7.163,0,0,0-2.168.363,3.269,3.269,0,0,1-2.115.218c-1.513-.436-2.815.145-4.1.291-1.281-.073-2.6.145-4.123.145a24.417,24.417,0,0,1-4,0,10.733,10.733,0,0,0-3.053,0,5.264,5.264,0,0,1-2.973-.218c-.714-.436-1.91-.145-2.868-.509a9.647,9.647,0,0,1-2.464-1.017c-.4-.291-1.361-.654-1.678-1.381a21.341,21.341,0,0,0-1.057-1.89,5.163,5.163,0,0,1-.27-2.253,16.98,16.98,0,0,1,.588-2.617,3.973,3.973,0,0,1,1.263-2.471,14.3,14.3,0,0,1,1.964-2.4,28.1,28.1,0,0,1,2.393-2.18,10.292,10.292,0,0,0,2.776-2.035,12.065,12.065,0,0,1,2.915-1.817,18.649,18.649,0,0,1,2.934-1.672l2.683-1.381a4.57,4.57,0,0,0,1.659-1.163,8.872,8.872,0,0,0,1.759-2.835,6.851,6.851,0,0,0,.715-2.762,2.771,2.771,0,0,0-.178-2.108c-.443-.582-1.071-.654-1.89-.8-.964-.145-2.63.436-3.7.582-.873,0-1.427.727-1.791.727a3.257,3.257,0,0,0-1.771.872,6.477,6.477,0,0,1-1.778,1.09c-.343.145-.819.654-1.659,1.163-.568.364-1.124,1.09-1.639,1.308a11.175,11.175,0,0,0-1.639,1.308c-.549.509-1.315,1.018-2.016,1.745a19.72,19.72,0,0,1-2.71,2.253,6.775,6.775,0,0,1-3.04,1.163c-.8,0-1.111-.146-1.289-.655-.224-.581-.6-.945-.072-1.6a8.2,8.2,0,0,1,1.619-2.254c.351-.363,1.831-1.235,2.235-1.744.78-.945,2.029-1.381,2.631-2.036.674-.654,1.586-1.163,2.458-1.962s1.917-1.672,2.341-2.036c.35-.363,1.771-1.672,2.168-1.962.5-.364,1.177-1.236,2.3-2.326a6.733,6.733,0,0,0,1.4-1.453c.556-.727,1.17-1.018,1.752-1.818.3-.436.4-1.308-.343-1.453a21.933,21.933,0,0,0-2.894-.436l-2.789.073a15.07,15.07,0,0,1-2.583-.291c-.9.073-1.362-.654-2.128-.945a5.349,5.349,0,0,1-2.009-1.672,2,2,0,0,1-.012-2.762c1.1-1.017,1.414-.291,2.068-.291.581,0,.792,1.017,1.579,1.454.846.871,2.075.29,2.5.727.258.29,1.745,0,2.419.145a13.042,13.042,0,0,0,2.425-.073,7.7,7.7,0,0,0,2.5-.29c1-.145,1.507-.145,2.531-.364a7.139,7.139,0,0,0,2.247-.582,3.008,3.008,0,0,0,1.672-1.6,18.235,18.235,0,0,1,1.415-1.889,7.369,7.369,0,0,0,1.323-2.035,12.241,12.241,0,0,1,.932-1.963c.733-1.017-.336-1.671-1.03-1.962-.575-.219-2.617,0-2.914-.582s.523-2.036,2.155-2.326a13.852,13.852,0,0,1,2.307-.145c.508,0,.667.363,1.8.436a4,4,0,0,1,2.219,1.091c.5.436,1.361.654,1.652,1.453s.529.945.409,1.672c-.093.654-1.071.945-1.553,1.671a11.771,11.771,0,0,1-1.4,1.236,8.861,8.861,0,0,0-1.831,2.035c-.066.582.046.872.991.872a23.041,23.041,0,0,1,2.564-.654c.555.073,2.154-.727,3.357-1.235,1.467-.436,2.406-1.018,3.542-.946a3.454,3.454,0,0,1,1.487.51,1.232,1.232,0,0,1,.343,1.453,3.493,3.493,0,0,1-1.262,1.672c-.542.291-1.21.727-2.023,1.163a11.3,11.3,0,0,1-2.227.727,6.012,6.012,0,0,1-1.929.509,6.593,6.593,0,0,0-2.393.581c-.965.654-2.319.582-3.271.8a22.017,22.017,0,0,1-3.119.582c-1,.363-1.144.945-1.831,1.235s-.819.654-1.52,1.381Z" transform="translate(-437.133 -94.469)" fill="#fff"/>
    <path id="パス_43872" data-name="パス 43872" d="M3609.421-1710.823c-.708,1.744-1.078,2.761-1.455,4-.4,1.09-1.62,3.052-1.548,3.852a3.389,3.389,0,0,0,1.116,2.326,5.8,5.8,0,0,1,1.5,1.672,6.7,6.7,0,0,0,1.849,1.308,18.085,18.085,0,0,1,2.445.873,4.973,4.973,0,0,0,2.333.581,9.656,9.656,0,0,1,2.485.364,9.837,9.837,0,0,0,2.511.29c1.017,0,1.691.145,2.563.145,1.018,0,1.427.073,2.591.073a15.048,15.048,0,0,1,2.59.073c.72.219,1.824-.218,2.617,0a15.714,15.714,0,0,0,2.618,0,6.766,6.766,0,0,1,3.006-.073,10.187,10.187,0,0,0,2.934-.073c.654,0,2.386-.364,2.935-.072.72.218,2.141-.291,2.96-.146.774.072,1.95-.363,3.06-.218a9.788,9.788,0,0,0,2.915-.218c.463-.073,1.633-.291,2.194-.436a21.07,21.07,0,0,0,2.2-.654c1.288-.146,1.725-.146,2,.508.225.582-.053.945-.239,1.454-.37,1.017-1.17,1.017-2.128,1.454-.9.29-1.341,1.09-2.029,1.381a11.236,11.236,0,0,0-1.468,1.235,4.057,4.057,0,0,1-2.663.727,14.029,14.029,0,0,0-2.5.073,14.588,14.588,0,0,1-2.524.145,14.033,14.033,0,0,0-2.5.073,9.318,9.318,0,0,1-2.471,0,15.483,15.483,0,0,0-2.5.072h-4.87c-.654,0-1.573-.072-2.18,0a9.779,9.779,0,0,1-2.155-.072,11.281,11.281,0,0,0-2.227-.073,8.367,8.367,0,0,1-2.154-.073,5.405,5.405,0,0,1-2.127-.145,9.271,9.271,0,0,0-2.174-.218,15.223,15.223,0,0,0-2.075-.291c-.773-.073-1.057-.291-2.049-.363-1.064-.073-1.169-.582-2.306-.654-1.235,0-1.816-.8-2.226-.872-.82-.146-1.209-.873-1.949-1.236s-1.342-1.308-1.626-1.526c-.356-.218-.845-1.671-1.222-2.035-.68-.727-1.2-1.308-1.7-1.308-1.044.072-1.712-.291-2.221.508-.681.873-1.758,1.236-2.109,1.6a17.869,17.869,0,0,1-2.7,2.035c-1.361.945-2.214,1.09-2.776,2.035s-.926,2.544-2.188,2.617c-.363,0-.674-.146-1.018-.8a7.093,7.093,0,0,1-.819-1.745c-.224-.581.02-1.453-.548-1.889-.449-.364-.858-1.236-.31-1.745.925-.945,1.553-.872,3.212-1.235a10.186,10.186,0,0,0,2.973-1.381,31,31,0,0,1,2.975-1.381c1.11-.654,1.909-.654,2.9-1.381.694-.508.529-1.453.82-2.253l.846-2.326.847-2.326a14.027,14.027,0,0,1,.846-2.326,7.994,7.994,0,0,0,.874-2.4c.092-.654.6-1.454.9-2.471.238-.654.119-1.526.5-2.762.244-.872-.006-1.381-.515-1.381a17.749,17.749,0,0,0-1.963,0,25.358,25.358,0,0,0-3.166.509,3.145,3.145,0,0,1-2.947-.291c-.661-.581-1.2-1.09-.991-1.671a4.153,4.153,0,0,1,2.208-1.672,9.919,9.919,0,0,1,3.132-.218,15.088,15.088,0,0,1,2.8.509c1.13.291,1.943-.146,2.181,0,.4.291,1.494-.509,1.923-1.091.529-.653,1.586-1.163,2.459-1.962.324-.291.825-.073,1.414.509.542.508,1.043.727,1.34,1.308.218.8.556.872.972,1.526.344.654.449,1.163.052,1.454a12.158,12.158,0,0,1-2.208,1.671c-.642.364-1.674,2.4-2.057,3.053a10.071,10.071,0,0,0-.979,2.689Zm12.83-13.084c.311-.654.53-1.453,1-2.543.417-.945.482-1.526,1-2.544.311-.654.6-1.454.972-2.471a11.934,11.934,0,0,1,.926-2.544c.463-.873.695-2.108,1.191-3.27.337-.727.033-1.091-.839-1.89a3,3,0,0,0-2.451-.654,10.925,10.925,0,0,1-3.066-.364,1.3,1.3,0,0,1-.872-1.6,7.59,7.59,0,0,1,2.089-1.745,5.054,5.054,0,0,1,3.132-.218,15.169,15.169,0,0,0,2.795.509c.436,0,1.844-.072,2.326,0,.6.146,2.049-1.235,2.789-2.471.582-.8.516-1.817,1.058-2.907a29.694,29.694,0,0,0,1.118-3.271,8.69,8.69,0,0,1,1.144-3.344,1.856,1.856,0,0,1,2.2-.654c.5.218,1.937.073,2.994.363s2.432.509,2.015,1.454c-.47,1.091-1.414,1.091-2.116,1.817-.25.291-.475.509-1.2,1.308a19.074,19.074,0,0,0-1.156,2.18,8.189,8.189,0,0,0-1.084,2.981,9.885,9.885,0,0,0-.1,1.671c.119.872.549,1.09,1.282.872a10.684,10.684,0,0,0,3.041-1.962c.721-.582,1.567-2.108,2.624-1.818.721.218.483.873,1.2,1.308.952.582,1.2,1.09,1.916,1.526.522.364.463.727.714,1.236a2.1,2.1,0,0,1-.245,1.671,2.332,2.332,0,0,1-2,1.308,17.662,17.662,0,0,1-1.99.073c-.945,0-1.1-.364-1.9-.364l-1.712-.291a20.308,20.308,0,0,1-3.615.145,4.431,4.431,0,0,0-2.121.436c-.84.509-1.778.291-2.141,1.09a15.207,15.207,0,0,0-1.058,2.108,20.585,20.585,0,0,1-1.217,3.344,9.708,9.708,0,0,1-.847,2.326c-.41.727,1.071,1.454,1.85,1.308,1.044-.073,1.751.581,2.908,0,.984-.509,1.784-2.108,2.71-2.253.29,0,.779-.145,1.123.51.251.508.661.581,1.176,1.163.562.654,1.1.581.978,1.308.006.581.3.581.33,1.09.073.8-1.976,1.235-2.75,1.963-1.071.945-.384,1.453-.8,2.4a16.752,16.752,0,0,0-.9,2.471c-.424,1.163-.735,1.817-.9,2.471a5.881,5.881,0,0,1-.973,2.471,9,9,0,0,0-1.045,2.471,9.319,9.319,0,0,1-1.09,2.4c-.159.437-.952,1.818-1.164,2.4a16.532,16.532,0,0,1-1.309,2.4,16.459,16.459,0,0,1-2.281,3.271,16.808,16.808,0,0,1-2.644,2.471,13.3,13.3,0,0,1-3.08,1.672c-1.169.218-2.7,1.235-3.608.726-.238-.145.232-1.235-.706-1.453a6.778,6.778,0,0,0-1.8-.654c-.919-.073-1.051-.509-1.507-.654-.5-.218-.218-.8.047-1.526.476-1.308,1.864-1.526,2.762-1.6s1.923.509,2.828.218c1.342-.29,2.406-.218,3.2-.8a10.6,10.6,0,0,0,2.387-2.762,10.274,10.274,0,0,0,1.177-2.035,21.136,21.136,0,0,1,1.057-2.107,9.98,9.98,0,0,0,.886-2.036,15.689,15.689,0,0,1,.913-2.108,10.914,10.914,0,0,0,1.131-2.907c.172-.872,1.137-2.326,1.157-2.98.014-.436.436-.8.417-1.744l-.118-1.672c-.125-1.453-.648-1.817-1.91-1.744a2.546,2.546,0,0,0-2.069,1.09,13.2,13.2,0,0,0-1.52,2.18,9.214,9.214,0,0,0-.958,2.035c-.516,1.017-.549,1.308-.933,1.962-.919,1.526-.985,2.108-1.871,3.344-.912,1.308-1.375,2.18-2.036,3.2-.634.945-1.368,1.963-2.181,3.2-.787,1.163-1.058,2.108-2.3,3.126a15.989,15.989,0,0,0-1.659,1.962,27.673,27.673,0,0,1-2.03,2.181,4.061,4.061,0,0,1-2.036,1.6c-.806.218-1.275.509-1.559.291-.522-.363-.284-1.817.774-3.126.529-.654,1.117-1.671,1.448-2.18.555-.726.886-1.235,1.388-1.817a21.274,21.274,0,0,0,2.248-2.98,22.4,22.4,0,0,0,2.03-2.98c.39-.873,1.156-1.381,1.408-2.471.073-.8,1.018-1.6,1.362-2.544.317-.872.74-1.236,1.19-2.471Zm-7.136-22.532c-.052-.654-.317-1.526-.35-2.035-.192-.872-1.057-1.09-1.592-1.817-.278-.436-1.011-1.017-.456-1.744a1.717,1.717,0,0,1,1.646-.727,7.063,7.063,0,0,0,1.8.436c.945,0,1.2.508,1.909.945.311.145.991.872,1.493,1.09a2,2,0,0,1,1.1,1.163,12.778,12.778,0,0,1,.687,1.308,2.268,2.268,0,0,1,.218,1.6c-.192.727.006,1.381-.371,1.817-.6.654-.675,1.454-1.739,2.181a7.713,7.713,0,0,1-2.36,1.09,1.6,1.6,0,0,1-1.692-.945,6.476,6.476,0,0,1-.224-2.18Zm35.951,14.464a12.446,12.446,0,0,1-2.325,0c-1.111-.145-1.718-.872-1.183-1.745a3.323,3.323,0,0,1,3.146-1.454c1.5.072,2.729.29,3.482.218a13.838,13.838,0,0,0,2.987-.218c.734-.218,1.924.508,3.054,0,.958-.436,1.507-1.745,2.974-2.181.733-.218,1.07-.145,1.269.509.106.509.825.727,1.368,1.235a4.085,4.085,0,0,1,.925,1.454c.25.509.872.8.152,1.381a4.72,4.72,0,0,1-1.983,1.454,7.494,7.494,0,0,1-2.32.581c-.582,0-1.639,1.309-2.485,2.035a22.947,22.947,0,0,0-2.572,2.472c-1.11,1.453-.33,1.308-.443,1.817-.3,1.236-1.137,1.526-1.878,1.963a2.9,2.9,0,0,0-1.507,1.745c-.364.8.554,1.672,1.949,1.235,1.124-.291,1.533-1.018,2.32-1.381a8.749,8.749,0,0,0,1.606-1.017,7.23,7.23,0,0,1,2.128-1.454c.951-.218,1.334.727,1.737,1.018a7.371,7.371,0,0,1,1.619,1.745,11.9,11.9,0,0,1,.859,1.235c.251.509.145.8-.39,1.672-.562.945-1.243,1.017-1.811,1.38a2.1,2.1,0,0,1-1.943.146,8.665,8.665,0,0,0-1.949-.436,8.3,8.3,0,0,0-2.326,0,17.545,17.545,0,0,1-2.737-.073c-.872,0-2.855.654-3.02,1.308a28.236,28.236,0,0,1-1.164,3.2,19.854,19.854,0,0,0-.933,2.762c-.423,1.163-.364,1.6-.728,2.4a8.644,8.644,0,0,0-.747,2.253,8.03,8.03,0,0,1-1.95,3.562l-2.32,2.18a5,5,0,0,1-2.631,1.236c-.727,0-2.029.582-2.8.29-.456-.145-.052-1.453-.726-1.6-.793-.218-1.2-.509-1.87-.654a7.385,7.385,0,0,1-1.7-.727c-.648-.218-.528-.945-.026-1.526,1.1-1.236,2.089-1.745,3.2-1.6,1.454,0,2.729.291,3.529.291,1.6,0,2.076-.509,2.28-1.672a12.252,12.252,0,0,1,1.085-2.98l1.084-2.98c.37-1.018.787-1.963,1.137-3.126a1.672,1.672,0,0,0-.019-1.744c-.245-.727-.337-.873-.991-.873-.727,0-1.916.073-2.326,0a5.164,5.164,0,0,0-3.311.51c-1.322.436-2.392.581-3.093-.291-.634-.654-1.163-.8-.7-1.671a3.146,3.146,0,0,1,1.917-1.672,4.386,4.386,0,0,1,3.278-.218c1.156.218,2.267.364,2.94.509a6.247,6.247,0,0,0,2.326,0c.436,0,1.011-.581,1.705-1.09a5.1,5.1,0,0,0,1.243-1.818c.523-1.235-.429-2.616.635-3.343,1.659-1.163,2.128.146,3.324-.945a23.384,23.384,0,0,1,1.943-1.745,5.616,5.616,0,0,0,1.408-1.672c.41-.727.443-1.017.265-1.526a1.749,1.749,0,0,0-1.625-.727c-.945,0-1.863-.073-2.326,0Zm4.793-8.577a16.2,16.2,0,0,0-2.313.363c-1,.364-1.586.364-1.8.945-.371,1.018-1.2,1.308-1.335,1.672a5.037,5.037,0,0,1-1.29,1.745,14.778,14.778,0,0,1-1.408,1.672c-.647.581-1.474,1.454-1.725,1.745-.827.873-2.657,2.108-3.074,1.454-.39-.727-.065-1.817.53-3.053.363-.8,1.031-1.236,1.421-2.108a4.461,4.461,0,0,1,1.362-1.745c.892-.654,1.124-1.89,2.274-3.053a10.6,10.6,0,0,0,1.209-1.527,9.736,9.736,0,0,1,1.236-1.6,12.873,12.873,0,0,0,1.885-2.981c.6-1.235,1-1.745,1.792-3.125a33.292,33.292,0,0,0,1.719-3.126c.5-1.163.173-2.471,1.8-3.343.985-.509,2.115.581,3.2.8,1.493.29,2.814.654,2.444,1.672a3.882,3.882,0,0,1-2.029,2.18,8.468,8.468,0,0,0-2.65,2.689,18.4,18.4,0,0,1-1.567,2.108c-.609.872-.185,1.308.469,2.108a4.284,4.284,0,0,0,2.974,1.018c.753-.073,2.947.29,3.78,0,.661-.218,1.468-1.236,2.313-1.963.423-.363,1.421-2.108,2.432-1.89a3.748,3.748,0,0,1,1.48.727c.549.291,1.454.8,1.7,1.526.337.872,1.454.8,1.8,1.454a1.867,1.867,0,0,1-.133,1.963c-.741,1.235-2.241,1.163-3.113,1.163-.846-.073-1.744-.8-2.987-.581-.925.145-1.884.581-2.782.654l-2.822.364c-1.071.146-1.864-.073-3.344,0Z" transform="translate(-492.806 -90.589)" fill="#fff"/>
    <path id="パス_43873" data-name="パス 43873" d="M3772.3-1710.624a8.044,8.044,0,0,0-2.75,1.163c-.668.436-2.075,1.308-2.67,1.745a15.87,15.87,0,0,0-2.267,2.035,10.01,10.01,0,0,0-1.448,1.381c-.5.581-.918.727-1.3,1.381a11.524,11.524,0,0,1-1.4,1.454,16.664,16.664,0,0,0-1.328,1.454c-.384.655-.317.872-1.256,1.453-.839.51-1.19.872-1.329,1.454a2.239,2.239,0,0,1-1.256,1.454c-.668.436-.806,1.017-1.184,1.453a18.065,18.065,0,0,0-1.606,1.818c-.344.945-1.1,1.017-1.547,1.453a2.433,2.433,0,0,1-1.765.654c-1.038-.145-1.282-.073-1.771-.727-.324-.509-.265-.872-.211-1.817a8.451,8.451,0,0,1,1.428-2.326,18.38,18.38,0,0,1,2.334-2.617c.819-.654,1.553-1.671,2.4-2.4.522-.436,1.177-1.236,1.9-1.817.695-.509,1.507-1.745,2.274-2.253a16.609,16.609,0,0,0,2.2-2.254,20.7,20.7,0,0,1,2.1-2.18c.72-.581,1.507-1.744,1.93-2.107a22.762,22.762,0,0,0,1.9-2.036c.3-.436,1.131-1.308,1.858-2.108a8.612,8.612,0,0,0,1.831-2.035c.41-.727,1.024-1.018,1.732-1.963a8.274,8.274,0,0,1,1.732-1.962,7.8,7.8,0,0,0,1.758-2.035c.589-1.018,1.17-1.018,1.732-1.963a7.564,7.564,0,0,1,1.731-1.963,15.467,15.467,0,0,0,1.983-2.253,21.825,21.825,0,0,1,1.957-2.18,9.271,9.271,0,0,0,1.937-2.326,11.713,11.713,0,0,1,1.837-2.253,6.711,6.711,0,0,0,1.633-2.689c.166-.655.213-2.181-.6-2.544-.693-.29-.878-.582-1.262-.727-.429-.218-1.361.145-1.413-.509-.066-1.018.437-1.6,1.685-2.036a3.416,3.416,0,0,1,2.082.073,15.627,15.627,0,0,0,2.207.726c.6.146.594.364,1.09.8.542.508.655.8,1.011,1.017.475.291.409.872.839,1.09.357.218.5.436.568,1.235s.356,1.817.125,2.254a6.84,6.84,0,0,1-1.97,1.817,17.51,17.51,0,0,1-1.936,1.526,6.033,6.033,0,0,0-1.725,1.745c-.932,1.163-1.554,1.672-2.155,2.326s-1.752,1.817-2.154,2.326c-.556.727-1.626,1.672-2.155,2.326a30.179,30.179,0,0,0-2.129,2.253,5.322,5.322,0,0,1-1.329,1.454,7.631,7.631,0,0,0-1.4,1.454,10.235,10.235,0,0,1-1.48,1.672,12.659,12.659,0,0,0-1.752,1.817c-.687,1.091-1.005,1.963-.523,2.036.529.145,1.771-.073,3.344,0,.872,0,1.731.436,2.121.364.463-.073,1.077.436,1.606.582.72.218.9.727,1.308.8a.978.978,0,0,1,.938,1.017c.046.873.819,1.745.4,2.907-.238.654.191.872.145,1.6-.027.873.264.873-.08,1.817a9.665,9.665,0,0,0-.37,1.817,5.067,5.067,0,0,1-.55,2.108c-.364.8-.113,1.308-.522,2.036a3.011,3.011,0,0,0-.3,2.035c.133.436-.3,1.235.02,1.745.377.364.231,1.162.515,1.38.449.364.535.727,1.183.945a3.568,3.568,0,0,0,2,.291c1.078-.364,1.177.364,2.089-.146a11.338,11.338,0,0,1,2.075-.509c.807-.218.984-.509,2.108-.8.634-.145,1.381-.8,2.141-1.09.417-.145,1.091-.8,1.976-1.235a9.065,9.065,0,0,0,2.029-1.382c.548-.508,1.4-.654,1.937-1.526.41-.727,1.117-.872,1.791-1.526a13.343,13.343,0,0,0,1.97-1.817,8.228,8.228,0,0,1,1.923-1.889c.74-.436.979-1.091,1.778-1.89.753-.873.82-1.454,1.514-1.963.4-.291.642-1.163,1.541-2.035.674-.655.641-1.163,1.566-2.108.377-.436.728-1.6,1.422-2.108.621-.509.893-1.454,1.739-2.181.872-.8,2.6-.146,2.5.726.171.727-.906,1.89-1.1,2.617-.219.8-1.038,1.454-1.4,2.035s-.958,1.236-1.62,2.253-1.156,1.382-1.745,2.4c-.615,1.09-1.455,1.6-1.99,2.471-.311.655-1.342,1.091-1.679,1.817a21.213,21.213,0,0,1-1.9,2.035,11.647,11.647,0,0,1-1.977,2.035c-.522.436-1.395,1.236-2.194,2.035-.945.8-1.646,1.526-2.313,1.962-1.064.727-2.082,1.526-2.379,1.745-.694.509-1.633,1.09-2.572,1.671a26.581,26.581,0,0,0-2.584,1.309,10.71,10.71,0,0,1-2.723,1.09c-.687.291-1.732.363-2.637.654a4.768,4.768,0,0,1-2.623.218,11.941,11.941,0,0,1-2.683-.218c-.64-.436-1.467-.363-2.088-.654-.792-.218-.825-.727-1.519-1.018s-.746-.945-1-1.454a7.1,7.1,0,0,1-.356-1.817,9.565,9.565,0,0,1-.033-2.108c.047-.727.47-1.89.437-2.4a12.444,12.444,0,0,1,.787-2.761,28.624,28.624,0,0,1,1.125-3.489,12.736,12.736,0,0,0,.516-3.417,4.053,4.053,0,0,0-.72-2.617,3.8,3.8,0,0,0-2.9-1.017Z" transform="translate(-569.497 -96.53)" fill="#fff"/>
    <path id="パス_43874" data-name="パス 43874" d="M3967.241-1700.642a7.735,7.735,0,0,1-1.646,1.526,12.589,12.589,0,0,1-2.373,1.526,18.266,18.266,0,0,0-2.195,1.236,12.6,12.6,0,0,1-3.377,1.89,11.493,11.493,0,0,0-2.366,1.309c-.469.291-1.645.727-2.042,1.017a10.467,10.467,0,0,1-2.385,1.163,22.611,22.611,0,0,1-2.789.873c-1.315.218-1.745.8-2.6.945-.734.217-1.91.653-2.617.8a11.094,11.094,0,0,0-2.637.654c-1.275.509-1.552.073-2.583.509a4.071,4.071,0,0,1-2.505.291c-1.011-.218-1.9.218-2.5.072a8.7,8.7,0,0,0-3.073-.146,11.6,11.6,0,0,1-2.458-.436,3.946,3.946,0,0,1-1.963-.8c-.568-.436-1.334-.728-1.44-1.236-.079-.581-.6-.945-.772-1.672-.125-.654.113-1.308-.25-2.107a8.179,8.179,0,0,1,.344-2.544,7.953,7.953,0,0,1,.919-3.125,5.517,5.517,0,0,0,.866-2.181c.119-.726.86-1.962,1.237-3.2.186-.509.621-1.308.886-2.035.238-.655.628-1.527.84-2.108a11.379,11.379,0,0,1,.946-2.4,17.368,17.368,0,0,0,1-2.544,20.2,20.2,0,0,0,1.522-3.78c.145-.8,1.038-2.253,1.369-3.561a17.3,17.3,0,0,1,1.547-3.853,20.189,20.189,0,0,0,1.521-3.78c.231-.436.687-1.889.972-2.471.423-1.163.853-2.544,1.217-3.344a6.584,6.584,0,0,0,.556-2.326,2,2,0,0,0-.29-1.6c-.231-.364-.866-1.018-1.229-1.018-.654,0-2.035,0-2.267-.363-.489-.654.133-1.962,1.5-2.326a11.681,11.681,0,0,1,2.755-.581c1.381,0,2.326,0,2.934.727a3.21,3.21,0,0,0,1.09.8c.429.219,1,.654,1.037.945.086.363.68.727,1.2,1.308a2.272,2.272,0,0,1,.594,1.962c-.4,1.309-1.871,1.745-1.9,2.035a5.172,5.172,0,0,0-1.13,1.308,14.2,14.2,0,0,0-.86,1.963,14.157,14.157,0,0,1-1.719,3.925c-.6,1.235-1.349,2.907-1.72,3.925-.4,1.089-1.019,2.4-1.594,3.779-.793,1.381-1.032,2.835-1.495,3.707a29.04,29.04,0,0,0-1.495,3.706c-.225,1.018-.939,2.181-1.4,3.635a24.125,24.125,0,0,0-1.4,3.634c-.628,1.526-.847,2.326-1.323,3.634-.212.581-.549,1.308-.767,2.108-.4,1.09-.516,1.817-.622,2.108a15.489,15.489,0,0,0-.231,2.035c-.139.582-.285,1.381.283,1.817.449.363.813.363,1.328.945.35.436.958.364,1.605.582,1.269.509,2.809.073,3.873.145.555.072,1.7-.073,2.207-.073.436,0,1.269-.291,2.287-.291a9.839,9.839,0,0,0,2.34-.436,16.261,16.261,0,0,1,2.293-.51c.436,0,1.864-.727,2.373-.727a9.886,9.886,0,0,0,2.4-.8c.859-.363,1.837-.654,2.379-.945a23.551,23.551,0,0,0,2.307-.945c.74-.436,1.031-.436,1.745-.8.442-.218,1.156-.582,1.771-.873.886-.436,1.064-.727,1.851-1.09a7.07,7.07,0,0,0,1.6-.8,5.736,5.736,0,0,0,1.731-1.163,9.756,9.756,0,0,1,1.8-1.163c.5-.364.866-.581,1.858-1.308a3.49,3.49,0,0,1,1.691-.654c.945,0,1.5.872,1.03,1.962C3968.5-1701.514,3967.644-1701.151,3967.241-1700.642Zm-7.839-38.377a5.336,5.336,0,0,1,1.929.291,10.348,10.348,0,0,1,2.009.872c.621.291,1.474.945,1.738,1.018.647.218.68.726,1.374,1.017.311.145.6.945.932,1.236.542.508.277,1.235.363,1.6a2.331,2.331,0,0,1-.325,1.89c-.562.945-.575,1.381-1.243,1.817a5.122,5.122,0,0,1-1.989.872,1.854,1.854,0,0,1-1.823-1.381c-.225-.581-.026-2.326-.521-2.762a4.315,4.315,0,0,0-2.16-3.053,3.917,3.917,0,0,1-1.618-.945c-.252-.508-.773-.872-.363-1.6C3958.014-1738.8,3958.549-1738.875,3959.4-1739.02Zm7.752-3.125c-.906-.509-1.216-.654-.878-1.381.417-.945,1.639-1.308,3.152-.873.628.073,1.89.8,2.643.728.462-.073,1.4.945,1.784,1.09.429.219,1.116.727,1.5.872.621.291,1.024.582,1,1.236.08.582.628.872.489,1.454a5.978,5.978,0,0,0-.272,1.745c0,.8-.721,1.381-1.269,1.889a2.335,2.335,0,0,1-1.943.945c-.78.145-1.374-.218-1.685-1.163-.2-.654-.707-1.453-.641-2.035.04-.508-.621-1.09-.772-1.671a2.721,2.721,0,0,0-1.044-1.527Z" transform="translate(-654.475 -96.481)" fill="#fff"/>
    <path id="パス_43875" data-name="パス 43875" d="M4101.946-1711.576c.753-.072,1.494-.508,2.518-.727a16.606,16.606,0,0,0,2.412-.436c.734-.218,1.7-.073,2.479-.218,1.269-.291,1.612.363,3.112.436a2.5,2.5,0,0,1,1.387.581c.331.291.992.073,1.335.727.2.436.76.509,1.011,1.017.277.436.383.945.568,1.236a3.2,3.2,0,0,1-.147,3.2c-.515,1.017-1.084,2.18-1.414,2.689a9.822,9.822,0,0,1-2.03,2.181,17.8,17.8,0,0,1-2.426,1.671,13.07,13.07,0,0,1-2.729,1.308,17.277,17.277,0,0,0-2.861.872,4.393,4.393,0,0,1-2.472.8c-1.189.073-1.9.218-2.7.218a19.021,19.021,0,0,1-2.523.146,4.245,4.245,0,0,0-1.937-.073,11.483,11.483,0,0,1-2.782-.146,7.217,7.217,0,0,1-2.848-.363c-.885-.364-2.385-.436-2.537-1.018-.172-.727.668-2.035,1.56-1.889a11.722,11.722,0,0,0,2.274.145c.654,0,1.651.654,2.774.364,1.2-.29,1.693.146,2.816-.146.879-.218,2.029.218,3.6-.29a4.9,4.9,0,0,1,2.366-.509,9.992,9.992,0,0,0,2.373-.727,9.9,9.9,0,0,0,2.234-.945,11.781,11.781,0,0,0,1.976-1.236,21.7,21.7,0,0,0,1.619-1.454c.8-.8.9-.872,1-1.745.039-.508.535-1.672.251-1.89a4.374,4.374,0,0,1-.833-1.308c-.389-.727-.951-.581-1.552-.727a7.587,7.587,0,0,0-1.883-.218,18.875,18.875,0,0,1-2.405.218,14.74,14.74,0,0,0-2.465.582c-.952.218-1.666.581-2.472.8-.488.146-1.447.582-2.524.945-.416.145-.859.363-1.817.8-.76.291-.8.8-1.818.8-.871,0-1.5.727-1.817.8-.781.145-1.118.872-1.772.872a5.968,5.968,0,0,0-1.917.873,6.549,6.549,0,0,0-1.87.945,17.958,17.958,0,0,1-1.963,1.6,2.251,2.251,0,0,0-.536,1.672c.106.508.059,1.235.177,2.108.1.727.363,1.6.423,2.035.164.945.389,1.526.422,2.035a8.454,8.454,0,0,0,.323,2.108,2.663,2.663,0,0,1,.349,2.035,8.075,8.075,0,0,0,.324,2.108c.191.873-.219,1.6.349,2.036.4.291.377,1.163.264,1.672-.291.8.139,1.017.139,1.817a7.011,7.011,0,0,1-.034,1.89,7.026,7.026,0,0,0-.5,1.963c.027.727-.541,1.09-1.07,1.745a3.151,3.151,0,0,1-1.871.945,1.728,1.728,0,0,1-1.9-1.381,11.442,11.442,0,0,1-.059-2.835,12.511,12.511,0,0,1,.034-2.69,9.738,9.738,0,0,1-.066-2.616,13.108,13.108,0,0,0-.138-2.617c-.1-.726-.185-1.89-.238-2.544a12.655,12.655,0,0,0-.237-2.543,8.825,8.825,0,0,1-.383-2.544,10.236,10.236,0,0,0-.429-2.617,1.341,1.341,0,0,0-1.249-1.163c-1.038-.146-1.831.436-2.737.727a11.551,11.551,0,0,0-2.042,1.018,15.026,15.026,0,0,0-1.95,1.163c-.363,0-1.255.654-2.253.8-1.143.146-1.341-.508-2.108-.8a2.276,2.276,0,0,1-1.354-1.672c-.244-.727-.859-1.235-1.05-2.108a1.822,1.822,0,0,1,.676-2.253c.667-.436,1.909-.654,2.167.436a1.831,1.831,0,0,0,1.942,1.453c.972-.072,1.56-.29,2.069-.29.945,0,1.454-.8,2.181-.8.509,0,.806-.218,1.791-.727a3.814,3.814,0,0,0,1.693-1.454,2.717,2.717,0,0,0,.417-1.745,10.46,10.46,0,0,1-.244-1.526,5.112,5.112,0,0,1,.357-2.981,5.381,5.381,0,0,1,1-1.744,8.394,8.394,0,0,1,1.455-1.6c.423-.364,1.117-.872,1.811-1.381.4-.29,1.276-.508,1.845-.872a8.369,8.369,0,0,1,3.482-.581c1.19-.073,2.187.581,4.289,0,1.124-.291,1.355-1.527,1.573-2.326.324-1.09.542-2.689.741-3.634.443-1.018,1.058-2.907,2.34-2.835.991.073,1.2.509.912,1.091a4.566,4.566,0,0,1-.251,1.889,3.354,3.354,0,0,0,.059,2.035,6.417,6.417,0,0,0,.62,1.889,2.888,2.888,0,0,1,.5,2.036,6.448,6.448,0,0,1-.232,2.035c-.648,1.38-1.481,2.471-2.744,2.543-.509,0-1.229-.218-1.361-.654-.251-.509-.865-1.017-2.293-1.09-1.209-.073-1.228-.219-1.738-.219-.945,0-2.147-.29-3.191-.218a8.279,8.279,0,0,0-2.828.582,4.587,4.587,0,0,0-2.175,2.18c-.119.727.006,2.181-.159,2.835-.159.436.35.436.515,1.381.079.582.509.8.865,1.018a3.673,3.673,0,0,0,1.93-.508,6.856,6.856,0,0,1,1.719-.727c.906-.29,1.354-.727,1.718-.727.872,0,1.91-.654,3.41-1.381.859-.363,1.99-.872,3.483-1.381,1.342-.29,2.116-1.017,3.384-1.308Z" transform="translate(-723.704 -106.481)" fill="#fff"/>
    <path id="パス_43876" data-name="パス 43876" d="M4217.643-1694.749c-.126.945-.958,2.035-1.177,2.835-.113.509-.807,1.017-1.1,1.817a9.863,9.863,0,0,1-1.566,2.108,10.7,10.7,0,0,1-1.844,1.671c-.886.436-1.434.945-1.937.727-1.361-.653-.826-1.526-.74-1.962a6.153,6.153,0,0,0-.362-2.4,4.822,4.822,0,0,0-1.077-2.035c-.687-.509-.9-1.526-1.374-1.817s-1.189-1.526-1.525-1.6c-1.031-.364-1.229-.218-2.267.436-.84.509-.807,1.017-1.488,1.09-.972.072-2.736.727-3.839.363a6.691,6.691,0,0,1-1.75-1.381,3.1,3.1,0,0,1-.925-2.253,2.964,2.964,0,0,1,.529-2.253c.377-.436.74-1.236,1.521-1.381s.859.436,1.011,1.018c.158.364.548,1.09,1.38.8,1.25-.436,1.943-.945,2.533-1.163a4.247,4.247,0,0,0,1.671-.8c1.071-.945,1.612-.436,2.485-1.236a7.263,7.263,0,0,1,2.313-1.162,3.845,3.845,0,0,0,1.731-1.163,18.675,18.675,0,0,1,1.989-.873,18.477,18.477,0,0,0,2.05-1.235c.813-.436,1.976-.436,2.386-1.163.535-.872,1.738-1.382,1.95-1.963a11.46,11.46,0,0,1,.913-2.108c.509-.8.383-1.454,1.229-2.98.464-.872.7-2.326,1.317-3.416a1.622,1.622,0,0,0-.567-2.035,2.967,2.967,0,0,0-2.38-.655,12.243,12.243,0,0,1-3.615.145,8.138,8.138,0,0,1-2.107-.8,1.973,1.973,0,0,1-1.354-1.672c-.191-.872-.76-1.308-1.044-2.325-.157-1.163-.23-1.963.682-2.471.839-.51,1.051-.291,1.7-.291.364,0,1,.654,1.349,1.091.561.654.792,1.017,1.262,1.526a1.818,1.818,0,0,0,1.625.727,5.545,5.545,0,0,0,2.214-.291,6.059,6.059,0,0,1,2.26-.218,4.7,4.7,0,0,0,2.095-1.163c.6-.654,1.242-1.017,1.58-1.744.569-1.163.887-2.835,1.349-3.707a4.676,4.676,0,0,0,.272-3.343,3,3,0,0,0-2.233-1.454c-1.236,0-2.346-.145-2.247-1.017s.952-1.817,2.645-2.471a9.307,9.307,0,0,1,2.57-.873,6.549,6.549,0,0,1,2.041.582c.886.364,1.745.8,2.366,1.091.806.582,1.506.654,1.87,1.453a3.655,3.655,0,0,1,.4,1.89c-.191.727-1.137,1.526-1.513,1.963a5.927,5.927,0,0,0-1.495,2.108c-.37,1.017-1.626,2.471-1.31,3.2s1.07.654,1.877.436a7.172,7.172,0,0,0,2.062-.872,17.151,17.151,0,0,1,2.241-1.163c.634-.145,1.275-1.308,3.277-1.018a3.131,3.131,0,0,1,1.679.582c.4.291.237.945.224,1.381-.013,1.236-1.137,1.526-2.121,2.035s-2.215,1.091-3.074,1.454a17.347,17.347,0,0,0-2.994,1.236,9.865,9.865,0,0,1-2.009.726c-1.058.509-1.44.364-1.91.655a8.805,8.805,0,0,0-2.744,2.544,37.662,37.662,0,0,0-1.541,3.634,32.717,32.717,0,0,0-1.019,3.2c.225.582.145,1.6,1.189,1.526a7.185,7.185,0,0,0,2.386-.364c.688-.291,1.018,0,2.075-.508a4.044,4.044,0,0,1,1.976-.436,15.974,15.974,0,0,1,2.194-.436,22.17,22.17,0,0,0,2.266-.436,9.078,9.078,0,0,0,2.261-.218,6.782,6.782,0,0,1,2.207-.073c.945,0,1.177.364,2.419.146a4.364,4.364,0,0,1,2.385.436,3.357,3.357,0,0,1,2.108.8,6,6,0,0,0,1.83,1.163,4.811,4.811,0,0,1,1.334,1.526c.112.291,1.064.873.767,1.889-.153,1.018.23,1.163.2,2.254a6.338,6.338,0,0,1-.615,2.689c-.357.581-.807,1.817-1.237,2.4a10.375,10.375,0,0,1-1.593,2.18,20.322,20.322,0,0,0-2,1.89,5.332,5.332,0,0,1-2.3,1.526c-.661.218-1.243,1.018-2.44,1.308a16.589,16.589,0,0,1-2.424.873,9.258,9.258,0,0,0-2.466.582,7.886,7.886,0,0,1-2.405.218,4.716,4.716,0,0,0-1.982-.145c-.906.291-1.554.073-1.831-.364-.2-.436-1.268-.508-1.7-.508a2.321,2.321,0,0,1-1.527-.8c-.661-.581-1.222-.436-1.737-1.017-.561-.654-1.618-.945-1.777-1.308-.343-.654-1.275-1.09-1.327-1.745a3.117,3.117,0,0,1,.952-1.817,2.064,2.064,0,0,1,2.181,0c.311.145.873.8,1.3,1.018a9.77,9.77,0,0,0,1.81,1.017c.866.218,1.692.945,2.412,1.163,1.031.364,1.771-.072,2.974.218a25.384,25.384,0,0,0,3.5-.436,7.1,7.1,0,0,0,3.5-1.236,6.018,6.018,0,0,0,1.652-.945,10.456,10.456,0,0,1,1.468-1.236,6.286,6.286,0,0,0,2.009-3.125,7.549,7.549,0,0,0,.5-1.962c.073-.8-.291-.8-.072-1.6.092-.654-.516-.581-.469-1.308.039-.508-.556-.872-.839-1.09-.568-.436-.766-.29-1.235-.8a4.1,4.1,0,0,0-1.487-.508,13.045,13.045,0,0,0-3.4-.437c-.872,0-1.724.146-2.133.073-.529-.145-1.878.364-2.169.364a5.38,5.38,0,0,0-2.22.508,12.036,12.036,0,0,1-2.2.654,30.107,30.107,0,0,0-3.04,1.163,31.9,31.9,0,0,0-3.041,1.163,5.163,5.163,0,0,0-2.63,2.035,12.747,12.747,0,0,0-1.012,2.18,7.4,7.4,0,0,0-.787,2.763,18.6,18.6,0,0,1-1.045,3.271Zm-1.9-6.76c.37-1.018-.622-1.09-2.016-.654a14.042,14.042,0,0,0-2.1,1.163c-1.11.655-1.877,1.163-2.346,1.454a2.033,2.033,0,0,0-.887,2.035c0,.8.793,1.018,1.242,2.18.112.291.733.582,1.361.654.41.073.878.582,1.461.582s.693-.509,1.256-1.454c.2-.363.4-1.308.694-2.108C4214.624-1698.237,4214.815-1698.964,4215.742-1701.508Zm46.189-14.464a20.372,20.372,0,0,1-2.028-.218c-1.143.146-1.507.146-2.114.218-1.1.218-1.256-.145-2.241.364a5.66,5.66,0,0,1-2.413.436c-1.566.508-2.987.218-2.953-.073-.027-.727.2-1.744.978-1.89a29.666,29.666,0,0,1,3.053-1.6,6.032,6.032,0,0,0,2.558-1.236c.423-.364.887-2.035.1-2.471a4.063,4.063,0,0,1-1.394-1.163,2.735,2.735,0,0,0-1.579-.654,15.408,15.408,0,0,1-1.738-.218,5.709,5.709,0,0,0-2.373-.073c-1,.146-1.857.51-2.393.582-.924.145-1.519.582-1.883.582-.872,0-1.063-.073-1.2-.509-.153-.581.224-1.017,1.249-2.035a11.992,11.992,0,0,1,1.633-1.091,5.507,5.507,0,0,1,1.79-.727,10.354,10.354,0,0,1,3.046-.582c.773.073,1.95-.364,2.65-.29a14.438,14.438,0,0,1,3.106.654c.72.218.786.436,1.46.581a4.988,4.988,0,0,1,1.361.654c.621.291.508.8,1.11.945.455.145,1.03.363,1.011,1.017-.047.727.574,1.017.785,1.236.377.364.364.8.588,1.381.178.508-.066,1.38.4,1.89.4.508.152,1.381-.312,2.253C4263.914-1717.426,4263.22-1716.118,4261.931-1715.973Z" transform="translate(-786.215 -98.087)" fill="#fff"/>
    <path id="パス_43877" data-name="パス 43877" d="M4405.158-1710.446a13.688,13.688,0,0,1-1.818,3.2c-.833,1.09-1.343,1.89-2.2,3.053a16.012,16.012,0,0,1-2.531,2.762,8.561,8.561,0,0,0-1.349,1.308c-.376.436-.819.654-1.394,1.236a9.06,9.06,0,0,1-1.541,1.236c-.5.364-1.13.509-1.587,1.163-.555.727-1.209.727-1.559,1.09a3.131,3.131,0,0,1-1.679,1.018c-.635.145-.655.8-1.725.945-.364,0-1.408.872-1.7.872-.9.073-1.117.872-1.9,1.018a19.055,19.055,0,0,0-1.99.872c-.614.291-1.275.509-1.817.8s-1.2.292-1.91.654-1.514.364-1.957.582a13.761,13.761,0,0,1-2.591.726,10.5,10.5,0,0,1-2.021.364c-.463.073-2.135.073-1.831-1.163a3.2,3.2,0,0,1,2.763-2.4,14.087,14.087,0,0,0,2.248-.582,17.37,17.37,0,0,1,1.982-.654c.8,0,1-.363,1.712-.509a14.249,14.249,0,0,0,2.016-.945,10.83,10.83,0,0,0,2.042-1.017,9.324,9.324,0,0,1,2.022-1.163c.76-.291,1.144-.945,2.049-1.236a12.784,12.784,0,0,0,2.379-1.745,14.4,14.4,0,0,0,2.288-1.89,17.141,17.141,0,0,1,2.122-2.035c.6-.436.886-1.235,1.957-2.181a10.418,10.418,0,0,0,1.765-2.253,26.779,26.779,0,0,1,1.5-2.326,7.092,7.092,0,0,0,1.336-2.471,12.655,12.655,0,0,0,1.071-2.543,19.786,19.786,0,0,1,.668-2.036c.132-.363.667-1.235.423-1.962a8.261,8.261,0,0,1,.133-1.963,8.715,8.715,0,0,0-.165-1.744c-.053-.654-.132-1.236-.535-1.526-.448-.364-.595-1.163-1.031-1.163s-.33-1.09-1.479-.726a10.427,10.427,0,0,1-2.1-.218,7.667,7.667,0,0,0-3.113.364c-.833.291-1.883.581-3.086,1.09-1.3.581-1.9,1.235-3.081,1.671a13.878,13.878,0,0,0-2.894,1.963,12.3,12.3,0,0,1-2.083,1.526,21.228,21.228,0,0,1-2.1,1.38,2.533,2.533,0,0,1-2.445-.072c-.628-.073-.536-.727-1.1-1.381a3.207,3.207,0,0,1-.5-1.817,7.122,7.122,0,0,1,.305-2.036,7.507,7.507,0,0,1,1.573-3.125c.9-.873.88-1.817,2.2-2.835a4.42,4.42,0,0,0,1.3-1.381c.3-.436,1.018-.8,1.494-1.308a5.94,5.94,0,0,1,1.566-1.308,5.984,5.984,0,0,0,1.586-1.163,4.231,4.231,0,0,1,1.587-1.163,15.78,15.78,0,0,1,1.7-1.09,10.721,10.721,0,0,0,1.679-1.018c.569-.364.813-.436,1.752-1.018.813-.436,1.215-.945,1.923-1.09a2.467,2.467,0,0,0,1.632-1.889c-.026-.727.166-1.454-.719-1.817-.792-.218-1.242-1.381-1.546-1.745-.4-.508-.859-1.236-1.281-1.671a1.954,1.954,0,0,1,.014-2.835c1.09-.8,2.134-.073,2.815.654a5.382,5.382,0,0,0,1.459,1.381c.713.436,1.037.945,1.473.945,1.381,0,1.791.872,3.046,1.017,1.184.145,1.844.727,3.08.727.8,0,1.56.509,2.5.509a5.475,5.475,0,0,1,1.917.726,4.469,4.469,0,0,1,1.176,1.163,2.082,2.082,0,0,1-.08,1.818,8.014,8.014,0,0,1-1.237,1.6c-.476.508-1.249.436-1.91.655-.806.218-1.738-.218-2.491-.146a8.858,8.858,0,0,1-2.465-.218c-.483-.073-1.513.364-2.168.364a9.555,9.555,0,0,0-2.862.872,14.32,14.32,0,0,0-3.192,1.381c-.839.509-1.15.363-1.625.872a2.629,2.629,0,0,1-1.725.945c-.536.073-.926.945-1.606,1.017-.753.072-.569.364-1.461,1.017-.648.581-1.738,1.381-2.729,2.108a5.979,5.979,0,0,0-2.083,2.326c-.391.873-1.62,2.253-.933,2.762.76.509,2.016-.145,2.742-.145.655,0,1.329-.654,1.865-.727a3.92,3.92,0,0,0,2.062-.872,10.214,10.214,0,0,1,2.281-.872,25,25,0,0,0,2.444-.727c.714-.363,1.706-.29,2.466-.581a4.475,4.475,0,0,1,2.378-.146,11.856,11.856,0,0,1,3.02.291,20.541,20.541,0,0,1,2.418.945,2.152,2.152,0,0,1,1.8,1.454c.217.8,1.175,1.163,1.175,1.963a10.709,10.709,0,0,0,.68,2.326c.218.8-.325,1.889.065,2.616a5.107,5.107,0,0,1-.4,2.907,16.993,16.993,0,0,1-.893,3.053C4405.952-1712.627,4405.872-1711.609,4405.158-1710.446Z" transform="translate(-871.157 -93.8)" fill="#fff"/>
    <path id="パス_43878" data-name="パス 43878" d="M4544.658-1692.178c-.6.654-.661,1.018-1.573,1.527-.74.436-1.037.654-1.851,1.09a5.2,5.2,0,0,1-1.976.436c-.971.073-.958-.363-1.658-.436-.819-.146-.952-.582-1.13-1.09a2.565,2.565,0,0,1-.462-1.527,7.163,7.163,0,0,1,.3-1.817,4.437,4.437,0,0,1,1.025-1.817,18.811,18.811,0,0,1,1.573-1.526,5.845,5.845,0,0,1,1.923-1.09,3.983,3.983,0,0,1,1.95-.364,10.694,10.694,0,0,1,1.685.364c.312.145.589.582,1.057,1.09.3.363.191.872.462,1.526.2.436-.225,1.017-.225,1.817A3.309,3.309,0,0,1,4544.658-1692.178Zm9.068-49.28a12.618,12.618,0,0,1,1.632-1.889,8.227,8.227,0,0,1,2.03-1.382,5.939,5.939,0,0,1,2.292-.508c.925-.145,1.322.364,1.923.508.72.218.627.873.951,1.382.351.436.2,1.454.257,1.889a3.98,3.98,0,0,1-.4,2.108c-.344.945-.946,1.6-.992,2.326-.126.945-.973,1.672-1.21,2.326a8.01,8.01,0,0,1-1.256,2.253c-.952,1.017-.9,1.672-1.329,2.253-.41.727-.721,1.381-1.256,2.253-.608.872-.9,1.671-1.23,2.18-.536.872-.979,1.89-1.183,2.254a11.558,11.558,0,0,0-1.084,2.18c-.239.654-.648,1.381-1.039,2.253a18.778,18.778,0,0,0-.965,2.253,7.415,7.415,0,0,0-.893,2.254c-.112.509-.5,1.163-.893,2.254a13.885,13.885,0,0,0-.82,2.253,18.882,18.882,0,0,1-.88,2.616,16.178,16.178,0,0,1-1.2,2.689c-.662,1.018-1.032,1.235-1.633,1.09s-1.083-.218-.839-1.09a11.46,11.46,0,0,1,.761-2.689c.258-.508.733-1.817,1.024-2.616a9.369,9.369,0,0,1,.821-2.253,12.849,12.849,0,0,0,.748-2.254,11.2,11.2,0,0,1,.675-2.254,9.837,9.837,0,0,0,.674-2.253,5.431,5.431,0,0,1,.6-2.253,6.361,6.361,0,0,0,.5-2.18,6.793,6.793,0,0,0,.529-2.254,3.9,3.9,0,0,1,.384-2.254,3.035,3.035,0,0,0,.286-2.18c-.251-.509.336-1.526.383-2.253a13.5,13.5,0,0,1,.384-2.253,15.743,15.743,0,0,1,.483-2.326c.159-.436.41-1.526.7-2.326A10,10,0,0,1,4553.727-1741.458Z" transform="translate(-951.542 -96.151)" fill="#fff"/>
  </g>
</svg>
