<svg xmlns="http://www.w3.org/2000/svg" width="656" height="137.608" viewBox="0 0 656 137.608">
  <path id="パス_43913" data-name="パス 43913" d="M655.9,124.329c-.156.788,0,1.212-.441,1.94a12.186,12.186,0,0,0-.925,1.941,8.9,8.9,0,0,1-1.165,1.758,19.24,19.24,0,0,1-1.486,1.637,8.231,8.231,0,0,1-1.664,1.455,20.077,20.077,0,0,1-1.883,1.212,6.312,6.312,0,0,1-1.935.849c-.692.242-1.1.363-2.033.606a5.118,5.118,0,0,1-1.943.182,10.479,10.479,0,0,1-1.876-.182,6.573,6.573,0,0,1-1.605-.606,6.582,6.582,0,0,0-1.339-.849,4.936,4.936,0,0,1-.968-1.212,8.857,8.857,0,0,1-.722-1.394,7.55,7.55,0,0,1-.272-1.637c-.026-.788-.468-.91.034-1.819.377-.728.181-1.031.5-1.941.38-.909.266-1.273.844-1.879.559-.728.644-.971,1.246-1.819.25-.363,1.033-1.212,1.425-1.637.289-.3,1-.789,1.725-1.455a6.831,6.831,0,0,1,1.8-1.152,13.846,13.846,0,0,0,2.018-.91,7.647,7.647,0,0,1,1.95-.546,13.518,13.518,0,0,1,2.025-.242,4.838,4.838,0,0,1,1.855.242,11.252,11.252,0,0,0,1.566.546,7.129,7.129,0,0,1,1.317.91c.5.3.653.728,1.049,1.152a1.855,1.855,0,0,1,.639,1.455,10.805,10.805,0,0,0,.334,1.637A5.822,5.822,0,0,1,655.9,124.329Zm-2.836-.728a4.977,4.977,0,0,0-.687-2.183,4.148,4.148,0,0,0-1.67-1.455,4.3,4.3,0,0,0-2.476-.546c-.934.243-2.251.364-2.86.546a8.954,8.954,0,0,0-2.716,1.516,12.04,12.04,0,0,0-2.223,2.183c-.417.667-.876,1.454-1.485,2.667a10.006,10.006,0,0,0-.372,2.607c-.01.546-.114.667.2,1.152a4.8,4.8,0,0,1,.486,1.031,1.343,1.343,0,0,0,.732.849c.478.363.66.363.938.606.675.667,1.609.424,2.415.546a8.8,8.8,0,0,0,2.86-.546c.649-.121.734-.363,1.365-.606a4.416,4.416,0,0,0,1.33-.849c.431-.364.965-.849,1.211-1.031a13.191,13.191,0,0,0,1.072-1.152,5.887,5.887,0,0,0,1.485-2.668A7.553,7.553,0,0,0,653.059,123.6ZM639.884,54.657c-.659.667-.723.849-1.333,1.031a14.474,14.474,0,0,0-1.665.424c-.427.182-.985-.3-1.223-.485-.5-.3-.433-.667-.565-1.152a4.035,4.035,0,0,1-.215-1.455,5.416,5.416,0,0,0-.055-1.394,6.672,6.672,0,0,1-.245-2.062,5.807,5.807,0,0,0-.447-2c-.114-.363-.255-1.515-.693-1.819-.479-.364-.508-.971-.879-1.637a6.071,6.071,0,0,0-1.081-1.576l-1.268-1.394c-.236-.364-.906-.182-1-.606-.075-.3-.781-.363-1.181-.606-.539-.363-1.484-.606-1.046-1.333.168-.3.456-.606,1.3-.606a15.315,15.315,0,0,1,1.937.182,9.76,9.76,0,0,1,2.091.606l1.826.667c.321.121,1.288.3,1.484.606a3.817,3.817,0,0,0,1.359.789c.56.3.936.788,1.257.91.5.3.86.485,1.092,1.03.175.364.6.364.732.849.075.3.514.606.65.909.193.485.493.667.547,1.031.108.728.35.728.465,1.091.225.91.19,1.7.359,2.425a5.937,5.937,0,0,1-.454,2.668A6.477,6.477,0,0,1,639.884,54.657ZM623.77,92.681c-.392.424-1.038.363-1.587.546-.67.182-1.451-.182-2.079-.121a7.424,7.424,0,0,1-2.058-.182c-.4-.06-1.258.3-1.8.3a7.88,7.88,0,0,0-2.378.728,11.79,11.79,0,0,0-2.649,1.152c-.7.424-.956.3-1.347.728a2.167,2.167,0,0,1-1.429.789c-.446.06-.763.788-1.33.849-.628.06-.47.3-1.208.849-.534.485-1.437,1.152-2.256,1.758a4.9,4.9,0,0,0-1.714,1.941c-.317.728-1.329,1.88-.751,2.3.638.424,1.68-.121,2.286-.121.546,0,1.1-.546,1.547-.606a3.226,3.226,0,0,0,1.711-.728,8.4,8.4,0,0,1,1.893-.728,20.517,20.517,0,0,0,2.033-.606c.591-.3,1.419-.242,2.05-.485a3.732,3.732,0,0,1,1.983-.122,9.9,9.9,0,0,1,2.522.243,17.372,17.372,0,0,1,2.027.788,1.823,1.823,0,0,1,1.513,1.213c.19.667.992.97,1,1.637a9.028,9.028,0,0,0,.59,1.941c.19.667-.251,1.576.081,2.183a4.254,4.254,0,0,1-.308,2.425,13.959,13.959,0,0,1-.715,2.546c-.523.97-.58,1.819-1.163,2.789a11.265,11.265,0,0,1-1.485,2.668c-.685.909-1.1,1.576-1.806,2.546a13.112,13.112,0,0,1-2.085,2.3,7.034,7.034,0,0,0-1.111,1.091c-.311.364-.678.546-1.151,1.031a7.488,7.488,0,0,1-1.272,1.031c-.41.3-.938.424-1.312.97-.456.606-1,.606-1.29.91a2.571,2.571,0,0,1-1.39.849c-.528.121-.538.667-1.43.788-.3,0-1.165.728-1.408.728-.749.061-.923.728-1.572.849a15.571,15.571,0,0,0-1.651.728c-.51.242-1.059.424-1.508.667s-1,.243-1.587.546-1.259.3-1.626.485a11.393,11.393,0,0,1-2.153.606,8.745,8.745,0,0,1-1.683.3c-.385.06-1.779.06-1.538-.97a2.627,2.627,0,0,1,2.281-2,11.677,11.677,0,0,0,1.868-.485,14.315,14.315,0,0,1,1.648-.546c.667,0,.834-.3,1.423-.424a11.716,11.716,0,0,0,1.672-.789,8.934,8.934,0,0,0,1.693-.849,7.66,7.66,0,0,1,1.675-.97c.631-.242.945-.788,1.7-1.031a10.48,10.48,0,0,0,1.967-1.455,11.8,11.8,0,0,0,1.888-1.576,14,14,0,0,1,1.75-1.7c.491-.363.726-1.031,1.61-1.819a8.51,8.51,0,0,0,1.45-1.88,22.058,22.058,0,0,1,1.229-1.94,5.825,5.825,0,0,0,1.09-2.062,10.423,10.423,0,0,0,.869-2.122,16.355,16.355,0,0,1,.537-1.7c.107-.3.545-1.031.334-1.637a6.878,6.878,0,0,1,.091-1.637,7.2,7.2,0,0,0-.155-1.455,1.686,1.686,0,0,0-.461-1.273c-.378-.3-.508-.971-.871-.971s-.286-.909-1.242-.606a8.757,8.757,0,0,1-1.755-.182,6.356,6.356,0,0,0-2.592.3c-.692.242-1.565.485-2.564.909-1.08.485-1.575,1.031-2.552,1.395a11.389,11.389,0,0,0-2.395,1.637,10.062,10.062,0,0,1-1.722,1.273,17.431,17.431,0,0,1-1.739,1.152,2.12,2.12,0,0,1-2.04-.06c-.524-.061-.453-.606-.928-1.152a2.706,2.706,0,0,1-.436-1.516,5.873,5.873,0,0,1,.234-1.7,6.183,6.183,0,0,1,1.281-2.607c.741-.727.716-1.515,1.8-2.364a3.608,3.608,0,0,0,1.072-1.152c.25-.363.841-.667,1.233-1.091a4.872,4.872,0,0,1,1.294-1.092,4.923,4.923,0,0,0,1.312-.97,3.46,3.46,0,0,1,1.311-.97,13.084,13.084,0,0,1,1.412-.91,8.713,8.713,0,0,0,1.39-.849c.47-.3.674-.363,1.451-.849.674-.363,1-.788,1.593-.91a2.024,2.024,0,0,0,1.343-1.576c-.029-.606.124-1.212-.618-1.515-.664-.182-1.049-1.152-1.307-1.455-.335-.424-.728-1.031-1.085-1.394a1.63,1.63,0,0,1-.016-2.365c.9-.667,1.779-.06,2.354.546a4.6,4.6,0,0,0,1.231,1.152c.6.363.875.788,1.238.788,1.152,0,1.5.728,2.551.849.988.121,1.545.606,2.576.606.667,0,1.306.424,2.094.424a4.6,4.6,0,0,1,1.605.606,3.765,3.765,0,0,1,.992.97,1.733,1.733,0,0,1-.048,1.515A6.543,6.543,0,0,1,623.77,92.681ZM618.823,25.92c-.791.182-1.362.424-1.89.546s-.88.606-1.465.546c-.767-.061-1.936.849-2.567,1.091-.873.242-1.615.97-2.363,1.031-1.013.121-1.551.788-2.3,1.031-1.016.3-1.387.667-2.221.97-.428.181-1.12.424-2.079.909-.877.424-1.183.606-2.1.971a10.385,10.385,0,0,0-1.365.606,7.121,7.121,0,0,0-1.472.91,5.546,5.546,0,0,0-1.568,1.7,5.04,5.04,0,0,0-.58,1.819c-.278.789-.473,1.516-.58,1.819-.235.667-.7,2-.836,2.546-.217.788-.719,1.7-1.082,2.728a2.809,2.809,0,0,1-1.3,1.455,2.263,2.263,0,0,1-1.851.606c-1.273,0-1.078-.728-.9-1.758a8.185,8.185,0,0,1,.577-1.637c.106-.3.424-1.031.637-1.637l.7-2c.152-.606-.265-.971-.5-1.334-.293-.546-1.306-.424-2.082.061-.389.242-.8.363-1.408.727-.47.3-.816.424-1.429.789a4.414,4.414,0,0,0-1.536,1.091,6.136,6.136,0,0,1-1.418,1.273,4.5,4.5,0,0,0-1.119,1.455,6.374,6.374,0,0,0-.78,1.7,4.965,4.965,0,0,0-.084,2.3c.272.606.693.789,1.532,1.334a9.293,9.293,0,0,0,2.25.667,17.948,17.948,0,0,1,2.482.182,6.353,6.353,0,0,0,2.183,0c.567-.061,1.473.121,2.243,0a7.092,7.092,0,0,1,2.286-.121,5.129,5.129,0,0,0,2.328-.242c1.116-.243,1.8-.3,2.881-.606a6.537,6.537,0,0,1,2.717-.485,10.515,10.515,0,0,1,2.436.485,1.706,1.706,0,0,1,.954,1.94,2.9,2.9,0,0,1-2.1,2,5.933,5.933,0,0,0-1.8.3,2.719,2.719,0,0,1-1.762.182c-1.266-.364-2.346.121-3.42.242-1.07-.06-2.165.121-3.438.121a20.277,20.277,0,0,1-3.335,0,8.958,8.958,0,0,0-2.546,0,4.4,4.4,0,0,1-2.482-.181c-.6-.364-1.594-.121-2.4-.424a8.151,8.151,0,0,1-2.065-.849c-.34-.243-1.142-.546-1.414-1.152a17.94,17.94,0,0,0-.9-1.576,4.331,4.331,0,0,1-.248-1.88,14.033,14.033,0,0,1,.465-2.183,3.27,3.27,0,0,1,1.029-2.062,11.714,11.714,0,0,1,1.614-2,22.921,22.921,0,0,1,1.975-1.819,8.432,8.432,0,0,0,2.3-1.7,9.92,9.92,0,0,1,2.413-1.515,15.234,15.234,0,0,1,2.431-1.4l2.224-1.152a3.753,3.753,0,0,0,1.372-.97,7.276,7.276,0,0,0,1.439-2.364,5.671,5.671,0,0,0,.569-2.3,2.319,2.319,0,0,0-.169-1.758c-.375-.485-.9-.546-1.584-.667a14.33,14.33,0,0,0-3.081.485c-.727,0-1.183.606-1.486.606a2.681,2.681,0,0,0-1.469.728,5.331,5.331,0,0,1-1.472.91c-.285.121-.677.546-1.372.97-.471.3-.927.909-1.354,1.091a9.112,9.112,0,0,0-1.354,1.092c-.453.424-1.087.849-1.665,1.454a16.14,16.14,0,0,1-2.238,1.88,5.571,5.571,0,0,1-2.524.97c-.667,0-.927-.121-1.081-.546-.193-.485-.511-.788-.076-1.333a6.7,6.7,0,0,1,1.328-1.88c.289-.3,1.515-1.031,1.846-1.455.641-.789,1.679-1.152,2.175-1.7.555-.546,1.311-.97,2.031-1.637s1.582-1.394,1.932-1.7c.288-.3,1.461-1.394,1.789-1.637.41-.3.969-1.03,1.9-1.94a5.509,5.509,0,0,0,1.154-1.212c.456-.606.966-.849,1.443-1.516.25-.363.323-1.091-.3-1.212a18.35,18.35,0,0,0-2.418-.364L585.7,18.4a12.572,12.572,0,0,1-2.157-.243c-.749.061-1.142-.546-1.784-.788a4.544,4.544,0,0,1-1.692-1.394,1.665,1.665,0,0,1-.038-2.3c.905-.849,1.177-.243,1.723-.243.485,0,.671.849,1.331,1.213.714.728,1.734.242,2.091.606.218.242,1.455,0,2.019.121a10.888,10.888,0,0,0,2.022-.061,6.386,6.386,0,0,0,2.086-.242c.831-.121,1.255-.121,2.107-.3a5.9,5.9,0,0,0,1.868-.485,2.47,2.47,0,0,0,1.379-1.333,14.812,14.812,0,0,1,1.161-1.576,6.061,6.061,0,0,0,1.083-1.7,10.012,10.012,0,0,1,.758-1.637c.6-.849-.3-1.394-.878-1.637-.482-.182-2.183,0-2.436-.485s.416-1.7,1.774-1.941a11.506,11.506,0,0,1,1.922-.121c.424,0,.56.3,1.509.364a3.383,3.383,0,0,1,1.862.909c.417.364,1.142.546,1.392,1.213s.45.788.357,1.394c-.071.546-.884.789-1.279,1.394a9.623,9.623,0,0,1-1.151,1.031,7.271,7.271,0,0,0-1.507,1.7c-.049.485.048.728.835.728a19.138,19.138,0,0,1,2.132-.546,10.655,10.655,0,0,0,2.788-1.031,9.105,9.105,0,0,1,2.945-.788,2.917,2.917,0,0,1,1.245.424,1.037,1.037,0,0,1,.3,1.212,2.867,2.867,0,0,1-1.037,1.395c-.449.242-1,.606-1.675.97a9.362,9.362,0,0,1-1.851.606,4.981,4.981,0,0,1-1.6.424,5.445,5.445,0,0,0-1.99.485,7.487,7.487,0,0,1-2.72.667,18.249,18.249,0,0,1-2.6.485c-.835.3-.945.789-1.515,1.031s-.677.546-1.255,1.152l-1.176,1.273c-.392.424-1.133,1.152-1.279,1.394-.52.789-.427,1.213-.23,1.516.3.363,1.249.242,3.067.242.909,0,1.163.485,1.845.789s.871.97,1.228,1.333a2.8,2.8,0,0,1,.675,1.7,12.527,12.527,0,0,1,.02,2.183c-.039.97.643,1.273,1.153,1.031a7.777,7.777,0,0,1,1.793-.789,4.408,4.408,0,0,0,1.672-.788c.492-.363.792-.182,1.529-.728a3.172,3.172,0,0,1,1.387-.667c.649-.121,1.675-.97,2.734-1.4a4.333,4.333,0,0,0,1.386-.667,3.28,3.28,0,0,1,1.408-.728,2.014,2.014,0,0,0,1.582-1.394c.281-.97-.183-1.031-.989-1.152-.342-.061-.984-.3-.731-.849.442-.91,1.315-1.152,2.349-1.334a5.242,5.242,0,0,1,2.7.243c.5.3.949.06,1.181.606.093.424,1.017.728,1.3.971.56.3.939.606.886,1.273a4.67,4.67,0,0,0,.115,1.394C620.837,25.192,619.533,25.8,618.823,25.92Zm-49.209,93.619c-.245,1.213-.644,2-.739,2.789A17.79,17.79,0,0,1,567.753,125c-.523.971-1.018,1.516-1.481,2.486a17.275,17.275,0,0,1-1.76,2.243,15.879,15.879,0,0,1-2.057,1.88,10.485,10.485,0,0,1-2.273,1.637,18.911,18.911,0,0,1-2.488,1.212,11.605,11.605,0,0,1-2.7.789,14.773,14.773,0,0,1-2.814.242c-.91,0-1.473-.121-2.2-.121-.849,0-1.367-.424-1.972-.424a1.772,1.772,0,0,1-1.684-.728c-.314-.485-.838-.546-1.313-1.091a3.359,3.359,0,0,1-.864-1.334c-.169-.728-.361-1.213-.433-1.7a9.4,9.4,0,0,1,.038-2,6.082,6.082,0,0,1,.589-2.365c.21-.424.57-1.273.783-1.88s.612-1.394.8-1.94c.256-.728.516-1.637.1-2.183-.354-.546-.3-1.394-.983-1.515-.363,0-.856-.667-1.217-.849-.5-.3-1.084-.364-1.278-.849-.211-.606-.7-.606-.728-1.031.031-.606-.189-.667-.482-1.213a1.66,1.66,0,0,1-.033-1.455,5.484,5.484,0,0,0,.355-1.7,3.763,3.763,0,0,1,1.421-2.485c.349-.3.4-.606,1.033-1.213.514-.424.684-.91,1.133-1.152a5.781,5.781,0,0,0,2.117-1.88c.334-.606.948-.97.883-1.819-.05-.546-.012-1.515-.554-1.7-.7-.242-.853-.849-1.328-1.394-.375-.485-.307-.849-.707-1.092-.46-.242-.286-.909-.722-1.394-.372-.667-.808-2.183.436-2.789.941-.606,1.334,0,1.52.849a3.945,3.945,0,0,0,.943,1.454c.439.3.45.789.974.849,1.027.182,1.213,1.031,2.037,1.274a7.06,7.06,0,0,1,2.069.667,8.456,8.456,0,0,1,1.06.606c.378.3.357.363.835.728.678.485.686,1.152.348,1.94-.4.97-.933,1.273-1.258,1.334a5.322,5.322,0,0,1-1.155.181,13.268,13.268,0,0,0-1.769.546,4.29,4.29,0,0,0-1.839,1.091c-.453.424-1.063.606-1.454,1.031a3.5,3.5,0,0,1-1.376,1.152c-.57.242-.677.546-1.176,1.273a3.607,3.607,0,0,0-.734,1.394c.112.546-.134,1.758-.059,2.062.15.606.849,1.03,1.289,1.333a13.528,13.528,0,0,0,1.9.789c.36.182.888.06,1.648-.546a3.111,3.111,0,0,0,1.2-1.516c.523-.97.947-2,1.385-2.728a16.615,16.615,0,0,0,1.428-2.849c.317-.728.919-1.576,1.406-2.788a18.011,18.011,0,0,0,1.346-2.789,24.052,24.052,0,0,1,1.388-2.91,26.725,26.725,0,0,1,1.385-2.728c.481-.849.922-1.758,1.445-2.728.335-.606.623-1.941,1.113-3.335a4.093,4.093,0,0,0,.37-1.394c-.036-.243-.108-.728-.2-1.152-.189-.667-.557-.485-.935-.789-.239-.182-1.249-.242-1.242-.606-.029-.606.609-1.212,1.179-1.454a3.085,3.085,0,0,1,1.962-.061,4.423,4.423,0,0,0,1.666.606c.424,0,.293.546.857.667.624.121.436.485.874.789.539.363.807,1.152,1.282,1.7a1.55,1.55,0,0,1,.233,1.576c-.1.97-.648,1.152-1.265,1.7a5.84,5.84,0,0,0-1.468,1.758c-.331.424-.772,1.333-1.332,2.061a9.723,9.723,0,0,0-1.047,1.941,14.252,14.252,0,0,0-.755,1.455c-.609,1.212-1.189,2-1.652,2.971a11.925,11.925,0,0,0-1.613,3.032c-.32.909-1.211,2.061-1.549,2.849-.548,1.212-.986,1.94-1.509,2.91a12.4,12.4,0,0,0-1.553,3.032,5.74,5.74,0,0,0-.134,1.758c.25.667.282,1.091.971,1.031a5.922,5.922,0,0,1,2.625.121l1.445.546c.239.182.393.606.38,1.334-.028.424-.5.909-1.158,1.394a2.784,2.784,0,0,1-1.626.485c-.97,0-2.179-.182-3.049-.122a4,4,0,0,0-2.218.789c-.613.363-1.64,1.212-1.792,1.819-.305,1.213-1.239,2.486-1.253,3.214-.1.97-.447,2.3-.539,2.91a3.6,3.6,0,0,0,.668,2.062,4.124,4.124,0,0,0,1.631,1.394,5.831,5.831,0,0,0,2.7.424,7.341,7.341,0,0,0,2.146-.242,6.12,6.12,0,0,0,1.933-.667,15.211,15.211,0,0,0,1.878-1.031,8.8,8.8,0,0,0,1.683-1.334c.434-.546.962-.667,1.524-1.576a6.5,6.5,0,0,0,1.286-1.758c.192-.546.855-1.4,1.086-1.88a13.555,13.555,0,0,0,.8-1.941,23.089,23.089,0,0,0,.651-2.364,18.559,18.559,0,0,0,.3-2.244,18.76,18.76,0,0,1-.081-2.182,6.36,6.36,0,0,0-.326-2c-.214-.424-.318-1.334-.569-2-.136-.3-.443-1.152-.793-1.88-.215-.424-.435-.485-.629-.971a4.015,4.015,0,0,0-.768-1.091c-.675-.667-.9-1.394-.041-2.122.349-.3,1.508-.667,1.958.121a4,4,0,0,0,1.11,1.152,3.165,3.165,0,0,1,1.16,1.7,1.08,1.08,0,0,0,.668,1.031c.421.182.39.788.789,1.031.421.182.289.728.364,1.031s.433.667.486,1.03c.075.3.15.606.265.971.215.424.126.849.323,1.152a4.027,4.027,0,0,1,.3,2.425C569.584,117.9,569.706,118.933,569.614,119.539Zm-7.1-100.106a2.858,2.858,0,0,1-1.6.061c-.706-.061-.8-.485-1.488-.424-.445.061-.763-.242-1.43-.242a7.826,7.826,0,0,0-2.913.181,6.334,6.334,0,0,1-2.811.061,13.307,13.307,0,0,0-2.749.061c-.728,0-1.862.121-2.689.06a20.221,20.221,0,0,1-2.728,0c-.564-.121-1.281.364-1.879,1.031a7.58,7.58,0,0,0-1.514,2.062l-.641,1.819-.64,1.819c-.3.667-.512,1.455-.641,1.819l-.661,1.88a2.171,2.171,0,0,0,.023,2c.25.667.5,1.152,1.071,1.092a9.833,9.833,0,0,1,2.667,0c.6.181,1.62-.121,2.547,0a5.179,5.179,0,0,0,2.364,0,9.67,9.67,0,0,0,2.256-1.758,5.721,5.721,0,0,1,2.256-1.758,1.541,1.541,0,0,1,1.984.91,2.542,2.542,0,0,0,.81.97c.239.182.433.667.911,1.031a1.729,1.729,0,0,1,.3,2.425c-1.069.97-2.474.485-3.02.485a15.4,15.4,0,0,1-2.365,0l-2.325.06a10.273,10.273,0,0,0-2.365,0,16.176,16.176,0,0,0-2.425,0c-.77.121-1.979-.06-2.425,0a6.722,6.722,0,0,0-1.523.364c-.649.121-.923.728-1.654.909-.609.182-.8.728-1.437,1.152a1.734,1.734,0,0,0-.873,1.273,15.384,15.384,0,0,1-.768,2.183c-.152.606-.534,1.516-.747,2.122l-.768,2.183a15.743,15.743,0,0,0-.769,2.183c-.07.546-.176,1.88.359,2.425.514.606.943,1.455,1.856,1.273.813-.242,1.291.121,2,0a11.416,11.416,0,0,1,2.061,0,4.146,4.146,0,0,0,1.94,0,2.635,2.635,0,0,1,1.94,0,3.84,3.84,0,0,0,1.88,0c.325-.061.985.3,1.819,0,.427-.182.552-.363,1.272-1.031a9.767,9.767,0,0,1,1.272-1.031c.7-.424.8-.363,1.251-.97a2.528,2.528,0,0,1,1.312-.97,2.454,2.454,0,0,1,2.062,1.031c.5.485.678.485.95,1.091.157.242.539.364.91,1.031.432.667.814.788,1.21,1.212.218.243.211.606-.1,1.152a1.77,1.77,0,0,1-1.679,1.152,12.549,12.549,0,0,1-1.883.182c-.4-.06-.927-.121-1.734-.242a15.02,15.02,0,0,0-1.755-.182,30.49,30.49,0,0,1-3.234.061c-1.252-.061-1.605-.606-2.882-.424a14.535,14.535,0,0,1-3.234.06,28.458,28.458,0,0,0-3.174.061,29.785,29.785,0,0,1-3.174.06c-.827-.06-2.061,0-3.153,0a25.346,25.346,0,0,0-3.174.061,10.508,10.508,0,0,1-3.092,0c-1.252-.061-2.082.06-3.092,0a13.718,13.718,0,0,1-3.113.06,26.334,26.334,0,0,0-3.093,0c-1.173.061-1.819,0-3.031,0h-6.124c-.788,0-2.25.364-3.241.425a8.748,8.748,0,0,1-3.067-.243c-1.024-.363-1.056-.788-.843-1.394.171-.485.644-.97,1.825-1.394,1.383-.485,2.043-.121,3.217-.182a25.353,25.353,0,0,1,2.942.424,11.167,11.167,0,0,1,2.486,0,17.833,17.833,0,0,1,2.546,0,8.789,8.789,0,0,0,2.547,0,16.837,16.837,0,0,1,2.485,0,17.86,17.86,0,0,0,2.546,0,8.854,8.854,0,0,1,2.547,0,19.6,19.6,0,0,1,2.667,0c.26.121,1.016-.3,1.9-1.273a6.355,6.355,0,0,0,1.582-2.425l.768-2.183.768-2.183a9.857,9.857,0,0,1,.748-2.122,6.224,6.224,0,0,0,.769-2.183,7.841,7.841,0,0,0-.056-2.425c-.208-.788-.622-1.333-1.37-1.273a29.5,29.5,0,0,0-3.274,0,12.676,12.676,0,0,1-3.031,0,8.728,8.728,0,0,0-3.092,0,24.407,24.407,0,0,1-3.181.424c-1.333,0-2.571.243-3.127-.242a1.3,1.3,0,0,1-.622-1.334,3.184,3.184,0,0,1,1.6-1.455,7.762,7.762,0,0,1,3.277-.181,26.081,26.081,0,0,1,2.882.424,8.851,8.851,0,0,0,3.093,0,12.585,12.585,0,0,1,3.031,0,29.33,29.33,0,0,1,3.275,0,2.753,2.753,0,0,0,2.2-1.092,9.935,9.935,0,0,0,1.613-2,4.667,4.667,0,0,1,.662-1.88,10.836,10.836,0,0,0,.64-1.819l.641-1.819a7.212,7.212,0,0,0,.64-1.819,3.193,3.193,0,0,0-.426-2.062c-.532-.728-1.067-1.273-1.82-1.031a4.192,4.192,0,0,1-1.94,0,5.072,5.072,0,0,0-1.94,0c-.83.121-1.312-.06-2.364,0H525.37a2.856,2.856,0,0,0-2.01.546,7.236,7.236,0,0,0-1.636,1.031c-.517.606-1.026.849-1.222,1.576-.192.546-.477.667-1.2,1.516-.641.788-1.549,1.819-1.984,2.364-.663.849-1.55,1.819-1.842,2.3a14.7,14.7,0,0,1-1.945,2.425c-.826.97-1.4,1.576-1.964,2.3a4.373,4.373,0,0,1-1.361,1.455,8.107,8.107,0,0,0-1.521,1.394,3.818,3.818,0,0,1-2.553,1.394c-.766-.06-1.63-.363-.736-1.7.541-.849,1.582-1.394,2.02-2.122a16.794,16.794,0,0,1,1.924-2.365c.534-.485.972-1.212,1.735-2a15.083,15.083,0,0,0,1.468-1.758c.189-.364,1.1-1.4,1.368-1.819.167-.3.951-1.152,1.346-1.758a13.623,13.623,0,0,0,1.247-1.819,7.362,7.362,0,0,1,1.207-1.879c.52-.789.687-1.092,1.147-1.88a16.216,16.216,0,0,0,1.168-1.941c.3-.667.791-1.212,1.147-1.88.459-.788.648-1.152,1.086-1.88.314-.546.833-1.333,1.087-1.879.42-.849.875-1.455,1.046-1.941.239-.849.195-1.758,1.09-2.061.609-.182,1.469.3,1.891.485a17.3,17.3,0,0,0,2.29.728c.443.121.536.546,1.16.667.4.061.375.485.2.971-.235.667-.537.667-1.436,1.152-.367.181-1.316.121-1.851.606-.616.546-.612,1.395-1.093,2.244a1.987,1.987,0,0,0-.059,2.061c.371.667.725,1.213,1.8,1.092a22.992,22.992,0,0,1,2.91,0,3.909,3.909,0,0,0,1.88,0c.449-.243,1.352.121,1.819,0a9.717,9.717,0,0,0,2.339-.789,3.237,3.237,0,0,0,1.646-1.576c.193-.546.558-1.758.982-2.789.338-.789.662-1.88.854-2.425a19.253,19.253,0,0,1,.854-2.425c.4-.789.5-1.758.793-2.425.213-.606.074-1.758.615-2.607A1.885,1.885,0,0,1,544.77.941a7.955,7.955,0,0,1,2.215.424,8.138,8.138,0,0,1,1.994.363,1.842,1.842,0,0,1,1.071,1.092c.022.97-1.148.849-2.071,1.576a5.775,5.775,0,0,0-1.8,2.364,13.582,13.582,0,0,0-.725,2.062c-.05.485-.466,1.152-.7,2-.388,1.273-.725,2.061-1.153,3.274-.068.363-.369,1.394.291,1.758.638.425.482,1.213,1.477.971a28.4,28.4,0,0,1,3.213,0,26.26,26.26,0,0,1,3.093,0c.806.121,2.09.606,2.91,0,.492-.364.659-.667,1.294-1.092.716-.485.844-.849,1.354-1.091a2.276,2.276,0,0,0,1.333-1.031c.271-.424.545-1.031,1.333-1.031.949.061.625,1.152,1.328,1.395.521.242.632.788.849,1.03a4.2,4.2,0,0,0,.871.971c.657.546.711.909,1.232,1.152.4.242.15.606-.124,1.212C563.484,19.251,563.021,19.19,562.512,19.432ZM494.845,89.1a6.061,6.061,0,0,0-.9,1.7c-.05.485-.637,1.637-.854,2.425a7.38,7.38,0,0,0-.832,2.365c-.153.606-.47,1.333-.683,1.94-.238.849-.427,1.213-.683,1.941a2.538,2.538,0,0,0-.019,2.122c.2.3.486,1.031,1.11,1.152.907.181,2.165-.121,2.668,0a13.093,13.093,0,0,0,2.667,0,2.106,2.106,0,0,0,1.857-.97,7.372,7.372,0,0,0,1.368-1.819,18.179,18.179,0,0,0,1.174-3.334c.324-1.092.726-2.062,1.11-3.153a12.609,12.609,0,0,0,1.088-3.092,10.289,10.289,0,0,1,.768-2.183,7.759,7.759,0,0,1,.768-2.182c.413-.485.43-1.395.729-2.244s.238-1.88.711-2.364c.392-.424.728,0,1.559-.121l2.126-.182a2.624,2.624,0,0,1,1.912.424,1.673,1.673,0,0,1,.737,1.7c-.106,1.334-1.925,1.334-2.092,1.637a4.108,4.108,0,0,1-1.112,1.091,3.2,3.2,0,0,0-.879,1.637c-.213.606-.744,1.94-.812,2.3a1.277,1.277,0,0,0,.4,1.273,1.888,1.888,0,0,0,1.463.667c.667,0,2.386-.061,3.031,0,.789,0,1.616.061,2.91,0a7.11,7.11,0,0,0,2.789,0,10.948,10.948,0,0,0,2.359-1.88l1.251-.97c.613-.364.705-.97,1.23-.91.706.061.746,1.152,1.171,1.152.485,0,.435.485.838.546.443.122.9.728,1.217.849.624.122.717.546.867,1.152a1.934,1.934,0,0,1-.312,1.576c-.751,1.273-1.7,1.031-2.849,1.031-1.295.061-2.112-.546-2.839-.546a24.374,24.374,0,0,0-2.732.182c-.97,0-1.68.121-2.629.06a8.939,8.939,0,0,0-2.507.061,11.867,11.867,0,0,1-2.507.06,8.921,8.921,0,0,1-2.546,0c-.261-.121-1.269.849-1.885,1.4a5.1,5.1,0,0,0-1.667,2.667c-.16.97-.676,1.576-.854,2.425a1.158,1.158,0,0,0,.661,1.394,17.807,17.807,0,0,0,2.008.667,4.206,4.206,0,0,0,1.941,0c.916-.364,1.434.06,2,0a4.891,4.891,0,0,1,1.88,0c.766.06,1.091,0,1.879,0h1.819a6.11,6.11,0,0,0,1.819,0,3.646,3.646,0,0,0,1.354-1.092,3.951,3.951,0,0,1,1.354-1.091,5.938,5.938,0,0,0,1.415-1.091c.534-.485.705-.971,1.393-1.031.749-.061,1.021.546,1.328,1.394.154.424.814.789.889,1.091.129.667.511.789.95,1.092.777.546.9.728,1.01,1.091.154.424.029.606-.163,1.152-.32.91-1.312.97-1.7,1.213-.613.363-1.031,0-1.719.06a5.071,5.071,0,0,1-1.588-.485,3.1,3.1,0,0,0-1.469-.3c-1.194.121-1.983.121-3.1.181l-3.053.061c-1.212,0-2.1.121-2.931.061a9.284,9.284,0,0,0-2.91,0,9.927,9.927,0,0,1-3.295.06c-.546,0-.934.243-1.8.3a4.464,4.464,0,0,0-1.712.728c-.51.242-1.128,2-1.391,3.092a15.644,15.644,0,0,1-.769,2.183,10.408,10.408,0,0,1-.768,2.183,13.268,13.268,0,0,0-1.177,3.516,6.713,6.713,0,0,0-.5,1.758,18.294,18.294,0,0,1-.558,1.758,11.391,11.391,0,0,1-1.588,2.789,4.307,4.307,0,0,1-2.134,1.758l-2.382.91c-.588.121-2.071.546-2.267.242-.336-.424.045-1.334-.6-1.394a4.439,4.439,0,0,1-1.645-.667,3.381,3.381,0,0,0-1.484-.606c-.646-.061-.618-.485-.077-1.334a2.884,2.884,0,0,1,2.855-1.394c1.313.06,2.012.485,3.107.3,1.377-.122,1.912-.606,2.05-1.516.174-.667.512-1.455.64-1.819.171-.485.424-1.031.641-1.819a11.63,11.63,0,0,1,.661-1.88,7.647,7.647,0,0,0,.662-1.88,11.979,11.979,0,0,1,.683-1.941,12.049,12.049,0,0,1,.683-1.94,2.425,2.425,0,0,0,0-2.243c-.272-.606-.625-1.152-1.132-1.092-.649.121-1.958-.121-2.728,0a7.449,7.449,0,0,1-2.606,0,9.309,9.309,0,0,0-2.607,0,17.953,17.953,0,0,0-2.586-.06,20.714,20.714,0,0,1-2.689.06,12.475,12.475,0,0,1-2.607,0c-.924-.3-1.8.121-2.607,0-.624-.121-.913.182-1.579.182a4.971,4.971,0,0,0-1.662.242c-1.009-.06-2.328.243-3.189-.242-.6-.546-1.259-.728-.843-1.394a3.291,3.291,0,0,1,1.825-1.395,7.143,7.143,0,0,1,3.338-.181,18.03,18.03,0,0,1,2.942.424,17.333,17.333,0,0,0,1.819,0,18.167,18.167,0,0,0,1.819,0,5.683,5.683,0,0,0,2.339-.789,3.8,3.8,0,0,0,1.646-1.576,25.266,25.266,0,0,1,.982-2.789,23.282,23.282,0,0,0,.939-2.668,22.35,22.35,0,0,0,.918-2.606c.088-.424.341-.971.661-1.88l.641-1.819a19.166,19.166,0,0,0,.622-1.94,2.626,2.626,0,0,1,.583-2c.452-.424,1.009.061,1.558-.121s1.626-.485,2.126-.182c.4.242,1.491.242,1.912.424.521.242.568.97.676,1.7.126.849-1.433.97-2.11,1.516A2.893,2.893,0,0,0,494.845,89.1ZM486.68,51.627c-.491.363-.977.363-1.753.849-.716.485-1.18.424-1.573.849a2.972,2.972,0,0,1-1.414,1.091c-1.038.364-1.174-.97-1.528-1.515-.336-.424-.792-.849-1.324-1.576-.332-.606-.989-1.152-1.282-1.7l-1.16-1.7a4.782,4.782,0,0,1-1-1.819c-.311-.667-.626-1.152-.915-1.88a6.484,6.484,0,0,0-.872-2c-.518-.424-.4-1.273-.69-2-.236-.363-.168-.728-.415-1.576a2.749,2.749,0,0,1-.415-1.576c.028-.424-.368-.849-.294-1.576a3.419,3.419,0,0,0-.212-1.637,16.025,16.025,0,0,1-.152-1.637c-.114-.363-.076-1.334-.151-1.637a9.988,9.988,0,0,1-.009-1.7,16.838,16.838,0,0,1,.052-1.7,17.168,17.168,0,0,0,.074-1.758,6.06,6.06,0,0,1,.134-1.758c.156-.789.067-1.394.2-1.941a10.61,10.61,0,0,0,.241-2.061c.045-1.334.423-2.062-.244-2.062-.546,0-.945.789-1.329,1.88a13.6,13.6,0,0,1-1.068,2,4.459,4.459,0,0,0-1.065,1.819,2.8,2.8,0,0,1-1.061,1.637,5.961,5.961,0,0,0-1,1.637,8.25,8.25,0,0,0-1.1,1.576,6.768,6.768,0,0,1-1.1,1.576c-.5.546-.627,1.092-1.14,1.516a5.3,5.3,0,0,0-1.118,1.455,7.569,7.569,0,0,1-1.179,1.455,8.827,8.827,0,0,0-1.24,1.454,10.386,10.386,0,0,1-1.279,1.4c-.577.606-.8.909-1.257,1.333a12.468,12.468,0,0,1-1.4,1.4,12.05,12.05,0,0,0-1.358,1.273l-1.418,1.273a12.983,12.983,0,0,0-1.4,1.212,5.736,5.736,0,0,1-1.558,1.152,12.738,12.738,0,0,0-1.518,1.213,10.737,10.737,0,0,0-1.5,1.152c-.517.606-1.144.667-1.557,1.152a2.372,2.372,0,0,1-1.618,1.152,5.471,5.471,0,0,0-1.657,1.091c-.613.364-.984.728-1.679,1.152-.777.485-1.248.789-1.778,1.091a24.809,24.809,0,0,0-2.146,1.274,12.485,12.485,0,0,1-2.427,1.212c-.813.242-1.593.91-2.114.667-.785-.181-.809.061-1.124-.424-.253-.485.43-1.394,1.639-2.243l1.761-1.213a11.938,11.938,0,0,1,1.636-1.03c.98-.546,2.1-1.152,2.677-1.576a4.011,4.011,0,0,0,1.269-.849,10.261,10.261,0,0,1,1.33-.849,12.186,12.186,0,0,0,2.5-1.758,7.234,7.234,0,0,1,1.229-.91c.531-.3.617-.546,1.169-.909a12.553,12.553,0,0,0,1.251-.971,4.047,4.047,0,0,0,1.151-1.03,15.468,15.468,0,0,1,2.263-2.123,11.259,11.259,0,0,0,2.141-2.122c.5-.728,1.194-1.152,1.96-2.122a19.523,19.523,0,0,0,1.86-2.183c.435-.546.994-1.273,1.738-2.183.331-.424.894-1.333,1.639-2.243a20.179,20.179,0,0,0,1.518-2.243c.52-.789,1.064-1.819,1.478-2.3s.9-1.7,1.379-2.365c.58-.788.9-1.7,1.317-2.364.374-.546.694-1.455,1.236-2.3a17.6,17.6,0,0,0,1.156-2.425,7.972,7.972,0,0,1,1.1-2.425,8.109,8.109,0,0,0,1.1-2.425,18.21,18.21,0,0,0,.975-2.425c.089-.424.591-1.334.975-2.425.256-.728.141-2.122,1.121-2.668a2.424,2.424,0,0,1,2.137.3c.36.182,1.573.182,2.739.485.7.242,1.142.546,1.484.606-.265.06.764.242.49.849-.107.3-.945.788-1.725,1.455a5.673,5.673,0,0,0-1.927,2.546c-.138.909-.522,2-.557,2.789-.053.667-.291,1.516-.351,2.546a16.959,16.959,0,0,0-.351,2.547c.108.728-.21,1.455-.208,2.485a7.326,7.326,0,0,1-.087,2.486,10.331,10.331,0,0,0-.005,2.425c.047.728.027,1.819.137,2.365.268.788-.027,1.454.205,2a3.736,3.736,0,0,1,.308,1.879,4.586,4.586,0,0,0,.39,1.819c.293.546.215,1.455.473,1.758.414.546.24,1.213.554,1.7s.462,1.273.7,1.637a6.059,6.059,0,0,1,.718,1.576,11.146,11.146,0,0,0,.8,1.516,4.824,4.824,0,0,0,.882,1.454c.257.3.219,1.273.943,1.455a2.359,2.359,0,0,1,1.107,1.334c.275.424.774.728,1.128,1.273.214.424.913.849,1.21,1.213.414.546.957.727,1.232,1.151.592.728,1.038.667,1.474,1.152s1.163.485,1.492,1.274C488.97,51.323,487.172,51.262,486.68,51.627ZM433.738,96.2a5.328,5.328,0,0,1,1.686-.485,17.36,17.36,0,0,1,1.747-.485A7.119,7.119,0,0,0,438.9,94.8c.895-.3.849,0,1.686-.485a5.881,5.881,0,0,1,1.665-.424,3.64,3.64,0,0,0,1.686-.485,2.276,2.276,0,0,1,1.747-.485,14.831,14.831,0,0,0,1.686-.485,5.208,5.208,0,0,0,1.747-.485c.895-.3,1.814-.849,2.627-1.091a6.132,6.132,0,0,1,2.093-.606l1.8.061c.585.06,1.47.3,1.813.363a1.735,1.735,0,0,1,1.234.97,4.4,4.4,0,0,1,.005,1.88c-.153.606-1.051,1.091-1.479,1.273-.488.182-.845-.182-1.783.243-1.223.546-1.74.121-2.814.242-.891.121-1.926.3-2.757.424-.891.121-2.253.546-2.8.546a10.93,10.93,0,0,0-2.906.849,5.7,5.7,0,0,1-1.526.546,4.569,4.569,0,0,0-1.486.606c-.653.3-1.2.485-1.508.667a6.06,6.06,0,0,1-1.572.849c-.549.182-1.026.849-1.451.849-.749.06-.984.727-1.472.909a3.977,3.977,0,0,0-1.394,1.031c-.431.363-.677.546-1.376,1.152a7.011,7.011,0,0,1-1.336,1.212,5.073,5.073,0,0,0-1.237,1.274,6.843,6.843,0,0,0-1.2,1.333c-.357.667-.984.728-1.1,1.4-.031.606-.4.606-1,1.454a13.756,13.756,0,0,0-.815,1.455,17.9,17.9,0,0,0-1.349,2.971,12.877,12.877,0,0,0-.657,2.728c.086.789-.071,1.576-.005,2.425a3.911,3.911,0,0,0,.647,2.123c.411.728.379,1.333,1.139,1.758a12.538,12.538,0,0,1,1.631,1.4c.518.424,1.345.485,2.062,1.03.578.424,1.266.364,2.333.606a12.057,12.057,0,0,1,2.583.242,5.633,5.633,0,0,0,1.758,0,5.26,5.26,0,0,1,1.762-.181,6.926,6.926,0,0,0,2.207-.243,2.273,2.273,0,0,1,2.087.789c.614.667.928,1.152.569,2a3.5,3.5,0,0,1-2.2,1.94,9.837,9.837,0,0,1-2.817.424c-.888-.06-2.143.061-3.07-.06-.745-.121-2.161-.061-2.946-.242a20.635,20.635,0,0,1-2.861-.485c-.56-.3-.717-.546-1.367-.424-.77.121-.82-.424-1.284-.485a6.551,6.551,0,0,1-1.92-1.091c-.6-.364-1.274-1.031-1.613-1.273-.4-.424-.889-1.092-1.225-1.516a5.675,5.675,0,0,1-.918-1.7c-.193-.485-.376-1.515-.508-2a8.349,8.349,0,0,1-.162-2.122c.013-.728.187-1.394.286-2.364l.715-2.547a13,13,0,0,1,1.164-2.789c.6-1.031,1.026-1.88,1.545-2.668s1.5-1.515,1.824-2.425c.107-.3.474-.485,1.012-1.152.249-.363.841-.667,1.133-1.151a2.643,2.643,0,0,1,1.112-1.092,2.145,2.145,0,0,0,1.233-1.091c.228-.3.716-.485,1.376-1.152s1.187-.789,1.661-1.273c1.009-.971,1.515-1.031,1.5-1.516-.015-.3-.7-.242-1.11-.121s-1.2.3-1.625.485c-.713.3-1.077.3-1.444.485a15.168,15.168,0,0,1-2.521.789,10.656,10.656,0,0,1-2.46.788,11.747,11.747,0,0,0-2.46.789l-2.46.788c-1.137.3-1.466.546-2.482.849a10.31,10.31,0,0,1-2.032.606c-.528.121-1.02.485-1.4.546a21.391,21.391,0,0,0-2.624.91c-.792.182-1.205-.363-1.666-.606a4.227,4.227,0,0,1-1.41-1.333,6.843,6.843,0,0,1-.957-1.758,3.9,3.9,0,0,1,.013-1.758c.983-1.758,1.6-2.3,1.839-2.122a3.315,3.315,0,0,1,.6,1.212c.233.546.268.789.853.849,1.07.06,1.57.363,2.557.485a4.775,4.775,0,0,0,2.108-.3c.956-.3,1.579-.181,2.089-.424a4.143,4.143,0,0,1,2.111-.485c.485,0,1.526-.546,2.153-.606s1.344-.546,1.665-.424c.542.182.973-.182,1.726-.424a11.568,11.568,0,0,1,1.686-.485,6.366,6.366,0,0,0,1.726-.424,9.227,9.227,0,0,1,1.665-.424l1.747-.485A4.84,4.84,0,0,0,433.738,96.2ZM424.675,28.83a2.277,2.277,0,0,1-1.622.3,17.381,17.381,0,0,1-1.9-.121c-.363,0-1.109-.122-1.836-.122-.546,0-1.641.182-2.329.243a8.721,8.721,0,0,0-2.5.728,19.091,19.091,0,0,0-2.139.909,20.446,20.446,0,0,0-2.263,1.092,20.59,20.59,0,0,1-2.371,1.394,13.345,13.345,0,0,0-2.231,1.515,11.011,11.011,0,0,0-2.114,1.7c-.477.667-1.582,1.4-1.874,1.88-.542.849-1.133,1.152-1.472,1.941-.36.849-.648,1.152-.989,2.122a5,5,0,0,0-.487,2.243c-.1.971-.024,1.273.311,1.7a7.909,7.909,0,0,0,.946,1.274c.34.242.55.849,1.438.909a7.272,7.272,0,0,1,1.848.606,15.288,15.288,0,0,0,2.015.3,7.025,7.025,0,0,0,2.058.182,11.645,11.645,0,0,1,2.062,0c.788,0,1.495.06,2.3,0a4.464,4.464,0,0,0,2.35-.3,6.373,6.373,0,0,1,2.129-.364,4.227,4.227,0,0,1,2.436.485,1.6,1.6,0,0,1,.751,2,2.57,2.57,0,0,1-2.238,1.88,12.37,12.37,0,0,1-1.968.424,16.336,16.336,0,0,1-1.883.182c-.849,0-1.376.121-1.84.06a4.178,4.178,0,0,0-1.758,0,7.479,7.479,0,0,1-2.828-.06,25.229,25.229,0,0,0-2.864-.3,11.584,11.584,0,0,0-2.657-.546,4.175,4.175,0,0,1-2.408-.909,3.115,3.115,0,0,1-.9-.728c-.314-.485-.6-.546-.874-.789-.378-.3-.739-.485-.732-.849-.053-.363-.678-.485-.671-.849.049-.485-.129-.667-.3-1.212a2.088,2.088,0,0,1-.076-1.334c.092-.606-.037-1.273.109-1.515.228-.3-.083-.971.355-1.7a18.6,18.6,0,0,0,1.242-2.667,22.023,22.023,0,0,1,1.624-2.546,3.543,3.543,0,0,1,1.094-1.213c.777-.485.617-.546,1.215-1.212a12.611,12.611,0,0,0,1.233-1.092l1.294-1.091c.473-.485.98-.546,1.372-.97.556-.546.7-.789,1.372-.97a4.817,4.817,0,0,0,1.554-.971c.514-.424.792-.181,1.615-.97.453-.424.681-.728.5-.909-.336-.425-1.512-.182-2.85,0a11.227,11.227,0,0,0-2.684.909,5,5,0,0,1-1.483.424c-1.055.243-1.3.606-1.79.606a3.944,3.944,0,0,0-2.1.97c-.8.546-1.44.3-1.616-.06-.229-.728.039-.971,1.047-1.941a9.466,9.466,0,0,1,2.427-1.212,3.828,3.828,0,0,0,1.512-.849,9.8,9.8,0,0,1,2.77-1.152,15.913,15.913,0,0,0,2.624-.91c.592-.3,1.661-.242,2.557-.546a7.23,7.23,0,0,1,2.635-.424c.585.06,1.7-.182,2.489-.182.849,0,1.434.061,2.607,0a6.9,6.9,0,0,1,1.94,0,5.047,5.047,0,0,0,1.876.182,5.319,5.319,0,0,1,1.812.363l1.666.606a2.262,2.262,0,0,1,.771.91,2.008,2.008,0,0,1-.084,1.273A1.969,1.969,0,0,1,424.675,28.83ZM411.911,16.523a5.9,5.9,0,0,1-1.533.909,7.834,7.834,0,0,1-1.79.606c-.731.182-.956.3-1.422.424a9.046,9.046,0,0,0-1.747.485,3.45,3.45,0,0,1-1.686.485,3.394,3.394,0,0,0-1.6.425c-.574.424-1.141.485-1.354,1.091-.128.363-.741.728-1.112,1.091a13.879,13.879,0,0,0-1.674,2,4.652,4.652,0,0,1-1.179,1.455,2.892,2.892,0,0,0-1.139,1.516,2.9,2.9,0,0,1-1.2,1.515c-.634.424-.787,1.031-1.179,1.455-.641.788-.663.849-1.119,1.455s-.823.788-1.1,1.394a5.555,5.555,0,0,1-1.119,1.455,10.766,10.766,0,0,0-1.119,1.455c-.352.485-.826.97-1.407,1.758A13.6,13.6,0,0,0,386,39.319c-.481.849-1.133,1.152-1.407,1.758-.253.546-.991,1.092-1.429,1.819-.6.849-1.093,1.212-1.325,1.7a20.433,20.433,0,0,1-1.346,1.758,8.326,8.326,0,0,1-1.347,1.758c-.674.364-1.015,1.334-1.446,1.7a18.662,18.662,0,0,1-1.6,1.455,3.757,3.757,0,0,1-1.89.546c-1.073.121-1.663-.788-1.057-1.819.352-.485.712-1.334,1.026-1.88.21-.424,1.176-1.273,1.364-1.637s.76-.606,1.2-1.334c.4-.606.7-.789,1.158-1.394a7.868,7.868,0,0,0,1.219-1.395c.188-.363.556-.546,1.136-1.333a15.829,15.829,0,0,0,1.158-1.4,5.986,5.986,0,0,1,1.158-1.394,3.174,3.174,0,0,0,1.24-1.455c.128-.363.859-.546,1.158-1.394.235-.667.723-.849,1.1-1.394.4-.606.905-.849,1.158-1.394a6.443,6.443,0,0,1,1.158-1.4,16.343,16.343,0,0,1,1.158-1.394,6.207,6.207,0,0,0,1.179-1.455,9.124,9.124,0,0,0,1.2-1.515,12.85,12.85,0,0,1,1.385-1.7c.638-.606.873-1.273,1.553-2,.288-.3-.044-.91-.465-1.092a4.815,4.815,0,0,0-2.5-.3,6.811,6.811,0,0,1-2.2.061c-.521-.242-1.312-.061-2.015-.3-.8-.3-1.145-.363-1.559-.91-.336-.424-1.3-.606-1.61-1.454-.314-.485-.829-1.092-.148-1.819.78-.667.653-.3,1.426-.606.346-.122.956.727,1.52.849l1,.606a8.848,8.848,0,0,0,2.319.3,4.1,4.1,0,0,0,2.083-.06,14.539,14.539,0,0,1,2.146-.243,15.119,15.119,0,0,1,2.169-.3,3.521,3.521,0,0,0,2.238-.849,4.992,4.992,0,0,0,1.379-1.333,23.387,23.387,0,0,0,1.677-2.183,11.8,11.8,0,0,1,1.435-2.183c.617-.546.609-1.212.986-1.94.548-1.213-.276-1.455-1.324-1.576a11.442,11.442,0,0,0-1.851-.424c-.728,0-1.088-.182-1.017-.728a1.943,1.943,0,0,1,1.853-1.819c.809-.061,1.8-.3,2.229-.3a6.514,6.514,0,0,1,1.993.363c.864.3,1.563.728,2.145.97.742.3,1.035.849,1.549,1.455.557.485.258,1.334.269,1.819,0,.849-.87,1.092-1.3,1.455a13.137,13.137,0,0,0-2.281,2c-.641.789-1.689,1.7-1.2,2.365.354.546,1.807-.485,2.521-.789a5.428,5.428,0,0,1,1.829-.546,8.115,8.115,0,0,1,1.833.3c.624.121,1,.424.825,1.273A2.641,2.641,0,0,1,411.911,16.523Zm-34.683,94.589a6.08,6.08,0,0,0,1.721-1.273,13.554,13.554,0,0,1,1.921-1.152,14.675,14.675,0,0,1,2.028-1.455c.855-.363,1.133-1.152,1.928-1.515.734-.363,1.108-.91,1.822-1.213.652-.3,1.09-1.03,1.6-1.273.613-.363,1.066-.788,1.781-1.273a2.48,2.48,0,0,1,1.836-.909c.827.06,1.023.363.786,1.212-.259.91-1.24,1.455-1.674,2a29.452,29.452,0,0,1-2.441,1.941c-.862.728-1.8,1.333-2.256,1.758a15.287,15.287,0,0,1-2.256,1.758,15.774,15.774,0,0,1-2.317,1.758c-.855.363-1.194,1.152-1.989,1.515a18.347,18.347,0,0,0-2.025,1.273,13.718,13.718,0,0,1-2.192,1.576,7.593,7.593,0,0,0-2.192,1.576,11.383,11.383,0,0,1-2.292,1.516c-.716.485-1.532.909-2.21,1.454a5.554,5.554,0,0,1-2.331,1.455c-.467.121-1.5,1.152-2.249,1.395-.938.424-1.921,1.152-2.288,1.333-1.041.546-1.593.91-2.349,1.334a20.44,20.44,0,0,0-2.328,1.273c-.881.606-1.918.97-2.756,1.455-1.1.728-2.142,1.091-2.695,1.455a7.407,7.407,0,0,0-1.743,1.333,3.09,3.09,0,0,1-1.9.91c-.731.182-1.113.061-1.427-.424a2.675,2.675,0,0,0-1.132-1.091c-.5-.3-.386-.971-.864-1.334a2.13,2.13,0,0,1-.6-1.213c-.015-.3-.572-.788-.679-1.515a1.275,1.275,0,0,1,.516-1.637c.617-.546,1.541-.242,2.3.182.26.121.571.789.935.789.788,0,.678.485.942.424a4.553,4.553,0,0,0,2.007-.364,16.335,16.335,0,0,0,2-.849c.346-.121,1.53-.728,1.958-.909a17.126,17.126,0,0,0,1.939-1.031A11.036,11.036,0,0,1,358,122.328a7.947,7.947,0,0,0,2.47-1.334c.6-.485,1.469-.728,2.409-1.333a19.979,19.979,0,0,1,2.41-1.334c.592-.3,1.451-.849,2.431-1.394.592-.3,1.226-.728,2.37-1.395a20.207,20.207,0,0,1,2.453-1.454,24.834,24.834,0,0,1,2.352-1.516C375.527,112.324,376.25,111.476,377.228,111.111Zm-8.966-12.247a7.274,7.274,0,0,1-1.432,2,3.523,3.523,0,0,1-2.139.91,1.981,1.981,0,0,1-1.68-.91,2.922,2.922,0,0,1-.326-2c.028-.424-.3-1.031-.312-1.7a1.654,1.654,0,0,0-.618-1.516c-.436-.485-1.017-.728-1.613-1.273-.436-.485-1.06-.606-.6-1.394a2.713,2.713,0,0,1,1.408-.728,5.479,5.479,0,0,1,1.815.182c.482.181,1.266.363,1.948.667a2.943,2.943,0,0,1,1.6.789c.157.242,1.045.3,1.156.849.094.424.432.667.768,1.091a1.668,1.668,0,0,1,.3,1.394C368.364,97.713,368.39,98.5,368.262,98.865Zm-20.269,6.427c.264-.061,1.07.061,1.919.061a4.729,4.729,0,0,1,2.051.546c.543.181.942.424,1.684.728a10.612,10.612,0,0,1,1.217.849,10.678,10.678,0,0,1,.829,1.091l.3,1.394a3.935,3.935,0,0,1-.334,1.637,4.254,4.254,0,0,1-1.286,1.758c-.859.546-1.147.849-2,.849a1.236,1.236,0,0,1-1.52-.849,7.335,7.335,0,0,1-.533-1.758,8.718,8.718,0,0,0-.455-1.637c-.257-.3-.485-1.03-.76-1.455-.158-.242-1.1-.667-1.717-1.151-.638-.424-1.223-.485-.786-1.213A1.658,1.658,0,0,1,347.992,105.291ZM363.8,36.954a9.5,9.5,0,0,1-1.3,2.486,2.989,2.989,0,0,1-2.331,1.455c-.649.121-1.491-.243-1.5-.91-.051-.546-.49-.849-1.171-1.152a7.894,7.894,0,0,0-2.172-.546c-.988-.121-1.33-.182-2.257-.3-.525-.061-2.1-.061-1.945-.849A1.521,1.521,0,0,1,352.81,35.8a11.036,11.036,0,0,1,2.832-.121,3.459,3.459,0,0,0,1.583-.363c.549-.182,1.191.06,1.629-.667a9.306,9.306,0,0,0,.893-2.364,8.932,8.932,0,0,0,.016-1.941c.071-.546-.383-1.152-.472-1.758a3.465,3.465,0,0,0-.858-1.7c-.218-.242-.828-1.091-1.146-1.394-.535-.546-.61-.849-1.374-1.091l-1.623-.728c-.6-.182-1.495-.061-1.733-.242-.279-.243-1.074.121-1.822.181a2.919,2.919,0,0,0-1.872.667,14.119,14.119,0,0,1-1.857.97,14.424,14.424,0,0,0-1.821,1.212,13.052,13.052,0,0,1-1.764,1.395,5.538,5.538,0,0,0-1.686,1.515c-.334.606-1.255,1.152-1.543,1.455a18.336,18.336,0,0,1-1.4,1.394c-.268.242-.474.485-1.051,1.091-.474.485-.927.91-1.155,1.213a7.7,7.7,0,0,1-1.2,1.334c-.6.485-.709,1.152-1.219,1.394a3.868,3.868,0,0,0-1.218,1.394,8.908,8.908,0,0,1-1.137,1.334,9.032,9.032,0,0,0-1.681,2.364,18.266,18.266,0,0,1-.826,2c-.573,1.455-.176,1.88-.433,2.607a2.485,2.485,0,0,1-2.21,1.455,11.388,11.388,0,0,1-1.552-.242,4.941,4.941,0,0,1-1.178-.789l-.992-.97a2.49,2.49,0,0,1-.667-1.031c-.233-.546-.928-.121-.568-.97.152-.606-.436-.485-.465-1.091a22.767,22.767,0,0,1-.5-2.365,21.983,21.983,0,0,0-.135-2.546,14.037,14.037,0,0,1,.151-2.667c.092-.606.238-1.88.436-2.789a8.124,8.124,0,0,1,.679-2.789c.4-.971.394-1.637.757-2.668.256-.728,1.025-1.88.879-2.667a9.615,9.615,0,0,1,.618-1.758l.6-1.7a13.9,13.9,0,0,0,.725-2.062l.644-2a5.074,5.074,0,0,1,.252-1.576c.3-.667-.643-1.273-.736-1.7-.19-.667-.69-.97-.116-1.394a1.723,1.723,0,0,1,2.1.242c.178.182.411.728.954.91a2.142,2.142,0,0,1,.871.97c.293.546.643,1.273,1,1.819a2.184,2.184,0,0,1,.005,1.88c-.52.789-.449,1.273-.862,1.758a4.316,4.316,0,0,0-.961,1.7,25.029,25.029,0,0,1-1.1,2.425l-.915,2.425a24.492,24.492,0,0,0-1.134,3.4c-.071.546-.327,1.273-.416,1.7a4.236,4.236,0,0,1-.376,1.758,14.59,14.59,0,0,0-.256,1.758,2.713,2.713,0,0,0-.091,1.637c.051.546.308.849.194,1.515-.092.606.326.97.358,1.394.025.789.176,1.395,1.784.789a3.7,3.7,0,0,0,1.582-1.394c.5-.728,1-.606,1.336-1.213.189-.363.716-.485,1.215-1.212l1.154-1.213a8.058,8.058,0,0,1,1.5-1.515c.432-.364.563-.91,1.5-1.516.388-.242.948-.97,1.564-1.515.246-.182.927-.91,1.544-1.455a18.277,18.277,0,0,1,1.625-1.516c.328-.242.763-.788,1.664-1.454a15.336,15.336,0,0,1,1.682-1.334c.592-.3,1.112-1.091,1.722-1.273.913-.182,1.433-.97,2.31-1.394.548-.182,1.2-.667,2.363-1.031.588-.121,1.423-.424,2.275-.606a18.072,18.072,0,0,1,2.368-.182,6.529,6.529,0,0,1,2.843.364c.3.182.827.06,1.305.424a10.789,10.789,0,0,0,1.181.606c.2.121.785.181,1.078.727.1.243.9.364.974.849.093.424.432.667.871.97a1.9,1.9,0,0,1,.707,1.091,1.868,1.868,0,0,0,.6,1.213,1.191,1.191,0,0,1,.462,1.273c-.153.606.392.606.319,1.333s.2.971.175,1.4a6.042,6.042,0,0,0,.033,1.455c.293.546-.16.97-.149,1.454A11.466,11.466,0,0,1,363.8,36.954ZM324.14,103.048a3.153,3.153,0,0,0,1.26.728c.5.121.853.849,1.007,1.273.289.728.607,1.03.311,1.7-.317.728-.8.909-1.357,1.273a7.3,7.3,0,0,0-1.989,1.515,15.955,15.955,0,0,0-1.778,2.122,12.256,12.256,0,0,1-1.817,2.062,25.96,25.96,0,0,0-1.857,2c-.8.91-1.133,1.152-1.917,2-.435.546-1.315,1.152-1.956,1.941a19.6,19.6,0,0,1-2.056,1.879c-.905.849-1.682,1.334-2.1,1.819a12.7,12.7,0,0,1-2.2,1.758,23.071,23.071,0,0,1-2.213,1.637c-1.084.667-1.454,1.031-2.149,1.455L301.21,129.6l-2.167,1.334c-.613.363-1.675.97-2.228,1.333a22.32,22.32,0,0,1-2.163,1.152c-.98.546-1.429.789-2.224,1.152a20.42,20.42,0,0,1-2.524.971c-.792.181-1.972.606-2.393.424a1.074,1.074,0,0,1-.354-1.576,3.4,3.4,0,0,1,1.618-1.152c.756-.424,1.023-.667,1.675-.971.51-.242.919-.546,1.715-.909a11.218,11.218,0,0,0,1.693-.849c.389-.243,1.138-.3,1.572-.849a5.036,5.036,0,0,1,1.593-.91,6.758,6.758,0,0,0,1.615-.97c.716-.485,1.305-.606,1.554-.97a2.614,2.614,0,0,1,1.536-1.092,3.692,3.692,0,0,0,1.536-1.091,10.877,10.877,0,0,1,1.5-1.152,3.878,3.878,0,0,0,1.4-1.213c.5-.728.98-.546,1.457-1.212.271-.424.838-.485,1.418-1.273a7.482,7.482,0,0,1,1.358-1.273,17.626,17.626,0,0,0,1.379-1.334,24.76,24.76,0,0,1,2.124-2.243,7,7,0,0,0,1.486-1.637c.559-.728.93-1.091,1.528-1.758a12.567,12.567,0,0,1,1.468-1.758,11.046,11.046,0,0,0,1.3-1.637,7.936,7.936,0,0,0,1.5-2.364c.007-.364-.268-.789-1.032-1.031-.8-.3-1.081-.546-1.075-.91.032-.606.591-1.334,1.237-1.273.4.061,1.152,0,2.019.121A3.377,3.377,0,0,1,324.14,103.048Zm-15.007,8.184a2.7,2.7,0,0,1-2.242,1.031c-.806-.121-1.249-.242-1.353-1.152-.033-.424.252-1.576.244-2.243a9.82,9.82,0,0,1-.087-1.819c.16-.971-.176-1.395-.144-2-.033-.424-.454-.606-.664-1.213s-.286-.91.451-1.455a1.98,1.98,0,0,1,1.4-.363c.788,0,.8.485,1.263.546.543.182.7.606.971,1.031.2.3.475.546.789,1.031.2.3.25.667.589.909.239.182.275.424.365,1.031a6.674,6.674,0,0,1-.291,2.546A5.472,5.472,0,0,1,309.133,111.233Zm-15.709-2.91c-.089-.606-.528-.91-.5-1.516a1.82,1.82,0,0,1,.43-1.394,2.121,2.121,0,0,1,2.789,0,7.981,7.981,0,0,1,1.032,1.031c.436.485.717.546.932.97a2.164,2.164,0,0,1,.568.97c.053.364.335.424.364,1.031a4.287,4.287,0,0,1-.272,2.668,6.253,6.253,0,0,1-1.393,2.061c-.965.849-1.272,1.031-2.2.91-.685-.121-1.281-.667-1.192-1.092a10.452,10.452,0,0,0,.2-1.94c.142-1.091.209-1.455-.062-2.062A5.49,5.49,0,0,1,293.424,108.323ZM308.8,20.4a4.827,4.827,0,0,0-1.6,2.3c-.192.546-.591,1.333-.786,2.061a9.225,9.225,0,0,1-.725,2.062,16.008,16.008,0,0,0-1.15,3.092,29.983,29.983,0,0,1-1.127,3.032l-1.21,3.092a18.641,18.641,0,0,1-1.27,3.092,30.285,30.285,0,0,1-1.31,3.032c-.723.849-.64,1.819-1.452,3.092a10.358,10.358,0,0,1-1.235,2.3,9.813,9.813,0,0,0-1.478,2.3,9.013,9.013,0,0,1-1.8,2.183,13.4,13.4,0,0,1-2.216,1.819,13.149,13.149,0,0,1-1.758,1.031c-.346.121-1.08.485-1.75.667a7.182,7.182,0,0,0-1.726.424c-.51.242-1.526.546-1.8.3-.357-.363-.2-1.334-.8-1.515-.524-.061-1-.606-1.805-.728-.745-.121-1.23-.121-1.562-.728a1.465,1.465,0,0,1-.033-1.455,2.029,2.029,0,0,1,1.354-1.091,4.677,4.677,0,0,1,1.662-.243c1.091,0,1.994.364,3.107.3a22.572,22.572,0,0,0,3.106-.728c.506-.06.577-.606,1.29-.909.57-.243.652-.3,1.112-1.092.313-.546.8-.728,1.015-1.334s.537-.667.875-1.454l1.513-3.092a21.358,21.358,0,0,0,1.285-2.789c.277-.789.7-1.637,1.185-2.849l1.125-2.849a26.579,26.579,0,0,1,1.124-2.85,17.873,17.873,0,0,0,1.064-2.849c.363-1.03.868-2.122,1.043-2.789.2-.728.743-1.941,1.024-2.91a2.966,2.966,0,0,0-.554-1.7,2.482,2.482,0,0,0-1.9-.788,8.2,8.2,0,0,0-2.143.06,6.594,6.594,0,0,0-1.351.91,4.888,4.888,0,0,0-1.2,1.7c-.4.97-.851,2.243-1.374,3.213-.484,1.031-.907,2.062-1.41,2.971l-1.509,2.91a14.065,14.065,0,0,1-1.67,2.849,13.745,13.745,0,0,0-.936,1.455c-.314.546-.681.728-.916,1.395a4.049,4.049,0,0,1-1.037,1.394c-.349.3-.583.97-1.036,1.394a7.118,7.118,0,0,0-1.136,1.334c-.478.667-.905.849-1.137,1.333a8.559,8.559,0,0,1-1.279,1.395c-.538.667-.987.909-1.3,1.273-.681.728-1.087.849-1.275,1.212a7.52,7.52,0,0,1-1.336,1.213c-.492.363-.678.546-1.355,1.091l-1.293,1.092a6.162,6.162,0,0,1-1.354,1.091,10.926,10.926,0,0,0-1.355,1.091c-.37.364-.794.364-1.432.971a4.753,4.753,0,0,1-1.433.97l-1.433.97a3.718,3.718,0,0,0-1.411.91,4.389,4.389,0,0,1-1.9,1.091c-1,.424-1.447.667-2.16.97a3.3,3.3,0,0,1-1.807.485c-.343-.061-.952.121-1-.424s.615-1.576,1.824-2.425a10.324,10.324,0,0,1,1.822-1.213,4.881,4.881,0,0,0,1.675-.97,6.858,6.858,0,0,1,1.308-.788,9.322,9.322,0,0,0,1.351-.91c.534-.485.919-.546,1.35-.91a14.745,14.745,0,0,0,1.351-.909c.453-.424.9-.485,1.272-1.031.249-.364.777-.485,1.251-.97.556-.546.641-.789,1.211-1.031.51-.243.677-.546,1.233-1.092a5.912,5.912,0,0,0,1.194-1.152,2.97,2.97,0,0,1,1.133-1.151,2.115,2.115,0,0,0,1.073-1.152c.314-.546.556-.546,1.033-1.213a8.077,8.077,0,0,1,1.055-1.273c.268-.242.353-.485.994-1.273a13.7,13.7,0,0,0,1.806-2.546,12.117,12.117,0,0,1,1.645-2.607,19.46,19.46,0,0,0,1.485-2.668,23.6,23.6,0,0,0,1.385-2.728,28.723,28.723,0,0,1,1.263-2.728l1.142-2.728c.36-.849,1.2-2.365.048-2.547a9.983,9.983,0,0,0-1.986.3,14.234,14.234,0,0,0-1.662.243c-1.362.424-1.969.424-2.707-.061a1.217,1.217,0,0,1-.618-1.515c.192-.546.441-.91,1.478-1.274a6.85,6.85,0,0,1,2.857-.363c.485,0,.924.3,1.573.182a2.94,2.94,0,0,1,2.019.121c.343.06,1.23-.91,1.586-1.576.271-.424.387-1.273.768-2.183.4-.97.69-2.3.96-2.728a7.25,7.25,0,0,0,.641-1.819,22.613,22.613,0,0,0,1.131-3.214A32.023,32.023,0,0,1,298.619,3c.754-1.455,1.5-1.152,2.224-1.152a11.376,11.376,0,0,1,2.418.364c1.106.3,1.787.606,1.532,1.333s-1.252.971-1.686,1.516a9.892,9.892,0,0,0-1.667,2.667,9.8,9.8,0,0,1-.96,2.728c-.256.728-.744,1.941-.939,2.668a25.321,25.321,0,0,1-.982,2.789c-.231.485.108.728.262,1.152a.874.874,0,0,0,1.223.485c.287-.3,1.437-.122,2.407-.122a7.057,7.057,0,0,0,2.927-.909,4.576,4.576,0,0,1,1.967-1.455c.873-.242,1.22.667,1.759,1.031a3.631,3.631,0,0,1,1.149,1.212,2.3,2.3,0,0,1,.476,1.576C310.492,19.736,309.026,20.282,308.8,20.4Zm-21.047-6a2.126,2.126,0,0,1-1.819,0c-.642-.243-1.027-.182-1.83-.485a4.653,4.653,0,0,0-1.773-.3c-1.212,0-2.65.121-3.5.121-1.355.061-2.407.121-3.438.121h-3.274c-1.334,0-2.467.122-3.3.061a11.372,11.372,0,0,0-3.213,0,14.2,14.2,0,0,1-3.214,0c-1.255.121-2.068.363-3.06.424a5.322,5.322,0,0,1-2.885-.242c-.721-.364-.956-.728-.843-1.395.088-.424.378-.727,1.825-1.394a5.691,5.691,0,0,1,3.014-.121,4.221,4.221,0,0,0,2.782.364,3.346,3.346,0,0,1,2.062,0c.5.121,1.519-.182,2.061,0,.764.242,1.947-.364,2.557-.546a2.982,2.982,0,0,0,1.6-1.091,8.76,8.76,0,0,0,.7-2,16.222,16.222,0,0,1,.96-2.728c.235-.667.28-2,.839-2.728a1.5,1.5,0,0,1,1.912-.606,9.736,9.736,0,0,0,2.6.364c1.11.121,2.337.424,1.877,1.212a3.933,3.933,0,0,1-1.786,1.455,3.039,3.039,0,0,0-1.482,1.455c-.52.788-.291,1.515-.79,2.243-.523.971.18,1.213.287,1.941.147.788,1.135.909,1.456,1.031a6.182,6.182,0,0,0,3.153,0c.938-.424,1.461-1.395,2.32-1.941.674-.363,1.535-2.122,2.359-1.88.382.121.514.606.954.91l1.307,1.455a7.12,7.12,0,0,1,1.492,1.273,1.246,1.246,0,0,1-.052,1.7C289,13.976,288.389,13.976,287.755,14.4Zm-28.36,7.882c.6-.849,1.408-1.758,1.678-2.183.313-.546,1.222-1.576,1.617-2.183.435-.546.586-2.183,1.742-2.364.83-.122.863.3,1.648.485a12.957,12.957,0,0,0,1.691.364,1.133,1.133,0,0,1,1.078.728,1.784,1.784,0,0,1,.115,1.394c-.494,1.576-2.1.97-2.67,1.212a7.993,7.993,0,0,0-1.835,1.941,11.344,11.344,0,0,1-1.854,1.819,8.542,8.542,0,0,0-1.892,1.758c-.826.97-1.336,1.212-1.853,1.819l-1.853,1.819c-.473.485-1.686,1.516-1.974,1.819-.371.363-.41.3-1.108.909a5.633,5.633,0,0,1-1.433.971c-1,.424-2.182,1.03-2.414.485-.268-.788-.059-1.212.914-2.425a3.667,3.667,0,0,1,1.318-1.334,4.454,4.454,0,0,0,1.172-1.091c.6-.667,1.522-1.394,2.078-1.94.866-.91.99-1.092,1.978-2A16.948,16.948,0,0,0,259.395,22.283Zm19.024.727a6.576,6.576,0,0,0-.5-1.151c-.175-.364-.293-.546-.586-1.092a3.381,3.381,0,0,0-1.053-.97,7.509,7.509,0,0,0-1.356-.97,1.832,1.832,0,0,1-.931-.971.955.955,0,0,1,.059-1.03c.314-.546,1.241-.424,1.822-.182a20.957,20.957,0,0,1,2.126.849,18.127,18.127,0,0,0,1.784.789,2.3,2.3,0,0,1,1.638,1.03c.253.485,1.26.728,1.31,1.273.068.667.55.849.861,1.516a4.388,4.388,0,0,1,.394,1.637c-.035.789-.242,1.031-.32,1.941.011.485-.566,1.091-1.143,1.7a2.379,2.379,0,0,1-1.815.849,1.185,1.185,0,0,1-1.317-.91c-.207-.788-.507-.97-.351-1.758a3.064,3.064,0,0,0-.279-1.273A6.631,6.631,0,0,0,278.418,23.009ZM251.578,46.9a6.992,6.992,0,0,1,1.394-1.031c.449-.242.977-.364,1.272-1.031a2.684,2.684,0,0,1,1.294-1.091,4.484,4.484,0,0,0,1.254-1.152c.271-.424,1.105-.728,1.255-1.152.378-.728.663-.849,1.525-1.576a8,8,0,0,0,1.525-1.576c.6-.849.912-1.213.858-1.576-.112-.546.138-.91.127-1.394-.051-.546-.457-.425-.75-.971-.332-.606-.517-.424-.771-.909-.192-.485-.19-.667-.874-.789-.525-.06-.878-.606-1.078-.728-.739-.485-1.092-1.031-.8-1.515a1.533,1.533,0,0,1,2.1-.121l1.324.546c.4.424.8.3,1.042.485.578.425,1.3.789,1.538.971.218.242.888.06,1.555.06.606,0,1.266-.667,1.554-.97a15.015,15.015,0,0,0,1.432-2,15.565,15.565,0,0,1,1.639-2.243c.723-.849.54-1.88,1.6-2.3a4.363,4.363,0,0,1,2.982.485,7.4,7.4,0,0,0,1.5.728c.581.243.586,1.092.436,1.516a1.541,1.541,0,0,1-1.479,1.273c-.528.121-1.355.06-1.7.182-.774.3-1.222,1.576-1.638,2.243a12.157,12.157,0,0,1-1.617,2.183c-.695.424-.548,1.212-1.093,2.243-.444,1.091-.373,1.576-.077,1.94a2.316,2.316,0,0,1,.861,1.516,6.6,6.6,0,0,0,.822,1.455,2.7,2.7,0,0,1,.54,1.394,4.641,4.641,0,0,0,.3,1.394,6.558,6.558,0,0,1-.276,2.849,4.083,4.083,0,0,1-1.165,1.758,3.912,3.912,0,0,1-1.921,1.152c-.628.061-1.3-.606-1.531-1.334a17.979,17.979,0,0,0-.383-2.182c-.336-.425-.126-.849-.259-1.334-.111-.546-.325-.97-.34-1.273,0-.849-1.107-1.334-1.613-1.273-1.013.121-1.737-.061-2.193.546a13.415,13.415,0,0,1-2.2,1.94,9.894,9.894,0,0,0-1.355,1.092c-.616.546-1.062.606-1.354,1.091-.3.667-1.087.849-1.354,1.091a6.85,6.85,0,0,1-1.354,1.092,14.2,14.2,0,0,0-1.333,1.031c-.656.485-1.244.606-1.454,1.03-.4.606-.962.667-1.372.971a5.772,5.772,0,0,1-1.433.97,14.048,14.048,0,0,1-1.779,1.091c-.713.3-1.533.91-2,1.031-.934.242-1.527.546-1.79.606-.834.3-.948-.061-1.045-.3-.093-.424.174-.667.345-1.152.274-.606.763-.789,1.461-1.394a6.4,6.4,0,0,1,1.886-1.395c.713-.3.987-.909,1.739-1.152.649-.121.638-.606,1.454-1.03.389-.243.723-.849,1.433-.971C250.773,47.807,251.043,47.382,251.578,46.9Zm-8.661,52.027a3.4,3.4,0,0,1,1.9-.06,10.234,10.234,0,0,0,1.961-.061,8.726,8.726,0,0,0,2.043-.121,9.711,9.711,0,0,1,2-.182,8.219,8.219,0,0,1,2-.181c.667,0,1.217-.182,2.026-.243.567-.06,1.5-.121,2.086-.242a10.717,10.717,0,0,0,2.025-.242,7.552,7.552,0,0,1,3.181-.424,9.275,9.275,0,0,0,3.166-.728c.874-.243,1.964-1.273,2.667-1.031.321.121,1.213,0,1.773.3.3.182,1.184.424,1.544.606.3.181.593.728,1.217.849s.383,1.152.194,1.515a2.107,2.107,0,0,1-1.864,1.334c-.831.121-1.779.06-2.285.121-1.4.182-1.734-.242-2.265.061a3.489,3.489,0,0,1-1.74.121c-.624-.121-1.22.363-1.761.181-.764-.242-1.156.182-1.883.182a12.434,12.434,0,0,0-2.126.182c-.77.121-1.012.121-1.39.849-.25.363.168.728.151,1.637-.02,1.092-1.645,2.607-1.752,2.91-.192.545-.876,1.455-1,1.819-.317.728-.748,1.092-.861,1.758a3.553,3.553,0,0,1-.88,1.637,7.478,7.478,0,0,0-.776,1.515,27.538,27.538,0,0,1-1.345,2.789c-.734,1.394-.7,2.667-.112,2.728a14.33,14.33,0,0,0,1.677.06,11.868,11.868,0,0,0,2.143-.06c.933-.243,1.473.121,1.961-.061a5.743,5.743,0,0,1,1.84-.061,15.267,15.267,0,0,1,2.2-.06,2.224,2.224,0,0,0,1.658-.061,6.25,6.25,0,0,1,1.762-.181c.667,0,1-.424,1.768-.546a17.2,17.2,0,0,1,2.464.061c.867.121,1.242.606,2.087.788.725.182,1.017.728,1.35,1.334a1.408,1.408,0,0,1,.258,1.334,2.114,2.114,0,0,1-2.11,1.515c-1.07-.06-1.473-.121-1.837-.121a16.973,16.973,0,0,1-3.167-.3,14.94,14.94,0,0,0-2.786-.182,10.442,10.442,0,0,1-2.443-.121c-.945-.242-1.559.121-2.222-.06a6.157,6.157,0,0,0-2.122,0,9.185,9.185,0,0,1-3.153,0c-.827-.061-1.84.06-3.174.06l-2.143.061a5.264,5.264,0,0,0-2.1.121c-1.076.3-1.351-.121-2.186.182a4.1,4.1,0,0,1-2.186.182,7.3,7.3,0,0,0-2.126.181,7.168,7.168,0,0,0-2.229.3,14.207,14.207,0,0,1-2.146.242,13.727,13.727,0,0,1-2.229.3,25.557,25.557,0,0,0-2.635.424,16.417,16.417,0,0,0-2.638.606c-.528.121-1.226.728-1.747.485a6.584,6.584,0,0,1-1.8-1.092c-.635-.606-.7-1.273-1.078-1.758a2.383,2.383,0,0,1-.779-1.576c.05-.485-.282-1.092.58-1.819a1.485,1.485,0,0,1,1.565-.485,1.694,1.694,0,0,1,1.181.606c.418.364.635.606,1.093,1.031a1.6,1.6,0,0,0,1.284.485,17.745,17.745,0,0,1,2.913-.182,23.464,23.464,0,0,0,2.693-.242,3.829,3.829,0,0,0,1.619-.121c.713-.3.952-.121,1.762-.182a8.043,8.043,0,0,1,1.74-.121c.667,0,2.086-.242,2.875-.242a11.638,11.638,0,0,0,2.731-.182c1.255-.121,1.926-.3,2.317-.728a8.033,8.033,0,0,0,1.055-1.273c.271-.424.652-1.334.986-1.941.481-.849,1.036-2.425,1.438-3.395.488-1.212.993-2.3,1.356-3.335.384-1.091.665-2.061,1.234-3.334a4.641,4.641,0,0,0,.162-2.183,1.969,1.969,0,0,0-1.577-1.031,8.971,8.971,0,0,0-1.983.121,9.556,9.556,0,0,0-1.983.121,13.373,13.373,0,0,0-2,.182c-.507.061-1.277.182-2.026.242a4.934,4.934,0,0,1-2.276-.424,9.349,9.349,0,0,1-1.27-1.212,6.623,6.623,0,0,1-1.064-1.455,1.577,1.577,0,0,1,.312-1.576c.659-.667.9-.667,1.366-.606a1.813,1.813,0,0,1,1.245.424,3.173,3.173,0,0,0,1.256.91A2.428,2.428,0,0,0,242.917,98.925Zm-4.769-70.64c-.132.546-.473,1.515-.647,2.182-.508,1.274-.928,2.123-1.163,2.789-.363,1.031-1.186,1.819-1.463,2.607a10.007,10.007,0,0,1-1.742,2.364,11.019,11.019,0,0,1-2,2.244,11.409,11.409,0,0,0-2.242,2.061c-.5.546-.62.728-1.169.91-.488.182-.635.424-1.23.909a3.757,3.757,0,0,1-1.329.849,6,6,0,0,0-1.369.789,3.847,3.847,0,0,1-1.551.788c-.445.061-.9.485-1.326.667a8.179,8.179,0,0,1-2.221.97,5.361,5.361,0,0,0-1.851.606c-.9.485-1.22.363-1.954.728a11.894,11.894,0,0,1-2.157.788,9.086,9.086,0,0,0-1.868.485c-.792.182-1.341.363-2.111.485a7.6,7.6,0,0,0-1.926.3,3.392,3.392,0,0,1-2.119-.181c-.867-.122-.65-1.941.348-2.365a9.62,9.62,0,0,1,2.781-.667,17.443,17.443,0,0,1,2.132-.546,4.632,4.632,0,0,0,1.911-.606,15.178,15.178,0,0,0,2.053-.667c.528-.121,1.141-.485,1.811-.667.528-.121,1.162-.546,2.261-.91.752-.242.962-.667,1.878-1.03.9-.485,1.105-.728,1.921-1.152a13.362,13.362,0,0,1,1.839-1.092,5.66,5.66,0,0,0,1.743-1.333c.392-.424,1.286-.728,1.664-1.455.335-.606,1.087-.849,1.525-1.576.189-.364.887-.97,1.408-1.758.416-.667.633-1.455,1.268-1.88a5.132,5.132,0,0,0,1.068-2c.317-.728.637-1.637.89-2.183a20.964,20.964,0,0,0,.657-2.728,8.038,8.038,0,0,0,.069-2.607,2.429,2.429,0,0,1-.179-1.213c.132-.546-.086-.788-.3-1.212-.256-.3.035-.789-.4-1.092a1.917,1.917,0,0,1-.607-1.03,12.512,12.512,0,0,0-1.007-1.274c-.436-.485-1.056-.788-1.231-1.152-.236-.363-1.038-.667-1.377-.909l-1.563-.728a4.953,4.953,0,0,0-1.666-.606,6.885,6.885,0,0,0-1.873-.363,6.754,6.754,0,0,1-1.976-.243,6.6,6.6,0,0,0-2.161-.06,1.568,1.568,0,0,0-1.069.97,2.241,2.241,0,0,0,.454,1.637,2.932,2.932,0,0,1-.12,2.061,9.7,9.7,0,0,1-1.723,2.486c-.52.788-1.571,1.88-1.945,2.425-.581.788-1.386,1.7-1.863,2.364-.417.667-1.529,1.758-1.9,2.3-.727,1.031-1.343,1.576-1.881,2.244-.745.909-1.283,1.576-1.86,2.182-.784.849-1.219,1.395-1.9,2.123a24.922,24.922,0,0,0-1.9,2.122,11.638,11.638,0,0,1-1.977,2,18.426,18.426,0,0,0-2.2,2.122c-.414.485-.962.667-1.234,1.091-.374.546-.941.606-1.293,1.092a2.84,2.84,0,0,1-1.351.909,6.159,6.159,0,0,0-1.593.91c-.595.485-1.7.363-2.535.485a3.073,3.073,0,0,1-2.208-.789,3.365,3.365,0,0,1-.792-.849c-.236-.363-.25-.667-.569-.97a1.292,1.292,0,0,1-.4-1.092l-.2-1.152a16.952,16.952,0,0,1-.1-2.485,10.783,10.783,0,0,1,.372-2.607,22.151,22.151,0,0,0,.757-2.667,10.043,10.043,0,0,1,1.035-2.425,20.361,20.361,0,0,0,1.257-2.365,10.439,10.439,0,0,1,1.518-2.243c.577-.606,1.182-1.637,1.635-2.062l1.9-1.94a22.456,22.456,0,0,1,2.013-1.758A17.217,17.217,0,0,0,200,19.008a15.054,15.054,0,0,1,2.291-1.515,10.879,10.879,0,0,1,2.349-1.334c.592-.3,1.49-.788,2.407-1.152l2.485-1.03a8.477,8.477,0,0,1,2.521-.789c.71-.121,1.59-.728,2.418-.667.645.06,1.462-.364,2.392-.424a17.87,17.87,0,0,1,2.471-.3,6.235,6.235,0,0,0,2.346-.121,3.347,3.347,0,0,1,2.04.06,5.62,5.62,0,0,0,1.976.243c.485,0,1.515,0,1.912.424.257.3,1.388.363,1.77.485.785.182,1.2.546,1.706.667.745.121,1.2.727,1.58.849a3.307,3.307,0,0,1,1.417.97c.375.485.817.606,1.252,1.091a5.277,5.277,0,0,1,1.068,1.273,3.655,3.655,0,0,0,.9,1.395,4.366,4.366,0,0,1,.658,1.576,9.539,9.539,0,0,1,.433,1.7c.093.424.04,1.091.148,1.819a7.733,7.733,0,0,1-.016,1.94A15.769,15.769,0,0,1,238.148,28.285ZM214.631,16.037a3.137,3.137,0,0,0-2.158-.242,8.535,8.535,0,0,0-2.518.606c-.67.181-.838.485-1.629.667a4.921,4.921,0,0,0-1.836.91,16.437,16.437,0,0,1-1.633.849,11.452,11.452,0,0,0-1.614.97,7.482,7.482,0,0,0-1.619,1.152,8.7,8.7,0,0,1-1.436,1.152,7.586,7.586,0,0,0-1.4,1.212c-.167.3-.737.546-1.318,1.334-.477.667-.7.789-1.24,1.455s-.644.97-1.119,1.455a5.629,5.629,0,0,0-.958,1.515l-1.452,3.092a7.135,7.135,0,0,0-.65,2.364,23.7,23.7,0,0,0-.357,2.91,7.831,7.831,0,0,0,.337,2.485c.268.789.6,1.213,1.6.971a5.779,5.779,0,0,0,2.072-.546,10.189,10.189,0,0,0,1.885-1.394,11.839,11.839,0,0,0,1.336-1.212c.37-.364.677-.546,1.315-1.152.513-.424.826-.971,1.237-1.273a10.134,10.134,0,0,0,1.236-1.274,5.962,5.962,0,0,0,1.116-1.273,11.979,11.979,0,0,1,1.176-1.273,4.7,4.7,0,0,0,1.075-1.333c.4-.606.845-.849,1.136-1.334.232-.485,1.133-1.152,1.674-2l1.657-2.122a13.385,13.385,0,0,1,1.535-2.123c.495-.546.8-1.576,1.475-2.122a2.293,2.293,0,0,0,.734-1.394A8.95,8.95,0,0,0,214.631,16.037ZM188.737,100.2a23.161,23.161,0,0,0,.922-2.789c.3-1.031.747-2.122.982-2.789a12.383,12.383,0,0,1,.921-2.789c.712-1.334.5-1.94-.077-2.365l-.96-.546c-.421-.181-1.686.485-1.509-.363.156-.789,1.479-1.273,2.132-1.576a3.126,3.126,0,0,1,1.722-.242,13.1,13.1,0,0,1,1.548.424c.343.06,1.053.97,1.717,1.152a1.936,1.936,0,0,1,1.185,1.454c.089.606.55.849.215,1.455-.584.97-1.357,1.273-1.546,1.637-.438.728-.955,1.333-1.061,1.637a30.237,30.237,0,0,1-1.146,2.91,25.749,25.749,0,0,1-1.064,2.849c-.421.849-.647,2.183-1.153,3.274a2.7,2.7,0,0,0,.03,1.637c.147.788.361,1.212.932.97.855-.363,1.509.363,2.457.424a9.321,9.321,0,0,1,2.194.485,8.7,8.7,0,0,1,1.987.728,17.878,17.878,0,0,0,1.862.909,2.9,2.9,0,0,1,1,.606c.457.424.543.182.9.728a15.365,15.365,0,0,1,1.179,1.819,2.767,2.767,0,0,1-.045,2.365,5.092,5.092,0,0,1-1.246,1.819,3.382,3.382,0,0,1-1.957.91,1.771,1.771,0,0,1-1.466-.485,4.767,4.767,0,0,1-.868-1.152c-.214-.424-.328-.788-.7-1.455a13.281,13.281,0,0,0-.846-1.212,5.249,5.249,0,0,0-.95-1.092,11.707,11.707,0,0,0-1.053-.97,5.871,5.871,0,0,1-1.1-.667,3.113,3.113,0,0,0-1.017-.728,2.047,2.047,0,0,0-2.207.242c-.984.728-1.369.789-1.729,1.637-.423,1.031-.64,1.819-.9,2.546s-.708,2.183-1.024,2.91a18.378,18.378,0,0,0-1.025,2.91l-1.024,2.91-.986,2.971a26.725,26.725,0,0,1-1,2.849,28.9,28.9,0,0,0-1.046,2.971,7.591,7.591,0,0,1-1.129,2,2.365,2.365,0,0,1-1.982,1.151c-1.034.182-1.1-.485-1.316-.909a4.224,4.224,0,0,1-.169-1.758,11.284,11.284,0,0,1,1.01-3.213l.975-2.425a14.249,14.249,0,0,1,.936-2.486c.231-.485.7-1.637,1-2.486a12.723,12.723,0,0,1,.914-2.425,11.165,11.165,0,0,0,1.067-3.032l.594-1.515a31.176,31.176,0,0,1,1.089-3.092c.235-.667.708-2.183,1-2.85.424-1.03.6-1.879,1-2.667a19.278,19.278,0,0,0,.854-2.425A25.127,25.127,0,0,1,188.737,100.2ZM185.712,9.672c-.068.363-.727,1.03-.98,1.576-.106.3-1.326.667-1.671.788-.934.242-.963-.363-1.356-.97a4.968,4.968,0,0,1-.615-1.7c-.054-.364-.468-.91-.6-1.394a2.4,2.4,0,0,0-.946-1.274,17.785,17.785,0,0,0-1.656-1.152c-.76-.424-1.06-.606-.768-1.091.313-.546,1.633-.849,2.838-.485.867.122,1.533.122,1.869.546.275.424,1.249.242,1.584.667a1.607,1.607,0,0,0,1.238.789c.785.181.653.727.932.97.539.363.29.728.34,1.273C186.111,8.883,185.786,8.944,185.712,9.672Zm-7.58,2.243c.15.606.186.849.319,1.334a4.489,4.489,0,0,1-.291,1.515,4.242,4.242,0,0,1-1.04,1.576,2.614,2.614,0,0,1-1.65.728c-.831.121-1.1-.849-1.475-1.152-.517-.424-.318-1.334-.569-2-.129-.667-.735-.667-.54-1.394.092-.606-.368-.849-.765-1.273a10.05,10.05,0,0,0-1.534-1.152c-.679-.485-.757-.606-.543-1.213.32-.909,1.747-.485,2.856-.363.827.06.917.667,1.766.667.424,0,1.1.667,1.541.789.6.181.657.546,1.156.849A1.379,1.379,0,0,1,178.132,11.915Zm-5.888,12.247c.653-.3,1.091-1.03,1.6-1.273.612-.363,1.065-.788,1.781-1.273a2.478,2.478,0,0,1,1.836-.909c.827.06,1.023.363.786,1.212-.26.91-1.24,1.455-1.674,2a29.577,29.577,0,0,1-2.441,1.941c-.862.728-1.8,1.333-2.256,1.758a15.284,15.284,0,0,1-2.256,1.758,15.776,15.776,0,0,1-2.317,1.758c-.855.363-1.194,1.152-1.989,1.515a18.349,18.349,0,0,0-2.025,1.273A13.715,13.715,0,0,1,161.1,35.5a7.592,7.592,0,0,0-2.192,1.576,11.385,11.385,0,0,1-2.292,1.516c-.716.485-1.533.909-2.21,1.454a5.547,5.547,0,0,1-2.331,1.455c-.467.121-1.5,1.152-2.249,1.395-.938.424-1.921,1.152-2.289,1.333-1.04.546-1.593.91-2.349,1.334a20.446,20.446,0,0,0-2.328,1.273c-.881.606-1.918.97-2.756,1.455-1.105.728-2.142,1.091-2.695,1.455a7.406,7.406,0,0,0-1.743,1.333,3.09,3.09,0,0,1-1.9.91c-.731.182-1.113.061-1.427-.424a2.673,2.673,0,0,0-1.131-1.091c-.5-.3-.386-.971-.864-1.334a2.13,2.13,0,0,1-.6-1.213c-.015-.3-.572-.788-.679-1.515a1.275,1.275,0,0,1,.516-1.637c.617-.546,1.541-.242,2.3.182.261.121.572.789.936.789.788,0,.678.485.942.424a4.553,4.553,0,0,0,2.007-.364,16.335,16.335,0,0,0,2-.849c.346-.121,1.53-.728,1.958-.909a17.126,17.126,0,0,0,1.939-1.031,11.035,11.035,0,0,1,1.939-1.031,7.948,7.948,0,0,0,2.47-1.334c.6-.485,1.469-.728,2.409-1.333a19.919,19.919,0,0,1,2.41-1.334c.592-.3,1.451-.849,2.431-1.394.592-.3,1.226-.728,2.37-1.4a20.206,20.206,0,0,1,2.453-1.454,24.741,24.741,0,0,1,2.352-1.516c.631-.242,1.354-1.091,2.331-1.455a6.08,6.08,0,0,0,1.721-1.273,13.554,13.554,0,0,1,1.921-1.152,14.682,14.682,0,0,1,2.028-1.455c.855-.363,1.133-1.152,1.928-1.515C171.157,25.011,171.53,24.465,172.243,24.161Zm-18.385-5.638a7.275,7.275,0,0,1-1.432,2,3.526,3.526,0,0,1-2.139.91,1.981,1.981,0,0,1-1.68-.91,2.918,2.918,0,0,1-.326-2c.028-.424-.3-1.031-.312-1.7a1.654,1.654,0,0,0-.618-1.516c-.436-.485-1.017-.728-1.613-1.273-.436-.485-1.06-.606-.6-1.394a2.71,2.71,0,0,1,1.408-.728,5.48,5.48,0,0,1,1.815.182c.482.181,1.266.363,1.948.667a2.943,2.943,0,0,1,1.6.789c.157.242,1.045.3,1.156.849.094.424.433.667.768,1.091a1.67,1.67,0,0,1,.3,1.394C153.96,17.371,153.986,18.159,153.858,18.523Zm-13.893,14.49c-.859.546-1.148.849-2,.849a1.236,1.236,0,0,1-1.52-.849,7.336,7.336,0,0,1-.533-1.758,8.719,8.719,0,0,0-.455-1.637c-.257-.3-.486-1.03-.761-1.455-.157-.242-1.1-.667-1.716-1.151-.639-.424-1.224-.485-.786-1.213a1.656,1.656,0,0,1,1.39-.849c.264-.061,1.07.061,1.919.061a4.729,4.729,0,0,1,2.051.546c.542.181.942.424,1.684.728a10.611,10.611,0,0,1,1.217.849,10.674,10.674,0,0,1,.829,1.091l.3,1.394a3.92,3.92,0,0,1-.334,1.637A4.255,4.255,0,0,1,139.965,33.014ZM133.6,108.626c1.13.06,2.043-.122,2.689-.061a20.09,20.09,0,0,0,2.689-.061l3.174-.06,3.2-.121c.728,0,2.065-.182,3.217-.182a13.909,13.909,0,0,0,3.238-.242l1.9-.243c.749-.06,1.341-.363,1.886-.363.606,0,.806.121,1.594.121a6.385,6.385,0,0,1,1.873.364c.763.242,1.106.3,1.4.849.2.3.525,1.091.194,1.515-.477.667-.584.97-.951,1.152a5.654,5.654,0,0,1-1.547.606,22.342,22.342,0,0,1-3,.242,9.784,9.784,0,0,0-1.941,0,6.134,6.134,0,0,1-2.728,0h-1.7c-.827-.06-1.88,0-2.728,0a15.138,15.138,0,0,1-2.81.061,13.523,13.523,0,0,0-2.728,0c-1.152,0-2.022.06-2.81.06-1.213,0-1.619.121-2.771.121a8.517,8.517,0,0,0-2.749.061,20.963,20.963,0,0,1-2.832.121c-1.116.242-2.161-.06-2.771.121a7.15,7.15,0,0,1-1.6.061,11.927,11.927,0,0,0-2.2.06,16.557,16.557,0,0,1-2.389.243c-.524-.061-2.01.546-2.617.546a3.25,3.25,0,0,1-2.03-.606,3.486,3.486,0,0,1-1.017-.728c-.275-.424-.817-.606-.832-.909.028-.424-.553-.667-.707-1.092a4.171,4.171,0,0,0-.664-1.212,1.9,1.9,0,0,1,.283-2.183c.72-.667,1.134-.121,1.933.363a11.8,11.8,0,0,0,1.713,1.334,4.968,4.968,0,0,0,1.651.3c.789,0,1.616.061,2.1.061a21.494,21.494,0,0,1,2.628-.061c.864.3,1.662-.242,2.75-.061a20.65,20.65,0,0,0,2.75-.06c.728,0,1.6-.061,2.628-.061C131.88,108.686,132.528,108.565,133.6,108.626ZM110.957,27.678a7.3,7.3,0,0,0-1.989,1.515,15.949,15.949,0,0,0-1.778,2.122,12.257,12.257,0,0,1-1.817,2.062,25.8,25.8,0,0,0-1.857,2c-.8.91-1.133,1.152-1.917,2-.435.546-1.315,1.152-1.956,1.941A19.608,19.608,0,0,1,97.587,41.2c-.905.849-1.682,1.334-2.1,1.819a12.7,12.7,0,0,1-2.2,1.758,23.17,23.17,0,0,1-2.213,1.637c-1.084.667-1.454,1.031-2.149,1.455l-2.128,1.394L84.639,50.6c-.613.363-1.675.97-2.228,1.333a22.316,22.316,0,0,1-2.163,1.152c-.98.546-1.429.789-2.224,1.152A20.424,20.424,0,0,1,75.5,55.2c-.792.181-1.972.606-2.393.424a1.074,1.074,0,0,1-.354-1.576A3.4,3.4,0,0,1,74.37,52.9c.755-.424,1.023-.667,1.675-.971.51-.242.919-.546,1.715-.909a11.217,11.217,0,0,0,1.693-.849c.389-.243,1.138-.3,1.572-.849a5.028,5.028,0,0,1,1.593-.91,6.773,6.773,0,0,0,1.615-.97c.716-.485,1.305-.606,1.554-.97a2.614,2.614,0,0,1,1.536-1.092A3.692,3.692,0,0,0,88.86,44.29a10.878,10.878,0,0,1,1.5-1.152,3.871,3.871,0,0,0,1.4-1.213c.5-.728.98-.546,1.458-1.212.271-.424.838-.485,1.418-1.273a7.459,7.459,0,0,1,1.358-1.273,17.627,17.627,0,0,0,1.379-1.334A24.769,24.769,0,0,1,99.49,34.59a7,7,0,0,0,1.486-1.637c.559-.728.93-1.091,1.528-1.758a12.566,12.566,0,0,1,1.468-1.758,11,11,0,0,0,1.3-1.637,7.927,7.927,0,0,0,1.5-2.364c.007-.364-.268-.789-1.032-1.031-.8-.3-1.081-.546-1.075-.91.032-.606.591-1.334,1.237-1.273.4.061,1.152,0,2.019.121a3.377,3.377,0,0,1,1.812.364,3.153,3.153,0,0,0,1.26.728c.5.121.853.849,1.007,1.273.289.728.607,1.03.311,1.7C112,27.133,111.509,27.314,110.957,27.678ZM94.729,30.891a2.7,2.7,0,0,1-2.242,1.031c-.806-.121-1.249-.242-1.353-1.152-.033-.424.251-1.576.244-2.243a9.828,9.828,0,0,1-.087-1.819c.16-.971-.176-1.395-.145-2-.032-.424-.453-.606-.664-1.213s-.285-.91.452-1.455a1.981,1.981,0,0,1,1.4-.363c.788,0,.8.485,1.263.546.543.182.7.606.971,1.031.2.3.475.546.789,1.031.2.3.25.667.589.909.239.182.275.424.365,1.031a6.675,6.675,0,0,1-.291,2.546A5.472,5.472,0,0,1,94.729,30.891ZM82.973,33.8c-.965.849-1.272,1.031-2.2.91-.685-.121-1.281-.667-1.192-1.092a10.451,10.451,0,0,0,.2-1.94c.142-1.091.209-1.455-.062-2.062a5.49,5.49,0,0,1-.7-1.637c-.089-.606-.528-.91-.5-1.516a1.82,1.82,0,0,1,.43-1.394,2.121,2.121,0,0,1,2.789,0A7.979,7.979,0,0,1,82.774,26.1c.436.485.717.546.932.97a2.164,2.164,0,0,1,.568.97c.054.364.335.424.364,1.031a4.287,4.287,0,0,1-.272,2.668A6.253,6.253,0,0,1,82.973,33.8Zm-8.98,65.367a17.026,17.026,0,0,0,2.49-.182,9.562,9.562,0,0,1,2.571-.242,16.047,16.047,0,0,0,2.792-.182,25.741,25.741,0,0,1,2.875-.242,18.469,18.469,0,0,0,3.1-.182,27.423,27.423,0,0,0,3.059-.424,5.423,5.423,0,0,0,2-1.031,5.935,5.935,0,0,1,1.793-.788,1.257,1.257,0,0,1,1.1.485,2.15,2.15,0,0,0,.875.789,6.622,6.622,0,0,1,1.307,1.455,2.773,2.773,0,0,1,.3,2.061c-.01.546-.848,1.031-1.706,1.576a6.358,6.358,0,0,0-1.886,1.394,5.917,5.917,0,0,0-1.126,1.819c-.149.424-.808,1.091-.979,1.576-.305,1.212-1.208,1.88-1.689,2.728-.374.546-.958,1.515-1.314,2.182a7.262,7.262,0,0,0-1.292,2.123c-.171.485-1.1,1.576-1.417,2.3a2.756,2.756,0,0,0-.149,1.455l.746,1.152a6.073,6.073,0,0,1,.69,2c.3,1.031-1.483,1.455-2.189,1.395a21.05,21.05,0,0,1-2.14-.122l-2.016-.3c-.343-.06-1.191-.06-1.836-.121-.828-.06-1.416.061-1.88,0a6.942,6.942,0,0,0-1.941,0l-1.961.061a10.889,10.889,0,0,0-1.961.06,12.884,12.884,0,0,1-1.983.122l-2.126.181c-.688.061-1.6.061-2.1.122a7.726,7.726,0,0,0-2.67,1.212,19.215,19.215,0,0,0-1.914,1.819A3.664,3.664,0,0,1,59.224,127c-.913.182-1.281-.667-1.392-1.212a3.305,3.305,0,0,1,.244-2.244c.844-1.879.583-2,.626-2.122a11.757,11.757,0,0,0,.651-2.364,18.806,18.806,0,0,1,.711-2.365l.65-2.364a17.8,17.8,0,0,0,.59-2.365,15.352,15.352,0,0,1,.65-2.364c.239-.849.355-1.7.59-2.365.259-.909.373-1.576.59-2.364a12.48,12.48,0,0,0,.589-2.365,9.24,9.24,0,0,0-.008-1.7,3.755,3.755,0,0,0-.5-1.333c-.135-.3-.635-.606-.874-.789s.081-1.091.473-1.515c.806-.91,1.526-.546,2.489-.182a11.655,11.655,0,0,0,2.33.788c.667,0,.9.546,1.278.849a2.452,2.452,0,0,0,1.3.606,9.986,9.986,0,0,0,1.231.121C72.413,99.349,72.923,99.107,73.993,99.168Zm-3.681,3.395c-1.423.424-2.117.849-2.306,1.213a10.875,10.875,0,0,0-.829,2.182,12.555,12.555,0,0,1-.52,1.819,13.687,13.687,0,0,0-.476,1.7,9.614,9.614,0,0,0-.455,1.637c-.1.971-.708,2.183-.953,3.4-.071.546-.363,1.03-.562,1.94-.373,1.576.127,2.91,1.133,3.153.549-.182,1.031,0,1.558-.121a7.943,7.943,0,0,1,2.065-.182c.606,0,1.194-.121,1.922-.121a6.153,6.153,0,0,1,1.862-.121c.343.06,1.194-.121,1.8-.121a5.293,5.293,0,0,0,1.822-.182c.346-.121,1.088.182,1.983-.121.974-.182,2.653-.3,3.227-.728a4.176,4.176,0,0,0,1.343-1.576c.253-.546.855-1.394,1.336-2.243.334-.606.9-1.7,1.193-2.183a12.417,12.417,0,0,1,1.153-2.244c.435-.546.569-1.273,1.111-2.122a9.031,9.031,0,0,0,1.132-2.182c.256-.728.794-1.395,1.114-2.3.129-.364.175-.667-.383-1.152a2.06,2.06,0,0,0-1.278-.849,12.685,12.685,0,0,0-3.395,0,25.34,25.34,0,0,1-2.792.181c-1.152,0-2.126.182-2.731.182l-2.875.242c-1.134.122-1.961.061-2.814.243C72.969,102.078,71.471,102.2,70.312,102.563ZM56.442,19.675c-.831.121-1.779.06-2.286.121-1.4.182-1.733-.242-2.265.061a3.49,3.49,0,0,1-1.74.121c-.624-.121-1.22.363-1.762.181-.763-.242-1.155.182-1.883.182a12.435,12.435,0,0,0-2.126.182c-.77.121-1.012.121-1.39.849-.25.363.168.728.151,1.637-.02,1.092-1.645,2.607-1.752,2.91-.192.546-.876,1.455-1,1.819-.317.728-.748,1.092-.861,1.758a3.56,3.56,0,0,1-.88,1.637,7.48,7.48,0,0,0-.776,1.515,27.382,27.382,0,0,1-1.346,2.789c-.733,1.394-.7,2.667-.111,2.728a14.33,14.33,0,0,0,1.677.06,11.856,11.856,0,0,0,2.143-.06c.934-.243,1.473.121,1.962-.061a5.744,5.744,0,0,1,1.84-.061,15.265,15.265,0,0,1,2.2-.06,2.224,2.224,0,0,0,1.658-.061,6.25,6.25,0,0,1,1.762-.181c.667,0,1-.424,1.768-.546a17.206,17.206,0,0,1,2.464.061c.867.121,1.242.606,2.087.788.724.182,1.017.728,1.35,1.334a1.408,1.408,0,0,1,.258,1.334,2.114,2.114,0,0,1-2.11,1.515c-1.07-.06-1.473-.121-1.837-.121a16.972,16.972,0,0,1-3.167-.3,14.944,14.944,0,0,0-2.786-.182,10.443,10.443,0,0,1-2.443-.121c-.945-.242-1.559.121-2.222-.06a6.158,6.158,0,0,0-2.122,0,9.184,9.184,0,0,1-3.153,0c-.827-.061-1.84.06-3.174.06l-2.143.061a5.264,5.264,0,0,0-2.1.121c-1.077.3-1.352-.121-2.186.182a4.1,4.1,0,0,1-2.186.182,7.3,7.3,0,0,0-2.126.181,7.165,7.165,0,0,0-2.229.3,14.208,14.208,0,0,1-2.146.242,13.727,13.727,0,0,1-2.229.3,25.559,25.559,0,0,0-2.635.424,16.416,16.416,0,0,0-2.638.606c-.528.121-1.226.728-1.747.485A6.583,6.583,0,0,1,8.4,43.5c-.635-.606-.7-1.273-1.078-1.758a2.383,2.383,0,0,1-.779-1.576c.05-.485-.282-1.092.58-1.819a1.485,1.485,0,0,1,1.565-.485,1.694,1.694,0,0,1,1.181.606c.418.364.635.606,1.093,1.031a1.6,1.6,0,0,0,1.284.485,17.744,17.744,0,0,1,2.913-.182,23.463,23.463,0,0,0,2.693-.242,3.829,3.829,0,0,0,1.619-.121c.713-.3.952-.121,1.761-.182a8.053,8.053,0,0,1,1.741-.121c.667,0,2.086-.242,2.874-.242a11.644,11.644,0,0,0,2.732-.182c1.255-.121,1.926-.3,2.317-.728a8.033,8.033,0,0,0,1.055-1.273c.271-.424.652-1.334.986-1.941.481-.849,1.036-2.425,1.438-3.395.488-1.212.993-2.3,1.356-3.335.384-1.091.665-2.061,1.234-3.334a4.641,4.641,0,0,0,.162-2.183,1.969,1.969,0,0,0-1.577-1.031,8.972,8.972,0,0,0-1.983.121,9.557,9.557,0,0,0-1.983.121,13.365,13.365,0,0,0-2,.182c-.507.061-1.277.182-2.026.242a4.934,4.934,0,0,1-2.276-.424,9.347,9.347,0,0,1-1.27-1.212,6.623,6.623,0,0,1-1.064-1.455,1.576,1.576,0,0,1,.312-1.576c.659-.667.9-.667,1.365-.606a1.814,1.814,0,0,1,1.246.424,3.173,3.173,0,0,0,1.256.91,2.428,2.428,0,0,0,1.388.363,3.4,3.4,0,0,1,1.9-.06,10.24,10.24,0,0,0,1.962-.061,8.727,8.727,0,0,0,2.043-.121,9.711,9.711,0,0,1,2-.182,8.216,8.216,0,0,1,2-.181c.667,0,1.216-.182,2.026-.243.567-.06,1.5-.121,2.086-.242a10.723,10.723,0,0,0,2.025-.242,7.552,7.552,0,0,1,3.181-.424,9.283,9.283,0,0,0,3.166-.728c.873-.243,1.964-1.273,2.667-1.031.321.121,1.213,0,1.773.3.3.182,1.185.424,1.545.606.3.181.592.728,1.217.849s.383,1.152.194,1.515A2.107,2.107,0,0,1,56.442,19.675Zm-39.063,72.7c-.321-.121-1.943.182-1.826-.667.163-1.152,1.115-1.273,1.949-1.576s1.622-.3,1.779-.061a12.435,12.435,0,0,0,1.57.364,6.359,6.359,0,0,1,1.581.849,4.53,4.53,0,0,1,1.128,1.273,2.258,2.258,0,0,1,.155,1.455c-.11.485-.681.728-1.2,1.515-.4.606-.6,1.031-1.043,1.758a5.367,5.367,0,0,0-.64,1.819,12.256,12.256,0,0,0-.7,1.819,6.937,6.937,0,0,1-.982,2.789,7.666,7.666,0,0,1-.619,1.758c-.285,1.152-1,2.485-1.217,3.456-.306,1.212-.815,2.485-1.177,3.516a12.28,12.28,0,0,1-1.189,3.032,3.09,3.09,0,0,1-2.334,1.637,1.866,1.866,0,0,1-1.245-.424c-.2-.121-.436-.485-.482-1.212a7.306,7.306,0,0,1,.522-3.032,14.6,14.6,0,0,0,1.3-2.486,7.269,7.269,0,0,1,.573-1.455,19.03,19.03,0,0,0,.854-2.425c.277-.788.527-1.152.786-2.061.327-1.273.975-2.425,1.217-3.456a14.575,14.575,0,0,0,.747-2.122c.135-.728.551-1.394.768-2.183.387-1.273.818-2.667.543-3.092A1.613,1.613,0,0,0,17.379,92.377ZM8.222,130.27c.364,0,.777-.485,1.244-.606a4.5,4.5,0,0,0,1.408-.728c.41-.3,1-.424,1.49-.789.328-.242.98-.546,1.39-.849.574-.424.823-.788,1.269-.849.385-.06.684-.91,1.311-.97.507-.061.656-.485,1.312-.97a4.264,4.264,0,0,0,1.173-1.092,4.987,4.987,0,0,1,1.172-1.091,5.563,5.563,0,0,0,1.133-1.152c.517-.606.866-.91,1.093-1.213.271-.424,1.012-1.152,1.553-2a11.69,11.69,0,0,0,1.311-2,15.7,15.7,0,0,1,1.231-2.122,8.865,8.865,0,0,1,1.051-2.122,16.127,16.127,0,0,0,.928-2.122c.235-.667.531-1.334.829-2.183a16.936,16.936,0,0,0,.829-2.183,9.755,9.755,0,0,1,.748-2.122c.381-.909.725-2.061,1-2.849a19.307,19.307,0,0,1,.961-2.728,11.564,11.564,0,0,1,.661-1.88,12.9,12.9,0,0,0,.918-2.607,6.215,6.215,0,0,0,.547-2.243c.1-.788-.04-1.091-.258-1.334a5.792,5.792,0,0,0-1.1-.667c-.321-.121-1.965.242-1.784-.788.178-.849.909-1.031,1.967-1.455a3.817,3.817,0,0,1,2.247-.182c.543.182,1.98.061,2.376.485l1.9,1.152a2.685,2.685,0,0,1,.915,1.88,1.762,1.762,0,0,1-1.243,1.637,5.973,5.973,0,0,0-1.478,2.3c-.378.728-.433,1.576-.854,2.425a12.22,12.22,0,0,0-.683,1.94c-.067.364-.427,1.213-.683,1.941l-.683,1.94a6.181,6.181,0,0,1-.683,1.941c-.32.909-.53,1.334-.743,1.94-.32.91-.57,1.273-.744,1.941-.132.546-.548,1.212-.8,1.94a13.733,13.733,0,0,1-.887,2c-.438.728-.907,2.062-1.324,2.728-.524.97-.986,1.941-1.361,2.486a22.705,22.705,0,0,1-1.477,2.3,17.512,17.512,0,0,1-1.678,2.182,11.931,11.931,0,0,0-1.856,2,6.269,6.269,0,0,1-2.138,1.941c-.285.121-.413.485-1.169.91-.531.3-.577.606-1.29.909a2.556,2.556,0,0,0-1.351.91,2.263,2.263,0,0,1-1.411.909c-.852.182-1.062.606-1.879,1.031a6.863,6.863,0,0,1-2.146,1.273,3.3,3.3,0,0,0-1.651.728c-.552.364-1.526.546-2.057.849-.673.364-1.443.485-1.975.789a10.431,10.431,0,0,1-2.079.91c-.631.242-1.055.242-1.95.546a3.855,3.855,0,0,1-1.64.181C.267,135.3.013,134.817,0,134.332a1.8,1.8,0,0,1,1-1.455c.653-.3.974-.181,1.362-.424a4.82,4.82,0,0,1,1.647-.546c1.055-.242,2.118-.849,2.91-1.031C7.384,130.755,7.616,130.27,8.222,130.27Zm200.5-41.894c.442.121,1.231.121,1.612.242.5.122,1.139.728,1.581.849.763.243,1.388.364,1.563.728.236.364,1.063.424,1.156.849a2.316,2.316,0,0,0,.789,1.031c.318.3.065.849.319,1.334.236.363-.184,1.212-.252,1.576a4.57,4.57,0,0,1-1.019,1.515,2.863,2.863,0,0,1-1.65.728c-.689.061-1.22-.667-1.535-1.152-.372-.667-.073-1.515-.569-2-.2-.3-.022-.97-.718-1.576-.5-.485-.643-1.273-1.124-1.455-.464-.06-.857-.667-1.378-.909-.421-.182-.435-.485-.183-1.031A1.356,1.356,0,0,1,208.723,88.376Zm5.689-3.759c.4-.606.905-.849,2.742-.728.828.061,1.2.728,2.048.728.363,0,1.1.667,1.541.789.6.182.678.485,1.259.728a1.616,1.616,0,0,1,.85,1.031,7.381,7.381,0,0,1,.421,1.212c.154.424-.2,1.091-.23,1.516a2.064,2.064,0,0,1-1.018,1.515,4.635,4.635,0,0,1-1.611.788c-.971,0-.9-.546-1.417-.97a1.945,1.945,0,0,1-.554-1.7c-.051-.546-.532-.728-.661-1.394-.114-.364-.693-.789-.946-1.273-.172-.546-1-.789-1.677-1.092C214.677,85.587,214.06,85.1,214.412,84.617ZM391.523,96.682a2.618,2.618,0,0,1-1.651.728c-.831.121-1.1-.849-1.474-1.152-.518-.424-.319-1.334-.569-2-.129-.667-.735-.667-.54-1.394.092-.606-.368-.849-.764-1.273a10.091,10.091,0,0,0-1.535-1.152c-.679-.485-.757-.606-.543-1.213.32-.909,1.747-.485,2.856-.363.828.06.917.667,1.766.667.424,0,1.1.667,1.541.789.6.181.657.546,1.156.849a1.375,1.375,0,0,1,.768,1.091c.15.606.187.849.319,1.334a4.489,4.489,0,0,1-.291,1.515A4.231,4.231,0,0,1,391.523,96.682Zm0-11.883c.314-.546,1.633-.849,2.838-.485.867.122,1.534.122,1.869.546.275.424,1.249.242,1.585.667a1.6,1.6,0,0,0,1.238.788c.785.182.653.728.931.971.539.363.29.728.34,1.273.19.667-.135.728-.21,1.455-.068.363-.727,1.03-.98,1.576-.106.3-1.326.667-1.671.788-.934.242-.963-.363-1.356-.97a4.97,4.97,0,0,1-.615-1.7c-.054-.364-.468-.91-.6-1.394a2.4,2.4,0,0,0-.946-1.274,17.78,17.78,0,0,0-1.656-1.152C391.531,85.466,391.231,85.284,391.523,84.8Zm54.319,19.037a3.587,3.587,0,0,1,1.695.182c.482.182,1.1.485,1.683.728a3.746,3.746,0,0,1,1.46.849c.158.242,1.045.3,1.156.849.093.424.372.667.768,1.091a1.514,1.514,0,0,1,.34,1.273c-.171.485-.145,1.273-.312,1.576a4.026,4.026,0,0,1-1.04,1.576,3.854,3.854,0,0,1-1.651.728c-1.092,0-.978-.667-1.453-1.212s-.357-1.4-.59-1.941c-.154-.424-.1-1.273-.779-1.576a3.032,3.032,0,0,1-1.107-1.333c-.375-.485-.554-.667-1-.789-.6-.182-1.038-.667-.5-1.334A2.162,2.162,0,0,1,445.842,103.836Zm5.771-3.819c.17-.485.69-1.273,2.584-.97a14.132,14.132,0,0,1,2.33.788,14.36,14.36,0,0,1,1.6.789,2.332,2.332,0,0,1,.992.97c.158.242.736.667.932.97a6.84,6.84,0,0,0,.361,1.213,2.272,2.272,0,0,1-.23,1.515,5.559,5.559,0,0,1-.98,1.576,2.616,2.616,0,0,1-1.671.788,1.327,1.327,0,0,1-1.356-.97,12.977,12.977,0,0,0-.554-1.7c-.175-.363-.346-.91-.639-1.455a7.532,7.532,0,0,0-.947-1.273,11.3,11.3,0,0,1-1.677-1.091C451.945,100.623,451.357,100.744,451.613,100.017Zm30.512,17.643c-.966.849-1.839,1.091-2.538,1.7-.617.546-1.576,1.03-2.317,1.758-.6.485-.82.606-1.312.971a7.967,7.967,0,0,0-1.311.97c-.638.606-.7.424-1.291.909l-1.29.91a9.718,9.718,0,0,1-1.636,1.031c-.813.242-1.614.97-1.939,1.031a4.7,4.7,0,0,1-2.671.181c-.4-.242.138-.909.284-1.151a3.528,3.528,0,0,1,1.379-1.334,18.708,18.708,0,0,0,1.743-1.334,2.936,2.936,0,0,1,1.515-1.031c.528-.121.495-.546,1.372-.97a4.328,4.328,0,0,0,1.351-.91c.577-.606.777-.485,1.333-1.03a3.555,3.555,0,0,1,1.312-.971,2.055,2.055,0,0,0,1.212-1.03c.21-.424.777-.485,1.211-1.031.456-.606.7-.606,1.194-1.152.556-.546.545-1.031,1.055-1.273.285-.121.784-.849,1.133-1.152.535-.485.481-.849,1.155-1.213a2.973,2.973,0,0,0,1.094-1.212c.335-.606.627-1.092,1.115-1.273.631-.243,1.109.121,1.359.788.1.242,1.341.667,1.9,1.152.8.667,1.414,1.152,1.1,1.88-.424,1.031-1.978.97-2.545,1.031-.892.121-1.579,1.212-2.5,1.94-.245.182-.922.728-1.229.91A10.7,10.7,0,0,0,482.125,117.66ZM463.5,135.787a11.565,11.565,0,0,1,2.132-.546c.528-.121,1.583-.364,2.029-.424a22.158,22.158,0,0,1,3.142-.485,30.037,30.037,0,0,0,3.063-.606,18.244,18.244,0,0,1,3.145-.667c.485,0,1.04-.546,1.583-.363a6.366,6.366,0,0,0,1.6-.425c.916-.363,1.99-.485,3.109-.909a7.359,7.359,0,0,0,1.565-.485,6.611,6.611,0,0,1,1.587-.546,12.785,12.785,0,0,0,1.772-.728,3.716,3.716,0,0,0,1.711-.728c.371-.363,1.12-.424,1.732-.788a13.912,13.912,0,0,0,1.733-.789c.8-.546,1.223-.546,1.715-.909a5.471,5.471,0,0,1,1.715-.91,3,3,0,0,0,1.654-.91,15.409,15.409,0,0,1,1.7-1.031c.553-.363,1.287-.727,2.107-1.333a17.906,17.906,0,0,1,2.088-1.455c.492-.364,1.169-.91,2.11-1.515.47-.3,1.079-1.516,2.11-1.516.484,0,.578.424.939.606a4.076,4.076,0,0,1,1.153,1.031c.218.242.792.849.949,1.091.275.424.369.849.141,1.152a3.324,3.324,0,0,1-2.87,1.091c-.627.061-.98.546-1.757,1.031a7.335,7.335,0,0,1-1.818,1.031,9.707,9.707,0,0,0-1.7,1.031c-.264.06-1.105.728-1.736.97a5.417,5.417,0,0,0-1.736.97,7.93,7.93,0,0,1-1.715.91,6.369,6.369,0,0,1-1.693.849,13.352,13.352,0,0,1-1.793.788c-.852.182-1.347.728-2.018.91-.934.242-1.3.606-2.117.849a9.611,9.611,0,0,0-2.075.728c-.855.364-1.18.424-2.075.728-.916.363-1.669.606-2.075.728a5.619,5.619,0,0,1-2.093.606c-.77.121-1.244.606-2.093.606-.749.061-1.2.485-2.093.606-.385.061-1.6.424-2.232.485-.991.06-1.362.424-2.151.424a7.981,7.981,0,0,0-2.15.424c-.955.3-1.294.06-2.15.424a12.027,12.027,0,0,1-2.756.424c-1.095.182-2.268.242-2.9.3a8.012,8.012,0,0,1-2.239-.182c-.849,0-.939-.606-.832-.91C461.068,137,461.863,136.636,463.5,135.787Zm46.585-22.8c-.517-.424-1.32-.728-1.8-1.091-.378-.3-1.238-.789-.849-1.031a4.322,4.322,0,0,1,1.241-.424c.488-.182,1.184.424,1.933.363a8.15,8.15,0,0,1,2.148.789,11.177,11.177,0,0,0,1.784.788,9.146,9.146,0,0,1,1.359.789,2.39,2.39,0,0,1,1.317.91c.253.485.778.546,1.153,1.03.218.243.55.849,1.071,1.092.321.121.6.363.789,1.031.172.546.3,1.03.725,1.212.46.242.368.849.276,1.455a7.2,7.2,0,0,0-.191,1.576c.011.485-.794,1.394-1.182,1.637a4.438,4.438,0,0,1-1.793.789,2.147,2.147,0,0,1-1.92-1.091,5.867,5.867,0,0,1-.812-2c-.068-.667-.589-.91-.557-1.516-.068-.667-.689-.97-.7-1.455-.051-.546-.49-.849-.864-1.333-.2-.3-.71-.91-.946-1.274a3.022,3.022,0,0,0-1.049-1.151A5.08,5.08,0,0,1,510.08,112.991Z" transform="translate(-0.002 -0.937)" fill="#fff" fill-rule="evenodd"/>
</svg>
