<svg xmlns="http://www.w3.org/2000/svg" width="618.196" height="88.917" viewBox="0 0 618.196 88.917">
  <path id="パス_43736" data-name="パス 43736" d="M617.8,13.046a15.706,15.706,0,0,1,.02,5.114c-.234,1.7,1.495,3.652-.021,5.235a6.565,6.565,0,0,1-4.361,1.46c-2.245-.121-.828-2.8-1.763-4.261-.587-.73-1.274-2.557-1.819-3.409-.574-1.46-2.019-1.46-2.032-2.8-.1-1.1-1.133-1.582-2.2-2.313l-2.776-1.7a15.649,15.649,0,0,0-3.5-1.339,8.824,8.824,0,0,0-4.2-.731c-1.126.122-3.364-.365-4.97-.243-2.089.122-3.406-.243-4.617.122s-2.45.121-3.788.852a9.107,9.107,0,0,0-2.853,2.313,23.182,23.182,0,0,0-2.089,4.262c-1.247,2.191-1.247,4.262-2.252,6.453a20.238,20.238,0,0,0-2.294,6.574c-.695,2.678-1.657,4.748-2.38,6.818a9.5,9.5,0,0,0-.836,3.774c-.354,1.7-.481,2.07.482,2.07,1.444,0,3.582-.609,5.338-.122,1,.244,2.938-.487,4.142-.487.963,0,2.3-.73,3.384-.73a4.069,4.069,0,0,0,2.754-1.339c1.594-1.461,3.413-2.191,4.653-4.018a12.732,12.732,0,0,0,2.308-3.165c.425-1.218.433-3.653,2.528-4.139,1.169-.243,2.868-.975,3.973,0,1.182,1.1-.977,2.8-1.367,4.261-.2,1.948-1.494,2.557-1.367,4.262.063.852-1.189,3.408-1.445,4.139l-1.4,4.017c-.4,1.827-1.431,3.409-1.487,4.262a11.28,11.28,0,0,1-1.445,4.139,21.2,21.2,0,0,0-1.607,4.261,14.976,14.976,0,0,1-1.607,4.262c-.864,1.1-3.831.974-4.014.122a6.724,6.724,0,0,1,.566-4.384c.552-1.582.164-2.191-.014-3.408l-.594-2.435a2.035,2.035,0,0,0-1.091-1.7,11.314,11.314,0,0,1-2.059-1.339,7.69,7.69,0,0,0-2.755-.731,27.079,27.079,0,0,1-3.724-.365,9.365,9.365,0,0,0-4.652-.122,3.881,3.881,0,0,0-2.648,2.07c-.34.974-1.409,2.313-2.047,4.139-.552,1.582-.927,2.313-1.275,3.652a21.928,21.928,0,0,1-1.274,3.653c-.559,1.948-1.572,4.505-2.465,7.062-.849,2.435-1.982,4.991-2.422,6.939s-1.154,3.653-1.168,4.384a4.09,4.09,0,0,0,.715,2.435c.389.609.991.609,2.548.974a14.914,14.914,0,0,0,4.369.243c2.414-.365,4.014-.121,5.784-.365a22.579,22.579,0,0,0,5.232-.852A38.483,38.483,0,0,0,579,79.4c1.82-.73,2.832-1.218,4.694-2.069a44,44,0,0,1,4.5-2.557c1.3-.609,2.485-1.948,4.595-3.166,1.3-.609,1.431-1.339,2.322-1.826s.708-1.339,2.486-1.948a5.617,5.617,0,0,0,2.57-2.191,5.146,5.146,0,0,1,2.691-2.191c1.536-.609,2.882.365,2.818,1.582a3.592,3.592,0,0,1-1.82,2.8c-1.133.487-1.529,2.314-2.06,2.8-1.345,1.1-1.4,1.948-1.94,2.8a19.5,19.5,0,0,1-1.94,2.8A27.383,27.383,0,0,1,594,81.59c-1.027,1.218-1,1.826-1.94,2.8-.9.852-1.367,2.191-2.017,2.678s-2.847-.121-3.852,0a13.8,13.8,0,0,1-3.774.122c-.8-.122-2.45.121-3.732,0a18.082,18.082,0,0,0-3.731,0,10.079,10.079,0,0,1-3.852,0c-1.642-.122-2.57.121-3.731,0-1.445,0-3.215.243-3.852,0-1.076-.366-2.287,0-3.731,0-1.487.121-2.167,0-3.732,0h-3.852a34.963,34.963,0,0,1-3.61,0,9.692,9.692,0,0,0-3.689-.122c-1.692.366-2.322-.243-3.817.243a12.849,12.849,0,0,1-3.979.366H533.26a9.9,9.9,0,0,1-3.717-.73c-1.912-.731-2.06-1.339-1.841-2.314.3-.852,1.473-1.461,3.5-2.435a18.013,18.013,0,0,1,3.908-.852,12.125,12.125,0,0,1,2.818-.487,5.368,5.368,0,0,0,3.717-1.339l2.223-2.923c.828-1.339.9-2.922,1.65-4.383.835-1.7,1.367-4.262,2.379-6.818a50.968,50.968,0,0,0,2.38-6.819c.772-2.556,1.09-4.5,2.379-6.818,1.168-2.314,1.445-4.139,2.38-6.818.679-1.948,2.011-4.383,2.379-6.819.474-1.7,1.523-4.017,2.38-6.818.722-2.069,1.047-4.383,2.379-6.818,1.161-1.948,1.246-4.262,2.337-6.7a16.7,16.7,0,0,0,1.451-4.505l-.021-3.044c.057-.852-.891-1.582-1.89-1.826-1.523-.122-2.768,0-4.694,0-2.528,0-3.668-1.218-3.363-2.435.474-1.7,1.409-2.314,2.988-3.044,1.3-.609,2.45-.122,3.774-.122,1.848-.121,2.4.366,3.731,0a19.089,19.089,0,0,1,3.732,0h3.731a69.116,69.116,0,0,1,7.1,0c1.564,0,2.279.366,3.611,0a19.105,19.105,0,0,1,3.731,0,34.891,34.891,0,0,0,3.611,0,11.839,11.839,0,0,0,3.611,0c1.77-.243,1.755.487,3.731,0a34.9,34.9,0,0,1,3.611,0c1.083,0,1.911.731,3.731,0a4.158,4.158,0,0,1,3.611,0c.715.366,3.052-.121,3.731,0,1.48.243,2.457-.487,3.569.122,1.387.852.126,3.774.183,4.992C617.831,9.515,617.392,11.463,617.8,13.046Zm-92.349,9.984a6.71,6.71,0,0,1-4.369,1.826c-1.685,0-.644-1.947-1.415-3.53a23.683,23.683,0,0,1-1.579-3.408c-.573-1.461-2.018-1.461-1.946-3.044-.057-1.218-1.048-1.827-2.075-2.679s-1.727-1.948-2.52-2.435l-3.215-1.826a6.823,6.823,0,0,0-3.59-1.1c-.843,0-2.719-.488-4.043-.488a7.133,7.133,0,0,0-3.455.244c-1.82.73-1.926,0-3.306.851a6.628,6.628,0,0,1-3.236,1.34c-1.246.121-1.742.852-3.122,1.7a10.359,10.359,0,0,0-2.931,2.192c-.864,1.1-2.273,1.339-2.775,2.435-.418.852-.829,1.339-2.5,2.678a18.163,18.163,0,0,0-2.507,3.044c-.786,1.218-1.8,1.7-2.266,3.044-.6,1.7-1.693,2.435-2.231,3.287a10.888,10.888,0,0,0-1.87,3.287c-.383,1.1-1.494,2.557-1.791,3.409-.34.974-.2,1.948-1.629,3.287-.736.73-1.176,2.678-1.508,3.287-1.494,2.557-2.125,4.018-2.28,5.844-.4,2.191-1.607,4.261-1.926,6.209s-1.3,4.748-1.451,6.575a5.576,5.576,0,0,1-.5,3.165c-.538.852-.283,2.191-.262,3.166a6.5,6.5,0,0,0,.021,3.044,18.981,18.981,0,0,1,.184,2.922c-.1.975.765,1.948.551,2.557-.3,1.217.489,1.7.793,2.557.262.974.935,1.46,1.282,2.191.191.487,1.069.73,1.529,1.826.269.609,1.671.73,1.975,1.582.227.731,1.345.974,2.506,1.1a9.292,9.292,0,0,1,2.875.731,8.461,8.461,0,0,0,3.527.243c1.529-.243,2.329-.122,3.455-.243s2.62-.609,3.263-.731c1.451-.365,2.415-.365,3.271-1.1,1.261-.852,2.068-1.1,3.123-1.7.729-.365,1.876-1.582,2.888-2.069s1.43-1.339,2.457-2.557,1.2-2.069,1.983-2.922a10.736,10.736,0,0,0,1.55-3.409l1.657-4.748c.5-1.1.857-2.8,1.41-4.383s.687-2.313.021-3.165c-.468-.731-1.048-1.827-2.054-1.7-1.2,0-2.91-.975-4.361-.609-1.493.487-2.046,0-3.165-.243-1.317-.366-1.9-1.461-1.437-2.435a3.654,3.654,0,0,1,3.221-2.679c4.751-.851,7.6-.73,8.39-.243.956.366,3.087.122,3.965.366a13.738,13.738,0,0,0,4.051.122c1.528-.244,2.124.121,3.851,0s2.528,0,3.973,0,2.364.121,4.049.121c1.324,0,3.42-.487,4.17.122,1.226.974-1.274,3.652-1.614,4.626-.637,1.826-4.709.73-5.955.852a9.17,9.17,0,0,0-3.767,1.826,5.393,5.393,0,0,0-2.266,3.044,31.949,31.949,0,0,1-1.649,4.383c-.588,1.339-1.148,3.287-1.7,4.871l-1.7,4.87c-.8,1.948-1.2,3.774-1.743,4.992-.63,1.461-.885,4.262-1.82,4.87-1.261.852-2.364-.121-3.852,0-1.246.122-2.726-.121-3.979.366-1.656.609-2.9.366-4.6,1.1a11.344,11.344,0,0,1-4.6,1.461,11.279,11.279,0,0,0-3.306.852c-1.615.487-2.181.73-3.222.609a38.14,38.14,0,0,0-6.429.487c-1.006.121-2.442-.243-4.008-.243-1.324,0-3.207-.122-3.759-.609l-3.306-1.218c-1.062-1.1-2.238-.487-2.981-1.46a6.9,6.9,0,0,0-2.613-1.827c-.878-.243-1.494-1.582-2.244-2.191a9.517,9.517,0,0,1-1.876-2.557c-.581-1.1-1.2-2.069-1.55-2.8a7.086,7.086,0,0,1-1.1-3.044,11.4,11.4,0,0,0-.821-3.165c-.425-.852-.078-2.191-.332-3.531a5.966,5.966,0,0,1-.17-3.653,15.772,15.772,0,0,0,.312-3.653c.355-1.7.092-2.678.517-3.9a9.753,9.753,0,0,0,.921-4.017,16.452,16.452,0,0,1,1.282-4.018c.75-1.46.9-2.922,1.607-4.261a30.222,30.222,0,0,0,1.969-4.262c.68-1.948,1.53-2.313,2.329-4.261a9.721,9.721,0,0,1,2.649-4.139c1.345-1.1,1.571-2.436,2.846-4.018,1.437-1.7,2.166-2.069,3.165-3.9.46-.974,2.372-2.313,3.6-3.774,1.43-1.339,2.046-2.07,3.759-3.53,1.226-1.1,1.672-1.339,3.385-2.8a33.132,33.132,0,0,1,3.7-2.678c.771-.488,1.947-1.1,3.653-2.192a14.82,14.82,0,0,1,3.973-2.069,21.054,21.054,0,0,0,3.923-1.582c1.862-.852,2.981-.609,4.036-1.218a5.788,5.788,0,0,1,3.865-.73c.921.121,2.656-.366,3.979-.366a25.724,25.724,0,0,1,4.086.366,11.122,11.122,0,0,1,3.752.974c1.713.609,2.8.609,3.15.975.552.487,1,.243,2.442.243a25.379,25.379,0,0,0,4.426-.609c2.06-.73,3.81-1.948,4.645-1.582,1.869.852.091,3.53.177,5.356l.141,5.114c-.021,1.1.531,1.582-.05,2.557a4.638,4.638,0,0,0,.028,2.678C525.653,19.012,526.969,21.447,525.454,23.029ZM418.728,86.948a6.212,6.212,0,0,1-3.973,0c-1.515-.488-2.648,0-3.731,0a17.9,17.9,0,0,0-3.611,0,21.568,21.568,0,0,1-3.972,0c-.963,0-3.137.365-3.852,0-1.43-.731-2.649,0-3.973,0-1.083,0-3.746.73-3.93-.122a5.379,5.379,0,0,1,1.657-4.748c.857-.73,3.052-.121,4.178-.243a13.369,13.369,0,0,0,3.222-.609c2.025-.974,3.243-1.7,3.59-3.044a6.944,6.944,0,0,0,.623-3.165,9.8,9.8,0,0,1,.219-3.044,17.341,17.341,0,0,0,.206-4.383c-.092-1.461.546-3.287.248-4.505a4.447,4.447,0,0,0-1.621-3.287,14.924,14.924,0,0,0-3.215-1.826c-1.438-.366-3.739.365-4.574,0s-3.25,0-4.575,0c-1.762-.122-3.37,0-4.574,0H382.5A8.751,8.751,0,0,0,378.01,59.8c-1.423.974-3.5,2.435-4.036,3.287-.871,1.461-1.947,3.166-2.9,4.505a22.629,22.629,0,0,0-2.854,4.383c-.339.974-1.161,1.948-1.876,3.653a5.976,5.976,0,0,0-.546,3.287c.015,1.339.453,1.46,1.53,1.826a4.132,4.132,0,0,0,2.79.974c.962,0,2.732-.243,3.6.365,1.345.974-.758,3.9-1.657,4.748-1.755,1.582-4.5.122-6.422.122H353.128c-1.926,0-5.686,1.46-6.337-.122-.347-.73.312-3.653,1.657-4.748,2.039-1.7,3.951-.974,4.836-1.1,1.65-.243,2.435-1.46,3.49-2.069s1.31-1.339,2.543-2.8c.616-.73,1.572-2.435,2.846-4.018a16.85,16.85,0,0,0,2.931-4.261c.559-1.948,1.7-2.8,2.811-4.262.5-.73,2.393-3.408,2.931-4.261,1.034-1.583,1.9-3.044,2.974-4.383a26.735,26.735,0,0,0,2.811-4.262c1.04-1.948,2.173-2.435,2.931-4.262.587-1.339,1.77-2.313,2.853-4.383a30.058,30.058,0,0,1,2.932-4.261c1.2-1.7,2.024-3.044,2.81-4.262.871-1.461,2.138-2.678,2.974-4.383,1.119-1.826,1.778-2.678,2.931-4.262.786-1.217,1.75-3.287,2.811-4.261,1.267-1.218,1.777-2.678,2.974-4.383a34.979,34.979,0,0,1,2.768-4.139c1.148-1.218,2.153-3.409,2.974-4.383,1.154-1.583,1.508-3.287,3.094-4.384,2.075-1.46,4.036-1.217,5.325-1.46,2.1-.487,4.574-2.07,5.325-1.461,1.027.852.134,3.409-.008,4.505-.078,1.948.015,3.408-.169,4.626a22.835,22.835,0,0,0-.086,4.383,9.008,9.008,0,0,1-.128,4.505,34.361,34.361,0,0,0-.128,4.5c-.2,1.947-.5,3.165-.206,4.383.34,1.1-.05,2.556-.128,4.5l-.128,4.505a10.071,10.071,0,0,0-.128,4.505c.134,1.339-.134,2.8-.128,4.5a22.5,22.5,0,0,0-.248,4.505c0,2.07.021,3.044-.085,4.383-.142,1.1-.581,3.044-.128,4.505.375,1.339-.1,3.044-.128,4.505.007,1.7.261,3.044-.206,4.383a7.042,7.042,0,0,0-.129,4.5c.29,1.583-.191,3.653-.254,4.871a3.907,3.907,0,0,0,.629,2.678c.269.609,1.586.975,2.216,1.582.552.488,3.548-.852,4.638.852.7,1.1-.581,3.044-1.657,4.748S420.384,86.339,418.728,86.948ZM406.574,16.576c-1.168.244-1.579.731-3.059,2.557a27.373,27.373,0,0,0-2.641,3.775,17.57,17.57,0,0,1-2.11,3.287,19.74,19.74,0,0,0-3.717,5.479c-.8,1.948-2.642,3.774-3.513,5.235-.828,1.339-2.606,4.017-3.512,5.235-.7.974-2.542,2.8-2.974,4.383-.34.974-.694,2.678-.071,3.653a4.748,4.748,0,0,0,3.335,1.826,20.124,20.124,0,0,0,5.417,0c1.606-.121,3.887.243,5.416,0a9.17,9.17,0,0,0,4.609-1.826,6.8,6.8,0,0,0,2.556-3.53,15.321,15.321,0,0,0,.248-4.505c-.332-1.461.064-3.287.262-5.235.277-1.827-.02-3.044.383-5.235a35.013,35.013,0,0,0,.227-5.479,12.96,12.96,0,0,1,.3-3.287,10.893,10.893,0,0,0,.113-3.775C407.885,17.307,407.9,16.212,406.574,16.576Zm-52.907,6.94c-.793,1.583-3.052,2.191-4.255,2.191-1.564,0-.6-2.069-1.3-3.531l-1.458-3.408c-.531-1.583-1.331-1.7-1.664-3.166a4.6,4.6,0,0,0-1.954-2.678c-1.231-.609-1.211-1.7-2.52-2.436a22.919,22.919,0,0,1-3.094-1.826A4.659,4.659,0,0,0,334,7.445c-1.445,0-2.754-.73-3.923-.487a49.244,49.244,0,0,1-5.919,1.1c-1.367.122-1.785.975-2.712,1.218a5.934,5.934,0,0,0-2.641,1.7c-.814.609-1.183.974-2.407,2.069-1.062.975-1.232,1.461-2.131,2.314-2,1.948-2.357,3.653-3.037,5.6-.552,1.582-1.445,2.069-.666,3.287.39.608-.163,2.191.106,2.8.5,1.339.361,2.069.715,2.435.906.852.609,1.7,1.4,2.191a17.7,17.7,0,0,1,1.933,1.7,6.392,6.392,0,0,0,2.259,1.46c1.076.366,1.345.975,2.626,1.1.8.122,1.869.852,2.832.852,1.325,0,2.584,1.218,4.029,1.218,1.564,0,2.152.73,3.59,1.1,1.515.487,2.6.487,3.668,1.217.672.488,2.343,1.218,3.136,1.7,1.189.731,2.783,1.339,2.8,2.314s1.309.73,1.409,1.826c.176,1.218.856,1.339,1.2,2.07.581,1.1.446,1.826.8,2.191.907.852.574,1.461.474,2.435-.078,1.948-.191,3.653-.141,5.235a13.906,13.906,0,0,1-1.31,5.479,52.876,52.876,0,0,1-2.224,4.992,17.663,17.663,0,0,1-2.981,4.748c-.984,1.1-2.627,3.044-3.774,4.262-1.516,1.582-3.016,2.435-4.369,3.9-1.147,1.217-3.575,2.313-4.673,3.044-2.152,1.339-3.562,1.582-5.063,2.435-1.543.974-3.391,1.1-5.247,1.582a25.767,25.767,0,0,1-5.1.487,37.759,37.759,0,0,0-4.765-.487c-1.445,0-2.825-1.218-4.22-1.7-1.714-.609-2.74-1.461-3.3-1.582-.878-.243-1.43-.73-2.6-.487a9.525,9.525,0,0,0-4.157,1.217c-2.478,1.582-3.583,2.679-5.268,2.679-.843,0,.071-1.583.015-2.8a25.912,25.912,0,0,0-.106-2.8,15.675,15.675,0,0,1-.106-2.8c-.02-.975.326-2.314.015-2.8-.509-.609-.2-2.191.015-2.8a4.4,4.4,0,0,0-.106-2.8,4.2,4.2,0,0,1,.057-2.922c.177-.852-.438-2.191.057-2.923.539-.851,2.7-2.556,4.248-1.826,1.353.609,1.239,2.314,1.572,3.774.3,1.218,1.359,2.314,1.819,3.409.695,1.461,1.643,2.191,2.1,3.287,1.133,1.582,1.77,1.827,2.513,2.8.7,1.1,1.657,1.461,3,2.435a11.913,11.913,0,0,0,3.413,1.948l3.908,1.218c1.593.609,2.52.365,4.205.365a15.236,15.236,0,0,0,3.335-.243c.927-.243,2.33-.121,3.229-.974a13.383,13.383,0,0,1,3.115-1.339,8.505,8.505,0,0,0,2.966-1.948c1.225-1.1,2.273-1.339,2.691-2.191.666-1.218,1.516-1.583,2.38-2.679a22.79,22.79,0,0,0,1.862-2.922c.665-1.218.927-2.314,1.388-3.287.963-2.07.743-3.166,1.1-5.235.347-1.339-.51-2.678-.687-3.9a4.471,4.471,0,0,0-1.946-3.044,24.139,24.139,0,0,0-3.165-2.314,11.108,11.108,0,0,0-3.817-1.826c-1.118-.243-2.988-1.1-4.184-1.461-1.515-.487-3.441-.487-4.227-1.339-.665-.852-2.712-.852-4.064-1.461a18.988,18.988,0,0,1-3.059-1.582c-.474-.366-2.308-.974-2.732-1.826-.382-.975-1.1-1.339-2.124-2.191a6.144,6.144,0,0,1-1.636-2.557c-.623-.974-1.211-1.7-1.027-2.923-.014-1.339-.8-2.191-.254-3.408.467-1.339-.121-2.07.312-3.653a22.581,22.581,0,0,1,1.125-4.262,19.712,19.712,0,0,1,2.053-4.5c1.113-1.461,1.707-3.166,2.811-4.262.821-.974,1.82-2.8,3.449-4.017a34.608,34.608,0,0,0,3.88-3.53,11.313,11.313,0,0,1,4.27-2.923,26.573,26.573,0,0,1,4.659-2.314,28.547,28.547,0,0,1,4.68-1.339c1.324,0,2.782-.73,4.666-.608,1.444,0,3.037.608,3.922.487,1.41-.243,2.309.974,3.229,1.1.8.121,1.508.852,2.988,1.1a13.9,13.9,0,0,0,3.122.366c1.565,0,3.306-.852,4.071-.975,1.487-.122,3.1-2.678,4.326-1.7.871.609-.552,1.582.028,2.679a3.843,3.843,0,0,1,.028,2.678c-.375.73.042,1.948.028,2.678a7.565,7.565,0,0,0,.028,2.678,6.453,6.453,0,0,1,.028,2.679c-.22.974.2,2.191-.015,2.8C353.257,19.864,354.623,21.811,353.667,23.516Zm-74.679,0c-.793,1.583-3.052,2.191-4.255,2.191-1.565,0-.6-2.069-1.3-3.531l-1.458-3.408c-.531-1.583-1.332-1.7-1.664-3.166a4.605,4.605,0,0,0-1.954-2.678c-1.232-.609-1.211-1.7-2.52-2.436a22.861,22.861,0,0,1-3.094-1.826,4.662,4.662,0,0,0-3.427-1.218c-1.445,0-2.754-.73-3.923-.487a49.243,49.243,0,0,1-5.919,1.1c-1.367.122-1.785.975-2.712,1.218a5.934,5.934,0,0,0-2.641,1.7c-.814.609-1.183.974-2.407,2.069-1.062.975-1.232,1.461-2.131,2.314-2,1.948-2.358,3.653-3.037,5.6-.552,1.582-1.445,2.069-.666,3.287.39.608-.163,2.191.106,2.8.5,1.339.361,2.069.715,2.435.906.852.609,1.7,1.4,2.191a17.785,17.785,0,0,1,1.933,1.7,6.383,6.383,0,0,0,2.259,1.46c1.075.366,1.345.975,2.626,1.1.8.122,1.869.852,2.832.852,1.324,0,2.584,1.218,4.029,1.218,1.564,0,2.152.73,3.59,1.1,1.515.487,2.6.487,3.668,1.217.672.488,2.343,1.218,3.136,1.7,1.189.731,2.783,1.339,2.8,2.314s1.31.73,1.41,1.826c.176,1.218.856,1.339,1.2,2.07.581,1.1.446,1.826.8,2.191.907.852.574,1.461.474,2.435-.078,1.948-.191,3.653-.141,5.235a13.906,13.906,0,0,1-1.31,5.479,52.864,52.864,0,0,1-2.224,4.992,17.685,17.685,0,0,1-2.981,4.748c-.984,1.1-2.627,3.044-3.774,4.262-1.516,1.582-3.017,2.435-4.369,3.9-1.147,1.217-3.575,2.313-4.673,3.044-2.153,1.339-3.562,1.582-5.063,2.435-1.543.974-3.391,1.1-5.247,1.582a25.768,25.768,0,0,1-5.1.487,37.775,37.775,0,0,0-4.766-.487c-1.444,0-2.825-1.218-4.219-1.7-1.714-.609-2.74-1.461-3.3-1.582-.878-.243-1.43-.73-2.6-.487a9.526,9.526,0,0,0-4.156,1.217c-2.478,1.582-3.583,2.679-5.268,2.679-.843,0,.071-1.583.015-2.8a25.917,25.917,0,0,0-.106-2.8,15.677,15.677,0,0,1-.106-2.8c-.021-.975.326-2.314.015-2.8-.51-.609-.2-2.191.015-2.8a4.4,4.4,0,0,0-.106-2.8,4.2,4.2,0,0,1,.057-2.922c.177-.852-.439-2.191.056-2.923.539-.851,2.7-2.556,4.248-1.826,1.352.609,1.239,2.314,1.572,3.774.3,1.218,1.359,2.314,1.819,3.409.695,1.461,1.642,2.191,2.1,3.287,1.133,1.582,1.77,1.827,2.513,2.8.7,1.1,1.657,1.461,3,2.435a11.932,11.932,0,0,0,3.413,1.948l3.908,1.218c1.593.609,2.52.365,4.205.365a15.238,15.238,0,0,0,3.335-.243c.927-.243,2.329-.121,3.229-.974a13.383,13.383,0,0,1,3.115-1.339,8.506,8.506,0,0,0,2.966-1.948c1.225-1.1,2.273-1.339,2.691-2.191.665-1.218,1.516-1.583,2.379-2.679a22.641,22.641,0,0,0,1.863-2.922c.665-1.218.927-2.314,1.388-3.287.962-2.07.743-3.166,1.1-5.235.347-1.339-.509-2.678-.687-3.9a4.474,4.474,0,0,0-1.946-3.044,24.145,24.145,0,0,0-3.165-2.314,11.116,11.116,0,0,0-3.817-1.826c-1.118-.243-2.988-1.1-4.184-1.461-1.515-.487-3.441-.487-4.227-1.339-.665-.852-2.712-.852-4.064-1.461a18.987,18.987,0,0,1-3.059-1.582c-.474-.366-2.308-.974-2.733-1.826-.383-.975-1.1-1.339-2.125-2.191a6.151,6.151,0,0,1-1.635-2.557c-.623-.974-1.211-1.7-1.027-2.923-.015-1.339-.8-2.191-.255-3.408.468-1.339-.12-2.07.312-3.653a22.685,22.685,0,0,1,1.126-4.262,19.712,19.712,0,0,1,2.054-4.5c1.112-1.461,1.707-3.166,2.811-4.262.821-.974,1.82-2.8,3.448-4.017a34.609,34.609,0,0,0,3.88-3.53,11.312,11.312,0,0,1,4.27-2.923,26.6,26.6,0,0,1,4.658-2.314,28.583,28.583,0,0,1,4.681-1.339c1.324,0,2.782-.73,4.666-.608,1.444,0,3.037.608,3.922.487,1.41-.243,2.309.974,3.228,1.1.8.121,1.508.852,2.988,1.1a13.91,13.91,0,0,0,3.123.366c1.565,0,3.306-.852,4.071-.975,1.486-.122,3.1-2.678,4.326-1.7.871.609-.552,1.582.028,2.679a3.844,3.844,0,0,1,.028,2.678c-.375.73.042,1.948.028,2.678a7.564,7.564,0,0,0,.028,2.678,6.454,6.454,0,0,1,.028,2.679c-.22.974.2,2.191-.015,2.8C278.578,19.864,279.944,21.811,278.988,23.516Zm-74.144-.121a6.565,6.565,0,0,1-4.361,1.46c-2.244-.121-.829-2.8-1.763-4.261-.587-.73-1.274-2.557-1.82-3.409-.573-1.46-2.017-1.46-2.032-2.8-.1-1.1-1.132-1.582-2.2-2.313l-2.775-1.7a15.654,15.654,0,0,0-3.505-1.339,8.819,8.819,0,0,0-4.2-.731c-1.125.122-3.363-.365-4.97-.243-2.089.122-3.406-.243-4.617.122s-2.45.121-3.788.852a9.1,9.1,0,0,0-2.853,2.313,23.188,23.188,0,0,0-2.09,4.262c-1.246,2.191-1.246,4.262-2.251,6.453a20.265,20.265,0,0,0-2.3,6.574c-.694,2.678-1.657,4.748-2.379,6.818a9.5,9.5,0,0,0-.836,3.774c-.354,1.7-.481,2.07.481,2.07,1.445,0,3.583-.609,5.338-.122,1,.244,2.939-.487,4.142-.487.963,0,2.3-.73,3.385-.73a4.071,4.071,0,0,0,2.754-1.339c1.593-1.461,3.412-2.191,4.652-4.018a12.736,12.736,0,0,0,2.309-3.165c.425-1.218.432-3.653,2.528-4.139,1.168-.243,2.868-.975,3.972,0,1.183,1.1-.977,2.8-1.367,4.261-.2,1.948-1.493,2.557-1.367,4.262.064.852-1.189,3.408-1.445,4.139l-1.4,4.017c-.4,1.827-1.43,3.409-1.487,4.262a11.279,11.279,0,0,1-1.445,4.139,21.189,21.189,0,0,0-1.607,4.261,14.947,14.947,0,0,1-1.608,4.262c-.863,1.1-3.83.974-4.014.122a6.724,6.724,0,0,1,.567-4.384c.552-1.582.163-2.191-.014-3.408l-.6-2.435a2.033,2.033,0,0,0-1.09-1.7,11.306,11.306,0,0,1-2.06-1.339,7.679,7.679,0,0,0-2.754-.731,27.079,27.079,0,0,1-3.724-.365,9.365,9.365,0,0,0-4.652-.122,3.88,3.88,0,0,0-2.649,2.07c-.34.974-1.409,2.313-2.047,4.139-.552,1.582-.927,2.313-1.274,3.652a21.842,21.842,0,0,1-1.275,3.653c-.559,1.948-1.571,4.505-2.464,7.062-.85,2.435-1.983,4.991-2.422,6.939s-1.154,3.653-1.169,4.384a4.1,4.1,0,0,0,.715,2.435c.39.609.992.609,2.549.974a14.907,14.907,0,0,0,4.368.243c2.415-.365,4.014-.121,5.785-.365a22.588,22.588,0,0,0,5.233-.852,38.472,38.472,0,0,0,5.083-1.461c1.82-.73,2.832-1.218,4.694-2.069a43.777,43.777,0,0,1,4.5-2.557c1.3-.609,2.485-1.948,4.6-3.166,1.3-.609,1.43-1.339,2.322-1.826s.708-1.339,2.485-1.948a5.618,5.618,0,0,0,2.571-2.191A5.146,5.146,0,0,1,189.9,63.45c1.536-.609,2.882.365,2.817,1.582a3.589,3.589,0,0,1-1.82,2.8c-1.133.487-1.529,2.314-2.06,2.8-1.345,1.1-1.4,1.948-1.94,2.8a19.58,19.58,0,0,1-1.941,2.8,27.43,27.43,0,0,1-3.916,5.357c-1.027,1.218-1,1.826-1.94,2.8-.9.852-1.367,2.191-2.018,2.678s-2.846-.121-3.852,0a13.8,13.8,0,0,1-3.774.122c-.8-.122-2.45.121-3.731,0a18.08,18.08,0,0,0-3.731,0,10.08,10.08,0,0,1-3.852,0c-1.643-.122-2.571.121-3.732,0-1.444,0-3.214.243-3.852,0-1.075-.366-2.286,0-3.731,0-1.487.121-2.167,0-3.731,0h-3.852a34.985,34.985,0,0,1-3.611,0,9.692,9.692,0,0,0-3.689-.122c-1.692.366-2.322-.243-3.816.243a12.851,12.851,0,0,1-3.979.366H120.3a9.913,9.913,0,0,1-3.717-.73c-1.911-.731-2.06-1.339-1.84-2.314.3-.852,1.473-1.461,3.5-2.435a18.008,18.008,0,0,1,3.909-.852,12.118,12.118,0,0,1,2.817-.487,5.367,5.367,0,0,0,3.717-1.339l2.224-2.923c.828-1.339.9-2.922,1.649-4.383.836-1.7,1.367-4.262,2.38-6.818a50.839,50.839,0,0,0,2.379-6.819c.773-2.556,1.091-4.5,2.38-6.818,1.168-2.314,1.445-4.139,2.379-6.818.68-1.948,2.012-4.383,2.38-6.819.474-1.7,1.522-4.017,2.379-6.818.723-2.069,1.048-4.383,2.38-6.818,1.161-1.948,1.246-4.262,2.336-6.7A16.669,16.669,0,0,0,153,13.289l-.021-3.044c.056-.852-.892-1.582-1.891-1.826-1.522-.122-2.768,0-4.693,0-2.528,0-3.668-1.218-3.364-2.435.474-1.7,1.41-2.314,2.989-3.044,1.3-.609,2.45-.122,3.774-.122,1.848-.121,2.4.366,3.731,0a19.079,19.079,0,0,1,3.731,0h3.732a69.117,69.117,0,0,1,7.1,0c1.564,0,2.28.366,3.611,0a19.106,19.106,0,0,1,3.731,0,34.894,34.894,0,0,0,3.611,0,11.832,11.832,0,0,0,3.61,0c1.77-.243,1.756.487,3.732,0a34.9,34.9,0,0,1,3.611,0c1.083,0,1.911.731,3.731,0a4.158,4.158,0,0,1,3.611,0c.715.366,3.051-.121,3.731,0,1.48.243,2.457-.487,3.568.122,1.388.852.128,3.774.184,4.992.05,1.582-.39,3.53.02,5.113a15.705,15.705,0,0,1,.021,5.114C204.632,19.864,206.359,21.811,204.844,23.395ZM121.3,8.542c-1.94.73-2.209.121-2.818.487-1.013.487-2.485-.122-3.8,1.217a12.41,12.41,0,0,0-2.266,3.044c-.5,1.1-1.183,3.044-1.65,4.383a49.051,49.051,0,0,1-2.337,6.7,16.972,16.972,0,0,0-2.379,6.819c-.368,2.435-1.785,5.113-2.38,6.818L101.3,44.822c-.849,2.435-1.218,4.871-2.379,6.819-1.134,2.556-1.488,4.261-2.38,6.818-1.02,2.922-1.982,4.992-2.379,6.818a30.672,30.672,0,0,1-2.38,6.818c-1.246,2.192-.743,3.166-1.451,4.505a3.518,3.518,0,0,0,.021,3.044c.226.73,1.819,1.339,2.782,1.339a9.061,9.061,0,0,1,3.887.243c1.636.488,1.607,1.948,1.465,3.044a3.549,3.549,0,0,1-1.656,2.679c-1.055.608-2.733.243-3.611,0a22.925,22.925,0,0,0-4.092,0c-1.161-.122-2.571.121-4.213,0-1.04-.122-3.25,0-4.212,0-1.445,0-2.33.121-3.938.243a8.867,8.867,0,0,0-4.219.365c-1.494.488-2.606-.121-4.213,0a4.548,4.548,0,0,1-3.958-.73c-1.38-1.217-.085-3.9,1.657-4.748s3.18-.487,3.908-.852a3.787,3.787,0,0,1,2.818-.487A4.5,4.5,0,0,0,76.473,79.4c.864-1.1,1.629-1.218,2.06-2.8.509-1.461,1.176-2.678,1.813-4.505.425-1.217,1.14-2.922,1.4-4.017.184-1.218,1.332-2.435,1.4-4.017.176-.852.807-2.314,1.359-3.9l1.4-4.018c.637-1.826,1.331-2.435,1.4-4.017a13.358,13.358,0,0,1,1.4-4.018c.715-1.7,1.02-2.922,1.4-4.017.3-.852.772-2.557,1.4-4.018.758-1.826.241-2.069,1.445-4.139a14.142,14.142,0,0,0,1.445-4.139c.141-1.1,1.133-2.556,1.614-4.626a28.174,28.174,0,0,1,1.785-5.113c1.254-2.557,1.947-5.235,1.6-5.966-.5-.974-.5-.974-2.181.731-.984,1.1-.913,1.582-2.266,3.044-1.112,1.46-1.2,1.7-1.94,2.8-1.367,2.191-2.6,3.653-3.591,5.114a57.438,57.438,0,0,0-3.5,4.87c-.913,1.583-2.506,3.044-3.547,4.992A44.832,44.832,0,0,1,79,42.509c-1.359,1.826-2.223,2.922-3.547,4.991-1.317,1.7-2.358,3.653-3.505,4.871-1.189,1.339-2.231,3.287-3.548,4.992a36.008,36.008,0,0,0-3.384,4.87,42.582,42.582,0,0,1-3.548,4.992c-.984,1.1-2.231,3.287-3.505,4.87-1.317,1.7-2.959,3.653-3.342,4.748a42.962,42.962,0,0,1-3.009,6.21c-1.374,2.557-2.8,3.53-4.412,4.017-.849.366-1.55-.73-2.024-1.1-.949-.73-.255-1.339-.149-2.678.015-.73.773-2.557.546-3.287-.262-.974.191-1.582.3-2.923a17.605,17.605,0,0,0-.509-4.747,27.325,27.325,0,0,1-.347-4.871c.063-1.217-.3-2.922-.347-4.87a38.258,38.258,0,0,0-.347-4.871,36.655,36.655,0,0,0-.226-4.87l-.227-4.87a46.882,46.882,0,0,1-.226-4.871c.078-1.948-.468-2.8-.106-4.87.283-2.191-.332-3.531-.184-4.992a24.634,24.634,0,0,1-.148-4.748,12.369,12.369,0,0,0-.063-4.992,5.716,5.716,0,0,1-.106-2.8c.093-.608-.319-2.191-.021-3.044.517-1.826-.644-1.947-1.019-1.217A29.553,29.553,0,0,0,39.2,21.69a35.2,35.2,0,0,0-1.614,4.626c-.517,1.827-.935,2.678-1.445,4.139a8.456,8.456,0,0,1-1.36,3.9A21.963,21.963,0,0,0,33.5,38c-.637,1.826-.687,2.313-1.274,3.653-.878,1.826-.524,2.191-1.275,3.652a14.664,14.664,0,0,0-1.274,3.653l-1.274,3.653c-.773,2.557-1.87,5.357-2.507,7.183A58.671,58.671,0,0,0,23.35,67.1a42.591,42.591,0,0,1-1.664,5.113,6.208,6.208,0,0,0-.652,4.626c.262.975.043,1.948,1.147,2.923.829.73,2.8.243,4.235.974.835.366,2.251,1.827,1.791,2.8-.212.609-1.1,3.166-2.4,3.774s-1.317-.365-2.16-.365a16.65,16.65,0,0,1-3.49,0c-2.237-.488-5.183.365-6.74,0-1.523-.122-3.852,0-6.5,0-2-.122-5.31.73-6.33-.488-.942-1.1.227-3.408,1.048-4.383,1.027-1.217,3.222-.608,3.908-.852.97-.365,2.188-1.1,3.115-1.339A6.777,6.777,0,0,0,12.814,76.6c.665-1.217,2.017-2.678,2.938-4.626.63-1.461,1.353-3.531,1.941-4.87.552-1.583,1.65-4.384,2.167-6.21a31.773,31.773,0,0,1,2.167-6.21A30.186,30.186,0,0,0,24.151,48.6a63.32,63.32,0,0,1,2.167-6.21,63.22,63.22,0,0,1,2.167-6.21c.652-2.556,1.438-3.774,2.168-6.209.687-2.314,1.607-4.262,2.167-6.21l2.125-6.087c.3-1.217,1.3-3.044,1.374-4.626A20.994,20.994,0,0,0,36.3,10c-.134-1.339-1.225-.974-1.934-1.7-.354-.365-2.485-.121-4.205-.365-1.04-.122-2.195-.609-2.089-1.948A6.312,6.312,0,0,1,30.1,2.575c2-1.582,3.52.609,5.736.122,2.011-.243,4.3-.609,6.138,0,1.317.365,4.779-.243,6.259,0,2,.487,5.006-1.583,6.337.121,1.02,1.218-.007,2.435.12,4.139a24.143,24.143,0,0,1,.043,4.018,8.53,8.53,0,0,0,.12,4.139c.05,1.582-.021,3.165.043,4.017a11.974,11.974,0,0,1,.12,4.139,14.451,14.451,0,0,0,0,4.139,32.019,32.019,0,0,0,.163,4.018c.2,1.826-.22,3.044.12,4.139.418,1.217.028,2.678,0,4.139a14.989,14.989,0,0,0,.163,4.017c.375,1.339.028,2.678,0,4.139s.551,2.557.12,4.139a12.955,12.955,0,0,0,.078,4.262,10.491,10.491,0,0,0,.028,2.678,21.517,21.517,0,0,1,.141,3.044c-.021,1.1-.368,2.435,1.246,1.948a3.9,3.9,0,0,0,2.563-1.826c.7-.975,1.367-2.191,2.188-3.166a28.714,28.714,0,0,0,1.9-2.678l3.215-4.383,2.846-4.018a42.9,42.9,0,0,1,2.889-4.139,48.112,48.112,0,0,0,2.966-4.017,35.528,35.528,0,0,1,2.889-4.139c1.473-1.461,1.622-2.923,2.889-4.139a18.055,18.055,0,0,0,2.966-4.018,16.174,16.174,0,0,1,2.889-4.139c1.239-1.826,1.969-2.191,2.966-4.017a21.535,21.535,0,0,1,2.889-4.139,25.508,25.508,0,0,0,3.009-4.139c.871-1.461,2.09-2.191,2.846-4.018A8.52,8.52,0,0,1,102.037,2.7c1.99-1.218,4.574,0,6.38,0a47.649,47.649,0,0,1,5.9,0c1.8.365,4.376-.122,6.429-.488,1.529-.243,4.227-.73,6.166.609,1.345.975.446,3.9-1.657,4.748S123.037,8.054,121.3,8.542Z" transform="translate(-0.236 -0.247)" fill="#131a22" fill-rule="evenodd"/>
</svg>
