<svg xmlns="http://www.w3.org/2000/svg" width="557.983" height="54.662" viewBox="0 0 557.983 54.662">
  <path id="パス_43880" data-name="パス 43880" d="M557.585,8.115a9.549,9.549,0,0,1,.013,3.144c-.146,1.048.929,2.245-.013,3.218a4.114,4.114,0,0,1-2.713.9c-1.4-.075-.515-1.721-1.1-2.619-.365-.449-.792-1.572-1.132-2.1-.356-.9-1.255-.9-1.264-1.722-.061-.674-.7-.973-1.369-1.422l-1.726-1.048a9.8,9.8,0,0,0-2.18-.823A5.539,5.539,0,0,0,543.5,5.2c-.7.075-2.091-.224-3.091-.15a16.473,16.473,0,0,0-2.871.075,9.617,9.617,0,0,0-2.355.524,5.652,5.652,0,0,0-1.775,1.422,14.214,14.214,0,0,0-1.3,2.62c-.775,1.347-.775,2.62-1.4,3.967A12.372,12.372,0,0,0,529.28,17.7c-.431,1.646-1.03,2.919-1.479,4.191a5.789,5.789,0,0,0-.52,2.32c-.22,1.048-.3,1.273.3,1.273a12.143,12.143,0,0,1,3.32-.075,16.654,16.654,0,0,0,2.576-.3c.6,0,1.431-.449,2.1-.449a2.543,2.543,0,0,0,1.713-.823c.99-.9,2.122-1.347,2.893-2.47a7.835,7.835,0,0,0,1.436-1.946c.264-.749.268-2.246,1.572-2.545.726-.15,1.783-.6,2.47,0,.735.674-.608,1.722-.85,2.619-.123,1.2-.929,1.572-.85,2.62a11.483,11.483,0,0,1-.9,2.545l-.872,2.47c-.247,1.123-.889,2.1-.925,2.62a6.884,6.884,0,0,1-.9,2.545,12.976,12.976,0,0,0-1,2.619,9.108,9.108,0,0,1-1,2.62c-.537.674-2.382.6-2.5.075a4.092,4.092,0,0,1,.353-2.695,3.288,3.288,0,0,0-.008-2.1l-.37-1.5a1.249,1.249,0,0,0-.678-1.048,7.041,7.041,0,0,1-1.281-.823A4.822,4.822,0,0,0,532.176,29a17.027,17.027,0,0,1-2.316-.224,5.89,5.89,0,0,0-2.893-.075,2.408,2.408,0,0,0-1.646,1.273c-.211.6-.876,1.422-1.273,2.545-.343.973-.577,1.422-.792,2.245a13.32,13.32,0,0,1-.793,2.246c-.348,1.2-.977,2.769-1.532,4.341-.529,1.5-1.233,3.068-1.506,4.266s-.718,2.246-.727,2.695a2.5,2.5,0,0,0,.445,1.5c.242.374.617.374,1.585.6a9.373,9.373,0,0,0,2.716.15c1.5-.224,2.5-.075,3.6-.224a14.185,14.185,0,0,0,3.253-.524,24.115,24.115,0,0,0,3.161-.9c1.132-.449,1.761-.749,2.919-1.272a27.3,27.3,0,0,1,2.8-1.572c.806-.374,1.545-1.2,2.857-1.946.806-.374.889-.823,1.444-1.122s.44-.823,1.545-1.2a3.484,3.484,0,0,0,1.6-1.347,3.187,3.187,0,0,1,1.673-1.347,1.181,1.181,0,0,1,1.752.973,2.2,2.2,0,0,1-1.132,1.722c-.7.3-.951,1.422-1.281,1.722a4.5,4.5,0,0,0-1.207,1.722,11.954,11.954,0,0,1-1.206,1.721,16.869,16.869,0,0,1-2.435,3.293c-.638.749-.621,1.122-1.206,1.722-.559.524-.85,1.347-1.255,1.646s-1.77-.075-2.4,0a8.676,8.676,0,0,1-2.347.075c-.5-.075-1.523.075-2.32,0a11.369,11.369,0,0,0-2.32,0,6.339,6.339,0,0,1-2.4,0c-1.022-.075-1.6.075-2.321,0a12.494,12.494,0,0,1-2.4,0,7.982,7.982,0,0,0-2.32,0c-.924.075-1.347,0-2.32,0h-2.4a22,22,0,0,1-2.245,0,6.1,6.1,0,0,0-2.294-.075c-1.052.225-1.444-.15-2.373.15A8.079,8.079,0,0,1,507.41,54h-2.4a6.226,6.226,0,0,1-2.311-.449c-1.189-.449-1.281-.823-1.144-1.422.185-.524.916-.9,2.175-1.5a11.313,11.313,0,0,1,2.43-.524,7.625,7.625,0,0,1,1.752-.3,3.36,3.36,0,0,0,2.312-.823l1.382-1.8c.516-.823.56-1.8,1.026-2.694.52-1.048.85-2.62,1.48-4.191a31.025,31.025,0,0,0,1.479-4.192,18.725,18.725,0,0,1,1.48-4.191,31.13,31.13,0,0,0,1.479-4.191,23.381,23.381,0,0,0,1.48-4.192c.295-1.047.946-2.47,1.479-4.191a23.309,23.309,0,0,1,1.479-4.191c.723-1.2.775-2.62,1.453-4.117a10.165,10.165,0,0,0,.9-2.769l-.013-1.871c.035-.524-.555-.973-1.176-1.122-.946-.075-1.721,0-2.919,0-1.572,0-2.281-.749-2.092-1.5.295-1.048.877-1.422,1.858-1.871.806-.374,1.523-.075,2.347-.075,1.149-.075,1.493.225,2.32,0a12,12,0,0,1,2.32,0h2.321a43.472,43.472,0,0,1,4.416,0,7.5,7.5,0,0,0,2.245,0,12.022,12.022,0,0,1,2.321,0,21.947,21.947,0,0,0,2.246,0,7.441,7.441,0,0,0,2.245,0c1.1-.15,1.092.3,2.321,0a21.939,21.939,0,0,1,2.245,0c.674,0,1.189.449,2.321,0a2.612,2.612,0,0,1,2.245,0c.445.225,1.9-.075,2.32,0,.92.15,1.528-.3,2.219.075.863.524.079,2.32.115,3.069A14.733,14.733,0,0,0,557.585,8.115Zm-57.424,6.137a4.194,4.194,0,0,1-2.716,1.122c-1.048,0-.4-1.2-.881-2.17a14.477,14.477,0,0,1-.981-2.1c-.357-.9-1.255-.9-1.211-1.871-.035-.749-.651-1.123-1.29-1.647s-1.075-1.2-1.568-1.5l-2-1.122a4.278,4.278,0,0,0-2.232-.674c-.524,0-1.691-.3-2.514-.3a4.484,4.484,0,0,0-2.149.15c-1.132.449-1.2,0-2.057.523a4.148,4.148,0,0,1-2.012.824c-.775.075-1.083.524-1.942,1.047a6.436,6.436,0,0,0-1.823,1.348c-.537.674-1.413.823-1.726,1.5a4.511,4.511,0,0,1-1.554,1.646,11.225,11.225,0,0,0-1.559,1.871c-.489.749-1.118,1.048-1.409,1.871a7.38,7.38,0,0,1-1.387,2.021,6.666,6.666,0,0,0-1.162,2.021c-.238.674-.929,1.572-1.115,2.1a3.371,3.371,0,0,1-1.012,2.021,8.449,8.449,0,0,0-.938,2.021,8.126,8.126,0,0,0-1.417,3.593c-.251,1.347-1,2.619-1.2,3.817s-.806,2.919-.9,4.042a3.394,3.394,0,0,1-.313,1.946,3.664,3.664,0,0,0-.163,1.946,3.956,3.956,0,0,0,.013,1.871,11.463,11.463,0,0,1,.114,1.8c-.062.6.476,1.2.343,1.572-.19.748.3,1.048.493,1.572.163.6.581.9.8,1.347.119.3.665.449.951,1.122.167.374,1.039.449,1.228.973.141.449.837.6,1.559.674a5.836,5.836,0,0,1,1.788.449,5.316,5.316,0,0,0,2.192.15c.951-.15,1.448-.075,2.149-.15s1.629-.374,2.03-.449a4.655,4.655,0,0,0,2.034-.674c.783-.524,1.285-.674,1.941-1.048.454-.224,1.167-.973,1.8-1.272s.889-.823,1.528-1.572.748-1.272,1.233-1.8a6.567,6.567,0,0,0,.964-2.1l1.03-2.919c.313-.674.533-1.722.876-2.694s.427-1.422.013-1.946c-.291-.449-.652-1.123-1.277-1.048-.749,0-1.809-.6-2.712-.374a2.863,2.863,0,0,1-1.968-.15c-.819-.225-1.18-.9-.894-1.5a2.266,2.266,0,0,1,2-1.647c2.954-.523,4.724-.449,5.217-.15.595.225,1.92.075,2.466.225a8.635,8.635,0,0,0,2.518.075c.951-.15,1.32.075,2.4,0s1.572,0,2.47,0,1.471.075,2.519.075c.823,0,2.126-.3,2.593.075.761.6-.793,2.245-1,2.844-.4,1.122-2.928.449-3.7.524a5.728,5.728,0,0,0-2.342,1.122,3.313,3.313,0,0,0-1.409,1.871,19.51,19.51,0,0,1-1.026,2.694c-.365.823-.713,2.021-1.056,2.994l-1.057,2.994c-.5,1.2-.744,2.32-1.083,3.069-.392.9-.551,2.62-1.132,2.994-.784.524-1.471-.075-2.4,0a9.274,9.274,0,0,0-2.474.225c-1.03.374-1.8.225-2.857.674a7.112,7.112,0,0,1-2.862.9,7.085,7.085,0,0,0-2.056.524,4.535,4.535,0,0,1-2,.374,23.975,23.975,0,0,0-4,.3c-.626.075-1.519-.15-2.492-.15a5.014,5.014,0,0,1-2.338-.374l-2.056-.749c-.66-.674-1.391-.3-1.854-.9a4.293,4.293,0,0,0-1.624-1.123c-.546-.15-.929-.973-1.4-1.347a5.859,5.859,0,0,1-1.167-1.572c-.361-.674-.749-1.272-.964-1.722a4.342,4.342,0,0,1-.687-1.871,6.924,6.924,0,0,0-.511-1.946c-.264-.524-.048-1.347-.207-2.17a3.625,3.625,0,0,1-.105-2.246,9.624,9.624,0,0,0,.194-2.246,22.932,22.932,0,0,1,.322-2.4,5.948,5.948,0,0,0,.572-2.47,10.026,10.026,0,0,1,.8-2.47c.467-.9.56-1.8,1-2.619a18.5,18.5,0,0,0,1.224-2.62c.423-1.2.951-1.422,1.449-2.619a5.97,5.97,0,0,1,1.646-2.545c.837-.674.978-1.5,1.77-2.47a12.4,12.4,0,0,0,1.968-2.4c.287-.6,1.475-1.422,2.241-2.32.889-.823,1.273-1.273,2.338-2.17.761-.674,1.039-.823,2.1-1.722a20.6,20.6,0,0,1,2.3-1.646c.48-.3,1.211-.674,2.272-1.348A9.242,9.242,0,0,1,476.15,3.4a13.188,13.188,0,0,0,2.439-.973c1.158-.524,1.854-.374,2.51-.749a3.635,3.635,0,0,1,2.4-.449c.572.075,1.651-.225,2.474-.225a16.167,16.167,0,0,1,2.54.225,6.976,6.976,0,0,1,2.333.6c1.065.374,1.739.374,1.959.6.343.3.621.15,1.519.15A15.97,15.97,0,0,0,497.08,2.2c1.281-.449,2.368-1.2,2.888-.973,1.162.524.057,2.17.11,3.293l.088,3.144c-.013.674.33.973-.031,1.572a2.824,2.824,0,0,0,.018,1.646C500.284,11.783,501.1,13.279,500.161,14.252ZM433.8,53.547a3.9,3.9,0,0,1-2.47,0,6,6,0,0,0-2.321,0,11.252,11.252,0,0,0-2.245,0,13.572,13.572,0,0,1-2.47,0,8.554,8.554,0,0,1-2.4,0c-.889-.449-1.646,0-2.47,0-.674,0-2.329.449-2.444-.075a3.279,3.279,0,0,1,1.03-2.919c.532-.449,1.9-.075,2.6-.15a8.386,8.386,0,0,0,2-.374c1.259-.6,2.017-1.047,2.232-1.871a4.22,4.22,0,0,0,.388-1.946,5.958,5.958,0,0,1,.137-1.871,10.541,10.541,0,0,0,.128-2.694c-.058-.9.339-2.021.154-2.769a2.719,2.719,0,0,0-1.008-2.021,9.293,9.293,0,0,0-2-1.122c-.893-.225-2.324.224-2.844,0a11.963,11.963,0,0,0-2.844,0c-1.1-.075-2.1,0-2.844,0h-2.845a5.478,5.478,0,0,0-2.791,1.122,11.968,11.968,0,0,0-2.51,2.021c-.542.9-1.211,1.946-1.8,2.769a13.89,13.89,0,0,0-1.774,2.694c-.211.6-.722,1.2-1.167,2.246a3.636,3.636,0,0,0-.339,2.021c.008.823.282.9.951,1.122a2.585,2.585,0,0,0,1.734.6,4.549,4.549,0,0,1,2.241.224c.837.6-.471,2.4-1.03,2.919-1.092.973-2.8.075-3.993.075h-7.784c-1.2,0-3.535.9-3.94-.075a3.6,3.6,0,0,1,1.03-2.919,3.962,3.962,0,0,1,3.008-.674c1.026-.15,1.514-.9,2.17-1.272s.815-.823,1.58-1.722c.383-.449.978-1.5,1.77-2.47a10.375,10.375,0,0,0,1.823-2.619,7.4,7.4,0,0,1,1.748-2.62c.308-.449,1.488-2.1,1.823-2.619.643-.973,1.184-1.871,1.849-2.694a16.342,16.342,0,0,0,1.748-2.62c.648-1.2,1.352-1.5,1.823-2.62.366-.823,1.1-1.422,1.775-2.694a18.421,18.421,0,0,1,1.823-2.619c.744-1.048,1.259-1.871,1.748-2.62.542-.9,1.33-1.646,1.849-2.694.7-1.122,1.1-1.646,1.823-2.62a14.69,14.69,0,0,1,1.748-2.619,17.252,17.252,0,0,0,1.849-2.694,21.559,21.559,0,0,1,1.721-2.545c.714-.749,1.339-2.1,1.849-2.694.718-.973.938-2.021,1.924-2.695a6.577,6.577,0,0,1,3.311-.9c1.3-.3,2.844-1.273,3.31-.9.638.524.084,2.1,0,2.769-.048,1.2.008,2.1-.106,2.844a13.883,13.883,0,0,0-.053,2.694,5.49,5.49,0,0,1-.079,2.769,20.8,20.8,0,0,0-.079,2.769,8.377,8.377,0,0,0-.128,2.694,10.286,10.286,0,0,1-.079,2.769l-.079,2.769a6.124,6.124,0,0,0-.079,2.769c.084.823-.084,1.722-.079,2.769a13.714,13.714,0,0,0-.154,2.769c0,1.273.013,1.871-.053,2.694a6.857,6.857,0,0,0-.079,2.769,10.337,10.337,0,0,1-.079,2.769,7.975,7.975,0,0,1-.128,2.694,4.286,4.286,0,0,0-.079,2.769,12.953,12.953,0,0,1-.159,2.994,2.381,2.381,0,0,0,.392,1.646c.167.374.986.6,1.378.973.343.3,2.206-.524,2.883.524.436.674-.361,1.871-1.03,2.919S434.827,53.172,433.8,53.547Zm-7.557-43.261c-.726.15-.981.449-1.9,1.572a16.869,16.869,0,0,0-1.642,2.321,10.754,10.754,0,0,1-1.312,2.021,12.141,12.141,0,0,0-2.312,3.368,24.639,24.639,0,0,1-2.184,3.218c-.516.823-1.62,2.47-2.184,3.218a10.221,10.221,0,0,0-1.849,2.694,2.919,2.919,0,0,0-.044,2.246,2.96,2.96,0,0,0,2.073,1.122,12.651,12.651,0,0,0,3.368,0c1-.075,2.417.15,3.368,0a5.741,5.741,0,0,0,2.866-1.122,4.181,4.181,0,0,0,1.59-2.17A9.33,9.33,0,0,0,426.23,26a10.984,10.984,0,0,1,.163-3.218c.171-1.123-.013-1.871.237-3.218a21.274,21.274,0,0,0,.141-3.368,7.907,7.907,0,0,1,.19-2.021,6.637,6.637,0,0,0,.071-2.321C427.054,10.735,427.067,10.061,426.239,10.285Zm-32.9,4.266a3.167,3.167,0,0,1-2.647,1.347c-.973,0-.374-1.272-.806-2.17l-.907-2.1c-.33-.973-.827-1.048-1.035-1.946a2.83,2.83,0,0,0-1.215-1.646c-.766-.374-.753-1.048-1.568-1.5a14.291,14.291,0,0,1-1.924-1.122,2.917,2.917,0,0,0-2.131-.749c-.9,0-1.712-.449-2.439-.3a30.961,30.961,0,0,1-3.681.674c-.85.075-1.11.6-1.686.749a3.687,3.687,0,0,0-1.642,1.048c-.506.374-.735.6-1.5,1.272-.66.6-.766.9-1.325,1.422a7.22,7.22,0,0,0-1.889,3.443c-.343.973-.9,1.272-.414,2.021.242.374-.1,1.347.066,1.722.308.823.224,1.272.445,1.5.563.524.379,1.048.872,1.347a11.021,11.021,0,0,1,1.2,1.048,3.976,3.976,0,0,0,1.4.9c.669.225.837.6,1.634.674a11.147,11.147,0,0,0,1.761.524c.823,0,1.607.749,2.5.749.973,0,1.339.449,2.232.674a8.4,8.4,0,0,1,2.281.748c.419.3,1.457.749,1.951,1.048.74.449,1.73.823,1.743,1.422s.815.449.876,1.122c.11.749.533.823.749,1.273.361.674.277,1.122.5,1.347.563.524.357.9.3,1.5-.048,1.2-.119,2.246-.088,3.218a8.46,8.46,0,0,1-.815,3.368,32.454,32.454,0,0,1-1.382,3.069,10.869,10.869,0,0,1-1.854,2.919c-.612.674-1.634,1.871-2.347,2.62-.942.973-1.875,1.5-2.716,2.4a17.027,17.027,0,0,1-2.906,1.871c-1.339.823-2.215.973-3.148,1.5a11.357,11.357,0,0,1-3.263.973,16.206,16.206,0,0,1-3.175.3,23.741,23.741,0,0,0-2.963-.3c-.9,0-1.757-.749-2.624-1.048-1.065-.374-1.7-.9-2.052-.973-.546-.15-.889-.449-1.616-.3a5.974,5.974,0,0,0-2.585.748c-1.54.973-2.227,1.647-3.275,1.647-.524,0,.044-.973.008-1.722a15.884,15.884,0,0,0-.065-1.722,9.479,9.479,0,0,1-.066-1.722c-.013-.6.2-1.422.008-1.722-.317-.374-.123-1.347.009-1.722a2.675,2.675,0,0,0-.066-1.722,2.557,2.557,0,0,1,.036-1.8c.11-.524-.273-1.347.035-1.8.334-.523,1.677-1.571,2.642-1.122.841.374.771,1.422.977,2.32a15.187,15.187,0,0,0,1.132,2.1c.431.9,1.021,1.347,1.307,2.021.7.973,1.1,1.123,1.563,1.722.436.674,1.03.9,1.867,1.5a7.445,7.445,0,0,0,2.122,1.2l2.43.749a6.148,6.148,0,0,0,2.615.224,12.461,12.461,0,0,0,2.074-.15c.577-.15,1.448-.075,2.007-.6a8.373,8.373,0,0,1,1.937-.823,5.291,5.291,0,0,0,1.845-1.2c.761-.674,1.413-.823,1.673-1.347.414-.749.942-.973,1.479-1.647a13.9,13.9,0,0,0,1.158-1.8c.414-.749.577-1.422.863-2.021a9.93,9.93,0,0,0,.688-3.218c.216-.823-.317-1.646-.427-2.4a2.747,2.747,0,0,0-1.211-1.871,14.964,14.964,0,0,0-1.968-1.422,6.937,6.937,0,0,0-2.373-1.122c-.7-.15-1.858-.674-2.6-.9-.942-.3-2.139-.3-2.628-.823-.414-.524-1.686-.524-2.527-.9a11.8,11.8,0,0,1-1.9-.973c-.3-.225-1.436-.6-1.7-1.122-.237-.6-.682-.823-1.321-1.347a3.771,3.771,0,0,1-1.017-1.572,2.413,2.413,0,0,1-.638-1.8c-.009-.823-.5-1.347-.159-2.1.291-.823-.074-1.273.194-2.246a13.815,13.815,0,0,1,.7-2.62,12.051,12.051,0,0,1,1.277-2.769,27.236,27.236,0,0,1,1.748-2.62,12.623,12.623,0,0,1,2.144-2.47,21.5,21.5,0,0,0,2.413-2.17,7.035,7.035,0,0,1,2.654-1.8,16.622,16.622,0,0,1,2.9-1.422,17.941,17.941,0,0,1,2.91-.823,23.852,23.852,0,0,1,2.9-.374c.9,0,1.889.374,2.439.3.876-.15,1.435.6,2.007.674a17.265,17.265,0,0,0,1.858.674,8.743,8.743,0,0,0,1.941.225,11.839,11.839,0,0,0,2.532-.6c.924-.075,1.928-1.646,2.69-1.048.542.374-.343.973.017,1.647a2.338,2.338,0,0,1,.018,1.646c-.233.449.027,1.2.018,1.646a4.627,4.627,0,0,0,.018,1.646,3.913,3.913,0,0,1,.018,1.647c-.136.6.124,1.347-.008,1.722C393.085,12.307,393.935,13.5,393.341,14.552Zm-46.437,0a3.165,3.165,0,0,1-2.646,1.347c-.973,0-.374-1.272-.806-2.17l-.907-2.1c-.33-.973-.827-1.048-1.035-1.946A2.829,2.829,0,0,0,340.3,8.04c-.766-.374-.752-1.048-1.567-1.5A14.293,14.293,0,0,1,336.8,5.421a2.917,2.917,0,0,0-2.131-.749c-.9,0-1.712-.449-2.439-.3a30.946,30.946,0,0,1-3.681.674c-.849.075-1.109.6-1.686.749a3.687,3.687,0,0,0-1.642,1.048c-.506.374-.735.6-1.5,1.272-.66.6-.766.9-1.325,1.422a7.219,7.219,0,0,0-1.889,3.443c-.343.973-.9,1.272-.414,2.021.242.374-.1,1.347.066,1.722.308.823.224,1.272.444,1.5.564.524.379,1.048.872,1.347a10.98,10.98,0,0,1,1.2,1.048,3.971,3.971,0,0,0,1.4.9c.669.225.837.6,1.634.674a11.147,11.147,0,0,0,1.761.524c.823,0,1.607.749,2.5.749.973,0,1.339.449,2.232.674a8.4,8.4,0,0,1,2.281.748c.419.3,1.457.749,1.951,1.048.74.449,1.73.823,1.743,1.422s.814.449.876,1.122c.11.749.533.823.749,1.273.361.674.277,1.122.5,1.347.563.524.356.9.3,1.5-.048,1.2-.119,2.246-.088,3.218a8.46,8.46,0,0,1-.815,3.368,32.452,32.452,0,0,1-1.382,3.069,10.858,10.858,0,0,1-1.854,2.919c-.612.674-1.633,1.871-2.347,2.62-.942.973-1.875,1.5-2.716,2.4A17.01,17.01,0,0,1,328.5,52.05c-1.338.823-2.215.973-3.147,1.5a11.357,11.357,0,0,1-3.263.973,16.211,16.211,0,0,1-3.175.3,23.739,23.739,0,0,0-2.963-.3c-.9,0-1.757-.749-2.624-1.048-1.066-.374-1.7-.9-2.052-.973-.546-.15-.889-.449-1.616-.3a5.974,5.974,0,0,0-2.585.748c-1.541.973-2.228,1.647-3.275,1.647-.524,0,.044-.973.008-1.722a15.742,15.742,0,0,0-.066-1.722,9.528,9.528,0,0,1-.065-1.722c-.013-.6.2-1.422.008-1.722-.317-.374-.123-1.347.009-1.722a2.675,2.675,0,0,0-.066-1.722,2.56,2.56,0,0,1,.035-1.8c.11-.524-.273-1.347.036-1.8.334-.523,1.677-1.571,2.642-1.122.841.374.771,1.422.977,2.32a15.122,15.122,0,0,0,1.132,2.1c.431.9,1.021,1.347,1.307,2.021.7.973,1.1,1.123,1.563,1.722.436.674,1.03.9,1.867,1.5a7.437,7.437,0,0,0,2.122,1.2l2.43.749a6.147,6.147,0,0,0,2.615.224,9.584,9.584,0,0,0,2.074-.15c.577-.15,1.448-.075,2.007-.6a8.373,8.373,0,0,1,1.937-.823,5.3,5.3,0,0,0,1.845-1.2c.761-.674,1.413-.823,1.673-1.347.414-.749.942-.973,1.479-1.647a13.906,13.906,0,0,0,1.158-1.8c.414-.749.577-1.422.863-2.021a9.914,9.914,0,0,0,.687-3.218c.216-.823-.317-1.646-.426-2.4a2.747,2.747,0,0,0-1.211-1.871,14.964,14.964,0,0,0-1.968-1.422,6.938,6.938,0,0,0-2.373-1.122c-.7-.15-1.858-.674-2.6-.9-.942-.3-2.139-.3-2.628-.823-.414-.524-1.686-.524-2.527-.9a11.82,11.82,0,0,1-1.9-.973c-.295-.225-1.436-.6-1.7-1.122-.237-.6-.682-.823-1.321-1.347a3.771,3.771,0,0,1-1.017-1.572,2.416,2.416,0,0,1-.638-1.8c-.008-.823-.5-1.347-.158-2.1.291-.823-.075-1.273.194-2.246a13.815,13.815,0,0,1,.7-2.62,12.028,12.028,0,0,1,1.277-2.769,27.357,27.357,0,0,1,1.748-2.62,12.65,12.65,0,0,1,2.144-2.47,21.437,21.437,0,0,0,2.413-2.17,7.038,7.038,0,0,1,2.655-1.8,16.623,16.623,0,0,1,2.9-1.422,17.942,17.942,0,0,1,2.91-.823,23.836,23.836,0,0,1,2.9-.374c.9,0,1.889.374,2.439.3.876-.15,1.435.6,2.007.674a17.266,17.266,0,0,0,1.858.674A8.743,8.743,0,0,0,341.7,2.8a11.842,11.842,0,0,0,2.531-.6c.925-.075,1.929-1.646,2.69-1.048.542.374-.343.973.018,1.647a2.337,2.337,0,0,1,.018,1.646c-.233.449.027,1.2.018,1.646a4.625,4.625,0,0,0,.018,1.646,3.914,3.914,0,0,1,.018,1.647c-.136.6.123,1.347-.009,1.722C346.649,12.307,347.5,13.5,346.9,14.552Zm-46.1-.075a4.113,4.113,0,0,1-2.712.9c-1.4-.075-.515-1.721-1.1-2.619-.365-.449-.792-1.572-1.131-2.1-.357-.9-1.255-.9-1.264-1.722-.062-.674-.7-.973-1.369-1.422L291.5,6.468a9.814,9.814,0,0,0-2.179-.823,5.54,5.54,0,0,0-2.611-.449c-.7.075-2.091-.224-3.091-.15a16.473,16.473,0,0,0-2.871.075,9.627,9.627,0,0,0-2.356.524,5.651,5.651,0,0,0-1.774,1.422,14.185,14.185,0,0,0-1.3,2.62c-.775,1.347-.775,2.62-1.4,3.967a12.361,12.361,0,0,0-1.427,4.042c-.432,1.646-1.03,2.919-1.48,4.191a5.788,5.788,0,0,0-.52,2.32c-.22,1.048-.3,1.273.3,1.273a12.141,12.141,0,0,1,3.319-.075,16.662,16.662,0,0,0,2.576-.3c.6,0,1.431-.449,2.1-.449a2.542,2.542,0,0,0,1.712-.823c.991-.9,2.123-1.347,2.893-2.47a7.832,7.832,0,0,0,1.435-1.946c.265-.749.269-2.246,1.572-2.545.727-.15,1.783-.6,2.47,0,.735.674-.608,1.722-.85,2.619-.124,1.2-.929,1.572-.85,2.62a11.511,11.511,0,0,1-.9,2.545l-.872,2.47c-.247,1.123-.89,2.1-.925,2.62a6.884,6.884,0,0,1-.9,2.545,12.933,12.933,0,0,0-1,2.619,9.127,9.127,0,0,1-1,2.62c-.537.674-2.382.6-2.5.075a4.088,4.088,0,0,1,.353-2.695,3.284,3.284,0,0,0-.009-2.1l-.369-1.5a1.248,1.248,0,0,0-.678-1.048,7.02,7.02,0,0,1-1.281-.823A4.825,4.825,0,0,0,275.391,29a17.027,17.027,0,0,1-2.316-.224,5.888,5.888,0,0,0-2.892-.075,2.408,2.408,0,0,0-1.646,1.273c-.211.6-.876,1.422-1.273,2.545-.344.973-.577,1.422-.793,2.245a13.325,13.325,0,0,1-.792,2.246c-.348,1.2-.978,2.769-1.533,4.341-.528,1.5-1.233,3.068-1.506,4.266s-.718,2.246-.726,2.695a2.494,2.494,0,0,0,.445,1.5c.242.374.616.374,1.585.6a9.378,9.378,0,0,0,2.717.15c1.5-.224,2.5-.075,3.6-.224a14.189,14.189,0,0,0,3.253-.524,24.14,24.14,0,0,0,3.161-.9c1.132-.449,1.761-.749,2.919-1.272a27.362,27.362,0,0,1,2.8-1.572c.806-.374,1.545-1.2,2.857-1.946.806-.374.89-.823,1.445-1.122s.44-.823,1.545-1.2a3.481,3.481,0,0,0,1.6-1.347,3.192,3.192,0,0,1,1.673-1.347,1.182,1.182,0,0,1,1.752.973,2.2,2.2,0,0,1-1.132,1.722c-.7.3-.951,1.422-1.281,1.722a4.5,4.5,0,0,0-1.207,1.722,11.984,11.984,0,0,1-1.207,1.721A16.838,16.838,0,0,1,286,50.253c-.638.749-.621,1.122-1.207,1.722-.559.524-.85,1.347-1.255,1.646s-1.77-.075-2.4,0a8.676,8.676,0,0,1-2.347.075c-.5-.075-1.523.075-2.321,0a11.371,11.371,0,0,0-2.32,0,6.338,6.338,0,0,1-2.4,0c-1.021-.075-1.6.075-2.32,0a12.493,12.493,0,0,1-2.4,0,7.983,7.983,0,0,0-2.32,0c-.925.075-1.347,0-2.321,0h-2.4a21.992,21.992,0,0,1-2.245,0,6.1,6.1,0,0,0-2.294-.075c-1.052.225-1.444-.15-2.373.15a8.076,8.076,0,0,1-2.474.225h-2.4a6.221,6.221,0,0,1-2.312-.449c-1.188-.449-1.281-.823-1.145-1.422.185-.524.916-.9,2.175-1.5a11.312,11.312,0,0,1,2.43-.524,7.619,7.619,0,0,1,1.752-.3,3.361,3.361,0,0,0,2.312-.823l1.382-1.8c.515-.823.559-1.8,1.026-2.694.519-1.048.85-2.62,1.479-4.191a31.012,31.012,0,0,0,1.48-4.192,18.724,18.724,0,0,1,1.479-4.191,31.121,31.121,0,0,0,1.48-4.191,23.379,23.379,0,0,0,1.479-4.192c.3-1.047.947-2.47,1.48-4.191a23.311,23.311,0,0,1,1.479-4.191c.722-1.2.775-2.62,1.453-4.117a10.186,10.186,0,0,0,.9-2.769l-.013-1.871c.036-.524-.554-.973-1.175-1.122-.947-.075-1.722,0-2.919,0-1.572,0-2.281-.749-2.091-1.5.295-1.048.876-1.422,1.858-1.871.806-.374,1.523-.075,2.347-.075,1.149-.075,1.493.225,2.321,0a12,12,0,0,1,2.32,0h2.32a43.471,43.471,0,0,1,4.416,0,7.5,7.5,0,0,0,2.246,0,12.016,12.016,0,0,1,2.32,0,21.943,21.943,0,0,0,2.245,0,7.445,7.445,0,0,0,2.246,0c1.1-.15,1.092.3,2.32,0a21.951,21.951,0,0,1,2.246,0c.674,0,1.188.449,2.32,0a2.612,2.612,0,0,1,2.245,0c.445.225,1.9-.075,2.32,0,.92.15,1.528-.3,2.219.075.863.524.079,2.32.114,3.069a14.7,14.7,0,0,0,.013,3.143,9.529,9.529,0,0,1,.013,3.144C300.668,12.307,301.742,13.5,300.8,14.477ZM248.852,5.346c-1.207.449-1.374.075-1.752.3-.629.3-1.545-.075-2.36.748a7.653,7.653,0,0,0-1.409,1.871c-.313.674-.735,1.871-1.026,2.694a30,30,0,0,1-1.453,4.117,10.357,10.357,0,0,0-1.48,4.192,23.269,23.269,0,0,1-1.479,4.191l-1.48,4.191a23.345,23.345,0,0,1-1.479,4.192c-.7,1.571-.925,2.619-1.48,4.191-.634,1.8-1.233,3.069-1.479,4.191a18.742,18.742,0,0,1-1.479,4.191c-.775,1.348-.463,1.946-.9,2.769a2.141,2.141,0,0,0,.013,1.871c.141.449,1.132.823,1.73.823a5.7,5.7,0,0,1,2.417.15c1.017.3,1,1.2.912,1.871a2.179,2.179,0,0,1-1.03,1.647,3.306,3.306,0,0,1-2.246,0,14.418,14.418,0,0,0-2.545,0c-.722-.075-1.6.075-2.619,0-.648-.075-2.021,0-2.62,0-.9,0-1.448.075-2.448.15a5.576,5.576,0,0,0-2.624.224c-.929.3-1.62-.075-2.62,0a2.852,2.852,0,0,1-2.461-.449c-.859-.748-.053-2.4,1.03-2.919s1.977-.3,2.43-.524a2.377,2.377,0,0,1,1.752-.3,2.816,2.816,0,0,0,2.312-.823c.537-.674,1.013-.749,1.281-1.722.317-.9.731-1.646,1.127-2.769.265-.748.709-1.8.872-2.47.114-.749.827-1.5.872-2.47.11-.524.5-1.422.846-2.4l.872-2.47c.4-1.122.828-1.5.872-2.47a8.136,8.136,0,0,1,.872-2.47c.445-1.048.634-1.8.872-2.47.185-.524.48-1.572.872-2.47.471-1.122.15-1.272.9-2.545a8.612,8.612,0,0,0,.9-2.545c.088-.674.7-1.571,1-2.844a17.175,17.175,0,0,1,1.109-3.143c.78-1.572,1.211-3.218,1-3.668-.313-.6-.313-.6-1.356.449-.612.674-.568.973-1.409,1.871-.691.9-.744,1.047-1.207,1.721-.85,1.347-1.616,2.246-2.232,3.144a35.052,35.052,0,0,0-2.179,2.994c-.568.973-1.559,1.871-2.206,3.069a27.461,27.461,0,0,1-2.1,2.994c-.846,1.122-1.383,1.8-2.206,3.068-.819,1.048-1.466,2.246-2.179,2.994-.74.823-1.387,2.021-2.206,3.069a22.131,22.131,0,0,0-2.1,2.994,26.109,26.109,0,0,1-2.206,3.069c-.612.674-1.387,2.021-2.179,2.994a16.42,16.42,0,0,0-2.078,2.919,26.349,26.349,0,0,1-1.872,3.817,4.448,4.448,0,0,1-2.743,2.47c-.528.225-.964-.449-1.259-.674-.59-.449-.158-.823-.092-1.646.008-.449.48-1.572.339-2.021-.163-.6.119-.973.185-1.8a10.681,10.681,0,0,0-.317-2.918,16.611,16.611,0,0,1-.216-2.994c.04-.748-.189-1.8-.216-2.994a23.26,23.26,0,0,0-.216-2.994,22.181,22.181,0,0,0-.141-2.994L200.7,29.6a28.512,28.512,0,0,1-.141-2.994,16.83,16.83,0,0,1-.065-2.994c.176-1.347-.207-2.17-.114-3.069a14.879,14.879,0,0,1-.092-2.919,7.53,7.53,0,0,0-.04-3.069,3.483,3.483,0,0,1-.066-1.722,9.093,9.093,0,0,1-.013-1.871c.322-1.122-.4-1.2-.634-.748a18.141,18.141,0,0,0-1.735,3.218,21.473,21.473,0,0,0-1,2.844c-.322,1.123-.582,1.646-.9,2.545a5.146,5.146,0,0,1-.846,2.4,13.393,13.393,0,0,0-.792,2.246c-.4,1.122-.427,1.422-.793,2.246-.546,1.122-.326,1.347-.792,2.245a8.926,8.926,0,0,0-.793,2.246l-.792,2.246c-.48,1.572-1.162,3.293-1.559,4.416a35.6,35.6,0,0,0-1.585,4.491,26.078,26.078,0,0,1-1.035,3.143,3.778,3.778,0,0,0-.405,2.844c.163.6.027,1.2.714,1.8.515.449,1.743.15,2.633.6.52.225,1.4,1.123,1.114,1.722-.132.374-.687,1.946-1.493,2.32s-.819-.224-1.343-.224a10.472,10.472,0,0,1-2.17,0c-1.391-.3-3.223.224-4.192,0-.946-.075-2.4,0-4.042,0-1.246-.075-3.3.449-3.936-.3-.585-.674.141-2.1.652-2.694.638-.748,2-.374,2.43-.524.6-.224,1.361-.674,1.938-.823a4.2,4.2,0,0,0,2.584-2.021c.414-.748,1.255-1.646,1.828-2.844.392-.9.841-2.17,1.206-2.994.343-.973,1.026-2.695,1.348-3.817a19.38,19.38,0,0,1,1.347-3.817,18.382,18.382,0,0,0,1.321-3.742,38.636,38.636,0,0,1,1.347-3.817,38.555,38.555,0,0,1,1.348-3.817c.405-1.571.893-2.32,1.347-3.817.427-1.422,1-2.62,1.348-3.817l1.321-3.742a14.428,14.428,0,0,0,.855-2.844,12.775,12.775,0,0,0-.013-1.871c-.084-.823-.761-.6-1.2-1.048-.22-.224-1.545-.075-2.615-.224-.648-.075-1.365-.374-1.3-1.2a3.866,3.866,0,0,1,1.264-2.1c1.241-.973,2.188.374,3.566.075a9.362,9.362,0,0,1,3.817,0c.819.224,2.972-.15,3.893,0,1.241.3,3.112-.973,3.94.075.634.749,0,1.5.074,2.545a14.658,14.658,0,0,1,.026,2.47,5.192,5.192,0,0,0,.075,2.545c.03.973-.013,1.946.026,2.47a7.265,7.265,0,0,1,.075,2.545,8.783,8.783,0,0,0,0,2.545,19.577,19.577,0,0,0,.1,2.47,22.112,22.112,0,0,0,.075,2.545,7.818,7.818,0,0,1,0,2.545,9.111,9.111,0,0,0,.1,2.47,8.65,8.65,0,0,1,0,2.545,8.568,8.568,0,0,1,.074,2.545,7.908,7.908,0,0,0,.048,2.62,6.377,6.377,0,0,0,.018,1.646,12.992,12.992,0,0,1,.088,1.871c-.013.674-.229,1.5.775,1.2a2.422,2.422,0,0,0,1.594-1.122c.436-.6.85-1.347,1.361-1.946a17.672,17.672,0,0,0,1.181-1.646l2-2.694,1.77-2.47a26.462,26.462,0,0,1,1.8-2.545,29.467,29.467,0,0,0,1.845-2.47,21.84,21.84,0,0,1,1.8-2.545c.916-.9,1.009-1.8,1.8-2.545a11.092,11.092,0,0,0,1.845-2.47,9.938,9.938,0,0,1,1.8-2.545,26.443,26.443,0,0,0,1.845-2.47,13.209,13.209,0,0,1,1.8-2.545A15.694,15.694,0,0,0,233.2,6.843c.542-.9,1.3-1.347,1.77-2.47a5.239,5.239,0,0,1,1.9-2.619c1.237-.749,2.844,0,3.966,0a29.978,29.978,0,0,1,3.668,0,12.359,12.359,0,0,0,4-.3c.951-.15,2.628-.449,3.835.374.837.6.277,2.4-1.03,2.919A12.981,12.981,0,0,1,248.852,5.346ZM153.135,15.9a10.558,10.558,0,0,1-1.972,3.892c-.256.3-.846,1.123-1.282,1.722a4.659,4.659,0,0,1-1.528,1.572c-.48.3-1.219,1.122-1.726,1.5-.66.6-1.237.749-1.8,1.273a12.642,12.642,0,0,1-1.968,1.122c-.96.6-1.532.524-2.113.9-.811.6-1.29.9-2.034.674-.348-.075-1.207.449-1.955.449-1.5,0-2.4.449-3.853.524a11.981,11.981,0,0,1-3.945.15c-.9,0-1.9.075-2.4,0a7.287,7.287,0,0,0-2.845,0,1.577,1.577,0,0,0-1.369,1.123c-.291.823-1,1.571-1.215,2.17-.48,1.572-1.431,2.994-1.374,3.892a18.666,18.666,0,0,1-1.321,3.742c-.582,1.646-.947,2.47-1.294,3.667-.264.749-1.061,1.946-.877,2.694.035.749-.251,1.348-.013,1.946.19.524.955.9,1.176,1.122.488.524,1.184.674,2.637.374a3.33,3.33,0,0,1,2.193.15,1.031,1.031,0,0,1,.519,1.5,2.675,2.675,0,0,1-1.9,1.571,8.365,8.365,0,0,1-2.624.225c-.6,0-2.052.3-2.619,0-.964-.449-1.743-.15-2.615-.225l-2.567-.15a15.441,15.441,0,0,0-2.6.15c-1.026.15-2,.15-2.7.225a7.682,7.682,0,0,1-2.62,0,13.963,13.963,0,0,1-2.51-.524c-.867-.3-.181-2.246,1-2.844a6.358,6.358,0,0,1,2.355-.524c.6,0,1.18-.374,1.752-.3a2.719,2.719,0,0,0,2.312-.824c.788-.748,1.193-1.047,1.409-1.871a19.864,19.864,0,0,1,1.026-2.694c.652-1.422.8-2.47,1.453-4.116.7-1.347.8-2.695,1.48-4.192.629-1.571.823-2.545,1.479-4.191.52-1.048,1-2.844,1.48-4.191l1.479-4.192c.4-1.122.982-2.994,1.48-4.191A15.608,15.608,0,0,1,120.221,15a23.432,23.432,0,0,0,1.48-4.192c.264-.748.59-2.1.876-2.694a2.217,2.217,0,0,0-.013-1.871c-.22-.224-.454-1.048-1.176-1.122a5.247,5.247,0,0,1-2.791-.15c-.718-.3-1.664-.374-1.321-1.347A2.332,2.332,0,0,1,118.408,1.9c.581-.374,1.325-.15,2.324-.225a12.7,12.7,0,0,1,2.4,0,12.805,12.805,0,0,0,2.4,0c1.026-.15,1.929-.374,2.4,0,.295.225,1.677-.3,2.272-.075a2.719,2.719,0,0,0,2.32,0,11.7,11.7,0,0,1,2.32,0c.9,0,1.523-.075,2.321,0,1.268.224,2.272-.075,3.491.075a26.616,26.616,0,0,0,3.487.3,7.464,7.464,0,0,1,3.178.749,8.225,8.225,0,0,0,1.51.6c.669.225.537.6,1.281.824s.815.449,1.228.973c.317.374.761.6,1,1.2.167.374.361.674.721,1.347.238.6.555.973.546,1.422.039.524-.216.824.268,1.572.317.374.031.973.018,1.647C153.809,13.354,153.333,14.7,153.135,15.9Zm-6.973-6.961c-.392-.374-.1-1.2-.643-1.571-.515-.449-.96-.674-1.149-1.2-.339-.524-1.334-.674-1.629-.9a4.56,4.56,0,0,0-2.061-.524l-2.567-.15c-1.422,0-2.822.15-3.271.15a6.571,6.571,0,0,0-2.408.674,3.767,3.767,0,0,0-1.854,1.646,19.885,19.885,0,0,0-1.33,2.919L127.8,14.1c-.555,1.572-.877,2.694-1.48,4.191a25.6,25.6,0,0,0-1.559,4.416l-.273,2.47c-.066.823-.075,1.272.674,1.272,1.844.075,3.395-.075,3.892,0a8.793,8.793,0,0,0,2.8-.075,8,8,0,0,0,2.7-.449,14.2,14.2,0,0,1,2.435-.748,5.746,5.746,0,0,0,2.091-1.048c.912-.674,1.563-.823,1.924-1.422.44-.823,1.145-1.122,1.709-1.871a8.824,8.824,0,0,0,1.417-2.32c.392-.9.885-1.871,1.2-2.769.449-1.272.806-1.646.775-2.619a14.608,14.608,0,0,1,.3-2.321C146.589,10.061,146.58,9.238,146.162,8.938ZM98.726,18.369a7.724,7.724,0,0,1-.145,2.32,16.553,16.553,0,0,1-.37,2.321,6.944,6.944,0,0,0-.546,2.395,7.212,7.212,0,0,1-.744,2.321,13.924,13.924,0,0,1-.92,2.4,23.644,23.644,0,0,0-1.119,2.32,21.266,21.266,0,0,1-1.294,2.4,9.061,9.061,0,0,1-1.493,2.32c-.99.9-1.1,1.647-1.717,2.321-.841.9-1.026,1.422-1.765,2.245-.511.6-1.29.9-1.964,2.171a10.126,10.126,0,0,1-2.034,1.946,19.355,19.355,0,0,0-2.158,1.871c-1.039.823-1.316.973-2.254,1.722-.432.374-1.638.823-2.4,1.5a7.161,7.161,0,0,1-2.47,1.273c-1.079.3-1.665.9-2.465,1.047-1.127.225-1.585.674-2.611.824a20.666,20.666,0,0,0-2.553.449,15.008,15.008,0,0,1-2.6.15c-1.176.15-1.541-.3-2.492-.15a2.842,2.842,0,0,1-2.236-.449c-.762-.6-1.387-.524-2.03-.824-.4-.15-1.206-.823-1.726-1.047-.766-.374-1.382-.749-1.572-1.273-.193-.3-1.056-.823-1.268-1.5a2.862,2.862,0,0,0-1.113-1.722,3.374,3.374,0,0,1-.837-1.871c-.062-.674-.629-.973-.634-2.021-.013-.6-.523-1.273-.457-2.1l-.181-2.245a5.6,5.6,0,0,1-.105-2.246c.185-.524-.04-1.8.247-2.4.493-.973.075-1.273.3-2.32a14.735,14.735,0,0,1,.546-2.4,6.7,6.7,0,0,1,.771-2.4,5.986,5.986,0,0,0,.893-2.321c.172-1.122.78-1.571,1.145-2.395.132-.374,1.035-1.871,1.294-2.4a10.465,10.465,0,0,1,1.493-2.321,18.765,18.765,0,0,0,1.643-2.32l1.84-2.246a11.067,11.067,0,0,1,1.937-2.1c.638-.749,1.55-1.422,2.034-1.946.357-.374,1.545-1.2,2.158-1.871A7.641,7.641,0,0,1,69,6.094a20.713,20.713,0,0,1,2.4-1.5c.956-.374,1.321-1.2,2.4-1.273a6.168,6.168,0,0,0,2.541-1.047c1.013-.749,1.682-.524,2.536-.824C79.478,1.229,80.2,1.3,81.5,1a8.958,8.958,0,0,1,2.6-.15A20.714,20.714,0,0,0,86.593,1c.924-.075,1.242.3,2.312.449.946.075,1.285.6,1.955.824a5.05,5.05,0,0,1,1.726,1.047c.515.449.933.749,1.571,1.273.44.449.78.973,1.343,1.5a5.414,5.414,0,0,1,1.039,1.722c.308.823.674,1.272.837,1.871.19.524.823,1.272.634,2.021a3.743,3.743,0,0,0,.457,2.1,8.467,8.467,0,0,1,.256,2.246C98.783,16.723,98.717,17.546,98.726,18.369Zm-7.194-5.913c-.291-.449-.053-1.123-.264-1.8L90.8,9.013a4.576,4.576,0,0,0-.621-1.422c-.414-.524-.427-1.122-.9-1.272-.669-.225-.88-.9-1.127-1.048-.515-.449-.586-.674-1.431-.823C86.055,4.223,85.7,4.373,85.012,4a4.206,4.206,0,0,0-1.968-.15A15.4,15.4,0,0,1,80.9,4c-.8-.075-.933.524-2.03.449-.947-.075-1.611.748-1.937.823-.8.15-1.087.749-1.84.973a2.891,2.891,0,0,0-1.8,1.273c-.766.9-1.039.823-1.651,1.5s-1.189.823-1.6,1.572a21.483,21.483,0,0,1-1.533,1.8,8.641,8.641,0,0,0-1.334,1.871,6.944,6.944,0,0,1-1.36,1.946c-.766.9-1.123,1.272-1.162,2.021a5.045,5.045,0,0,1-1.061,1.946,20.3,20.3,0,0,0-1.924,3.967c-.956,1.646-.925,2.619-1.445,3.667a38.237,38.237,0,0,0-1.2,3.817,28.844,28.844,0,0,0-.925,3.892c-.057.374-.524,1.272-.313,1.946.19.524-.15,1.273-.136,1.871a4.68,4.68,0,0,1-.062,1.871,2.115,2.115,0,0,0,.066,1.722c.162.6.053,1.123.264,1.8.259.748.053,1.122.568,1.571.3.225.383.824.669,1.5.167.374.713.524.973,1.272.211.674.409.749,1.1,1.123a7.24,7.24,0,0,1,1.457.748,3.71,3.71,0,0,0,1.612.524,6.455,6.455,0,0,0,1.866.225,9.869,9.869,0,0,0,3.478-.524,9.468,9.468,0,0,0,3.421-1.422c.783-.524,1.136-.674,1.717-1.048.405-.3,1.18-.374,1.62-1.2.26-.524.762-.674,1.449-1.347s1.043-1.048,1.373-1.347c.74-.823,1.325-1.422,1.762-2.021a14.409,14.409,0,0,0,1.462-2.021,20.835,20.835,0,0,1,1.413-2.1,14.755,14.755,0,0,1,1.29-2.17,8.205,8.205,0,0,0,1.141-2.17,9.944,9.944,0,0,1,.99-2.17,14.344,14.344,0,0,0,.916-2.17c.291-.824.427-1.422.766-2.171a23.881,23.881,0,0,0,1.118-3.593,14.322,14.322,0,0,0,.952-3.966,9.736,9.736,0,0,1,.313-1.946,4.885,4.885,0,0,1,.19-2.021,3.481,3.481,0,0,0,.088-1.946C91.457,13.728,91.946,12.98,91.532,12.456Zm-42.6-4.491a15.89,15.89,0,0,1-.163,3.218,21.156,21.156,0,0,1-.19,3.293c-.211.6-1.743,1.122-2.941,1.122-.674,0-.546-1.422-.709-2.021l-.762-1.871a10.672,10.672,0,0,0-.863-1.8A19.284,19.284,0,0,0,42.265,8.19c-.462-.6-1.18-.9-1.321-1.347-.119-.3-1.185-.674-1.55-1.123-.339-.524-.964-.449-1.858-.674l-2.289-.3a5.375,5.375,0,0,0-2.906.6c-.885.6-1.048,1.272-1.422,2.545-.4,1.122-.559,1.8-.793,2.245l-.792,2.246a9.474,9.474,0,0,0-.819,2.32c-.291.824-.551,1.348-.793,2.246-.136.6-.528,1.5-.819,2.321s-.506,1.646-.792,2.245l-.819,2.321a13.391,13.391,0,0,0-.793,2.245c-.163.674-.555,1.572-.819,2.321-.268.973-.625,1.347-.792,2.246a14.274,14.274,0,0,1-.819,2.32l-.793,2.246-.792,2.245c-.419.973-.661,1.871-.82,2.321a13.26,13.26,0,0,0-.792,2.246,13.3,13.3,0,0,1-.792,2.245,17.745,17.745,0,0,0-.9,2.769,1.934,1.934,0,0,0,.088,1.871c.119.3.127,1.122,1.175,1.122s1.409.674,2.712.374c.7-.075,1.259-.6,1.995.075S22.878,54,21.707,53.92a14.443,14.443,0,0,0-2.519-.075,7.953,7.953,0,0,1-2.694,0,10.281,10.281,0,0,0-2.615-.225c-1.048,0-1.863-.449-2.717-.15a11.212,11.212,0,0,1-2.6.15c-.8.15-1.871,0-2.774.225a8.123,8.123,0,0,1-2.694,0c-.749,0-1.431.449-2.549.225-1.268-.225-.119-2.845,1.044-3.593.986-.674,1.3-.075,2.4-.225a5.4,5.4,0,0,0,2.65-.3,5.4,5.4,0,0,0,2.043-1.123A21,21,0,0,0,9.943,46.96a17.075,17.075,0,0,0,1.026-2.694,8.922,8.922,0,0,0,.793-2.245,13.26,13.26,0,0,1,.792-2.246,9.413,9.413,0,0,0,.819-2.321c.062-.6.78-1.571.793-2.245a4.5,4.5,0,0,1,.792-2.246c.419-.973.256-1.572.819-2.32A13.4,13.4,0,0,0,16.57,28.4l.819-2.321c.238-.674.5-1.2.792-2.245A7,7,0,0,0,19,21.512a6.719,6.719,0,0,1,.792-2.245,9.543,9.543,0,0,0,.819-2.321,8.91,8.91,0,0,0,.793-2.246,7.172,7.172,0,0,1,.819-2.32l.792-2.246a8.94,8.94,0,0,1,.793-2.245c.44-.824.819-2.321.423-2.47a16.861,16.861,0,0,0-2.307-.674,6.649,6.649,0,0,0-2.5.3c-.5.15-1.154.3-2.408.674a11.065,11.065,0,0,0-2.391,1.048A25.639,25.639,0,0,0,12.4,8.19a15.5,15.5,0,0,0-2.3,1.646,14.736,14.736,0,0,0-2.206,1.8A21.412,21.412,0,0,0,5.71,13.579,7.1,7.1,0,0,1,3.574,15.6c-.629.3-2.316-.225-2.025-1.048.343-.973,1.568-2.32,2.061-3.293S5.252,8.938,5.719,8.04A35.433,35.433,0,0,1,7.827,4.822C8.5,3.774,8.929,2.127,9.91,1.678c.529-.225,1.519.15,2.47,0a14.808,14.808,0,0,1,2.5-.075,13.613,13.613,0,0,0,2.47,0,4.249,4.249,0,0,1,2.4,0c.419.3,1.828-.3,2.47,0a3.092,3.092,0,0,0,2.47,0,12.629,12.629,0,0,1,2.4,0,11.768,11.768,0,0,1,2.368.075A15.322,15.322,0,0,0,32.016,1.6c1.122,0,1.29.374,2.47,0a9.048,9.048,0,0,1,2.47,0h2.47c.9,0,1.748-.075,2.47,0s1.347,0,2.4,0c.9,0,1.369.15,2.444.075.726-.15,1.928-.374,2.47,0,.788.524.084,2.1-.136,3.144A5.422,5.422,0,0,0,48.931,7.965Z" transform="translate(0.006 -0.247)" fill="#fff" fill-rule="evenodd"/>
</svg>
