<svg xmlns="http://www.w3.org/2000/svg" width="520" height="54.662" viewBox="0 0 520 54.662">
  <g id="top_massage" data-name="top massage" transform="translate(-240 -1319.338)">
    <path id="パス_43765" data-name="パス 43765" d="M519.671,8.115a9.53,9.53,0,0,1,.013,3.144c-.145,1.048.929,2.245-.013,3.218a4.112,4.112,0,0,1-2.712.9c-1.4-.075-.515-1.721-1.1-2.619-.366-.449-.793-1.572-1.132-2.1-.357-.9-1.255-.9-1.264-1.722-.062-.674-.7-.973-1.369-1.422l-1.726-1.048a9.8,9.8,0,0,0-2.179-.823,5.54,5.54,0,0,0-2.611-.449c-.7.075-2.091-.224-3.091-.15a16.473,16.473,0,0,0-2.871.075,9.627,9.627,0,0,0-2.356.524,5.658,5.658,0,0,0-1.774,1.422,14.222,14.222,0,0,0-1.3,2.62c-.775,1.347-.775,2.62-1.4,3.967a12.359,12.359,0,0,0-1.427,4.042c-.432,1.646-1.03,2.919-1.48,4.191a5.778,5.778,0,0,0-.519,2.32c-.22,1.048-.3,1.273.3,1.273a12.141,12.141,0,0,1,3.32-.075,16.662,16.662,0,0,0,2.576-.3c.6,0,1.431-.449,2.1-.449a2.542,2.542,0,0,0,1.712-.823c.991-.9,2.123-1.347,2.893-2.47a7.85,7.85,0,0,0,1.436-1.946c.264-.749.268-2.246,1.571-2.545.727-.15,1.783-.6,2.47,0,.735.674-.608,1.722-.85,2.619-.124,1.2-.929,1.572-.85,2.62a11.512,11.512,0,0,1-.9,2.545l-.872,2.47c-.247,1.123-.89,2.1-.925,2.62a6.883,6.883,0,0,1-.9,2.545,12.931,12.931,0,0,0-1,2.619,9.126,9.126,0,0,1-1,2.62c-.537.674-2.382.6-2.5.075a4.088,4.088,0,0,1,.353-2.695,3.285,3.285,0,0,0-.009-2.1l-.37-1.5a1.248,1.248,0,0,0-.678-1.048,7.02,7.02,0,0,1-1.281-.823A4.825,4.825,0,0,0,494.261,29a17.026,17.026,0,0,1-2.316-.224,5.887,5.887,0,0,0-2.892-.075,2.408,2.408,0,0,0-1.646,1.273c-.211.6-.876,1.422-1.273,2.545-.343.973-.577,1.422-.792,2.245a13.382,13.382,0,0,1-.793,2.246c-.348,1.2-.978,2.769-1.533,4.341-.528,1.5-1.233,3.068-1.506,4.266s-.718,2.246-.726,2.695a2.494,2.494,0,0,0,.445,1.5c.242.374.616.374,1.585.6a9.379,9.379,0,0,0,2.717.15c1.5-.224,2.5-.075,3.6-.224a14.189,14.189,0,0,0,3.253-.524,24.143,24.143,0,0,0,3.161-.9c1.132-.449,1.761-.749,2.919-1.272a27.359,27.359,0,0,1,2.8-1.572c.806-.374,1.546-1.2,2.858-1.946.806-.374.889-.823,1.444-1.122s.44-.823,1.545-1.2a3.481,3.481,0,0,0,1.6-1.347,3.192,3.192,0,0,1,1.673-1.347,1.181,1.181,0,0,1,1.752.973A2.2,2.2,0,0,1,511,41.8c-.7.3-.951,1.422-1.281,1.722a4.5,4.5,0,0,0-1.207,1.722,11.964,11.964,0,0,1-1.206,1.721,16.871,16.871,0,0,1-2.435,3.293c-.638.749-.621,1.122-1.207,1.722-.559.524-.85,1.347-1.254,1.646s-1.77-.075-2.4,0a8.676,8.676,0,0,1-2.347.075c-.5-.075-1.523.075-2.32,0a11.376,11.376,0,0,0-2.321,0,6.338,6.338,0,0,1-2.4,0c-1.021-.075-1.6.075-2.32,0a12.494,12.494,0,0,1-2.4,0,7.983,7.983,0,0,0-2.32,0c-.925.075-1.347,0-2.321,0h-2.4a21.993,21.993,0,0,1-2.245,0,6.1,6.1,0,0,0-2.294-.075c-1.052.225-1.444-.15-2.373.15A8.074,8.074,0,0,1,469.5,54h-2.4a6.222,6.222,0,0,1-2.312-.449c-1.188-.449-1.281-.823-1.145-1.422.185-.524.916-.9,2.175-1.5a11.311,11.311,0,0,1,2.43-.524A7.618,7.618,0,0,1,470,49.8a3.36,3.36,0,0,0,2.312-.823l1.382-1.8c.515-.823.559-1.8,1.026-2.694.52-1.048.85-2.62,1.479-4.191a31.021,31.021,0,0,0,1.48-4.192,18.722,18.722,0,0,1,1.479-4.191,31.125,31.125,0,0,0,1.48-4.191,23.329,23.329,0,0,0,1.479-4.192c.295-1.047.947-2.47,1.48-4.191a23.314,23.314,0,0,1,1.479-4.191c.722-1.2.775-2.62,1.453-4.117a10.187,10.187,0,0,0,.9-2.769l-.013-1.871c.035-.524-.555-.973-1.176-1.122-.947-.075-1.722,0-2.919,0-1.571,0-2.281-.749-2.091-1.5.3-1.048.877-1.422,1.858-1.871.806-.374,1.523-.075,2.347-.075,1.149-.075,1.493.225,2.321,0a12,12,0,0,1,2.32,0h2.32a43.471,43.471,0,0,1,4.416,0,7.5,7.5,0,0,0,2.246,0,12.016,12.016,0,0,1,2.32,0,21.943,21.943,0,0,0,2.245,0,7.445,7.445,0,0,0,2.245,0c1.1-.15,1.092.3,2.32,0a21.951,21.951,0,0,1,2.246,0c.674,0,1.188.449,2.32,0a2.613,2.613,0,0,1,2.246,0c.445.225,1.9-.075,2.321,0,.92.15,1.528-.3,2.219.075.863.524.079,2.32.114,3.069A14.693,14.693,0,0,0,519.671,8.115Zm-57.424,6.137a4.194,4.194,0,0,1-2.717,1.122c-1.047,0-.4-1.2-.88-2.17a14.48,14.48,0,0,1-.982-2.1c-.356-.9-1.254-.9-1.21-1.871-.035-.749-.652-1.123-1.29-1.647s-1.074-1.2-1.567-1.5l-2-1.122a4.276,4.276,0,0,0-2.232-.674c-.524,0-1.691-.3-2.514-.3a4.485,4.485,0,0,0-2.149.15c-1.132.449-1.2,0-2.056.523a4.148,4.148,0,0,1-2.012.824c-.775.075-1.083.524-1.941,1.047a6.436,6.436,0,0,0-1.823,1.348c-.537.674-1.413.823-1.726,1.5a4.516,4.516,0,0,1-1.554,1.646,11.2,11.2,0,0,0-1.559,1.871c-.489.749-1.118,1.048-1.409,1.871a7.392,7.392,0,0,1-1.387,2.021,6.671,6.671,0,0,0-1.162,2.021c-.237.674-.929,1.572-1.114,2.1a3.373,3.373,0,0,1-1.013,2.021,8.443,8.443,0,0,0-.938,2.021,8.12,8.12,0,0,0-1.418,3.593c-.251,1.347-1,2.619-1.2,3.817s-.806,2.919-.9,4.042a3.394,3.394,0,0,1-.313,1.946,3.675,3.675,0,0,0-.163,1.946,3.964,3.964,0,0,0,.013,1.871,11.474,11.474,0,0,1,.115,1.8c-.062.6.475,1.2.343,1.572-.19.748.3,1.048.493,1.572.162.6.581.9.8,1.347.119.3.664.449.951,1.122.167.374,1.039.449,1.228.973.141.449.836.6,1.558.674a5.832,5.832,0,0,1,1.788.449,5.32,5.32,0,0,0,2.193.15c.951-.15,1.448-.075,2.149-.15s1.629-.374,2.029-.449a4.652,4.652,0,0,0,2.034-.674c.784-.524,1.286-.674,1.942-1.048.453-.224,1.167-.973,1.8-1.272s.889-.823,1.528-1.572.749-1.272,1.233-1.8a6.567,6.567,0,0,0,.964-2.1l1.03-2.919c.313-.674.532-1.722.876-2.694s.427-1.422.013-1.946c-.29-.449-.651-1.123-1.276-1.048-.749,0-1.81-.6-2.713-.374a2.864,2.864,0,0,1-1.968-.15c-.818-.225-1.179-.9-.893-1.5a2.266,2.266,0,0,1,2-1.647c2.954-.523,4.724-.449,5.217-.15.594.225,1.92.075,2.465.225a8.64,8.64,0,0,0,2.519.075c.951-.15,1.321.075,2.4,0s1.571,0,2.47,0,1.471.075,2.518.075c.824,0,2.127-.3,2.593.075.762.6-.792,2.245-1,2.844-.4,1.122-2.928.449-3.7.524a5.725,5.725,0,0,0-2.342,1.122,3.313,3.313,0,0,0-1.409,1.871,19.589,19.589,0,0,1-1.026,2.694c-.365.823-.714,2.021-1.057,2.994l-1.056,2.994c-.5,1.2-.744,2.32-1.084,3.069-.391.9-.55,2.62-1.132,2.994-.784.524-1.47-.075-2.4,0a9.272,9.272,0,0,0-2.474.225c-1.03.374-1.8.225-2.857.674a7.115,7.115,0,0,1-2.862.9,7.08,7.08,0,0,0-2.056.524,4.536,4.536,0,0,1-2,.374,23.986,23.986,0,0,0-4,.3c-.625.075-1.519-.15-2.492-.15a5.011,5.011,0,0,1-2.338-.374l-2.056-.749c-.66-.674-1.391-.3-1.854-.9A4.29,4.29,0,0,0,418.6,51.6c-.546-.15-.929-.973-1.4-1.347a5.858,5.858,0,0,1-1.167-1.572c-.361-.674-.748-1.272-.964-1.722a4.334,4.334,0,0,1-.687-1.871,6.945,6.945,0,0,0-.511-1.946c-.264-.524-.048-1.347-.207-2.17a3.628,3.628,0,0,1-.106-2.246,9.557,9.557,0,0,0,.194-2.246,23.265,23.265,0,0,1,.322-2.4,5.938,5.938,0,0,0,.572-2.47,10.055,10.055,0,0,1,.8-2.47c.467-.9.559-1.8,1-2.619a18.413,18.413,0,0,0,1.224-2.62c.423-1.2.951-1.422,1.448-2.619a5.967,5.967,0,0,1,1.647-2.545c.837-.674.978-1.5,1.77-2.47a12.419,12.419,0,0,0,1.968-2.4c.287-.6,1.475-1.422,2.241-2.32.889-.823,1.272-1.273,2.338-2.17.762-.674,1.039-.823,2.1-1.722a20.6,20.6,0,0,1,2.3-1.646c.48-.3,1.211-.674,2.272-1.348a9.237,9.237,0,0,1,2.47-1.272,13.179,13.179,0,0,0,2.439-.973c1.158-.524,1.854-.374,2.51-.749a3.634,3.634,0,0,1,2.4-.449c.572.075,1.651-.225,2.474-.225a16.167,16.167,0,0,1,2.541.225,6.979,6.979,0,0,1,2.333.6c1.065.374,1.739.374,1.959.6.343.3.621.15,1.519.15a15.954,15.954,0,0,0,2.751-.374c1.281-.449,2.369-1.2,2.888-.973,1.162.524.058,2.17.11,3.293l.088,3.144c-.013.674.33.973-.031,1.572a2.825,2.825,0,0,0,.018,1.646C462.37,11.783,463.188,13.279,462.246,14.252ZM395.882,53.547a3.9,3.9,0,0,1-2.47,0,6,6,0,0,0-2.32,0,11.258,11.258,0,0,0-2.245,0,13.565,13.565,0,0,1-2.47,0,8.554,8.554,0,0,1-2.4,0c-.889-.449-1.646,0-2.47,0-.674,0-2.328.449-2.443-.075a3.279,3.279,0,0,1,1.03-2.919c.532-.449,1.9-.075,2.6-.15a8.4,8.4,0,0,0,2-.374c1.259-.6,2.017-1.047,2.232-1.871a4.228,4.228,0,0,0,.388-1.946,5.963,5.963,0,0,1,.136-1.871,10.511,10.511,0,0,0,.128-2.694c-.057-.9.339-2.021.154-2.769a2.719,2.719,0,0,0-1.008-2.021,9.308,9.308,0,0,0-2-1.122c-.893-.225-2.325.224-2.844,0a11.963,11.963,0,0,0-2.844,0c-1.1-.075-2.1,0-2.845,0h-2.844a5.476,5.476,0,0,0-2.791,1.122,11.953,11.953,0,0,0-2.51,2.021c-.542.9-1.211,1.946-1.8,2.769a13.889,13.889,0,0,0-1.774,2.694c-.211.6-.722,1.2-1.167,2.246a3.633,3.633,0,0,0-.339,2.021c.008.823.282.9.95,1.122a2.587,2.587,0,0,0,1.735.6,4.548,4.548,0,0,1,2.241.224c.837.6-.471,2.4-1.03,2.919-1.092.973-2.8.075-3.993.075h-7.784c-1.2,0-3.535.9-3.94-.075a3.6,3.6,0,0,1,1.03-2.919,3.961,3.961,0,0,1,3.007-.674c1.026-.15,1.515-.9,2.171-1.272s.814-.823,1.58-1.722c.383-.449.978-1.5,1.77-2.47a10.356,10.356,0,0,0,1.823-2.619,7.41,7.41,0,0,1,1.748-2.62c.308-.449,1.488-2.1,1.823-2.619.643-.973,1.185-1.871,1.849-2.694a16.427,16.427,0,0,0,1.748-2.62c.647-1.2,1.351-1.5,1.823-2.62.365-.823,1.1-1.422,1.774-2.694a18.475,18.475,0,0,1,1.823-2.619c.744-1.048,1.259-1.871,1.748-2.62.542-.9,1.33-1.646,1.849-2.694.7-1.122,1.105-1.646,1.823-2.62a14.688,14.688,0,0,1,1.748-2.619,17.292,17.292,0,0,0,1.849-2.694,21.492,21.492,0,0,1,1.722-2.545c.714-.749,1.339-2.1,1.849-2.694.718-.973.938-2.021,1.924-2.695a6.578,6.578,0,0,1,3.311-.9c1.3-.3,2.845-1.273,3.311-.9.638.524.084,2.1,0,2.769-.048,1.2.009,2.1-.105,2.844a13.877,13.877,0,0,0-.053,2.694,5.477,5.477,0,0,1-.079,2.769,20.894,20.894,0,0,0-.079,2.769,8.392,8.392,0,0,0-.128,2.694,10.283,10.283,0,0,1-.079,2.769l-.079,2.769a6.123,6.123,0,0,0-.079,2.769c.084.823-.084,1.722-.079,2.769a13.671,13.671,0,0,0-.154,2.769c0,1.273.013,1.871-.053,2.694a6.847,6.847,0,0,0-.079,2.769,10.337,10.337,0,0,1-.079,2.769,7.99,7.99,0,0,1-.128,2.694,4.282,4.282,0,0,0-.079,2.769,12.952,12.952,0,0,1-.159,2.994,2.381,2.381,0,0,0,.391,1.646c.168.374.986.6,1.378.973.343.3,2.206-.524,2.884.524.436.674-.361,1.871-1.03,2.919S396.912,53.172,395.882,53.547Zm-7.557-43.261c-.726.15-.982.449-1.9,1.572a16.816,16.816,0,0,0-1.642,2.321,10.788,10.788,0,0,1-1.312,2.021,12.127,12.127,0,0,0-2.312,3.368,24.694,24.694,0,0,1-2.184,3.218c-.515.823-1.62,2.47-2.184,3.218a10.223,10.223,0,0,0-1.849,2.694,2.922,2.922,0,0,0-.044,2.246,2.961,2.961,0,0,0,2.074,1.122,12.651,12.651,0,0,0,3.368,0c1-.075,2.417.15,3.368,0a5.741,5.741,0,0,0,2.866-1.122,4.184,4.184,0,0,0,1.59-2.17A9.331,9.331,0,0,0,388.315,26a11.025,11.025,0,0,1,.163-3.218c.172-1.123-.013-1.871.238-3.218a21.274,21.274,0,0,0,.141-3.368,7.88,7.88,0,0,1,.19-2.021,6.621,6.621,0,0,0,.07-2.321C389.139,10.735,389.153,10.061,388.324,10.285Zm-32.9,4.266A3.165,3.165,0,0,1,352.78,15.9c-.973,0-.374-1.272-.806-2.17l-.907-2.1c-.33-.973-.827-1.048-1.035-1.946a2.829,2.829,0,0,0-1.215-1.646c-.766-.374-.752-1.048-1.567-1.5a14.293,14.293,0,0,1-1.924-1.122,2.917,2.917,0,0,0-2.131-.749c-.9,0-1.712-.449-2.439-.3a30.949,30.949,0,0,1-3.681.674c-.849.075-1.109.6-1.686.749a3.692,3.692,0,0,0-1.643,1.048c-.506.374-.735.6-1.5,1.272-.66.6-.766.9-1.325,1.422a7.219,7.219,0,0,0-1.889,3.443c-.343.973-.9,1.272-.414,2.021.242.374-.1,1.347.065,1.722.308.823.225,1.272.445,1.5.564.524.379,1.048.872,1.347a10.9,10.9,0,0,1,1.2,1.048,3.98,3.98,0,0,0,1.4.9c.669.225.837.6,1.633.674a11.173,11.173,0,0,0,1.762.524c.823,0,1.606.749,2.5.749.973,0,1.339.449,2.232.674a8.411,8.411,0,0,1,2.281.748c.418.3,1.457.749,1.951,1.048.74.449,1.73.823,1.743,1.422s.814.449.876,1.122c.11.749.532.823.748,1.273.361.674.277,1.122.5,1.347.563.524.356.9.295,1.5-.049,1.2-.119,2.246-.088,3.218a8.469,8.469,0,0,1-.815,3.368,32.317,32.317,0,0,1-1.383,3.069,10.841,10.841,0,0,1-1.854,2.919c-.612.674-1.633,1.871-2.347,2.62-.942.973-1.875,1.5-2.717,2.4a16.981,16.981,0,0,1-2.906,1.871c-1.338.823-2.215.973-3.148,1.5a11.347,11.347,0,0,1-3.262.973,16.211,16.211,0,0,1-3.175.3,23.741,23.741,0,0,0-2.963-.3c-.9,0-1.757-.749-2.624-1.048-1.066-.374-1.7-.9-2.052-.973-.546-.15-.889-.449-1.616-.3a5.974,5.974,0,0,0-2.585.748c-1.541.973-2.228,1.647-3.275,1.647-.524,0,.044-.973.008-1.722a15.758,15.758,0,0,0-.066-1.722,9.585,9.585,0,0,1-.066-1.722c-.013-.6.2-1.422.009-1.722-.317-.374-.123-1.347.009-1.722a2.679,2.679,0,0,0-.066-1.722,2.553,2.553,0,0,1,.035-1.8c.11-.524-.273-1.347.036-1.8.334-.523,1.677-1.571,2.642-1.122.841.374.77,1.422.977,2.32a15.119,15.119,0,0,0,1.132,2.1c.431.9,1.021,1.347,1.307,2.021.7.973,1.1,1.123,1.563,1.722.436.674,1.03.9,1.867,1.5a7.437,7.437,0,0,0,2.122,1.2l2.43.749a6.147,6.147,0,0,0,2.615.224,9.586,9.586,0,0,0,2.074-.15c.577-.15,1.448-.075,2.007-.6A8.374,8.374,0,0,1,334.9,49.8a5.294,5.294,0,0,0,1.845-1.2c.762-.674,1.414-.823,1.673-1.347.414-.749.943-.973,1.48-1.647a13.918,13.918,0,0,0,1.158-1.8c.414-.749.577-1.422.863-2.021a9.929,9.929,0,0,0,.687-3.218c.216-.823-.317-1.646-.427-2.4a2.747,2.747,0,0,0-1.21-1.871A14.966,14.966,0,0,0,339,32.889a6.938,6.938,0,0,0-2.373-1.122c-.7-.15-1.858-.674-2.6-.9-.942-.3-2.139-.3-2.628-.823-.414-.524-1.686-.524-2.527-.9a11.818,11.818,0,0,1-1.9-.973c-.3-.225-1.436-.6-1.7-1.122-.237-.6-.682-.823-1.321-1.347a3.771,3.771,0,0,1-1.017-1.572,2.414,2.414,0,0,1-.638-1.8c-.009-.823-.5-1.347-.158-2.1.291-.823-.075-1.273.194-2.246a13.82,13.82,0,0,1,.7-2.62,12.025,12.025,0,0,1,1.277-2.769,27.248,27.248,0,0,1,1.748-2.62,12.608,12.608,0,0,1,2.144-2.47,21.434,21.434,0,0,0,2.413-2.17,7.038,7.038,0,0,1,2.655-1.8,16.6,16.6,0,0,1,2.9-1.422,17.926,17.926,0,0,1,2.91-.823,23.836,23.836,0,0,1,2.9-.374c.9,0,1.889.374,2.439.3.877-.15,1.436.6,2.008.674a17.272,17.272,0,0,0,1.858.674,8.739,8.739,0,0,0,1.941.225,11.841,11.841,0,0,0,2.531-.6c.925-.075,1.929-1.646,2.69-1.048.542.374-.343.973.018,1.647a2.337,2.337,0,0,1,.018,1.646c-.233.449.027,1.2.018,1.646a4.613,4.613,0,0,0,.018,1.646,3.913,3.913,0,0,1,.018,1.647c-.136.6.123,1.347-.009,1.722C355.171,12.307,356.021,13.5,355.426,14.552Zm-46.437,0a3.165,3.165,0,0,1-2.646,1.347c-.973,0-.374-1.272-.806-2.17l-.907-2.1c-.33-.973-.827-1.048-1.035-1.946a2.831,2.831,0,0,0-1.215-1.646c-.766-.374-.753-1.048-1.567-1.5a14.291,14.291,0,0,1-1.924-1.122,2.917,2.917,0,0,0-2.131-.749c-.9,0-1.712-.449-2.439-.3a30.936,30.936,0,0,1-3.681.674c-.85.075-1.109.6-1.686.749a3.694,3.694,0,0,0-1.642,1.048c-.506.374-.735.6-1.5,1.272-.66.6-.766.9-1.325,1.422A7.219,7.219,0,0,0,282.6,12.98c-.343.973-.9,1.272-.414,2.021.242.374-.1,1.347.066,1.722.308.823.225,1.272.445,1.5.564.524.379,1.048.872,1.347a10.96,10.96,0,0,1,1.2,1.048,3.979,3.979,0,0,0,1.4.9c.669.225.837.6,1.633.674a11.184,11.184,0,0,0,1.761.524c.824,0,1.607.749,2.505.749.973,0,1.339.449,2.232.674a8.411,8.411,0,0,1,2.281.748c.418.3,1.457.749,1.951,1.048.74.449,1.73.823,1.743,1.422s.814.449.876,1.122c.11.749.532.823.748,1.273.361.674.277,1.122.5,1.347.563.524.356.9.294,1.5-.048,1.2-.119,2.246-.088,3.218a8.47,8.47,0,0,1-.815,3.368,32.316,32.316,0,0,1-1.383,3.069,10.841,10.841,0,0,1-1.854,2.919c-.612.674-1.633,1.871-2.347,2.62-.942.973-1.875,1.5-2.717,2.4a16.982,16.982,0,0,1-2.906,1.871c-1.338.823-2.215.973-3.148,1.5a11.345,11.345,0,0,1-3.263.973,16.2,16.2,0,0,1-3.174.3,23.74,23.74,0,0,0-2.963-.3c-.9,0-1.757-.749-2.624-1.048-1.066-.374-1.7-.9-2.052-.973-.546-.15-.889-.449-1.616-.3a5.974,5.974,0,0,0-2.585.748c-1.541.973-2.228,1.647-3.276,1.647-.524,0,.044-.973.009-1.722a15.751,15.751,0,0,0-.066-1.722,9.529,9.529,0,0,1-.066-1.722c-.013-.6.2-1.422.009-1.722-.317-.374-.123-1.347.009-1.722a2.679,2.679,0,0,0-.066-1.722,2.553,2.553,0,0,1,.035-1.8c.11-.524-.273-1.347.035-1.8.335-.523,1.678-1.571,2.642-1.122.841.374.771,1.422.978,2.32a15.122,15.122,0,0,0,1.132,2.1c.431.9,1.021,1.347,1.307,2.021.7.973,1.1,1.123,1.563,1.722.436.674,1.03.9,1.867,1.5a7.429,7.429,0,0,0,2.122,1.2l2.43.749a6.147,6.147,0,0,0,2.615.224,9.578,9.578,0,0,0,2.073-.15c.577-.15,1.449-.075,2.008-.6a8.373,8.373,0,0,1,1.937-.823,5.294,5.294,0,0,0,1.844-1.2c.762-.674,1.413-.823,1.673-1.347.414-.749.943-.973,1.48-1.647a13.99,13.99,0,0,0,1.158-1.8c.414-.749.577-1.422.863-2.021a9.93,9.93,0,0,0,.687-3.218c.216-.823-.317-1.646-.427-2.4a2.747,2.747,0,0,0-1.21-1.871,14.966,14.966,0,0,0-1.968-1.422,6.943,6.943,0,0,0-2.373-1.122c-.7-.15-1.858-.674-2.6-.9-.942-.3-2.14-.3-2.628-.823-.414-.524-1.686-.524-2.527-.9a11.855,11.855,0,0,1-1.9-.973c-.3-.225-1.435-.6-1.7-1.122-.237-.6-.683-.823-1.321-1.347a3.771,3.771,0,0,1-1.017-1.572,2.414,2.414,0,0,1-.638-1.8c-.008-.823-.5-1.347-.158-2.1.29-.823-.075-1.273.194-2.246a13.762,13.762,0,0,1,.7-2.62,12.029,12.029,0,0,1,1.278-2.769,27.248,27.248,0,0,1,1.748-2.62,12.61,12.61,0,0,1,2.144-2.47,21.435,21.435,0,0,0,2.413-2.17,7.038,7.038,0,0,1,2.655-1.8,16.6,16.6,0,0,1,2.9-1.422,17.924,17.924,0,0,1,2.91-.823,23.82,23.82,0,0,1,2.9-.374c.9,0,1.889.374,2.439.3.876-.15,1.436.6,2.008.674a17.267,17.267,0,0,0,1.858.674,8.739,8.739,0,0,0,1.941.225,11.841,11.841,0,0,0,2.531-.6c.925-.075,1.929-1.646,2.69-1.048.542.374-.343.973.018,1.647a2.338,2.338,0,0,1,.018,1.646c-.233.449.027,1.2.018,1.646a4.6,4.6,0,0,0,.018,1.646,3.913,3.913,0,0,1,.018,1.647c-.137.6.123,1.347-.009,1.722C308.734,12.307,309.583,13.5,308.989,14.552Zm-46.1-.075a4.113,4.113,0,0,1-2.712.9c-1.4-.075-.515-1.721-1.1-2.619-.365-.449-.792-1.572-1.132-2.1-.356-.9-1.255-.9-1.263-1.722-.062-.674-.7-.973-1.37-1.422l-1.726-1.048a9.8,9.8,0,0,0-2.179-.823A5.542,5.542,0,0,0,248.8,5.2c-.7.075-2.092-.224-3.091-.15a16.472,16.472,0,0,0-2.871.075,9.629,9.629,0,0,0-2.355.524,5.644,5.644,0,0,0-1.774,1.422,14.187,14.187,0,0,0-1.3,2.62c-.775,1.347-.775,2.62-1.4,3.967A12.346,12.346,0,0,0,234.58,17.7c-.432,1.646-1.03,2.919-1.48,4.191a5.788,5.788,0,0,0-.52,2.32c-.22,1.048-.3,1.273.3,1.273a12.146,12.146,0,0,1,3.32-.075,16.656,16.656,0,0,0,2.575-.3c.6,0,1.431-.449,2.1-.449a2.542,2.542,0,0,0,1.712-.823c.991-.9,2.122-1.347,2.893-2.47a7.848,7.848,0,0,0,1.435-1.946c.264-.749.269-2.246,1.572-2.545.726-.15,1.783-.6,2.47,0,.735.674-.608,1.722-.85,2.619-.124,1.2-.929,1.572-.85,2.62a11.544,11.544,0,0,1-.9,2.545l-.872,2.47c-.247,1.123-.889,2.1-.924,2.62a6.883,6.883,0,0,1-.9,2.545,12.933,12.933,0,0,0-1,2.619,9.144,9.144,0,0,1-1,2.62c-.537.674-2.382.6-2.5.075a4.092,4.092,0,0,1,.352-2.695,3.285,3.285,0,0,0-.008-2.1l-.37-1.5a1.248,1.248,0,0,0-.678-1.048,7.042,7.042,0,0,1-1.281-.823A4.818,4.818,0,0,0,237.476,29a17.027,17.027,0,0,1-2.316-.224,5.888,5.888,0,0,0-2.892-.075,2.409,2.409,0,0,0-1.647,1.273c-.211.6-.876,1.422-1.272,2.545-.343.973-.577,1.422-.793,2.245a13.381,13.381,0,0,1-.792,2.246c-.348,1.2-.978,2.769-1.533,4.341-.528,1.5-1.233,3.068-1.506,4.266s-.718,2.246-.727,2.695a2.5,2.5,0,0,0,.445,1.5c.242.374.617.374,1.585.6a9.376,9.376,0,0,0,2.716.15c1.5-.224,2.5-.075,3.6-.224A14.189,14.189,0,0,0,235.6,49.8a24.107,24.107,0,0,0,3.161-.9c1.132-.449,1.762-.749,2.919-1.272a27.3,27.3,0,0,1,2.8-1.572c.806-.374,1.545-1.2,2.857-1.946.806-.374.889-.823,1.444-1.122s.44-.823,1.545-1.2a3.485,3.485,0,0,0,1.6-1.347,3.192,3.192,0,0,1,1.673-1.347,1.182,1.182,0,0,1,1.752.973,2.206,2.206,0,0,1-1.132,1.722c-.7.3-.951,1.422-1.282,1.722a4.492,4.492,0,0,0-1.206,1.722,11.979,11.979,0,0,1-1.207,1.721,16.862,16.862,0,0,1-2.434,3.293c-.638.749-.621,1.122-1.207,1.722-.559.524-.85,1.347-1.255,1.646s-1.77-.075-2.4,0a8.676,8.676,0,0,1-2.347.075c-.5-.075-1.523.075-2.32,0a11.371,11.371,0,0,0-2.32,0,6.339,6.339,0,0,1-2.4,0c-1.021-.075-1.6.075-2.32,0a12.494,12.494,0,0,1-2.4,0,7.986,7.986,0,0,0-2.321,0c-.924.075-1.347,0-2.32,0h-2.4a22,22,0,0,1-2.245,0,6.092,6.092,0,0,0-2.293-.075c-1.053.225-1.444-.15-2.373.15A8.079,8.079,0,0,1,212.71,54h-2.4A6.221,6.221,0,0,1,208,53.547c-1.189-.449-1.281-.823-1.145-1.422.185-.524.916-.9,2.175-1.5a11.3,11.3,0,0,1,2.43-.524,7.613,7.613,0,0,1,1.752-.3,3.36,3.36,0,0,0,2.312-.823l1.383-1.8c.515-.823.559-1.8,1.026-2.694.52-1.048.85-2.62,1.48-4.191a31.021,31.021,0,0,0,1.479-4.192,18.756,18.756,0,0,1,1.48-4.191,31.119,31.119,0,0,0,1.479-4.191,23.33,23.33,0,0,0,1.48-4.192c.295-1.047.947-2.47,1.479-4.191a23.316,23.316,0,0,1,1.48-4.191c.722-1.2.775-2.62,1.453-4.117a10.186,10.186,0,0,0,.9-2.769l-.013-1.871c.035-.524-.555-.973-1.175-1.122-.947-.075-1.722,0-2.919,0-1.572,0-2.281-.749-2.091-1.5.295-1.048.876-1.422,1.858-1.871.806-.374,1.523-.075,2.347-.075,1.149-.075,1.493.225,2.32,0a12.006,12.006,0,0,1,2.321,0h2.32a43.471,43.471,0,0,1,4.416,0,7.5,7.5,0,0,0,2.245,0,12.016,12.016,0,0,1,2.32,0,21.946,21.946,0,0,0,2.245,0,7.445,7.445,0,0,0,2.246,0c1.1-.15,1.092.3,2.32,0a21.949,21.949,0,0,1,2.245,0c.674,0,1.188.449,2.32,0a2.612,2.612,0,0,1,2.245,0c.445.225,1.9-.075,2.32,0,.92.15,1.528-.3,2.219.075.863.524.079,2.32.115,3.069a14.7,14.7,0,0,0,.013,3.143,9.545,9.545,0,0,1,.013,3.144C262.753,12.307,263.827,13.5,262.885,14.477ZM210.937,5.346c-1.207.449-1.374.075-1.752.3-.629.3-1.545-.075-2.36.748a7.637,7.637,0,0,0-1.409,1.871c-.313.674-.735,1.871-1.026,2.694a30,30,0,0,1-1.453,4.117,10.348,10.348,0,0,0-1.48,4.192,23.316,23.316,0,0,1-1.479,4.191L198.5,27.65a23.346,23.346,0,0,1-1.479,4.192c-.7,1.571-.925,2.619-1.48,4.191-.634,1.8-1.233,3.069-1.479,4.191a18.713,18.713,0,0,1-1.48,4.191c-.775,1.348-.462,1.946-.9,2.769a2.141,2.141,0,0,0,.013,1.871c.141.449,1.132.823,1.73.823a5.7,5.7,0,0,1,2.417.15c1.017.3,1,1.2.912,1.871a2.181,2.181,0,0,1-1.03,1.647,3.305,3.305,0,0,1-2.245,0,14.418,14.418,0,0,0-2.545,0c-.722-.075-1.6.075-2.62,0-.647-.075-2.021,0-2.619,0-.9,0-1.448.075-2.448.15a5.576,5.576,0,0,0-2.624.224c-.929.3-1.62-.075-2.62,0a2.854,2.854,0,0,1-2.461-.449c-.858-.748-.053-2.4,1.03-2.919s1.977-.3,2.43-.524a2.378,2.378,0,0,1,1.752-.3,2.816,2.816,0,0,0,2.312-.823c.537-.674,1.013-.749,1.281-1.722.317-.9.731-1.646,1.127-2.769.264-.748.709-1.8.872-2.47.114-.749.828-1.5.872-2.47.11-.524.5-1.422.845-2.4l.872-2.47c.4-1.122.827-1.5.872-2.47a8.15,8.15,0,0,1,.872-2.47c.445-1.048.634-1.8.872-2.47.185-.524.48-1.572.872-2.47.471-1.122.15-1.272.9-2.545a8.629,8.629,0,0,0,.9-2.545c.088-.674.7-1.571,1-2.844a17.231,17.231,0,0,1,1.11-3.143c.78-1.572,1.211-3.218,1-3.668-.313-.6-.313-.6-1.356.449-.612.674-.568.973-1.409,1.871-.691.9-.744,1.047-1.206,1.721-.85,1.347-1.616,2.246-2.232,3.144a35.061,35.061,0,0,0-2.179,2.994c-.568.973-1.559,1.871-2.206,3.069a27.553,27.553,0,0,1-2.1,2.994c-.845,1.122-1.382,1.8-2.206,3.068-.819,1.048-1.467,2.246-2.179,2.994-.74.823-1.387,2.021-2.206,3.069a22.13,22.13,0,0,0-2.1,2.994,26.182,26.182,0,0,1-2.206,3.069c-.612.674-1.387,2.021-2.179,2.994a16.461,16.461,0,0,0-2.078,2.919,26.283,26.283,0,0,1-1.871,3.817,4.448,4.448,0,0,1-2.743,2.47c-.529.225-.964-.449-1.259-.674-.59-.449-.159-.823-.092-1.646.008-.449.48-1.572.339-2.021-.163-.6.119-.973.185-1.8a10.681,10.681,0,0,0-.317-2.918,16.611,16.611,0,0,1-.216-2.994c.039-.748-.19-1.8-.216-2.994a23.26,23.26,0,0,0-.216-2.994,22.184,22.184,0,0,0-.141-2.994l-.141-2.994a28.5,28.5,0,0,1-.141-2.994,16.887,16.887,0,0,1-.066-2.994c.176-1.347-.207-2.17-.114-3.069a14.921,14.921,0,0,1-.093-2.919,7.52,7.52,0,0,0-.039-3.069,3.482,3.482,0,0,1-.066-1.722,9.05,9.05,0,0,1-.013-1.871c.321-1.122-.4-1.2-.634-.748a18.142,18.142,0,0,0-1.735,3.218,21.471,21.471,0,0,0-1,2.844c-.322,1.123-.582,1.646-.9,2.545a5.16,5.16,0,0,1-.846,2.4,13.339,13.339,0,0,0-.792,2.246c-.4,1.122-.428,1.422-.793,2.246-.546,1.122-.326,1.347-.792,2.245a8.926,8.926,0,0,0-.793,2.246l-.792,2.246c-.48,1.572-1.162,3.293-1.559,4.416a35.8,35.8,0,0,0-1.585,4.491,25.971,25.971,0,0,1-1.035,3.143,3.778,3.778,0,0,0-.405,2.844c.163.6.027,1.2.714,1.8.515.449,1.743.15,2.633.6.519.225,1.4,1.123,1.114,1.722-.133.374-.687,1.946-1.493,2.32s-.818-.224-1.342-.224a10.477,10.477,0,0,1-2.171,0c-1.391-.3-3.223.224-4.191,0-.947-.075-2.4,0-4.042,0-1.246-.075-3.3.449-3.936-.3-.585-.674.141-2.1.652-2.694.638-.748,2-.374,2.43-.524.6-.224,1.361-.674,1.937-.823a4.2,4.2,0,0,0,2.585-2.021c.414-.748,1.255-1.646,1.827-2.844.392-.9.841-2.17,1.207-2.994.343-.973,1.026-2.695,1.348-3.817a19.381,19.381,0,0,1,1.347-3.817,18.418,18.418,0,0,0,1.321-3.742,38.629,38.629,0,0,1,1.347-3.817,38.563,38.563,0,0,1,1.348-3.817c.4-1.571.893-2.32,1.347-3.817.427-1.422,1-2.62,1.347-3.817l1.321-3.742a14.387,14.387,0,0,0,.854-2.844,12.672,12.672,0,0,0-.013-1.871c-.084-.823-.762-.6-1.2-1.048-.221-.224-1.546-.075-2.616-.224-.647-.075-1.365-.374-1.3-1.2a3.873,3.873,0,0,1,1.264-2.1c1.242-.973,2.189.374,3.567.075a9.362,9.362,0,0,1,3.817,0c.819.224,2.972-.15,3.892,0,1.242.3,3.113-.973,3.94.075.634.749,0,1.5.075,2.545a14.73,14.73,0,0,1,.026,2.47,5.186,5.186,0,0,0,.074,2.545c.031.973-.013,1.946.027,2.47a7.278,7.278,0,0,1,.074,2.545,8.786,8.786,0,0,0,0,2.545,19.46,19.46,0,0,0,.1,2.47,21.977,21.977,0,0,0,.074,2.545,7.818,7.818,0,0,1,0,2.545,9.111,9.111,0,0,0,.1,2.47,8.65,8.65,0,0,1,0,2.545,8.568,8.568,0,0,1,.075,2.545,7.875,7.875,0,0,0,.048,2.62,6.377,6.377,0,0,0,.018,1.646,13.081,13.081,0,0,1,.088,1.871c-.013.674-.229,1.5.775,1.2a2.424,2.424,0,0,0,1.594-1.122c.436-.6.85-1.347,1.361-1.946a17.545,17.545,0,0,0,1.18-1.646l2-2.694,1.77-2.47a26.587,26.587,0,0,1,1.8-2.545,29.73,29.73,0,0,0,1.845-2.47,21.768,21.768,0,0,1,1.8-2.545c.916-.9,1.009-1.8,1.8-2.545a11.071,11.071,0,0,0,1.845-2.47,9.941,9.941,0,0,1,1.8-2.545,26.44,26.44,0,0,0,1.845-2.47,13.232,13.232,0,0,1,1.8-2.545,15.621,15.621,0,0,0,1.871-2.545c.542-.9,1.3-1.347,1.77-2.47a5.242,5.242,0,0,1,1.9-2.619c1.238-.749,2.845,0,3.967,0a29.968,29.968,0,0,1,3.667,0,12.362,12.362,0,0,0,4-.3c.951-.15,2.628-.449,3.834.374.837.6.277,2.4-1.03,2.919A12.977,12.977,0,0,1,210.937,5.346ZM113.8,14.851c-.392.9-.78,1.571-.99,2.17a6.4,6.4,0,0,1-1.339,2.1c-.714.749-.929,1.572-1.559,1.871a7.128,7.128,0,0,0-1.88,1.722,5.9,5.9,0,0,1-2.127,1.572,8.924,8.924,0,0,1-2.245,1.273,6.415,6.415,0,0,0-2.567,1.122c-1.211.674-1.677.3-2.76.823a6.808,6.808,0,0,0-1.995,1.2,1.546,1.546,0,0,0-.537,1.946,6.2,6.2,0,0,1,.52,1.5c.11.748-.119.973.268,1.571a12,12,0,0,1,.48,2.246,6.627,6.627,0,0,0,.431,2.17c.256.973.22,1.5.383,2.1a5.3,5.3,0,0,0,.383,2.1c.462.6.1,1.422.484,2.021a8.721,8.721,0,0,1,.62,2.694,3.9,3.9,0,0,0,1.013,1.8,6.878,6.878,0,0,0,1.823,1.2c.493.3,2.4,0,2.985.449.981.823.233,2.1-.133,2.919s-2.1.224-3.17.075-2.448.15-3.095.075l-2.968-.075c-.973,0-2.434.749-3.069,0a2.563,2.563,0,0,1-.268-1.572c-.009-.823-.33-.973-.343-1.571a5.315,5.315,0,0,0-.295-1.5c-.237-.6-.581-.9-.343-1.571s-.233-.823-.268-1.572c-.008-.823-.233-.823-.343-1.572a5.867,5.867,0,0,1-.294-1.5,2.41,2.41,0,0,0-.269-1.572,6.844,6.844,0,0,1-.343-1.571c-.163-.6-.559-.749-.269-1.572.11-.524-.158-.823-.343-1.572a5.713,5.713,0,0,1-.295-1.5,7.987,7.987,0,0,0-.431-2.17,9.509,9.509,0,0,1-.335-2.021,4.225,4.225,0,0,0-2.034-1.871,17.837,17.837,0,0,1-2.021,0c-.572-.075-.907.449-1.546,1.2a9.858,9.858,0,0,0-1.343,2.32c-.656,1.646-1.03,2.919-1.453,4.117a27.641,27.641,0,0,0-1.4,3.966,41.792,41.792,0,0,1-1.4,3.967,11.819,11.819,0,0,0-.876,2.694,7.451,7.451,0,0,0,.013,1.871c.066.449.586.674,1.25,1.122.343.3,1.475-.15,2.342.15,1.215.374,1,2.245.039,3.068-1.066.9-1.347,0-2.4.225a9.744,9.744,0,0,1-2.5.075c-.9,0-1.321-.075-2.47,0a12.782,12.782,0,0,1-2.395,0,5.372,5.372,0,0,0-2.6.15c-1.255.374-1.519-.15-2.522.15a3.79,3.79,0,0,1-2.571.075c-1.066-.374-1.9.075-2.434-.523-.66-.674-.1-2.47,1-2.845a6.781,6.781,0,0,1,2.457-.6,3.185,3.185,0,0,0,1.726-.225c1.312-.748,1.981-.524,2.312-.823.761-.674,1.321-1.2,1.409-1.871.008-.449.779-1.572,1.026-2.694.1-1.122,1.25-2.694,1.479-4.191.268-.973.947-2.47,1.453-4.117a23.288,23.288,0,0,1,1.479-4.191c.749-1.273.8-2.695,1.506-4.266a15.638,15.638,0,0,0,1.48-4.192c.171-1.122,1-2.619,1.479-4.191.652-1.422.8-2.47,1.48-4.191.674-1.273.8-2.694,1.453-4.117a6.3,6.3,0,0,0,.876-2.694,2.856,2.856,0,0,0,.013-1.946c-.167-.374-.827-1.048-1.2-1.048a23.01,23.01,0,0,1-3.218,0c-.916-.374-1.281-.823-1.193-1.5a2.413,2.413,0,0,1,1.206-1.722,22.289,22.289,0,0,1,2.7-.224,14.875,14.875,0,0,1,2.646-.075,9.416,9.416,0,0,0,2.545,0,14.452,14.452,0,0,1,2.545,0h2.619c.5.075,1.475-.15,2.62,0a14.084,14.084,0,0,0,2.545,0h2.545c1.122,0,2.069.075,3.166.15a14.345,14.345,0,0,1,3.135.449l3,.823a25.487,25.487,0,0,1,2.619,1.272c.718.3,1.1,1.347,2.012,1.722.991.374,1.141,1.646,1.277,2.32a7.5,7.5,0,0,1,.418,2.845A9.552,9.552,0,0,1,113.8,14.851ZM106.215,8.34c-.132-.9-.608-.823-1.021-1.347a7.074,7.074,0,0,0-1.427-1.048,3.847,3.847,0,0,0-1.858-.674A12.97,12.97,0,0,1,99.8,4.9c-.7-.15-1.871,0-2.492-.15a7.069,7.069,0,0,0-3.073.225,13.62,13.62,0,0,0-2.236.823c-1.009.524-1.017.973-1.629,1.646a5.46,5.46,0,0,0-1.255,2.919,19.391,19.391,0,0,1-1.348,3.817c-.581,1.646-1,2.619-1.374,3.892-.4,1.122-1.035,3.143-1.427,4.042-.4,1.122-.357,1.646.33,2.246a8.692,8.692,0,0,0,1.673,1.2,8.509,8.509,0,0,0,3.892,0c.726-.15,1.664.374,2.448-.15.506-.374,1.6-.3,2.382-.6a12.957,12.957,0,0,0,2.263-.9c.858-.524,1.387-.748,2.069-1.2a11.938,11.938,0,0,0,1.9-1.571c.361-.6.969-1.048,1.634-1.871l1.264-2.1c.718-.973.577-1.422,1.1-2.47.287-.6.436-1.871.674-2.545.159-.449-.066-1.721.066-2.1C107.047,9.163,106.352,9.013,106.215,8.34ZM65.848,4.747a8.794,8.794,0,0,1-2.382.6c-.626.075-1.211.674-1.828.3a2.347,2.347,0,0,0-2.285.748,8.484,8.484,0,0,0-1.409,1.871,13.362,13.362,0,0,0-1.026,2.694c-.22,1.048-1.079,2.845-1.453,4.117a18.73,18.73,0,0,0-1.479,4.192c-.427,1.422-1.03,2.918-1.48,4.191-.506,1.646-1.1,2.694-1.479,4.191-.405,1.572-.9,2.545-1.506,4.266l-1.48,4.191-1.453,4.117c-.582,1.646-1.259,3.144-1.48,4.191-.295,1.048-.815,2.1-.877,2.695a4.875,4.875,0,0,0,.062,1.946c.207.9.806.9,1.2,1.048.594.225,1.845.075,2.712.374,1.017.3.929.973.718,1.572a2.357,2.357,0,0,1-1.052,1.5c-1.11.6-.978.224-1.977.3-.625.075-1.417-.225-2.39-.225a14.359,14.359,0,0,1-2.545,0c-.471-.15-2.074.15-2.47,0-.99-.374-1.673.075-2.4,0-.872-.075-1.951.225-2.47,0a5.48,5.48,0,0,0-2.444-.075c-1.255.374-2.157.6-2.514-.3a2.418,2.418,0,0,1,.924-2.619c1.317-.973,2.268.15,3.778-.524,1.255-.374,1.752-.3,2.267-1.122.361-.6.942-.973,1.233-1.8.211-.6,1.11-1.871,1.127-2.769.07-1.047,1.2-2.545,1.374-3.892a20.461,20.461,0,0,1,1.4-3.966,22.512,22.512,0,0,0,1.453-4.117c.058-.374-.088-1.871-.827-2.32-.911-.6-1.769-1.347-2.72-1.2-.877.15-1.845-.075-2.769,0a11.445,11.445,0,0,1-2.769,0,17.108,17.108,0,0,0-2.769,0c-.722-.075-2.373.15-2.769,0-.819-.225-2.329.449-3.567,1.2a6.762,6.762,0,0,0-2.465,2.32c-.629,1.572-.881,2.919-1.453,4.117-.652,1.422-.929,2.844-1.4,3.966-.6,1.5-.872,2.47-1.374,3.892a11.838,11.838,0,0,0-.877,2.695,11.63,11.63,0,0,0,.013,1.871c.317.374.752,1.047,1.25,1.122a7.5,7.5,0,0,1,2.611.449c1.264.449,1.179,2.171.018,2.919-.987.674-1.651.225-2.647.075a7.2,7.2,0,0,0-2.5.075c-1.228.3-1.466-.3-3.015,0a2.275,2.275,0,0,1-1.85,0c-1.017-.3-1.849.15-2.6.15A9.812,9.812,0,0,0,5.2,54a14.359,14.359,0,0,1-2.545,0,5.678,5.678,0,0,1-1.915-.3c-1.559-.674-.088-3.144.863-3.293a20.263,20.263,0,0,1,2.078-.374c.6,0,1.052-.224,1.726-.224a5.226,5.226,0,0,0,2.312-.823A3.218,3.218,0,0,0,9.13,47.11c.291-.824.63-1.572,1.026-2.695l1.479-4.191a22.35,22.35,0,0,0,1.453-4.117c.374-1.272.947-2.47,1.48-4.191.37-1.048.775-2.62,1.506-4.266.652-1.422,1.008-3.069,1.479-4.191.427-1.422,1.084-3.069,1.48-4.191.37-1.048.881-2.919,1.479-4.192.625-1.347.956-2.919,1.453-4.117a9.082,9.082,0,0,0,.877-2.694,4.612,4.612,0,0,0,.013-1.946c-.141-.449-.335-.749-1.2-1.048-.595-.225-1.673.075-2.963-.3-.969-.225-1.435-.6-1.272-1.273A2.391,2.391,0,0,1,18.8,1.9c.731-.374,1.448-.075,2.272-.075.674,0,1.924-.15,2.571-.075.5.075,1.4-.15,2.47,0,.572.075,1.571,0,2.545,0a8.324,8.324,0,0,1,2.395,0,13.531,13.531,0,0,1,2.47,0,8.131,8.131,0,0,0,2.444.075c.823,0,2.378-.374,2.593.075a2.853,2.853,0,0,1-1,2.844c-1.47,1.2-2.976.374-3.7.524a3.781,3.781,0,0,0-2.369,1.2,13.67,13.67,0,0,0-1.308,1.8l-1.026,2.694c-.37,1.048-1,2.62-1.268,3.593-.405,1.572-1.021,2.47-1.294,3.668a25.789,25.789,0,0,1-1.347,3.817c-.313.674.048,1.347.907,2.1A4.627,4.627,0,0,0,28.9,25.254h2.769a17.057,17.057,0,0,0,2.769,0c1-.075,1.7.075,2.769,0a17.089,17.089,0,0,1,2.769,0,5.175,5.175,0,0,0,3.539-1.122c1.268-1.048,2.219-1.2,2.387-2.1.114-.748,1.048-2.545,1.347-3.817a8.98,8.98,0,0,1,1.3-3.668c.669-1.048.594-2.32,1.268-3.593a5.37,5.37,0,0,0,.9-2.769c-.088-.6.353-1.422-.088-1.871-.414-.524-.858-.749-1.175-1.123-.44-.449-1.942-.224-2.713-.374-1.092-.3-1.148-2.47.159-2.994,1.132-.449,1.37.15,2.545,0a13.871,13.871,0,0,1,2.5-.075c.449,0,1.546.075,2.47,0a12.757,12.757,0,0,1,2.4,0,22.028,22.028,0,0,1,2.5-.075,5.708,5.708,0,0,0,2.624-.225,14.326,14.326,0,0,1,2.545,0c.722.075,1.193.225,2.386.449.348.075.506.9.322,1.422A1.982,1.982,0,0,1,65.848,4.747Z" transform="translate(239.938 1319.091)" fill="#131a22" fill-rule="evenodd"/>
  </g>
</svg>
